<svg width="56" height="56" viewBox="0 0 56 56" fill="none" xmlns="http://www.w3.org/2000/svg">
<path d="M14.0002 30.8C13.2576 30.8 12.5454 30.505 12.0203 29.9798C11.4952 29.4547 11.2002 28.7426 11.2002 28C11.2002 27.2573 11.4952 26.5452 12.0203 26.0201C12.5454 25.495 13.2576 25.2 14.0002 25.2H42.0002C42.7428 25.2 43.455 25.495 43.9801 26.0201C44.5052 26.5452 44.8002 27.2573 44.8002 28C44.8002 28.7426 44.5052 29.4547 43.9801 29.9798C43.455 30.505 42.7428 30.8 42.0002 30.8H14.0002Z" fill="white"/>
<path d="M25.2002 14C25.2002 13.2573 25.4952 12.5452 26.0203 12.0201C26.5454 11.495 27.2576 11.2 28.0002 11.2C28.7428 11.2 29.455 11.495 29.9801 12.0201C30.5052 12.5452 30.8002 13.2573 30.8002 14V42C30.8002 42.7426 30.5052 43.4548 29.9801 43.9799C29.455 44.505 28.7428 44.8 28.0002 44.8C27.2576 44.8 26.5454 44.505 26.0203 43.9799C25.4952 43.4548 25.2002 42.7426 25.2002 42V14Z" fill="white"/>
</svg>
