<svg width="90" height="90" viewBox="0 0 90 90" fill="none" xmlns="http://www.w3.org/2000/svg">
<g clip-path="url(#clip0_81_1925)">
<path d="M45 5.625C37.2124 5.625 29.5996 7.9343 23.1244 12.2609C16.6493 16.5875 11.6025 22.737 8.62226 29.9318C5.64206 37.1267 4.8623 45.0437 6.3816 52.6817C7.90089 60.3197 11.651 67.3356 17.1577 72.8423C22.6644 78.349 29.6803 82.0991 37.3183 83.6184C44.9563 85.1377 52.8733 84.358 60.0682 81.3778C67.263 78.3976 73.4126 73.3508 77.7391 66.8756C82.0657 60.4004 84.375 52.7876 84.375 45C84.375 34.5571 80.2266 24.5419 72.8423 17.1577C65.4581 9.77343 55.4429 5.625 45 5.625ZM45 78.75C38.3249 78.75 31.7997 76.7706 26.2495 73.0621C20.6994 69.3536 16.3735 64.0826 13.8191 57.9156C11.2646 51.7486 10.5963 44.9626 11.8985 38.4157C13.2008 31.8688 16.4151 25.8552 21.1352 21.1351C25.8552 16.4151 31.8689 13.2007 38.4157 11.8985C44.9626 10.5962 51.7486 11.2646 57.9156 13.8191C64.0826 16.3735 69.3536 20.6993 73.0621 26.2495C76.7706 31.7997 78.75 38.3249 78.75 45C78.75 53.9511 75.1942 62.5355 68.8649 68.8649C62.5355 75.1942 53.9511 78.75 45 78.75Z" fill="#071C54"/>
<path d="M32.3438 30.9375C30.9531 30.9375 29.5937 31.3499 28.4374 32.1225C27.2811 32.8951 26.3799 33.9932 25.8477 35.278C25.3155 36.5628 25.1763 37.9765 25.4476 39.3405C25.7189 40.7044 26.3886 41.9572 27.3719 42.9406C28.3552 43.9239 29.6081 44.5936 30.972 44.8649C32.336 45.1362 33.7497 44.9969 35.0345 44.4648C36.3193 43.9326 37.4174 43.0314 38.19 41.8751C38.9626 40.7188 39.375 39.3594 39.375 37.9687C39.3825 37.0433 39.2057 36.1256 38.855 35.2692C38.5043 34.4127 37.9867 33.6346 37.3323 32.9802C36.6779 32.3258 35.8998 31.8081 35.0433 31.4574C34.1869 31.1067 33.2692 30.93 32.3438 30.9375ZM57.6563 30.9375C56.2656 30.9375 54.9062 31.3499 53.7499 32.1225C52.5936 32.8951 51.6924 33.9932 51.1602 35.278C50.628 36.5628 50.4888 37.9765 50.7601 39.3405C51.0314 40.7044 51.7011 41.9572 52.6844 42.9406C53.6677 43.9239 54.9206 44.5936 56.2845 44.8649C57.6485 45.1362 59.0622 44.9969 60.347 44.4648C61.6318 43.9326 62.7299 43.0314 63.5025 41.8751C64.2751 40.7188 64.6875 39.3594 64.6875 37.9687C64.695 37.0433 64.5182 36.1256 64.1675 35.2692C63.8168 34.4127 63.2992 33.6346 62.6448 32.9802C61.9904 32.3258 61.2123 31.8081 60.3558 31.4574C59.4994 31.1067 58.5817 30.93 57.6563 30.9375ZM45 67.5C48.8823 67.4934 52.6968 66.4824 56.0728 64.5653C59.4487 62.6482 62.2711 59.8901 64.2656 56.5594L59.4562 53.7469C57.9553 56.2393 55.8355 58.3014 53.3025 59.7328C50.7695 61.1643 47.9095 61.9165 45 61.9165C42.0905 61.9165 39.2305 61.1643 36.6975 59.7328C34.1645 58.3014 32.0447 56.2393 30.5438 53.7469L25.7344 56.5594C27.7289 59.8901 30.5513 62.6482 33.9273 64.5653C37.3032 66.4824 41.1177 67.4934 45 67.5Z" fill="#071C54"/>
</g>
<defs>
<clipPath id="clip0_81_1925">
<rect width="90" height="90" fill="white"/>
</clipPath>
</defs>
</svg>
