<svg width="3" height="7" viewBox="0 0 3 7" fill="none" xmlns="http://www.w3.org/2000/svg">
<path d="M0.114984 7.00004C0.114984 7.00004 0.0344126 7.00004 0.0142693 7.00004C0.00485128 6.97773 0 6.95377 0 6.92955C0 6.90533 0.00485128 6.88135 0.0142693 6.85904V1.34984C0.00064965 1.28678 0.00064965 1.22155 0.0142693 1.15849C0.0334529 1.10546 0.0686479 1.0597 0.114984 1.02755L1.60559 0.171458C1.77799 0.0554984 1.98203 -0.00430483 2.18975 0.000241236C2.33281 0.0175559 2.46497 0.0854262 2.5624 0.191605C2.65686 0.312847 2.72232 0.454103 2.75376 0.604547C2.79259 0.759384 2.81287 0.91829 2.81419 1.07792C2.81765 1.4057 2.75603 1.73092 2.6329 2.03472C2.5904 2.14566 2.53991 2.25337 2.48182 2.35701L2.38111 2.5383C2.53938 2.61965 2.66671 2.75051 2.74369 2.91095C2.86469 3.14355 2.92039 3.4046 2.90484 3.66632C2.90169 3.89346 2.87468 4.11963 2.82426 4.34112C2.77136 4.57693 2.69371 4.8065 2.59261 5.026C2.49083 5.2489 2.36231 5.45858 2.20989 5.65044C2.05992 5.8278 1.88323 5.98071 1.68617 6.10366L0.114984 7.00004ZM0.487639 1.57142V3.29368L1.4948 2.68937C1.72804 2.5653 1.92041 2.37643 2.04875 2.14551C2.17895 1.91903 2.24509 1.66139 2.24011 1.4002C2.24011 1.11819 2.17968 0.936906 2.04875 0.866405C1.91782 0.795903 1.7466 0.866411 1.4948 0.967127L0.487639 1.57142ZM0.487639 4.0692V6.01302L1.62573 5.35837C1.74594 5.2881 1.85464 5.19977 1.94803 5.0965C2.04428 4.99055 2.12561 4.87196 2.18975 4.744C2.25023 4.6183 2.29748 4.48667 2.33075 4.35121C2.34547 4.22069 2.34547 4.08893 2.33075 3.95841C2.34687 3.84483 2.34687 3.72954 2.33075 3.61596C2.31016 3.52782 2.26471 3.44743 2.19982 3.38432C2.16795 3.35337 2.13003 3.32933 2.08843 3.31373C2.04683 3.29813 2.00246 3.29131 1.9581 3.29368C1.83854 3.3037 1.72381 3.34542 1.62573 3.41453L0.487639 4.0692Z" fill="#455A64"/>
</svg>
