<svg width="51" height="51" viewBox="0 0 51 51" fill="none" xmlns="http://www.w3.org/2000/svg">
<g clip-path="url(#clip0_68_987)">
<path d="M12.75 24.6641V38.2499H26.3358L23.5025 35.4166H15.5833V27.4974L12.75 24.6641Z" fill="#FAB91D"/>
<path d="M49.3992 45.7439L45.3333 41.6214V45.3331H5.66667V39.4539H8.5V37.1873H5.66667V27.7664H8.5V25.4998H5.66667V16.4331H8.5V14.1664H5.66667V6.24727L28.2483 28.7014V24.7064L5.25584 1.82728C5.05769 1.62748 4.80453 1.49123 4.52863 1.43588C4.25274 1.38053 3.96662 1.4086 3.70674 1.5165C3.44686 1.6244 3.225 1.80725 3.06945 2.04174C2.9139 2.27623 2.8317 2.55172 2.83334 2.83311V46.7498C2.83334 47.1255 2.98259 47.4858 3.24827 47.7515C3.51395 48.0172 3.87428 48.1664 4.25 48.1664H48.3933C48.6747 48.1681 48.9502 48.0859 49.1847 47.9303C49.4192 47.7748 49.602 47.5529 49.7099 47.293C49.8178 47.0332 49.8459 46.747 49.7906 46.4711C49.7352 46.1952 49.599 45.9421 49.3992 45.7439Z" fill="#FAB91D"/>
<path d="M34 42.5H39.6667C40.4181 42.5 41.1388 42.2015 41.6701 41.6701C42.2015 41.1388 42.5 40.4181 42.5 39.6666V12.325L39.2417 6.33247C38.9897 5.89588 38.6257 5.53443 38.1875 5.2854C37.7492 5.03637 37.2524 4.90879 36.7483 4.9158C36.2329 4.91989 35.7283 5.06453 35.2889 5.33413C34.8496 5.60374 34.4921 5.98809 34.255 6.4458L31.1667 12.3533V39.6666C31.1667 40.4181 31.4652 41.1388 31.9965 41.6701C32.5279 42.2015 33.2485 42.5 34 42.5ZM34 13.0333L36.7483 7.69247L39.6667 13.0475V34H34V13.0333ZM34 36.3091H39.6667V39.7658H34V36.3091Z" fill="#FAB91D"/>
</g>
<defs>
<clipPath id="clip0_68_987">
<rect width="51" height="51" fill="white"/>
</clipPath>
</defs>
</svg>
