<svg width="37" height="26" viewBox="0 0 37 26" fill="none" xmlns="http://www.w3.org/2000/svg">
<path fill-rule="evenodd" clip-rule="evenodd" d="M36.0215 24.7869C34.0643 22.7905 32.1005 20.8193 29.9139 19.0616C28.6253 18.0257 27.2673 17.084 25.9373 16.1018C26.0907 16.2349 26.2411 16.3719 26.3881 16.5123C25.9729 16.2332 25.4295 16.0753 24.9894 15.8169C24.4984 15.5288 24.029 15.1992 23.5687 14.8668C22.6702 14.2184 21.7851 13.5575 20.8615 12.9429C19.8324 12.2581 18.766 11.6255 17.7194 10.9666C16.8311 10.4073 15.932 9.79513 14.9817 9.33815C14.4638 9.08896 13.9449 8.79355 13.4248 8.53358C13.2508 8.44663 11.4847 7.34226 11.4892 7.33896C11.5867 7.26609 12.4755 7.67972 12.6129 7.73519C13.0143 7.89764 13.3983 8.09201 13.7842 8.2855C13.5724 7.87167 13.4048 7.43692 13.3134 6.97905C13.2852 6.83795 13.0594 5.8093 13.175 5.72301C13.2325 5.68009 13.7959 7.52012 13.8248 7.6971C13.8484 7.84063 13.8448 8.04777 13.8924 8.1838C13.9691 8.40349 13.9653 8.33723 14.1342 8.46094C14.4438 8.6879 14.8548 8.82965 15.1897 9.0194C15.3706 9.11934 15.93 9.51535 16.267 9.62828C17.2865 10.1189 18.32 10.8733 19.2888 11.4998C19.0345 11.0265 18.8409 10.5317 18.7 10.0133C18.6665 9.89001 18.3042 8.78563 18.3922 8.72003C18.4911 8.64629 19.181 10.3331 19.2219 10.4927C19.2977 10.7894 19.3134 11.1196 19.4086 11.4082C19.5128 11.725 19.8384 11.8372 20.1318 12.0219C21.2113 12.7012 22.2539 13.423 23.2789 14.1781C24.3975 12.2077 23.1078 9.82859 22.021 8.17544C21.2373 6.98412 20.1827 5.96251 19.069 5.07078C17.5825 3.88077 15.882 2.92982 14.1836 2.0601C12.2046 1.04686 10.0656 0.419057 7.84171 0.12893C6.67865 -0.0227368 5.48892 -0.0185488 4.31408 0.0300992C3.74021 0.0538729 3.18924 0.129154 2.63938 0.314501C2.39134 0.398149 2.15175 0.503587 1.91838 0.621575C1.74102 0.711167 1.31185 0.806043 1.21005 0.93966C0.370373 2.0218 -0.0590268 3.1002 0.00653864 4.46015C0.068548 5.74745 0.479052 7.0354 1.03602 8.1838C1.65656 9.46252 2.45446 10.623 3.49817 11.5969C4.29429 12.34 5.18443 12.987 6.06878 13.6251C9.21392 15.8953 13.2014 17.8698 17.2749 17.3626C18.5936 17.1984 19.8477 16.7417 21.0197 16.1211C21.296 15.9747 21.5704 15.8268 21.8312 15.6542C22.007 15.5378 22.4768 15.0132 22.6535 14.9943C22.896 14.9681 23.4178 15.4563 23.6452 15.6049C25.373 16.7344 27.0555 17.9253 28.7026 19.1642C30.4553 20.4825 32.1218 21.8902 33.7394 23.3642C34.4273 23.9913 35.1109 24.6196 35.7788 25.2676C35.9344 25.4184 36.3147 25.9736 36.5967 25.9989C36.775 26.0147 36.8952 25.8639 36.8699 25.7004C36.8256 25.4164 36.222 24.9911 36.0215 24.7869Z" fill="#C1DEE2"/>
</svg>
