<svg width="31" height="31" viewBox="0 0 31 31" fill="none" xmlns="http://www.w3.org/2000/svg">
<path fill-rule="evenodd" clip-rule="evenodd" d="M12.1794 11.5847H16.9766V13.9743C17.6676 12.6 19.4398 11.3652 22.1018 11.3652C27.2051 11.3652 28.4167 14.1009 28.4167 19.1202V28.4162H23.2501V20.2633C23.2501 17.4049 22.5591 15.7929 20.7999 15.7929C18.3599 15.7929 17.346 17.5302 17.346 20.262V28.4162H12.1794V11.5847ZM3.31999 28.1966H8.48658V11.3652H3.31999V28.1966ZM9.22669 5.87695C9.22688 6.31001 9.141 6.73879 8.97403 7.13836C8.80706 7.53793 8.56233 7.90034 8.25408 8.2045C7.62944 8.8253 6.78394 9.17279 5.90328 9.17066C5.02417 9.17006 4.18062 8.82346 3.55507 8.20579C3.24793 7.90059 3.00403 7.53778 2.83735 7.13816C2.67068 6.73853 2.58449 6.30994 2.58375 5.87695C2.58375 5.00251 2.93249 4.16552 3.55636 3.54811C4.18137 2.92962 5.02527 2.58286 5.90457 2.58325C6.78548 2.58325 7.63021 2.9307 8.25408 3.54811C8.87665 4.16552 9.22669 5.00251 9.22669 5.87695Z" fill="white"/>
</svg>
