<svg width="77" height="78" viewBox="0 0 77 78" fill="none" xmlns="http://www.w3.org/2000/svg">
<path d="M55.3437 16.9805H64.9687V26.6836H55.3437V16.9805ZM55.3437 31.5352H64.9687V41.2383H55.3437V31.5352ZM40.9062 16.9805H50.5312V26.6836H40.9062V16.9805ZM40.9062 31.5352H50.5312V41.2383H40.9062V31.5352Z" fill="white"/>
<path d="M34.8906 63.0701C36.884 63.0701 38.5 61.441 38.5 59.4314C38.5 57.4219 36.884 55.7928 34.8906 55.7928C32.8972 55.7928 31.2812 57.4219 31.2812 59.4314C31.2812 61.441 32.8972 63.0701 34.8906 63.0701Z" fill="white"/>
<path d="M50.5312 72.7732H19.25C17.974 72.7719 16.7507 72.2603 15.8484 71.3508C14.9462 70.4412 14.4388 69.2079 14.4375 67.9216V9.70302C14.4388 8.4167 14.9462 7.18344 15.8484 6.27388C16.7507 5.36431 17.974 4.85275 19.25 4.85147H50.5312V9.70302H19.25V67.9216H50.5312V48.5154H55.3437V67.9216C55.3424 69.2079 54.835 70.4412 53.9328 71.3508C53.0305 72.2603 51.8072 72.7719 50.5312 72.7732Z" fill="white"/>
</svg>
