<svg width="3" height="7" viewBox="0 0 3 7" fill="none" xmlns="http://www.w3.org/2000/svg">
<path d="M1.45991 0.199555C1.62043 0.108002 1.79472 0.0430664 1.97602 0.00727876C2.12408 -0.0158521 2.27546 0.0165836 2.40104 0.0983519C2.53942 0.19424 2.64252 0.332872 2.69451 0.493002C2.77208 0.734714 2.80633 0.988248 2.7957 1.24188C2.7994 1.53845 2.76539 1.83428 2.69451 2.12228C2.6276 2.38293 2.52904 2.63441 2.40104 2.87113C2.28779 3.08586 2.1447 3.28349 1.97602 3.45808C1.82627 3.62202 1.6522 3.76193 1.45991 3.87296L0.447947 4.45992V6.54456C0.461327 6.60796 0.461327 6.67345 0.447947 6.73684C0.425455 6.78829 0.390714 6.83346 0.346752 6.8684L0.114004 6.99996C0.114004 6.99996 0.0330407 6.99996 0.0128014 6.99996C-0.00426714 6.95428 -0.00426714 6.90395 0.0128014 6.85827V1.32282C-0.00225382 1.25961 -0.00225382 1.19375 0.0128014 1.13054C0.0320764 1.07726 0.0674468 1.03128 0.114004 0.998985L1.45991 0.199555ZM0.447947 3.69081L1.45991 3.11399C1.71769 2.9678 1.93102 2.75448 2.07721 2.4967C2.23347 2.20825 2.3103 1.88347 2.29984 1.55558C2.29984 1.18116 2.22901 0.958511 2.07721 0.877554C1.92542 0.796597 1.72302 0.87757 1.45991 0.988886L0.447947 1.56568V3.69081Z" fill="#455A64"/>
</svg>
