<svg width="46" height="46" viewBox="0 0 46 46" fill="none" xmlns="http://www.w3.org/2000/svg">
<path d="M26.7883 34.6001L26.7882 34.6001L23.1274 38.123L22.591 38.6391H23.3354H28.4596V41.8725H17.5594L17.5578 38.9957L24.5457 32.2707C24.5458 32.2706 24.5458 32.2706 24.5459 32.2705C24.81 32.0166 25.0071 31.7011 25.1195 31.3524C25.2318 31.0036 25.256 30.6323 25.1897 30.2719C25.1235 29.9114 24.9689 29.5731 24.7398 29.287C24.5108 29.0009 24.2143 28.7761 23.8771 28.6327C23.5399 28.4893 23.1723 28.4317 22.8074 28.4652C22.4424 28.4986 22.0915 28.622 21.7859 28.8243C21.4803 29.0266 21.2297 29.3015 21.0564 29.6244C20.9307 29.8586 20.8486 30.1127 20.8131 30.3744H17.5678C17.6013 29.761 17.7384 29.157 17.9739 28.5881C18.2477 27.9267 18.6491 27.3256 19.1552 26.8194C19.6613 26.3131 20.2622 25.9115 20.9235 25.6375C21.5849 25.3635 22.2937 25.2225 23.0096 25.2225C24.0965 25.2224 25.1586 25.5473 26.0595 26.1555C26.9603 26.7637 27.6587 27.6274 28.0649 28.6356C28.4712 29.6437 28.5667 30.7503 28.3392 31.8132C28.1117 32.876 27.5716 33.8465 26.7883 34.6001ZM38.3429 36.1225H30.9763V25.2225H34.2096V32.5891V32.8891H34.5096H38.3429H38.6429V32.5891V25.2225H41.8763V41.8725H38.6429V36.4225V36.1225H38.3429ZM4.14293 6.48026L8.317 10.656L8.54492 10.8841L8.75597 10.6403C10.5253 8.59697 12.7141 6.95865 15.1732 5.83682C17.6324 4.71499 20.3044 4.13596 23.0073 4.13912H23.0077H23.0096C32.6788 4.13912 40.6506 11.4147 41.7463 20.7891H38.4864C38.0676 17.8679 36.8303 15.1228 34.915 12.8729C32.9425 10.5558 30.3367 8.86461 27.4171 8.00675C24.4974 7.1489 21.391 7.16167 18.4785 8.04349C15.5661 8.92531 12.9742 10.6378 11.0208 12.9711L10.8445 13.1817L11.0387 13.3758L14.6187 16.9558H4.14293V6.48026ZM7.37884 23.3058C7.41968 25.5472 7.94303 27.7547 8.91463 29.7776C9.9087 31.8473 11.347 33.6715 13.1263 35.1207V39.0801C10.4578 37.4399 8.23737 35.1591 6.66873 32.4416C5.06274 29.6594 4.19491 26.5146 4.14519 23.3058H7.37884Z" fill="#171717" stroke="white" stroke-width="0.6"/>
</svg>
