<svg width="1" height="5" viewBox="0 0 1 5" fill="none" xmlns="http://www.w3.org/2000/svg">
<path d="M0.578718 0.0205498C0.595335 0.00724592 0.61599 0 0.637276 0C0.658562 0 0.679218 0.00724592 0.695834 0.0205498C0.695834 0.0205498 0.695834 0.102532 0.695834 0.172797V0.840326C0.712425 0.913567 0.712425 0.989595 0.695834 1.06284C0.67281 1.12099 0.631763 1.17023 0.578718 1.20336L0.145421 1.461C0.126971 1.47525 0.104311 1.48298 0.081002 1.48298C0.0576932 1.48298 0.0350506 1.47525 0.0166007 1.461C0.00564979 1.43506 0 1.40718 0 1.37902C0 1.35086 0.00564979 1.32298 0.0166007 1.29703V0.641225C-0.000821893 0.56808 -0.000821893 0.491861 0.0166007 0.418716C0.0467472 0.358397 0.0909237 0.306183 0.145421 0.266468L0.578718 0.0205498ZM0.578718 3.53382C0.578718 3.53382 0.660702 3.53382 0.695834 3.53382C0.715587 3.58668 0.715587 3.64492 0.695834 3.69779V4.36528C0.712271 4.43458 0.712271 4.5068 0.695834 4.5761C0.672869 4.6374 0.632075 4.69039 0.578718 4.72831L0.145421 4.97427C0.128021 4.99074 0.104962 4.99993 0.081002 4.99993C0.0570416 4.99993 0.0340003 4.99074 0.0166007 4.97427C-0.00315179 4.9214 -0.00315179 4.86316 0.0166007 4.8103V4.14277C0.000163766 4.07347 0.000163766 4.00129 0.0166007 3.93198C0.0433373 3.86949 0.0882132 3.81645 0.145421 3.77973L0.578718 3.53382Z" fill="#455A64"/>
</svg>
