<svg width="524" height="509" viewBox="0 0 524 509" fill="none" xmlns="http://www.w3.org/2000/svg">
<path d="M110.714 105.071C86.0435 135.678 57.0191 165.359 39.5955 181.782C3.71351 209.493 -3.697 242.079 4.56379 274.41C33.4993 387.658 136.829 508.934 253.702 507.19C300.568 506.491 351.362 491.481 393.372 473.612C423.496 460.8 451.208 442.29 473.041 417.9C513.423 372.788 524.91 332.521 522.165 300.021C517.429 243.948 455.814 218.288 424.896 171.27C385.547 111.43 354.44 34.2979 287.048 10.0576C259.796 0.255128 235.361 -0.297345 214.608 4.24531C165.959 14.8942 141.967 66.2984 110.714 105.071Z" stroke="#071C54" stroke-width="3" stroke-linecap="round" stroke-dasharray="12 15"/>
</svg>
