<svg width="3" height="8" viewBox="0 0 3 8" fill="none" xmlns="http://www.w3.org/2000/svg">
<path d="M2.63135 6.49949C2.61192 6.51611 2.58719 6.52524 2.56162 6.52524C2.53605 6.52524 2.51133 6.51611 2.4919 6.49949C2.45029 6.46029 2.4174 6.41277 2.39535 6.36003L0.485866 3.0238V7.49714C0.501826 7.56414 0.501826 7.63396 0.485866 7.70096C0.458251 7.75621 0.417785 7.80404 0.367864 7.84042L0.131859 7.97988C0.114959 7.99293 0.0942093 8 0.072858 8C0.0515067 8 0.0307574 7.99293 0.0138569 7.97988C-0.00461895 7.93523 -0.00461895 7.88507 0.0138569 7.84042V1.9618C-0.001341 1.8947 -0.001341 1.82506 0.0138569 1.75797C0.0383973 1.70354 0.07976 1.6584 0.131859 1.62923L0.335683 1.50051C0.355114 1.48389 0.379845 1.47476 0.405414 1.47476C0.430983 1.47476 0.455706 1.48389 0.475137 1.50051C0.51241 1.53935 0.544834 1.58257 0.571688 1.62923L2.4919 4.96546V0.492127C2.47684 0.428643 2.47684 0.362525 2.4919 0.299041C2.5137 0.240178 2.55546 0.190823 2.6099 0.159579L2.8459 0.0201172C2.8628 0.00706918 2.88355 0 2.9049 0C2.92625 0 2.947 0.00706918 2.9639 0.0201172C2.98199 0.0685436 2.98199 0.12189 2.9639 0.170317V6.04894C2.97896 6.11243 2.97896 6.17854 2.9639 6.24203C2.93941 6.29928 2.8983 6.34786 2.8459 6.38149L2.63135 6.49949Z" fill="#455A64"/>
</svg>
