<svg width="20" height="27" viewBox="0 0 20 27" fill="none" xmlns="http://www.w3.org/2000/svg">
<path fill-rule="evenodd" clip-rule="evenodd" d="M19.3713 0.147238C18.603 -0.0190024 17.7536 -0.00628653 16.9718 0.00732508C12.7745 0.0640029 8.65084 2.03255 5.96798 5.17795C3.68389 7.85565 3.05575 11.1849 2.60448 14.5503C2.55987 14.8844 2.54072 15.2164 2.51548 15.5513C2.51007 15.6232 2.50196 15.6872 2.49318 15.7477C2.31587 15.9048 2.22259 16.088 2.32781 16.2893C1.93691 17.1365 1.60618 18.0052 1.32231 18.9014C0.487121 21.5389 -0.362264 24.2266 0.160881 27.0001C0.283218 25.4738 0.540507 23.9131 0.848041 22.4118C0.865614 22.3257 0.884773 22.2402 0.9046 22.155C0.906853 22.1461 0.90865 22.1369 0.910678 22.128C1.0195 21.6683 1.16099 21.2225 1.33311 20.7836C1.33492 20.7786 1.33672 20.774 1.33852 20.7693C1.36127 20.7115 1.38539 20.6539 1.40927 20.5966C1.45861 20.4776 1.5093 20.3589 1.56292 20.2409C1.58117 20.2005 1.59851 20.1599 1.61541 20.119C1.86594 19.5108 1.97161 18.8253 2.19623 18.196C2.24986 18.053 2.30595 17.9104 2.36476 17.7685C2.36836 17.7602 2.37175 17.752 2.37536 17.7437C2.53442 17.3619 2.70993 16.985 2.8958 16.6119C2.99673 16.5367 3.05057 16.3504 3.13776 16.1811C3.15556 16.1476 3.29638 15.9251 3.33828 15.7968C3.44778 15.5873 3.5566 15.3777 3.66677 15.1684C3.66362 15.1698 3.66024 15.1709 3.65686 15.1722C3.76703 14.9712 3.87765 14.7712 3.98737 14.572C4.01147 14.5282 4.03581 14.4845 4.06014 14.4405C4.09957 14.3707 4.13899 14.3009 4.17819 14.2312C4.54588 13.5794 4.93588 12.9408 5.34074 12.31C5.48539 12.0848 5.83054 11.762 5.89677 11.5094C5.89925 11.4998 5.89971 11.4911 5.90128 11.4821C6.77995 10.2598 7.79132 9.13247 9.00455 8.23923C8.85788 8.39632 8.54608 8.92896 8.46384 9.03451C8.21151 9.35739 7.93777 9.65796 7.66313 9.96233C7.17085 10.5075 6.69051 11.0698 6.26357 11.6644C5.48269 12.752 4.80926 13.8965 4.17233 15.0642C4.16648 15.0709 4.15972 15.0774 4.15409 15.0845C3.83394 15.4753 3.63252 16.0657 3.40227 16.5126C4.31383 16.0945 5.32204 15.822 6.25748 15.4507C7.19067 15.0805 8.09818 14.6682 8.97459 14.1842C10.1392 13.5406 11.3474 12.8143 12.4478 11.9922C13.7095 11.2175 14.7684 10.1511 15.7034 9.03205C16.8119 7.70793 17.8257 6.37243 18.452 4.7647C18.7607 3.97478 19.0018 3.15094 19.146 2.31751C19.1527 2.28136 19.1617 2.24187 19.1685 2.20103C19.3172 1.91318 19.4479 1.61885 19.5583 1.31784C19.734 0.840315 20.1463 0.31504 19.3713 0.147238Z" fill="#69A1AC"/>
</svg>
