<svg width="24" height="24" viewBox="0 0 24 24" fill="none" xmlns="http://www.w3.org/2000/svg">
<path d="M7.78999 8.00005L16.21 8.00005C16.5424 7.99957 16.8682 8.09324 17.1495 8.27021C17.4309 8.44718 17.6564 8.70023 17.8 9.00005C17.968 9.35579 18.0327 9.75158 17.9868 10.1423C17.9408 10.5331 17.786 10.903 17.54 11.2101L13.33 16.3101C13.1648 16.5007 12.9605 16.6536 12.731 16.7583C12.5016 16.8631 12.2523 16.9174 12 16.9174C11.7477 16.9174 11.4984 16.8631 11.2689 16.7583C11.0395 16.6536 10.8352 16.5007 10.67 16.3101L6.45999 11.2101C6.21398 10.903 6.05918 10.5331 6.01321 10.1423C5.96724 9.75158 6.03196 9.35579 6.19999 9.00005C6.34353 8.70023 6.56905 8.44718 6.85044 8.27021C7.13182 8.09324 7.45758 7.99957 7.78999 8.00005Z" fill="white"/>
</svg>
