<svg width="3" height="8" viewBox="0 0 3 8" fill="none" xmlns="http://www.w3.org/2000/svg">
<path d="M2.63874 6.42965C2.61955 6.44607 2.59513 6.45507 2.56987 6.45507C2.54461 6.45507 2.52018 6.44607 2.50099 6.42965C2.45782 6.39712 2.42475 6.35304 2.40561 6.3025L0.508799 3.00689V7.42575C0.522928 7.48855 0.522928 7.55369 0.508799 7.61648C0.49075 7.67342 0.453229 7.7222 0.402825 7.75425L0.159104 7.89201C0.144068 7.90405 0.125378 7.9106 0.106117 7.9106C0.0868561 7.9106 0.068174 7.90405 0.0531382 7.89201C0.0170716 7.8512 -0.00190494 7.79806 0.000151222 7.74364V1.94721C0.00123386 1.8768 0.0194204 1.8077 0.0531382 1.74587C0.0739187 1.6904 0.110823 1.64242 0.159104 1.60811L0.371036 1.49156C0.371036 1.49156 0.46641 1.49156 0.4982 1.49156C0.541536 1.52657 0.577544 1.56978 0.604166 1.61872L2.49039 4.91432V0.495462C2.47606 0.429114 2.47606 0.360469 2.49039 0.294121C2.51394 0.240242 2.55032 0.192942 2.59635 0.156358L2.84008 0.0185948C2.85512 0.00655657 2.87381 0 2.89307 0C2.91233 0 2.93101 0.00655657 2.94605 0.0185948C2.96494 0.0381234 2.97944 0.0614706 2.98857 0.0870559C2.99771 0.112641 3.00128 0.13989 2.99904 0.166965V5.96339C2.99515 6.03339 2.97712 6.10189 2.94605 6.16473C2.9225 6.21861 2.88612 6.26591 2.84008 6.3025L2.63874 6.42965Z" fill="#455A64"/>
</svg>
