<svg width="1" height="5" viewBox="0 0 1 5" fill="none" xmlns="http://www.w3.org/2000/svg">
<path d="M0.577691 0.0205657C0.59432 0.00725151 0.614991 0 0.636294 0C0.657597 0 0.678268 0.00725151 0.694897 0.0205657C0.714665 0.0734725 0.714665 0.131755 0.694897 0.184662V0.852671C0.711347 0.922029 0.711347 0.994299 0.694897 1.06366C0.671914 1.125 0.631089 1.17804 0.577691 1.21599L0.144059 1.46213C0.125595 1.47639 0.102926 1.48409 0.0795989 1.48409C0.0562722 1.48409 0.0336031 1.47639 0.0151389 1.46213C-0.00462882 1.40922 -0.00462882 1.35094 0.0151389 1.29803V0.629989C-0.0013107 0.560632 -0.0013107 0.488397 0.0151389 0.419039C0.0389576 0.354731 0.0845798 0.300809 0.144059 0.266674L0.577691 0.0205657ZM0.577691 3.53655C0.59432 3.52323 0.614991 3.51598 0.636294 3.51598C0.657597 3.51598 0.678268 3.52323 0.694897 3.53655C0.715082 3.58533 0.715082 3.64013 0.694897 3.68891V4.35696C0.711501 4.43025 0.711501 4.50634 0.694897 4.57964C0.668849 4.63923 0.628605 4.6915 0.577691 4.73197L0.144059 4.97811C0.125595 4.99237 0.102926 5.00007 0.0795989 5.00007C0.0562722 5.00007 0.0336031 4.99237 0.0151389 4.97811C-0.0050463 4.92933 -0.0050463 4.87453 0.0151389 4.82575V4.1577C-0.000357473 4.08428 -0.000357473 4.00844 0.0151389 3.93502C0.0453088 3.87465 0.0895194 3.8224 0.144059 3.78265L0.577691 3.53655Z" fill="#455A64"/>
</svg>
