<svg width="102" height="79" viewBox="0 0 102 79" fill="none" xmlns="http://www.w3.org/2000/svg">
<path d="M102 35.7971V31.6782C101.97 31.4391 101.878 31.2118 101.734 31.0185C101.59 30.8253 101.399 30.6728 101.178 30.5758L76.2643 16.285C75.6711 15.984 75.0153 15.8271 74.3502 15.8271C73.685 15.8271 73.0292 15.984 72.436 16.285L0.831794 57.3735C0.610416 57.4708 0.41769 57.6232 0.272055 57.8162C0.126421 58.0092 0.0327478 58.2364 0 58.4759V62.6449C0.0334342 62.883 0.127493 63.1085 0.273149 63.2998C0.418804 63.4911 0.611171 63.6417 0.831794 63.7373L25.7354 77.998C26.33 78.2944 26.9852 78.4488 27.6496 78.4488C28.3139 78.4488 28.9692 78.2944 29.5637 77.998L101.178 36.9095C101.399 36.8125 101.59 36.66 101.734 36.4667C101.878 36.2735 101.97 36.0462 102 35.8071V35.7971Z" fill="#F0F0F0"/>
<path d="M0.831641 59.5783L25.7353 73.8691C26.3284 74.1701 26.9842 74.327 27.6494 74.327C28.3146 74.327 28.9704 74.1701 29.5635 73.8691L101.178 32.7806C101.405 32.701 101.603 32.5526 101.742 32.356C101.882 32.1594 101.957 31.9243 101.957 31.6832C101.957 31.4421 101.882 31.207 101.742 31.0104C101.603 30.8138 101.405 30.6654 101.178 30.5858L76.2641 16.285C75.671 15.984 75.0152 15.8271 74.35 15.8271C73.6848 15.8271 73.029 15.984 72.4359 16.285L0.831641 57.3735C0.600514 57.4509 0.399551 57.599 0.257165 57.7968C0.114778 57.9946 0.0381682 58.2322 0.0381682 58.4759C0.0381682 58.7197 0.114778 58.9572 0.257165 59.155C0.399551 59.3529 0.600514 59.5009 0.831641 59.5783Z" fill="#FAFAFA"/>
<path d="M27.6195 74.33V78.4489C26.9539 78.4598 26.2961 78.3048 25.7054 77.9979L0.82177 63.6971C0.608161 63.6038 0.421174 63.4587 0.277698 63.275C0.134222 63.0913 0.0387799 62.8747 0 62.6448V58.4759C0.0169439 58.3118 0.0718411 58.154 0.160345 58.0149C-0.130281 58.546 0.090194 59.1573 0.82177 59.5782L25.7354 73.869C26.3136 74.1814 26.9624 74.3402 27.6195 74.33Z" fill="#E0E0E0"/>
<path d="M38.4432 40.1165L59.5486 52.1524L94.4137 32.1393L73.3083 20.1034L38.4432 40.1165Z" fill="#E0E0E0"/>
<path d="M59.7792 51.2304L39.4254 39.5953C39.9534 37.8682 39.9148 36.0175 39.3152 34.3139L59.5488 45.8287C59.8659 47.6109 59.9434 49.4276 59.7792 51.2304Z" fill="white"/>
<path d="M58.5064 44.1852C59.0845 44.5462 59.568 45.0402 59.9166 45.6259C60.2653 46.2116 60.4689 46.8721 60.5107 47.5524V51.4809C60.5107 52.7236 59.6388 53.2246 58.5064 52.6033L38.4632 41.0885V40.0863L58.2358 51.4107C58.8872 51.7815 59.4083 51.4809 59.4083 50.7293V47.0914C59.3827 46.689 59.2633 46.2982 59.0597 45.9502C58.8561 45.6022 58.574 45.3066 58.2358 45.0871L38.4432 33.7727V32.6704L58.5064 44.1852Z" fill="#EBEBEB"/>
<path d="M38.4432 32.6704L73.3083 12.6272L93.3514 24.142C93.9291 24.5154 94.4095 25.021 94.7529 25.617C95.0962 26.2131 95.2926 26.8823 95.3257 27.5694V31.4778C95.3513 31.7186 95.3118 31.9619 95.2113 32.1822C95.1109 32.4026 94.9531 32.5919 94.7545 32.7305L59.8894 52.7737C60.0872 52.6344 60.2444 52.4449 60.3448 52.2247C60.4452 52.0046 60.4851 51.7617 60.4606 51.521V47.5524C60.4196 46.8719 60.2163 46.2111 59.8676 45.6252C59.5189 45.0394 59.0349 44.5456 58.4563 44.1852L38.4432 32.6704Z" fill="#E0E0E0"/>
<path d="M59.8888 45.6082C60.2393 46.1908 60.4358 46.8529 60.46 47.5324V51.4709C60.4846 51.7116 60.4446 51.9545 60.3442 52.1746C60.2438 52.3948 60.0866 52.5842 59.8888 52.7236L94.7539 32.6804C94.9525 32.5418 95.1103 32.3525 95.2108 32.1321C95.3112 31.9118 95.3507 31.6685 95.3251 31.4277V27.5694C95.2993 26.8933 95.1028 26.2349 94.7539 25.6552L59.8888 45.6082Z" fill="#EBEBEB"/>
<path d="M38.4432 30.2451L59.5486 42.271L94.4137 22.2679L73.3083 10.232L38.4432 30.2451Z" fill="#E0E0E0"/>
<path d="M59.7893 41.3591L39.4254 29.6739C39.9534 27.9502 39.9147 26.1027 39.3152 24.4025L59.5488 35.9574C59.8683 37.7393 59.9492 39.5558 59.7893 41.3591Z" fill="white"/>
<path d="M58.5064 34.3039C59.0834 34.6662 59.566 35.1604 59.9145 35.7459C60.263 36.3313 60.4673 36.9912 60.5107 37.6711V41.5996C60.5107 42.8423 59.6388 43.3434 58.5064 42.722L38.4632 31.2072V30.2051L58.2358 41.5295C58.8872 41.9003 59.4083 41.5996 59.4083 40.858V37.2101C59.3851 36.8072 59.2667 36.4155 59.0629 36.0671C58.8591 35.7187 58.5756 35.4236 58.2358 35.2058L38.4432 23.9015V22.7891L58.5064 34.3039Z" fill="#EBEBEB"/>
<path d="M38.4432 22.7991L73.3083 2.75594L93.3514 14.2707C93.9202 14.6375 94.394 15.1339 94.7337 15.7193C95.0734 16.3046 95.2694 16.9622 95.3056 17.638V21.5765C95.3391 21.8192 95.3065 22.0664 95.2112 22.2922C95.116 22.5179 94.9617 22.7138 94.7645 22.8592L59.8994 42.9024C60.1018 42.7562 60.2609 42.5578 60.3597 42.3284C60.4586 42.0991 60.4934 41.8472 60.4606 41.5996V37.6712C60.4172 36.9912 60.2129 36.3313 59.8644 35.7459C59.5159 35.1604 59.0333 34.6662 58.4563 34.3039L38.4432 22.7991Z" fill="#FAFAFA"/>
<path d="M59.8888 35.757C60.2418 36.3348 60.4386 36.9944 60.46 37.6711V41.5996C60.4843 41.8417 60.4443 42.086 60.344 42.3077C60.2437 42.5294 60.0867 42.7207 59.8888 42.8623L94.7639 22.8592C94.9617 22.7199 95.1189 22.5305 95.2193 22.3103C95.3197 22.0901 95.3597 21.8472 95.3351 21.6065V17.668C95.3093 16.992 95.1128 16.3335 94.7639 15.7539L59.8888 35.757Z" fill="#F0F0F0"/>
<path d="M30.3055 0.521142L52.7639 13.4891V56.2011L30.3055 43.2332V0.521142Z" fill="#E0E0E0"/>
<path d="M52.0323 14.2006L30.3055 1.73372C28.9683 3.15108 27.2122 4.10286 25.2947 4.44957L46.8411 16.8663C46.8411 16.8663 48.2742 16.5456 52.0323 14.2006Z" fill="white"/>
<path d="M44.7963 16.7862C45.4446 17.1122 46.1602 17.2821 46.8858 17.2821C47.6115 17.2821 48.3271 17.1122 48.9753 16.7862L52.6733 14.6917C52.9245 14.6077 53.1429 14.4469 53.2977 14.232C53.4524 14.017 53.5357 13.7589 53.5357 13.4941C53.5357 13.2292 53.4524 12.9711 53.2977 12.7562C53.1429 12.5413 52.9245 12.3805 52.6733 12.2965L31.2171 0L30.3051 0.521123L51.3505 12.6873C52.042 13.0782 52.042 13.6895 51.3505 14.1204L47.9531 16.0546C47.5626 16.2496 47.132 16.351 46.6954 16.351C46.2589 16.351 45.8283 16.2496 45.4377 16.0546L24.3924 3.91844L23.3902 4.50971L44.7963 16.7862Z" fill="#FAFAFA"/>
<path d="M23.3804 4.51975V47.2117L44.7966 59.4982C45.4448 59.8243 46.1604 59.9941 46.8861 59.9941C47.6117 59.9941 48.3273 59.8243 48.9756 59.4982L52.6735 57.4037C52.9111 57.2979 53.1162 57.1307 53.2677 56.9193C53.4192 56.708 53.5116 56.46 53.5354 56.2011V13.5392C53.5016 13.7875 53.4046 14.0229 53.2537 14.223C53.1028 14.423 52.903 14.5809 52.6735 14.6816L49.0157 16.7862C48.3674 17.1122 47.6518 17.2821 46.9262 17.2821C46.2005 17.2821 45.4849 17.1122 44.8367 16.7862L23.3804 4.51975Z" fill="#E0E0E0"/>
<path d="M46.8813 17.2873C47.6105 17.2998 48.3311 17.1274 48.9758 16.7862L52.6737 14.6816C52.8957 14.5756 53.0874 14.4154 53.231 14.2157C53.3746 14.016 53.4656 13.7833 53.4955 13.5392V56.2011C53.4717 56.46 53.3793 56.708 53.2278 56.9193C53.0763 57.1307 52.8712 57.2979 52.6337 57.4037L48.9758 59.4982C48.3311 59.8394 47.6105 60.0118 46.8813 59.9993V17.2873Z" fill="#EBEBEB"/>
<path d="M20.8046 9.5807L43.253 22.5486L36.278 66.5534L13.8296 53.5855L20.8046 9.5807Z" fill="#EBEBEB"/>
<path d="M42.3713 23.17L20.6044 10.6931C18.9064 11.9341 16.9126 12.7082 14.822 12.9379L36.3684 25.3547C38.444 24.8506 40.4573 24.1179 42.3713 23.17Z" fill="white"/>
<path d="M34.1437 25.1843C34.8473 25.5178 35.6105 25.7074 36.3884 25.7418C37.1663 25.7762 37.9432 25.6548 38.6735 25.3847L42.9427 23.6409C44.2856 23.0897 44.4459 22.1076 43.2935 21.4462L21.8673 9.14972L20.805 9.58064L41.8503 21.7468C42.5418 22.1477 42.4416 22.749 41.6399 23.0597L37.6313 24.6631C36.7668 24.9772 35.8139 24.9413 34.9755 24.5629L13.9302 12.4168L12.7276 12.9078L34.1437 25.1843Z" fill="#FAFAFA"/>
<path d="M12.7178 12.8877L5.70271 56.8925L27.169 69.189C27.8725 69.5226 28.6357 69.7122 29.4136 69.7466C30.1915 69.781 30.9684 69.6596 31.6987 69.3895L35.9679 67.6557C36.6394 67.3851 36.9701 67.0043 37.0803 66.6536L44.0553 22.5586C43.9952 22.9594 43.6144 23.3403 42.9429 23.5607L38.6437 25.3947C37.9123 25.661 37.1353 25.7796 36.3577 25.7435C35.5801 25.7073 34.8175 25.5173 34.1139 25.1842L12.7178 12.8877Z" fill="#EBEBEB"/>
<path d="M36.3287 25.7454C37.116 25.7832 37.9029 25.664 38.6437 25.3947L42.9129 23.6409C43.5844 23.3703 43.9151 22.9895 44.0253 22.6387L37.0102 66.6435C36.9501 67.0444 36.5692 67.4252 35.8978 67.6457L31.6286 69.3894C30.8833 69.6683 30.0879 69.7878 29.2936 69.7402L36.3287 25.7454Z" fill="#F0F0F0"/>
</svg>
