<svg width="32" height="21" viewBox="0 0 32 21" fill="none" xmlns="http://www.w3.org/2000/svg">
<path fill-rule="evenodd" clip-rule="evenodd" d="M15.9985 17.1829C15.9995 17.1854 16.0005 17.1878 16.002 17.1908C16.0005 17.1883 15.9985 17.1784 15.9985 17.1829Z" fill="#C5CFD6"/>
<path fill-rule="evenodd" clip-rule="evenodd" d="M16.0007 17.1866C16.0007 17.1871 16.0012 17.1881 16.0012 17.1891C16.0012 17.1866 15.9966 17.1789 16.0007 17.1866Z" fill="#C5CFD6"/>
<path fill-rule="evenodd" clip-rule="evenodd" d="M15.985 17.1484C15.9881 17.1572 15.9921 17.1656 15.9956 17.1745C15.9938 17.1701 15.9921 17.1665 15.9903 17.1621C16.0365 17.277 16.0072 17.2023 15.985 17.1484Z" fill="#C5CFD6"/>
<path fill-rule="evenodd" clip-rule="evenodd" d="M15.995 17.1753C15.9968 17.1794 15.9986 17.184 16.0005 17.188C16.0137 17.2134 15.995 17.1753 15.995 17.1753Z" fill="#C5CFD6"/>
<path fill-rule="evenodd" clip-rule="evenodd" d="M16.0026 17.1903C15.9887 17.1675 16.0055 17.1963 16.0026 17.1903V17.1903Z" fill="#C5CFD6"/>
<path fill-rule="evenodd" clip-rule="evenodd" d="M16.0008 17.1868L15.9995 17.1855C16.0002 17.1862 16.0002 17.1868 16.0008 17.1868Z" fill="#C5CFD6"/>
<path d="M0.901431 0H31.0986C31.5964 0 32 0.399708 32 0.892773V20.0874C32 20.5805 31.5964 20.9802 31.0986 20.9802H0.901431C0.403597 20.9802 2.35043e-05 20.5805 2.35043e-05 20.0874V0.892773C2.35043e-05 0.399708 0.403597 0 0.901431 0Z" fill="#DDE3E9"/>
<path fill-rule="evenodd" clip-rule="evenodd" d="M20.1182 6.02626L29.3703 20.9802H10.8664L20.1182 6.02626Z" fill="#AFB9C5"/>
<path fill-rule="evenodd" clip-rule="evenodd" d="M10.579 10.0317L18.7581 20.9802H2.39982L10.579 10.0317Z" fill="#C5CFD6"/>
<path fill-rule="evenodd" clip-rule="evenodd" d="M7.09879 10.0436C5.41856 10.0436 4.05654 8.69466 4.05654 7.03053C4.05654 5.3664 5.41856 4.01742 7.09879 4.01742C8.77901 4.01742 10.141 5.3664 10.141 7.03053C10.141 8.69466 8.77901 10.0436 7.09879 10.0436Z" fill="white"/>
</svg>
