<svg width="9" height="7" viewBox="0 0 9 7" fill="none" xmlns="http://www.w3.org/2000/svg">
<path d="M2.43214 6.70847C2.41405 6.70847 2.39575 6.70847 2.37745 6.70577C2.29375 6.6981 2.21254 6.67294 2.13901 6.63189C2.06548 6.59084 2.00124 6.53481 1.95037 6.46735L0.123392 4.04455C0.0262651 3.91571 -0.0161275 3.75325 0.00554442 3.59291C0.0272163 3.43256 0.11118 3.28746 0.238955 3.18953C0.366731 3.0916 0.527853 3.04886 0.686883 3.07072C0.845913 3.09257 0.989823 3.17722 1.08695 3.30605L2.51316 5.19748L7.98689 0.159477C8.04559 0.10546 8.11428 0.0636318 8.18901 0.0363776C8.26375 0.00912346 8.34308 -0.00302178 8.42247 0.00063608C8.50187 0.00429394 8.57977 0.0236805 8.65173 0.0576935C8.72369 0.0917066 8.7883 0.139679 8.84187 0.198869C8.89545 0.258059 8.93693 0.327308 8.96396 0.402664C8.991 0.47802 9.00304 0.558006 8.99941 0.638056C8.99579 0.718105 8.97656 0.796652 8.94282 0.869209C8.90909 0.941765 8.86151 1.00691 8.80281 1.06092L2.83969 6.5482C2.72841 6.65099 2.58306 6.70815 2.43214 6.70847Z" fill="#367CFF"/>
</svg>
