<svg width="3" height="6" viewBox="0 0 3 6" fill="none" xmlns="http://www.w3.org/2000/svg">
<path d="M2.6518 4.18919C2.66565 4.25927 2.66565 4.33137 2.6518 4.40145C2.62984 4.45692 2.59069 4.50391 2.54009 4.53551L2.31667 4.66956C2.29908 4.68315 2.27747 4.69051 2.25523 4.69051C2.233 4.69051 2.21139 4.68315 2.19379 4.66956C2.17495 4.61913 2.17495 4.5636 2.19379 4.51317V2.01082C2.23437 1.67275 2.15102 1.33142 1.9592 1.0501C1.81397 0.904873 1.60172 0.904873 1.33362 1.0501C1.05453 1.21602 0.835434 1.46641 0.708025 1.76505C0.541495 2.15276 0.461441 2.5721 0.473431 2.99389V5.49623C0.48728 5.56631 0.48728 5.6384 0.473431 5.70847C0.451468 5.76394 0.412321 5.81093 0.361721 5.84254L0.127128 5.97659C0.119847 5.98402 0.111159 5.98992 0.101568 5.99396C0.0919766 5.99799 0.0816721 6.00006 0.0712687 6.00006C0.0608652 6.00006 0.0505693 5.99799 0.0409782 5.99396C0.0313871 5.98992 0.0226989 5.98402 0.015418 5.97659C0.00525515 5.95373 0 5.92899 0 5.90397C0 5.87895 0.00525515 5.85421 0.015418 5.83135V1.41875C0.000311471 1.3488 0.000311471 1.27644 0.015418 1.20649C0.0402465 1.1497 0.0785978 1.09985 0.127128 1.06128L0.361721 0.938397C0.361721 0.938397 0.439918 0.938397 0.473431 0.938397C0.492273 0.988827 0.492273 1.04436 0.473431 1.09479V1.35172C0.562851 1.12632 0.679123 0.91252 0.819735 0.71496C0.975606 0.485222 1.18195 0.294167 1.42298 0.156402C1.58409 0.0562984 1.76953 0.00221212 1.9592 6.36549e-06C2.11697 -0.00071141 2.26896 0.0592979 2.3837 0.167584C2.51276 0.315047 2.60469 0.491229 2.6518 0.681448C2.72515 0.954493 2.75902 1.23664 2.75235 1.51929L2.6518 4.18919Z" fill="#455A64"/>
</svg>
