<svg width="14" height="13" viewBox="0 0 14 13" fill="none" xmlns="http://www.w3.org/2000/svg">
<path d="M1.3548 7.82729C1.3548 7.45676 1.05152 7.15638 0.677399 7.15638C0.303282 7.15638 0 7.45676 0 7.82729V12.0764C0 12.4469 0.303282 12.7473 0.677399 12.7473C1.05152 12.7473 1.3548 12.4469 1.3548 12.0764V7.82729Z" fill="#DDE3E9"/>
<path d="M4.51604 4.24904C4.51604 3.8785 4.21276 3.57813 3.83864 3.57813C3.46452 3.57813 3.16124 3.8785 3.16124 4.24904V12.0763C3.16124 12.4469 3.46452 12.7472 3.83864 12.7472C4.21276 12.7472 4.51604 12.4469 4.51604 12.0763V4.24904Z" fill="#DDE3E9"/>
<path d="M7.67728 2.46004C7.67728 2.0895 7.374 1.78913 6.99988 1.78913C6.62577 1.78913 6.32248 2.0895 6.32248 2.46004V12.0764C6.32248 12.447 6.62577 12.7473 6.99988 12.7473C7.374 12.7473 7.67728 12.447 7.67728 12.0764V2.46004Z" fill="#DDE3E9"/>
<path d="M10.8385 4.24904C10.8385 3.8785 10.5352 3.57813 10.1611 3.57813C9.78701 3.57813 9.48373 3.8785 9.48373 4.24904V12.0763C9.48373 12.4469 9.78701 12.7472 10.1611 12.7472C10.5352 12.7472 10.8385 12.4469 10.8385 12.0763V4.24904Z" fill="#DDE3E9"/>
<path d="M13.9998 0.67091C13.9998 0.300377 13.6965 0 13.3224 0C12.9482 0 12.645 0.300377 12.645 0.67091V12.0764C12.645 12.4469 12.9482 12.7473 13.3224 12.7473C13.6965 12.7473 13.9998 12.4469 13.9998 12.0764V0.67091Z" fill="#C5CFD6"/>
</svg>
