<svg width="2" height="6" viewBox="0 0 2 6" fill="none" xmlns="http://www.w3.org/2000/svg">
<path d="M1.59613 0.0216661C1.61432 0.0076249 1.63665 0 1.65963 0C1.6826 0 1.70493 0.0076249 1.72312 0.0216661C1.74259 0.0737787 1.74259 0.131169 1.72312 0.183281V0.494956C1.73838 0.567272 1.73838 0.64198 1.72312 0.714295C1.69671 0.772873 1.6522 0.821442 1.59613 0.852835L1.22673 1.07216C0.973988 1.2372 0.772127 1.46929 0.643696 1.74247C0.515264 2.01564 0.465324 2.31914 0.499457 2.61906V5.47043C0.516632 5.54253 0.516632 5.61765 0.499457 5.68975C0.469741 5.74921 0.426194 5.80068 0.372473 5.83983L0.141588 5.97835C0.123401 5.99239 0.101072 6.00002 0.0780955 6.00002C0.055119 6.00002 0.0327902 5.99239 0.0146032 5.97835C-0.00486774 5.92624 -0.00486774 5.86885 0.0146032 5.81674V1.25686C-0.00159944 1.18855 -0.00159944 1.1174 0.0146032 1.04908C0.0380643 0.985737 0.0830016 0.932625 0.141588 0.899003L0.372473 0.760481C0.39066 0.74644 0.412989 0.738815 0.435965 0.738815C0.458942 0.738815 0.481271 0.74644 0.499457 0.760481C0.51934 0.808529 0.51934 0.862492 0.499457 0.910541V1.22223C0.565432 1.00109 0.67104 0.793782 0.811141 0.610403C0.934317 0.444178 1.0918 0.306377 1.2729 0.206357L1.59613 0.0216661Z" fill="#455A64"/>
</svg>
