<svg width="3" height="5" viewBox="0 0 3 5" fill="none" xmlns="http://www.w3.org/2000/svg">
<path d="M1.88562 3.11403C1.89309 3.03247 1.8718 2.95085 1.82544 2.88332C1.80576 2.857 1.77993 2.83594 1.75019 2.82195C1.72046 2.80796 1.68775 2.80148 1.65493 2.80309C1.55509 2.78935 1.45384 2.78935 1.35401 2.80309L0.942771 2.9034C0.64186 2.97027 0.431218 2.93012 0.310853 2.78301C0.184424 2.57894 0.124818 2.34051 0.140339 2.10095C0.140573 1.92538 0.160761 1.7504 0.200519 1.57939C0.24806 1.3987 0.315338 1.22377 0.40113 1.05779C0.492787 0.885232 0.603834 0.72372 0.732127 0.57635C0.87103 0.431083 1.02974 0.306149 1.20356 0.205232C1.34924 0.118576 1.50869 0.0574877 1.67498 0.0246618C1.78628 -0.00822059 1.90472 -0.00822059 2.01602 0.0246618C2.10309 0.0618106 2.17663 0.124866 2.22666 0.205232C2.2743 0.291575 2.30173 0.3876 2.30689 0.486081C2.32097 0.545439 2.32097 0.607261 2.30689 0.66662C2.28399 0.720147 2.24557 0.765576 2.19657 0.797019L2.01602 0.907339H1.93578C1.91778 0.906977 1.90015 0.902214 1.88441 0.893472C1.86868 0.884731 1.85531 0.872288 1.8455 0.857199C1.82216 0.82214 1.79098 0.792997 1.75442 0.772103C1.71785 0.751208 1.67691 0.739143 1.63486 0.73684C1.49435 0.740173 1.35808 0.785571 1.24368 0.867209C1.08168 0.964412 0.941646 1.09421 0.832436 1.24837C0.736239 1.3944 0.684015 1.56502 0.681979 1.73988C0.661032 1.81535 0.661032 1.89508 0.681979 1.97056C0.697001 1.99527 0.717454 2.01626 0.741784 2.0319C0.766114 2.04754 0.793682 2.05742 0.822404 2.06082C0.908781 2.07469 0.996819 2.07469 1.0832 2.06082L1.46435 2.01069C1.60337 1.98259 1.7466 1.98259 1.88562 2.01069C1.99185 2.02622 2.0903 2.07546 2.16647 2.15112C2.24178 2.22892 2.29389 2.32618 2.31693 2.43197C2.33329 2.56186 2.33329 2.69326 2.31693 2.82314C2.31341 3.00637 2.28644 3.18841 2.23668 3.36479C2.18321 3.55762 2.1057 3.74295 2.00599 3.91645C1.90382 4.0929 1.78274 4.25772 1.64489 4.40796C1.50832 4.5653 1.3454 4.69765 1.16343 4.79913C1.01714 4.89192 0.853215 4.95339 0.681979 4.97966C0.563139 5.00675 0.439726 5.00675 0.320886 4.97966C0.225696 4.94226 0.144889 4.8755 0.0901839 4.78909C0.0380425 4.70836 0.0101958 4.61437 0.00994679 4.51828C-0.0033156 4.45544 -0.0033156 4.39053 0.00994679 4.3277C0.0322947 4.27383 0.0708573 4.22825 0.120281 4.1973L0.320886 4.08698H0.391098C0.405294 4.08061 0.420675 4.07731 0.436233 4.07731C0.451791 4.07731 0.467171 4.08061 0.481368 4.08698C0.505299 4.13053 0.539995 4.16722 0.582136 4.19356C0.624278 4.2199 0.672466 4.235 0.722102 4.23743C0.866259 4.23745 1.00672 4.1918 1.12332 4.10703C1.21271 4.06012 1.29398 3.99917 1.36404 3.92649C1.44457 3.85589 1.5154 3.77495 1.57468 3.68577C1.63437 3.6047 1.68484 3.51722 1.72514 3.42497C1.79819 3.33264 1.85268 3.22706 1.88562 3.11403Z" fill="#455A64"/>
</svg>
