<svg width="3" height="7" viewBox="0 0 3 7" fill="none" xmlns="http://www.w3.org/2000/svg">
<path d="M2.7518 5.15403C2.76716 5.22515 2.76716 5.29871 2.7518 5.36983C2.74298 5.39901 2.72837 5.42612 2.70885 5.44954C2.68934 5.47296 2.66532 5.49221 2.63821 5.50615L2.41104 5.64245C2.39314 5.65626 2.37116 5.66376 2.34856 5.66376C2.32595 5.66376 2.30399 5.65626 2.28609 5.64245C2.26693 5.59117 2.26693 5.5347 2.28609 5.48343V2.93909C2.32989 2.59877 2.2448 2.25438 2.04755 1.97362C1.89989 1.8146 1.68408 1.8146 1.41147 1.97362C1.1277 2.14233 0.904942 2.39691 0.775394 2.70057C0.60607 3.09478 0.524664 3.52114 0.536856 3.95V6.49434C0.532689 6.56938 0.513383 6.64279 0.480076 6.71016C0.457745 6.76656 0.417932 6.81432 0.366483 6.84646L0.127962 6.98277C0.111151 6.994 0.0913834 6.99998 0.0711653 6.99998C0.0509472 6.99998 0.0311797 6.994 0.0143687 6.98277C-0.00478957 6.9315 -0.00478957 6.87501 0.0143687 6.82373V0.508344C0.000287988 0.437095 0.000287988 0.363776 0.0143687 0.292527C0.0396139 0.234775 0.0786174 0.184091 0.127962 0.144877L0.366483 0.0199317C0.3826 0.00702796 0.402634 0 0.42328 0C0.443926 0 0.46396 0.00702796 0.480076 0.0199317C0.518736 0.0636726 0.53906 0.120617 0.536856 0.178952V2.30301C0.627776 2.07382 0.746016 1.85645 0.888987 1.65558C1.04747 1.42198 1.25727 1.22772 1.50235 1.08764C1.66616 0.985862 1.85471 0.930868 2.04755 0.928625C2.20797 0.927895 2.36252 0.988894 2.47919 1.099C2.61042 1.24893 2.70389 1.42809 2.7518 1.6215C2.82561 1.89541 2.86003 2.17842 2.85402 2.46203L2.7518 5.15403Z" fill="#455A64"/>
</svg>
