<svg width="86" height="86" viewBox="0 0 86 86" fill="none" xmlns="http://www.w3.org/2000/svg">
<g clip-path="url(#clip0_81_1947)">
<path d="M49.7363 46.0833L23.2287 46.0833L23.2287 39.9166L49.7363 39.9166L50.9429 39.9166L50.0899 39.0632L43.8964 32.8663L48.2565 28.5031L62.7533 42.9999L48.2528 57.497L43.893 53.1371L50.0899 46.9368L50.9429 46.0833L49.7363 46.0833Z" fill="white" stroke="#052987"/>
<path d="M70.5174 15.4826C85.7162 30.6813 85.7162 55.319 70.5174 70.5178C55.3187 85.7165 30.681 85.7165 15.4822 70.5178C0.283476 55.319 0.283477 30.6813 15.4822 15.4825C30.681 0.28381 55.3187 0.283811 70.5174 15.4826ZM66.1577 66.1581C72.2996 60.0162 75.75 51.6861 75.75 43.0002C75.75 34.3143 72.2996 25.9841 66.1577 19.8423C60.0159 13.7004 51.6857 10.25 42.9998 10.25C34.3139 10.25 25.9838 13.7004 19.8419 19.8423C13.7001 25.9841 10.2496 34.3143 10.2496 43.0002C10.2496 51.6861 13.7001 60.0162 19.8419 66.1581C25.9838 72.2999 34.3139 75.7504 42.9998 75.7504C51.6857 75.7504 60.0159 72.2999 66.1577 66.1581Z" fill="white" stroke="#052987"/>
</g>
<defs>
<clipPath id="clip0_81_1947">
<rect width="86" height="86" fill="white" transform="translate(0 86) rotate(-90)"/>
</clipPath>
</defs>
</svg>
