<svg width="3" height="7" viewBox="0 0 3 7" fill="none" xmlns="http://www.w3.org/2000/svg">
<path d="M1.25761 2.25117C1.41749 2.13608 1.61647 2.08908 1.81096 2.12041C1.9365 2.15776 2.04615 2.23558 2.12285 2.34175V0.450296C2.10873 0.390756 2.10873 0.328747 2.12285 0.269207C2.14251 0.213548 2.18188 0.167015 2.23352 0.138411L2.43473 0.0176851C2.44901 0.00625571 2.46675 0 2.48504 0C2.50333 0 2.52107 0.00625571 2.53535 0.0176851C2.55267 0.0595605 2.55267 0.106575 2.53535 0.148451V5.7423C2.55031 5.80514 2.55031 5.87062 2.53535 5.93346C2.51562 5.98612 2.48057 6.03168 2.43473 6.06425L2.23352 6.18498C2.23352 6.18498 2.15303 6.18498 2.12285 6.18498C2.11344 6.16269 2.10859 6.13877 2.10859 6.11458C2.10859 6.09038 2.11344 6.06643 2.12285 6.04414V5.78255C2.04126 5.99018 1.93303 6.18635 1.8009 6.3661C1.66279 6.57234 1.47626 6.74159 1.25761 6.85907C1.1144 6.95338 0.946147 7.00244 0.774692 6.99991C0.625792 6.99099 0.48571 6.92634 0.382318 6.81882C0.255574 6.68264 0.165554 6.51647 0.120733 6.33592C0.043377 6.08141 0.00272123 5.81716 0 5.55117V4.9978C0.00847367 4.69259 0.0489413 4.3891 0.120733 4.09233C0.177445 3.81831 0.265208 3.55165 0.382318 3.29751C0.487141 3.07434 0.618914 2.86486 0.774692 2.67374C0.910136 2.50613 1.07351 2.36317 1.25761 2.25117ZM2.12285 4.42432V3.75026C2.1497 3.46391 2.06298 3.17847 1.88139 2.95545C1.80129 2.89178 1.702 2.85713 1.59968 2.85713C1.49737 2.85713 1.39808 2.89178 1.31798 2.95545C1.05699 3.11898 0.855833 3.36248 0.744503 3.64965C0.594894 4 0.512967 4.37552 0.503044 4.75635V5.22921C0.489125 5.52659 0.574025 5.8202 0.744503 6.06425C0.885355 6.22523 1.07652 6.22523 1.31798 6.06425C1.56704 5.90761 1.76332 5.67979 1.88139 5.4103C2.03231 5.10301 2.11469 4.76659 2.12285 4.42432Z" fill="#455A64"/>
</svg>
