<svg width="23" height="14" viewBox="0 0 23 14" fill="none" xmlns="http://www.w3.org/2000/svg">
<path fill-rule="evenodd" clip-rule="evenodd" d="M9.88035 0C11.5663 0 13.0667 0.217071 14.6201 0.880571C15.961 1.4534 17.182 2.21159 18.3703 3.037C20.0389 4.19807 21.3535 5.54919 22.2735 7.33959C22.8237 8.4091 23.2273 9.92259 22.8575 11.0892C22.4223 12.4631 21.2272 13.6092 19.6556 13.3672C18.6838 13.2175 17.7908 12.5799 17.0524 11.9799C16.168 11.2619 15.4602 10.3987 14.8758 9.43998C13.9224 7.87603 13.3623 6.10818 12.5524 4.47389C12.1681 3.69828 11.7968 2.9173 11.3363 2.1801C11.1086 1.81519 10.8659 1.45363 10.5203 1.18229C10.3354 1.03713 9.55565 0.786107 9.85374 0.460275C5.48158 0.517 1.60818 3.84276 0.768698 7.95955C0.69068 8.34322 0.629576 8.73002 0.564861 9.11615C0.524274 9.3598 0.540732 10.2589 0.320659 10.4146C-0.164586 10.758 0.0392596 9.71444 0.0602298 9.56414C0.114121 9.17578 0.171383 8.78786 0.231587 8.40039C0.559443 6.29354 1.50649 4.33498 3.08579 2.83244C4.8917 1.1144 7.32852 0 9.88035 0Z" fill="#89C5CC"/>
</svg>
