<svg width="3" height="8" viewBox="0 0 3 8" fill="none" xmlns="http://www.w3.org/2000/svg">
<path d="M2.62607 6.39874C2.61721 6.40799 2.60657 6.41535 2.59479 6.42038C2.58301 6.42541 2.57033 6.42799 2.55752 6.42799C2.54471 6.42799 2.53203 6.42541 2.52025 6.42038C2.50847 6.41535 2.49783 6.40799 2.48897 6.39874C2.45232 6.36055 2.42046 6.31804 2.39406 6.27217L0.506346 2.99242V7.39003C0.52029 7.45609 0.52029 7.52434 0.506346 7.5904C0.485612 7.64277 0.448664 7.68713 0.400897 7.71696L0.158331 7.85405C0.158331 7.85405 0.0845203 7.85405 0.0528829 7.85405C0.0169895 7.81344 -0.00189578 7.76057 0.000150495 7.70641V1.93784C0.00122793 1.86776 0.019327 1.79899 0.0528829 1.73746C0.0735634 1.68226 0.110283 1.63453 0.158331 1.60038L0.358705 1.48438C0.367565 1.47512 0.378206 1.46776 0.389987 1.46273C0.401768 1.4577 0.414446 1.4551 0.427255 1.4551C0.440065 1.4551 0.452743 1.4577 0.464524 1.46273C0.476304 1.46776 0.486946 1.47512 0.495806 1.48438C0.538761 1.51675 0.571665 1.56062 0.590714 1.61092L2.47841 4.89067V0.493064C2.48101 0.423206 2.49902 0.354782 2.53114 0.292691C2.55458 0.239072 2.59079 0.191998 2.63661 0.15559L2.87916 0.0185054C2.89412 0.00652506 2.91272 0 2.93189 0C2.95106 0 2.96966 0.00652506 2.98462 0.0185054C2.99448 0.0418673 2.99956 0.0669599 2.99956 0.0923178C2.99956 0.117676 2.99448 0.142784 2.98462 0.166146V5.93472C2.99888 6.00075 2.99888 6.06906 2.98462 6.13509C2.96118 6.18871 2.92497 6.23577 2.87916 6.27217L2.62607 6.39874Z" fill="#455A64"/>
</svg>
