<svg width="3" height="7" viewBox="0 0 3 7" fill="none" xmlns="http://www.w3.org/2000/svg">
<path d="M1.49164 0.198477C1.64721 0.0985746 1.82244 0.0332893 2.00546 0.0070523C2.15156 -0.0145659 2.30067 0.0138549 2.4286 0.0876683C2.56438 0.185174 2.66649 0.322469 2.72078 0.480571C2.80116 0.724133 2.83866 0.979798 2.8316 1.23618C2.83209 1.53188 2.79485 1.82642 2.72078 2.11269C2.65416 2.37219 2.55603 2.62258 2.4286 2.85825C2.31585 3.07204 2.17339 3.26876 2.00546 3.44258C1.85618 3.60281 1.68283 3.73877 1.49164 3.84557L0.48416 4.43998V6.53556C0.497593 6.59527 0.497593 6.6572 0.48416 6.7169C0.467 6.77104 0.431327 6.81741 0.383406 6.84788L0.151689 6.97886C0.145122 6.98556 0.137279 6.99087 0.128629 6.99451C0.119979 6.99814 0.110694 7.00001 0.101311 7.00001C0.0919287 7.00001 0.0826432 6.99814 0.0739934 6.99451C0.0653436 6.99087 0.0575003 6.98556 0.0509339 6.97886C0.0332084 6.96224 0.0194721 6.94183 0.0107489 6.91915C0.00202568 6.89647 -0.00146176 6.8721 0.000556604 6.84788V1.32685C0.00316906 1.26333 0.020411 1.20128 0.0509339 1.14551C0.0680944 1.09138 0.103767 1.04501 0.151689 1.01454L1.49164 0.198477ZM0.48416 3.67431L1.49164 3.10004C1.75364 2.95362 1.96987 2.73739 2.11628 2.4754C2.26365 2.18554 2.33637 1.86351 2.32786 1.53845C2.32786 1.17575 2.25733 0.954104 2.11628 0.873505C1.96516 0.792906 1.76367 0.823116 1.49164 0.984313L0.48416 1.55859V3.67431Z" fill="#455A64"/>
</svg>
