<svg width="28" height="28" viewBox="0 0 28 28" fill="none" xmlns="http://www.w3.org/2000/svg">
<path d="M18.6667 8.16667C18.6667 7.85725 18.7896 7.5605 19.0084 7.34171C19.2272 7.12292 19.5239 7 19.8333 7C20.1427 7 20.4395 7.12292 20.6583 7.34171C20.8771 7.5605 21 7.85725 21 8.16667C21 8.47609 20.8771 8.77283 20.6583 8.99162C20.4395 9.21042 20.1427 9.33333 19.8333 9.33333C19.5239 9.33333 19.2272 9.21042 19.0084 8.99162C18.7896 8.77283 18.6667 8.47609 18.6667 8.16667Z" fill="#B9B9B9"/>
<path fill-rule="evenodd" clip-rule="evenodd" d="M14 8.45801C12.5303 8.45801 11.1207 9.04186 10.0815 10.0811C9.0422 11.1204 8.45834 12.5299 8.45834 13.9997C8.45834 15.4694 9.0422 16.879 10.0815 17.9182C11.1207 18.9575 12.5303 19.5413 14 19.5413C15.4698 19.5413 16.8793 18.9575 17.9186 17.9182C18.9578 16.879 19.5417 15.4694 19.5417 13.9997C19.5417 12.5299 18.9578 11.1204 17.9186 10.0811C16.8793 9.04186 15.4698 8.45801 14 8.45801ZM10.2083 13.9997C10.2083 12.9941 10.6078 12.0296 11.3189 11.3186C12.03 10.6075 12.9944 10.208 14 10.208C15.0056 10.208 15.97 10.6075 16.6811 11.3186C17.3922 12.0296 17.7917 12.9941 17.7917 13.9997C17.7917 15.0053 17.3922 15.9697 16.6811 16.6808C15.97 17.3919 15.0056 17.7913 14 17.7913C12.9944 17.7913 12.03 17.3919 11.3189 16.6808C10.6078 15.9697 10.2083 15.0053 10.2083 13.9997Z" fill="#B9B9B9"/>
<path fill-rule="evenodd" clip-rule="evenodd" d="M20.1343 3.3048C16.0573 2.85283 11.9427 2.85283 7.86568 3.3048C5.51835 3.5673 3.62251 5.41647 3.34718 7.77547C2.86348 11.9108 2.86348 16.0884 3.34718 20.2238C3.62251 22.5828 5.51718 24.432 7.86568 24.6945C11.9428 25.146 16.0573 25.146 20.1343 24.6945C22.4817 24.432 24.3775 22.5828 24.6528 20.2238C25.1366 16.0885 25.1366 11.9108 24.6528 7.77547C24.3775 5.41647 22.4828 3.5673 20.1343 3.3048ZM8.05935 5.04313C12.0077 4.60548 15.9923 4.60548 19.9407 5.04313C21.4923 5.21813 22.7348 6.44197 22.9157 7.97963C23.3835 11.9793 23.3835 16.0199 22.9157 20.0196C22.8221 20.7722 22.4776 21.4712 21.9378 22.0038C21.398 22.5365 20.6944 22.8715 19.9407 22.955C15.9923 23.3926 12.0077 23.3926 8.05935 22.955C7.30561 22.8715 6.60201 22.5365 6.06219 22.0038C5.52238 21.4712 5.17788 20.7722 5.08435 20.0196C4.61657 16.0199 4.61657 11.9793 5.08435 7.97963C5.17788 7.22708 5.52238 6.52804 6.06219 5.99543C6.60201 5.46281 7.30561 5.12656 8.05935 5.04313Z" fill="#B9B9B9"/>
</svg>
