<svg width="3" height="7" viewBox="0 0 3 7" fill="none" xmlns="http://www.w3.org/2000/svg">
<path d="M2.76015 5.18741C2.77549 5.25845 2.77549 5.33194 2.76015 5.40298C2.73493 5.46067 2.69598 5.51131 2.64669 5.55048L2.35168 5.64126C2.33558 5.65415 2.31557 5.66117 2.29495 5.66117C2.27432 5.66117 2.25432 5.65415 2.23822 5.64126C2.21908 5.59004 2.21908 5.53363 2.23822 5.48241V2.94084C2.28197 2.60089 2.19698 2.25688 1.99995 1.97642C1.84867 1.81757 1.63309 1.81757 1.35321 1.97642C1.07266 2.15033 0.854242 2.40845 0.729164 2.71392C0.54947 3.10067 0.463928 3.52448 0.479545 3.95066V6.49223C0.49562 6.56319 0.49562 6.63685 0.479545 6.70781C0.456882 6.76748 0.412217 6.8162 0.354736 6.84396L0.127814 6.98011C0.111715 6.993 0.0917027 7.00003 0.0710792 7.00003C0.0504557 7.00003 0.0304523 6.993 0.0143531 6.98011C-0.00478436 6.92889 -0.00478436 6.87248 0.0143531 6.82126V0.512742C0.000287675 0.441571 0.000287675 0.368332 0.0143531 0.297161C0.0366605 0.240822 0.0764212 0.193112 0.127814 0.161011L0.354736 0.0248615C0.371594 0.00890161 0.393926 0 0.41714 0C0.440355 0 0.462687 0.00890161 0.479545 0.0248615C0.479545 0.0248615 0.479545 0.104274 0.479545 0.172351V2.29411C0.574923 2.06734 0.692761 1.85067 0.831285 1.64737C0.993744 1.41352 1.2071 1.21956 1.45532 1.08006C1.62048 0.981843 1.80789 0.927186 1.99995 0.921208C2.07777 0.919884 2.15507 0.934278 2.2272 0.963521C2.29933 0.992765 2.36482 1.03627 2.41975 1.09141C2.55646 1.23893 2.65399 1.41837 2.70341 1.61333C2.77791 1.89066 2.8123 2.17722 2.80553 2.4643L2.76015 5.18741Z" fill="#455A64"/>
</svg>
