<svg width="40" height="40" viewBox="0 0 40 40" fill="none" xmlns="http://www.w3.org/2000/svg">
<g clip-path="url(#clip0_68_822)">
<path d="M20 12.857V8.57129M20 12.857C17.6285 12.857 15.7143 12.857 15.7143 15.7141C15.7143 19.9999 24.2857 19.9999 24.2857 24.2856C24.2857 27.1427 22.3714 27.1427 20 27.1427M20 12.857C22.3714 12.857 24.2857 13.9427 24.2857 15.7141M15.7143 24.2856C15.7143 26.4284 17.6285 27.1427 20 27.1427M20 27.1427V31.4284" stroke="#171717" stroke-width="2.5" stroke-linecap="round" stroke-linejoin="round"/>
<path d="M20 38.5713C30.2567 38.5713 38.5714 30.2566 38.5714 19.9999C38.5714 9.74318 30.2567 1.42847 20 1.42847C9.74327 1.42847 1.42856 9.74318 1.42856 19.9999C1.42856 30.2566 9.74327 38.5713 20 38.5713Z" stroke="#171717" stroke-width="2.5" stroke-linecap="round" stroke-linejoin="round"/>
</g>
<defs>
<clipPath id="clip0_68_822">
<rect width="40" height="40" fill="white"/>
</clipPath>
</defs>
</svg>
