<svg width="285" height="424" viewBox="0 0 285 424" fill="none" xmlns="http://www.w3.org/2000/svg">
<path d="M274.754 148.147H166.861C161.435 148.147 157.037 152.54 157.037 157.96V265.742C157.037 271.162 161.435 275.555 166.861 275.555H274.754C280.18 275.555 284.578 271.162 284.578 265.742V157.96C284.578 152.54 280.18 148.147 274.754 148.147Z" fill="#071C54"/>
<path d="M280.873 210.17L259.775 180.487L227.089 230.285L193.875 217.435L165.952 264.048C165.431 264.918 165.151 265.91 165.139 266.924C165.128 267.937 165.385 268.936 165.886 269.818C166.386 270.699 167.112 271.433 167.989 271.943C168.866 272.453 169.862 272.722 170.877 272.722H271.064C273.669 272.722 276.168 271.689 278.01 269.848C279.852 268.008 280.887 265.512 280.887 262.909L280.873 210.17Z" fill="white"/>
<path d="M190.496 190.72C198.035 190.72 204.146 184.615 204.146 177.085C204.146 169.554 198.035 163.449 190.496 163.449C182.958 163.449 176.847 169.554 176.847 177.085C176.847 184.615 182.958 190.72 190.496 190.72Z" fill="white"/>
<path d="M214.743 260.727C214.79 260.064 215.088 259.444 215.575 258.991C216.062 258.538 216.703 258.286 217.368 258.286C218.033 258.286 218.674 258.538 219.161 258.991C219.648 259.444 219.946 260.064 219.993 260.727C220.019 261.087 219.971 261.449 219.85 261.79C219.73 262.13 219.541 262.443 219.295 262.707C219.048 262.972 218.75 263.182 218.419 263.327C218.087 263.471 217.73 263.545 217.368 263.545C217.006 263.545 216.649 263.471 216.317 263.327C215.986 263.182 215.687 262.972 215.441 262.707C215.195 262.443 215.006 262.13 214.885 261.79C214.765 261.449 214.717 261.087 214.743 260.727Z" fill="#071C54"/>
<path d="M238.731 255.888C238.79 256.867 238.644 257.848 238.303 258.767C237.962 259.687 237.434 260.526 236.751 261.231C236.069 261.935 235.247 262.491 234.338 262.861C233.429 263.232 232.453 263.41 231.472 263.384C230.658 263.423 229.844 263.286 229.088 262.982C228.331 262.677 227.65 262.214 227.09 261.622V268.399H222.87V248.61H226.94V250.277C227.512 249.64 228.22 249.14 229.011 248.814C229.803 248.487 230.658 248.344 231.513 248.393C232.491 248.37 233.464 248.551 234.369 248.924C235.274 249.296 236.091 249.852 236.77 250.557C237.448 251.262 237.973 252.099 238.311 253.017C238.648 253.935 238.791 254.912 238.731 255.888ZM234.457 255.888C234.389 255.172 234.114 254.491 233.665 253.928C233.217 253.366 232.615 252.945 231.931 252.717C231.248 252.49 230.514 252.466 229.817 252.647C229.12 252.829 228.491 253.209 228.007 253.741C227.522 254.273 227.202 254.934 227.087 255.644C226.971 256.355 227.064 257.083 227.355 257.741C227.646 258.399 228.122 258.958 228.725 259.351C229.328 259.744 230.033 259.954 230.753 259.955C231.273 259.961 231.789 259.858 232.266 259.651C232.743 259.444 233.171 259.138 233.521 258.754C233.871 258.37 234.135 257.915 234.297 257.422C234.458 256.928 234.513 256.405 234.457 255.888Z" fill="#071C54"/>
<path d="M256.451 254.899V263.235H252.218V255.549C252.218 253.191 251.132 252.107 249.274 252.107C247.415 252.107 245.773 253.354 245.773 256.037V263.235H241.553V248.61H245.624V250.304C246.252 249.667 247.005 249.169 247.837 248.84C248.669 248.51 249.56 248.358 250.454 248.393C253.846 248.393 256.451 250.385 256.451 254.899Z" fill="#071C54"/>
<path d="M275.46 248.61V260.727C275.46 266.149 272.529 268.629 267.319 268.629C264.783 268.734 262.279 268.032 260.169 266.623L261.851 263.601C263.349 264.676 265.149 265.25 266.993 265.241C269.965 265.241 271.267 263.885 271.267 261.269V260.646C270.675 261.259 269.958 261.738 269.164 262.051C268.371 262.364 267.52 262.504 266.668 262.462C264.8 262.462 263.009 261.721 261.688 260.402C260.368 259.082 259.626 257.293 259.626 255.428C259.626 253.562 260.368 251.773 261.688 250.453C263.009 249.134 264.8 248.393 266.668 248.393C267.577 248.341 268.485 248.502 269.321 248.862C270.157 249.222 270.898 249.771 271.484 250.467V248.61H275.46ZM271.281 255.387C271.335 254.618 271.157 253.85 270.768 253.184C270.38 252.518 269.799 251.985 269.102 251.653C268.406 251.321 267.625 251.207 266.862 251.325C266.1 251.443 265.39 251.788 264.827 252.315C264.263 252.842 263.872 253.526 263.704 254.279C263.535 255.031 263.598 255.817 263.883 256.533C264.168 257.249 264.662 257.863 265.302 258.295C265.942 258.726 266.697 258.955 267.468 258.952C267.955 258.989 268.443 258.926 268.904 258.765C269.364 258.605 269.787 258.352 270.145 258.021C270.503 257.69 270.788 257.289 270.984 256.843C271.179 256.396 271.28 255.915 271.281 255.428V255.387Z" fill="#071C54"/>
<path d="M117.717 148.147H9.82332C4.39806 148.147 0 152.54 0 157.96V265.742C0 271.162 4.39806 275.555 9.82332 275.555H117.717C123.142 275.555 127.54 271.162 127.54 265.742V157.96C127.54 152.54 123.142 148.147 117.717 148.147Z" fill="#071C54"/>
<path d="M123.836 210.17L102.738 180.487L70.052 230.285L36.8237 217.435L8.90047 264.048C8.38051 264.917 8.10023 265.908 8.08811 266.921C8.07599 267.933 8.33245 268.931 8.83144 269.812C9.33043 270.693 10.0542 271.427 10.929 271.938C11.8038 272.449 12.7986 272.72 13.8121 272.722H114.013C116.618 272.722 119.117 271.689 120.959 269.848C122.801 268.008 123.836 265.512 123.836 262.909V210.17Z" fill="white"/>
<path d="M33.459 190.72C40.9974 190.72 47.1085 184.615 47.1085 177.085C47.1085 169.554 40.9974 163.449 33.459 163.449C25.9206 163.449 19.8095 169.554 19.8095 177.085C19.8095 184.615 25.9206 190.72 33.459 190.72Z" fill="white"/>
<path d="M63.9602 260.849C63.9602 260.083 64.2647 259.349 64.8067 258.808C65.3486 258.266 66.0837 257.962 66.8502 257.962C67.6167 257.962 68.3518 258.266 68.8938 258.808C69.4357 259.349 69.7402 260.083 69.7402 260.849C69.7402 261.228 69.6655 261.604 69.5202 261.954C69.375 262.304 69.1621 262.622 68.8938 262.89C68.6254 263.159 68.3068 263.371 67.9562 263.516C67.6055 263.661 67.2297 263.736 66.8502 263.736C66.4707 263.736 66.0949 263.661 65.7443 263.516C65.3936 263.371 65.075 263.159 64.8067 262.89C64.5383 262.622 64.3254 262.304 64.1802 261.954C64.035 261.604 63.9602 261.228 63.9602 260.849Z" fill="#071C54"/>
<path d="M68.2882 268.643L69.5365 265.281C70.1194 265.666 70.8055 265.864 71.5039 265.85C72.6572 265.85 73.4034 265.105 73.4034 263.533V247.525H78.0437V263.492C78.1211 264.304 78.0181 265.123 77.7423 265.891C77.4664 266.658 77.0244 267.356 76.4477 267.933C75.8711 268.51 75.174 268.953 74.4062 269.231C73.6384 269.508 72.8188 269.613 72.0059 269.537C70.7064 269.601 69.416 269.291 68.2882 268.643ZM72.8336 242.7C72.849 242.339 72.9366 241.985 73.0911 241.658C73.2455 241.332 73.4638 241.039 73.733 240.798C74.0023 240.557 74.3171 240.372 74.6589 240.254C75.0007 240.136 75.3627 240.087 75.7236 240.111C76.0799 240.072 76.4405 240.106 76.7828 240.212C77.1252 240.319 77.4418 240.494 77.7131 240.728C77.9844 240.963 78.2044 241.25 78.3593 241.573C78.5143 241.896 78.6008 242.247 78.6136 242.605C78.5567 243.324 78.2335 243.997 77.7071 244.491C77.1807 244.985 76.4889 245.265 75.7667 245.277C75.0446 245.289 74.344 245.031 73.8016 244.555C73.2592 244.078 72.9141 243.417 72.8336 242.7Z" fill="#071C54"/>
<path d="M99.7801 255.522C99.8465 256.599 99.6877 257.677 99.3139 258.689C98.94 259.701 98.3594 260.624 97.6089 261.399C96.8583 262.174 95.9544 262.785 94.9546 263.192C93.9549 263.599 92.8812 263.793 91.8021 263.763C90.9066 263.808 90.012 263.658 89.1803 263.323C88.3486 262.989 87.5997 262.477 86.9854 261.825V269.293H82.3451V247.525H86.7683V249.369C87.396 248.666 88.175 248.114 89.0468 247.755C89.9187 247.395 90.8607 247.238 91.8021 247.295C92.88 247.265 93.9525 247.459 94.9512 247.865C95.95 248.271 96.8533 248.881 97.6036 249.655C98.3539 250.428 98.9349 251.35 99.3096 252.36C99.6843 253.37 99.8445 254.447 99.7801 255.522ZM95.0855 255.522C95.0145 254.738 94.7169 253.99 94.2287 253.371C93.7405 252.753 93.0828 252.289 92.3356 252.036C91.5885 251.784 90.784 251.754 90.02 251.95C89.256 252.145 88.5654 252.559 88.0322 253.139C87.499 253.72 87.1461 254.443 87.0165 255.22C86.8869 255.997 86.9861 256.795 87.3021 257.517C87.6181 258.239 88.1372 258.854 88.7964 259.287C89.4556 259.719 90.2264 259.951 91.0151 259.954C91.5819 259.957 92.143 259.841 92.6623 259.614C93.1816 259.387 93.6478 259.054 94.031 258.637C94.4142 258.22 94.7059 257.727 94.8875 257.191C95.0691 256.655 95.1366 256.086 95.0855 255.522Z" fill="#071C54"/>
<path d="M119.413 247.525V260.849C119.413 266.799 116.197 269.537 110.417 269.537C107.63 269.653 104.879 268.879 102.561 267.328L104.407 264.007C106.052 265.197 108.034 265.833 110.065 265.824C113.334 265.824 114.759 264.333 114.759 261.446V260.754C114.114 261.423 113.334 261.948 112.471 262.293C111.608 262.639 110.682 262.798 109.753 262.76C108.709 262.804 107.667 262.636 106.69 262.267C105.712 261.898 104.82 261.336 104.066 260.614C103.312 259.891 102.712 259.024 102.302 258.064C101.892 257.104 101.681 256.071 101.681 255.028C101.681 253.984 101.892 252.951 102.302 251.991C102.712 251.031 103.312 250.164 104.066 249.442C104.82 248.719 105.712 248.157 106.69 247.788C107.667 247.419 108.709 247.251 109.753 247.295C110.753 247.235 111.754 247.41 112.675 247.805C113.596 248.201 114.412 248.806 115.058 249.572V247.525H119.413ZM114.827 255.021C114.884 254.177 114.686 253.335 114.258 252.605C113.829 251.875 113.191 251.291 112.426 250.928C111.661 250.565 110.805 250.441 109.968 250.571C109.131 250.701 108.353 251.08 107.734 251.658C107.116 252.236 106.686 252.986 106.5 253.812C106.314 254.637 106.381 255.499 106.693 256.286C107.004 257.073 107.545 257.748 108.246 258.223C108.946 258.699 109.774 258.952 110.621 258.952C111.161 258.993 111.704 258.922 112.215 258.742C112.725 258.563 113.194 258.28 113.589 257.91C113.985 257.541 114.299 257.093 114.512 256.595C114.725 256.098 114.832 255.562 114.827 255.021Z" fill="#071C54"/>
<path d="M78.2878 117.596V9.81317C78.2878 7.21055 79.3227 4.71454 81.165 2.87421C83.0072 1.03388 85.5058 0 88.1111 0H196.005C198.61 0 201.109 1.03388 202.951 2.87421C204.793 4.71454 205.828 7.21055 205.828 9.81317V117.596C205.828 120.198 204.793 122.694 202.951 124.535C201.109 126.375 198.61 127.409 196.005 127.409H88.1111C85.5058 127.409 83.0072 126.375 81.165 124.535C79.3227 122.694 78.2878 120.198 78.2878 117.596Z" fill="#071C54"/>
<path d="M102.317 74.4934C102.378 73.4291 102.844 72.4283 103.62 71.6963C104.396 70.9643 105.422 70.5565 106.489 70.5565C107.557 70.5565 108.583 70.9643 109.359 71.6963C110.135 72.4283 110.601 73.4291 110.662 74.4934C110.694 75.0607 110.61 75.6287 110.415 76.1625C110.22 76.6963 109.918 77.1847 109.527 77.5978C109.137 78.0109 108.666 78.34 108.143 78.5649C107.621 78.7898 107.058 78.9058 106.489 78.9058C105.921 78.9058 105.358 78.7898 104.835 78.5649C104.313 78.34 103.842 78.0109 103.451 77.5978C103.061 77.1847 102.759 76.6963 102.564 76.1625C102.369 75.6287 102.285 75.0607 102.317 74.4934Z" fill="white"/>
<path d="M113.185 66.8082C113.185 59.8549 118.613 54.9212 126.075 54.9212C130.932 54.9212 134.759 57.0221 136.427 60.7902L131.231 63.5823C130.746 62.6229 130.003 61.8177 129.085 61.2574C128.167 60.697 127.11 60.4038 126.034 60.4106C124.408 60.5165 122.883 61.2365 121.768 62.4246C120.654 63.6128 120.034 65.18 120.034 66.8082C120.034 68.4364 120.654 70.0036 121.768 71.1917C122.883 72.3799 124.408 73.0999 126.034 73.2057C127.114 73.2226 128.176 72.9319 129.096 72.3679C130.016 71.8038 130.757 70.9896 131.231 70.0205L136.427 72.8533C134.759 76.5536 131 78.6952 126.075 78.6952C118.558 78.6952 113.185 73.7614 113.185 66.8082Z" fill="white"/>
<path d="M138.069 76.2012L140.294 71.403C142.725 72.8479 145.498 73.6155 148.327 73.6259C151.42 73.6259 152.587 72.8127 152.587 71.525C152.587 67.7434 138.625 71.6064 138.625 62.3896C138.625 58.0116 142.574 54.9212 149.317 54.9212C152.403 54.8576 155.458 55.5461 158.218 56.9273L155.979 61.6983C153.948 60.5505 151.65 59.9568 149.317 59.9769C146.318 59.9769 145.029 60.9257 145.029 62.132C145.029 66.0763 158.991 62.254 158.991 71.3488C158.991 75.6455 154.921 78.6952 148.069 78.6952C144.573 78.7644 141.122 77.9036 138.069 76.2012Z" fill="white"/>
<path d="M160.877 76.2012L163.102 71.403C165.538 72.8478 168.316 73.6153 171.148 73.6259C174.242 73.6259 175.395 72.8127 175.395 71.525C175.395 67.7434 161.434 71.6064 161.434 62.3896C161.434 58.0116 165.382 54.9212 172.125 54.9212C175.211 54.8576 178.266 55.5461 181.026 56.9273L178.787 61.6983C176.757 60.5493 174.459 59.9555 172.125 59.9769C169.127 59.9769 167.838 60.9257 167.838 62.132C167.838 66.0763 181.799 62.254 181.799 71.3488C181.799 75.6455 177.729 78.6952 170.945 78.6952C167.426 78.7751 163.951 77.9141 160.877 76.2012Z" fill="white"/>
<path d="M78.2879 414.146V306.404C78.2879 303.802 79.3228 301.306 81.1651 299.465C83.0073 297.625 85.5059 296.591 88.1112 296.591H196.005C198.61 296.591 201.109 297.625 202.951 299.465C204.793 301.306 205.828 303.802 205.828 306.404V414.187C205.828 415.475 205.574 416.752 205.08 417.942C204.587 419.133 203.863 420.215 202.951 421.126C202.039 422.037 200.956 422.76 199.764 423.253C198.572 423.746 197.295 424 196.005 424H88.1112C86.8177 424 85.537 423.745 84.3426 423.249C83.1481 422.753 82.0633 422.027 81.1506 421.111C80.2379 420.196 79.5152 419.109 79.0239 417.914C78.5326 416.719 78.2825 415.438 78.2879 414.146Z" fill="#071C54"/>
<path d="M119.006 368.116C119.006 366.952 119.469 365.835 120.293 365.011C121.118 364.188 122.236 363.725 123.402 363.725C124.568 363.725 125.686 364.188 126.51 365.011C127.335 365.835 127.798 366.952 127.798 368.116C127.798 369.281 127.335 370.398 126.51 371.222C125.686 372.045 124.568 372.508 123.402 372.508C122.236 372.508 121.118 372.045 120.293 371.222C119.469 370.398 119.006 369.281 119.006 368.116Z" fill="white"/>
<path d="M125.573 379.976L127.473 374.866C128.362 375.449 129.408 375.747 130.471 375.72C132.235 375.72 133.361 374.595 133.361 372.196V347.799H140.43V372.142C140.43 377.767 137.133 381.332 131.231 381.332C129.254 381.433 127.289 380.963 125.573 379.976ZM132.506 340.507C132.521 339.955 132.649 339.411 132.88 338.91C133.112 338.408 133.444 337.959 133.856 337.59C134.267 337.221 134.749 336.94 135.273 336.763C135.797 336.586 136.351 336.518 136.903 336.562C139.535 336.562 141.299 338.189 141.299 340.371C141.23 341.479 140.746 342.52 139.943 343.286C139.139 344.053 138.076 344.488 136.965 344.505C135.855 344.522 134.778 344.12 133.952 343.379C133.125 342.637 132.609 341.612 132.506 340.507Z" fill="white"/>
<path d="M144.609 369.933L146.956 364.863C149.524 366.385 152.451 367.194 155.436 367.208C158.693 367.208 159.927 366.354 159.927 364.999C159.927 361.014 145.192 365.08 145.192 355.348C145.192 350.74 149.358 347.473 156.481 347.473C159.733 347.413 162.95 348.143 165.857 349.601L163.496 354.63C161.357 353.421 158.938 352.795 156.481 352.814C153.306 352.814 151.949 353.817 151.949 355.077C151.949 359.238 166.671 355.213 166.671 364.809C166.671 369.336 162.465 372.562 155.165 372.562C151.476 372.629 147.834 371.722 144.609 369.933Z" fill="white"/>
</svg>
