<svg width="3" height="5" viewBox="0 0 3 5" fill="none" xmlns="http://www.w3.org/2000/svg">
<path d="M1.33663 0.163443C1.495 0.0610366 1.67865 0.00452383 1.86719 0.000186971C2.01793 -0.00363397 2.16427 0.0512342 2.27532 0.15323C2.40267 0.280224 2.49419 0.438635 2.54061 0.612389C2.61707 0.842964 2.65835 1.08376 2.66305 1.32663V2.14288C2.64374 2.43123 2.60281 2.71772 2.54061 2.99995C2.47995 3.26054 2.39099 3.51371 2.27532 3.75498C2.16957 3.9808 2.03214 4.19039 1.86719 4.3774C1.72094 4.5626 1.54091 4.71838 1.33663 4.83653C1.17532 4.94075 0.987883 4.99734 0.795854 4.99978C0.645114 5.0036 0.49878 4.94873 0.387721 4.84674C0.261899 4.7226 0.170483 4.56789 0.122434 4.39779C0.04527 4.16389 0.00399345 3.91964 0 3.67337C0 3.67337 0 3.57132 0 3.4999V3.05095C0 2.97953 0 2.91832 0 2.8673C0.00927496 2.57799 0.0503298 2.29057 0.122434 2.01023C0.181472 1.74589 0.270478 1.48915 0.387721 1.24499C0.49348 1.01917 0.630909 0.809609 0.795854 0.622603C0.949074 0.440297 1.13188 0.285068 1.33663 0.163443ZM2.15289 2.38775C2.15289 2.28572 2.15289 2.16329 2.15289 2.02045C2.15289 1.8776 2.15289 1.76536 2.15289 1.66332C2.14238 1.51522 2.11847 1.36838 2.08147 1.22459C2.05264 1.11084 1.99662 1.00578 1.91821 0.918475C1.85262 0.852999 1.76575 0.813197 1.67334 0.806254C1.55344 0.805977 1.4362 0.841511 1.33663 0.908293C1.20334 0.984132 1.08563 1.08451 0.989718 1.20417C0.889201 1.32421 0.806703 1.45828 0.744834 1.60211C0.673707 1.75577 0.618991 1.91652 0.581586 2.08166C0.5471 2.25692 0.523249 2.43409 0.510163 2.61222C0.510163 2.71425 0.510163 2.84689 0.510163 2.98974C0.504256 3.1053 0.504256 3.22108 0.510163 3.33664C0.520676 3.48475 0.544581 3.63162 0.581586 3.77541C0.610409 3.88916 0.666429 3.99419 0.744834 4.08149C0.776106 4.11558 0.81388 4.14308 0.855934 4.16236C0.897989 4.18163 0.94348 4.19231 0.989718 4.19375C1.11265 4.19307 1.2329 4.1577 1.33663 4.09171C1.46714 4.01605 1.58154 3.91551 1.67334 3.7958C1.77822 3.67896 1.86117 3.54418 1.91821 3.39789C1.98934 3.24423 2.04406 3.08348 2.08147 2.91834C2.12201 2.75022 2.15267 2.57988 2.17329 2.40817L2.15289 2.38775Z" fill="#455A64"/>
</svg>
