<svg width="3" height="5" viewBox="0 0 3 5" fill="none" xmlns="http://www.w3.org/2000/svg">
<path d="M1.33397 0.163036C1.49495 0.0590182 1.68202 0.00254082 1.87366 0.000104507C1.94748 -0.00134804 2.02082 0.0123546 2.08913 0.040379C2.15744 0.0684034 2.21927 0.110157 2.2708 0.163036C2.39874 0.285068 2.49038 0.440153 2.53556 0.611089C2.61186 0.841206 2.65306 1.08149 2.65776 1.32388C2.66327 1.38485 2.66327 1.44619 2.65776 1.50716V1.95522C2.66327 2.01619 2.66327 2.07756 2.65776 2.13854C2.64347 2.42681 2.60256 2.71315 2.53556 2.9939C2.47667 3.25445 2.38783 3.50731 2.2708 3.74743C2.16263 3.97217 2.02941 4.18396 1.87366 4.37877C1.72103 4.55821 1.53843 4.70981 1.33397 4.82682C1.17408 4.93444 0.986927 4.99448 0.794271 4.99995C0.643924 4.99352 0.500255 4.93605 0.38695 4.83702C0.264437 4.71076 0.173688 4.55719 0.122191 4.38896C0.0549678 4.1532 0.0139924 3.91074 0 3.66598C0.00399241 3.60835 0.00399241 3.55049 0 3.49286V3.0448C0.00455077 2.98379 0.00455077 2.92253 0 2.86152C0.0192721 2.57374 0.0601137 2.28782 0.122191 2.00615C0.185717 1.74367 0.274381 1.48791 0.38695 1.24243C0.49868 1.02057 0.635337 0.812155 0.794271 0.621251C0.947187 0.439308 1.12963 0.284419 1.33397 0.163036ZM2.14861 2.38292C2.14861 2.28109 2.14861 2.16907 2.14861 2.02651C2.14861 1.88395 2.14861 1.76176 2.14861 1.65993C2.14307 1.51159 2.11913 1.36448 2.07733 1.22204C2.04782 1.11393 1.99576 1.01332 1.92458 0.926759C1.85756 0.856215 1.76697 0.812706 1.67001 0.804537C1.55133 0.810351 1.43591 0.845332 1.33397 0.906373C1.20284 0.984735 1.08581 1.08457 0.98775 1.20169C0.894541 1.32647 0.812741 1.45937 0.743353 1.59881C0.671229 1.75433 0.619872 1.91868 0.590607 2.0876C0.552752 2.25886 0.525552 2.43232 0.509149 2.60694C0.509149 2.71896 0.509149 2.84115 0.509149 2.98371C0.509149 3.12627 0.509149 3.23828 0.509149 3.32993C0.522754 3.48142 0.550014 3.63139 0.590607 3.77798C0.614223 3.88829 0.666969 3.99027 0.743353 4.07329C0.774563 4.10732 0.812261 4.13473 0.854232 4.15397C0.896203 4.1732 0.941603 4.18386 0.98775 4.18529C1.11123 4.19048 1.23296 4.15467 1.33397 4.08346C1.46648 4.01115 1.58127 3.9103 1.67001 3.78817C1.77453 3.66948 1.86037 3.53555 1.92458 3.39102C1.98909 3.23615 2.0402 3.07603 2.07733 2.91242C2.11651 2.73834 2.14036 2.56116 2.14861 2.38292Z" fill="#455A64"/>
</svg>
