<svg width="68" height="136" viewBox="0 0 68 136" fill="none" xmlns="http://www.w3.org/2000/svg">
<path d="M16.7145 77.357C19.4342 77.357 25.676 76.9087 25.676 76.9087L41.0562 70.2522L54.3694 52.1302L61.0328 15.8861C59.9388 13.917 58.9933 11.8691 58.2043 9.75941C58.2394 7.92044 58.5136 6.09383 59.0202 4.32551C59.0202 4.32551 59.8497 2.41005 60.1217 4.0538C60.2678 5.40835 60.2678 6.77467 60.1217 8.12922L60.9512 9.48769C61.5068 6.79383 62.2382 4.13915 63.1406 1.54064C63.9702 -0.103117 65.8604 0.440272 65.8604 1.54064C65.8604 2.641 66.6899 5.38512 66.9619 7.57226C67.2339 9.7594 64.2421 16.8099 64.2421 16.8099L63.331 55.5807C63.331 55.5807 44.0344 86.5539 42.9329 87.695C41.8314 88.8361 42.0082 112.474 41.7906 116.141C41.573 119.809 43.1505 126.697 42.7017 128.069C42.2529 129.441 40.1723 133.122 33.2914 134.725C26.4104 136.328 13.7635 135.187 12.3901 133.584C11.0166 131.981 11.0302 127.39 11.0302 127.39C11.0302 127.39 4.08121 106.822 4.08121 104.975C4.08121 103.902 2.25897 96.2398 0.749505 90.0995C0.22182 87.9332 0.543346 85.6473 1.6482 83.7101C2.75305 81.7729 4.5576 80.3311 6.69217 79.68C9.97075 78.6589 13.3207 77.8824 16.7145 77.357Z" fill="white" stroke="#071C54" stroke-linecap="round" stroke-linejoin="round"/>
</svg>
