<svg width="3" height="6" viewBox="0 0 3 6" fill="none" xmlns="http://www.w3.org/2000/svg">
<path d="M7.49342e-05 5.13042C-0.00187198 4.86941 0.0341291 4.60951 0.106923 4.35884C0.245286 3.88708 0.488786 3.45281 0.819139 3.0887C0.981448 2.91058 1.15597 2.74399 1.34144 2.59014L2.25547 1.83043V1.69986C2.25547 1.35561 2.18424 1.14194 2.04179 1.04698C1.95879 0.999052 1.86463 0.97382 1.76878 0.97382C1.67293 0.97382 1.57877 0.999052 1.49576 1.04698C1.31965 1.15024 1.16944 1.29234 1.05656 1.46245C0.959319 1.63355 0.875951 1.81218 0.807275 1.99662C0.789393 2.05277 0.761207 2.1051 0.724174 2.15094L0.60548 2.25777L0.403684 2.3646C0.384983 2.37904 0.362014 2.38688 0.338387 2.38688C0.314761 2.38688 0.29181 2.37904 0.273108 2.3646C0.253087 2.31101 0.253087 2.252 0.273108 2.19841C0.287963 2.0196 0.327912 1.84377 0.391802 1.67611C0.463231 1.47741 0.554723 1.2865 0.664836 1.10633C0.779195 0.917539 0.914587 0.742317 1.06843 0.58403C1.20326 0.42739 1.36383 0.29491 1.54324 0.192303C1.70804 0.087471 1.895 0.0224413 2.08929 0.00237144C2.2433 -0.0114336 2.39663 0.0354159 2.51662 0.132947C2.64869 0.261106 2.74661 0.420245 2.8015 0.595894C2.87463 0.854389 2.90667 1.12279 2.89647 1.39123V4.46567C2.91313 4.53592 2.91313 4.60909 2.89647 4.67933C2.87625 4.74312 2.83424 4.79775 2.77778 4.83366L2.52849 4.9761C2.51165 4.98958 2.49071 4.99693 2.46913 4.99693C2.44756 4.99693 2.42664 4.98958 2.40979 4.9761C2.38935 4.92669 2.38935 4.8712 2.40979 4.82179V4.40632C2.37323 4.56096 2.31317 4.70908 2.23173 4.84552C2.15063 4.99302 2.05522 5.13219 1.94685 5.26099C1.84524 5.38427 1.73409 5.49936 1.61446 5.60523L1.29397 5.84265C1.14843 5.92717 0.986562 5.97976 0.819139 5.99696C0.69275 6.01076 0.565775 5.97689 0.46304 5.90199C0.354564 5.82815 0.274896 5.71914 0.237499 5.59336C0.128379 5.45636 0.0476555 5.29898 7.49342e-05 5.13042ZM1.18712 4.98798C1.35207 4.88933 1.50033 4.76513 1.62634 4.62C1.75987 4.47015 1.87175 4.30232 1.95871 4.12142C2.05602 3.93397 2.12787 3.73436 2.17237 3.5279C2.21952 3.31748 2.24342 3.10253 2.24361 2.8869V2.63761L1.48388 3.26675C1.22916 3.46634 1.00518 3.70233 0.819139 3.96712C0.671987 4.17617 0.589442 4.4238 0.581734 4.67933C0.569468 4.74604 0.569468 4.81442 0.581734 4.88113C0.602905 4.9412 0.639794 4.99449 0.688564 5.03545C0.716689 5.04754 0.746995 5.05376 0.777607 5.05376C0.808218 5.05376 0.838506 5.04754 0.866631 5.03545C0.980785 5.04694 1.09588 5.02638 1.199 4.9761L1.18712 4.98798Z" fill="#455A64"/>
</svg>
