<svg width="4" height="7" viewBox="0 0 4 7" fill="none" xmlns="http://www.w3.org/2000/svg">
<path d="M2.89138 3.6674L3.52012 0.442529C3.5327 0.37938 3.55314 0.318062 3.58097 0.259996C3.60762 0.199139 3.65408 0.149082 3.7128 0.118006L3.89534 0.0166192C3.90813 0.00588887 3.92429 0 3.94098 0C3.95767 0 3.97383 0.00588887 3.98661 0.0166192C4.00408 0.0588286 4.00408 0.106218 3.98661 0.148428C3.99078 0.171906 3.99078 0.195944 3.98661 0.219423L3.13476 4.66124C3.1284 4.73227 3.1077 4.80128 3.07392 4.86408C3.05746 4.91899 3.02135 4.96589 2.9725 4.99588L2.8001 5.0973C2.8001 5.0973 2.70883 5.0973 2.68855 5.0973C2.67436 5.03674 2.67789 4.97339 2.69869 4.91477L2.03952 2.45048L1.37021 5.6855C1.36082 5.75591 1.34027 5.82436 1.30935 5.88831C1.29004 5.94729 1.25054 5.99758 1.1978 6.0303L1.0254 6.12156C1.0254 6.12156 0.944277 6.12156 0.923995 6.12156C0.889994 6.08138 0.868805 6.03191 0.86315 5.97957L0.011292 2.52148C0.00654741 2.50147 0.00654741 2.48061 0.011292 2.4606C-0.00376399 2.40412 -0.00376399 2.3447 0.011292 2.28822C0.0307644 2.24328 0.0623728 2.20464 0.102566 2.17665L0.285107 2.06512C0.345953 2.06512 0.386515 2.06512 0.416938 2.06512C0.446388 2.0925 0.467482 2.12766 0.477783 2.16653L1.10654 4.67139L1.77585 1.41607C1.78942 1.35768 1.80636 1.30013 1.82655 1.24369C1.83661 1.21449 1.85262 1.18768 1.87356 1.16499C1.89451 1.14229 1.91995 1.1242 1.94825 1.11185L2.06994 1.04085C2.06994 1.04085 2.16121 1.04085 2.19164 1.04085C2.19712 1.07443 2.19712 1.10869 2.19164 1.14227L2.89138 3.6674Z" fill="#455A64"/>
</svg>
