<svg width="4" height="7" viewBox="0 0 4 7" fill="none" xmlns="http://www.w3.org/2000/svg">
<path d="M0.643177 3.37674C0.643177 3.65545 0.643177 3.91272 0.643177 4.14855C0.643177 4.38438 0.643177 4.64164 0.643177 4.90963C0.615197 5.29101 0.721363 5.67018 0.943322 5.98158C1.13627 6.18882 1.40426 6.18882 1.74728 5.98158C1.92985 5.8828 2.09322 5.75212 2.22966 5.59569C2.3535 5.45436 2.46136 5.29978 2.55125 5.13476C2.63586 4.97156 2.70064 4.7988 2.74421 4.62021C2.78909 4.45435 2.82486 4.28616 2.85139 4.11639C2.83319 4.05701 2.83319 3.99353 2.85139 3.93415C2.87157 3.88922 2.9053 3.85176 2.94786 3.82698L3.21585 3.66616C3.21585 3.66616 3.28018 3.66616 3.31234 3.66616C3.32628 3.70423 3.32628 3.74602 3.31234 3.78409C3.30775 4.02286 3.27536 4.2603 3.21585 4.49158C3.14847 4.77952 3.05149 5.05972 2.92644 5.3277C2.79373 5.62192 2.62053 5.89611 2.41189 6.14236C2.20862 6.40603 1.95319 6.62499 1.66153 6.78554C1.45839 6.92184 1.22008 6.99632 0.975479 6.99994C0.784688 6.98859 0.603352 6.91302 0.460947 6.78554C0.30194 6.6204 0.187584 6.41752 0.128645 6.19598C0.046753 5.89906 0.00350689 5.5928 0 5.28481C0 4.75956 0 4.21285 0 3.66616C0.00913764 3.3056 0.0522169 2.9467 0.128645 2.59421C0.202074 2.2575 0.313556 1.93027 0.460947 1.61876C0.604586 1.33057 0.776969 1.05761 0.975479 0.804069C1.17028 0.574208 1.40216 0.378547 1.66153 0.225206C1.88277 0.075257 2.14464 -0.00329612 2.41189 0.000106017C2.60466 0.0117835 2.78703 0.0915548 2.92644 0.225206C3.05977 0.369098 3.15872 0.54136 3.21585 0.729025C3.27918 0.922851 3.31175 1.1254 3.31234 1.32931C3.32248 1.38243 3.32248 1.43698 3.31234 1.4901C3.29216 1.53503 3.25842 1.57252 3.21585 1.5973L2.94786 1.75809C2.93364 1.76777 2.91683 1.77294 2.89963 1.77294C2.88242 1.77294 2.86562 1.76777 2.85139 1.75809C2.84198 1.74179 2.83703 1.72332 2.83703 1.7045C2.83703 1.68569 2.84198 1.66721 2.85139 1.65092C2.82706 1.51589 2.7912 1.38317 2.74421 1.25427C2.70856 1.14448 2.64146 1.0476 2.55125 0.975585C2.45749 0.90911 2.34452 0.875224 2.22966 0.879113C2.0583 0.893248 1.89285 0.94839 1.74728 1.0399C1.3895 1.26037 1.10867 1.58612 0.943322 1.97249C0.753013 2.41664 0.651066 2.89361 0.643177 3.37674Z" fill="#455A64"/>
</svg>
