<svg width="36" height="36" viewBox="0 0 36 36" fill="none" xmlns="http://www.w3.org/2000/svg">
<path d="M17.9999 2.25005C14.7191 2.25392 11.5737 3.55896 9.25378 5.87888C6.93386 8.1988 5.62883 11.3442 5.62496 14.625C5.62103 17.3062 6.49681 19.9145 8.11796 22.05C8.11796 22.05 8.45546 22.4944 8.51058 22.5585L17.9999 33.75L27.4938 22.5529C27.5433 22.4933 27.8819 22.05 27.8819 22.05L27.883 22.0466C29.5034 19.9121 30.3788 17.3049 30.3749 14.625C30.371 11.3442 29.066 8.1988 26.7461 5.87888C24.4262 3.55896 21.2808 2.25392 17.9999 2.25005ZM17.9999 19.125C17.1099 19.125 16.2399 18.8611 15.4999 18.3666C14.7599 17.8722 14.1831 17.1694 13.8425 16.3471C13.5019 15.5248 13.4128 14.62 13.5864 13.7471C13.76 12.8742 14.1886 12.0724 14.818 11.4431C15.4473 10.8137 16.2491 10.3851 17.122 10.2115C17.9949 10.0379 18.8997 10.127 19.722 10.4676C20.5443 10.8082 21.2471 11.385 21.7415 12.125C22.236 12.865 22.4999 13.735 22.4999 14.625C22.4984 15.818 22.0239 16.9618 21.1803 17.8054C20.3367 18.649 19.193 19.1235 17.9999 19.125Z" fill="white"/>
</svg>
