<svg width="3" height="5" viewBox="0 0 3 5" fill="none" xmlns="http://www.w3.org/2000/svg">
<path d="M1.334 0.173097C1.4939 0.0654795 1.68105 0.00546637 1.87371 0C2.02106 0.00625829 2.16158 0.0639065 2.27087 0.162935C2.39797 0.28968 2.4893 0.447749 2.53563 0.621162C2.61271 0.851091 2.65392 1.09153 2.65782 1.334C2.6639 1.39155 2.6639 1.44955 2.65782 1.5071V1.95516C2.66381 2.01611 2.66381 2.0775 2.65782 2.13845C2.63997 2.42639 2.59912 2.71246 2.53563 2.99387C2.47671 3.25769 2.38788 3.51393 2.27087 3.75761C2.16265 3.97916 2.02938 4.18756 1.87371 4.37878C1.71852 4.55845 1.53646 4.71304 1.334 4.83703C1.17302 4.94105 0.985943 4.99753 0.794291 4.99997C0.642831 4.99894 0.497353 4.94075 0.386968 4.83703C0.261393 4.71313 0.170164 4.55873 0.122209 4.38897C0.0549039 4.15669 0.0139032 3.91757 0 3.67613C0.00423407 3.6185 0.00423407 3.56066 0 3.50303V3.05497C0.00479326 2.99056 0.00479326 2.92589 0 2.86148C0.0199971 2.57714 0.0608503 2.29463 0.122209 2.01626C0.185737 1.75377 0.274396 1.49801 0.386968 1.25252C0.498641 1.02746 0.63527 0.815676 0.794291 0.621162C0.944728 0.439507 1.12777 0.287545 1.334 0.173097ZM2.14866 2.39303C2.14866 2.2912 2.14866 2.16902 2.14866 2.02645C2.14866 1.88389 2.14866 1.76168 2.14866 1.67003C2.14314 1.51834 2.11921 1.36788 2.07739 1.22197C2.04556 1.11477 1.99373 1.01459 1.92463 0.926678C1.89224 0.89142 1.85291 0.863263 1.80909 0.843982C1.76527 0.824702 1.71792 0.814702 1.67005 0.814646C1.54991 0.810953 1.43188 0.846727 1.334 0.916484C1.20321 0.991143 1.08613 1.08757 0.987774 1.20161C0.892293 1.32847 0.810389 1.46499 0.743387 1.60894C0.669867 1.76036 0.618419 1.92153 0.590629 2.08755C0.548019 2.26133 0.520757 2.43851 0.509161 2.61707C0.509161 2.7189 0.509161 2.84111 0.509161 2.98368C0.509161 3.12624 0.509161 3.24845 0.509161 3.3401C0.518714 3.48879 0.546066 3.63579 0.590629 3.77797C0.61166 3.8892 0.664764 3.99185 0.743387 4.07329C0.807835 4.14165 0.894419 4.18494 0.987774 4.19549C1.11063 4.19595 1.23096 4.16056 1.334 4.09365C1.46395 4.01772 1.57805 3.91744 1.67005 3.79832C1.77001 3.67625 1.85544 3.54299 1.92463 3.40119C1.98619 3.24525 2.03723 3.08536 2.07739 2.92258C2.11657 2.74849 2.14041 2.57129 2.14866 2.39303Z" fill="#455A64"/>
</svg>
