<svg width="3" height="6" viewBox="0 0 3 6" fill="none" xmlns="http://www.w3.org/2000/svg">
<path d="M2.21792 3.72242C2.22318 3.62296 2.20253 3.52386 2.15799 3.43478C2.13195 3.40313 2.09891 3.37798 2.06146 3.36133C2.02402 3.34469 1.9832 3.33699 1.94226 3.33887C1.8274 3.31743 1.70954 3.31743 1.59468 3.33887L1.09129 3.44674C0.731731 3.54262 0.49203 3.44674 0.348206 3.30292C0.187358 3.06294 0.111407 2.77605 0.132459 2.48792C0.133344 2.27816 0.157477 2.06915 0.204387 1.8647C0.261195 1.64879 0.341577 1.43976 0.444091 1.24143C0.671356 0.82157 1.00647 0.469896 1.4149 0.222671C1.5881 0.117321 1.77896 0.0442369 1.97822 0.00694333C2.11308 -0.012266 2.25062 0.00859458 2.37374 0.0668921C2.4289 0.0858624 2.47965 0.115791 2.52291 0.154932C2.56617 0.194072 2.60104 0.241615 2.62542 0.294617C2.68772 0.391071 2.72101 0.503382 2.7213 0.618209C2.73813 0.689137 2.73813 0.763008 2.7213 0.833937C2.69695 0.899702 2.65029 0.954845 2.58946 0.989752L2.37374 1.12157H2.27785C2.26378 1.13137 2.24704 1.13664 2.2299 1.13664C2.21276 1.13664 2.19603 1.13137 2.18197 1.12157C2.15157 1.07941 2.11209 1.0446 2.06646 1.01971C2.02082 0.994818 1.97019 0.980486 1.91829 0.977755C1.75574 0.980559 1.59751 1.03052 1.46284 1.12157C1.26675 1.23435 1.09877 1.39006 0.97145 1.57702C0.847559 1.74785 0.780474 1.95331 0.779679 2.16433C0.755835 2.25873 0.755835 2.35757 0.779679 2.45197C0.801788 2.47908 0.829063 2.50153 0.859928 2.51799C0.890793 2.53445 0.924624 2.54458 0.959453 2.54784C1.06216 2.56986 1.16838 2.56986 1.27108 2.54784L1.75049 2.43997C1.91987 2.39926 2.09648 2.39926 2.26585 2.43997C2.38735 2.45684 2.50051 2.51133 2.58946 2.59579C2.67707 2.69046 2.73898 2.80599 2.76926 2.93138C2.78882 3.09058 2.78882 3.25158 2.76926 3.41078C2.77088 3.62625 2.73852 3.84062 2.67337 4.04601C2.54767 4.51588 2.30902 4.94792 1.97822 5.30449C1.80177 5.48314 1.60461 5.64004 1.39093 5.7719C1.21908 5.87766 1.02735 5.94702 0.827613 5.97567C0.685609 6.00804 0.538143 6.00804 0.396139 5.97567C0.285026 5.92661 0.189634 5.8478 0.120481 5.74795C0.0562885 5.64721 0.0191424 5.53163 0.0126166 5.41236C-0.00420554 5.34143 -0.00420554 5.26756 0.0126166 5.19663C0.0403596 5.12967 0.0859667 5.07161 0.144456 5.02882L0.38416 4.89699H0.480045C0.480045 4.89699 0.539974 4.89698 0.57593 4.95691C0.606881 5.00692 0.648912 5.04914 0.698791 5.08032C0.748669 5.11149 0.805046 5.13078 0.863568 5.13668C1.03474 5.13024 1.20074 5.07629 1.34299 4.98086L1.63063 4.76514C1.72123 4.67533 1.80534 4.57921 1.88233 4.4775C2.01349 4.3409 2.1263 4.18779 2.21792 4.02205C2.23269 3.92272 2.23269 3.82175 2.21792 3.72242Z" fill="#455A64"/>
</svg>
