<svg width="2" height="6" viewBox="0 0 2 6" fill="none" xmlns="http://www.w3.org/2000/svg">
<path d="M1.63193 0.0216982C1.65015 0.0076362 1.6725 0 1.69551 0C1.71852 0 1.74089 0.0076362 1.7591 0.0216982C1.77902 0.0698178 1.77902 0.123879 1.7591 0.171998V0.495707C1.77533 0.564125 1.77533 0.635381 1.7591 0.703799C1.73271 0.765495 1.68841 0.817856 1.63193 0.854099L1.26197 1.06219C1.01074 1.22935 0.810063 1.4621 0.681673 1.73519C0.553283 2.00827 0.502091 2.31127 0.533632 2.61137V5.47854C0.548918 5.55096 0.548918 5.62578 0.533632 5.6982C0.507184 5.75687 0.462607 5.80549 0.406459 5.83693L0.175223 5.97566C0.167688 5.98335 0.158705 5.98948 0.148779 5.99365C0.138853 5.99782 0.128198 5.99996 0.117431 5.99996C0.106665 5.99996 0.0959918 5.99782 0.086066 5.99365C0.0761401 5.98948 0.0671574 5.98335 0.0596223 5.97566C0.0376093 5.95537 0.0208434 5.93004 0.0107749 5.90185C0.000706339 5.87365 -0.00236754 5.84346 0.00181333 5.81382V1.24717C0.000342821 1.17001 0.0203602 1.09395 0.0596223 1.02751C0.0816428 0.966634 0.122034 0.914106 0.175223 0.877208L0.406459 0.750053C0.424673 0.735991 0.447026 0.728355 0.470036 0.728355C0.493047 0.728355 0.515418 0.735991 0.533632 0.750053C0.553131 0.802243 0.553131 0.8597 0.533632 0.91189V1.21249C0.607605 0.99786 0.71277 0.795307 0.845768 0.611325C0.965881 0.441893 1.12435 0.303239 1.30822 0.20668L1.63193 0.0216982Z" fill="#455A64"/>
</svg>
