<svg width="723" height="695" viewBox="0 0 723 695" fill="none" xmlns="http://www.w3.org/2000/svg">
<path d="M152.978 132.632C119.935 184.268 73.5418 239.172 47.3425 267.51C-20.8061 328.056 -4.22742 397.145 40.3694 456.488C110.558 549.885 189.293 667.797 304.057 689.677C390.326 706.124 497.782 666.945 575.533 624.77C604.291 609.171 630.353 588.714 651.513 563.762C725.919 476.024 730.505 404.082 711.244 353.839C690.927 300.844 628.354 280.075 590.815 237.507C575.914 220.61 561.784 201.011 549.017 181.007C510.133 120.085 472.287 53.4047 406.729 22.9815C339.248 -8.3348 283.868 -1.42375 244.09 18.1826C199.426 40.1971 179.818 90.69 152.978 132.632Z" stroke="#71D18C" stroke-width="3" stroke-linecap="round" stroke-dasharray="12 15"/>
</svg>
