<svg width="2" height="6" viewBox="0 0 2 6" fill="none" xmlns="http://www.w3.org/2000/svg">
<path d="M1.06133 4.60292C1.05554 4.69783 1.05554 4.79301 1.06133 4.88793C1.0645 4.96447 1.08919 5.03855 1.13258 5.10168C1.14889 5.12411 1.17034 5.14229 1.19514 5.15469C1.21994 5.1671 1.24736 5.17335 1.27509 5.17295C1.35946 5.16952 1.44093 5.14118 1.50921 5.09151L1.8044 4.91847C1.82044 4.90609 1.84012 4.89936 1.86038 4.89936C1.88064 4.89936 1.90033 4.90609 1.91637 4.91847C1.92589 4.94102 1.9308 4.96524 1.9308 4.98971C1.9308 5.01419 1.92589 5.03842 1.91637 5.06097V5.33582C1.92983 5.39958 1.92983 5.46546 1.91637 5.52922C1.89308 5.58087 1.85384 5.62368 1.8044 5.65137L1.45831 5.85495C1.13258 6.04835 0.898463 6.04835 0.745776 5.85495C0.565883 5.54785 0.490842 5.19055 0.532007 4.83703V2.6078L0.114666 2.84191C0.114666 2.84191 0.0332349 2.84191 0.0128767 2.84191C-0.00429222 2.79596 -0.00429222 2.74536 0.0128767 2.69941V2.42458C0.000258083 2.36073 0.000258083 2.29503 0.0128767 2.23118C0.0207808 2.20503 0.0338621 2.18073 0.0513498 2.15974C0.0688375 2.13876 0.0903724 2.12152 0.114666 2.10903L0.532007 1.86473V0.46C0.517586 0.396338 0.517586 0.330255 0.532007 0.266593C0.558211 0.214164 0.596609 0.168795 0.643978 0.134275L0.847566 0.0223041C0.862689 0.00798595 0.882725 0 0.903551 0C0.924378 0 0.944413 0.00798595 0.959537 0.0223041C0.972567 0.0689133 0.972567 0.118202 0.959537 0.164811V1.56952L1.67207 1.16236C1.68652 1.1508 1.70447 1.1445 1.72297 1.1445C1.74147 1.1445 1.75942 1.1508 1.77386 1.16236C1.79103 1.20831 1.79103 1.25892 1.77386 1.30487V1.57971C1.78763 1.64344 1.78763 1.70938 1.77386 1.77312C1.75124 1.82487 1.71629 1.87029 1.67207 1.90544L0.959537 2.31261L1.06133 4.60292Z" fill="#455A64"/>
</svg>
