<svg width="3" height="5" viewBox="0 0 3 5" fill="none" xmlns="http://www.w3.org/2000/svg">
<path d="M0.0164982 2.8059C0.0452567 2.26235 0.176823 1.72917 0.404218 1.23463C0.502942 1.00652 0.633466 0.793547 0.791922 0.602047C0.931512 0.423722 1.10486 0.274649 1.30207 0.163325C1.46129 0.0546776 1.65009 -0.00232357 1.84283 7.256e-05C1.92123 0.00422335 1.99794 0.0244977 2.06815 0.0596067C2.13837 0.0947158 2.2006 0.143919 2.25096 0.204145C2.37763 0.361641 2.46506 0.546985 2.50604 0.744904C2.57247 1.02561 2.60332 1.31355 2.59786 1.60195V1.82642C2.60852 1.8906 2.60852 1.9561 2.59786 2.02028C2.57127 2.07262 2.53284 2.11801 2.48563 2.15289L0.557257 3.26505V3.34666C0.539958 3.48438 0.55095 3.62418 0.589546 3.75751C0.628142 3.89085 0.693531 4.01491 0.781724 4.1221C0.862096 4.18415 0.960763 4.21778 1.0623 4.21778C1.16384 4.21778 1.26252 4.18415 1.34289 4.1221C1.52576 4.02838 1.68327 3.89186 1.80203 3.72417C1.89621 3.58344 1.9814 3.43691 2.0571 3.28544L2.12853 3.14259C2.15781 3.10994 2.19228 3.08238 2.23055 3.06098L2.404 2.95894C2.42007 2.94653 2.43982 2.93979 2.46012 2.93979C2.48043 2.93979 2.50016 2.94653 2.51623 2.95894C2.51623 2.95894 2.51623 3.03037 2.51623 3.09158C2.49664 3.22751 2.46244 3.36094 2.41421 3.48952C2.35866 3.6577 2.28331 3.81864 2.18975 3.96903C2.08294 4.14026 1.95994 4.30085 1.82244 4.44857C1.67009 4.60956 1.49472 4.74711 1.30207 4.85672C1.15053 4.95515 0.972547 5.00497 0.791922 4.99954C0.642816 4.98629 0.504286 4.91701 0.404218 4.80568C0.275311 4.67585 0.183676 4.51375 0.138929 4.33635C0.0616209 4.10951 0.0203135 3.87196 0.0164982 3.63234C-0.0054994 3.3573 -0.0054994 3.08094 0.0164982 2.8059ZM0.516451 2.54061L2.08771 1.63256C2.1033 1.50517 2.0923 1.37593 2.05542 1.253C2.01854 1.13007 1.95659 1.01611 1.87345 0.918338C1.73061 0.785698 1.53674 0.795901 1.30207 0.918338C1.18624 0.989459 1.08286 1.07908 0.995994 1.18363C0.898231 1.29823 0.8159 1.42514 0.751116 1.56113C0.676691 1.70738 0.618528 1.86136 0.577667 2.02028C0.537254 2.18733 0.516708 2.35856 0.516451 2.53043V2.54061Z" fill="white"/>
</svg>
