<svg width="3" height="5" viewBox="0 0 3 5" fill="none" xmlns="http://www.w3.org/2000/svg">
<path d="M0.00344272 2.84071C0.0325588 2.2904 0.165753 1.75059 0.395975 1.24991C0.5036 1.02077 0.638904 0.805686 0.798847 0.609459C0.936348 0.429208 1.10843 0.278207 1.30501 0.165282C1.47127 0.057885 1.66489 0.000512962 1.86282 0C1.94207 0.00480207 2.01951 0.0255902 2.09052 0.061094C2.16153 0.0965978 2.22463 0.146096 2.27602 0.20661C2.4003 0.368512 2.48837 0.555214 2.53427 0.754092C2.60153 1.03828 2.63276 1.32981 2.62723 1.6218V1.80773C2.6426 1.87225 2.6426 1.93948 2.62723 2.004C2.60697 2.05807 2.571 2.10484 2.52393 2.13829L0.561257 3.26424V3.31588C0.536828 3.59836 0.62189 3.87943 0.798847 4.10096C0.877835 4.16469 0.976261 4.19944 1.07775 4.19944C1.17924 4.19944 1.27767 4.16469 1.35665 4.10096C1.54651 4.00893 1.70998 3.87032 1.83183 3.69808C1.92788 3.55791 2.01086 3.40923 2.07975 3.2539C2.10202 3.20287 2.12973 3.1544 2.16239 3.1093C2.1897 3.07387 2.22512 3.04551 2.26569 3.02664L2.43096 2.92334C2.44823 2.91337 2.46783 2.90814 2.48778 2.90814C2.50772 2.90814 2.52732 2.91337 2.54459 2.92334C2.55728 2.94532 2.56397 2.97027 2.56397 2.99566C2.56397 3.02104 2.55728 3.04599 2.54459 3.06797C2.52893 3.20534 2.49775 3.34048 2.45162 3.47082C2.39101 3.63932 2.31493 3.80185 2.22437 3.95633C2.11584 4.13217 1.98761 4.29506 1.84216 4.44183C1.69223 4.60949 1.5139 4.74939 1.31534 4.85505C1.16567 4.95451 0.988797 5.00502 0.809171 4.99965C0.657625 4.98833 0.516624 4.91783 0.416639 4.80338C0.288913 4.66814 0.193545 4.50567 0.137728 4.32822C0.069355 4.09614 0.02777 3.85699 0.0137748 3.61545C1.63451e-06 3.36754 -0.00344386 3.10929 0.00344272 2.84071ZM0.509604 2.57213L2.11074 1.65279C2.12652 1.52381 2.11539 1.39296 2.07805 1.2685C2.04072 1.14405 1.97798 1.02867 1.89381 0.929682C1.74919 0.795394 1.55293 0.805724 1.30501 0.929682C1.06787 1.09405 0.878883 1.3187 0.757527 1.58047C0.682176 1.72853 0.623282 1.88442 0.581913 2.04533C0.542684 2.21503 0.518488 2.38786 0.509604 2.56182V2.57213Z" fill="#455A64"/>
</svg>
