<svg width="141" height="59" viewBox="0 0 141 59" fill="none" xmlns="http://www.w3.org/2000/svg">
<circle cx="111.442" cy="29.3723" r="28.3723" stroke="#FAB91D" stroke-width="2"/>
<path d="M107.986 33.0432C107.986 35.6425 111.055 37.0247 113.002 35.3025L116.663 32.0634C118.02 30.8629 118.02 28.7453 116.663 27.5448L113.002 24.3057C111.055 22.5835 107.986 23.9657 107.986 26.565L107.986 33.0432Z" fill="#FAB91D"/>
<circle cx="29.2124" cy="29.2124" r="28.2124" transform="matrix(-1.00548 0 0 1.00548 58.7446 0.255296)" stroke="#FAB91D" stroke-width="2"/>
<path d="M32.8279 33.2985C32.8279 35.8978 29.7598 37.28 27.8129 35.5578L24.1513 32.3187C22.7942 31.1182 22.7942 29.0006 24.1513 27.8001L27.8129 24.561C29.7598 22.8388 32.8279 24.221 32.8279 26.8203L32.8279 33.2985Z" fill="#FAB91D"/>
</svg>
