<svg width="3" height="6" viewBox="0 0 3 6" fill="none" xmlns="http://www.w3.org/2000/svg">
<path d="M0.0469085 1.83837C0.0301295 1.76793 0.0301295 1.69452 0.0469085 1.62408C0.0690255 1.56504 0.108304 1.51398 0.15969 1.47746L0.396533 1.34212C0.412536 1.32931 0.432428 1.32233 0.452928 1.32233C0.473428 1.32233 0.493312 1.32931 0.509315 1.34212C0.529417 1.36291 0.54485 1.38776 0.554575 1.41499C0.564301 1.44222 0.568097 1.47122 0.56571 1.50003V4.01508C0.524105 4.35697 0.59964 4.70286 0.779992 4.99628C0.915331 5.15418 1.12962 5.15418 1.4003 4.99628C1.67559 4.8293 1.89231 4.58108 2.02061 4.28578C2.17614 3.89519 2.24909 3.47659 2.23489 3.05641V0.484959C2.23903 0.410455 2.25822 0.337558 2.29129 0.270668C2.31636 0.213325 2.35508 0.163016 2.40407 0.124079L2.64091 0C2.64091 0 2.71986 0 2.7537 0C2.77272 0.0509133 2.77272 0.107 2.7537 0.157913V4.61282C2.76861 4.68348 2.76861 4.75646 2.7537 4.82712C2.73152 4.88312 2.692 4.93054 2.64091 4.96245L2.40407 5.09782C2.38807 5.11063 2.36818 5.11761 2.34768 5.11761C2.32718 5.11761 2.30729 5.11063 2.29129 5.09782C2.27207 5.07875 2.25711 5.0558 2.24739 5.03053C2.23767 5.00526 2.23341 4.97823 2.23489 4.95119V4.65795C2.1461 4.87835 2.03658 5.08982 1.90782 5.28953C1.75452 5.51794 1.54979 5.70721 1.31007 5.84216C1.14742 5.94322 0.960203 5.99784 0.76872 6.00007C0.69235 5.99905 0.616978 5.98252 0.547184 5.9515C0.47739 5.92048 0.414629 5.87562 0.3627 5.81961C0.221807 5.67823 0.127382 5.49726 0.0920228 5.30082C0.022371 5.0245 -0.00800502 4.73974 0.00179426 4.45495L0.0469085 1.83837Z" fill="#455A64"/>
</svg>
