<svg width="94" height="72" viewBox="0 0 94 72" fill="none" xmlns="http://www.w3.org/2000/svg">
<path d="M74.1602 3.77774C74.5917 3.57542 75.0698 3.49294 75.5442 3.53896C76.0185 3.58498 76.4718 3.7578 76.8564 4.03931C77.9673 4.76084 78.8918 5.73484 79.5544 6.8818C80.2171 8.02877 80.5991 9.31618 80.6693 10.6389C80.7187 11.1144 80.6403 11.5944 80.4422 12.0295C80.2442 12.4645 79.9336 12.8389 79.5425 13.1138L18.7273 48.2347L13.335 38.8986L74.1602 3.77774Z" fill="#37474F"/>
<path d="M16.0112 43.5868L79.5326 6.90657C78.8956 5.73151 77.9627 4.74316 76.8264 4.03935C76.7056 3.96892 76.5849 3.92868 76.4642 3.86832L13.9991 39.9852L16.0112 43.5868Z" fill="#455A64"/>
<path d="M16.0111 39.1602C13.9085 37.9429 12.1982 38.9288 12.1982 41.3635C12.2716 42.6855 12.655 43.9717 13.3173 45.1181C13.9797 46.2646 14.9025 47.2392 16.0111 47.9631C18.1138 49.1703 19.824 48.1844 19.824 45.7599C19.7514 44.4377 19.3684 43.1511 18.706 42.0046C18.0435 40.858 17.1203 39.8835 16.0111 39.1602Z" fill="#263238"/>
<path d="M93.9487 4.52221V14.2808C93.8605 16.0858 93.3425 17.8436 92.4378 19.408C91.5332 20.9724 90.268 22.2981 88.7475 23.2748L63.1136 38.0234C61.846 38.7477 61.1015 40.2165 60.357 41.7558C59.833 42.917 59.1563 44.003 58.3449 44.9852C56.3329 47.2488 52.0069 49.6029 48.9485 50.5788C47.9445 50.9038 46.9146 51.1428 45.87 51.2931L44.6125 51.4641C41.8157 51.8363 38.3348 52.3092 36.2925 53.4762L6.29237 70.7901C5.50395 71.2756 4.60213 71.5462 3.67666 71.5748C3.06341 71.5812 2.45941 71.425 1.92615 71.1221C1.28369 70.6961 0.767388 70.1054 0.431154 69.4117C0.0949209 68.718 -0.0489129 67.9467 0.0146747 67.1784V57.4098C0.101995 55.606 0.619704 53.8492 1.52454 52.2863C2.42938 50.7234 3.69507 49.3997 5.21591 48.4258L15.2763 42.6109C15.3205 42.5848 15.3678 42.5645 15.4172 42.5506C15.652 42.4702 15.9077 42.4751 16.1393 42.5645C16.3709 42.6539 16.5636 42.8219 16.6837 43.0392C16.8037 43.2565 16.8434 43.5091 16.7958 43.7527C16.7482 43.9964 16.6163 44.2154 16.4232 44.3715C16.3877 44.4103 16.3471 44.4442 16.3025 44.4721L6.24207 50.287C5.05169 51.0756 4.05993 52.129 3.34435 53.3647C2.62878 54.6003 2.20881 55.9848 2.1173 57.4098V67.1784C2.01788 67.5614 2.04659 67.9663 2.19904 68.3314C2.35149 68.6964 2.61929 69.0015 2.96151 69.2C3.30373 69.3985 3.70153 69.4794 4.0941 69.4305C4.48668 69.3816 4.85242 69.2054 5.13543 68.929L35.1356 51.6049C37.54 50.2166 41.2624 49.7136 44.2402 49.3112C44.6829 49.3112 45.1054 49.1904 45.4877 49.1401C46.416 49.006 47.3314 48.794 48.2242 48.5063C50.9405 47.6512 54.9848 45.4379 56.6548 43.5465C57.323 42.6983 57.8808 41.7687 58.3148 40.7799C59.19 39.0093 60.0955 37.1984 61.9164 36.1421L87.5503 21.3432C88.7415 20.553 89.7336 19.4979 90.4492 18.2605C91.1648 17.0231 91.5843 15.6369 91.6751 14.2104V4.52221C91.7745 4.13929 91.7458 3.73435 91.5933 3.36929C91.4409 3.00423 91.1731 2.69914 90.8309 2.50065C90.4887 2.30217 90.0909 2.22121 89.6983 2.27015C89.3057 2.3191 88.94 2.49526 88.657 2.7717L79.9245 7.8019C79.6344 7.14631 79.2663 6.52815 78.8279 5.96085L87.5805 0.930642C88.1874 0.413221 88.9385 0.0946528 89.7324 0.0180191C90.5262 -0.0586145 91.3244 0.110384 92.0191 0.502158C92.7137 0.893932 93.2713 1.48959 93.6164 2.20856C93.9616 2.92754 94.0775 3.73516 93.9487 4.52221Z" fill="#455A64"/>
</svg>
