<svg width="30" height="30" viewBox="0 0 30 30" fill="none" xmlns="http://www.w3.org/2000/svg">
<path opacity="0.5" d="M21.2502 11.2526C23.969 11.2676 25.4414 11.3888 26.4014 12.3488C27.5002 13.4475 27.5002 15.215 27.5002 18.75V20C27.5002 23.5363 27.5002 25.3037 26.4014 26.4025C25.3039 27.5 23.5352 27.5 20.0002 27.5H10.0003C6.46527 27.5 4.69653 27.5 3.59904 26.4025C2.50029 25.3025 2.50029 23.5363 2.50029 20V18.75C2.50029 15.215 2.50029 13.4475 3.59904 12.3488C4.55903 11.3888 6.03153 11.2676 8.75026 11.2526" stroke="#071C54" stroke-width="2" stroke-linecap="round"/>
<path d="M15.0003 18.75V2.50004M15.0003 2.50004L18.7503 6.87502M15.0003 2.50004L11.2503 6.87502" stroke="#071C54" stroke-width="2" stroke-linecap="round" stroke-linejoin="round"/>
</svg>
