<svg width="33" height="38" viewBox="0 0 33 38" fill="none" xmlns="http://www.w3.org/2000/svg">
<path d="M7.33341 16.8302H11.0001V20.5702H7.33341V16.8302ZM33.0004 7.48008V33.6604C33.0004 35.7174 31.3503 37.4004 29.3337 37.4004H3.66671C2.69424 37.4004 1.76159 37.0064 1.07395 36.305C0.386313 35.6036 0 34.6523 0 33.6604L0.0183335 7.48008C0.0183335 5.42306 1.63168 3.74004 3.66671 3.74004H5.50006V0H9.16677V3.74004H23.8336V0H27.5003V3.74004H29.3337C31.3503 3.74004 33.0004 5.42306 33.0004 7.48008ZM3.66671 11.2201H29.3337V7.48008H3.66671V11.2201ZM29.3337 33.6604V14.9602H3.66671V33.6604H29.3337ZM22.0002 20.5702H25.6669V16.8302H22.0002V20.5702ZM14.6668 20.5702H18.3335V16.8302H14.6668V20.5702Z" fill="#071C54"/>
</svg>
