<svg width="3" height="7" viewBox="0 0 3 7" fill="none" xmlns="http://www.w3.org/2000/svg">
<path d="M1.43424 0.181783C1.6107 0.0640165 1.81791 0.000789259 2.03006 0C2.1858 0.0019738 2.33726 0.0512835 2.4643 0.14138C2.58469 0.231538 2.68166 0.349303 2.74707 0.484745C2.80215 0.620152 2.8362 0.763183 2.84804 0.908885C2.86182 0.958438 2.86182 1.0108 2.84804 1.06036C2.84181 1.08434 2.83046 1.10669 2.81477 1.12586C2.79908 1.14504 2.77943 1.16058 2.75716 1.17144L2.53499 1.30273C2.51899 1.3094 2.50182 1.31282 2.48449 1.31282C2.46716 1.31282 2.44999 1.3094 2.43399 1.30273C2.41548 1.28978 2.39971 1.2733 2.38758 1.25424C2.37545 1.23518 2.36721 1.2139 2.36331 1.19165C2.33644 1.13593 2.30608 1.08196 2.27243 1.03006C2.22542 0.966285 2.16726 0.911539 2.10075 0.868482C2.01622 0.826205 1.92257 0.805398 1.82809 0.807893C1.70153 0.815855 1.57945 0.857707 1.47463 0.929071C1.36504 0.990613 1.2633 1.06522 1.17167 1.15124C1.08204 1.25106 0.997768 1.35557 0.919202 1.46431C0.847644 1.58532 0.790052 1.71405 0.747527 1.84805C0.698727 1.98754 0.674808 2.13453 0.676845 2.2823C0.670526 2.3966 0.691284 2.51079 0.737434 2.61555C0.760224 2.65527 0.790727 2.69002 0.827147 2.71776C0.863567 2.74551 0.905176 2.76569 0.949512 2.77712C1.06581 2.80389 1.18666 2.80389 1.30295 2.77712C1.45443 2.77712 1.62611 2.77713 1.82809 2.70644C2.00873 2.67773 2.19276 2.67773 2.37341 2.70644C2.5026 2.71762 2.6256 2.76681 2.72686 2.84782C2.82665 2.93148 2.89736 3.04461 2.92883 3.17097C2.97624 3.34541 3.00003 3.52542 2.99953 3.70619C2.9973 3.96586 2.95993 4.22405 2.88845 4.4737C2.8172 4.72741 2.71547 4.97156 2.58548 5.2008C2.4572 5.43363 2.29749 5.6477 2.11085 5.837C1.93072 6.02548 1.72301 6.18552 1.49483 6.31164C1.31998 6.42775 1.11837 6.49729 0.909109 6.51362C0.743234 6.52635 0.577473 6.48755 0.434473 6.40254C0.302031 6.32474 0.196369 6.20851 0.131511 6.06928C0.051151 5.9204 0.00948605 5.75371 0.0103325 5.58454C-0.00344416 5.53498 -0.00344416 5.48262 0.0103325 5.43306C0.0259867 5.38902 0.0540451 5.35044 0.0911233 5.32198L0.323387 5.19069C0.33768 5.18428 0.353165 5.18098 0.368829 5.18098C0.384493 5.18098 0.399978 5.18428 0.414271 5.19069C0.414271 5.19069 0.464766 5.19069 0.495062 5.30178C0.516205 5.37466 0.55043 5.44311 0.596054 5.50376C0.641222 5.57281 0.703956 5.62857 0.777822 5.66533C0.870801 5.68725 0.967603 5.68725 1.06058 5.66533C1.2019 5.65314 1.33764 5.60442 1.45444 5.52395C1.59008 5.44531 1.71556 5.35035 1.82809 5.24119C1.94831 5.13084 2.05356 5.00523 2.14114 4.86754C2.22457 4.73084 2.29232 4.58517 2.34311 4.43329C2.39991 4.2922 2.4274 4.14103 2.4239 3.98897C2.43398 3.87377 2.40167 3.75885 2.33302 3.6658C2.30329 3.62576 2.26543 3.59246 2.22192 3.56809C2.1784 3.54373 2.13023 3.52884 2.08055 3.52442C1.94667 3.50406 1.81048 3.50406 1.6766 3.52442L1.12119 3.61531C0.967841 3.64578 0.80999 3.64578 0.656643 3.61531C0.532577 3.58997 0.419574 3.52641 0.333496 3.43354C0.246955 3.33236 0.187828 3.21065 0.161806 3.08008C0.139324 2.91252 0.139324 2.74271 0.161806 2.57515C0.159991 2.35043 0.187146 2.12641 0.242596 1.90864C0.347854 1.43193 0.573901 0.990304 0.899016 0.626125C1.05322 0.451066 1.2338 0.301146 1.43424 0.181783Z" fill="#455A64"/>
</svg>
