<svg width="2" height="6" viewBox="0 0 2 6" fill="none" xmlns="http://www.w3.org/2000/svg">
<path d="M1.59407 0C1.59407 0 1.68695 0 1.71017 0C1.72996 0.0196338 1.74536 0.0432206 1.75537 0.0692368C1.76538 0.0952529 1.76976 0.123079 1.76823 0.150911V0.464425C1.76704 0.541578 1.74712 0.61729 1.71017 0.685033C1.68806 0.746169 1.64748 0.798922 1.59407 0.835979L1.22252 1.04496C0.969276 1.21192 0.766991 1.4455 0.637934 1.72001C0.508877 1.99451 0.458054 2.29928 0.491045 2.60081V5.4803C0.506526 5.5491 0.506526 5.62048 0.491045 5.68928C0.471268 5.75167 0.430166 5.80511 0.374939 5.84023L0.131104 5.97955C0.11463 5.99275 0.0941598 5.99993 0.0730555 5.99993C0.0519512 5.99993 0.0314725 5.99275 0.0149979 5.97955C-0.00499931 5.93123 -0.00499931 5.87694 0.0149979 5.82861V1.18429C-0.00145143 1.11167 -0.00145143 1.0363 0.0149979 0.963681C0.0408036 0.904646 0.0806642 0.85282 0.131104 0.812735L0.374939 0.685033C0.374939 0.685033 0.456213 0.685033 0.491045 0.685033C0.510629 0.737447 0.510629 0.795151 0.491045 0.847566V1.14946C0.560678 0.93053 0.662407 0.723149 0.792919 0.534087C0.922836 0.372569 1.08002 0.235028 1.25735 0.127702L1.59407 0Z" fill="#455A64"/>
</svg>
