<svg width="3" height="5" viewBox="0 0 3 5" fill="none" xmlns="http://www.w3.org/2000/svg">
<path d="M1.83876 3.15857C1.86589 3.08307 1.86589 3.0005 1.83876 2.925C1.81589 2.89839 1.78794 2.87657 1.75656 2.86088C1.72517 2.84518 1.69097 2.83593 1.65595 2.8336H1.36144L0.934879 2.93514C0.829596 2.97915 0.71366 2.99107 0.601629 2.96939C0.489598 2.9477 0.386474 2.89338 0.305215 2.81327C0.170334 2.60928 0.106112 2.36668 0.122407 2.12267C0.121031 1.94416 0.144966 1.76637 0.193498 1.59458C0.236416 1.41144 0.301197 1.23411 0.386456 1.06645C0.479321 0.88929 0.595455 0.725363 0.731763 0.57898C0.870265 0.429555 1.03133 0.302734 1.20909 0.203183C1.35586 0.113914 1.51758 0.0519847 1.68643 0.0203834C1.79992 -0.00679448 1.91823 -0.00679448 2.03172 0.0203834C2.11844 0.0649855 2.19197 0.131514 2.245 0.213349C2.28857 0.298414 2.31284 0.39203 2.31609 0.487549C2.33629 0.550284 2.33629 0.617779 2.31609 0.680515C2.29624 0.7367 2.2565 0.783673 2.20437 0.812547L2.02157 0.914113C2.02157 0.914113 2.02157 0.914113 1.94032 0.914113C1.92315 0.915352 1.90602 0.91109 1.89142 0.901963C1.87681 0.892836 1.86549 0.879328 1.85908 0.863345C1.8349 0.828382 1.80318 0.799266 1.76627 0.778175C1.72936 0.757084 1.6882 0.744529 1.6458 0.741448C1.50308 0.742168 1.36432 0.788427 1.24972 0.87348C1.08129 0.965916 0.938264 1.09848 0.833321 1.25941C0.727071 1.40351 0.670094 1.57801 0.67083 1.75704C0.655506 1.83415 0.655506 1.91353 0.67083 1.99064C0.687638 2.01642 0.710083 2.03807 0.736474 2.0539C0.762865 2.06973 0.792505 2.07934 0.823163 2.08204C0.91066 2.09558 0.999723 2.09558 1.08722 2.08204L1.49346 1.99064C1.63761 1.96191 1.78602 1.96191 1.93017 1.99064C2.03412 2.00841 2.12995 2.05812 2.20437 2.13284C2.28063 2.21161 2.33339 2.31009 2.35671 2.41721C2.37419 2.54866 2.37419 2.68182 2.35671 2.81327C2.35316 2.9988 2.32585 3.18311 2.27547 3.3617C2.21693 3.5554 2.13866 3.74256 2.04188 3.92027C1.93844 4.09893 1.81584 4.26581 1.67627 4.41793C1.53361 4.57266 1.36943 4.70604 1.18878 4.814C1.0378 4.90209 0.87297 4.9639 0.701296 4.9968C0.577152 5.00779 0.452133 4.99043 0.335681 4.94603C0.237286 4.91165 0.154431 4.8432 0.102091 4.75306C0.050622 4.66636 0.0193822 4.56916 0.0106909 4.4687C-0.00356362 4.4086 -0.00356362 4.346 0.0106909 4.2859C0.0338775 4.2317 0.0727949 4.1857 0.122407 4.15387L0.325523 4.032H0.406773C0.423949 4.03076 0.441077 4.03499 0.45568 4.04412C0.470284 4.05325 0.481609 4.06679 0.488022 4.08277C0.514248 4.12515 0.549872 4.16092 0.592137 4.18734C0.634402 4.21376 0.682174 4.2301 0.731763 4.2351C0.880873 4.2352 1.02634 4.1891 1.14815 4.1031C1.23264 4.05113 1.311 3.98978 1.38174 3.92027C1.46328 3.84879 1.53499 3.76684 1.59502 3.67653C1.65769 3.59226 1.70892 3.50007 1.74736 3.40234C1.79421 3.32821 1.82532 3.24522 1.83876 3.15857Z" fill="#455A64"/>
</svg>
