<svg width="1" height="5" viewBox="0 0 1 5" fill="none" xmlns="http://www.w3.org/2000/svg">
<path d="M0.579149 0.0206009C0.595778 0.00728707 0.616448 0 0.63775 0C0.659052 0 0.679723 0.00728707 0.696352 0.0206009C0.707014 0.0445819 0.712518 0.070501 0.712518 0.0967454C0.712518 0.12299 0.707014 0.148945 0.696352 0.172926V0.840951C0.71088 0.914465 0.71088 0.990113 0.696352 1.06363C0.673311 1.12182 0.632233 1.1711 0.579149 1.20426L0.145529 1.46209C0.127066 1.47634 0.104388 1.48408 0.0810622 1.48408C0.0577362 1.48408 0.0350766 1.47634 0.016613 1.46209C0.00565399 1.43613 0 1.40822 0 1.38004C0 1.35186 0.00565399 1.324 0.016613 1.29803V0.641738C-0.000822504 0.568538 -0.000822504 0.492263 0.016613 0.419063C0.0433696 0.356521 0.0882788 0.303442 0.145529 0.266702L0.579149 0.0206009ZM0.579149 3.53648C0.579149 3.53648 0.661193 3.53648 0.696352 3.53648C0.716119 3.58939 0.716119 3.64763 0.696352 3.70054V4.36856C0.711978 4.43801 0.711978 4.51006 0.696352 4.57951C0.67337 4.64085 0.632546 4.69392 0.579149 4.73187L0.145529 4.97797C0.127066 4.99222 0.104388 4.99996 0.0810622 4.99996C0.0577362 4.99996 0.0350766 4.99222 0.016613 4.97797C-0.00315413 4.92506 -0.00315413 4.86682 0.016613 4.81391V4.14589C0.000163888 4.07653 0.000163888 4.0043 0.016613 3.93494C0.040431 3.87064 0.0860519 3.81672 0.145529 3.78258L0.579149 3.53648Z" fill="#455A64"/>
</svg>
