<svg width="67" height="77" viewBox="0 0 67 77" fill="none" xmlns="http://www.w3.org/2000/svg">
<g clip-path="url(#clip0_68_847)">
<g filter="url(#filter0_d_68_847)">
<path d="M33.3667 77.1448L22.5533 66.4224H6.5745C4.64429 66.4224 3.03299 65.7816 1.74059 64.5001C0.445389 63.2158 -0.20221 61.6167 -0.20221 59.7027V6.56922C-0.20221 4.65525 0.445389 3.0575 1.74059 1.77597C3.03299 0.491669 4.64429 -0.150482 6.5745 -0.150482H60.1588C62.089 -0.150482 63.7003 0.491669 64.9927 1.77597C66.2879 3.0575 66.9355 4.65525 66.9355 6.56922V59.7027C66.9355 61.6167 66.2893 63.2144 64.9969 64.4959C63.7017 65.7802 62.089 66.4224 60.1588 66.4224H44.18L33.3667 77.1448ZM6.5745 62.2616H24.2947L33.3667 71.2572L42.4386 62.2616H60.1588C60.9113 62.2616 61.5295 62.0216 62.0135 61.5418C62.4974 61.0619 62.7394 60.4489 62.7394 59.7027V6.56922C62.7394 5.82305 62.4974 5.21002 62.0135 4.73014C61.5295 4.25026 60.9113 4.01032 60.1588 4.01032H6.5745C5.822 4.01032 5.20378 4.25026 4.71982 4.73014C4.23587 5.21002 3.9939 5.82305 3.9939 6.56922V59.7027C3.9939 60.4489 4.23587 61.0619 4.71982 61.5418C5.20378 62.0216 5.822 62.2616 6.5745 62.2616ZM33.3667 51.8596C38.788 51.8596 43.2918 49.9789 46.8781 46.2175C50.4588 42.4562 52.2491 38.0956 52.2491 33.136V14.4123H33.3667C28.295 14.4123 23.8793 16.1876 20.1195 19.7382C16.3626 23.297 14.4842 27.763 14.4842 33.136C14.4842 35.0028 14.8213 36.8987 15.4954 38.8238C16.1724 40.7516 17.1431 42.6725 18.4075 44.5865L15.5164 47.3742C15.0548 47.8319 14.8241 48.3215 14.8241 48.843C14.8241 49.3645 15.0548 49.8555 15.5164 50.3159C15.9808 50.7736 16.4717 50.9858 16.9892 50.9525C17.5096 50.9165 18.0089 50.6779 18.4873 50.2369L21.3532 47.6572C23.0848 48.9969 25.015 50.033 27.1438 50.7653C29.2699 51.4948 31.3441 51.8596 33.3667 51.8596ZM33.3667 47.6988C31.7805 47.6988 30.1916 47.4131 28.5999 46.8416C27.0082 46.2702 25.6332 45.4838 24.4751 44.4825L37.1599 31.9044C37.6215 31.4439 37.8523 30.9363 37.8523 30.3815C37.8523 29.8267 37.6215 29.3177 37.1599 28.8545C36.6956 28.3968 36.2004 28.168 35.6745 28.168C35.1486 28.168 34.6535 28.3968 34.1891 28.8545L21.4245 41.5117C20.7532 40.3744 20.1279 39.0401 19.5489 37.509C18.9698 35.975 18.6803 34.5173 18.6803 33.136C18.6803 28.9419 20.1405 25.4662 23.061 22.709C25.9815 19.9518 29.4167 18.5731 33.3667 18.5731H48.053V33.136C48.053 37.1359 46.6138 40.563 43.7352 43.4173C40.8567 46.2716 37.4005 47.6988 33.3667 47.6988Z" fill="#071C54"/>
</g>
</g>
<defs>
<filter id="filter0_d_68_847" x="-26.318" y="-19.2621" width="119.369" height="129.527" filterUnits="userSpaceOnUse" color-interpolation-filters="sRGB">
<feFlood flood-opacity="0" result="BackgroundImageFix"/>
<feColorMatrix in="SourceAlpha" type="matrix" values="0 0 0 0 0 0 0 0 0 0 0 0 0 0 0 0 0 0 127 0" result="hardAlpha"/>
<feOffset dy="7"/>
<feGaussianBlur stdDeviation="13.05"/>
<feComposite in2="hardAlpha" operator="out"/>
<feColorMatrix type="matrix" values="0 0 0 0 0.432656 0 0 0 0 0.8875 0 0 0 0 0.505431 0 0 0 0.01 0"/>
<feBlend mode="normal" in2="BackgroundImageFix" result="effect1_dropShadow_68_847"/>
<feBlend mode="normal" in="SourceGraphic" in2="effect1_dropShadow_68_847" result="shape"/>
</filter>
<clipPath id="clip0_68_847">
<rect width="66.7333" height="76.9999" fill="white"/>
</clipPath>
</defs>
</svg>
