<svg width="119" height="119" viewBox="0 0 119 119" fill="none" xmlns="http://www.w3.org/2000/svg">
<mask id="mask0_68_762" style="mask-type:luminance" maskUnits="userSpaceOnUse" x="0" y="0" width="119" height="120">
<path d="M0 0H119V119H0V0Z" fill="white"/>
</mask>
<g mask="url(#mask0_68_762)">
<path d="M59.0736 0C28.8575 0 30.7417 13.1693 30.7417 13.1693L30.7764 26.8147H59.6041V30.9102H19.3375C19.3375 30.9102 0 28.7038 0 59.3463C0 89.9888 16.8732 88.898 16.8732 88.898H26.9386V74.6824C26.9386 74.6824 26.3982 57.7249 43.549 57.7249H72.1388C72.1388 57.7249 88.2038 57.9827 88.2038 42.1161V15.8766C88.2038 15.8766 90.6433 0 59.0736 0ZM43.1772 9.17292C46.0431 9.17292 48.3636 11.5033 48.3636 14.3891C48.3636 17.2699 46.0431 19.6003 43.1772 19.6003C40.3063 19.6003 37.9908 17.2699 37.9908 14.3891C37.9908 11.5033 40.3063 9.17292 43.1772 9.17292Z" fill="#071C54"/>
<path d="M59.9314 119C90.1375 119 88.2534 105.83 88.2534 105.83L88.2187 92.1852H59.3909V88.0896H99.6675C99.6675 88.0896 119.005 90.296 119.005 59.6535C119.005 29.011 102.127 30.1019 102.127 30.1019H92.0614V44.3174C92.0614 44.3174 92.6018 61.2749 75.451 61.2749H46.8662C46.8662 61.2749 30.8012 61.0171 30.8012 76.8837V103.123C30.8012 103.123 28.3617 119 59.9314 119ZM75.8278 109.827C72.9569 109.827 70.6414 107.496 70.6414 104.611C70.6414 101.73 72.9569 99.3995 75.8278 99.3995C78.6937 99.3995 81.0142 101.73 81.0142 104.611C81.0142 107.496 78.6937 109.827 75.8278 109.827Z" fill="#FAB91D"/>
</g>
</svg>
