<svg width="25" height="16" viewBox="0 0 25 16" fill="none" xmlns="http://www.w3.org/2000/svg">
<path fill-rule="evenodd" clip-rule="evenodd" d="M-3.49691e-07 8C-3.59994e-07 7.76429 0.0930361 7.53822 0.258642 7.37155C0.424248 7.20487 0.648858 7.11124 0.88306 7.11124L21.7109 7.11124L16.1529 1.51913C15.9871 1.35225 15.894 1.1259 15.894 0.889887C15.894 0.653874 15.9871 0.427528 16.1529 0.260641C16.3188 0.093755 16.5437 2.30528e-07 16.7781 2.20278e-07C17.0126 2.10028e-07 17.2375 0.093755 17.4034 0.260641L24.4678 7.37075C24.5501 7.45331 24.6153 7.55139 24.6598 7.65937C24.7044 7.76734 24.7273 7.8831 24.7273 8C24.7273 8.1169 24.7044 8.23266 24.6598 8.34063C24.6153 8.44861 24.5501 8.54669 24.4678 8.62924L17.4034 15.7394C17.2375 15.9062 17.0126 16 16.7782 16C16.5437 16 16.3188 15.9062 16.1529 15.7394C15.9871 15.5725 15.894 15.3461 15.894 15.1101C15.894 14.8741 15.9871 14.6478 16.1529 14.4809L21.7109 8.88876L0.88306 8.88876C0.648858 8.88876 0.424248 8.79513 0.258642 8.62845C0.0930361 8.46177 -3.39388e-07 8.23572 -3.49691e-07 8Z" fill="#D4D4D4"/>
</svg>
