<svg width="1" height="7" viewBox="0 0 1 7" fill="none" xmlns="http://www.w3.org/2000/svg">
<path d="M0.616398 0.723541C0.625905 0.794965 0.625905 0.867336 0.616398 0.93876C0.587239 0.997103 0.544509 1.04759 0.491798 1.086L0.140648 1.2899C0.122803 1.30368 0.100902 1.31114 0.0783568 1.31114C0.0558117 1.31114 0.0339022 1.30368 0.0160568 1.2899C0.00546469 1.26481 0 1.23784 0 1.2106C0 1.18337 0.00546469 1.15641 0.0160568 1.13132V0.587602C0.00107969 0.516645 0.00107969 0.443357 0.0160568 0.3724C0.0419694 0.314922 0.085636 0.267265 0.140648 0.236462L0.491798 0.021242C0.509643 0.00746443 0.531552 0 0.554098 0C0.576643 0 0.598552 0.00746443 0.616398 0.021242C0.632876 0.072818 0.632876 0.128246 0.616398 0.179822V0.723541ZM0.548428 6.48909C0.563405 6.56004 0.563405 6.63335 0.548428 6.70431C0.526158 6.76055 0.486464 6.80818 0.435158 6.84023L0.197288 6.97615C0.189905 6.98368 0.181095 6.98967 0.17137 6.99376C0.161645 6.99785 0.151197 6.99995 0.140648 6.99995C0.130099 6.99995 0.11966 6.99785 0.109935 6.99376C0.10021 6.98967 0.0913999 6.98368 0.0840173 6.97615C0.0737125 6.95297 0.068384 6.9279 0.068384 6.90254C0.068384 6.87717 0.0737125 6.85208 0.0840173 6.82891V2.35466C0.0699755 2.28361 0.0699755 2.21049 0.0840173 2.13944C0.109193 2.08185 0.14808 2.03129 0.197288 1.99218L0.435158 1.86758C0.45123 1.85471 0.471209 1.84771 0.491798 1.84771C0.512386 1.84771 0.532356 1.85471 0.548428 1.86758C0.567534 1.91872 0.567534 1.97503 0.548428 2.02616V6.48909Z" fill="#455A64"/>
</svg>
