<svg width="46" height="66" viewBox="0 0 46 66" fill="none" xmlns="http://www.w3.org/2000/svg">
<path fill-rule="evenodd" clip-rule="evenodd" d="M2.67892 47.6423C2.38655 47.6423 2.09506 47.6482 1.80314 47.6631C1.58049 47.6747 1.24046 47.629 1.05224 47.7665C0.856516 47.9092 0.869974 48.2011 0.900645 48.4074C1.06217 49.4984 1.45648 50.4657 2.28151 51.2387C3.55183 52.4286 5.00795 53.0333 6.73106 53.3026C7.94158 53.4918 9.05898 53.2292 9.94999 52.3766C10.6011 53.5734 11.095 54.8977 11.3428 56.2343C11.465 56.8939 11.5023 57.5456 11.4809 58.2172C11.467 58.6473 11.4432 59.0765 11.3966 59.5046C11.3763 59.6906 11.2806 59.9721 11.354 60.148C11.4403 60.3543 11.7314 60.3744 11.862 60.1983C11.9708 60.0518 11.9509 59.764 11.9732 59.5907C12.0103 59.3027 12.0445 59.0144 12.069 58.7251C12.1089 58.2567 12.1382 57.7871 12.1363 57.3168C12.1312 56.2606 11.894 55.2002 11.5696 54.1975C10.9474 52.2737 9.93786 50.564 8.36767 49.2226C7.40207 48.3978 6.29703 48.0639 5.04348 47.8845C4.26279 47.7728 3.46953 47.6423 2.67892 47.6423Z" fill="#89C5CC"/>
<path fill-rule="evenodd" clip-rule="evenodd" d="M7.18703 55.2913C4.03187 55.2913 1.90694 57.8098 0.902294 60.4275C0.523427 61.414 0.434728 62.4975 0.288653 63.5334C0.241874 63.866 0.259305 64.3726 0.122939 64.6687C0.0735117 64.7763 -0.0399067 64.8147 0.0143748 64.9611C0.0472526 65.0497 0.111463 65.1041 0.208331 65.1215C0.406702 65.1578 0.687374 64.9437 0.8575 64.8593C2.26882 64.1582 3.19602 63.0742 3.95243 61.7481C4.42154 60.9262 4.89728 60.0728 5.17575 59.1704C5.34588 58.619 5.44495 58.0386 5.50321 57.4667C5.52616 57.2413 5.54822 57.0108 5.5469 56.7844C5.54557 56.5595 5.43988 56.4406 5.36398 56.245C6.41673 55.8503 7.60518 55.7428 8.67162 56.1517C9.65795 56.53 10.4772 57.261 10.936 58.1795C11.0551 58.4182 11.1472 58.6699 11.214 58.9269C11.2579 59.0952 11.2599 59.3133 11.3413 59.4654C11.5382 59.8343 11.9526 59.5878 11.9128 59.2445C11.8018 58.2871 11.2489 57.3257 10.5419 56.66C9.65023 55.8204 8.44191 55.2913 7.18703 55.2913Z" fill="#89C5CC"/>
<path d="M43.9105 0H12.3566C11.3817 0 10.5914 0.78276 10.5914 1.74834V64.2516C10.5914 65.2172 11.3817 65.9999 12.3566 65.9999H43.9105C44.8854 65.9999 45.6758 65.2172 45.6758 64.2516V1.74834C45.6758 0.78276 44.8854 0 43.9105 0Z" fill="#DDE3E9"/>
<path fill-rule="evenodd" clip-rule="evenodd" d="M28.0232 61.8476C29.8512 61.8476 31.3331 60.3798 31.3331 58.5694C31.3331 56.759 29.8512 55.2913 28.0232 55.2913C26.1953 55.2913 24.7134 56.759 24.7134 58.5694C24.7134 60.3798 26.1953 61.8476 28.0232 61.8476Z" fill="white"/>
<path fill-rule="evenodd" clip-rule="evenodd" d="M25.1547 4.37092C25.3985 4.37092 25.596 4.17532 25.596 3.93383C25.596 3.69234 25.3985 3.49675 25.1547 3.49675C24.9109 3.49675 24.7134 3.69234 24.7134 3.93383C24.7134 4.17532 24.9109 4.37092 25.1547 4.37092Z" fill="white"/>
<path d="M30.8919 3.49675H27.1407C26.897 3.49675 26.6994 3.69244 26.6994 3.93383C26.6994 4.17523 26.897 4.37092 27.1407 4.37092H30.8919C31.1356 4.37092 31.3332 4.17523 31.3332 3.93383C31.3332 3.69244 31.1356 3.49675 30.8919 3.49675Z" fill="white"/>
<path d="M41.704 6.11918H14.5632C14.0758 6.11918 13.6806 6.51056 13.6806 6.99336V17.0463C13.6806 17.5291 14.0758 17.9205 14.5632 17.9205H41.704C42.1915 17.9205 42.5866 17.5291 42.5866 17.0463V6.99336C42.5866 6.51056 42.1915 6.11918 41.704 6.11918Z" fill="white"/>
<mask id="mask0_81_1344" style="mask-type:luminance" maskUnits="userSpaceOnUse" x="15" y="9" width="17" height="6">
<path d="M31.7746 9.65963H15.6666V14.3802H31.7746V9.65963Z" fill="white"/>
</mask>
<g mask="url(#mask0_81_1344)">
<path d="M31.1126 9.65963H16.3286C15.963 9.65963 15.6666 9.95316 15.6666 10.3153V10.7742C15.6666 11.1363 15.963 11.4298 16.3286 11.4298H31.1126C31.4782 11.4298 31.7746 11.1363 31.7746 10.7742V10.3153C31.7746 9.95316 31.4782 9.65963 31.1126 9.65963Z" fill="#DDE3E9"/>
<path d="M25.8168 12.6099H16.3286C15.963 12.6099 15.6666 12.9035 15.6666 13.2655V13.7245C15.6666 14.0866 15.963 14.3801 16.3286 14.3801H25.8168C26.1824 14.3801 26.4788 14.0866 26.4788 13.7245V13.2655C26.4788 12.9035 26.1824 12.6099 25.8168 12.6099Z" fill="#DDE3E9"/>
</g>
<path fill-rule="evenodd" clip-rule="evenodd" d="M39.4972 13.5496C40.3503 13.5496 41.0418 12.8647 41.0418 12.0198C41.0418 11.1749 40.3503 10.49 39.4972 10.49C38.6442 10.49 37.9526 11.1749 37.9526 12.0198C37.9526 12.8647 38.6442 13.5496 39.4972 13.5496Z" fill="#DDE3E9"/>
<path fill-rule="evenodd" clip-rule="evenodd" d="M39.4978 12.6763C39.8637 12.6763 40.1602 12.3826 40.1602 12.0202C40.1602 11.6579 39.8637 11.3642 39.4978 11.3642C39.1319 11.3642 38.8354 11.6579 38.8354 12.0202C38.8354 12.3826 39.1319 12.6763 39.4978 12.6763Z" fill="#F2F2F2"/>
<path d="M41.704 19.6688H14.5632C14.0758 19.6688 13.6806 20.0602 13.6806 20.543V27.9735C13.6806 28.4563 14.0758 28.8476 14.5632 28.8476H41.704C42.1915 28.8476 42.5866 28.4563 42.5866 27.9735V20.543C42.5866 20.0602 42.1915 19.6688 41.704 19.6688Z" fill="white"/>
<mask id="mask1_81_1344" style="mask-type:luminance" maskUnits="userSpaceOnUse" x="22" y="22" width="17" height="5">
<path d="M38.3939 22.4225H22.286V26.094H38.3939V22.4225Z" fill="white"/>
</mask>
<g mask="url(#mask1_81_1344)">
<path d="M37.732 22.4225H22.948C22.5824 22.4225 22.286 22.716 22.286 23.0781V23.1437C22.286 23.5058 22.5824 23.7993 22.948 23.7993H37.732C38.0975 23.7993 38.3939 23.5058 38.3939 23.1437V23.0781C38.3939 22.716 38.0975 22.4225 37.732 22.4225Z" fill="#DDE3E9"/>
<path d="M32.4362 24.7172H22.948C22.5824 24.7172 22.286 25.0107 22.286 25.3728V25.4384C22.286 25.8005 22.5824 26.094 22.948 26.094H32.4362C32.8018 26.094 33.0982 25.8005 33.0982 25.4384V25.3728C33.0982 25.0107 32.8018 24.7172 32.4362 24.7172Z" fill="#DDE3E9"/>
</g>
<path fill-rule="evenodd" clip-rule="evenodd" d="M18.3145 26.8807C19.7768 26.8807 20.9624 25.7065 20.9624 24.2582C20.9624 22.8099 19.7768 21.6357 18.3145 21.6357C16.8522 21.6357 15.6666 22.8099 15.6666 24.2582C15.6666 25.7065 16.8522 26.8807 18.3145 26.8807Z" fill="#C5CFD6"/>
<path d="M41.704 30.5959H14.5632C14.0758 30.5959 13.6806 30.9873 13.6806 31.4701V38.9006C13.6806 39.3833 14.0758 39.7747 14.5632 39.7747H41.704C42.1915 39.7747 42.5866 39.3833 42.5866 38.9006V31.4701C42.5866 30.9873 42.1915 30.5959 41.704 30.5959Z" fill="white"/>
<mask id="mask2_81_1344" style="mask-type:luminance" maskUnits="userSpaceOnUse" x="15" y="33" width="17" height="5">
<path d="M31.7746 33.3496H15.6666V37.0211H31.7746V33.3496Z" fill="white"/>
</mask>
<g mask="url(#mask2_81_1344)">
<path d="M31.1126 33.3496H16.3286C15.963 33.3496 15.6666 33.6431 15.6666 34.0052V34.0708C15.6666 34.4329 15.963 34.7264 16.3286 34.7264H31.1126C31.4782 34.7264 31.7746 34.4329 31.7746 34.0708V34.0052C31.7746 33.6431 31.4782 33.3496 31.1126 33.3496Z" fill="#DDE3E9"/>
<path d="M25.8168 35.6443H16.3286C15.963 35.6443 15.6666 35.9378 15.6666 36.2999V36.3655C15.6666 36.7276 15.963 37.0211 16.3286 37.0211H25.8168C26.1824 37.0211 26.4788 36.7276 26.4788 36.3655V36.2999C26.4788 35.9378 26.1824 35.6443 25.8168 35.6443Z" fill="#AFB9C5"/>
</g>
<path fill-rule="evenodd" clip-rule="evenodd" d="M39.4972 36.7152C40.3503 36.7152 41.0418 36.0303 41.0418 35.1854C41.0418 34.3405 40.3503 33.6556 39.4972 33.6556C38.6442 33.6556 37.9526 34.3405 37.9526 35.1854C37.9526 36.0303 38.6442 36.7152 39.4972 36.7152Z" fill="#DDE3E9"/>
<path fill-rule="evenodd" clip-rule="evenodd" d="M39.4978 35.8419C39.8637 35.8419 40.1602 35.5482 40.1602 35.1858C40.1602 34.8235 39.8637 34.5298 39.4978 34.5298C39.1319 34.5298 38.8354 34.8235 38.8354 35.1858C38.8354 35.5482 39.1319 35.8419 39.4978 35.8419Z" fill="#F2F2F2"/>
<path d="M41.704 41.5231H14.5632C14.0758 41.5231 13.6806 41.9145 13.6806 42.3973V49.8278C13.6806 50.3106 14.0758 50.7019 14.5632 50.7019H41.704C42.1915 50.7019 42.5866 50.3106 42.5866 49.8278V42.3973C42.5866 41.9145 42.1915 41.5231 41.704 41.5231Z" fill="white"/>
<mask id="mask3_81_1344" style="mask-type:luminance" maskUnits="userSpaceOnUse" x="22" y="44" width="17" height="4">
<path d="M38.3939 44.2768H22.286V47.9483H38.3939V44.2768Z" fill="white"/>
</mask>
<g mask="url(#mask3_81_1344)">
<path d="M37.732 44.2768H22.948C22.5824 44.2768 22.286 44.5703 22.286 44.9324V44.998C22.286 45.3601 22.5824 45.6536 22.948 45.6536H37.732C38.0975 45.6536 38.3939 45.3601 38.3939 44.998V44.9324C38.3939 44.5703 38.0975 44.2768 37.732 44.2768Z" fill="#DDE3E9"/>
<path d="M32.4362 46.5715H22.948C22.5824 46.5715 22.286 46.865 22.286 47.2271V47.2927C22.286 47.6548 22.5824 47.9483 22.948 47.9483H32.4362C32.8018 47.9483 33.0982 47.6548 33.0982 47.2927V47.2271C33.0982 46.865 32.8018 46.5715 32.4362 46.5715Z" fill="#DDE3E9"/>
</g>
<path fill-rule="evenodd" clip-rule="evenodd" d="M18.3145 48.735C19.7768 48.735 20.9624 47.5608 20.9624 46.1125C20.9624 44.6642 19.7768 43.49 18.3145 43.49C16.8522 43.49 15.6666 44.6642 15.6666 46.1125C15.6666 47.5608 16.8522 48.735 18.3145 48.735Z" fill="#C5CFD6"/>
</svg>
