<svg width="3" height="7" viewBox="0 0 3 7" fill="none" xmlns="http://www.w3.org/2000/svg">
<path d="M2.99977 1.58005V2.93683C2.99816 3.27788 2.95738 3.61761 2.87826 3.94936C2.80101 4.26646 2.69248 4.57511 2.55426 4.87076C2.42108 5.13729 2.25434 5.38568 2.05811 5.6099C1.87809 5.81757 1.6662 5.9953 1.43035 6.13641L0.124187 6.88569C0.108235 6.898 0.0886581 6.90468 0.0685054 6.90468C0.0483526 6.90468 0.0287603 6.898 0.0128085 6.88569C-0.0042695 6.83998 -0.0042695 6.78964 0.0128085 6.74394V1.26617C-0.00140287 1.20625 -0.00140287 1.14385 0.0128085 1.08393C0.0359251 1.02989 0.0747248 0.984034 0.124187 0.952293L1.39998 0.213154C1.59345 0.094219 1.81172 0.0214535 2.03786 0.000516983C2.22204 -0.00632569 2.40228 0.0549546 2.54412 0.172644C2.70281 0.321399 2.81827 0.510344 2.87826 0.719416C2.95796 0.999383 2.99886 1.28896 2.99977 1.58005ZM2.47325 1.92431C2.46722 1.73686 2.44348 1.55041 2.40237 1.36743C2.3772 1.21908 2.31447 1.07963 2.22012 0.962412C2.17813 0.914393 2.1269 0.875311 2.0695 0.847481C2.0121 0.81965 1.94969 0.803635 1.88599 0.800405C1.70458 0.800988 1.52777 0.85757 1.37972 0.962412L0.498832 1.46867V5.92379L1.39998 5.4074C1.59434 5.29927 1.76619 5.15492 1.90624 4.98214C2.04447 4.81772 2.15712 4.6334 2.24038 4.43538C2.3187 4.23941 2.37639 4.03579 2.4125 3.82786C2.4125 3.61523 2.4125 3.4026 2.47325 3.2001V1.92431Z" fill="#455A64"/>
</svg>
