<svg width="3" height="3" viewBox="0 0 3 3" fill="none" xmlns="http://www.w3.org/2000/svg">
<path d="M0.0464596 2.32914C-0.0413396 1.92575 -0.00411253 1.50519 0.153178 1.1235C0.310468 0.741808 0.58035 0.417111 0.926857 0.192698C1.14883 0.0469146 1.41367 -0.0193004 1.67813 0.0048759C1.90905 0.0153885 2.13368 0.0835317 2.33153 0.203087C2.52938 0.322643 2.69415 0.489807 2.81085 0.689355C2.92754 0.888903 2.99245 1.11448 2.99964 1.34553C3.00683 1.57659 2.95608 1.80579 2.85201 2.01221C2.72715 2.24603 2.54031 2.44095 2.31201 2.57564C1.9649 2.8052 1.54847 2.90624 1.13476 2.86122C0.721045 2.81621 0.336075 2.62798 0.0464596 2.32914Z" fill="#263238"/>
</svg>
