<svg width="2" height="6" viewBox="0 0 2 6" fill="none" xmlns="http://www.w3.org/2000/svg">
<path d="M1.6054 0.0203747C1.62187 0.00718416 1.64235 0 1.66346 0C1.68456 0 1.70504 0.00718416 1.72152 0.0203747C1.7411 0.0727901 1.7411 0.130514 1.72152 0.182929V0.496415C1.73687 0.569151 1.73687 0.644293 1.72152 0.717028C1.69869 0.774682 1.65799 0.823523 1.6054 0.856373L1.23384 1.07697C0.976525 1.24052 0.770405 1.47315 0.639003 1.74827C0.507601 2.02339 0.456216 2.32993 0.490729 2.63287V5.5008C0.507178 5.57342 0.507178 5.64878 0.490729 5.7214C0.464859 5.78375 0.420219 5.83651 0.363006 5.87235L0.130788 6.00007C0.130788 6.00007 0.0495213 6.00007 0.0146881 6.00007C-0.00489603 5.94766 -0.00489603 5.88993 0.0146881 5.83752V1.19309C0.000294389 1.12025 0.000294389 1.04531 0.0146881 0.972474C0.0375161 0.91482 0.078196 0.865997 0.130788 0.833146L0.363006 0.693819C0.363006 0.693819 0.455895 0.693819 0.490729 0.693819C0.510726 0.742147 0.510726 0.796423 0.490729 0.844751V1.15825C0.561726 0.937714 0.66757 0.729959 0.804233 0.542869C0.924865 0.372705 1.08401 0.233451 1.26869 0.136475L1.6054 0.0203747Z" fill="#455A64"/>
</svg>
