<svg width="3" height="7" viewBox="0 0 3 7" fill="none" xmlns="http://www.w3.org/2000/svg">
<path d="M1.43355 0.191876C1.61172 0.0764088 1.8173 0.0102026 2.02936 0C2.18921 0.00539847 2.34385 0.0581116 2.47371 0.151473C2.59311 0.240052 2.68714 0.358455 2.74637 0.494822C2.80362 0.629526 2.83775 0.772928 2.84735 0.918978C2.86113 0.968531 2.86113 1.0209 2.84735 1.07045C2.8317 1.1145 2.80365 1.15309 2.76657 1.18155L2.53429 1.31281C2.5183 1.31947 2.50113 1.32292 2.4838 1.32292C2.46647 1.32292 2.44932 1.31947 2.43332 1.31281C2.43332 1.31281 2.43331 1.31282 2.36262 1.20174C2.33574 1.14603 2.30539 1.09206 2.27174 1.04016C2.2301 0.971822 2.17079 0.915994 2.10006 0.878575C2.01914 0.836316 1.92874 0.81546 1.83749 0.817986C1.70746 0.824136 1.58165 0.866067 1.47394 0.939164C1.36596 1.00319 1.26451 1.0776 1.17099 1.16134C1.07896 1.25908 0.994553 1.36374 0.918525 1.47439C0.845133 1.59444 0.787439 1.72341 0.74685 1.85814C0.69805 1.99764 0.674116 2.14461 0.676152 2.29238C0.670933 2.40661 0.691646 2.52056 0.736742 2.62565C0.785158 2.70375 0.860665 2.76128 0.948819 2.78723C1.06572 2.80801 1.18536 2.80801 1.30226 2.78723L1.83749 2.70642C2.01511 2.68268 2.19509 2.68268 2.37271 2.70642C2.50299 2.71288 2.62738 2.76265 2.72617 2.84782C2.8295 2.92835 2.90103 3.04278 2.92814 3.17095C2.98118 3.34421 3.00508 3.52511 2.99884 3.70621C2.9966 3.96588 2.95924 4.22403 2.88775 4.47368C2.81651 4.7274 2.71478 4.97154 2.58479 5.20078C2.45627 5.43041 2.29653 5.64112 2.11015 5.82689C1.93186 6.01603 1.72791 6.17921 1.50425 6.31164C1.32304 6.42223 1.11952 6.49123 0.908416 6.51362C0.745643 6.52767 0.5827 6.48868 0.443889 6.40252C0.310328 6.32302 0.201842 6.20754 0.130834 6.06928C0.0504738 5.9204 0.00879348 5.75371 0.00963991 5.58454C-0.0032133 5.53144 -0.0032133 5.47605 0.00963991 5.42295C0.0253985 5.3817 0.0536436 5.34639 0.0904307 5.32196L0.322695 5.19067C0.336988 5.18427 0.352488 5.18097 0.368152 5.18097C0.383816 5.18097 0.399301 5.18427 0.413594 5.19067C0.413594 5.19067 0.474187 5.19069 0.494385 5.30178C0.515528 5.37466 0.549737 5.44311 0.595362 5.50376C0.642139 5.57286 0.70917 5.62577 0.787238 5.65523C0.874426 5.69965 0.972825 5.71721 1.07 5.70571C1.21024 5.68881 1.34486 5.64049 1.46384 5.56435C1.59799 5.48806 1.72043 5.39282 1.82739 5.28159C1.94532 5.16907 2.05032 5.04372 2.14045 4.90791C2.22916 4.77268 2.30042 4.62679 2.35253 4.47368C2.40129 4.33069 2.42519 4.1804 2.42321 4.02934C2.43598 3.91223 2.4074 3.79436 2.34242 3.6961C2.27279 3.62318 2.17997 3.57677 2.07986 3.56481C1.94696 3.53416 1.80883 3.53416 1.67592 3.56481L1.13059 3.6557C0.973846 3.6862 0.812692 3.6862 0.655951 3.6557C0.532791 3.62796 0.420457 3.56478 0.332803 3.47393C0.249921 3.3704 0.191264 3.24962 0.161128 3.12047C0.126749 2.95438 0.109823 2.78515 0.110632 2.61554C0.113824 2.39113 0.140908 2.1677 0.191423 1.94903C0.25156 1.71524 0.336183 1.48847 0.443889 1.27244C0.549966 1.05281 0.685895 0.848901 0.847827 0.666513C1.01432 0.4758 1.21247 0.315233 1.43355 0.191876Z" fill="white"/>
</svg>
