<svg width="74" height="145" viewBox="0 0 74 145" fill="none" xmlns="http://www.w3.org/2000/svg">
<path d="M57.8969 136.814C57.8969 136.814 57.0537 141.221 52.9609 141.467C48.8681 141.713 49.7558 145 49.7558 145H65.3954V137.122L57.8969 136.814Z" fill="black"/>
<path d="M62.7209 56.4184C62.7209 56.4184 62.6718 55.0936 62.6821 58.0989C62.7209 69.3089 63.2874 82.1133 63.7588 89.6062C64.5163 101.651 66.0852 139.627 66.0852 139.627L55.0613 139.54L45.8481 55.9631L62.7209 56.4184Z" fill="#071C54"/>
<path d="M50.8959 69.7849C50.8959 69.7849 50.4701 77.9199 50.3916 79.8298C50.209 84.2466 50.0454 88.8484 50.0454 94.0331L48.5255 80.4122C48.5255 80.4122 49.7105 76.1524 50.8959 69.7849Z" fill="#0A0A0A"/>
<path d="M37.7338 136.814C37.7338 136.814 36.8905 141.221 32.7979 141.467C28.7053 141.713 29.5928 145 29.5928 145H45.2324V137.122L37.7338 136.814Z" fill="black"/>
<path d="M34.6246 57.2889C34.6246 57.2889 33.5275 95.9786 33.661 97.8512L35.2416 139.336L46.4695 139.524L47.3522 95.9614C47.3522 95.9614 47.4866 83.9442 50.3664 72.7852C51.8397 67.0581 52.7264 61.1937 53.0125 55.2842L34.6246 57.2889Z" fill="#071C54"/>
<path d="M62.8325 56.418L62.8662 56.4199C62.8662 56.4199 62.8418 55.7646 62.8325 56.418Z" fill="#333333"/>
<path d="M41.4955 23.4597C41.5289 23.4553 41.8986 29.6408 49.0254 29.1015C53.9592 28.7288 55.7193 23.4508 55.8313 23.4508C55.2994 23.3378 54.4037 23.1712 54.1674 23.044C53.3905 22.6232 52.2839 22.1852 52.0334 20.664C51.8893 19.7872 52.1341 15.3018 52.0587 14.4147L44.6306 16.1191C44.7365 17.9926 45.477 22.3358 42.8811 23.1054C42.4493 23.2316 41.9839 23.3487 41.4955 23.4597Z" fill="#E98862"/>
<path d="M44.8394 19.0411C47.8303 19.2738 51.6698 17.9942 52.3926 13.97L53.045 10.339C53.7678 6.315 52.2576 2.67004 48.4998 1.98384C44.7419 1.29744 41.3467 4.04679 40.6243 8.07081L40.3355 9.67823C40.2458 10.2319 40.1937 10.7911 40.1796 11.3519C40.1312 12.834 40.0634 15.088 40.7907 16.7437C41.4772 18.3068 42.9286 18.8925 44.8394 19.0411Z" fill="#E98862"/>
<path d="M51.547 1.77763C50.3597 1.40424 49.1281 1.19296 47.8852 1.14942C47.8444 0.930521 47.7518 0.724793 47.6152 0.549721C47.4786 0.374649 47.3022 0.235411 47.1008 0.14384C46.4437 -0.114899 45.641 0.301832 45.1071 1.10517C44.8284 0.624796 44.3926 0.257209 43.8744 0.0655026C42.4032 -0.396236 42.3302 1.7345 42.3302 1.7345C42.3302 1.7345 39.9977 -0.586243 39.9248 2.37363C39.8367 5.95493 40.4893 7.00609 40.9653 7.26973C41.9059 7.79342 42.6061 7.70472 42.9783 8.47492C44.1054 10.8077 43.0007 17.3786 44.3043 18.2014C46.3027 19.4617 50.3944 19.5052 51.7235 19.4096C52.2346 19.3719 52.7133 18.7752 52.9283 18.3065C53.6234 16.7926 55.1738 13.3608 55.6052 11.9415C56.4031 9.32345 56.3431 3.35662 51.547 1.77763Z" fill="black"/>
<path d="M43.413 15.8548C44.5668 15.7286 45.3682 14.3816 45.2433 13.2184C45.1183 12.0552 44.1137 11.5159 42.9599 11.6423L42.4492 12.4868L42.4214 15.9636L43.413 15.8548Z" fill="#E98862"/>
<path d="M33.1778 36.022C33.3898 38.5326 34.4208 54.1958 34.6245 57.2882H62.7092C62.8677 54.4991 63.5801 42.3032 64.1818 36.8491C64.7561 31.6446 65.8827 29.0389 65.0568 27.5002C63.7073 24.9855 60.0195 23.5325 57.5049 23.1892C55.9693 22.9796 53.6598 22.8293 53.6598 22.8293H42.846C41.8188 22.8293 35.8301 23.3167 34.5065 24.3445C32.1919 26.1427 32.7283 30.7022 33.1778 36.022Z" fill="#FAB91D"/>
<path d="M32.7905 32.8772C32.7666 32.8773 32.7436 32.8681 32.7262 32.8515C32.7088 32.835 32.6984 32.8124 32.6971 32.7883L32.4705 28.8018C32.4691 28.7769 32.4775 28.7524 32.494 28.7338C32.5105 28.7151 32.5336 28.7038 32.5583 28.7024C32.5829 28.7012 32.6071 28.7098 32.6255 28.7264C32.6439 28.7429 32.6552 28.7661 32.6569 28.7909L32.8835 32.7776C32.8842 32.79 32.8825 32.8023 32.8784 32.814C32.8744 32.8257 32.8681 32.8365 32.8599 32.8457C32.8518 32.8549 32.8419 32.8625 32.8308 32.8678C32.8197 32.8732 32.8077 32.8763 32.7955 32.877L32.7905 32.8772Z" fill="black"/>
<path d="M68.7808 57.1247C69.6068 57.1246 70.4206 56.9232 71.1528 56.5378C71.885 56.1524 72.5141 55.5943 72.9864 54.9111C73.4588 54.2278 73.7604 53.4396 73.8657 52.6136C73.9709 51.7875 73.8767 50.948 73.591 50.1666C73.3009 49.3732 66.4989 31.2119 65.204 27.8468L55.6156 31.7637C56.344 33.6557 58.9817 40.8273 61.1009 46.6047L57.58 46.2188L56.4717 56.4978L68.2261 57.0942C68.4103 57.1144 68.5955 57.1246 68.7808 57.1247Z" fill="#FAB91D"/>
<path d="M63.3087 36.9554L62.6186 57.2863L62.8053 57.2928L63.4953 36.9618L63.3087 36.9554Z" fill="black"/>
<path d="M12.6528 15.2701L4.15026 19.0514C3.96611 19.1332 3.75727 19.138 3.56965 19.0646C3.38204 18.9912 3.231 18.8457 3.14975 18.6601L0.00048938 11.4607L1.2296 8.43722L8.29031 5.29713C8.38148 5.25659 8.47967 5.23455 8.57928 5.23228C8.67889 5.23001 8.77797 5.24754 8.87086 5.28388C8.96375 5.32021 9.04864 5.37464 9.12066 5.44406C9.19269 5.51348 9.25044 5.59652 9.29064 5.68844L13.0409 14.2615C13.1221 14.4471 13.1268 14.6577 13.054 14.8468C12.9812 15.036 12.8369 15.1882 12.6528 15.2701Z" fill="#071C54"/>
<path opacity="0.29" d="M1.2296 8.43765L0.00048938 11.4612L2.16493 10.542L1.2296 8.43765Z" fill="#FFFFFA"/>
<g opacity="0.88">
<path d="M9.53573 9.2364C9.52843 9.2416 9.5206 9.24602 9.51239 9.24958L1.86878 12.6136C1.83719 12.6246 1.80263 12.6232 1.772 12.6097C1.74136 12.5962 1.7169 12.5716 1.70347 12.5407C1.69004 12.5099 1.68864 12.475 1.69955 12.4431C1.71046 12.4113 1.73287 12.3847 1.76232 12.3688L9.40612 9.00478C9.43626 8.99176 9.47012 8.99043 9.50118 9.00105C9.53224 9.01167 9.55831 9.03348 9.57438 9.0623C9.59046 9.09112 9.59541 9.12492 9.58827 9.15719C9.58114 9.18947 9.56243 9.21795 9.53573 9.23716V9.2364Z" fill="white"/>
<path d="M10.1819 10.6941C10.1746 10.6993 10.1669 10.7038 10.1587 10.7073L2.51491 14.0713C2.48319 14.0829 2.44828 14.0819 2.41727 14.0685C2.38625 14.0551 2.36146 14.0303 2.34793 13.9992C2.3344 13.968 2.33315 13.9328 2.34442 13.9007C2.3557 13.8687 2.37866 13.8421 2.40864 13.8265L10.0523 10.4625C10.0825 10.449 10.1166 10.4473 10.148 10.4577C10.1794 10.4682 10.2058 10.4902 10.222 10.5192C10.2382 10.5483 10.2431 10.5824 10.2356 10.6149C10.2282 10.6474 10.209 10.6759 10.1819 10.6949V10.6941Z" fill="white"/>
<path d="M10.9018 12.2965C10.8945 12.3017 10.8867 12.3061 10.8786 12.3097L3.23479 15.6737C3.20307 15.6853 3.16816 15.6843 3.13715 15.6709C3.10613 15.6575 3.08134 15.6327 3.06781 15.6015C3.05428 15.5703 3.05302 15.5351 3.0643 15.5031C3.07558 15.471 3.09854 15.4445 3.12852 15.4289L10.7721 12.0649C10.8023 12.0513 10.8365 12.0496 10.8679 12.0601C10.8993 12.0706 10.9256 12.0925 10.9419 12.1216C10.9581 12.1506 10.9629 12.1847 10.9555 12.2172C10.9481 12.2497 10.9289 12.2783 10.9018 12.2972V12.2965Z" fill="white"/>
<path d="M7.30755 15.5981C7.3002 15.6032 7.29238 15.6076 7.28421 15.6113L3.89383 17.1033C3.86224 17.1143 3.82768 17.1129 3.79705 17.0994C3.76641 17.0859 3.74195 17.0613 3.72852 17.0304C3.7151 16.9995 3.7137 16.9647 3.72461 16.9328C3.73551 16.901 3.75792 16.8744 3.78738 16.8585L7.17794 15.3665C7.20808 15.3535 7.24194 15.3521 7.273 15.3627C7.30405 15.3734 7.33013 15.3952 7.3462 15.424C7.36228 15.4528 7.36723 15.4866 7.36009 15.5189C7.35296 15.5512 7.33425 15.5796 7.30755 15.5989V15.5981Z" fill="white"/>
</g>
<path d="M5.62525 14.613C5.58647 14.5093 5.52712 14.4146 5.45084 14.3347C5.37456 14.2548 5.28295 14.1915 5.18158 14.1485C5.08021 14.1055 4.97122 14.0838 4.86125 14.0847C4.75129 14.0856 4.64266 14.1091 4.542 14.1537C4.35029 14.2469 4.2008 14.41 4.12371 14.6101C4.04661 14.8101 4.04765 15.0322 4.12663 15.2314L4.39576 16.3557C4.45272 16.5934 4.42139 16.844 4.30767 17.0601C4.19396 17.2762 4.00572 17.4429 3.7785 17.5286C3.55578 17.6128 3.3105 17.6135 3.08728 17.5308C2.86405 17.448 2.6777 17.2872 2.56209 17.0776C2.56209 17.0776 0.885107 13.5059 0.853356 13.3606C0.578249 13.6312 0.0984452 14.2968 1.92017e-05 14.7987C-0.00352936 14.8013 0.485617 18.8097 0.759044 19.0922L3.59621 23.5043C4.75603 24.7025 8.64918 22.7089 8.64918 22.7089L5.62525 14.613Z" fill="#E98862"/>
<path d="M17.2828 47.5576C16.3327 47.5575 15.3988 47.3097 14.5718 46.8383C13.7447 46.3669 13.0526 45.6879 12.5626 44.8671L0.349417 24.4111L9.79029 18.6813L19.0743 34.233L34.5072 24.3467L41.0457 33.186L20.2647 46.6747C19.3754 47.2514 18.3402 47.5579 17.2828 47.5576Z" fill="#FAB91D"/>
<path d="M33.3345 38.2794C33.3136 38.2794 33.2933 38.2723 33.2768 38.2593C33.2604 38.2462 33.2487 38.228 33.2438 38.2075C33.2388 38.187 33.2409 38.1654 33.2495 38.1462C33.2582 38.127 33.273 38.1113 33.2916 38.1016L35.9582 36.7141C35.9802 36.7027 36.0059 36.7005 36.0295 36.7081C36.0531 36.7157 36.0727 36.7324 36.0841 36.7546C36.0955 36.7768 36.0976 36.8027 36.0901 36.8265C36.0826 36.8503 36.066 36.8701 36.044 36.8815L33.3773 38.2688C33.3641 38.2757 33.3494 38.2793 33.3345 38.2794Z" fill="black"/>
<path d="M41.357 23.4168L42.681 21.3301C42.739 21.2387 42.8188 21.1634 42.9132 21.1113C43.0076 21.0592 43.1135 21.0318 43.2211 21.0318H53.2005C53.2904 21.0318 53.3792 21.0509 53.4614 21.0878C53.5435 21.1247 53.617 21.1786 53.6771 21.2459L55.6155 23.4168H41.357Z" fill="#F0B31F"/>
</svg>
