<svg width="671" height="645" viewBox="0 0 671 645" fill="none" xmlns="http://www.w3.org/2000/svg">
<path d="M139.05 127.747C108.638 174.287 67.5444 222.843 44.012 248.297C-15.154 300.862 -5.47889 360.368 29.9165 412.909C95.2079 509.828 179.133 627.966 295.153 641.95C371.582 651.162 462.897 617.807 530.863 581.422C559.714 565.978 585.835 545.539 606.79 520.404C670.825 443.593 677.139 379.993 662.009 334.262C644.177 280.365 580.812 259.076 544.122 215.755C533.441 203.143 523.229 189.131 513.747 174.733C473.988 114.358 436.686 46.6074 370.197 18.2331C313.557 -5.9376 266.476 -1.02346 231.46 14.6785C186.013 35.0579 166.296 86.0528 139.05 127.747Z" stroke="#071C54" stroke-width="3" stroke-linecap="round" stroke-dasharray="12 15"/>
</svg>
