<svg width="3" height="6" viewBox="0 0 3 6" fill="none" xmlns="http://www.w3.org/2000/svg">
<path d="M0 5.10275C0.000808767 4.84222 0.0327494 4.58269 0.0951381 4.32974C0.164522 4.09189 0.264455 3.86407 0.392438 3.65192C0.510599 3.4408 0.654393 3.24505 0.820551 3.06919C0.976982 2.88126 1.15232 2.70991 1.3438 2.55784L2.25948 1.79678V1.63027C2.25948 1.28937 2.18813 1.0753 2.04542 0.988092C1.95772 0.946222 1.86009 0.929613 1.76347 0.940115C1.66685 0.950617 1.57506 0.987837 1.49839 1.04757C1.31471 1.14105 1.16192 1.28555 1.05839 1.46376C0.958686 1.62984 0.875064 1.80505 0.808656 1.98702C0.785741 2.0448 0.757891 2.10052 0.725413 2.15352C0.689389 2.19453 0.644709 2.227 0.5946 2.24864L0.404333 2.36757C0.385597 2.38203 0.362595 2.38989 0.338926 2.38989C0.315257 2.38989 0.292255 2.38203 0.27352 2.36757C0.2624 2.34122 0.256672 2.31291 0.256672 2.28432C0.256672 2.25572 0.2624 2.22744 0.27352 2.2011C0.288558 2.02585 0.328603 1.85362 0.392438 1.68972C0.454317 1.48674 0.546535 1.29432 0.665958 1.11892C0.779202 0.928302 0.910619 0.749072 1.05839 0.583769C1.19767 0.426453 1.36251 0.293793 1.54596 0.191349C1.70984 0.0838116 1.89776 0.0184449 2.09299 0.0010723C2.24874 -0.00819739 2.40207 0.0429063 2.52111 0.14377C2.65836 0.268126 2.75735 0.429013 2.80651 0.607576C2.87482 0.867505 2.90684 1.13561 2.90165 1.40432V4.47247C2.9185 4.54685 2.9185 4.62402 2.90165 4.69839C2.87104 4.75964 2.82618 4.81266 2.77084 4.85299L2.533 4.98382C2.533 4.98382 2.43786 4.98382 2.41407 4.98382C2.39402 4.93014 2.39402 4.871 2.41407 4.81732V4.40109C2.3755 4.55915 2.31549 4.7112 2.2357 4.85299C2.06907 5.13286 1.86051 5.38553 1.61731 5.60219C1.51601 5.69423 1.40426 5.77408 1.28434 5.84005C1.14538 5.93012 0.985766 5.98333 0.820551 5.99465C0.69538 6.01309 0.567871 5.98333 0.463787 5.9114C0.351335 5.83601 0.270835 5.72159 0.237845 5.59029C0.125664 5.44598 0.0446683 5.27999 0 5.10275ZM1.1892 4.96001C1.34778 4.86155 1.49187 4.74149 1.61731 4.60327C1.74955 4.4494 1.86515 4.28197 1.96218 4.10379C2.0459 3.91026 2.11739 3.71167 2.17624 3.50919C2.22405 3.29446 2.24798 3.07513 2.24759 2.85514V2.60542L1.47461 3.24756C1.2268 3.44727 1.00683 3.67926 0.820551 3.93732C0.669578 4.14943 0.586637 4.40239 0.582714 4.66271C0.57619 4.72994 0.57619 4.79766 0.582714 4.86489C0.604196 4.92162 0.6413 4.97109 0.689738 5.00759C0.74283 5.05175 0.811229 5.07314 0.880014 5.06707C0.99503 5.06259 1.10639 5.02544 1.20109 4.96001H1.1892Z" fill="#455A64"/>
</svg>
