<svg width="28" height="25" viewBox="0 0 28 25" fill="none" xmlns="http://www.w3.org/2000/svg">
<path d="M1.6419 24.8235C1.36974 24.8251 1.102 24.7547 0.86589 24.6193C0.573811 24.4204 0.340266 24.147 0.189456 23.8274C0.0386461 23.5079 -0.0239335 23.1537 0.00821473 22.8018V17.8702C0.0507844 16.9767 0.306573 16.1063 0.754197 15.3319C1.20182 14.5574 1.82829 13.9013 2.58126 13.4184L25.1157 0.410303C25.3914 0.17921 25.7314 0.0383629 26.0898 0.00678294C26.4481 -0.0247971 26.8075 0.0544053 27.1194 0.23372C27.4312 0.413035 27.6805 0.683798 27.8334 1.00938C27.9864 1.33497 28.0357 1.69969 27.9747 2.0542V6.98584C27.9252 7.87892 27.6655 8.74766 27.2166 9.52129C26.7676 10.2949 26.1423 10.9516 25.3914 11.4376L2.86715 24.4457C2.4979 24.6747 2.07596 24.8048 1.6419 24.8235ZM2.86715 13.8983C2.20084 14.3352 1.64604 14.9219 1.24712 15.6116C0.848194 16.3013 0.616229 17.0748 0.569793 17.8702V22.7814C0.500366 23.0409 0.518847 23.316 0.622344 23.5638C0.725842 23.8116 0.908524 24.0182 1.14184 24.1512C1.37516 24.2841 1.64596 24.3361 1.91193 24.2989C2.17789 24.2616 2.42404 24.1374 2.61189 23.9454L25.1464 10.9373C25.8127 10.5004 26.3675 9.91368 26.7664 9.22399C27.1653 8.5343 27.3973 7.76083 27.4437 6.96543V2.0542C27.5097 1.79559 27.4886 1.52244 27.3839 1.27698C27.2791 1.03152 27.0964 0.827416 26.8641 0.696132C26.6317 0.564849 26.3626 0.513692 26.0983 0.550616C25.8339 0.58754 25.5891 0.710482 25.4016 0.900417L2.86715 13.8983Z" fill="#071C54"/>
</svg>
