<svg width="97" height="63" viewBox="0 0 97 63" fill="none" xmlns="http://www.w3.org/2000/svg">
<path d="M77.2263 6.35054L70.0949 16.256L73.7968 24.6919L80.3797 17.6255L77.2263 6.35092V6.35054ZM93.5082 8.7266L72.7213 31.0431L63.1818 9.30519L48.9641 34.5501L32.5169 9.52678L26.2114 31.1971L3.39015 8.88933L10.8242 33.1189C11.1921 33.0528 11.5695 33.0164 11.9554 33.0164C15.5139 33.0164 18.4361 35.9505 18.4361 39.5223C18.4361 42.1471 16.8573 44.4256 14.6084 45.4506L15.6179 48.7413C17.9683 53.577 29.2116 57.3151 49.0205 57.7051C69.9805 58.1179 82.7139 54.3745 84.9335 48.7411H84.9331L85.7573 44.894C82.5726 44.4926 80.0787 41.7396 80.0787 38.4405C80.0787 34.8687 83.0012 31.9346 86.5599 31.9346C87.2245 31.9346 87.8671 32.0371 88.4724 32.227L93.5082 8.72622V8.7266ZM19.4004 9.11397L19.6312 19.8116L24.4662 24.5379L26.2806 18.3017L19.4008 9.11378L19.4004 9.11397ZM47.8853 9.66654L43.2541 19.4191L48.7312 27.7523L53.4455 19.3821L47.8851 9.66635L47.8853 9.66654ZM86.5599 35.484C84.912 35.484 83.6138 36.787 83.6138 38.4409C83.6138 40.0948 84.912 41.3982 86.5599 41.3982C88.2079 41.3982 89.5056 40.095 89.5056 38.4411C89.5056 36.7872 88.2079 35.484 86.5599 35.484ZM11.955 36.5654C10.3074 36.5654 9.0092 37.8688 9.0092 39.5227C9.0092 41.1766 10.3072 42.4798 11.9552 42.4798C13.6034 42.4798 14.901 41.1768 14.901 39.5227C14.901 37.8688 13.6034 36.5654 11.9554 36.5654H11.955ZM36.6084 39.9533C40.1669 39.9533 43.0891 42.8871 43.0891 46.4593C43.0891 50.031 40.1669 52.9648 36.6084 52.9648C33.0497 52.9648 30.1274 50.031 30.1274 46.4593C30.1274 42.8875 33.0499 39.9533 36.6081 39.9533H36.6084ZM61.4329 39.9533C64.9914 39.9533 67.9135 42.8871 67.9135 46.4593C67.9135 50.031 64.9914 52.9648 61.4329 52.9648C57.8742 52.9648 54.9518 50.031 54.9518 46.4593C54.9518 42.8875 57.8744 39.9533 61.4329 39.9533ZM36.6082 43.5023C34.9601 43.5023 33.6624 44.805 33.6624 46.4593C33.6624 48.1132 34.9601 49.4166 36.6081 49.4166C38.2557 49.4166 39.5537 48.1132 39.5537 46.4593C39.5537 44.8053 38.256 43.5021 36.6079 43.5021L36.6082 43.5023ZM61.4327 43.5023C59.7847 43.5023 58.4869 44.805 58.4869 46.4593C58.4869 48.1132 59.7849 49.4166 61.4329 49.4166C63.0808 49.4166 64.3789 48.1132 64.3789 46.4593C64.3789 44.8053 63.0808 43.5021 61.4329 43.5021L61.4327 43.5023Z" fill="white"/>
</svg>
