<svg width="3" height="8" viewBox="0 0 3 8" fill="none" xmlns="http://www.w3.org/2000/svg">
<path d="M2.51843 0.0195312C2.53422 0.00688677 2.55385 0 2.57408 0C2.59431 0 2.61394 0.00688677 2.62973 0.0195312C2.6489 0.0658584 2.6489 0.117905 2.62973 0.164232V0.509273C2.64535 0.575142 2.64535 0.643744 2.62973 0.709613C2.61077 0.769419 2.57137 0.820649 2.51843 0.854314L0.492689 1.96736V4.19344L2.39599 3.0804C2.41179 3.06776 2.43142 3.06087 2.45165 3.06087C2.47188 3.06087 2.4915 3.06776 2.5073 3.0804C2.5177 3.10506 2.52306 3.13154 2.52306 3.15831C2.52306 3.18507 2.5177 3.21157 2.5073 3.23623V3.57014C2.52306 3.63975 2.52306 3.71201 2.5073 3.78162C2.48256 3.83822 2.44435 3.88788 2.39599 3.92631L0.492689 5.03935V7.51031C0.507406 7.58003 0.507406 7.65207 0.492689 7.72179C0.467951 7.77838 0.42974 7.82806 0.381386 7.86649L0.125383 8.00005C0.125383 8.00005 0.0363409 8.00005 0.0140801 8.00005C-0.00469336 7.94981 -0.00469336 7.89447 0.0140801 7.84423V1.75588C-0.00247894 1.68636 -0.00247894 1.61392 0.0140801 1.5444C0.0352803 1.48579 0.0741751 1.43524 0.125383 1.39971L2.51843 0.0195312Z" fill="#455A64"/>
</svg>
