<svg width="6" height="12" viewBox="0 0 6 12" fill="none" xmlns="http://www.w3.org/2000/svg">
<path d="M2.78471 0.46834C3.12411 0.25835 3.49717 0.108422 3.8875 0.0251538C4.16943 -0.0346823 4.46354 0.0131162 4.71202 0.159143C4.96513 0.331867 5.15082 0.58672 5.23765 0.880591C5.3751 1.32052 5.43781 1.78039 5.42317 2.24105C5.43611 2.8936 5.34567 3.54408 5.1552 4.16835C4.97829 4.73447 4.70264 5.26484 4.34099 5.73494L5.49531 8.49706C5.50596 8.54457 5.50596 8.59384 5.49531 8.64135C5.49324 8.73066 5.47215 8.81849 5.43347 8.89901C5.40225 8.96948 5.35235 9.03007 5.28918 9.07422L4.01118 9.80599C3.8875 9.87813 3.80505 9.88844 3.75352 9.80599C3.69643 9.75014 3.65091 9.6836 3.61954 9.61016L2.58889 7.1263L1.73345 7.63132V10.7233C1.72812 10.8331 1.70371 10.9412 1.66131 11.0428C1.62205 11.1315 1.55753 11.2068 1.47579 11.2592L0.249322 11.9703C0.224163 11.9896 0.193381 12 0.161718 12C0.130056 12 0.0992731 11.9896 0.0741143 11.9703C0.0466608 11.9399 0.026024 11.9038 0.0135834 11.8647C0.00114268 11.8256 -0.00281556 11.7844 0.00196941 11.7436V2.46779C4.58422e-05 2.35705 0.02479 2.24745 0.0741143 2.14828C0.113234 2.06245 0.173522 1.98799 0.249322 1.93185L2.78471 0.46834ZM1.75406 5.44636L2.78471 4.82797C3.04297 4.67956 3.26481 4.47532 3.43402 4.23019C3.62143 3.9203 3.71122 3.56117 3.69168 3.19954C3.69168 2.79759 3.59892 2.57085 3.43402 2.50901C3.32162 2.48907 3.20639 2.49155 3.09495 2.51631C2.98352 2.54107 2.87808 2.58763 2.78471 2.6533L1.75406 3.2717V5.44636Z" fill="white"/>
</svg>
