<svg width="3" height="5" viewBox="0 0 3 5" fill="none" xmlns="http://www.w3.org/2000/svg">
<path d="M1.88876 3.15169C1.89815 3.06915 1.87647 2.98605 1.82796 2.9186C1.7843 2.8673 1.72265 2.83466 1.65568 2.8274H1.35167L0.936179 2.92875C0.632164 2.99631 0.419356 2.95578 0.29775 2.80715C0.163162 2.6036 0.0990811 2.36153 0.11534 2.11805C0.119643 1.93699 0.143425 1.75693 0.186277 1.58096C0.231439 1.39749 0.299531 1.22043 0.388951 1.05398C0.478196 0.880718 0.590712 0.720469 0.723369 0.577688C0.86157 0.428589 1.02228 0.302075 1.19966 0.202741C1.34685 0.115191 1.50794 0.0535036 1.67595 0.0203391C1.7892 -0.00677969 1.90725 -0.00677969 2.0205 0.0203391C2.10919 0.0616572 2.18335 0.128762 2.23331 0.212885C2.28 0.297069 2.30768 0.390454 2.31438 0.486487C2.33163 0.54951 2.33163 0.61601 2.31438 0.679033C2.29186 0.730558 2.25707 0.775792 2.21305 0.810778L2.03064 0.912123H1.94956C1.9312 0.912741 1.91301 0.908337 1.89694 0.899412C1.88088 0.890487 1.86754 0.877357 1.85836 0.861435C1.83424 0.826547 1.80259 0.797526 1.76576 0.776481C1.72893 0.755436 1.68785 0.742908 1.64555 0.739834C1.50359 0.743201 1.36591 0.789099 1.25033 0.871579C1.08015 0.960855 0.936768 1.09376 0.834842 1.25667C0.732997 1.40257 0.67658 1.57533 0.672697 1.75322C0.652961 1.82966 0.652961 1.90987 0.672697 1.98631C0.687258 2.01181 0.707762 2.03339 0.732462 2.04927C0.757162 2.06515 0.785328 2.07485 0.81457 2.07751C0.901865 2.09118 0.990758 2.09118 1.07805 2.07751L1.49354 1.98631C1.634 1.95792 1.77871 1.95792 1.91916 1.98631C2.02587 2.00395 2.12477 2.05338 2.20291 2.12817C2.27576 2.20765 2.3249 2.30594 2.34478 2.41191C2.36222 2.54308 2.36222 2.67598 2.34478 2.80715C2.33565 3.19287 2.22747 3.56974 2.03064 3.90159C1.93004 4.08466 1.80753 4.25481 1.66582 4.40828C1.52784 4.56725 1.36323 4.701 1.17939 4.80352C1.0313 4.8948 0.865495 4.9535 0.692969 4.97577C0.573505 5.00806 0.447614 5.00806 0.32815 4.97577C0.231978 4.93798 0.150338 4.87054 0.0950681 4.78323C0.0425706 4.69785 0.0145331 4.5997 0.0140032 4.49948C-0.00466773 4.44011 -0.00466773 4.37645 0.0140032 4.31708C0.0338082 4.26102 0.0734569 4.21415 0.125468 4.18534L0.318014 4.06373H0.399087C0.399087 4.06373 0.459892 4.06375 0.480159 4.11442C0.507331 4.15801 0.54447 4.1945 0.588516 4.22093C0.632563 4.24736 0.682256 4.26296 0.733505 4.26642C0.878933 4.2651 1.02043 4.21911 1.13885 4.13468L1.38207 3.95228C1.46343 3.88095 1.53498 3.79915 1.59488 3.70904C1.65585 3.62561 1.70369 3.53335 1.73675 3.43544C1.81011 3.35488 1.86234 3.25739 1.88876 3.15169Z" fill="#455A64"/>
</svg>
