<svg width="3" height="5" viewBox="0 0 3 5" fill="none" xmlns="http://www.w3.org/2000/svg">
<path d="M1.87377 3.15307C1.88119 3.06755 1.85981 2.98199 1.81302 2.91003C1.76836 2.86168 1.70661 2.83263 1.64088 2.82904C1.54346 2.81559 1.44465 2.81559 1.34724 2.82904L0.921963 2.92017C0.618195 3.00117 0.405563 2.92018 0.294182 2.8088C0.159612 2.60169 0.0956732 2.35659 0.111921 2.11013C0.112668 1.93292 0.133041 1.75631 0.172672 1.58358C0.222374 1.40173 0.290216 1.22535 0.37518 1.05706C0.467835 0.886074 0.579963 0.726376 0.709326 0.58116C0.851716 0.436921 1.01159 0.311067 1.18523 0.206519C1.33062 0.108335 1.49715 0.0458935 1.67125 0.0242659C1.78029 -0.00808863 1.89637 -0.00808863 2.0054 0.0242659C2.09597 0.062545 2.17091 0.130355 2.21804 0.216654C2.27067 0.298142 2.29879 0.393025 2.29904 0.490034C2.31243 0.553464 2.31243 0.618993 2.29904 0.682422C2.27298 0.734576 2.23478 0.779722 2.18766 0.81406L2.0054 0.915322H1.92439C1.88869 0.910634 1.85611 0.892514 1.83327 0.864676C1.811 0.828087 1.77981 0.797736 1.74262 0.776485C1.70543 0.755234 1.66346 0.743783 1.62063 0.743173C1.47879 0.746538 1.34122 0.792399 1.22573 0.874811C1.05987 0.969797 0.917872 1.1014 0.810581 1.25959C0.711854 1.40624 0.658982 1.57894 0.658695 1.75573C0.639408 1.83216 0.639408 1.9122 0.658695 1.98863C0.67386 2.01358 0.694507 2.03474 0.719068 2.05053C0.743629 2.06631 0.771466 2.07632 0.800461 2.07976C0.891072 2.0935 0.983236 2.0935 1.07385 2.07976L1.47887 1.98863C1.61921 1.96027 1.76381 1.96027 1.90415 1.98863C2.01139 2.00432 2.11077 2.05399 2.18766 2.13037C2.26368 2.2089 2.31629 2.30709 2.33955 2.41389C2.35662 2.54497 2.35662 2.67772 2.33955 2.8088C2.34098 2.99415 2.31365 3.17858 2.25854 3.35556C2.20639 3.54765 2.12803 3.73165 2.02566 3.90235C1.92861 4.08744 1.80589 4.25789 1.66113 4.40863C1.52058 4.56467 1.35661 4.69791 1.1751 4.80354C1.02714 4.89475 0.861464 4.95341 0.689079 4.97566C0.573169 5.00806 0.450587 5.00806 0.334677 4.97566C0.238584 4.93789 0.157018 4.87051 0.101793 4.78327C0.0475618 4.69816 0.016172 4.60052 0.0106589 4.49976C-0.00355296 4.43983 -0.00355296 4.37742 0.0106589 4.3175C0.0337762 4.26347 0.0725772 4.21761 0.122041 4.18586L0.324557 4.06436H0.405556C0.405556 4.06436 0.405558 4.06436 0.486562 4.06436C0.51271 4.10662 0.548227 4.14229 0.590366 4.16862C0.632505 4.19496 0.680141 4.21125 0.729582 4.21624C0.874189 4.2108 1.01442 4.16522 1.1346 4.0846L1.37762 3.90235C1.45656 3.82877 1.52781 3.74736 1.59025 3.65935C1.64854 3.57268 1.69935 3.4812 1.74214 3.38594C1.79789 3.31564 1.8423 3.23708 1.87377 3.15307Z" fill="#455A64"/>
</svg>
