<svg width="3" height="7" viewBox="0 0 3 7" fill="none" xmlns="http://www.w3.org/2000/svg">
<path d="M0.150945 6.98238C0.13669 6.99379 0.118986 7.00001 0.100726 7.00001C0.0824654 7.00001 0.0647462 6.99379 0.0504916 6.98238C0.0333719 6.96539 0.0200442 6.94497 0.0113864 6.92246C0.00272849 6.89995 -0.00106631 6.87587 0.000257248 6.85179V1.34643C0.00394279 1.28007 0.021033 1.21515 0.0504916 1.15557C0.070243 1.10568 0.105441 1.06343 0.150945 1.035L1.6378 0.171025C1.80976 0.0553584 2.01329 -0.00429397 2.22049 0.000240627C2.29273 0.00716348 2.36285 0.028517 2.4267 0.0630297C2.49054 0.0975424 2.54682 0.144509 2.59219 0.201163C2.69052 0.316998 2.75944 0.454858 2.79311 0.603022C2.82846 0.757874 2.84533 0.916373 2.84335 1.0752C2.84755 1.25404 2.83068 1.43275 2.79311 1.60765C2.75996 1.7513 2.7163 1.89232 2.66251 2.02959C2.61228 2.16019 2.56205 2.26064 2.52186 2.35106L2.41135 2.5319C2.57046 2.61472 2.70025 2.74449 2.78307 2.90361C2.89505 3.13837 2.94683 3.39731 2.93376 3.65708C2.93565 3.88394 2.90864 4.11013 2.85339 4.33017C2.80414 4.56508 2.73005 4.79409 2.63237 5.01333C2.53284 5.23671 2.4045 5.44611 2.25062 5.63619C2.10089 5.81681 1.92069 5.96981 1.71817 6.08827L0.150945 6.98238ZM0.532707 1.56745V3.28537L1.53733 2.68259C1.77048 2.55596 1.96491 2.36848 2.09992 2.1401C2.22315 1.91197 2.28544 1.65591 2.28076 1.39667C2.28076 1.11537 2.22047 0.934543 2.09992 0.864219C1.97936 0.793895 1.78849 0.864225 1.53733 0.964687L0.532707 1.56745ZM0.532707 4.05893V5.99785L1.65788 5.34485C1.7809 5.27496 1.89267 5.18689 1.98941 5.08364C2.08123 4.97686 2.1589 4.85869 2.22049 4.73203C2.28081 4.60665 2.32794 4.47535 2.36113 4.34023C2.39263 4.21194 2.40946 4.0805 2.41135 3.94843C2.42237 3.83483 2.42237 3.72043 2.41135 3.60684C2.38747 3.51798 2.33867 3.43781 2.2707 3.37578C2.2401 3.34615 2.20392 3.3229 2.16426 3.30738C2.12459 3.29186 2.08223 3.28438 2.03964 3.28537C1.91793 3.29833 1.80096 3.33961 1.69808 3.40592L0.532707 4.05893Z" fill="#455A64"/>
</svg>
