<svg width="1" height="7" viewBox="0 0 1 7" fill="none" xmlns="http://www.w3.org/2000/svg">
<path d="M0.645204 0.714524C0.661223 0.785241 0.661223 0.858632 0.645204 0.929349C0.616096 0.987589 0.573442 1.038 0.520823 1.07635L0.170298 1.27989C0.170298 1.27989 0.0798325 1.27989 0.0572178 1.27989C0.0370638 1.25905 0.0216084 1.23414 0.011858 1.20684C0.0021077 1.17954 -0.00169871 1.15048 0.000694939 1.12159V0.578824C0.00362698 0.507534 0.0229609 0.43789 0.0572178 0.375301C0.0646054 0.344199 0.0785147 0.315009 0.0980053 0.289671C0.117496 0.264333 0.142132 0.243418 0.170298 0.2283L0.520823 0.0247762C0.537623 0.00887107 0.559887 0 0.583022 0C0.606157 0 0.628404 0.00887107 0.645204 0.0247762C0.664276 0.0758205 0.664276 0.132034 0.645204 0.183078V0.714524ZM0.645204 6.49257C0.642412 6.56747 0.623103 6.64082 0.588664 6.7074C0.563533 6.76489 0.524722 6.81536 0.475601 6.8544L0.249458 6.97878C0.231643 6.99253 0.209764 7 0.187258 7C0.164753 7 0.14289 6.99253 0.125076 6.97878C0.106004 6.92773 0.106004 6.87152 0.125076 6.82048V2.35408C0.110125 2.28325 0.110125 2.21007 0.125076 2.13924C0.147662 2.07977 0.192173 2.03122 0.249458 2.00356L0.475601 1.86786C0.491645 1.85501 0.511588 1.84802 0.532141 1.84802C0.552694 1.84802 0.57262 1.85501 0.588664 1.86786C0.608558 1.88652 0.623974 1.90943 0.633765 1.93489C0.643555 1.96034 0.647469 1.98768 0.645204 2.01486V6.49257Z" fill="#455A64"/>
</svg>
