<svg width="4" height="7" viewBox="0 0 4 7" fill="none" xmlns="http://www.w3.org/2000/svg">
<path d="M0.356482 2.2198C0.356482 2.12889 0.42719 2.03798 0.467595 1.94707L0.619121 1.66424C0.681252 1.57322 0.752304 1.48862 0.831235 1.41171C0.9101 1.32947 1.00232 1.26117 1.10397 1.20969C1.18206 1.14983 1.27193 1.10719 1.36769 1.08455C1.46344 1.06192 1.56291 1.05982 1.65953 1.07839C1.74091 1.10457 1.81515 1.14918 1.87647 1.20875C1.93779 1.26832 1.98453 1.34123 2.01306 1.42182L2.16459 1.04807C2.21853 0.925048 2.28272 0.806793 2.3565 0.69454C2.42601 0.584985 2.5073 0.483366 2.59893 0.391504C2.69701 0.301427 2.80553 0.223433 2.92217 0.159183C3.29591 -0.0630419 3.56864 -0.0428396 3.74036 0.159183C3.93718 0.553097 4.0244 0.992699 3.99289 1.43192V3.80568C4.00235 3.86592 4.00235 3.92726 3.99289 3.9875C3.96931 4.04108 3.93072 4.0867 3.88177 4.11882L3.67976 4.24002C3.66384 4.25231 3.6443 4.25898 3.62419 4.25898C3.60409 4.25898 3.58456 4.25231 3.56864 4.24002C3.55125 4.19798 3.55125 4.15076 3.56864 4.10872V1.81576C3.59796 1.51562 3.53824 1.21348 3.39693 0.947068C3.28245 0.798918 3.12082 0.798918 2.91206 0.947068C2.69429 1.08097 2.52726 1.28352 2.43731 1.52282C2.30649 1.84304 2.24455 2.1872 2.2555 2.53293V4.88649C2.25288 4.95018 2.23559 5.01241 2.20499 5.06832C2.18518 5.12119 2.14999 5.16692 2.10397 5.19963L1.90195 5.32085C1.88604 5.33314 1.86651 5.33979 1.8464 5.33979C1.8263 5.33979 1.80675 5.33314 1.79084 5.32085C1.77344 5.27881 1.77344 5.23157 1.79084 5.18953V2.89657C1.82015 2.59643 1.76043 2.2943 1.61912 2.02788C1.51138 1.87973 1.34976 1.87973 1.13427 2.02788C0.918703 2.15977 0.752025 2.35838 0.659518 2.59355C0.530956 2.91442 0.469084 3.25811 0.47769 3.60366V5.95721C0.475071 6.0209 0.457799 6.08313 0.427197 6.13904C0.410808 6.19373 0.374843 6.24049 0.32618 6.27036L0.124161 6.39157C0.0736551 6.39157 0.0433512 6.39157 0.0130478 6.39157C-0.00434928 6.34952 -0.00434928 6.30229 0.0130478 6.26025V2.2198C-0.00197983 2.15671 -0.00197983 2.09097 0.0130478 2.02788C0.0327888 1.972 0.0723171 1.92529 0.124161 1.89657L0.32618 1.77535C0.32618 1.77535 0.406995 1.77535 0.427197 1.77535C0.445201 1.79397 0.459023 1.81622 0.467733 1.84061C0.476444 1.865 0.479829 1.89096 0.47769 1.91677L0.356482 2.2198Z" fill="#455A64"/>
</svg>
