<svg width="78" height="218" viewBox="0 0 78 218" fill="none" xmlns="http://www.w3.org/2000/svg">
<path d="M77.4325 71.0397C77.4325 46.1117 61.0111 16.4187 40.7577 4.73207C30.0341 -1.45732 20.3838 -1.36703 13.6728 3.78911C5.33672 7.25998 0 16.83 0 31.0545V175.657L73.3397 218L77.4225 215.653L77.4325 71.0397Z" fill="#E6E6E6"/>
<path d="M73.3495 218V73.3971C73.3495 48.469 56.9381 18.776 36.6746 7.07936C16.4111 -4.61728 0.00979631 6.07622 0.00979631 31.0544V175.657L73.3495 218Z" fill="#F5F5F5"/>
<path d="M69.3469 73.3971V211.058L4.02236 173.34V31.0545C4.02236 18.5955 8.40609 9.98852 15.7792 7.29006C17.4916 6.6642 19.3027 6.35159 21.1259 6.36717C25.299 6.36717 29.8533 7.77157 34.6784 10.5603C53.7982 21.5547 69.3469 49.7831 69.3469 73.3971Z" fill="#E0E0E0"/>
<path d="M4.02236 173.34L8.16534 170.953L69.3469 206.283V211.058L4.02236 173.34Z" fill="#EBEBEB"/>
<path d="M69.3471 73.3971V206.283L8.15542 170.953V28.657C8.15542 18.756 10.9341 11.2926 15.7793 7.29006C17.4918 6.6642 19.3029 6.35159 21.126 6.36717C25.2991 6.36717 29.8534 7.77157 34.6785 10.5603C53.7984 21.5547 69.3471 49.7831 69.3471 73.3971Z" fill="white"/>
<path d="M38.6814 193.353L34.6789 191.036V9.11583H38.6814V193.353Z" fill="#F5F5F5"/>
<path d="M42.7041 16.3584V191.086L38.6915 193.393V13.1584C40.0558 14.1415 41.3933 15.2081 42.7041 16.3584Z" fill="#E0E0E0"/>
<path d="M4.02236 145.031L34.6784 162.737V167.442L4.02236 149.746V145.031Z" fill="#F5F5F5"/>
<path d="M8.16534 142.654L4.02236 145.031L34.6784 162.737V158.032L8.16534 142.654Z" fill="#EBEBEB"/>
<path d="M38.6807 165.044L69.3468 182.75L69.3367 187.454L38.6807 169.759V165.044Z" fill="#F5F5F5"/>
<path d="M42.8237 162.657L38.6807 165.044L69.3468 182.75V178.045L42.8237 162.657Z" fill="#EBEBEB"/>
<path d="M4.02236 39.9924L34.6784 57.6879V62.3926L4.02236 44.6972V39.9924Z" fill="#F5F5F5"/>
<path d="M8.16534 37.595L4.02236 39.9925L34.6784 57.688V52.9832L8.16534 37.595Z" fill="#EBEBEB"/>
<path d="M38.6807 59.9951L69.3468 77.7006L69.3367 82.4053L38.6807 64.7099V59.9951Z" fill="#F5F5F5"/>
<path d="M42.8237 57.6077L38.6807 59.9951L69.3468 77.7006V72.9959L42.8237 57.6077Z" fill="#EBEBEB"/>
</svg>
