<svg width="2" height="6" viewBox="0 0 2 6" fill="none" xmlns="http://www.w3.org/2000/svg">
<path d="M1.64462 0.0243503C1.65217 0.0166469 1.66119 0.0105041 1.67113 0.00632613C1.68107 0.00214817 1.69175 0 1.70253 0C1.71332 0 1.72399 0.00214817 1.73393 0.00632613C1.74387 0.0105041 1.75289 0.0166469 1.76044 0.0243503C1.77997 0.0766287 1.77997 0.134183 1.76044 0.186462V0.499164C1.77575 0.571709 1.77575 0.646619 1.76044 0.719165C1.73391 0.774343 1.69411 0.822117 1.64462 0.858163L1.27405 1.0782C1.01741 1.24132 0.811813 1.47331 0.680755 1.74771C0.549696 2.02211 0.498463 2.32787 0.532886 2.63001V5.49045C0.549292 5.56287 0.549292 5.63806 0.532886 5.71048C0.507083 5.77267 0.46256 5.82526 0.405497 5.861L0.173886 6C0.173886 6 0.0812338 6 0.0580723 6C0.0186567 5.9554 -0.00208182 5.89733 0.000165263 5.83785V1.26346C0.0031682 1.19044 0.0229872 1.11912 0.0580723 1.05501C0.0656385 1.02316 0.0798665 0.993283 0.0998283 0.967333C0.11979 0.941382 0.145039 0.919944 0.173886 0.90446L0.405497 0.765497C0.463401 0.765497 0.498143 0.765497 0.532886 0.765497C0.552831 0.813698 0.552831 0.867851 0.532886 0.916052V1.22872C0.605936 1.00968 0.711315 0.802806 0.845552 0.614942C0.965869 0.445223 1.1246 0.306369 1.30879 0.209646L1.64462 0.0243503Z" fill="#455A64"/>
</svg>
