<svg width="108" height="108" viewBox="0 0 108 108" fill="none" xmlns="http://www.w3.org/2000/svg">
<rect x="15" y="15" width="78" height="78" rx="39" fill="white"/>
<rect width="108" height="108" rx="54" fill="white" fill-opacity="0.31"/>
<rect x="15" y="15" width="78" height="78" rx="39" fill="white"/>
<path d="M45.084 54.1102C45.084 53.4382 45.0653 52.4208 45.028 51.0582C45.0093 49.5088 45 48.3515 45 47.5862C45 46.2982 45.0467 45.1502 45.14 44.1422C45.2333 42.9475 45.546 42.0235 46.078 41.3702C46.61 40.7168 47.3007 40.3902 48.15 40.3902C48.9993 40.3902 49.928 40.7355 50.936 41.4262C54.5947 43.9088 59.1773 47.2502 64.684 51.4502C65.8973 52.3648 66.4993 53.3402 66.49 54.3762C66.4807 55.4122 65.86 56.3875 64.628 57.3022C61.7533 59.4675 59.42 61.2035 57.628 62.5102C55.052 64.3955 52.6813 66.0848 50.516 67.5782C49.676 68.1568 48.864 68.4275 48.08 68.3902C47.296 68.3528 46.6473 68.0308 46.134 67.4242C45.6207 66.8175 45.3173 65.9775 45.224 64.9042C45.1307 63.8308 45.084 62.6035 45.084 61.2222C45.0653 60.3822 45.0747 59.1315 45.112 57.4702C45.1493 55.9768 45.168 54.8568 45.168 54.1102H45.084Z" fill="#081B56"/>
</svg>
