<svg width="3" height="8" viewBox="0 0 3 8" fill="none" xmlns="http://www.w3.org/2000/svg">
<path d="M0.117101 7.267C0.10235 7.27881 0.0840299 7.28526 0.0651338 7.28526C0.0462377 7.28526 0.0279017 7.27881 0.0131509 7.267C-0.00438364 7.22007 -0.00438364 7.16839 0.0131509 7.12146V1.3933C-0.000907251 1.32821 -0.000907251 1.26087 0.0131509 1.19578C0.0362565 1.14292 0.0719385 1.09651 0.117101 1.06062L1.65571 0.176978C1.83366 0.0572853 2.04427 -0.00444343 2.25868 0.000249003C2.33267 0.00611071 2.40476 0.0265762 2.47078 0.0604806C2.53681 0.094385 2.59545 0.141058 2.64332 0.197774C2.74454 0.321935 2.8157 0.467796 2.85124 0.623996C2.88287 0.785025 2.90026 0.948527 2.90322 1.11261C2.90236 1.29401 2.88496 1.47496 2.85124 1.6532C2.81682 1.80522 2.77165 1.95459 2.71609 2.10022C2.67453 2.21238 2.62231 2.32031 2.56015 2.4225C2.53116 2.48786 2.49637 2.55048 2.45619 2.60962C2.61739 2.69649 2.74802 2.83075 2.83044 2.99427C2.9562 3.23778 3.01369 3.51082 2.99678 3.78437C2.99808 4.0191 2.97014 4.25307 2.91361 4.4809C2.86265 4.72398 2.78598 4.96094 2.6849 5.18781C2.57587 5.41802 2.43976 5.63441 2.27946 5.83237C2.12762 6.01835 1.94474 6.17663 1.73888 6.30019L0.117101 7.267ZM0.512152 1.66359V3.47249L1.55175 2.84873C1.793 2.7177 1.9942 2.52369 2.13392 2.28735C2.26014 2.05079 2.32451 1.78615 2.32105 1.51805C2.32105 1.22696 2.25867 1.03984 2.13392 0.967064C2.00916 0.894292 1.81164 0.91509 1.55175 1.07103L0.512152 1.66359ZM0.512152 4.23139V6.2482L1.67649 5.57247C1.80451 5.49697 1.92021 5.40231 2.01956 5.29178C2.11448 5.185 2.19489 5.06616 2.25868 4.93832C2.33681 4.80369 2.39957 4.66072 2.4458 4.51208C2.46099 4.37736 2.46099 4.24136 2.4458 4.10664C2.46243 3.98941 2.46243 3.87042 2.4458 3.75318C2.42243 3.65998 2.37594 3.57417 2.31064 3.50368C2.24302 3.44902 2.15849 3.41961 2.07154 3.42051C1.94615 3.42918 1.82479 3.46844 1.71808 3.53486L0.512152 4.23139Z" fill="#455A64"/>
</svg>
