<svg width="29" height="48" viewBox="0 0 29 48" fill="none" xmlns="http://www.w3.org/2000/svg">
<path fill-rule="evenodd" clip-rule="evenodd" d="M28.1953 0.736585C27.3251 0.152947 26.1708 0 25.131 0C21.0688 0 17.2514 1.49237 13.9536 3.71609C12.1465 4.93442 10.53 6.48612 9.10297 8.10155C8.27908 9.03428 7.54462 10.0429 7.02451 11.165C6.67359 11.9224 6.43281 12.7115 6.26957 13.5253C6.07065 14.5172 5.91247 15.5291 5.8411 16.5376C5.8129 16.9347 5.58005 19.0417 6.24666 19.0774C6.24269 19.1294 6.24181 19.1789 6.246 19.2232C4.79846 21.4648 3.90429 24.0917 3.07488 26.5823C2.35343 28.7497 1.71039 30.9352 1.29315 33.1775C0.743524 36.1293 0.382687 39.1258 0.211079 42.1201C0.17429 42.7635 0.148961 43.4074 0.127152 44.0517C0.108647 44.6013 0.0899192 45.1509 0.071635 45.7007C0.051368 46.3166 -0.0581206 47.0257 0.0407908 47.638C0.126925 48.1712 0.592839 48.0905 0.613546 47.5598C0.638439 46.919 0.634259 46.2769 0.662676 45.6357C0.700347 44.7846 0.739123 43.9334 0.781199 43.0825C1.07397 37.1715 2.17212 31.3474 4.19903 25.7638C5.0194 23.5044 5.95917 21.3655 7.16725 19.2753C8.22928 17.4376 9.50698 15.6583 10.8129 14.0014C12.082 12.391 13.4018 10.8181 14.9568 9.45384C16.2189 8.34678 17.6072 7.3822 19.0333 6.48481C20.8463 5.34503 22.6549 4.23296 24.6199 3.35804C25.6399 2.90335 26.6797 2.49623 27.7085 2.05964C27.8935 1.98131 28.0917 1.90517 28.2702 1.81419C28.8628 1.51091 28.6667 1.05426 28.1953 0.736585Z" fill="#C1DEE2"/>
</svg>
