<svg width="30" height="61" viewBox="0 0 30 61" fill="none" xmlns="http://www.w3.org/2000/svg">
<path fill-rule="evenodd" clip-rule="evenodd" d="M2.19222 7.80749C6.30975 14.6493 11.1056 21.2739 13.9856 28.7544C13.8696 27.8726 13.7465 26.9917 13.6086 26.1123C12.878 21.4498 11.9696 16.8214 11.0154 12.1987C10.5294 9.845 10.0152 7.49965 9.48801 5.15474C9.20455 3.89522 8.9244 2.63505 8.63499 1.37684C8.56484 1.07185 8.50462 0.539419 8.41705 0C11.2159 9.09671 13.915 18.2002 15.8893 27.5154C16.1483 28.738 16.3689 29.9584 16.5495 31.1766C16.6113 30.8987 16.6722 30.6208 16.7386 30.3436C17.5376 27.0212 18.7358 23.7253 20.1626 20.6185C20.8446 19.1331 21.6279 17.68 22.5505 16.3259C23.1258 15.4819 24.4824 14.4787 25.0069 13.6142C22.1373 18.8275 21.101 25.3503 19.4439 31.0178C19.0395 32.401 18.6326 33.7817 18.2337 35.1649C20.7326 30.2016 24.6097 26.1235 30.0002 24.3564C23.4752 28.6263 19.5615 36.1041 16.9241 43.7521C16.9155 43.8428 16.9051 43.9335 16.8961 44.0244C17.6723 42.5656 18.6498 41.246 19.9746 40.3221C22.8105 38.3435 25.9561 38.9199 28.7069 40.617C26.548 39.2579 22.6464 40.4955 20.8299 41.877C19.5295 42.8658 18.4181 44.1924 17.4531 45.4868C17.2219 45.7971 16.9062 46.1591 16.5729 46.5452C16.1057 49.5494 15.3442 52.5332 14.266 55.4931C14.444 54.6434 14.3154 53.2847 14.3648 52.6513C14.3701 52.583 14.3745 52.5141 14.3798 52.446C14.2159 53.094 14.0575 53.7346 13.9051 54.3651C14.2082 53.1621 14.3728 51.9063 14.5014 50.6377C14.5344 50.0926 14.5669 49.5472 14.6008 49.0021C14.59 47.9672 14.547 46.9286 14.4742 45.888C14.2163 44.8769 13.9274 43.923 13.6889 43.1297C12.8293 40.2674 11.5686 37.5256 10.0172 34.9674C8.60168 32.633 6.90711 30.5186 4.95114 28.6062C3.8965 27.5755 2.79289 26.5941 1.70494 25.5989C1.31141 25.2391 0.608166 24.3545 0 23.8933C4.42944 26.312 8.98881 28.9285 12.2202 32.8257C11.8413 31.3848 11.4299 29.9643 10.9946 28.5724C8.78631 21.5099 5.99805 14.1907 2.19222 7.80749Z" fill="#DDE3E9"/>
<path fill-rule="evenodd" clip-rule="evenodd" d="M6.61786 46.5356C6.61786 54.3787 7.24499 60.7365 15.662 60.7365C24.0791 60.7365 24.7062 54.3787 24.7062 46.5356" fill="#C5CFD6"/>
</svg>
