<svg width="3" height="6" viewBox="0 0 3 6" fill="none" xmlns="http://www.w3.org/2000/svg">
<path d="M2.59818e-05 5.10873C-0.00110794 4.85167 0.0348793 4.5958 0.106865 4.34902C0.174941 4.1093 0.270539 3.87827 0.391753 3.66053C0.516699 3.45438 0.659707 3.25973 0.81909 3.07888C0.98126 2.90062 1.1558 2.73403 1.34139 2.58032L2.26729 1.80875V1.67817C2.26729 1.33393 2.19606 1.12027 2.04175 1.03717C1.95959 0.986798 1.8651 0.960121 1.76873 0.960121C1.67236 0.960121 1.57786 0.986798 1.49571 1.03717C1.31786 1.13386 1.17003 1.27758 1.06837 1.45263C0.961713 1.61447 0.877834 1.79022 0.81909 1.97493C0.792649 2.03315 0.760855 2.08878 0.724125 2.14112C0.692744 2.18183 0.652033 2.21441 0.605422 2.23608L0.403626 2.35478C0.386783 2.36826 0.365847 2.37562 0.34427 2.37562C0.322694 2.37562 0.301766 2.36826 0.284923 2.35478C0.273823 2.32848 0.268097 2.30024 0.268097 2.27169C0.268097 2.24315 0.273823 2.21489 0.284923 2.18859C0.301161 2.01385 0.341093 1.84214 0.403626 1.67817C0.477572 1.48053 0.568933 1.28986 0.676642 1.10839C0.7941 0.918057 0.929234 0.739196 1.08024 0.574208C1.21507 0.417568 1.37565 0.285106 1.55506 0.182499C1.71976 0.0793451 1.90726 0.0181924 2.1011 0.00443139C2.17936 -0.0053881 2.2588 0.00115461 2.3344 0.023631C2.41001 0.0461075 2.48012 0.0840288 2.5403 0.135007C2.67744 0.257008 2.77292 0.418903 2.81333 0.597954C2.89186 0.855507 2.92794 1.12412 2.92016 1.39327V4.45585C2.93782 4.53 2.93782 4.60725 2.92016 4.68139C2.89377 4.74175 2.85302 4.79473 2.80145 4.83572L2.56405 4.97816C2.54535 4.99259 2.52239 5.00043 2.49876 5.00043C2.47513 5.00043 2.45217 4.99259 2.43347 4.97816C2.41345 4.92457 2.41345 4.86556 2.43347 4.81197V4.3965C2.38765 4.55363 2.32392 4.70499 2.24354 4.84758C2.16231 4.9913 2.06687 5.1265 1.95865 5.25117C1.86012 5.37715 1.74873 5.49253 1.62628 5.59542C1.53143 5.68957 1.42348 5.76953 1.30578 5.83283C1.16777 5.92602 1.0086 5.98315 0.842827 5.99902C0.713309 6.00605 0.584785 5.97288 0.474846 5.90405C0.372502 5.82408 0.294411 5.71723 0.249304 5.59542C0.134511 5.45149 0.049748 5.28599 2.59818e-05 5.10873ZM1.18707 4.96629C1.35386 4.8752 1.50269 4.75453 1.62628 4.61017C1.75458 4.45635 1.866 4.28921 1.95865 4.11162C2.05257 3.9227 2.12427 3.72353 2.17232 3.51809C2.2302 3.30538 2.25816 3.08564 2.25541 2.86522V2.61593L1.48383 3.25694C1.22988 3.45367 1.00941 3.69017 0.830963 3.9573C0.672614 4.16127 0.585098 4.41133 0.581685 4.66953C0.569419 4.73624 0.569419 4.80462 0.581685 4.87133C0.603127 4.92795 0.640164 4.97733 0.688515 5.01377C0.7144 5.03617 0.744627 5.053 0.777304 5.06321C0.80998 5.07342 0.84441 5.0768 0.878446 5.07312C0.991385 5.08007 1.10361 5.05096 1.19894 4.99002L1.18707 4.96629Z" fill="#455A64"/>
</svg>
