<svg width="3" height="5" viewBox="0 0 3 5" fill="none" xmlns="http://www.w3.org/2000/svg">
<path d="M1.32843 0.16294C1.4915 0.0635047 1.67729 0.0074141 1.86814 4.40502e-06C1.9418 -0.000287727 2.01479 0.0139531 2.08294 0.0419114C2.15109 0.0698697 2.21305 0.111 2.26528 0.16294C2.39118 0.288369 2.48543 0.441955 2.54024 0.611004C2.60783 0.842862 2.64547 1.08241 2.65225 1.32383C2.65776 1.3848 2.65776 1.44614 2.65225 1.50712V1.95518C2.65776 2.01616 2.65776 2.07751 2.65225 2.13849C2.64299 2.42724 2.602 2.71409 2.53004 2.99388C2.47273 3.25489 2.38382 3.50794 2.26528 3.74744C2.16091 3.97426 2.0274 4.1865 1.86814 4.3788C1.7155 4.55824 1.53289 4.70984 1.32843 4.82686C1.16853 4.93448 0.98138 4.99451 0.788719 4.99997C0.638708 4.99199 0.495532 4.93471 0.381396 4.83704C0.262497 4.70805 0.172252 4.55535 0.116622 4.38897C0.0482785 4.15381 0.0106272 3.9108 0.0046056 3.66597C-0.00153345 3.61184 -0.00153345 3.55717 0.0046056 3.50304C0.0046056 3.43175 0.0046056 3.35029 0.0046056 3.27901C0.0046056 3.20772 0.0046056 3.12626 0.0046056 3.05497C-0.0015352 2.99063 -0.0015352 2.92584 0.0046056 2.86149C0.017197 2.30484 0.145522 1.7569 0.381396 1.25254C0.494415 1.02824 0.630952 0.816606 0.788719 0.621182C0.943909 0.441509 1.12597 0.286935 1.32843 0.16294ZM2.14309 2.39307C2.17025 2.14943 2.17025 1.90352 2.14309 1.65988C2.13675 1.51161 2.11282 1.36461 2.0718 1.22199C2.04642 1.11231 1.9939 1.01077 1.91906 0.926682C1.85461 0.858324 1.76801 0.815032 1.67465 0.804488C1.55256 0.809055 1.43355 0.84405 1.32843 0.906311C1.1973 0.984675 1.08027 1.08451 0.982202 1.20163C0.888991 1.32642 0.80719 1.45934 0.737799 1.59878C0.670184 1.75601 0.619002 1.91981 0.585057 2.08757C0.545678 2.25818 0.521813 2.432 0.513767 2.60691C0.513767 2.71892 0.513767 2.84113 0.513767 2.9837C0.507871 3.09903 0.507871 3.21459 0.513767 3.32992C0.519291 3.48161 0.543235 3.63207 0.585057 3.77799C0.612688 3.88682 0.664941 3.98785 0.737799 4.0733C0.76901 4.10732 0.806709 4.13477 0.848681 4.154C0.890653 4.17324 0.936054 4.18388 0.982202 4.18531C1.10569 4.1905 1.22742 4.1547 1.32843 4.08349C1.45922 4.00883 1.5763 3.91239 1.67465 3.79834C1.77014 3.67149 1.85206 3.53497 1.91906 3.39102C1.98809 3.23784 2.03933 3.07726 2.0718 2.91241C2.1104 2.74166 2.13425 2.56791 2.14309 2.39307Z" fill="#455A64"/>
</svg>
