<svg width="4" height="7" viewBox="0 0 4 7" fill="none" xmlns="http://www.w3.org/2000/svg">
<path d="M0.280811 2.26045C0.315105 2.16151 0.356409 2.06514 0.404404 1.97208C0.445709 1.87408 0.497501 1.78082 0.558886 1.69398C0.618594 1.60136 0.687619 1.51508 0.764875 1.4365C0.84831 1.35323 0.941707 1.28059 1.04295 1.22022C1.20662 1.10241 1.41031 1.05426 1.60941 1.08633C1.69349 1.11406 1.76989 1.16114 1.83249 1.22374C1.89509 1.28634 1.94215 1.36273 1.96988 1.44681L2.12437 1.05543C2.18344 0.935369 2.24875 0.818488 2.32005 0.70526C2.39092 0.593557 2.47382 0.48996 2.56724 0.396296C2.66611 0.300188 2.77687 0.217099 2.89681 0.149094C3.27788 -0.0671899 3.55596 -0.0465726 3.73105 0.200609C3.93892 0.599752 4.02827 1.05002 3.98853 1.49829V3.90833C4.00385 3.97266 4.00385 4.03966 3.98853 4.10399C3.96202 4.15704 3.92316 4.20296 3.87524 4.23789L3.66925 4.36147C3.65303 4.374 3.63311 4.3808 3.61261 4.3808C3.59211 4.3808 3.57219 4.374 3.55596 4.36147C3.54098 4.31458 3.54098 4.26419 3.55596 4.2173V1.88966C3.58633 1.58144 3.52921 1.27089 3.39117 0.993637C3.27788 0.849448 3.1028 0.839149 2.88651 0.993637C2.67138 1.13795 2.50312 1.34201 2.40245 1.5807C2.27136 1.90786 2.20829 2.25829 2.21706 2.61062V5.00005C2.23238 5.06438 2.23238 5.13141 2.21706 5.19574C2.19055 5.24879 2.1517 5.29467 2.10377 5.3296L1.89779 5.45322C1.88156 5.46574 1.86164 5.47252 1.84114 5.47252C1.82064 5.47252 1.80072 5.46574 1.7845 5.45322C1.77131 5.40606 1.77131 5.35617 1.7845 5.30901V2.98138C1.81973 2.6718 1.75858 2.3589 1.60941 2.08535C1.50642 1.94116 1.33133 1.93086 1.11504 2.08535C0.899908 2.22966 0.731651 2.43372 0.63098 2.67242C0.499897 2.99957 0.436819 3.35 0.445594 3.70234V6.09176C0.460185 6.15618 0.460185 6.22304 0.445594 6.28745C0.419081 6.3405 0.38023 6.38639 0.332302 6.42132L0.126321 6.54493C0.110095 6.55746 0.0901736 6.56423 0.0696746 6.56423C0.0491756 6.56423 0.0292545 6.55746 0.0130286 6.54493C-0.00434286 6.49844 -0.00434286 6.44722 0.0130286 6.40073V2.33252C-0.00142697 2.27157 -0.00142697 2.20809 0.0130286 2.14714C0.0339599 2.09063 0.0740517 2.04325 0.126321 2.01325L0.332302 1.88966C0.348528 1.87714 0.368449 1.87033 0.388948 1.87033C0.409447 1.87033 0.429368 1.87714 0.445594 1.88966C0.463332 1.93253 0.463332 1.98069 0.445594 2.02356L0.280811 2.26045Z" fill="#455A64"/>
</svg>
