<svg width="23" height="24" viewBox="0 0 23 24" fill="none" xmlns="http://www.w3.org/2000/svg">
<path d="M22.4275 18.0236C22.4275 18.0236 20.3624 18.6699 20.6515 17.8998C20.6781 16.8047 20.4862 15.7154 20.087 14.6952C19.5146 14.3973 19.0375 13.9445 18.7103 13.3887C18.1045 12.3984 18.903 10.7205 18.7103 9.44144C18.5175 8.16238 12.3222 11.8758 11.2483 12.0683C10.1744 12.2609 3.9377 11.807 3.9377 11.807C3.9377 11.807 5.68618 15.4517 5.12171 16.0018C4.55724 16.552 4.46088 18.5324 4.46088 18.5324C4.9765 19.8149 5.3594 21.1468 5.60359 22.5071C5.49345 23.181 4.22683 23.8825 3.96524 23.2361C3.70366 22.5897 2.67109 17.0883 2.67109 17.0883C2.67109 17.0883 1.21174 17.5559 0.68857 14.5715C0.165403 11.587 0.68857 4.66903 3.44208 2.86734C6.19559 1.06565 13.0794 -0.130865 16.0807 0.87313C19.082 1.87712 22.2348 8.38245 22.0145 10.8305C21.9593 13.2354 22.0974 15.6408 22.4275 18.0236Z" fill="#071C54" stroke="#071C54" stroke-linecap="round" stroke-linejoin="round"/>
</svg>
