<svg width="1" height="7" viewBox="0 0 1 7" fill="none" xmlns="http://www.w3.org/2000/svg">
<path d="M0.48125 6.47897C0.497381 6.55018 0.497381 6.62407 0.48125 6.69529C0.45588 6.75643 0.412112 6.80818 0.356005 6.84332L0.128268 6.97995C0.112112 6.99289 0.0920373 6.99997 0.0713405 6.99997C0.0506438 6.99997 0.0305605 6.99289 0.0144041 6.97995C-0.00480137 6.92855 -0.00480137 6.87196 0.0144041 6.82056V0.489615C0.000288697 0.418191 0.000288697 0.344691 0.0144041 0.273267C0.0367908 0.216728 0.0766928 0.168849 0.128268 0.136634L0.356005 0C0.356005 0 0.44709 0 0.48125 0C0.500861 0.0473933 0.500861 0.100603 0.48125 0.147996V6.47897Z" fill="#455A64"/>
</svg>
