<svg width="4" height="7" viewBox="0 0 4 7" fill="none" xmlns="http://www.w3.org/2000/svg">
<path d="M2.90459 3.63218L3.5284 0.422593C3.54106 0.363214 3.56135 0.30571 3.58876 0.251535C3.6152 0.191156 3.66131 0.141523 3.71957 0.110691L3.90066 0C3.90066 0 3.9711 0 3.99123 0C4.01135 0 3.99123 0.0603635 3.99123 0.120732V0.191169L3.136 4.60814C3.14175 4.6751 3.14175 4.7424 3.136 4.80935C3.11358 4.86339 3.0749 4.9091 3.02533 4.94016L2.85428 5.04078C2.80398 5.04078 2.76373 5.04078 2.74361 5.04078L2.68324 4.90997L2.01918 2.45499L1.3652 5.66458C1.34782 5.7369 1.32425 5.80758 1.29476 5.87586C1.2756 5.92884 1.24045 5.97455 1.19416 6.00666L1.0231 6.10728C1.0231 6.10728 0.932561 6.10728 0.912439 6.10728C0.882695 6.0688 0.862043 6.02408 0.852057 5.97648L0.00690257 2.53546C0.00690257 2.53546 0.00690257 2.53547 0.00690257 2.4751C-0.00230086 2.41845 -0.00230086 2.36071 0.00690257 2.30407C0.0273168 2.26587 0.0546057 2.23175 0.0873957 2.20345L0.278565 2.09279C0.332226 2.09279 0.372467 2.09279 0.399297 2.09279C0.428515 2.11996 0.449443 2.15482 0.459663 2.19338L1.08348 4.67855L1.74752 1.44885C1.7445 1.39523 1.7445 1.34148 1.74752 1.28786C1.77357 1.23039 1.81546 1.18154 1.86827 1.14702L1.989 1.07658C2.04937 1.07658 2.08961 1.07658 2.10973 1.07658C2.11911 1.11287 2.11911 1.15094 2.10973 1.18724L2.90459 3.63218Z" fill="#455A64"/>
</svg>
