<svg width="3" height="7" viewBox="0 0 3 7" fill="none" xmlns="http://www.w3.org/2000/svg">
<path d="M2.69571 5.17481C2.71261 5.24573 2.71261 5.31962 2.69571 5.39054C2.67345 5.44998 2.6339 5.50139 2.58217 5.53816L2.34373 5.6744C2.32762 5.6873 2.30759 5.69433 2.28696 5.69433C2.26632 5.69433 2.2463 5.6873 2.23019 5.6744C2.21957 5.64925 2.2141 5.62222 2.2141 5.59491C2.2141 5.56761 2.21957 5.54058 2.23019 5.51542V2.98343C2.27356 2.63968 2.18867 2.292 1.99175 2.00694C1.84414 1.84797 1.6284 1.85933 1.3559 2.00694C1.07143 2.17974 0.848881 2.43806 0.720059 2.74496C0.549736 3.1387 0.468324 3.56515 0.481619 3.99395V6.48055C0.498511 6.55147 0.498511 6.62537 0.481619 6.69629C0.459353 6.75572 0.41981 6.80713 0.368077 6.8439L0.129628 6.98015C0.113518 6.99304 0.0935 7.00007 0.0728618 7.00007C0.0522236 7.00007 0.0321973 6.99304 0.0160866 6.98015C0.00546912 6.95499 0 6.92796 0 6.90066C0 6.87335 0.00546912 6.84632 0.0160866 6.82117V0.508153C0.000947466 0.440868 0.000947466 0.371068 0.0160866 0.303783C0.0354265 0.242774 0.0756212 0.190513 0.129628 0.156171L0.368077 0.0199242C0.384188 0.00702531 0.404206 0 0.424844 0C0.445482 0 0.465508 0.00702531 0.481619 0.0199242C0.501175 0.0671832 0.501175 0.120277 0.481619 0.167536V2.30216C0.567637 2.06729 0.686112 1.8456 0.833601 1.64359C0.98946 1.41083 1.19998 1.21982 1.44674 1.08724C1.61093 0.984965 1.79854 0.926346 1.99175 0.916927C2.14924 0.924291 2.29862 0.988895 2.41185 1.0986C2.54944 1.24123 2.6473 1.41736 2.69571 1.60953C2.76879 1.88733 2.80318 2.17389 2.79791 2.4611L2.69571 5.17481Z" fill="#455A64"/>
</svg>
