<svg width="163" height="334" viewBox="0 0 163 334" fill="none" xmlns="http://www.w3.org/2000/svg">
<path d="M162.716 238.549C162.716 241.343 160.713 243.126 158.319 244.559L4.39693 333.399C1.97311 334.801 0 333.669 0 330.855V96.9159C0.00112025 95.3756 0.408141 93.8629 1.18006 92.5301C1.95198 91.1973 3.06153 90.0914 4.39693 89.3239L158.309 0.413801C158.756 0.154875 159.263 0.0182539 159.779 0.0177296C160.295 0.0172054 160.802 0.152795 161.249 0.410813C161.696 0.668831 162.067 1.04015 162.325 1.48733C162.582 1.93451 162.717 2.44172 162.716 2.9578V238.549Z" fill="#FAFAFA"/>
<path d="M158.309 0.413789L4.39646 89.3239C3.06479 90.0939 1.95926 91.2009 1.19096 92.5335C0.422657 93.8662 0.0186555 95.3776 0.0195636 96.9159V126.503L162.746 32.5544V2.95779C162.75 2.43725 162.616 1.92499 162.357 1.47354C162.097 1.02209 161.723 0.647712 161.271 0.388786C160.82 0.129861 160.307 -0.00428906 159.787 0.000104556C159.266 0.00449817 158.756 0.147278 158.309 0.413789Z" fill="#071C54"/>
<path opacity="0.3" d="M158.309 0.413789L4.39646 89.3239C3.06479 90.0939 1.95926 91.2009 1.19096 92.5335C0.422657 93.8662 0.0186555 95.3776 0.0195636 96.9159V126.503L162.746 32.5544V2.95779C162.75 2.43725 162.616 1.92499 162.357 1.47354C162.097 1.02209 161.723 0.647712 161.271 0.388786C160.82 0.129861 160.307 -0.00428906 159.787 0.000104556C159.266 0.00449817 158.756 0.147278 158.309 0.413789Z" fill="black"/>
</svg>
