<svg width="1" height="7" viewBox="0 0 1 7" fill="none" xmlns="http://www.w3.org/2000/svg">
<path d="M0.479537 6.49221C0.494539 6.56329 0.494539 6.63671 0.479537 6.70779C0.45358 6.76537 0.409832 6.81309 0.354727 6.84394L0.127805 6.98009C0.111706 6.99298 0.091694 7 0.0710705 7C0.0504471 7 0.0304523 6.99298 0.0143531 6.98009C-0.00478436 6.92887 -0.00478436 6.87248 0.0143531 6.82126V0.512742C0.000287675 0.441571 0.000287675 0.368332 0.0143531 0.297161C0.0395708 0.239471 0.0785146 0.188825 0.127805 0.149654L0.354727 0.0248615C0.371585 0.00890161 0.393926 0 0.41714 0C0.440355 0 0.462679 0.00890161 0.479537 0.0248615C0.479537 0.0248615 0.479537 0.104256 0.479537 0.172334V6.49221Z" fill="#071C54"/>
</svg>
