<svg width="126" height="107" viewBox="0 0 126 107" fill="none" xmlns="http://www.w3.org/2000/svg">
<path fill-rule="evenodd" clip-rule="evenodd" d="M20.5724 35.7487C22.1786 36.7081 23.7568 37.1718 24.4976 36.9826C26.3554 36.508 26.5263 29.7722 25.0888 27.1168C23.6515 24.4615 16.262 23.3039 15.8895 28.5652C15.7601 30.3912 16.5339 32.0209 17.6768 33.3506L15.6274 42.8182H21.5806L20.5724 35.7487Z" fill="#B28B67"/>
<path fill-rule="evenodd" clip-rule="evenodd" d="M13.2938 26.8138C13.1015 26.6251 12.9966 26.3554 12.9058 26.0996C12.8118 25.8336 12.7201 25.5651 12.6576 25.2882C12.5326 24.7353 12.5313 24.0993 12.9295 23.67C13.2485 23.3258 13.7275 23.1711 14.1696 23.1377C14.4641 23.1154 14.7666 23.1561 15.0489 23.2481C15.3288 23.3393 15.5704 23.5213 15.8418 23.6341C15.8522 23.0382 15.9553 22.4147 16.2603 21.906C16.5537 21.4163 17.0219 21.1416 17.5547 21.069C18.1016 20.9944 18.642 21.1213 19.1315 21.3837C19.2541 21.4493 19.3758 21.5182 19.4919 21.5963C19.5893 21.6614 19.6904 21.7402 19.8046 21.7666C19.932 21.7962 19.9949 21.7233 20.0777 21.6313C20.1747 21.5234 20.284 21.4283 20.3997 21.3441C20.9111 20.9714 21.5822 20.8184 22.1746 21.0416C22.4475 21.1444 22.7132 21.3192 22.8982 21.56C23.0634 21.7747 23.1811 22.1152 23.409 22.2646C23.5057 22.3283 23.5739 22.2441 23.662 22.182C23.7943 22.0886 23.9204 21.9853 24.0542 21.8946C24.2421 21.7669 24.4457 21.6715 24.6637 21.6214C24.9828 21.5484 25.4237 21.5654 25.5149 21.9797C25.5491 22.1352 25.5231 22.3016 25.5118 22.4584C25.4968 22.6736 25.4809 22.8888 25.4619 23.1038C25.4478 23.2669 25.4297 23.4246 25.3986 23.5849C25.382 23.6702 25.3301 23.8294 25.367 23.9152C25.4133 24.0221 25.6264 23.9613 25.7174 23.965C25.8974 23.9722 26.078 24.0035 26.2443 24.0796C26.3732 24.1389 26.5088 24.2257 26.5631 24.372C26.5967 24.4619 26.5879 24.5544 26.572 24.6469C26.553 24.758 26.5748 24.8169 26.589 24.9291C26.8305 24.8112 27.6677 24.5492 27.773 24.9783C27.8081 25.1211 27.7282 25.2825 27.6672 25.403C27.5603 25.6145 27.4203 25.8076 27.277 25.992C26.9783 26.3762 26.6216 26.7078 26.2379 26.9912C26.6875 27.1893 26.8049 27.7737 26.4154 28.1219C26.2436 28.2756 26.0124 28.31 25.7956 28.3001C25.7163 28.2964 25.6019 28.2662 25.5394 28.28C25.5059 28.2872 25.4699 28.3154 25.4233 28.3187C25.1172 28.3395 24.7719 28.2665 24.4727 28.1991C23.9398 28.0792 23.435 27.8288 23.023 27.4476C22.9172 27.3499 22.83 27.2937 22.6878 27.295C22.563 27.2963 22.4407 27.3302 22.3162 27.3333C21.9865 27.3416 21.6893 27.1819 21.3832 27.0756C21.3647 27.4855 21.2467 27.9369 21.0776 28.3054C20.9398 28.6061 20.6519 28.6498 20.3688 28.6761C19.4636 28.7605 18.5554 28.6662 17.6494 28.6676C18.5265 28.8642 19.433 28.9451 20.3023 29.1763C20.6954 29.2808 20.3953 29.5435 20.2272 29.7254C19.9506 30.025 19.7448 30.3964 19.6021 30.7874C19.1731 30.233 18.4145 29.8678 17.7426 30.0382C17.0002 30.2262 16.4773 31.2213 16.9521 31.9369C17.2277 32.3522 17.7254 32.5126 18.1396 32.691C17.8166 33.0239 17.7384 33.5155 17.5439 33.9297C17.448 34.134 17.3133 34.365 17.0989 34.4363C17.0194 34.4625 16.9265 34.4649 16.8638 34.529C16.7862 34.6084 16.7679 34.6972 16.6688 34.7654C16.2735 35.0377 15.6563 35.0167 15.3059 34.6613C14.9892 34.3398 15.0716 33.8313 15.3361 33.5055C14.915 33.3314 14.1477 33.1076 14.3151 32.4574C13.4027 32.3973 11.187 30.9305 12.4116 29.8586C11.7395 29.482 11.1221 28.5619 11.5538 27.7508C11.8863 27.1261 12.6594 26.8471 13.2938 26.8138Z" fill="#191847"/>
<path fill-rule="evenodd" clip-rule="evenodd" d="M6.85173 73.7949H26.0149L28.5258 104.28H0L6.85173 73.7949Z" fill="#C5CFD6"/>
<path fill-rule="evenodd" clip-rule="evenodd" d="M6.85173 73.7949H12.7456L16.2731 104.28H0L6.85173 73.7949Z" fill="black" fill-opacity="0.1"/>
<path fill-rule="evenodd" clip-rule="evenodd" d="M36.5438 79.8345C34.3904 84.361 31.0254 95.3488 31.0254 95.3488L33.8821 96.6424C33.8821 96.6424 41.1304 85.0921 45.5602 77.1966C45.3537 78.9739 45.1435 80.9751 44.9488 83.0788C44.4873 88.0623 44.9485 98.8288 45.1967 101.939C45.3529 103.893 48.0327 103.484 48.2827 101.934C48.3251 101.671 48.4977 100.749 48.7554 99.374C50.0187 92.6299 53.3253 74.9794 53.331 70.6576C53.3334 68.9185 49.9055 67.3563 47.8622 68.5723C46.4589 67.0879 43.8027 66.2326 42.2769 68.6842C41.3068 70.2429 39.002 74.6677 36.5438 79.8345Z" fill="#B28B67"/>
<path fill-rule="evenodd" clip-rule="evenodd" d="M31.2293 91.281L41.0342 68.2602C43.383 64.5154 49.9687 69.0224 49.1676 71.1943C47.3491 76.1254 38.1002 92.0896 37.5586 93.5586L31.2293 91.281Z" fill="#041235"/>
<path fill-rule="evenodd" clip-rule="evenodd" d="M31.3843 93.9525C31.2326 93.7452 30.9364 93.6962 30.7379 93.8604C30.3321 94.1961 29.7118 94.7433 29.4932 95.1184C29.1578 95.6942 28.7077 96.9098 28.7077 96.9098C29.3819 97.2956 40.824 103.843 40.824 103.843C40.824 103.843 42.1977 102.566 41.2519 101.86C40.3064 101.155 39.6912 100.67 39.6912 100.67L35.4928 94.9369C35.4197 94.8369 35.2779 94.8166 35.1792 94.8918L34.2882 95.572C34.2882 95.572 33.0925 95.4685 32.5036 95.1315C32.1302 94.9178 31.6707 94.3442 31.3843 93.9525Z" fill="#E4E4E4"/>
<path fill-rule="evenodd" clip-rule="evenodd" d="M45.2026 100.393C44.9666 100.288 44.6853 100.393 44.5963 100.633C44.4141 101.125 44.1529 101.906 44.1529 102.339C44.1529 103.004 44.3763 104.28 44.3763 104.28C45.1547 104.28 58.3669 104.28 58.3669 104.28C58.3669 104.28 58.9123 102.493 57.7373 102.351C56.5624 102.208 55.7853 102.093 55.7853 102.093L49.2571 99.209C49.1433 99.1587 49.0104 99.2114 48.9629 99.3253L48.5343 100.356C48.5343 100.356 47.4466 100.859 46.7665 100.859C46.3354 100.859 45.6482 100.59 45.2026 100.393Z" fill="#E4E4E4"/>
<path fill-rule="evenodd" clip-rule="evenodd" d="M54.0182 72.4263C54.0182 78.9578 50.8888 94.193 50.8868 95.6312L44.1532 95.6362C44.1532 95.6362 45.6315 75.2449 45.2016 75.0251C44.7717 74.8055 27.5773 76.7266 22.4206 76.7266C14.9844 76.7266 11.9081 72.079 11.6584 63.4693H26.3893C29.3887 63.7873 45.0336 66.915 50.8437 67.9901C53.331 68.4503 54.0182 70.627 54.0182 72.4263Z" fill="#071C54"/>
<path fill-rule="evenodd" clip-rule="evenodd" d="M33.9158 66.4844C29.2049 76.2083 9.37419 69.6427 9.37419 69.6427C9.37419 67.9576 10.0486 66.2683 10.7567 64.4942C11.5159 62.5919 12.3144 60.5921 12.3621 58.3953C12.4499 54.3537 13.2124 42.1083 16.3944 37.9718C16.4525 37.785 16.5112 37.5976 16.5708 37.4095L16.7912 37.5123C16.8254 37.4771 16.8601 37.443 16.895 37.4095L23.8381 38.4735C23.8381 41.5861 25.8478 44.5375 27.657 47.1945C28.097 47.8407 28.5254 48.4697 28.9101 49.0795C29.4138 49.8779 29.9824 50.6909 30.5649 51.5239C33.5152 55.7422 36.8266 60.4762 33.9158 66.4844Z" fill="#C1DEE2"/>
<path fill-rule="evenodd" clip-rule="evenodd" d="M25.0193 64.6464C25.4837 62.2713 25.7849 60.6857 25.9231 59.8897C29.622 64.0325 31.7588 66.1279 32.3336 66.1758C33.415 66.2663 34.2137 65.3161 34.4413 65.5831C34.8172 66.6895 33.7553 69.4587 31.7255 69.8614C30.7563 70.0538 29.2563 68.0726 28.6383 67.3708C28.3954 67.0946 27.189 66.1865 25.0193 64.6464ZM31.4089 51.984C32.3676 51.984 32.8826 52.3768 33.4496 53.1696C34.0165 53.9622 34.5531 57.7007 33.6429 57.7007C32.7327 57.7007 28.9189 56.2555 28.9189 55.284C28.9189 54.3123 31.521 53.9009 31.521 53.1696C31.521 52.438 30.4498 51.984 31.4089 51.984Z" fill="#B28B67"/>
<path fill-rule="evenodd" clip-rule="evenodd" d="M15.2713 42.0115C12.8359 52.0746 13.8281 60.5618 23.0832 68.2603C22.9743 68.647 22.9092 68.8781 22.9092 68.8781C12.0456 61.3528 12.0403 52.2334 15.2713 42.0115Z" fill="black" fill-opacity="0.2"/>
<path fill-rule="evenodd" clip-rule="evenodd" d="M90.4921 20.2353C88.8835 21.1956 87.3029 21.6595 86.5609 21.4701C84.7003 20.9953 84.5294 14.2542 85.9689 11.5968C87.4084 8.93911 94.8089 7.78087 95.1818 13.0463C95.3112 14.8736 94.5366 16.5047 93.3919 17.8352L95.4444 27.3103H89.4823L90.4921 20.2353Z" fill="#B28B67"/>
<path fill-rule="evenodd" clip-rule="evenodd" d="M89.3673 8.5339C90.1532 8.40617 92.2688 8.31848 92.659 8.31848C92.9083 8.31848 93.1786 8.3749 93.3263 8.14833C93.4471 7.96243 93.4029 7.64859 93.4389 7.43295C93.4809 7.18276 93.5405 6.93563 93.6006 6.68915C93.7719 5.98777 94.0311 5.32051 94.3935 4.69415C95.0738 3.51885 96.0704 2.59811 97.3284 2.06251C98.7178 1.47092 100.29 1.33555 101.784 1.4554C103.383 1.58377 104.831 2.10669 106.341 2.59877C107.78 3.06766 109.287 3.25203 110.791 3.02327C112.308 2.79254 113.453 1.97853 114.732 1.20608C116.041 0.415254 117.538 -0.101978 119.085 0.0169955C120.53 0.127877 121.862 0.718808 123.056 1.5081C124.175 2.24644 125.096 3.13503 125.617 4.38534C126.178 5.73036 126.176 7.20682 125.255 8.39568C123.921 10.1186 121.442 10.5643 119.38 10.5199C118.187 10.4943 117.015 10.2787 115.889 9.88657C114.387 9.36321 113.089 8.4766 111.685 7.75707C111.025 7.41939 110.344 7.14208 109.629 6.9424C108.936 6.74863 108.253 6.65962 107.626 7.07428C106.962 7.51321 106.366 7.94428 105.607 8.21897C104.878 8.48228 104.106 8.62969 103.33 8.62379C101.819 8.61219 100.33 8.14614 98.8633 7.83383C97.6669 7.57927 96.3868 7.32557 95.167 7.5703C94.658 7.67243 93.9148 7.88326 93.7308 8.40727C96.8247 8.96255 98.0399 12.7522 97.1676 15.5341C96.6968 17.0357 93.8671 18.791 92.767 18.0017C92.0699 17.5015 92.4932 16.845 92.767 16.4115C93.2914 15.5816 93.4709 14.5154 92.5004 13.9376C91.6633 13.4392 90.7832 14.6228 90.7664 14.6215C90.5365 14.6035 88.5483 13.4899 87.1788 11.8649C85.8274 11.9443 85.6224 11.0619 85.945 10.3402C86.2677 9.61866 88.2815 8.71039 89.3673 8.5339Z" fill="#191847"/>
<path fill-rule="evenodd" clip-rule="evenodd" d="M99.4108 48.087L90.0764 78.37L85.5547 104.123H82.0093L86.7873 48.087H99.4108Z" fill="#997659"/>
<path fill-rule="evenodd" clip-rule="evenodd" d="M102.75 48.087C102.116 64.714 102.863 73.2904 103.004 74.801C103.146 76.3115 105.089 86.1065 109.689 104.631L105.911 103.343C98.6417 86.3539 96.1643 77.5242 95.3305 75.2933C94.4967 73.0625 92.2821 63.9936 88.687 48.087H102.75Z" fill="#B28B67"/>
<path fill-rule="evenodd" clip-rule="evenodd" d="M109.027 103.025C109.263 102.921 109.545 103.025 109.634 103.266C109.816 103.759 110.077 104.541 110.077 104.975C110.077 105.64 109.854 106.918 109.854 106.918C109.075 106.918 95.863 106.918 95.863 106.918C95.863 106.918 95.3178 105.129 96.4928 104.986C97.6675 104.843 98.4448 104.728 98.4448 104.728L104.973 101.84C105.087 101.79 105.22 101.843 105.267 101.957L105.696 102.989C105.696 102.989 106.784 103.492 107.463 103.492C107.894 103.492 108.582 103.223 109.027 103.025Z" fill="#E4E4E4"/>
<path fill-rule="evenodd" clip-rule="evenodd" d="M85.7103 103.025C85.9466 102.921 86.2281 103.025 86.3171 103.266C86.4991 103.759 86.7603 104.541 86.7603 104.975C86.7603 105.64 86.5368 106.918 86.5368 106.918C85.7584 106.918 72.5463 106.918 72.5463 106.918C72.5463 106.918 72.0009 105.129 73.1758 104.986C74.3508 104.843 75.1281 104.728 75.1281 104.728L81.6561 101.84C81.7698 101.79 81.903 101.843 81.9502 101.957L82.3791 102.989C82.3791 102.989 83.4666 103.492 84.1467 103.492C84.5777 103.492 85.2647 103.223 85.7103 103.025Z" fill="#E4E4E4"/>
<path fill-rule="evenodd" clip-rule="evenodd" d="M100.651 48.087L96.6827 63.5157H84.5603L86.3677 48.087H100.651Z" fill="#041235"/>
<path fill-rule="evenodd" clip-rule="evenodd" d="M102.884 48.087C104.843 53.9136 103.628 63.5157 103.628 63.5157H91.2576L87.8562 48.087H102.884Z" fill="#071C54"/>
<path fill-rule="evenodd" clip-rule="evenodd" d="M116.382 55.8475C115.456 54.5018 109.213 36.3942 109.213 36.3942L103.829 37.164C103.829 37.164 112.781 56.0198 113.292 56.8968C113.957 58.036 113.368 59.9075 112.969 61.1766C112.907 61.3728 112.85 61.5547 112.803 61.7172C113.64 61.9561 113.959 61.4821 114.295 60.9824C114.674 60.4181 115.076 59.8209 116.272 60.1811C116.734 60.3202 117.178 60.4988 117.611 60.6734C119.109 61.2765 120.485 61.8305 122.066 60.5338C122.317 60.3283 122.528 59.6562 121.732 59.2647C119.748 58.2897 116.834 56.5051 116.382 55.8475ZM69.9846 54.9117L75.9994 47.2206L78.876 50.8578L72.2287 56.0903C70.8133 59.1731 69.9196 60.5443 69.5478 60.204C69.2342 59.9171 69.3064 59.5449 69.3729 59.2019C69.4248 58.9349 69.4731 58.6854 69.3329 58.5082C69.013 58.1036 67.5938 58.5583 66.2658 59.0469C64.9378 59.5355 65.1604 58.8258 65.4024 58.438C66.5509 57.2244 68.0782 56.0489 69.9846 54.9117Z" fill="#B28B67"/>
<path fill-rule="evenodd" clip-rule="evenodd" d="M90.6548 23.5714L88.4764 23.5067C86.7872 35.6842 70.7027 46.0636 70.267 50.5885C70.1071 52.2481 71.3909 52.8969 70.8568 53.4699L73.9056 55.0861C74.2971 54.4808 75.4365 55.3298 77.4252 54.3483C79.4137 53.3667 92.6225 37.4382 90.6548 23.5714Z" fill="#DCA41D"/>
<path fill-rule="evenodd" clip-rule="evenodd" d="M94.1993 20.577C94.6765 20.4766 95.1455 20.7784 95.2471 21.251L95.5726 22.7668C100.008 25.2555 111.222 32.9756 116.211 49.5587C116.736 51.3006 116.38 52.3224 116.096 53.1386C115.901 53.6972 115.74 54.1595 115.917 54.6905L112.438 56.1816C112.381 55.7792 111.882 55.5367 111.237 55.2237C110.3 54.7686 109.057 54.1648 108.422 52.7043C107.82 51.3199 106.982 49.6029 106.002 47.6993C106.312 50.3578 106.149 52.865 105.329 55.0372C103.281 60.4562 86.5367 57.1564 84.1404 52.2524C82.8617 49.6355 83.7977 47.1587 85.0358 43.8832C86.6074 39.725 88.6654 34.2797 87.2977 25.6264L86.7423 23.0402C86.6407 22.5678 86.9452 22.1033 87.4224 22.0029L94.1993 20.577Z" fill="#FAB91D"/>
</svg>
