<svg width="124" height="227" viewBox="0 0 124 227" fill="none" xmlns="http://www.w3.org/2000/svg">
<path d="M123.368 223.103C123.368 225.249 101.257 227 73.9812 227C46.7055 227 24.6077 225.249 24.6077 223.103C24.6077 220.958 46.7191 219.194 73.9812 219.194C101.243 219.194 123.368 220.945 123.368 223.103Z" fill="#071C54"/>
<path d="M22.1345 16.4453C22.1345 16.4453 16.8343 13.7301 16.8343 8.8019C16.8343 3.87372 28.4268 -0.620042 38.239 0.751162C48.0512 2.12237 52.7806 14.0966 51.9924 20.9662C51.2041 27.8358 51.8021 32.5468 58.2847 37.0541C64.7673 41.5615 76.55 55.5043 71.875 62.564C67.1999 69.6236 61.4648 71.9859 65.7865 77.4979C70.1082 83.0098 70.8965 89.2685 65.2021 93.5858C62.6036 95.7245 59.4404 97.0653 56.0952 97.446C52.7499 97.8267 49.3659 97.2309 46.3524 95.7308C39.8698 92.5947 33.197 81.2042 34.9637 72.7733C36.7305 64.3425 31.0362 39.6065 29.4597 30.7819C27.8832 21.9573 26.0621 16.839 22.1345 16.4453Z" fill="#071C54" stroke="#071C54" stroke-linecap="round" stroke-linejoin="round"/>
<path d="M28.685 83.5664C28.685 83.5664 19.6474 91.6172 16.3178 93.9659C14.4322 95.4853 12.0505 96.2542 9.6314 96.1245C8.44905 96.1245 5.55431 94.7669 3.93707 96.3281C2.31982 97.8894 0.0094432 102.41 0.593826 102.804C1.17821 103.198 6.09791 99.6543 6.68229 99.6543C7.26668 99.6543 8.84314 99.4643 8.84314 99.4643C8.84314 99.4643 4.52144 102.6 5.49994 103.184C6.47844 103.768 9.04699 102.017 10.0255 101.419C11.5423 100.198 12.9854 98.8876 14.3472 97.4957C14.3472 97.4957 25.3418 91.6172 27.9375 91.0198C30.5333 90.4224 32.8572 86.1188 32.6534 84.7475C32.5199 84.3664 32.2978 84.0224 32.0054 83.7437C31.713 83.465 31.3585 83.2595 30.9712 83.1442C30.5839 83.0289 30.1747 83.0071 29.7772 83.0805C29.3798 83.1539 29.0055 83.3204 28.685 83.5664Z" fill="white" stroke="#071C54" stroke-linecap="round" stroke-linejoin="round"/>
<path d="M26.0619 34.9498C27.6007 36.8969 28.5149 39.2629 28.6848 41.7379C28.6848 45.4714 22.9904 52.341 21.0198 58.2195C19.0492 64.098 20.6393 68.0352 22.2022 70.1938C23.7651 72.3524 26.5239 75.8822 26.7278 77.8508C26.9316 79.8194 27.7063 83.2813 27.7063 83.2813C27.7063 83.2813 34.3791 85.2499 47.5481 79.9551C47.5481 79.9551 48.9071 49.7343 48.5266 45.8108C48.1461 41.8872 42.8323 39.3349 40.2773 38.9412C37.7223 38.5475 34.7732 36.9726 33.7947 35.0176C33.2081 33.8258 32.7525 32.574 32.4357 31.2842L26.0619 34.9498Z" fill="#FAB91D" stroke="#071C54" stroke-linecap="round" stroke-linejoin="round"/>
<path d="M38.7008 38.6561C36.6592 38.1263 34.8869 36.8589 33.7268 35.0991C33.1402 33.9073 32.6845 32.6555 32.3677 31.3657L26.0754 34.8955C27.6196 36.8593 28.5296 39.2456 28.6848 41.7379C28.6848 43.435 27.5024 45.8108 26.0346 48.4039C27.1762 50.8748 29.3099 53.5221 32.7483 51.0241C36.1866 48.5261 37.8718 42.7697 38.7008 38.6561Z" fill="white" stroke="#071C54" stroke-linecap="round" stroke-linejoin="round"/>
<path d="M25.7496 8.51681C25.7496 8.51681 21.6725 11.8294 20.9115 14.694C20.1504 17.5586 17.6498 24.1974 18.1934 26.6276C18.737 29.0577 19.1448 36.4025 22.0123 37.1084C24.8799 37.8144 33.931 32.1124 35.358 29.4922C36.785 26.8719 37.9809 20.1924 34.8823 13.7573C31.7837 7.3221 26.9456 6.14096 25.7496 8.51681Z" fill="white" stroke="#071C54" stroke-linecap="round" stroke-linejoin="round"/>
<path d="M24.7981 6.14091C24.7981 6.14091 30.5196 11.5714 31.2399 18.7669C31.9602 25.9623 29.0927 33.7008 35.317 39.0227C41.5414 44.3446 51.7748 38.3031 51.7748 38.3031C47.6561 35.1263 44.8545 30.5439 43.9061 25.4328C42.7101 17.287 40.8075 9.94228 36.9886 7.56643C33.1697 5.19058 26.2251 5.177 24.7981 6.14091Z" fill="#071C54" stroke="#071C54" stroke-linecap="round" stroke-linejoin="round"/>
<path d="M103.432 138.903C103.432 138.903 109.914 135.183 110.689 135.577C111.464 135.971 118.938 145.773 119.142 146.75C119.346 147.728 117.96 148.325 117.172 147.932C116.383 147.538 110.105 143.031 108.528 142.827C106.952 142.623 104.451 142.053 104.451 142.053L103.432 138.903Z" fill="#FAB91D" stroke="#071C54" stroke-linecap="round" stroke-linejoin="round"/>
<path d="M38.1983 209.554C38.0507 211.894 37.5937 214.204 36.8393 216.424C35.8608 218.392 32.3273 221.719 32.3273 222.506C32.3273 223.293 32.9117 223.483 33.8902 223.483C36.3845 223.135 38.7153 222.042 40.5766 220.347C41.6756 218.896 42.5887 217.314 43.2947 215.636C43.8927 214.849 46.2438 213.871 46.4476 212.107C46.6515 210.342 44.0829 207.396 44.0829 207.396L38.1983 209.554Z" fill="#FAB91D" stroke="#071C54" stroke-linecap="round" stroke-linejoin="round"/>
<path d="M27.6385 83.3628C27.6385 83.3628 22.9227 112.81 23.5614 128.708C24.2001 144.605 32.5989 183.651 34.5695 191.892C36.5401 200.132 38.2933 209.541 38.2933 209.541L44.1915 207.382C44.1915 207.382 45.9582 187.954 44.3953 175.79C42.8324 163.626 40.658 145.366 41.2423 139.487C41.8267 133.609 41.8403 124.553 41.8403 124.553C41.8403 124.553 49.8858 151.828 53.229 157.53C56.5722 163.232 58.339 163.802 60.8939 163.612C63.4489 163.422 86.8242 152.222 90.1674 150.267C93.5106 148.312 104.505 142.026 104.505 142.026L103.527 138.876C103.527 138.876 87.2183 143.397 80.7357 145.556C74.2532 147.714 65.0118 150.457 65.0118 150.457C65.0118 150.457 63.245 128.287 61.0842 115.729C58.9233 103.171 50.4838 82.7519 47.4939 80.0095C47.4803 80.0366 40.9978 83.8244 27.6385 83.3628Z" fill="#071C54" stroke="#071C54" stroke-linecap="round" stroke-linejoin="round"/>
<path d="M42.0711 125.558L37.3145 107.8" stroke="white" stroke-linecap="round" stroke-linejoin="round"/>
<path d="M40.984 44.4532C39.5817 46.9246 39.1644 49.8335 39.8153 52.599C40.9841 56.9434 48.5131 78.9505 48.5131 78.9505C48.5131 78.9505 40.1143 84.4489 35.48 87.6258C31.6632 90.0881 27.6962 92.3099 23.6021 94.2781C22.8688 93.9597 22.0777 93.7954 21.2781 93.7954C20.4785 93.7954 19.6875 93.9597 18.9542 94.2781C16.9292 95.4457 12.8793 100.36 13.7491 100.944C14.6189 101.528 18.6688 98.3374 18.6688 98.3374C20.492 98.6284 22.3292 98.8233 24.1729 98.9212C25.9124 98.9212 29.1061 96.0159 29.1061 96.0159C29.1061 96.0159 56.6265 82.9962 57.4963 82.9962C58.3661 82.9962 48.2277 45.8108 48.2277 45.8108C48.2277 45.8108 46.4881 42.9191 43.8788 42.634" fill="#FAB91D"/>
<path d="M40.984 44.4532C39.5817 46.9246 39.1644 49.8335 39.8153 52.599C40.9841 56.9434 48.5131 78.9505 48.5131 78.9505C48.5131 78.9505 40.1143 84.4489 35.48 87.6257C31.6632 90.0881 27.6962 92.3099 23.6021 94.2781C22.8688 93.9597 22.0777 93.7954 21.2781 93.7954C20.4785 93.7954 19.6875 93.9597 18.9542 94.2781C16.9292 95.4457 12.8793 100.36 13.7491 100.944C14.6189 101.528 18.6688 98.3374 18.6688 98.3374C20.492 98.6284 22.3292 98.8233 24.1729 98.9212C25.9124 98.9212 29.1061 96.0159 29.1061 96.0159C29.1061 96.0159 56.6265 82.9962 57.4963 82.9962C58.3661 82.9962 48.2277 45.8108 48.2277 45.8108C48.2277 45.8108 46.4881 42.9191 43.8788 42.634" stroke="#071C54" stroke-linecap="round" stroke-linejoin="round"/>
<path d="M55.5664 73.6558L47.4123 75.4614C48.1054 77.525 48.5675 78.8691 48.5675 78.8691C48.5675 78.8691 40.1687 84.3675 35.5344 87.5443C31.7176 90.0066 27.7505 92.2284 23.6564 94.1967C22.9231 93.8783 22.1321 93.714 21.3325 93.714C20.5329 93.714 19.7419 93.8783 19.0086 94.1967C16.9836 95.3642 12.9337 100.279 13.8035 100.863C14.6732 101.446 18.7232 98.256 18.7232 98.256C20.5463 98.547 22.3836 98.7418 24.2272 98.8398C25.9668 98.8398 29.1605 95.9344 29.1605 95.9344C29.1605 95.9344 56.6808 82.9148 57.5506 82.9148C57.7817 82.9148 56.8847 78.9641 55.5664 73.6558Z" fill="white" stroke="#071C54" stroke-linecap="round" stroke-linejoin="round"/>
</svg>
