<svg width="2" height="6" viewBox="0 0 2 6" fill="none" xmlns="http://www.w3.org/2000/svg">
<path d="M1.64655 0.0203056C1.66297 0.0071598 1.68338 0 1.70442 0C1.72545 0 1.74585 0.0071598 1.76227 0.0203056C1.7728 0.043984 1.77824 0.0696114 1.77824 0.0955245C1.77824 0.121438 1.7728 0.147065 1.76227 0.170743V0.483167C1.77948 0.555443 1.77948 0.630756 1.76227 0.703032C1.73655 0.761868 1.69682 0.81352 1.64655 0.85347L1.27626 1.06175C1.02387 1.22814 0.822271 1.46094 0.693648 1.73452C0.565026 2.0081 0.514365 2.31186 0.547245 2.61238V5.48215C0.544244 5.55511 0.524441 5.62638 0.489383 5.69044C0.469673 5.75261 0.428709 5.80588 0.373668 5.84087L0.130663 5.97973C0.114244 5.99288 0.0938339 6.00004 0.0728007 6.00004C0.0517674 6.00004 0.0313665 5.99288 0.0149474 5.97973C-0.00498248 5.93157 -0.00498248 5.87747 0.0149474 5.82931V1.25847C-0.000700712 1.18602 -0.000700712 1.11107 0.0149474 1.03862C0.0406662 0.979786 0.0803926 0.928134 0.130663 0.888184L0.373668 0.749329C0.390087 0.736183 0.410496 0.729006 0.43153 0.729006C0.452563 0.729006 0.472964 0.736183 0.489383 0.749329C0.528768 0.793891 0.54949 0.851903 0.547245 0.911332V1.21219C0.616644 0.994 0.718039 0.787317 0.848112 0.598891C0.977591 0.437917 1.13424 0.300839 1.31097 0.193874L1.64655 0.0203056Z" fill="#455A64"/>
</svg>
