<svg width="50" height="50" viewBox="0 0 50 50" fill="none" xmlns="http://www.w3.org/2000/svg">
<path d="M20.3891 15.1807C21.612 13.9578 23.2706 13.2708 25 13.2708C26.7295 13.2708 28.3881 13.9578 29.6109 15.1807C30.8338 16.4036 31.5209 18.0622 31.5209 19.7916C31.5209 21.521 30.8338 23.1796 29.6109 24.4025C28.3881 25.6254 26.7295 26.3124 25 26.3124C23.2706 26.3124 21.612 25.6254 20.3891 24.4025C19.1662 23.1796 18.4792 21.521 18.4792 19.7916C18.4792 18.0622 19.1662 16.4036 20.3891 15.1807ZM22.2452 17.0368C21.5146 17.7674 21.1042 18.7583 21.1042 19.7916C21.1042 20.8248 21.5146 21.8157 22.2452 22.5464C22.9759 23.277 23.9668 23.6874 25 23.6874C26.0333 23.6874 27.0242 23.277 27.7548 22.5464C28.4854 21.8157 28.8959 20.8248 28.8959 19.7916C28.8959 18.7583 28.4854 17.7674 27.7548 17.0368C27.0242 16.3062 26.0333 15.8958 25 15.8958C23.9668 15.8958 22.9759 16.3062 22.2452 17.0368Z" fill="#171717" stroke="white" stroke-width="0.5"/>
<path d="M12.6623 28.0667L12.5853 28.2L7.19586 37.533C7.07018 37.7514 7.00999 38.0013 7.02249 38.2529C7.03499 38.5045 7.11963 38.7472 7.26632 38.952C7.41302 39.1569 7.61556 39.3151 7.84976 39.408C8.08396 39.5008 8.33993 39.5243 8.58711 39.4755L8.5872 39.4755L14.033 38.4047L14.2473 38.3626L14.3178 38.5692L16.1116 43.8192L16.1117 43.8195C16.1929 44.0585 16.3413 44.2689 16.539 44.4257C16.7368 44.5825 16.9755 44.6789 17.2267 44.7035C17.4778 44.728 17.7307 44.6797 17.9551 44.5642C18.1794 44.4487 18.3658 44.271 18.4917 44.0523L18.4919 44.0521L23.8669 34.7437L23.9441 34.6099L24.0984 34.6192C24.6989 34.6554 25.3011 34.6554 25.9016 34.6192L26.0559 34.6099L26.1332 34.7437L31.5082 44.0521L31.5083 44.0522C31.6343 44.2708 31.8208 44.4484 32.0453 44.5638C32.2698 44.6791 32.5227 44.7273 32.7739 44.7026C33.0251 44.6778 33.2638 44.5812 33.4614 44.4243C33.659 44.2673 33.8072 44.0567 33.8882 43.8177L33.8883 43.8175L35.6758 38.555L35.7463 38.3475L35.9613 38.3902L41.4112 39.4735C41.6585 39.5227 41.9148 39.4995 42.1493 39.4069C42.3838 39.3142 42.5866 39.156 42.7335 38.9511C42.8805 38.7462 42.9653 38.5033 42.9778 38.2515C42.9903 37.9997 42.9301 37.7497 42.8043 37.5312L12.6623 28.0667ZM12.6623 28.0667L12.5778 27.9379C11.1085 25.6975 10.2725 23.1015 10.1583 20.4248C10.0441 17.748 10.656 15.0902 11.9292 12.7329C13.2024 10.3755 15.0894 8.4064 17.3904 7.03407C19.6915 5.66175 22.3208 4.93732 25 4.9375H25.0001C27.6794 4.93695 30.3091 5.66111 32.6104 7.03329C34.9117 8.40546 36.799 10.3745 38.0725 12.732C39.3459 15.0894 39.9579 17.7473 39.8438 20.4242C39.7297 23.1012 38.8937 25.6974 37.4243 27.9379L37.3399 28.0667L37.4168 28.2L42.8042 37.531L12.6623 28.0667ZM21.0165 34.4292L21.1761 34.1528L20.8696 34.064C18.5391 33.3891 16.4097 32.1531 14.6678 30.4643L14.4376 30.2411L14.2773 30.5188L11.1898 35.8667L10.9147 36.3432L11.4545 36.237L14.8648 35.5662C14.8649 35.5661 14.8649 35.5661 14.8649 35.5661C15.1762 35.5051 15.4991 35.5588 15.7738 35.7174C16.0486 35.876 16.2566 36.1288 16.3593 36.4289L17.4843 39.7184L17.6623 40.2389L17.9374 39.7625L21.0165 34.4292ZM32.0585 39.7542L32.3344 40.2318L32.5117 39.7096L33.6305 36.4158L33.6305 36.4157C33.7327 36.1142 33.941 35.8601 34.2166 35.7007C34.4921 35.5414 34.8162 35.4876 35.1284 35.5494C35.1285 35.5494 35.1285 35.5494 35.1285 35.5494L38.5408 36.2285L39.0821 36.3363L38.8061 35.8583L35.7228 30.5187L35.5624 30.2411L35.3323 30.4643C33.5903 32.1531 31.4609 33.3891 29.1305 34.064L28.8239 34.1528L28.9835 34.4292L32.0585 39.7542ZM16.3527 11.1443C14.0593 13.4378 12.7709 16.5483 12.7709 19.7917C12.7709 23.035 14.0593 26.1456 16.3527 28.439C18.6461 30.7324 21.7566 32.0208 25 32.0208C28.2434 32.0208 31.3539 30.7324 33.6474 28.439C35.9408 26.1456 37.2292 23.035 37.2292 19.7917C37.2292 16.5483 35.9408 13.4378 33.6474 11.1443C31.3539 8.85093 28.2434 7.5625 25 7.5625C21.7566 7.5625 18.6461 8.85093 16.3527 11.1443Z" fill="#171717" stroke="white" stroke-width="0.5"/>
</svg>
