<svg width="5" height="13" viewBox="0 0 5 13" fill="none" xmlns="http://www.w3.org/2000/svg">
<path d="M4.6959 0C4.77074 0 4.83489 0 4.87766 0C4.90804 0.0307132 4.93142 0.0676433 4.94619 0.108246C4.96095 0.148849 4.96676 0.192164 4.9632 0.235222V1.81762C4.96147 1.93334 4.93214 2.04697 4.87766 2.14907C4.84418 2.2423 4.78012 2.32143 4.6959 2.37359L1.79841 4.05221V6.10504L4.50345 4.53334C4.51537 4.52138 4.52953 4.51189 4.54512 4.50541C4.56072 4.49894 4.57744 4.49561 4.59433 4.49561C4.61121 4.49561 4.62794 4.49894 4.64353 4.50541C4.65913 4.51189 4.67329 4.52138 4.68521 4.53334C4.71559 4.56406 4.73897 4.60099 4.75373 4.64159C4.7685 4.68219 4.7743 4.72551 4.77074 4.76856V6.35095C4.76784 6.4665 4.73858 6.57987 4.68521 6.6824C4.64846 6.77375 4.58514 6.85197 4.50345 6.90693L1.79841 8.46795V11.6755C1.79669 11.7912 1.76736 11.9048 1.71288 12.0069C1.6794 12.1002 1.61533 12.1793 1.53112 12.2315L0.258788 12.9692C0.232688 12.9891 0.200755 13 0.167908 13C0.135062 13 0.103128 12.9891 0.0770285 12.9692C0.0482705 12.9356 0.0267797 12.8964 0.0138998 12.8541C0.00101986 12.8117 -0.0029705 12.7672 0.00218603 12.7233V3.10064C0.00403312 2.98962 0.0295485 2.88026 0.0770285 2.77988C0.117611 2.69085 0.180153 2.61358 0.258788 2.55535L4.6959 0Z" fill="white"/>
</svg>
