<svg width="21" height="14" viewBox="0 0 21 14" fill="none" xmlns="http://www.w3.org/2000/svg">
<path fill-rule="evenodd" clip-rule="evenodd" d="M10.6124 11.3817C10.6114 11.3841 10.6104 11.3865 10.6089 11.3895C10.6104 11.387 10.6124 11.3773 10.6124 11.3817Z" fill="#C5CFD6"/>
<path fill-rule="evenodd" clip-rule="evenodd" d="M10.6099 11.3853C10.6099 11.3858 10.6094 11.3868 10.6094 11.3878C10.6094 11.3853 10.6139 11.3778 10.6099 11.3853Z" fill="#C5CFD6"/>
<path fill-rule="evenodd" clip-rule="evenodd" d="M10.6249 11.3478C10.6219 11.3565 10.6179 11.3648 10.6145 11.3734C10.6162 11.3691 10.6179 11.3656 10.6197 11.3613C10.5744 11.474 10.6031 11.4008 10.6249 11.3478Z" fill="#C5CFD6"/>
<path fill-rule="evenodd" clip-rule="evenodd" d="M10.6155 11.3744C10.6137 11.3784 10.6119 11.3829 10.6102 11.3869C10.5972 11.4118 10.6155 11.3744 10.6155 11.3744Z" fill="#C5CFD6"/>
<path fill-rule="evenodd" clip-rule="evenodd" d="M10.6083 11.3891C10.6054 11.3949 10.622 11.3667 10.6083 11.3891V11.3891Z" fill="#C5CFD6"/>
<path fill-rule="evenodd" clip-rule="evenodd" d="M10.6099 11.3856L10.6112 11.3842C10.6106 11.3849 10.6106 11.3856 10.6099 11.3856Z" fill="#C5CFD6"/>
<path d="M20.1158 0H0.884213C0.395876 0 0 0.392083 0 0.875743V12.9172C0 13.4009 0.395876 13.7929 0.884213 13.7929H20.1158C20.6042 13.7929 21.0001 13.4009 21.0001 12.9172V0.875743C21.0001 0.392083 20.6042 0 20.1158 0Z" fill="#DDE3E9"/>
<path fill-rule="evenodd" clip-rule="evenodd" d="M7.95773 3.94079L1.76824 13.7929H14.1472L7.95773 3.94079Z" fill="#AFB9C5"/>
<path fill-rule="evenodd" clip-rule="evenodd" d="M14.0366 6.56806L8.62085 13.7929H19.4525L14.0366 6.56806Z" fill="#C5CFD6"/>
<path fill-rule="evenodd" clip-rule="evenodd" d="M16.3577 6.56812C17.4566 6.56812 18.3472 5.68603 18.3472 4.5977C18.3472 3.50937 17.4566 2.62727 16.3577 2.62727C15.2589 2.62727 14.3682 3.50937 14.3682 4.5977C14.3682 5.68603 15.2589 6.56812 16.3577 6.56812Z" fill="white"/>
</svg>
