<svg width="1" height="7" viewBox="0 0 1 7" fill="none" xmlns="http://www.w3.org/2000/svg">
<path d="M0.603262 0.706522C0.620075 0.777109 0.620075 0.850645 0.603262 0.921232C0.5811 0.980387 0.541742 1.03156 0.490251 1.06815L0.1286 1.27159C0.112565 1.28443 0.0926408 1.29142 0.072099 1.29142C0.0515572 1.29142 0.0316244 1.28443 0.015589 1.27159C0.00530775 1.24846 0 1.22343 0 1.19813C0 1.17282 0.00530775 1.14779 0.015589 1.12466V0.570894C0.000520552 0.503924 0.000520552 0.43445 0.015589 0.367479C0.0377511 0.308324 0.0771093 0.257151 0.1286 0.220556L0.490251 0.017141C0.506977 0.00596537 0.526636 0 0.546752 0C0.566868 0 0.586536 0.00596537 0.603262 0.017141C0.622324 0.0681581 0.622324 0.124342 0.603262 0.175359V0.706522ZM0.546752 6.48149C0.563565 6.55208 0.563565 6.62562 0.546752 6.6962C0.525226 6.75571 0.485734 6.80706 0.433741 6.84313L0.207718 6.97874C0.189913 6.99248 0.168054 6.99995 0.14556 6.99995C0.123067 6.99995 0.101207 6.99248 0.0834027 6.97874C0.0728348 6.9537 0.0673826 6.92681 0.0673826 6.89964C0.0673826 6.87246 0.0728348 6.84556 0.0834027 6.82052V2.29999C0.0675407 2.23311 0.0675407 2.16346 0.0834027 2.09658C0.106371 2.03457 0.150363 1.98257 0.207718 1.94966L0.433741 1.81405C0.433741 1.81405 0.524149 1.81405 0.546752 1.81405C0.566216 1.86108 0.566216 1.91393 0.546752 1.96097V6.48149Z" fill="#455A64"/>
</svg>
