<svg width="3" height="5" viewBox="0 0 3 5" fill="none" xmlns="http://www.w3.org/2000/svg">
<path d="M0.016122 2.81096C0.0269165 2.53471 0.068045 2.2605 0.138776 1.99324C0.20419 1.73355 0.29314 1.48038 0.404532 1.23685C0.507281 1.01035 0.637758 0.797445 0.792958 0.603087C0.935132 0.426677 1.10833 0.27773 1.30404 0.163565C1.46411 0.0559024 1.65288 -0.00108875 1.84578 1.57553e-05C1.92458 0.00290963 2.00185 0.022648 2.07237 0.0579115C2.1429 0.0931751 2.20505 0.143158 2.25464 0.20446C2.38557 0.35969 2.47366 0.54644 2.51018 0.746204C2.57674 1.02742 2.60766 1.31588 2.60219 1.60481V1.86035C2.61653 1.92085 2.61653 1.98385 2.60219 2.04434C2.58141 2.10042 2.54162 2.14745 2.48975 2.17722L0.557866 3.3016V3.3527C0.543355 3.48973 0.556691 3.62829 0.597092 3.76003C0.637493 3.89177 0.70412 4.01398 0.792958 4.11932C0.871118 4.18238 0.96852 4.21677 1.06895 4.21677C1.16937 4.21677 1.26676 4.18238 1.34492 4.11932C1.52812 4.02543 1.68593 3.88869 1.8049 3.72069C1.90888 3.58595 1.99478 3.43819 2.06044 3.28117C2.0809 3.2299 2.10843 3.18172 2.14222 3.13805C2.16694 3.10082 2.20267 3.07225 2.24442 3.0563L2.40797 2.95407C2.42408 2.94164 2.44384 2.93489 2.46418 2.93489C2.48453 2.93489 2.50431 2.94164 2.52041 2.95407C2.53207 2.97427 2.53821 2.99719 2.53821 3.02052C2.53821 3.04384 2.53207 3.06676 2.52041 3.08696C2.50492 3.22289 2.47406 3.35661 2.42842 3.48559C2.29327 3.84277 2.08824 4.16942 1.82533 4.44642C1.67252 4.61035 1.49697 4.75149 1.30404 4.86551C1.15215 4.96304 0.973116 5.0096 0.792958 4.99839C0.645283 4.98685 0.507017 4.92136 0.404532 4.81441C0.283708 4.67823 0.193135 4.51795 0.138776 4.3442C0.0621832 4.11321 0.0208376 3.87201 0.016122 3.6287C-0.00537401 3.35655 -0.00537401 3.08311 0.016122 2.81096ZM0.516971 2.54522L2.10132 1.63548C2.11571 1.5079 2.10412 1.37873 2.06723 1.25576C2.03033 1.13278 1.96892 1.01854 1.88668 0.919954C1.8037 0.854459 1.70107 0.818854 1.59536 0.818854C1.48965 0.818854 1.38702 0.854459 1.30404 0.919954C1.18789 0.986862 1.08414 1.07331 0.997387 1.17549C0.901922 1.29213 0.819659 1.41899 0.752079 1.55372C0.680882 1.70059 0.626034 1.85482 0.588529 2.01367C0.544725 2.18411 0.520708 2.35904 0.516971 2.53498V2.54522Z" fill="#455A64"/>
</svg>
