<svg width="50" height="50" viewBox="0 0 50 50" fill="none" xmlns="http://www.w3.org/2000/svg">
<path d="M8.33333 27.0833H20.8333C21.3859 27.0833 21.9158 26.8638 22.3065 26.4731C22.6972 26.0824 22.9167 25.5525 22.9167 25V8.33333C22.9167 7.7808 22.6972 7.25089 22.3065 6.86019C21.9158 6.46949 21.3859 6.25 20.8333 6.25H8.33333C7.7808 6.25 7.25089 6.46949 6.86019 6.86019C6.46949 7.25089 6.25 7.7808 6.25 8.33333V25C6.25 25.5525 6.46949 26.0824 6.86019 26.4731C7.25089 26.8638 7.7808 27.0833 8.33333 27.0833ZM6.25 41.6667C6.25 42.2192 6.46949 42.7491 6.86019 43.1398C7.25089 43.5305 7.7808 43.75 8.33333 43.75H20.8333C21.3859 43.75 21.9158 43.5305 22.3065 43.1398C22.6972 42.7491 22.9167 42.2192 22.9167 41.6667V33.3333C22.9167 32.7808 22.6972 32.2509 22.3065 31.8602C21.9158 31.4695 21.3859 31.25 20.8333 31.25H8.33333C7.7808 31.25 7.25089 31.4695 6.86019 31.8602C6.46949 32.2509 6.25 32.7808 6.25 33.3333V41.6667ZM27.0833 41.6667C27.0833 42.2192 27.3028 42.7491 27.6935 43.1398C28.0842 43.5305 28.6141 43.75 29.1667 43.75H41.6667C42.2192 43.75 42.7491 43.5305 43.1398 43.1398C43.5305 42.7491 43.75 42.2192 43.75 41.6667V27.0833C43.75 26.5308 43.5305 26.0009 43.1398 25.6102C42.7491 25.2195 42.2192 25 41.6667 25H29.1667C28.6141 25 28.0842 25.2195 27.6935 25.6102C27.3028 26.0009 27.0833 26.5308 27.0833 27.0833V41.6667ZM29.1667 20.8333H41.6667C42.2192 20.8333 42.7491 20.6138 43.1398 20.2231C43.5305 19.8324 43.75 19.3025 43.75 18.75V8.33333C43.75 7.7808 43.5305 7.25089 43.1398 6.86019C42.7491 6.46949 42.2192 6.25 41.6667 6.25H29.1667C28.6141 6.25 28.0842 6.46949 27.6935 6.86019C27.3028 7.25089 27.0833 7.7808 27.0833 8.33333V18.75C27.0833 19.3025 27.3028 19.8324 27.6935 20.2231C28.0842 20.6138 28.6141 20.8333 29.1667 20.8333Z" fill="white"/>
</svg>
