<svg width="35" height="66" viewBox="0 0 35 66" fill="none" xmlns="http://www.w3.org/2000/svg">
<path d="M33.2391 0H1.76101C0.788431 0 0 0.780878 0 1.74414V64.0972C0 65.0604 0.788431 65.8413 1.76101 65.8413H33.2391C34.2116 65.8413 35.0001 65.0604 35.0001 64.0972V1.74414C35.0001 0.780878 34.2116 0 33.2391 0Z" fill="#F2F2F2"/>
<path fill-rule="evenodd" clip-rule="evenodd" d="M17.39 61.6989C19.2135 61.6989 20.6919 60.2347 20.6919 58.4286C20.6919 56.6226 19.2135 55.1584 17.39 55.1584C15.5664 55.1584 14.0881 56.6226 14.0881 58.4286C14.0881 60.2347 15.5664 61.6989 17.39 61.6989Z" fill="white"/>
<path fill-rule="evenodd" clip-rule="evenodd" d="M14.5283 4.36029C14.7716 4.36029 14.9686 4.16516 14.9686 3.92426C14.9686 3.68335 14.7716 3.48822 14.5283 3.48822C14.2851 3.48822 14.0881 3.68335 14.0881 3.92426C14.0881 4.16516 14.2851 4.36029 14.5283 4.36029Z" fill="white"/>
<path d="M20.2517 3.48822H16.5096C16.2664 3.48822 16.0693 3.68344 16.0693 3.92426C16.0693 4.16507 16.2664 4.36029 16.5096 4.36029H20.2517C20.4948 4.36029 20.6919 4.16507 20.6919 3.92426C20.6919 3.68344 20.4948 3.48822 20.2517 3.48822Z" fill="white"/>
<path d="M31.0378 6.10448H3.96232C3.47603 6.10448 3.08181 6.49492 3.08181 6.97655V17.0054C3.08181 17.487 3.47603 17.8774 3.96232 17.8774H31.0378C31.5241 17.8774 31.9183 17.487 31.9183 17.0054V6.97655C31.9183 6.49492 31.5241 6.10448 31.0378 6.10448Z" fill="white"/>
<mask id="mask0_81_1301" style="mask-type:luminance" maskUnits="userSpaceOnUse" x="11" y="9" width="17" height="6">
<path d="M27.7357 9.63641H11.6665V14.3456H27.7357V9.63641Z" fill="white"/>
</mask>
<g mask="url(#mask0_81_1301)">
<path d="M27.0753 9.63641H12.3269C11.9622 9.63641 11.6665 9.92924 11.6665 10.2905V10.7483C11.6665 11.1095 11.9622 11.4024 12.3269 11.4024H27.0753C27.4401 11.4024 27.7357 11.1095 27.7357 10.7483V10.2905C27.7357 9.92924 27.4401 9.63641 27.0753 9.63641Z" fill="#DDE3E9"/>
<path d="M21.7923 12.5796H12.3269C11.9622 12.5796 11.6665 12.8724 11.6665 13.2337V13.6915C11.6665 14.0527 11.9622 14.3456 12.3269 14.3456H21.7923C22.157 14.3456 22.4527 14.0527 22.4527 13.6915V13.2337C22.4527 12.8724 22.157 12.5796 21.7923 12.5796Z" fill="#DDE3E9"/>
</g>
<path fill-rule="evenodd" clip-rule="evenodd" d="M7.70456 14.6072C9.16333 14.6072 10.3461 13.4358 10.3461 11.9909C10.3461 10.5461 9.16333 9.37474 7.70456 9.37474C6.24578 9.37474 5.06304 10.5461 5.06304 11.9909C5.06304 13.4358 6.24578 14.6072 7.70456 14.6072Z" fill="#C5CFD6"/>
<path d="M31.0378 19.6216H3.96232C3.47603 19.6216 3.08181 20.012 3.08181 20.4936V27.9062C3.08181 28.3879 3.47603 28.7783 3.96232 28.7783H31.0378C31.5241 28.7783 31.9183 28.3879 31.9183 27.9062V20.4936C31.9183 20.012 31.5241 19.6216 31.0378 19.6216Z" fill="white"/>
<mask id="mask1_81_1301" style="mask-type:luminance" maskUnits="userSpaceOnUse" x="11" y="22" width="17" height="5">
<path d="M27.7357 22.3686H11.6665V26.0313H27.7357V22.3686Z" fill="white"/>
</mask>
<g mask="url(#mask1_81_1301)">
<path d="M27.0753 22.3686H12.3269C11.9622 22.3686 11.6665 22.6614 11.6665 23.0226V23.088C11.6665 23.4493 11.9622 23.7421 12.3269 23.7421H27.0753C27.4401 23.7421 27.7357 23.4493 27.7357 23.088V23.0226C27.7357 22.6614 27.4401 22.3686 27.0753 22.3686Z" fill="#DDE3E9"/>
<path d="M21.7923 24.6578H12.3269C11.9622 24.6578 11.6665 24.9506 11.6665 25.3118V25.3772C11.6665 25.7385 11.9622 26.0313 12.3269 26.0313H21.7923C22.157 26.0313 22.4527 25.7385 22.4527 25.3772V25.3118C22.4527 24.9506 22.157 24.6578 21.7923 24.6578Z" fill="#DDE3E9"/>
</g>
<path fill-rule="evenodd" clip-rule="evenodd" d="M7.70456 26.8161C9.16333 26.8161 10.3461 25.6447 10.3461 24.1999C10.3461 22.7551 9.16333 21.5837 7.70456 21.5837C6.24578 21.5837 5.06304 22.7551 5.06304 24.1999C5.06304 25.6447 6.24578 26.8161 7.70456 26.8161Z" fill="#C5CFD6"/>
<path d="M31.0378 30.5224H3.96232C3.47603 30.5224 3.08181 30.9128 3.08181 31.3945V38.8071C3.08181 39.2887 3.47603 39.6791 3.96232 39.6791H31.0378C31.5241 39.6791 31.9183 39.2887 31.9183 38.8071V31.3945C31.9183 30.9128 31.5241 30.5224 31.0378 30.5224Z" fill="white"/>
<mask id="mask2_81_1301" style="mask-type:luminance" maskUnits="userSpaceOnUse" x="11" y="33" width="17" height="4">
<path d="M27.7357 33.2694H11.6665V36.9321H27.7357V33.2694Z" fill="white"/>
</mask>
<g mask="url(#mask2_81_1301)">
<path d="M27.0753 33.2694H12.3269C11.9622 33.2694 11.6665 33.5622 11.6665 33.9235V33.9889C11.6665 34.3501 11.9622 34.6429 12.3269 34.6429H27.0753C27.4401 34.6429 27.7357 34.3501 27.7357 33.9889V33.9235C27.7357 33.5622 27.4401 33.2694 27.0753 33.2694Z" fill="#DDE3E9"/>
<path d="M21.7923 35.5586H12.3269C11.9622 35.5586 11.6665 35.8514 11.6665 36.2127V36.2781C11.6665 36.6393 11.9622 36.9321 12.3269 36.9321H21.7923C22.157 36.9321 22.4527 36.6393 22.4527 36.2781V36.2127C22.4527 35.8514 22.157 35.5586 21.7923 35.5586Z" fill="#DDE3E9"/>
</g>
<path fill-rule="evenodd" clip-rule="evenodd" d="M7.70456 37.7169C9.16333 37.7169 10.3461 36.5455 10.3461 35.1007C10.3461 33.6559 9.16333 32.4845 7.70456 32.4845C6.24578 32.4845 5.06304 33.6559 5.06304 35.1007C5.06304 36.5455 6.24578 37.7169 7.70456 37.7169Z" fill="#AFB9C5"/>
<path d="M31.0378 41.4233H3.96232C3.47603 41.4233 3.08181 41.8138 3.08181 42.2954V49.708C3.08181 50.1896 3.47603 50.5801 3.96232 50.5801H31.0378C31.5241 50.5801 31.9183 50.1896 31.9183 49.708V42.2954C31.9183 41.8138 31.5241 41.4233 31.0378 41.4233Z" fill="white"/>
<mask id="mask3_81_1301" style="mask-type:luminance" maskUnits="userSpaceOnUse" x="11" y="44" width="17" height="4">
<path d="M27.7357 44.1704H11.6665V47.8331H27.7357V44.1704Z" fill="white"/>
</mask>
<g mask="url(#mask3_81_1301)">
<path d="M27.0753 44.1704H12.3269C11.9622 44.1704 11.6665 44.4632 11.6665 44.8244V44.8898C11.6665 45.251 11.9622 45.5439 12.3269 45.5439H27.0753C27.4401 45.5439 27.7357 45.251 27.7357 44.8898V44.8244C27.7357 44.4632 27.4401 44.1704 27.0753 44.1704Z" fill="#DDE3E9"/>
<path d="M21.7923 46.4596H12.3269C11.9622 46.4596 11.6665 46.7524 11.6665 47.1136V47.179C11.6665 47.5402 11.9622 47.8331 12.3269 47.8331H21.7923C22.157 47.8331 22.4527 47.5402 22.4527 47.179V47.1136C22.4527 46.7524 22.157 46.4596 21.7923 46.4596Z" fill="#DDE3E9"/>
</g>
<path fill-rule="evenodd" clip-rule="evenodd" d="M7.70456 48.6179C9.16333 48.6179 10.3461 47.4465 10.3461 46.0017C10.3461 44.5569 9.16333 43.3855 7.70456 43.3855C6.24578 43.3855 5.06304 44.5569 5.06304 46.0017C5.06304 47.4465 6.24578 48.6179 7.70456 48.6179Z" fill="#C5CFD6"/>
</svg>
