<svg width="63" height="64" viewBox="0 0 63 64" fill="none" xmlns="http://www.w3.org/2000/svg">
<g clip-path="url(#clip0_68_706)">
<path d="M31.5 0C34.3916 0 37.1807 0.372136 39.8672 1.11641C42.5537 1.86068 45.0659 2.9254 47.4038 4.31058C49.7417 5.69575 51.8643 7.34969 53.7715 9.27239C55.6787 11.1951 57.3193 13.3452 58.6934 15.7228C60.0674 18.1003 61.1235 20.6329 61.8618 23.3205C62.6001 26.0082 62.9795 28.8199 63 31.7556C63 34.6707 62.6309 37.4824 61.8926 40.1907C61.1543 42.899 60.0982 45.4316 58.7241 47.7885C57.3501 50.1454 55.7095 52.2851 53.8023 54.2078C51.895 56.1305 49.7622 57.7845 47.4038 59.1697C45.0454 60.5548 42.5332 61.6195 39.8672 62.3638C37.2012 63.1081 34.4121 63.4906 31.5 63.5112C28.6084 63.5112 25.8193 63.1391 23.1328 62.3948C20.4463 61.6506 17.9341 60.5858 15.5962 59.2007C13.2583 57.8155 11.1357 56.1616 9.22852 54.2388C7.32129 52.3161 5.68066 50.166 4.30664 47.7885C2.93262 45.411 1.87647 42.8887 1.13818 40.2217C0.399902 37.5547 0.0205078 34.7327 0 31.7556C0 28.8406 0.369141 26.0289 1.10742 23.3205C1.8457 20.6122 2.90186 18.0796 4.27588 15.7228C5.6499 13.3659 7.29053 11.2261 9.19775 9.3034C11.105 7.3807 13.2378 5.72676 15.5962 4.34159C17.9546 2.95642 20.4565 1.89169 23.1021 1.14742C25.7476 0.403148 28.5469 0.0206742 31.5 0ZM31.5 59.5418C34.0225 59.5418 36.4526 59.211 38.7905 58.5494C41.1284 57.8879 43.3228 56.9575 45.3735 55.7584C47.4243 54.5593 49.2905 53.1018 50.9722 51.3858C52.6538 49.6698 54.0894 47.7988 55.2788 45.7728C56.4683 43.7467 57.4014 41.5345 58.0781 39.1363C58.7549 36.7381 59.083 34.2779 59.0625 31.7556C59.0625 29.2127 58.7344 26.7628 58.0781 24.4059C57.4219 22.0491 56.499 19.8369 55.3096 17.7695C54.1201 15.7021 52.6743 13.8207 50.9722 12.1254C49.27 10.4302 47.4141 8.98295 45.4043 7.78385C43.3945 6.58474 41.2002 5.64407 38.8213 4.96182C36.4424 4.27957 34.002 3.94878 31.5 3.96945C28.9775 3.96945 26.5474 4.30024 24.2095 4.96182C21.8716 5.62339 19.6772 6.55373 17.6265 7.75284C15.5757 8.95194 13.7095 10.4095 12.0278 12.1254C10.3462 13.8414 8.91065 15.7124 7.72119 17.7385C6.53174 19.7646 5.59863 21.9767 4.92188 24.3749C4.24512 26.7731 3.91699 29.2334 3.9375 31.7556C3.9375 34.2986 4.26563 36.7484 4.92188 39.1053C5.57813 41.4622 6.50098 43.6743 7.69043 45.7417C8.87988 47.8092 10.3257 49.6905 12.0278 51.3858C13.73 53.0811 15.5859 54.5283 17.5957 55.7274C19.6055 56.9265 21.7998 57.8672 24.1787 58.5494C26.5576 59.2317 28.9981 59.5625 31.5 59.5418ZM49.8648 32.2518L51.3413 27.7862H53.6484L51.0337 35.7251H48.7266L47.25 31.2594L45.7734 35.7251H43.4663L40.8516 27.7862H43.1587L44.6353 32.2518L46.1118 27.7862H48.3882L49.8648 32.2518ZM35.5913 27.7862H37.8984L35.2837 35.7251H32.9766L31.5 31.2594L30.0234 35.7251H27.7163L25.1016 27.7862H27.4087L28.8853 32.2518L30.3618 27.7862H32.6382L34.1148 32.2518L35.5913 27.7862ZM19.8413 27.7862H22.1484L19.5337 35.7251H17.2266L15.75 31.2594L14.2734 35.7251H11.9663L9.35156 27.7862H11.6587L13.1353 32.2518L14.6118 27.7862H16.8882L18.3647 32.2518L19.8413 27.7862Z" fill="white"/>
</g>
<defs>
<clipPath id="clip0_68_706">
<rect width="62.8324" height="63.3423" fill="white" transform="scale(1.00267)"/>
</clipPath>
</defs>
</svg>
