<svg width="3" height="6" viewBox="0 0 3 6" fill="none" xmlns="http://www.w3.org/2000/svg">
<path d="M2.59875e-05 5.0478C-0.0011079 4.79074 0.0348694 4.53489 0.106853 4.28812C0.177166 4.05299 0.272688 3.82613 0.391744 3.61151C0.517665 3.40229 0.66059 3.20379 0.819071 3.01801C0.98428 2.84276 1.15862 2.67633 1.34136 2.51944L2.26723 1.75977V1.62918C2.26723 1.28495 2.19601 1.0713 2.0417 0.976336C1.95355 0.937107 1.8566 0.921933 1.76068 0.932359C1.66477 0.942784 1.57332 0.978422 1.49566 1.03567C1.3202 1.13556 1.17313 1.27856 1.06833 1.45114C0.964254 1.61441 0.880552 1.78982 0.819071 1.97343C0.795309 2.03297 0.763344 2.08892 0.724107 2.13963C0.690117 2.18098 0.650095 2.21699 0.605398 2.24645L0.403607 2.35328C0.386765 2.36676 0.365829 2.37411 0.344253 2.37411C0.322677 2.37411 0.301759 2.36676 0.284917 2.35328C0.271373 2.32982 0.264232 2.30321 0.264232 2.27612C0.264232 2.24903 0.271373 2.22242 0.284917 2.19896C0.295314 2.02065 0.331288 1.84475 0.391744 1.67667C0.468112 1.48008 0.559377 1.28959 0.664753 1.10689C0.779109 0.918101 0.914498 0.742919 1.06833 0.584636C1.20883 0.430502 1.3684 0.294851 1.54315 0.181018C1.71077 0.0842709 1.89674 0.0236307 2.08917 0.00297302C2.24702 -0.0127265 2.40474 0.0341784 2.52838 0.133564C2.66551 0.255561 2.76098 0.417435 2.80139 0.596481C2.87911 0.854205 2.91517 1.1227 2.90821 1.3918V4.46617C2.91933 4.53696 2.91933 4.60904 2.90821 4.67982C2.88409 4.74496 2.83788 4.79957 2.77764 4.83414L2.54024 4.97658C2.52154 4.99102 2.49859 4.99886 2.47496 4.99886C2.45134 4.99886 2.42837 4.99102 2.40967 4.97658C2.38923 4.92717 2.38923 4.87167 2.40967 4.82226V4.40683C2.36887 4.56197 2.30483 4.71004 2.21974 4.84602C2.13579 4.99174 2.04054 5.13062 1.93487 5.26145C1.83647 5.38754 1.72507 5.50293 1.60251 5.60569C1.50453 5.69614 1.39707 5.77575 1.28201 5.84311C1.14097 5.92808 0.982878 5.98078 0.819071 5.99743C0.689079 6.00982 0.558864 5.97619 0.451098 5.90245C0.346282 5.82491 0.267602 5.71727 0.225562 5.59385C0.118376 5.42677 0.0419889 5.24181 2.59875e-05 5.0478ZM1.18704 4.91724C1.34825 4.81823 1.49252 4.69399 1.61437 4.54927C1.7479 4.39943 1.85978 4.2316 1.94673 4.05071C2.04245 3.86256 2.11424 3.66318 2.16041 3.4572C2.2172 3.24832 2.24514 3.03265 2.24349 2.8162V2.55505L1.47193 3.19605C1.22072 3.39575 1.00068 3.63179 0.819071 3.89639C0.66497 4.10186 0.581671 4.35177 0.581671 4.6086C0.569405 4.67531 0.569405 4.74371 0.581671 4.81041C0.602842 4.87048 0.639729 4.92374 0.688498 4.9647C0.71845 4.97777 0.750781 4.98455 0.783462 4.98455C0.816142 4.98455 0.848473 4.97777 0.878425 4.9647C0.983546 4.97189 1.08895 4.9557 1.18704 4.91724Z" fill="white"/>
</svg>
