<svg width="2" height="6" viewBox="0 0 2 6" fill="none" xmlns="http://www.w3.org/2000/svg">
<path d="M1.0622 4.5898C1.05679 4.68806 1.05679 4.78653 1.0622 4.88479C1.07172 4.95678 1.09595 5.02603 1.1334 5.08824C1.14828 5.11207 1.16946 5.13134 1.19459 5.14391C1.21972 5.15647 1.24782 5.16185 1.27581 5.15946C1.36398 5.16021 1.44988 5.13158 1.51996 5.07808L1.81496 4.91531C1.81496 4.91531 1.88617 4.91531 1.91669 4.91531C1.95132 4.95448 1.96953 5.00548 1.96756 5.05773V5.33239C1.96383 5.39959 1.94652 5.46534 1.91669 5.52567C1.89669 5.57618 1.86104 5.61896 1.81496 5.64774L1.45893 5.85119C1.13341 6.04447 0.899432 6.05464 0.757016 5.85119C0.567016 5.54819 0.487925 5.18869 0.533217 4.83393V2.59596L0.116137 2.84011C0.101703 2.85166 0.0837609 2.85796 0.0652707 2.85796C0.0467805 2.85796 0.028854 2.85166 0.0144201 2.84011C0.00490766 2.81757 0 2.79335 0 2.76889C0 2.74443 0.00490766 2.72023 0.0144201 2.69769V2.42303C0.000969635 2.3593 0.000969635 2.29347 0.0144201 2.22974C0.03442 2.17923 0.0700601 2.13646 0.116137 2.10768L0.533217 1.86353V0.459704C0.520607 0.395895 0.520607 0.330247 0.533217 0.266438C0.541117 0.240307 0.554189 0.216023 0.571666 0.195052C0.589142 0.17408 0.610671 0.156838 0.63495 0.144356L0.838399 0.0222898C0.853513 0.00798083 0.873528 0 0.894341 0C0.915154 0 0.935184 0.00798083 0.950298 0.0222898C0.950298 0.0222898 0.950298 0.093503 0.950298 0.154539V1.55835L1.66238 1.15145C1.6784 1.13908 1.69807 1.13236 1.71832 1.13236C1.73857 1.13236 1.75825 1.13908 1.77428 1.15145C1.77428 1.15145 1.77428 1.22266 1.77428 1.2837V1.55835C1.78941 1.62189 1.78941 1.68809 1.77428 1.75163C1.74809 1.80403 1.70972 1.84938 1.66238 1.88388L0.950298 2.29078L1.0622 4.5898Z" fill="#455A64"/>
</svg>
