<svg width="37" height="33" viewBox="0 0 37 33" fill="none" xmlns="http://www.w3.org/2000/svg">
<path d="M33.0001 7.33336H25.6668V3.66668L22.0001 0H14.6667L11 3.66668V7.33336H3.66668C1.65001 7.33336 0 8.98337 0 11V20.1667C0 21.5417 0.733336 22.6967 1.83334 23.3384V29.3334C1.83334 31.3684 3.46501 33.0001 5.50002 33.0001H31.1668C33.2018 33.0001 34.8335 31.3684 34.8335 29.3334V23.3201C35.9151 22.6784 36.6668 21.5051 36.6668 20.1667V11C36.6668 8.98337 35.0168 7.33336 33.0001 7.33336ZM14.6667 3.66668H22.0001V7.33336H14.6667V3.66668ZM3.66668 11H33.0001V20.1667H23.8334V14.6667H12.8334V20.1667H3.66668V11ZM20.1667 22.0001H16.5001V18.3334H20.1667V22.0001ZM31.1668 29.3334H5.50002V23.8334H12.8334V25.6668H23.8334V23.8334H31.1668V29.3334Z" fill="#071C54"/>
</svg>
