<svg width="14" height="14" viewBox="0 0 14 14" fill="none" xmlns="http://www.w3.org/2000/svg">
<path fill-rule="evenodd" clip-rule="evenodd" d="M8.81279 8.59178C8.36246 9.06321 7.7278 9.35925 7.02315 9.35925C5.66519 9.35925 4.56389 8.27288 4.56389 6.93277C4.56389 5.59267 5.66519 4.5063 7.02315 4.5063V0C3.16158 0 0 3.12044 0 6.93277C0 10.7451 3.16158 13.8655 7.02315 13.8655C9.05077 13.8655 10.8824 13.0184 12.133 11.6706L8.81279 8.59178Z" fill="#F2F2F2"/>
<path fill-rule="evenodd" clip-rule="evenodd" d="M7 0V4.5063C8.3533 4.5063 9.44994 5.59267 9.44994 6.93277H13.9998C13.9998 3.12044 10.8499 0 7 0Z" fill="#AFB9C5"/>
<path fill-rule="evenodd" clip-rule="evenodd" d="M9.35633 6.93277C9.35633 7.7201 8.98067 8.41985 8.39969 8.87186L11.2603 12.479C12.9262 11.1876 13.9996 9.18569 13.9996 6.93277H9.35633Z" fill="#C5CFD6"/>
</svg>
