<svg width="3" height="6" viewBox="0 0 3 6" fill="none" xmlns="http://www.w3.org/2000/svg">
<path d="M2.68842 4.1942C2.70321 4.25995 2.70321 4.32816 2.68842 4.39391C2.66952 4.45353 2.63023 4.5046 2.57745 4.53816L2.34445 4.67131C2.32871 4.68391 2.30914 4.69078 2.28897 4.69078C2.2688 4.69078 2.24923 4.68391 2.23348 4.67131C2.21458 4.65254 2.19986 4.63 2.19029 4.60514C2.18073 4.58028 2.17654 4.55365 2.178 4.52706V2.04162C2.22257 1.70713 2.14368 1.36786 1.95609 1.08736C1.81185 0.932022 1.60104 0.943118 1.32364 1.08736C1.0493 1.25558 0.832596 1.50326 0.702281 1.79751C0.535837 2.18228 0.456271 2.59902 0.469263 3.01805V5.50349C0.484836 5.56915 0.484836 5.63754 0.469263 5.7032C0.443931 5.76242 0.401412 5.81267 0.347209 5.84745L0.125297 5.9806C0.109553 5.9932 0.089983 6.00007 0.0698148 6.00007C0.0496467 6.00007 0.0300764 5.9932 0.0143326 5.9806C-0.00477755 5.93441 -0.00477755 5.88253 0.0143326 5.83635V1.39804C-0.00217479 1.32874 -0.00217479 1.25652 0.0143326 1.18722C0.0360916 1.12914 0.0747425 1.07893 0.125297 1.043L0.347209 0.909827C0.36469 0.896331 0.38616 0.889036 0.408244 0.889036C0.430329 0.889036 0.451782 0.896331 0.469263 0.909827C0.479639 0.934407 0.484992 0.960825 0.484992 0.987505C0.484992 1.01419 0.479639 1.0406 0.469263 1.06518V1.35368C0.562535 1.13192 0.677762 0.920035 0.813229 0.721218C0.968979 0.489819 1.17835 0.299487 1.4235 0.16643C1.58395 0.0664881 1.76728 0.00920449 1.95609 0C2.10999 0.0071962 2.25599 0.0703285 2.36665 0.177536C2.5028 0.320018 2.59854 0.496181 2.64404 0.687932C2.71614 0.955497 2.74976 1.23196 2.7439 1.50901L2.68842 4.1942Z" fill="#455A64"/>
</svg>
