<svg width="86" height="86" viewBox="0 0 86 86" fill="none" xmlns="http://www.w3.org/2000/svg">
<g clip-path="url(#clip0_68_866)">
<g filter="url(#filter0_d_68_866)">
<path d="M80.625 48.375H53.75V65.7578C53.7567 68.3014 54.4821 70.7912 55.8425 72.9405C57.2028 75.0897 59.1429 76.8108 61.4389 77.9053L67.1875 80.625L72.9361 77.9026C75.2321 76.8081 77.1721 75.087 78.5325 72.9378C79.8929 70.7886 80.6183 68.2987 80.625 65.7551V48.375ZM67.1251 74.6776L63.7394 73.0436C62.3618 72.3875 61.1976 71.3555 60.3812 70.0664C59.5647 68.7773 59.1293 67.2837 59.125 65.7578V53.75H75.25V65.7578C75.2452 67.2832 74.8095 68.7762 73.9931 70.0648C73.1767 71.3534 72.0128 72.385 70.6356 73.0409L67.1875 74.6776H67.1251ZM45.6875 48.375H13.4375C12.012 48.375 10.6448 48.9413 9.63679 49.9493C8.62878 50.9573 8.06249 52.3245 8.06249 53.75V67.1875C8.06249 68.6131 8.62878 69.9802 9.63679 70.9882C10.6448 71.9962 12.012 72.5625 13.4375 72.5625H45.6875V67.1875H13.4375V53.75H45.6875V48.375ZM72.5625 10.75H59.125C57.6995 10.75 56.3323 11.3163 55.3243 12.3243C54.3163 13.3323 53.75 14.6995 53.75 16.125V40.3125H59.125V16.125H72.5625V40.3125H77.9375V16.125C77.9375 14.6995 77.3712 13.3323 76.3632 12.3243C75.3552 11.3163 73.988 10.75 72.5625 10.75ZM40.3125 10.75H13.4375C12.012 10.75 10.6448 11.3163 9.63679 12.3243C8.62878 13.3323 8.06249 14.6995 8.06249 16.125V34.9375C8.06249 36.3631 8.62878 37.7302 9.63679 38.7382C10.6448 39.7462 12.012 40.3125 13.4375 40.3125H40.3125C41.738 40.3125 43.1052 39.7462 44.1132 38.7382C45.1212 37.7302 45.6875 36.3631 45.6875 34.9375V16.125C45.6875 14.6995 45.1212 13.3323 44.1132 12.3243C43.1052 11.3163 41.738 10.75 40.3125 10.75ZM13.4375 34.9375V16.125H40.3125V34.9375H13.4375Z" fill="#071C54"/>
<path d="M80.3735 48.6265H54.0014V65.7571C54.008 68.2533 54.7199 70.6968 56.0549 72.806C57.3898 74.915 59.2935 76.6038 61.5465 77.678L80.3735 48.6265ZM80.3735 48.6265V65.7544C80.3669 68.2506 79.6551 70.6941 78.3201 72.8033C76.9851 74.9123 75.0815 76.6012 72.8284 77.6753L80.3735 48.6265ZM67.0158 74.904L67.0676 74.929H67.1251H67.1875H67.2441L67.2953 74.9047L70.7434 73.2681L70.7437 73.2679C72.1637 72.5917 73.3638 71.528 74.2055 70.1994C75.0473 68.8708 75.4965 67.3314 75.5014 65.7586V65.7578V53.75V53.4986H75.25H59.125H58.8735V53.75V65.7578V65.7585C58.8779 67.3318 59.3269 68.8718 60.1687 70.2009C61.0104 71.5299 62.2106 72.594 63.6309 73.2704C63.6311 73.2705 63.6312 73.2706 63.6313 73.2706L67.0158 74.904ZM13.186 67.1875V67.439H13.4375H45.436V72.3111H13.4375C12.0786 72.3111 10.7754 71.7713 9.81459 70.8104C8.85374 69.8496 8.31394 68.5464 8.31394 67.1875V53.75C8.31394 52.3912 8.85374 51.088 9.81459 50.1271C10.7754 49.1663 12.0786 48.6265 13.4375 48.6265H45.436V53.4986H13.4375H13.186V53.75V67.1875ZM59.125 15.8736H58.8735V16.125V40.0611H54.0014V16.125C54.0014 14.7662 54.5412 13.463 55.5021 12.5021C56.463 11.5413 57.7661 11.0015 59.125 11.0015H72.5625C73.9213 11.0015 75.2245 11.5413 76.1854 12.5021C77.1462 13.463 77.686 14.7662 77.686 16.125V40.0611H72.8139V16.125V15.8736H72.5625H59.125ZM13.186 34.9375V35.189H13.4375H40.3125H40.5639V34.9375V16.125V15.8736H40.3125H13.4375H13.186V16.125V34.9375ZM67.1874 80.3468L61.5471 77.6783L72.8279 77.6756L67.1874 80.3468ZM13.4375 11.0015H40.3125C41.6713 11.0015 42.9745 11.5413 43.9354 12.5021C44.8962 13.463 45.436 14.7662 45.436 16.125V34.9375C45.436 36.2964 44.8962 37.5996 43.9354 38.5604C42.9745 39.5213 41.6713 40.0611 40.3125 40.0611H13.4375C12.0786 40.0611 10.7754 39.5213 9.81459 38.5604C8.85374 37.5996 8.31394 36.2964 8.31394 34.9375V16.125C8.31394 14.7662 8.85374 13.463 9.81459 12.5021C10.7754 11.5413 12.0786 11.0015 13.4375 11.0015Z" stroke="white" stroke-width="0.5"/>
</g>
</g>
<defs>
<filter id="filter0_d_68_866" x="-18.189" y="-8.46084" width="125.066" height="122.378" filterUnits="userSpaceOnUse" color-interpolation-filters="sRGB">
<feFlood flood-opacity="0" result="BackgroundImageFix"/>
<feColorMatrix in="SourceAlpha" type="matrix" values="0 0 0 0 0 0 0 0 0 0 0 0 0 0 0 0 0 0 127 0" result="hardAlpha"/>
<feOffset dy="7"/>
<feGaussianBlur stdDeviation="13.05"/>
<feComposite in2="hardAlpha" operator="out"/>
<feColorMatrix type="matrix" values="0 0 0 0 0.432656 0 0 0 0 0.8875 0 0 0 0 0.505431 0 0 0 0.01 0"/>
<feBlend mode="normal" in2="BackgroundImageFix" result="effect1_dropShadow_68_866"/>
<feBlend mode="normal" in="SourceGraphic" in2="effect1_dropShadow_68_866" result="shape"/>
</filter>
<clipPath id="clip0_68_866">
<rect width="85.5037" height="85.5037" fill="white" transform="scale(1.0058)"/>
</clipPath>
</defs>
</svg>
