<svg width="59" height="59" viewBox="0 0 59 59" fill="none" xmlns="http://www.w3.org/2000/svg">
<path d="M10.3619 15.1433C5.78692 15.1114 1.43567 17.0928 0 20.1337C9.04667 17.6803 14.128 19.3176 20.2665 26.6188C22.7003 29.5295 24.925 32.6417 27.6218 35.2476C30.3211 37.9026 33.2834 40.56 36.5628 42.1948C43.864 45.8209 53.2844 43.215 56.3524 37.2929C55.401 37.6494 54.5037 37.9567 53.604 38.3156C49.442 41.2189 43.9673 41.2754 39.4735 37.3937C34.869 33.4112 30.9012 28.7109 26.7737 24.217C22.8035 19.9297 18.5727 16.1021 12.331 15.2835C11.6783 15.1945 11.0206 15.1477 10.3619 15.1433ZM48.8077 19.3692C46.4551 19.3372 43.8911 20.1092 41.327 21.7685C38.7851 23.455 36.5087 25.5495 34.0233 27.5407C32.541 26.5697 31.0635 25.5495 29.5811 24.5784C29.4754 24.7308 29.3107 24.9349 29.2075 25.0873C29.5762 25.547 30.004 25.9575 30.3727 26.4148C32.4893 28.765 34.6576 31.1618 36.9856 33.4604C39.3137 31.3659 41.2213 29.532 43.2839 27.7939C49.2109 22.7912 54.661 23.5533 59 30.3457C58.1273 23.3935 53.9801 19.438 48.8077 19.3692ZM10.7995 31.0119C13.9732 44.341 22.4347 43.0626 28.2045 40.2011C29.7385 40.9165 31.9608 41.6835 33.3891 42.3472C33.4948 42.1948 33.6521 42.0399 33.7578 41.8875C31.2184 40.2527 28.8953 38.1066 26.7762 36.0613C26.2476 35.5524 25.7682 35.0411 25.2938 34.5322C17.0928 41.5778 10.7995 31.0119 10.7995 31.0119Z" fill="white"/>
</svg>
