<svg width="163" height="334" viewBox="0 0 163 334" fill="none" xmlns="http://www.w3.org/2000/svg">
<path opacity="0.25" d="M162.735 238.554C162.735 241.359 160.732 243.141 158.338 244.564L4.39718 333.398C1.97323 334.801 1.60123e-05 333.669 1.60123e-05 330.864V96.9033C-0.00292833 95.3645 0.40023 93.8522 1.16877 92.5191C1.93732 91.1861 3.04403 90.0794 4.37714 89.3109L158.328 0.396093C158.774 0.137154 159.281 0.000525824 159.797 1.51474e-06C160.313 -0.000522794 160.821 0.135074 161.268 0.393105C161.714 0.651137 162.086 1.02248 162.343 1.46968C162.601 1.91688 162.736 2.42412 162.735 2.94023V238.554Z" fill="black"/>
</svg>
