<svg width="2" height="6" viewBox="0 0 2 6" fill="none" xmlns="http://www.w3.org/2000/svg">
<path d="M1.06956 4.57745C1.06412 4.67639 1.06412 4.77556 1.06956 4.87451C1.07915 4.94699 1.10356 5.01673 1.14127 5.07937C1.15626 5.10336 1.17757 5.12275 1.20288 5.1354C1.22818 5.14805 1.25649 5.15347 1.28467 5.15106C1.3687 5.15189 1.45094 5.12686 1.52026 5.07937L1.81732 4.90524C1.83346 4.89278 1.85327 4.88601 1.87366 4.88601C1.89404 4.88601 1.91386 4.89278 1.92999 4.90524C1.94727 4.95148 1.94727 5.0024 1.92999 5.04864V5.3252C1.94354 5.38936 1.94354 5.45565 1.92999 5.51982C1.90717 5.57483 1.86779 5.62137 1.81732 5.65299L1.46905 5.85785C1.14127 6.04222 0.905672 6.05247 0.752024 5.85785C0.569573 5.54937 0.493966 5.18933 0.536918 4.83353V2.58003L0.116951 2.82587C0.102417 2.8375 0.08435 2.84384 0.0657315 2.84384C0.047113 2.84384 0.0290464 2.8375 0.0145123 2.82587C0.00493391 2.80318 0 2.77879 0 2.75416C0 2.72953 0.00493391 2.70515 0.0145123 2.68246V2.40589C0.000854746 2.34519 0.000854746 2.28221 0.0145123 2.22151C0.0319596 2.16647 0.0682287 2.11934 0.116951 2.08836L0.536918 1.84251V0.459675C0.523374 0.395508 0.523374 0.329234 0.536918 0.265067C0.560351 0.21309 0.599846 0.169994 0.649594 0.142138L0.854455 0.0192248C0.870592 0.00676572 0.890405 0 0.910792 0C0.93118 0 0.950993 0.00676572 0.96713 0.0192248C0.984772 0.061859 0.984772 0.109757 0.96713 0.152391V1.56594L1.68416 1.15622C1.68416 1.15622 1.7661 1.15622 1.78659 1.15622C1.80423 1.19885 1.80423 1.24675 1.78659 1.28939V1.56594C1.80183 1.62992 1.80183 1.69659 1.78659 1.76057C1.76997 1.81603 1.73351 1.86344 1.68416 1.89373L0.96713 2.30345L1.06956 4.57745Z" fill="#455A64"/>
</svg>
