<svg width="3" height="5" viewBox="0 0 3 5" fill="none" xmlns="http://www.w3.org/2000/svg">
<path d="M0.0429177 2.81727C0.0717934 2.2715 0.203897 1.73618 0.432218 1.23963C0.538955 1.01238 0.673134 0.799073 0.831757 0.604465C0.967908 0.422746 1.13846 0.269582 1.33373 0.153699C1.49677 0.0526578 1.68489 -0.000610232 1.8767 5.27428e-06C1.95465 0.00288765 2.0312 0.0216564 2.10166 0.0551238C2.17211 0.0885913 2.23501 0.136057 2.28649 0.194655C2.41715 0.355796 2.50836 0.545241 2.55284 0.747873C2.61955 1.02972 2.65053 1.31884 2.64504 1.60842V1.8338C2.644 1.90187 2.62643 1.96868 2.59383 2.02845C2.57374 2.08207 2.53806 2.12846 2.49138 2.16163L0.544909 3.27829V3.3295C0.520682 3.60965 0.605034 3.8884 0.780531 4.1081C0.858867 4.1713 0.956488 4.20577 1.05714 4.20577C1.15779 4.20577 1.2554 4.1713 1.33373 4.1081C1.52202 4.01683 1.68415 3.8794 1.80499 3.70858C1.90025 3.56957 1.98255 3.42209 2.05087 3.26804C2.07295 3.21742 2.10042 3.16935 2.13281 3.12463C2.15989 3.08949 2.19504 3.06136 2.23526 3.04266L2.39918 2.94023C2.41631 2.93034 2.43574 2.92513 2.45552 2.92513C2.4753 2.92513 2.49474 2.93034 2.51187 2.94023C2.52446 2.96204 2.53108 2.98675 2.53108 3.01192C2.53108 3.0371 2.52446 3.06184 2.51187 3.08364C2.49634 3.21988 2.46542 3.35393 2.41967 3.4832C2.35956 3.6503 2.28411 3.81149 2.19429 3.9647C2.08666 4.13909 1.95948 4.30063 1.81523 4.44619C1.66654 4.61247 1.48968 4.75119 1.29276 4.85597C1.14491 4.95588 0.969084 5.0061 0.79077 4.99938C0.640475 4.98815 0.500645 4.91823 0.401485 4.80473C0.274814 4.6706 0.180232 4.50948 0.124876 4.33349C0.0570676 4.10332 0.0158258 3.86615 0.00194614 3.62661C-0.00545052 3.35618 0.0082436 3.08557 0.0429177 2.81727ZM0.544909 2.55093L2.09184 1.68014C2.10749 1.55223 2.09645 1.42246 2.05942 1.29903C2.02239 1.1756 1.96017 1.06117 1.8767 0.963001C1.73327 0.829821 1.53863 0.840066 1.29276 0.963001C1.17943 1.03441 1.07897 1.12447 0.995659 1.22937C0.89314 1.33947 0.806895 1.46368 0.739544 1.59819C0.669759 1.74959 0.614874 1.90741 0.575642 2.06944C0.536737 2.23774 0.512732 2.40915 0.503922 2.58167L0.544909 2.55093Z" fill="#071C54"/>
</svg>
