<svg width="42" height="43" viewBox="0 0 42 43" fill="none" xmlns="http://www.w3.org/2000/svg">
<path d="M2.625 36.75C2.625 37.1191 2.69336 37.4609 2.83008 37.7754C2.9668 38.0898 3.15137 38.3633 3.38379 38.5957C3.61621 38.8281 3.89648 39.0195 4.22461 39.1699C4.55273 39.3203 4.89453 39.3887 5.25 39.375H18.375L23.6455 42H5.25C4.52539 42 3.84863 41.8633 3.21973 41.5898C2.59082 41.3164 2.03027 40.9404 1.53809 40.4619C1.0459 39.9834 0.669922 39.4297 0.410156 38.8008C0.150391 38.1719 0.0136719 37.4883 0 36.75V5.25C0 4.58008 0.143555 3.93066 0.430664 3.30176C0.717773 2.67285 1.10742 2.1123 1.59961 1.62012C2.0918 1.12793 2.65234 0.738281 3.28125 0.451172C3.91016 0.164062 4.56641 0.0136719 5.25 0H34.125V13.9658L31.5 12.6533V2.625H5.25C4.93555 2.625 4.62109 2.7002 4.30664 2.85059C3.99219 3.00098 3.71191 3.20605 3.46582 3.46582C3.21973 3.72559 3.02148 4.00586 2.87109 4.30664C2.7207 4.60742 2.63867 4.92188 2.625 5.25V32.2383C3.02148 32.0059 3.43848 31.8281 3.87598 31.7051C4.31348 31.582 4.77148 31.5137 5.25 31.5H15.75V34.125H5.25C4.88086 34.125 4.53906 34.1934 4.22461 34.3301C3.91016 34.4668 3.63672 34.6514 3.4043 34.8838C3.17188 35.1162 2.98047 35.3965 2.83008 35.7246C2.67969 36.0527 2.61133 36.3945 2.625 36.75ZM42 20.8154V36.4424L30.1875 42.3281L18.375 36.4424V20.8154L30.1875 14.9297L42 20.8154ZM30.1875 17.8623L22.6201 21.6357L30.1875 25.4092L37.7549 21.6357L30.1875 17.8623ZM21 34.8223L28.875 38.7393V27.6855L21 23.748V34.8223ZM39.375 34.8223V23.748L31.5 27.6855V38.7393L39.375 34.8223Z" fill="white"/>
</svg>
