<svg width="1" height="7" viewBox="0 0 1 7" fill="none" xmlns="http://www.w3.org/2000/svg">
<path d="M0.61107 0.721616C0.626008 0.792385 0.626008 0.865495 0.61107 0.936264C0.585227 0.993589 0.541668 1.0411 0.486802 1.07182L0.136595 1.28647C0.118797 1.30021 0.0969456 1.30767 0.0744605 1.30767C0.0519754 1.30767 0.0301242 1.30021 0.0123262 1.28647C-0.00410874 1.23503 -0.00410874 1.17977 0.0123262 1.12833V0.586057C0.00284438 0.514823 0.00284438 0.442644 0.0123262 0.37141C0.0414076 0.313222 0.0840231 0.262853 0.136595 0.224542L0.486802 0.0212027C0.5046 0.00746181 0.526451 0 0.548936 0C0.571421 0 0.593272 0.00746181 0.61107 0.0212027C0.621634 0.0462289 0.627076 0.0731262 0.627076 0.100291C0.627076 0.127455 0.621634 0.154352 0.61107 0.179378V0.721616ZM0.61107 6.49444C0.625075 6.56531 0.625075 6.63823 0.61107 6.70909C0.58886 6.76519 0.549271 6.81269 0.498101 6.84465L0.260863 6.98021C0.244834 6.99304 0.224909 7.00003 0.204375 7.00003C0.183841 7.00003 0.163915 6.99304 0.147886 6.98021C0.147886 6.98021 0.147886 6.90113 0.147886 6.83334V2.35971C0.131881 2.28905 0.131881 2.21571 0.147886 2.14506C0.172994 2.08762 0.211786 2.03719 0.260863 1.99819L0.498101 1.87394C0.514131 1.86111 0.534047 1.85412 0.554581 1.85412C0.575116 1.85412 0.595041 1.86111 0.61107 1.87394C0.630125 1.92494 0.630125 1.98108 0.61107 2.03208V6.49444Z" fill="#455A64"/>
</svg>
