<svg width="74" height="76" viewBox="0 0 74 76" fill="none" xmlns="http://www.w3.org/2000/svg">
<path d="M72.233 0H1.76717C0.791188 0 0 0.78361 0 1.75024V73.9477C0 74.9143 0.791188 75.6979 1.76717 75.6979H72.233C73.209 75.6979 74.0002 74.9143 74.0002 73.9477V1.75024C74.0002 0.78361 73.209 0 72.233 0Z" fill="#F2F2F2"/>
<path d="M68.6986 9.40753H56.7703C55.7943 9.40753 55.0031 10.1911 55.0031 11.1578V25.3785C55.0031 26.3451 55.7943 27.1287 56.7703 27.1287H68.6986C69.6746 27.1287 70.4658 26.3451 70.4658 25.3785V11.1578C70.4658 10.1911 69.6746 9.40753 68.6986 9.40753Z" fill="white"/>
<path fill-rule="evenodd" clip-rule="evenodd" d="M62.7344 19.6902C64.6865 19.6902 66.2688 18.1231 66.2688 16.1897C66.2688 14.2564 64.6865 12.6892 62.7344 12.6892C60.7824 12.6892 59.2001 14.2564 59.2001 16.1897C59.2001 18.1231 60.7824 19.6902 62.7344 19.6902Z" fill="#DDE3E9"/>
<path d="M67.5941 20.5653H57.8746C57.5086 20.5653 57.2119 20.8592 57.2119 21.2217C57.2119 21.5842 57.5086 21.878 57.8746 21.878H67.5941C67.96 21.878 68.2567 21.5842 68.2567 21.2217C68.2567 20.8592 67.96 20.5653 67.5941 20.5653Z" fill="#DDE3E9"/>
<path d="M65.8267 22.7532H59.6416C59.2756 22.7532 58.9789 23.047 58.9789 23.4095C58.9789 23.772 59.2756 24.0659 59.6416 24.0659H65.8267C66.1927 24.0659 66.4894 23.772 66.4894 23.4095C66.4894 23.047 66.1927 22.7532 65.8267 22.7532Z" fill="#DDE3E9"/>
<path d="M0 1.75024C0 0.783671 0.79125 0 1.76717 0H72.233C73.209 0 74.0002 0.783671 74.0002 1.75024V5.90706H0V1.75024Z" fill="#C5CFD6"/>
<path fill-rule="evenodd" clip-rule="evenodd" d="M2.87175 3.93808C3.35971 3.93808 3.75533 3.54625 3.75533 3.06296C3.75533 2.57968 3.35971 2.18784 2.87175 2.18784C2.38379 2.18784 1.98816 2.57968 1.98816 3.06296C1.98816 3.54625 2.38379 3.93808 2.87175 3.93808Z" fill="#F2F2F2"/>
<path fill-rule="evenodd" clip-rule="evenodd" d="M5.52247 3.93808C6.01043 3.93808 6.40605 3.54625 6.40605 3.06296C6.40605 2.57968 6.01043 2.18784 5.52247 2.18784C5.03451 2.18784 4.63889 2.57968 4.63889 3.06296C4.63889 3.54625 5.03451 3.93808 5.52247 3.93808Z" fill="#F2F2F2"/>
<path fill-rule="evenodd" clip-rule="evenodd" d="M8.17319 3.93808C8.66115 3.93808 9.05678 3.54625 9.05678 3.06296C9.05678 2.57968 8.66115 2.18784 8.17319 2.18784C7.68523 2.18784 7.28961 2.57968 7.28961 3.06296C7.28961 3.54625 7.68523 3.93808 8.17319 3.93808Z" fill="#F2F2F2"/>
<path d="M68.6986 28.879H56.7703C55.7943 28.879 55.0031 29.6626 55.0031 30.6292V69.5721C55.0031 70.5387 55.7943 71.3224 56.7703 71.3224H68.6986C69.6746 71.3224 70.4658 70.5387 70.4658 69.5721V30.6292C70.4658 29.6626 69.6746 28.879 68.6986 28.879Z" fill="white"/>
<path d="M65.6063 32.817H59.863C59.375 32.817 58.9794 33.2088 58.9794 33.6921V37.6302C58.9794 38.1135 59.375 38.5053 59.863 38.5053H65.6063C66.0943 38.5053 66.4899 38.1135 66.4899 37.6302V33.6921C66.4899 33.2088 66.0943 32.817 65.6063 32.817Z" fill="#DDE3E9"/>
<path d="M65.6063 40.2555H59.863C59.375 40.2555 58.9794 40.6473 58.9794 41.1306V44.8499C58.9794 45.3332 59.375 45.725 59.863 45.725H65.6063C66.0943 45.725 66.4899 45.3332 66.4899 44.8499V41.1306C66.4899 40.6473 66.0943 40.2555 65.6063 40.2555Z" fill="#AFB9C5"/>
<path d="M65.6063 47.4752H59.863C59.375 47.4752 58.9794 47.867 58.9794 48.3503V52.0696C58.9794 52.5529 59.375 52.9447 59.863 52.9447H65.6063C66.0943 52.9447 66.4899 52.5529 66.4899 52.0696V48.3503C66.4899 47.867 66.0943 47.4752 65.6063 47.4752Z" fill="#DDE3E9"/>
<path d="M65.6063 61.9147H59.863C59.375 61.9147 58.9794 62.3065 58.9794 62.7898V66.5091C58.9794 66.9924 59.375 67.3842 59.863 67.3842H65.6063C66.0943 67.3842 66.4899 66.9924 66.4899 66.5091V62.7898C66.4899 62.3065 66.0943 61.9147 65.6063 61.9147Z" fill="#DDE3E9"/>
<path d="M65.6063 54.695H59.863C59.375 54.695 58.9794 55.0868 58.9794 55.5701V59.2894C58.9794 59.7727 59.375 60.1645 59.863 60.1645H65.6063C66.0943 60.1645 66.4899 59.7727 66.4899 59.2894V55.5701C66.4899 55.0868 66.0943 54.695 65.6063 54.695Z" fill="#C5CFD6"/>
<path d="M52.3525 9.62637H4.41804C3.93005 9.62637 3.53446 10.0182 3.53446 10.5015V19.0339C3.53446 19.5172 3.93005 19.909 4.41804 19.909H52.3525C52.8405 19.909 53.2361 19.5172 53.2361 19.0339V10.5015C53.2361 10.0182 52.8405 9.62637 52.3525 9.62637Z" fill="white"/>
<mask id="mask0_81_1394" style="mask-type:luminance" maskUnits="userSpaceOnUse" x="5" y="12" width="38" height="5">
<path d="M42.4123 12.7112H5.52262V16.8243H42.4123V12.7112Z" fill="white"/>
</mask>
<g mask="url(#mask0_81_1394)">
<path d="M41.7496 12.7112H6.18531C5.81932 12.7112 5.52262 13.0051 5.52262 13.3676V13.5973C5.52262 13.9598 5.81932 14.2536 6.18531 14.2536H41.7496C42.1156 14.2536 42.4123 13.9598 42.4123 13.5973V13.3676C42.4123 13.0051 42.1156 12.7112 41.7496 12.7112Z" fill="#DDE3E9"/>
<path d="M29.6215 15.282H6.18531C5.81932 15.282 5.52262 15.5758 5.52262 15.9383V16.168C5.52262 16.5305 5.81932 16.8243 6.18531 16.8243H29.6215C29.9875 16.8243 30.2842 16.5305 30.2842 16.168V15.9383C30.2842 15.5758 29.9875 15.282 29.6215 15.282Z" fill="#DDE3E9"/>
</g>
<path fill-rule="evenodd" clip-rule="evenodd" d="M47.9243 16.2992C48.7783 16.2992 49.4706 15.6135 49.4706 14.7677C49.4706 13.9219 48.7783 13.2363 47.9243 13.2363C47.0703 13.2363 46.378 13.9219 46.378 14.7677C46.378 15.6135 47.0703 16.2992 47.9243 16.2992Z" fill="#DDE3E9"/>
<path fill-rule="evenodd" clip-rule="evenodd" d="M47.9249 15.4249C48.2911 15.4249 48.588 15.1309 48.588 14.7682C48.588 14.4054 48.2911 14.1114 47.9249 14.1114C47.5586 14.1114 47.2618 14.4054 47.2618 14.7682C47.2618 15.1309 47.5586 15.4249 47.9249 15.4249Z" fill="#F2F2F2"/>
<path d="M52.3525 21.6593H4.41804C3.93005 21.6593 3.53446 22.0511 3.53446 22.5344V29.3166C3.53446 29.7999 3.93005 30.1917 4.41804 30.1917H52.3525C52.8405 30.1917 53.2361 29.7999 53.2361 29.3166V22.5344C53.2361 22.0511 52.8405 21.6593 52.3525 21.6593Z" fill="white"/>
<mask id="mask1_81_1394" style="mask-type:luminance" maskUnits="userSpaceOnUse" x="5" y="24" width="38" height="4">
<path d="M42.4123 24.219H5.52262V27.632H42.4123V24.219Z" fill="white"/>
</mask>
<g mask="url(#mask1_81_1394)">
<path d="M41.7662 24.219H6.16874C5.8119 24.219 5.52262 24.5055 5.52262 24.8589C5.52262 25.2123 5.8119 25.4988 6.16874 25.4988H41.7662C42.123 25.4988 42.4123 25.2123 42.4123 24.8589C42.4123 24.5055 42.123 24.219 41.7662 24.219Z" fill="#DDE3E9"/>
<path d="M29.6381 26.3521H6.16874C5.8119 26.3521 5.52262 26.6386 5.52262 26.9921C5.52262 27.3455 5.8119 27.632 6.16874 27.632H29.6381C29.9949 27.632 30.2842 27.3455 30.2842 26.9921C30.2842 26.6386 29.9949 26.3521 29.6381 26.3521Z" fill="#DDE3E9"/>
</g>
<path fill-rule="evenodd" clip-rule="evenodd" d="M47.9243 27.457C48.7783 27.457 49.4706 26.7713 49.4706 25.9255C49.4706 25.0797 48.7783 24.3941 47.9243 24.3941C47.0703 24.3941 46.378 25.0797 46.378 25.9255C46.378 26.7713 47.0703 27.457 47.9243 27.457Z" fill="#DDE3E9"/>
<path fill-rule="evenodd" clip-rule="evenodd" d="M47.9249 26.5827C48.2911 26.5827 48.588 26.2887 48.588 25.926C48.588 25.5632 48.2911 25.2692 47.9249 25.2692C47.5586 25.2692 47.2618 25.5632 47.2618 25.926C47.2618 26.2887 47.5586 26.5827 47.9249 26.5827Z" fill="#F2F2F2"/>
<path d="M52.3525 31.942H4.41804C3.93005 31.942 3.53446 32.3338 3.53446 32.8171V39.5993C3.53446 40.0826 3.93005 40.4744 4.41804 40.4744H52.3525C52.8405 40.4744 53.2361 40.0826 53.2361 39.5993V32.8171C53.2361 32.3338 52.8405 31.942 52.3525 31.942Z" fill="white"/>
<mask id="mask2_81_1394" style="mask-type:luminance" maskUnits="userSpaceOnUse" x="5" y="34" width="38" height="4">
<path d="M42.4123 34.5018H5.52262V37.9147H42.4123V34.5018Z" fill="white"/>
</mask>
<g mask="url(#mask2_81_1394)">
<path d="M41.7662 34.5018H6.16874C5.8119 34.5018 5.52262 34.7883 5.52262 35.1417C5.52262 35.4951 5.8119 35.7816 6.16874 35.7816H41.7662C42.123 35.7816 42.4123 35.4951 42.4123 35.1417C42.4123 34.7883 42.123 34.5018 41.7662 34.5018Z" fill="#DDE3E9"/>
<path d="M29.6381 36.6349H6.16874C5.8119 36.6349 5.52262 36.9214 5.52262 37.2749C5.52262 37.6283 5.8119 37.9148 6.16874 37.9148H29.6381C29.9949 37.9148 30.2842 37.6283 30.2842 37.2749C30.2842 36.9214 29.9949 36.6349 29.6381 36.6349Z" fill="#DDE3E9"/>
</g>
<path fill-rule="evenodd" clip-rule="evenodd" d="M47.9243 37.7397C48.7783 37.7397 49.4706 37.054 49.4706 36.2082C49.4706 35.3624 48.7783 34.6767 47.9243 34.6767C47.0703 34.6767 46.378 35.3624 46.378 36.2082C46.378 37.054 47.0703 37.7397 47.9243 37.7397Z" fill="#DDE3E9"/>
<path fill-rule="evenodd" clip-rule="evenodd" d="M47.9249 36.8654C48.2911 36.8654 48.588 36.5714 48.588 36.2086C48.588 35.8459 48.2911 35.5519 47.9249 35.5519C47.5586 35.5519 47.2618 35.8459 47.2618 36.2086C47.2618 36.5714 47.5586 36.8654 47.9249 36.8654Z" fill="#AFB9C5"/>
<path d="M52.3525 62.79H4.41804C3.93005 62.79 3.53446 63.1818 3.53446 63.6651V70.4473C3.53446 70.9306 3.93005 71.3224 4.41804 71.3224H52.3525C52.8405 71.3224 53.2361 70.9306 53.2361 70.4473V63.6651C53.2361 63.1818 52.8405 62.79 52.3525 62.79Z" fill="white"/>
<mask id="mask3_81_1394" style="mask-type:luminance" maskUnits="userSpaceOnUse" x="5" y="65" width="38" height="4">
<path d="M42.4123 65.3498H5.52262V68.7627H42.4123V65.3498Z" fill="white"/>
</mask>
<g mask="url(#mask3_81_1394)">
<path d="M41.7662 65.3498H6.16874C5.8119 65.3498 5.52262 65.6363 5.52262 65.9897C5.52262 66.3431 5.8119 66.6296 6.16874 66.6296H41.7662C42.123 66.6296 42.4123 66.3431 42.4123 65.9897C42.4123 65.6363 42.123 65.3498 41.7662 65.3498Z" fill="#DDE3E9"/>
<path d="M29.6381 67.4829H6.16874C5.8119 67.4829 5.52262 67.7694 5.52262 68.1229C5.52262 68.4763 5.8119 68.7628 6.16874 68.7628H29.6381C29.9949 68.7628 30.2842 68.4763 30.2842 68.1229C30.2842 67.7694 29.9949 67.4829 29.6381 67.4829Z" fill="#DDE3E9"/>
</g>
<path fill-rule="evenodd" clip-rule="evenodd" d="M47.9243 68.5877C48.7783 68.5877 49.4706 67.902 49.4706 67.0562C49.4706 66.2104 48.7783 65.5247 47.9243 65.5247C47.0703 65.5247 46.378 66.2104 46.378 67.0562C46.378 67.902 47.0703 68.5877 47.9243 68.5877Z" fill="#DDE3E9"/>
<path fill-rule="evenodd" clip-rule="evenodd" d="M47.9249 67.7134C48.2911 67.7134 48.588 67.4194 48.588 67.0566C48.588 66.6939 48.2911 66.3999 47.9249 66.3999C47.5586 66.3999 47.2618 66.6939 47.2618 67.0566C47.2618 67.4194 47.5586 67.7134 47.9249 67.7134Z" fill="#F2F2F2"/>
<path d="M52.3525 52.5073H4.41804C3.93005 52.5073 3.53446 52.8991 3.53446 53.3824V60.1646C3.53446 60.6479 3.93005 61.0397 4.41804 61.0397H52.3525C52.8405 61.0397 53.2361 60.6479 53.2361 60.1646V53.3824C53.2361 52.8991 52.8405 52.5073 52.3525 52.5073Z" fill="white"/>
<mask id="mask4_81_1394" style="mask-type:luminance" maskUnits="userSpaceOnUse" x="5" y="55" width="38" height="4">
<path d="M42.4123 55.0671H5.52262V58.4801H42.4123V55.0671Z" fill="white"/>
</mask>
<g mask="url(#mask4_81_1394)">
<path d="M41.7662 55.0671H6.16874C5.8119 55.0671 5.52262 55.3536 5.52262 55.707C5.52262 56.0605 5.8119 56.347 6.16874 56.347H41.7662C42.123 56.347 42.4123 56.0605 42.4123 55.707C42.4123 55.3536 42.123 55.0671 41.7662 55.0671Z" fill="#DDE3E9"/>
<path d="M29.6381 57.2003H6.16874C5.8119 57.2003 5.52262 57.4868 5.52262 57.8402C5.52262 58.1936 5.8119 58.4801 6.16874 58.4801H29.6381C29.9949 58.4801 30.2842 58.1936 30.2842 57.8402C30.2842 57.4868 29.9949 57.2003 29.6381 57.2003Z" fill="#DDE3E9"/>
</g>
<path fill-rule="evenodd" clip-rule="evenodd" d="M47.9243 58.305C48.7783 58.305 49.4706 57.6193 49.4706 56.7735C49.4706 55.9277 48.7783 55.2421 47.9243 55.2421C47.0703 55.2421 46.378 55.9277 46.378 56.7735C46.378 57.6193 47.0703 58.305 47.9243 58.305Z" fill="#DDE3E9"/>
<path fill-rule="evenodd" clip-rule="evenodd" d="M47.9249 57.4307C48.2911 57.4307 48.588 57.1367 48.588 56.774C48.588 56.4112 48.2911 56.1172 47.9249 56.1172C47.5586 56.1172 47.2618 56.4112 47.2618 56.774C47.2618 57.1367 47.5586 57.4307 47.9249 57.4307Z" fill="#F2F2F2"/>
<path d="M52.3525 42.2246H4.41804C3.93005 42.2246 3.53446 42.6164 3.53446 43.0998V49.8819C3.53446 50.3653 3.93005 50.7571 4.41804 50.7571H52.3525C52.8405 50.7571 53.2361 50.3653 53.2361 49.8819V43.0998C53.2361 42.6164 52.8405 42.2246 52.3525 42.2246Z" fill="white"/>
<mask id="mask5_81_1394" style="mask-type:luminance" maskUnits="userSpaceOnUse" x="5" y="44" width="38" height="5">
<path d="M42.4123 44.7844H5.52262V48.1974H42.4123V44.7844Z" fill="white"/>
</mask>
<g mask="url(#mask5_81_1394)">
<path d="M41.7662 44.7844H6.16874C5.8119 44.7844 5.52262 45.0709 5.52262 45.4244C5.52262 45.7778 5.8119 46.0643 6.16874 46.0643H41.7662C42.123 46.0643 42.4123 45.7778 42.4123 45.4244C42.4123 45.0709 42.123 44.7844 41.7662 44.7844Z" fill="#DDE3E9"/>
<path d="M29.6381 46.9176H6.16874C5.8119 46.9176 5.52262 47.2041 5.52262 47.5575C5.52262 47.9109 5.8119 48.1975 6.16874 48.1975H29.6381C29.9949 48.1975 30.2842 47.9109 30.2842 47.5575C30.2842 47.2041 29.9949 46.9176 29.6381 46.9176Z" fill="#DDE3E9"/>
</g>
<path fill-rule="evenodd" clip-rule="evenodd" d="M47.9243 48.0223C48.7783 48.0223 49.4706 47.3367 49.4706 46.4909C49.4706 45.6451 48.7783 44.9594 47.9243 44.9594C47.0703 44.9594 46.378 45.6451 46.378 46.4909C46.378 47.3367 47.0703 48.0223 47.9243 48.0223Z" fill="#DDE3E9"/>
<path fill-rule="evenodd" clip-rule="evenodd" d="M47.9249 47.1481C48.2911 47.1481 48.588 46.8541 48.588 46.4913C48.588 46.1286 48.2911 45.8345 47.9249 45.8345C47.5586 45.8345 47.2618 46.1286 47.2618 46.4913C47.2618 46.8541 47.5586 47.1481 47.9249 47.1481Z" fill="#F2F2F2"/>
</svg>
