<svg width="1" height="5" viewBox="0 0 1 5" fill="none" xmlns="http://www.w3.org/2000/svg">
<path d="M0.614057 0.0206561C0.63076 0.0072834 0.651522 0 0.672918 0C0.694315 0 0.715077 0.0072834 0.731779 0.0206561C0.751839 0.0405616 0.767455 0.0645107 0.7776 0.0908869C0.787745 0.117263 0.792173 0.145474 0.790622 0.173691V0.915299C0.787716 0.993277 0.767632 1.06965 0.731779 1.13896C0.705617 1.19881 0.665195 1.25136 0.614057 1.29199L0.178519 1.53919C0.178519 1.53919 0.0843399 1.53919 0.060797 1.53919C0.038485 1.52103 0.0213144 1.49735 0.0109888 1.4705C0.000663261 1.44365 -0.00246112 1.41458 0.00193605 1.38615V0.715168C-0.000881746 0.636448 0.0195959 0.55868 0.060797 0.491544C0.0832182 0.429562 0.124362 0.376078 0.178519 0.338509L0.614057 0.0206561ZM0.614057 3.5521C0.62173 3.54427 0.630894 3.53806 0.641 3.53381C0.651107 3.52956 0.661956 3.52738 0.672918 3.52738C0.683881 3.52738 0.69473 3.52956 0.704836 3.53381C0.714943 3.53806 0.724107 3.54427 0.731779 3.5521C0.75249 3.57152 0.768539 3.5954 0.778731 3.6219C0.788924 3.6484 0.79298 3.67684 0.790622 3.70513V4.37611C0.786304 4.45388 0.766297 4.52996 0.731779 4.59977C0.708636 4.65822 0.667376 4.70772 0.614057 4.74103L0.178519 5C0.178519 5 0.0843399 5 0.060797 5C0.0383834 4.97934 0.0213124 4.95355 0.0110607 4.92485C0.000808907 4.89614 -0.00232091 4.86536 0.00193605 4.83518V4.17598C-0.00238277 4.0971 0.0182107 4.01886 0.060797 3.95232C0.0798966 3.88858 0.121808 3.83413 0.178519 3.79932L0.614057 3.5521Z" fill="#455A64"/>
</svg>
