<svg width="129" height="115" viewBox="0 0 129 115" fill="none" xmlns="http://www.w3.org/2000/svg">
<path d="M79.3529 83.3211C76.0921 87.9578 72.5387 92.3817 68.7145 96.5659C78.9023 106.449 88.3715 111.077 93.6268 108.039C98.8821 105.006 99.6068 94.4893 96.1418 80.733C90.9474 81.8901 85.3085 82.773 79.3529 83.3211ZM71.3756 83.8509C66.7597 84.0421 62.1378 84.0421 57.5219 83.8509C59.8116 86.847 62.1378 89.6238 64.4457 92.151C66.7597 89.6238 69.0799 86.853 71.3756 83.8509ZM102.067 35.78C118.296 40.4324 128.897 48.1661 128.897 57.5014C128.897 66.8367 118.302 74.5704 102.073 79.2228C106.153 95.6037 104.752 108.648 96.6716 113.312C88.5908 117.983 76.5944 112.673 64.4457 100.944C52.3031 112.667 40.3067 117.983 32.2259 113.312C24.139 108.648 22.7445 95.6037 26.8245 79.2228C10.5958 74.5704 0 66.8367 0 57.5014C0 48.1661 10.5958 40.4324 26.8245 35.78C22.7445 19.3991 24.1451 6.35528 32.2259 1.68459C40.3067 -2.98 52.3031 2.33009 64.4457 14.0586C76.5944 2.33009 88.5908 -2.98 96.6716 1.68459C104.752 6.35528 106.153 19.3991 102.073 35.78H102.067ZM96.1418 34.2698C99.6129 20.5074 98.8821 9.99683 93.6268 6.95814C88.3715 3.92555 78.9023 8.55361 68.7206 18.4369C72.5421 22.6218 76.0934 27.0457 79.3529 31.6817C85.3085 32.2298 90.9474 33.1067 96.1418 34.2698ZM32.7496 80.733C29.2846 94.4954 30.0093 105.006 35.2707 108.039C40.5259 111.071 49.9952 106.449 60.1769 96.5659C56.3544 92.3798 52.803 87.9538 49.5446 83.315C43.8989 82.8103 38.2912 81.9458 32.7557 80.727L32.7496 80.733ZM57.5219 31.1519C62.1378 30.9609 66.7597 30.9609 71.3756 31.1519C69.1864 28.2866 66.8743 25.5174 64.4457 22.8519C62.1317 25.3851 59.8176 28.1559 57.5219 31.1519ZM49.5446 31.6817C52.8032 27.045 56.3545 22.6211 60.1769 18.4369C49.9952 8.55361 40.526 3.92555 35.2768 6.95814C30.0215 9.99683 29.2907 20.5135 32.7618 34.2698C37.9562 33.1128 43.589 32.2359 49.5446 31.6817ZM75.9732 77.4751C80.3121 71.1141 84.1694 64.4376 87.5129 57.5014C84.1735 50.5655 80.3203 43.889 75.9854 37.5277C68.3091 36.9532 60.6006 36.9532 52.9243 37.5277C48.5853 43.8887 44.728 50.5652 41.3846 57.5014C44.7265 64.4372 48.5817 71.1137 52.9182 77.4751C60.5945 78.049 68.303 78.049 75.9793 77.4751H75.9732ZM83.7983 76.6713C87.5434 76.1841 91.1058 75.563 94.455 74.8262C93.3599 71.3902 92.1164 68.0033 90.7282 64.6749C88.5864 68.7673 86.2704 72.7695 83.7983 76.6713ZM45.0931 38.3254C41.348 38.8126 37.7857 39.4398 34.4364 40.1766C35.4716 43.4406 36.72 46.8386 38.1693 50.3279C40.3109 46.2354 42.6208 42.2332 45.0931 38.3315V38.3254ZM34.4364 74.8262C37.7857 75.563 41.348 76.1841 45.0931 76.6713C42.6209 72.7696 40.311 68.7674 38.1693 64.6749C36.779 68.0032 35.5335 71.3901 34.4364 74.8262ZM28.4808 73.3342C30.0763 68.2556 32.1346 62.9333 34.6313 57.5014C32.2465 52.36 30.1921 47.0716 28.4808 41.6686C14.8341 45.5415 6.08955 51.4362 6.08955 57.5014C6.08955 63.5666 14.8341 69.4552 28.4808 73.3342ZM94.4672 40.1766C90.9434 39.4057 87.3878 38.7881 83.8105 38.3254C86.2826 42.2272 88.5925 46.2294 90.7343 50.3218C92.1836 46.8386 93.4259 43.4406 94.4672 40.1766ZM100.417 41.6686C98.8334 46.7473 96.7629 52.0695 94.2662 57.5014C96.7629 62.9333 98.8334 68.2556 100.417 73.3342C114.069 69.4552 122.814 63.5666 122.814 57.5014C122.814 51.4362 114.069 45.5476 100.417 41.6686ZM64.4457 68.9437C62.9117 68.9937 61.3832 68.7348 59.9513 68.1823C58.5193 67.6298 57.2131 66.795 56.1102 65.7276C55.0074 64.6601 54.1304 63.3818 53.5315 61.9686C52.9326 60.5554 52.624 59.0363 52.624 57.5014C52.624 55.9666 52.9326 54.4474 53.5315 53.0342C54.1304 51.621 55.0074 50.3427 56.1102 49.2753C57.2131 48.2078 58.5193 47.373 59.9513 46.8205C61.3832 46.268 62.9117 46.0091 64.4457 46.0591C67.4158 46.1561 70.2318 47.404 72.2985 49.5393C74.3652 51.6746 75.5207 54.5298 75.5207 57.5014C75.5207 60.4731 74.3652 63.3283 72.2985 65.4635C70.2318 67.5988 67.4158 68.8468 64.4457 68.9437Z" fill="#071C54"/>
</svg>
