<svg width="42" height="121" viewBox="0 0 42 121" fill="none" xmlns="http://www.w3.org/2000/svg">
<path d="M38.798 114.602L37.1383 115.588L3.12871 95.953L4.78844 94.9672L38.798 114.602Z" fill="#FAFAFA"/>
<path d="M4.78786 94.9673L37.1377 113.637V26.0127L4.78786 7.3532V94.9673Z" fill="white"/>
<path d="M0 97.7535L40.2361 121V24.202L0 0.955558V97.7535ZM3.12837 6.37737L37.1278 26.0126V115.538L3.12837 95.953V6.37737Z" fill="#F0F0F0"/>
<path d="M3.12871 95.953L4.78844 94.9672V7.35311L3.12871 6.37738V95.953Z" fill="#E0E0E0"/>
<path d="M0 0.955606L1.68991 0L41.9461 23.2464L40.2663 24.202L0 0.955606Z" fill="#FAFAFA"/>
<path d="M41.9464 23.2464L40.2665 24.202V121L41.9464 120.034V23.2464Z" fill="#E0E0E0"/>
<path d="M7.21224 93.0258L34.7136 108.899V28.9297L7.21224 13.0566V93.0258Z" fill="#F0F0F0"/>
<path d="M7.21224 93.0258L34.7136 108.899V28.9297L7.21224 13.0566V93.0258Z" fill="#F0F0F0"/>
<path d="M34.7136 82.2224C33.4047 82.328 32.0894 82.328 30.7805 82.2224C26.2047 81.877 21.699 80.8986 17.392 79.3153C14.0624 78.0781 10.7329 76.4887 7.21224 76.3881V93.0459L10.9341 95.1985C12.3912 93.865 14.1417 92.8933 16.0441 92.3619C21.3452 90.9637 26.777 93.6293 32.219 94.253C33.0471 94.3469 33.8802 94.3906 34.7136 94.3837V82.2224Z" fill="#FAFAFA"/>
<path d="M34.7136 62.3257C28.5575 60.505 22.2505 58.9861 17.8547 54.4696C14.324 50.8383 12.6542 45.7987 11.4873 40.8597C10.3205 35.9207 9.52579 30.8007 7.28263 26.2641C7.26325 26.2152 7.23971 26.1681 7.21224 26.1232V62.9091C7.56431 63.4221 7.9063 63.915 8.26842 64.428C12.292 69.9102 18.2671 74.487 25.0569 74.829C28.2456 75 31.545 74.2456 34.7136 74.2557V62.3257Z" fill="#FAFAFA"/>
<path d="M34.7139 43.9982C32.3345 41.8961 30.5272 39.2247 29.4612 36.234C28.3951 33.2434 28.105 30.0311 28.6182 26.8979C28.7087 26.4352 28.8093 25.9825 28.93 25.5299L18.3479 19.424C18.3982 20.1181 18.4284 20.8122 18.4485 21.5062C18.5591 25.5299 18.4485 29.6339 19.3136 33.5771C20.0904 36.8867 21.5706 39.9904 23.6534 42.6772C25.7362 45.364 28.3729 47.5711 31.3844 49.1484C32.4629 49.7009 33.5828 50.1684 34.734 50.5466L34.7139 43.9982Z" fill="#FAFAFA"/>
</svg>
