<svg width="1" height="5" viewBox="0 0 1 5" fill="none" xmlns="http://www.w3.org/2000/svg">
<path d="M0.576347 0.0205175C0.592938 0.00723454 0.613552 0 0.634805 0C0.656057 0 0.67668 0.00723454 0.693271 0.0205175C0.713196 0.0402895 0.728707 0.0640601 0.738784 0.0902593C0.748861 0.116459 0.753277 0.14448 0.751737 0.172508V0.838989C0.74885 0.916444 0.728883 0.992307 0.693271 1.06115C0.670283 1.11921 0.629308 1.16837 0.576347 1.20145L0.143722 1.45869C0.125301 1.47291 0.102685 1.48064 0.0794126 1.48064C0.0561404 1.48064 0.0335244 1.47291 0.0151035 1.45869C-0.00503449 1.41002 -0.00503449 1.35535 0.0151035 1.30668V0.640219C-0.00146164 0.567093 -0.00146164 0.491184 0.0151035 0.418058C0.0452027 0.357834 0.0893098 0.305702 0.143722 0.26605L0.576347 0.0205175ZM0.576347 3.52827C0.592938 3.51498 0.613552 3.50775 0.634805 3.50775C0.656057 3.50775 0.67668 3.51498 0.693271 3.52827C0.733067 3.57329 0.754006 3.63191 0.751737 3.69196V4.35843C0.748705 4.43214 0.728694 4.50418 0.693271 4.5689C0.673355 4.63173 0.631963 4.68553 0.576347 4.72089L0.143722 4.97813C0.125301 4.99235 0.102685 5.00007 0.0794126 5.00007C0.0561404 5.00007 0.0335244 4.99235 0.0151035 4.97813C-0.00461799 4.92534 -0.00461799 4.86722 0.0151035 4.81443V4.14797C-0.00130764 4.07877 -0.00130764 4.00669 0.0151035 3.93749C0.0417982 3.8751 0.0866036 3.82216 0.143722 3.7855L0.576347 3.52827Z" fill="#455A64"/>
</svg>
