<svg width="3" height="7" viewBox="0 0 3 7" fill="none" xmlns="http://www.w3.org/2000/svg">
<path d="M2.71304 5.15533C2.72493 5.22695 2.72493 5.30005 2.71304 5.37167C2.68373 5.43032 2.64077 5.48109 2.58778 5.51971L2.36006 5.65634C2.34212 5.67019 2.32008 5.67771 2.29742 5.67771C2.27476 5.67771 2.25274 5.67019 2.2348 5.65634C2.2156 5.60494 2.2156 5.54833 2.2348 5.49693V2.94634C2.27871 2.60518 2.1934 2.25994 1.99568 1.97848C1.84765 1.81906 1.63131 1.81906 1.35803 1.97848C1.07569 2.15521 0.853408 2.41321 0.720384 2.7186C0.549417 3.10939 0.467722 3.5334 0.481258 3.95975V6.51033C0.496656 6.58163 0.496656 6.65539 0.481258 6.72668C0.455951 6.78458 0.416869 6.8354 0.367403 6.87471L0.128277 6.99997C0.128277 6.99997 0.0485639 6.99997 0.0144041 6.99997C-0.00480137 6.94856 -0.00480137 6.89196 0.0144041 6.84055V0.509613C-0.00157763 0.442228 -0.00157763 0.37203 0.0144041 0.304645C0.0337989 0.243463 0.0741165 0.191054 0.128277 0.156614L0.367403 0.0199807C0.383559 0.00704526 0.403625 0 0.424322 0C0.445019 0 0.465102 0.00704526 0.481258 0.0199807C0.50087 0.067374 0.50087 0.120619 0.481258 0.168012V2.30868C0.569685 2.07412 0.688346 1.85212 0.83424 1.64827C0.99643 1.42001 1.20622 1.22964 1.44913 1.09032C1.61379 0.987762 1.80192 0.928977 1.99568 0.919531C2.15807 0.921855 2.31322 0.987166 2.42837 1.1017C2.55981 1.24772 2.65361 1.42362 2.70164 1.61411C2.77565 1.89257 2.81016 2.18005 2.80413 2.46811L2.71304 5.15533Z" fill="#455A64"/>
</svg>
