<svg width="7" height="14" viewBox="0 0 7 14" fill="none" xmlns="http://www.w3.org/2000/svg">
<path d="M2.82748 9.8644C2.77572 9.81265 2.72944 9.75569 2.68938 9.69442L1.78636 7.77154V12.6797C1.78834 12.7938 1.76284 12.9068 1.71199 13.009C1.67801 13.1013 1.61452 13.1797 1.53139 13.2321L0.267172 13.9651C0.240384 13.9876 0.206534 14 0.171563 14C0.136591 14 0.102741 13.9876 0.0759533 13.9651C0.0482152 13.9334 0.0272996 13.8962 0.0145075 13.856C0.00171544 13.8158 -0.00268831 13.7734 0.0015797 13.7314V4.17011C0.00188162 4.0562 0.0272796 3.94376 0.0759533 3.84078C0.116425 3.74926 0.182921 3.67166 0.267172 3.61767L1.32954 2.98026C1.45702 2.90589 1.55264 2.89527 1.61638 2.98026C1.66493 3.03212 1.70768 3.0891 1.74387 3.15023L3.30555 6.33733L4.86723 1.32297C4.9045 1.21819 4.94705 1.11535 4.99472 1.01487C5.05082 0.876109 5.1518 0.760157 5.28155 0.68554L6.40767 0.0374948C6.41951 0.0256099 6.43358 0.0161769 6.44908 0.00974249C6.46457 0.0033081 6.48119 0 6.49797 0C6.51475 0 6.53136 0.0033081 6.54685 0.00974249C6.56235 0.0161769 6.57643 0.0256099 6.58827 0.0374948C6.61601 0.0692844 6.63692 0.106436 6.64972 0.14664C6.66251 0.186844 6.6669 0.229244 6.66264 0.271217V9.83253C6.66333 9.94315 6.63785 10.0524 6.58827 10.1512C6.55428 10.2435 6.4908 10.3219 6.40767 10.3743L5.14345 11.1074C5.11666 11.1299 5.0828 11.1422 5.04783 11.1422C5.01286 11.1422 4.97901 11.1299 4.95222 11.1074C4.90093 11.0405 4.87463 10.9578 4.87786 10.8737V5.95488L3.97484 8.92951C3.9379 9.03789 3.89535 9.14427 3.84736 9.24823C3.7959 9.35413 3.71467 9.44274 3.61363 9.5032L2.99747 9.8644C2.88415 9.92106 2.82748 9.92106 2.82748 9.8644Z" fill="white"/>
</svg>
