<svg width="3" height="7" viewBox="0 0 3 7" fill="none" xmlns="http://www.w3.org/2000/svg">
<path d="M1.26329 2.25529C1.33932 2.19583 1.42722 2.15337 1.52107 2.13078C1.61491 2.10819 1.71251 2.10599 1.80727 2.12432C1.93327 2.15534 2.04402 2.23039 2.11956 2.3359V0.452072C2.10624 0.388967 2.10624 0.323773 2.11956 0.260668C2.1426 0.20955 2.18145 0.167182 2.23037 0.139787L2.43184 0.0189068C2.44771 0.00665381 2.4672 0 2.48725 0C2.5073 0 2.52678 0.00665381 2.54266 0.0189068C2.54266 0.0189068 2.54266 0.0894282 2.54266 0.149871V5.75089C2.55693 5.81389 2.55693 5.87929 2.54266 5.9423C2.51672 5.99418 2.47872 6.0391 2.43184 6.07326L2.23037 6.18406C2.2154 6.19823 2.19558 6.20613 2.17496 6.20613C2.15435 6.20613 2.13453 6.19823 2.11956 6.18406C2.10257 6.13858 2.10257 6.08852 2.11956 6.04304V5.78111C2.03939 5.98774 1.93453 6.18394 1.80727 6.36541C1.66378 6.56736 1.47818 6.73576 1.26329 6.85901C1.11369 6.94786 0.943632 6.99644 0.769675 7.00003C0.624135 6.98865 0.487869 6.92411 0.386866 6.81871C0.260357 6.67663 0.167405 6.50795 0.114878 6.3251C0.0461384 6.07209 0.00891866 5.81154 0.00406546 5.5494C-0.00135515 5.45882 -0.00135515 5.36801 0.00406546 5.27742C-0.00114133 5.18347 -0.00114133 5.08931 0.00406546 4.99536C0.0134683 4.69041 0.0505585 4.38696 0.114878 4.08872C0.179575 3.81527 0.270663 3.54874 0.386866 3.29289C0.489523 3.0704 0.618013 2.86077 0.769675 2.66832C0.90731 2.50135 1.07467 2.36132 1.26329 2.25529ZM2.11956 4.43123V3.75627C2.14644 3.46956 2.05962 3.18377 1.87779 2.96046C1.73676 2.81943 1.54535 2.81943 1.31365 2.96046C1.05492 3.12267 0.853975 3.36239 0.739447 3.64547C0.590949 3.99628 0.512254 4.37268 0.507755 4.7536C0.497671 4.91462 0.497671 5.0761 0.507755 5.23712C0.48854 5.53398 0.570183 5.82863 0.739447 6.07326C0.88048 6.23444 1.07188 6.23444 1.31365 6.07326C1.56559 5.91941 1.76291 5.6904 1.87779 5.41847C2.02801 5.11045 2.11045 4.7738 2.11956 4.43123Z" fill="#455A64"/>
</svg>
