<svg width="3" height="7" viewBox="0 0 3 7" fill="none" xmlns="http://www.w3.org/2000/svg">
<path d="M1.25741 2.24197C1.33365 2.18318 1.42144 2.14113 1.51505 2.1186C1.60865 2.09606 1.70596 2.09354 1.80061 2.1112C1.92642 2.14217 2.03702 2.21708 2.11245 2.32244V0.451422C2.09885 0.388439 2.09885 0.323276 2.11245 0.260293C2.13161 0.207326 2.16676 0.161622 2.21304 0.129517L2.41422 0.0188796C2.43007 0.00664424 2.44953 0 2.46955 0C2.48957 0 2.50903 0.00664424 2.52488 0.0188796C2.54184 0.0642899 2.54184 0.114283 2.52488 0.159694V5.75266C2.53818 5.81567 2.53818 5.88077 2.52488 5.94379C2.50186 5.99483 2.46308 6.03714 2.41422 6.06449L2.21304 6.18523C2.20648 6.19192 2.19866 6.19723 2.19002 6.20086C2.18139 6.20449 2.17211 6.20635 2.16274 6.20635C2.15337 6.20635 2.1441 6.20449 2.13547 6.20086C2.12683 6.19723 2.11901 6.19192 2.11245 6.18523C2.1033 6.16465 2.09857 6.14237 2.09857 6.11984C2.09857 6.09732 2.1033 6.07504 2.11245 6.05445V5.7929C2.03239 5.99924 1.92768 6.19516 1.80061 6.37636C1.65694 6.57502 1.47154 6.7398 1.25741 6.85919C1.11371 6.95236 0.945824 7.00134 0.774562 7.00003C0.699936 7.0002 0.626171 6.98409 0.558414 6.95282C0.490656 6.92154 0.430538 6.87584 0.38225 6.81894C0.255806 6.68101 0.162861 6.5158 0.110645 6.33611C0.042695 6.08333 0.00554868 5.82323 0 5.56153C0 5.48105 0 5.39053 0 5.28994C0 5.18935 0 5.08875 0 5.00828C0.0102275 4.70051 0.0472445 4.39422 0.110645 4.09288C0.175197 3.82306 0.266174 3.56025 0.38225 3.30826C0.484412 3.08369 0.61637 2.87391 0.774562 2.68459C0.905676 2.50748 1.0696 2.35722 1.25741 2.24197ZM2.11245 4.41479C2.11245 4.32425 2.11245 4.2136 2.11245 4.07277C2.11245 3.93194 2.11245 3.82127 2.11245 3.7408C2.13895 3.45614 2.05624 3.17208 1.88108 2.94614C1.73019 2.80531 1.54913 2.80531 1.3077 2.94614C1.04676 3.10965 0.845637 3.35311 0.734324 3.64023C0.586039 3.99054 0.507457 4.36636 0.502965 4.74673V5.22959C0.485344 5.52585 0.56673 5.81955 0.734324 6.06449C0.875154 6.22544 1.06628 6.22544 1.3077 6.06449C1.55901 5.91508 1.75629 5.68963 1.87102 5.42071C2.02384 5.10701 2.10625 4.76368 2.11245 4.41479Z" fill="#455A64"/>
</svg>
