<svg width="3" height="6" viewBox="0 0 3 6" fill="none" xmlns="http://www.w3.org/2000/svg">
<path d="M2.76423 4.19103C2.76146 4.26546 2.74227 4.33837 2.70805 4.40452C2.68307 4.46165 2.64449 4.5118 2.59568 4.55059L2.37096 4.67417C2.35427 4.68998 2.33216 4.69879 2.30917 4.69879C2.28618 4.69879 2.26406 4.68998 2.24737 4.67417C2.22841 4.62345 2.22841 4.56759 2.24737 4.51687V2.00001C2.29069 1.66336 2.20653 1.32268 2.01142 1.04494C1.86535 0.887638 1.65187 0.887638 1.3822 1.04494C1.1007 1.21595 0.880452 1.47159 0.752972 1.77529C0.584266 2.16092 0.503668 2.57931 0.517025 3.00002V5.51688C0.532219 5.58723 0.532219 5.66001 0.517025 5.73036C0.492052 5.78749 0.45347 5.83765 0.404658 5.87644L0.168711 6.00003C0.168711 6.00003 0.090052 6.00003 0.0563439 6.00003C0.0181015 5.95677 -0.00201986 5.90044 0.000160345 5.84273V1.4045C0.0030739 1.33366 0.0223031 1.26444 0.0563439 1.20225C0.0754822 1.14187 0.115267 1.09017 0.168711 1.05619L0.404658 0.921345C0.420601 0.908581 0.440418 0.901629 0.460842 0.901629C0.481265 0.901629 0.501082 0.908581 0.517025 0.921345C0.536377 0.968112 0.536377 1.02065 0.517025 1.06742V1.3708C0.599823 1.13734 0.717238 0.917656 0.865339 0.719105C1.01957 0.488773 1.22789 0.299734 1.47208 0.168534C1.63456 0.0673286 1.82022 0.00932084 2.01142 0C2.08919 0.000786565 2.16602 0.0170833 2.2374 0.0479541C2.30879 0.0788248 2.3733 0.123635 2.42715 0.179763C2.5633 0.320902 2.66014 0.495232 2.70805 0.685398C2.78182 0.960029 2.81587 1.24381 2.80917 1.5281L2.76423 4.19103Z" fill="#455A64"/>
</svg>
