<svg width="1" height="7" viewBox="0 0 1 7" fill="none" xmlns="http://www.w3.org/2000/svg">
<path d="M0.612046 0.731725C0.626959 0.80238 0.626959 0.875372 0.612046 0.946026C0.586244 1.00326 0.542755 1.0507 0.487978 1.08137L0.138336 1.2844C0.121578 1.30026 0.0993698 1.30909 0.0762933 1.30909C0.0532168 1.30909 0.0310256 1.30026 0.0142678 1.2844C-0.00475594 1.23348 -0.00475594 1.17741 0.0142678 1.12649V0.585095C-0.000645345 0.51444 -0.000645345 0.441448 0.0142678 0.370793C0.0400698 0.313561 0.0835587 0.266124 0.138336 0.235452L0.487978 0.0211513C0.505747 0.00743257 0.527572 0 0.550021 0C0.57247 0 0.594277 0.00743257 0.612046 0.0211513C0.622593 0.0461371 0.628035 0.072991 0.628035 0.100112C0.628035 0.127232 0.622593 0.154069 0.612046 0.179055V0.731725ZM0.555648 6.49523C0.56963 6.56597 0.56963 6.63878 0.555648 6.70953C0.533474 6.76553 0.493958 6.81296 0.44287 6.84487L0.206006 6.98021C0.190003 6.99302 0.17011 7.00002 0.149609 7.00002C0.129108 7.00002 0.109232 6.99302 0.0932281 6.98021C0.0738026 6.93326 0.0738026 6.88054 0.0932281 6.83359V2.37845C0.077249 2.30791 0.077249 2.23468 0.0932281 2.16415C0.118296 2.1068 0.157009 2.05645 0.206006 2.01752L0.44287 1.89345C0.44287 1.89345 0.521812 1.89345 0.555648 1.89345C0.574672 1.94436 0.574672 2.00043 0.555648 2.05135V6.49523Z" fill="#455A64"/>
</svg>
