<svg width="3" height="7" viewBox="0 0 3 7" fill="none" xmlns="http://www.w3.org/2000/svg">
<path d="M2.69398 5.12938C2.71087 5.2003 2.71087 5.2742 2.69398 5.34512C2.67172 5.40455 2.63217 5.45594 2.58044 5.49271L2.35336 5.62897C2.33547 5.64279 2.31351 5.65027 2.29091 5.65027C2.26831 5.65027 2.24635 5.64279 2.22846 5.62897C2.21784 5.60382 2.21237 5.57679 2.21237 5.54949C2.21237 5.52218 2.21784 5.49517 2.22846 5.47001V2.93798C2.27292 2.59418 2.18794 2.24614 1.99002 1.96153C1.84241 1.80256 1.62668 1.80256 1.35418 1.96153C1.06971 2.13433 0.847149 2.39265 0.718327 2.69955C0.548004 3.09329 0.466592 3.51974 0.479887 3.94854V6.48055C0.495241 6.55164 0.495241 6.6252 0.479887 6.69629C0.457621 6.75572 0.418078 6.80712 0.366345 6.84388L0.127905 6.98015C0.111794 6.99304 0.091768 7.00007 0.0711299 7.00007C0.0504917 7.00007 0.030474 6.99304 0.0143633 6.98015C-0.00478777 6.92889 -0.00478777 6.87244 0.0143633 6.82118V0.508153C-0.000775812 0.440868 -0.000775812 0.371068 0.0143633 0.303783C0.0337032 0.242774 0.0738979 0.190513 0.127905 0.156171L0.366345 0.0199242C0.382456 0.00702531 0.402474 0 0.423112 0C0.44375 0 0.463776 0.00702531 0.479887 0.0199242C0.499443 0.0671832 0.499443 0.120277 0.479887 0.167536V2.30214C0.570549 2.06938 0.688714 1.84829 0.831869 1.64359C0.987728 1.41083 1.19825 1.21982 1.445 1.08724C1.6092 0.984965 1.79681 0.926329 1.99002 0.91691C2.14751 0.924274 2.29689 0.988878 2.41012 1.09858C2.54771 1.24121 2.64557 1.41736 2.69398 1.60953C2.76705 1.88733 2.80145 2.17389 2.79618 2.4611L2.69398 5.12938Z" fill="#455A64"/>
</svg>
