<svg width="58" height="46" viewBox="0 0 58 46" fill="none" xmlns="http://www.w3.org/2000/svg">
<path d="M44.617 21.2903C45.8268 23.0895 46.7389 25.1093 47.2612 27.2716C46.9784 27.2577 46.6912 27.25 46.4 27.25C39.2867 27.25 32.9717 30.6457 29.0019 35.8817C27.2129 33.5161 24.948 31.5341 22.3427 30.0662C19.0674 28.2208 15.3659 27.2507 11.6003 27.25H11.6C11.3088 27.25 11.0216 27.2577 10.7388 27.2716C11.2611 25.1093 12.1732 23.0895 13.383 21.2903L28.4466 27.2692L29 27.4888L29.5534 27.2692L44.617 21.2903ZM29 1.61364L53.9308 11.5L28.9996 21.3865L7.9183 13.0379L5.83508 12.2129L5.8359 12.1935L4.84332 11.8012L4.07512 11.4976L29 1.61364ZM5.8029 12.9711L5.86734 14.4958L7.13527 44.5H4.465L5.79065 13.2598L5.8029 12.9711ZM29 7.125C28.0252 7.125 27.0635 7.31503 26.2894 7.6961C25.6049 8.03305 24.6 8.77902 24.6 10.0625C24.6 11.346 25.6049 12.0919 26.2894 12.4289C27.0635 12.81 28.0252 13 29 13C29.9748 13 30.9365 12.81 31.7106 12.4289C32.3951 12.0919 33.4 11.346 33.4 10.0625C33.4 8.77902 32.3951 8.03305 31.7106 7.6961C30.9365 7.31503 29.9748 7.125 29 7.125Z" stroke="#FAB91D" stroke-width="3"/>
</svg>
