<svg width="7" height="2" viewBox="0 0 7 2" fill="none" xmlns="http://www.w3.org/2000/svg">
<path d="M0.222542 1.14446H0.296425C2.31835 0.344551 4.55351 0.262593 6.62858 0.912282C6.65863 0.931038 6.69241 0.942982 6.72757 0.947291C6.76273 0.951601 6.79841 0.948154 6.8321 0.93721C6.86579 0.926267 6.89667 0.908088 6.92258 0.88394C6.9485 0.859791 6.96881 0.830266 6.9821 0.797432C6.99539 0.764598 7.00135 0.729261 6.99952 0.693886C6.9977 0.658511 6.98816 0.623955 6.97157 0.59266C6.95498 0.561364 6.93173 0.534081 6.90347 0.512722C6.87521 0.491363 6.84262 0.476442 6.80799 0.469017C4.62844 -0.228083 2.27438 -0.146006 0.148675 0.701197C0.0924214 0.726709 0.0474332 0.77189 0.0221663 0.828254C-0.00310051 0.884619 -0.00690946 0.948291 0.0114736 1.00726C0.0307498 1.04724 0.0606224 1.08117 0.0978367 1.10536C0.135051 1.12955 0.178179 1.14308 0.222542 1.14446Z" fill="#263238"/>
</svg>
