<svg width="94" height="72" viewBox="0 0 94 72" fill="none" xmlns="http://www.w3.org/2000/svg">
<g opacity="0.25">
<path d="M93.949 4.51198V14.2757C93.8611 16.0792 93.344 17.8356 92.4406 19.399C91.5372 20.9624 90.2737 22.2876 88.7551 23.2643L63.1078 38.0709C61.8395 38.8057 61.0946 40.2652 60.3498 41.8053C59.8288 42.9719 59.1515 44.0623 58.3367 45.0464C56.3235 47.3012 52.0053 49.6565 48.9353 50.643C47.9506 50.9633 46.9404 51.199 45.9156 51.3475L44.6574 51.5187C41.8592 51.9012 38.3664 52.3742 36.323 53.5318L6.28707 70.9454C5.49882 71.4325 4.59617 71.7032 3.66999 71.7305C3.05654 71.736 2.45247 71.5798 1.91857 71.2776C1.27607 70.8516 0.760292 70.2603 0.425504 69.566C0.0907163 68.8716 -0.0506949 68.0998 0.0161562 67.3318V57.5681C0.102476 55.7629 0.618857 54.0045 1.5223 52.4392C2.42574 50.8739 3.69009 49.5472 5.21005 48.5694L15.2757 42.7515C15.3196 42.7272 15.3672 42.7102 15.4166 42.7011C15.6569 42.5677 15.9403 42.5351 16.2046 42.6106C16.4689 42.6861 16.6924 42.8635 16.8258 43.1038C16.9593 43.344 16.9919 43.6275 16.9164 43.8918C16.8409 44.156 16.6635 44.3795 16.4232 44.513C16.3969 44.5566 16.3584 44.5916 16.3125 44.6136L6.24681 50.4316C5.05745 51.2238 4.06713 52.2801 3.35304 53.518C2.63894 54.7559 2.22037 56.1419 2.12995 57.5681V67.3318C2.02136 67.7169 2.044 68.1271 2.19431 68.4978C2.34461 68.8686 2.61403 69.1788 2.96008 69.3795C3.30614 69.5802 3.70916 69.66 4.1056 69.6064C4.50204 69.5527 4.86936 69.3687 5.14965 69.0833L35.1655 51.7502C37.5812 50.3611 41.3055 49.8578 44.285 49.4653L45.5331 49.2841C46.4593 49.1535 47.3721 48.9413 48.2609 48.65C50.9887 47.7944 55.0251 45.6302 56.696 43.6976C57.3643 42.8433 57.9255 41.9103 58.3668 40.9195C59.2325 39.158 60.1384 37.3361 61.9704 36.2792L87.6177 21.4726C88.8058 20.6814 89.7953 19.6267 90.5093 18.3907C91.2233 17.1547 91.6426 15.7706 91.7346 14.3461V4.51198C91.7837 4.12327 91.7338 3.72845 91.5895 3.36418C91.4452 2.99992 91.2111 2.67802 90.9092 2.42839C90.5426 2.28906 90.1463 2.24644 89.7585 2.30461C89.3706 2.36279 89.0043 2.51981 88.6947 2.76056L79.9577 7.79339C79.6653 7.13548 79.297 6.51392 78.8606 5.94131L87.6177 0.90847C88.2254 0.39879 88.9745 0.0872901 89.7644 0.015813C90.5543 -0.0556641 91.3471 0.116311 92.0364 0.508629C92.7257 0.900947 93.2784 1.49481 93.6203 2.21046C93.9622 2.92611 94.0769 3.72924 93.949 4.51198Z" fill="black"/>
</g>
</svg>
