<svg width="3" height="8" viewBox="0 0 3 8" fill="none" xmlns="http://www.w3.org/2000/svg">
<path d="M2.7135 6.55469C2.72885 6.61944 2.72885 6.68687 2.7135 6.75162C2.69204 6.80889 2.65393 6.85843 2.60408 6.89386L2.37433 7.02514C2.35881 7.03757 2.33951 7.04434 2.31962 7.04434C2.29974 7.04434 2.28044 7.03757 2.26491 7.02514C2.25468 7.0009 2.24942 6.97489 2.24942 6.94858C2.24942 6.92227 2.25468 6.89622 2.26491 6.87199V3.10831L1.17082 3.73195V7.50654C1.16681 7.57882 1.1482 7.64954 1.11612 7.71442C1.0918 7.77005 1.05425 7.81889 1.00672 7.85666L0.776951 7.97699C0.76982 7.98427 0.761319 7.99008 0.751926 7.99402C0.742532 7.99797 0.732432 8 0.722243 8C0.712054 8 0.70197 7.99797 0.692577 7.99402C0.683183 7.99008 0.674683 7.98427 0.667552 7.97699C0.667552 7.97699 0.667552 7.90044 0.667552 7.83479V4.02735L0.164263 4.31182C0.157132 4.3191 0.148615 4.32487 0.139221 4.32881C0.129828 4.33276 0.119744 4.33479 0.109555 4.33479C0.0993661 4.33479 0.0892824 4.33276 0.079889 4.32881C0.0704956 4.32487 0.0619948 4.3191 0.054864 4.31182C0.017626 4.26969 -0.00196681 4.21482 0.000156133 4.15863V3.86324C0.00416989 3.79096 0.0227821 3.72025 0.054864 3.65536C0.0633596 3.62725 0.0774198 3.60115 0.0962162 3.5786C0.115013 3.55604 0.138151 3.5375 0.164263 3.52407L0.667552 3.22865V2.76915C0.654792 2.31694 0.732912 1.86677 0.897301 1.44531C1.05698 1.09329 1.32544 0.801818 1.66316 0.61379L2.69161 0.0229716C2.69874 0.0156938 2.70726 0.00992377 2.71665 0.00597663C2.72604 0.00202949 2.73613 0 2.74632 0C2.75651 0 2.76659 0.00202949 2.77598 0.00597663C2.78538 0.00992377 2.79389 0.0156938 2.80102 0.0229716C2.80102 0.0229716 2.80102 0.0995633 2.80102 0.165209V0.460601C2.81652 0.529027 2.81652 0.600055 2.80102 0.668481C2.77671 0.724109 2.73914 0.772946 2.69161 0.810718L1.71787 1.36871C1.62057 1.41995 1.53491 1.49072 1.46623 1.57659C1.39861 1.65335 1.34659 1.74252 1.31306 1.83917C1.26962 1.93595 1.24368 2.03967 1.23647 2.14551C1.22521 2.25828 1.22521 2.3719 1.23647 2.48467V2.93326L2.7135 2.07987C2.72902 2.06744 2.74832 2.06067 2.7682 2.06067C2.78809 2.06067 2.80739 2.06744 2.82291 2.07987C2.83314 2.1041 2.8384 2.13015 2.8384 2.15646C2.8384 2.18277 2.83314 2.20878 2.82291 2.23302L2.7135 6.55469Z" fill="#455A64"/>
</svg>
