<svg width="82" height="82" viewBox="0 0 82 82" fill="none" xmlns="http://www.w3.org/2000/svg">
<g clip-path="url(#clip0_81_1933)">
<path d="M19.8594 35.3543C20.2064 35.3543 20.5935 35.4077 21.0206 35.5145C21.4476 35.6212 21.8747 35.768 22.3018 35.9549C22.7289 36.1417 23.156 36.3152 23.5831 36.4754C24.0101 36.6355 24.3972 36.7957 24.7442 36.9559L24.1036 37.0359C23.89 37.0626 23.6631 37.076 23.4229 37.076C22.9691 37.076 22.5554 37.0092 22.1817 36.8758C21.808 36.7423 21.461 36.5688 21.1407 36.3553C20.8204 36.1417 20.5 35.9816 20.1797 35.8748C19.8594 35.768 19.5658 35.688 19.2989 35.6346C19.0319 35.6346 18.7917 35.688 18.5782 35.7947C18.3646 35.9015 18.1511 36.0216 17.9375 36.1551C17.9375 36.0483 17.8441 35.9949 17.6573 35.9949C17.8441 35.8081 18.1911 35.6613 18.6983 35.5545C19.2055 35.4477 19.5925 35.381 19.8594 35.3543ZM25.2647 37.1561C26.3591 37.1561 27.3601 37.3429 28.2676 37.7166C27.8939 37.8501 27.5202 37.9568 27.1465 38.0369C26.7728 38.117 26.3858 38.1704 25.9854 38.1971C25.4515 38.1971 24.9711 38.1437 24.544 38.0369C24.6775 37.8234 24.8109 37.6899 24.9444 37.6365C25.0778 37.5831 25.1846 37.423 25.2647 37.1561ZM41 -0.00019406C44.7637 -0.00019406 48.3806 0.493621 51.8506 1.48125C55.3207 2.46888 58.5772 3.84356 61.6202 5.60527C64.6631 7.36699 67.4392 9.51576 69.9483 12.0516C72.4574 14.5874 74.5928 17.3501 76.3545 20.3396C78.1163 23.3292 79.5043 26.5857 80.5186 30.1092C81.5329 33.6326 82.0267 37.2628 82.0001 40.9998C82.0001 44.7635 81.5062 48.3803 80.5186 51.8504C79.531 55.3204 78.1563 58.577 76.3946 61.6199C74.6329 64.6629 72.4841 67.4389 69.9483 69.9481C67.4125 72.4572 64.6498 74.5926 61.6602 76.3543C58.6706 78.116 55.4141 79.504 51.8907 80.5184C48.3672 81.5327 44.737 82.0265 41 81.9998C37.2364 81.9998 33.6195 81.506 30.1495 80.5184C26.6794 79.5307 23.4229 78.1561 20.3799 76.3943C17.337 74.6326 14.5609 72.4839 12.0518 69.9481C9.54269 67.4122 7.40728 64.6495 5.64556 61.66C3.88384 58.6704 2.49582 55.4139 1.4815 51.8904C0.467173 48.367 -0.0266426 44.7368 5.00802e-05 40.9998C5.00802e-05 37.2361 0.493865 33.6193 1.4815 30.1492C2.46913 26.6792 3.8438 23.4227 5.60552 20.3797C7.36724 17.3367 9.516 14.5607 12.0518 12.0516C14.5876 9.54245 17.3503 7.40703 20.3399 5.64531C23.3295 3.88359 26.586 2.49557 30.1094 1.48125C33.6329 0.466928 37.2631 -0.0268868 41 -0.00019406ZM71.5098 22.2215C71.1361 21.6342 70.7624 21.0737 70.3887 20.5398C70.015 20.006 69.628 19.4588 69.2276 18.8982C69.1742 19.1385 69.1075 19.312 69.0274 19.4188C68.9473 19.5255 68.8939 19.7658 68.8672 20.1395C68.8672 20.3797 68.9607 20.6066 69.1475 20.8201C69.3344 21.0337 69.5746 21.2472 69.8682 21.4607C70.1618 21.6743 70.4555 21.8344 70.7491 21.9412C71.0427 22.048 71.2963 22.1414 71.5098 22.2215ZM68.7471 18.2977C68.7471 18.5112 68.7071 18.658 68.627 18.7381H68.8672C68.974 18.7381 69.0541 18.7514 69.1075 18.7781L68.7471 18.2977ZM41 76.8748C44.043 76.8748 47.0193 76.4878 49.9288 75.7137C52.8383 74.9396 55.5876 73.8452 58.1768 72.4305C60.766 71.0158 63.1683 69.2807 65.3838 67.2254C67.5993 65.1701 69.5346 62.8745 71.1895 60.3387C70.8425 59.5379 70.5088 58.7238 70.1885 57.8963C69.8682 57.0688 69.7081 56.2146 69.7081 55.3338C69.7081 54.3729 69.7481 53.5988 69.8282 53.0115C69.9083 52.4243 70.0017 51.9038 70.1085 51.45C70.2152 50.9962 70.2686 50.6092 70.2686 50.2889C70.2686 49.9686 70.2286 49.5548 70.1485 49.0477C70.0684 48.5405 69.8415 47.9933 69.4678 47.4061C69.0941 46.8188 68.6003 45.9913 67.9864 44.9236C68.0131 44.7368 68.0531 44.4832 68.1065 44.1629C68.1599 43.8426 68.2133 43.5089 68.2667 43.1619C68.32 42.8149 68.3334 42.4946 68.3067 42.201C68.28 41.9074 68.2133 41.6538 68.1065 41.4402C67.4125 41.3602 66.6918 41.2133 65.9444 40.9998C65.197 40.7863 64.5297 40.466 63.9424 40.0389L64.1827 39.8387C63.8357 39.9188 63.4887 40.0255 63.1417 40.159C62.7946 40.2924 62.461 40.4393 62.1407 40.5994C61.8204 40.7596 61.4734 40.8663 61.0997 40.9197C60.726 40.9731 60.3656 41.0265 60.0186 41.0799L59.378 40.9998L59.4981 40.7195C59.1244 40.8263 58.724 40.9598 58.2969 41.1199C57.8698 41.2801 57.4561 41.3602 57.0557 41.3602C56.7888 41.3602 56.4017 41.2667 55.8946 41.0799C55.3874 40.893 54.8803 40.6661 54.3731 40.3992C53.8659 40.1323 53.4122 39.8387 53.0118 39.5184C52.6114 39.198 52.4112 38.8911 52.4112 38.5975L52.4913 38.4773C52.3578 38.3172 52.1843 38.1704 51.9708 38.0369C51.7572 37.9035 51.557 37.77 51.3702 37.6365C51.1833 37.5031 51.0098 37.3563 50.8497 37.1961C50.6895 37.0359 50.6228 36.8491 50.6495 36.6355L51.0899 36.2752L50.169 36.1551L49.8487 34.9539C49.9021 35.0874 50.0222 35.1408 50.209 35.1141C50.3959 35.0874 50.5427 35.034 50.6495 34.9539L49.2081 34.1932L50.209 31.6307C49.8353 30.2426 49.7419 29.1749 49.9288 28.4275C50.1156 27.6801 50.476 27.0662 51.0098 26.5857C51.5437 26.1053 52.1309 25.6248 52.7715 25.1443C53.4122 24.6639 54.0661 24.0099 54.7334 23.1824L54.6133 22.702L57.2559 19.4988L57.8565 19.4188C58.6039 19.4188 59.4447 19.3921 60.379 19.3387C61.3132 19.2853 62.2608 19.1919 63.2217 19.0584C64.1827 18.9249 65.1303 18.7915 66.0645 18.658C66.9987 18.5245 67.8529 18.351 68.627 18.1375C67.7728 17.1232 66.8786 16.1622 65.9444 15.2547C65.0101 14.3471 64.0092 13.4796 62.9415 12.6521C62.6478 12.7589 62.2875 12.9057 61.8604 13.0926C61.4333 13.2794 61.0062 13.5197 60.5792 13.8133C60.1521 14.1069 59.8184 14.4272 59.5782 14.7742C59.3379 15.1212 59.1911 15.4816 59.1377 15.8553L59.378 16.616C58.8975 17.3901 58.3637 17.8706 57.7764 18.0574C57.1892 18.2443 56.5886 18.351 55.9747 18.3777C55.3607 18.4044 54.7201 18.4044 54.0528 18.3777C53.3855 18.351 52.7448 18.4712 52.1309 18.7381L51.4903 17.3768L52.0909 15.0545L51.4102 14.0535L58.337 11.8914C58.0433 11.144 57.5629 10.5835 56.8956 10.2098C56.2282 9.83607 55.4942 9.64922 54.6934 9.64922V9.24883L56.9356 8.88848C54.4532 7.66061 51.8773 6.72637 49.2081 6.08574C46.5388 5.44512 43.8028 5.12481 41 5.12481C38.6778 5.12481 36.3822 5.35169 34.1133 5.80547C31.8444 6.25925 29.6556 6.91322 27.5469 7.76738C25.4382 8.62155 23.3962 9.68926 21.4209 10.9705C19.4457 12.2518 17.6439 13.6932 16.0157 15.2947C16.7097 15.2947 17.2435 15.4682 17.6172 15.8152C17.9909 16.1622 18.3379 16.5493 18.6583 16.9764C18.9786 17.4035 19.3122 17.7905 19.6592 18.1375C20.0062 18.4845 20.4734 18.6714 21.0606 18.698L21.7012 18.2176L21.6211 17.3367L22.9424 15.4549L21.9014 12.492C22.0349 12.4119 22.2351 12.2785 22.502 12.0916C22.7689 11.9048 22.9958 11.8113 23.1827 11.8113C23.9834 11.8113 24.5974 11.8514 25.0245 11.9314C25.4515 12.0115 25.8252 12.1583 26.1456 12.3719C26.4659 12.5854 26.7461 12.8924 26.9864 13.2928C27.2266 13.6932 27.6003 14.2003 28.1075 14.8143L29.5489 13.6932C29.8158 13.7999 30.2429 13.9734 30.8301 14.2137C31.4174 14.4539 32.018 14.7475 32.6319 15.0945C33.2458 15.4415 33.7663 15.8019 34.1934 16.1756C34.6205 16.5493 34.8474 16.8963 34.8741 17.2166C34.8741 17.617 34.7273 17.9373 34.4336 18.1775C34.14 18.4178 33.753 18.618 33.2725 18.7781C32.792 18.9383 32.2982 19.0584 31.7911 19.1385C31.2839 19.2186 30.7767 19.3253 30.2696 19.4588C29.7624 19.5923 29.3754 19.7257 29.1084 19.8592C28.8415 19.9926 28.6814 20.2195 28.628 20.5398L30.9502 21.3006C30.4164 21.7544 29.8425 22.1681 29.2286 22.5418C28.6146 22.9155 27.974 23.2625 27.3067 23.5828L27.4668 24.2635L23.7833 25.7049V26.826L23.503 26.9461L23.7032 25.5447L23.543 25.5047C23.3562 25.5047 23.2494 25.5447 23.2227 25.6248C23.196 25.7049 23.1827 25.7983 23.1827 25.9051C23.1827 26.0119 23.2094 26.1186 23.2627 26.2254C23.3161 26.3322 23.3295 26.4122 23.3028 26.4656L22.7823 26.1854L22.8624 26.3455C22.8624 26.4256 22.9024 26.5457 22.9825 26.7059C23.0625 26.866 23.1693 27.0128 23.3028 27.1463C23.4362 27.2798 23.543 27.4132 23.6231 27.5467C23.7032 27.6801 23.7566 27.7469 23.7833 27.7469C23.7833 27.827 23.7299 27.907 23.6231 27.9871C23.5163 28.0672 23.3829 28.1206 23.2227 28.1473C23.0625 28.174 22.9558 28.214 22.9024 28.2674C22.849 28.3208 22.849 28.3341 22.9024 28.3074C23.2761 28.3074 23.3562 28.3341 23.1426 28.3875C22.9291 28.4409 22.5954 28.5744 22.1417 28.7879C21.6879 29.0014 21.2741 29.3084 20.9004 29.7088C20.5267 30.1092 20.3132 30.6964 20.2598 31.4705C20.2598 31.9243 20.2732 32.3647 20.2999 32.7918C20.3265 33.2189 20.3132 33.6593 20.2598 34.1131C19.8861 33.0988 19.3256 32.3247 18.5782 31.7908C17.8308 31.257 16.9232 30.99 15.8555 30.99L14.1338 31.1502L14.9747 31.7107C14.5209 31.6574 14.0538 31.604 13.5733 31.5506C13.0928 31.4972 12.599 31.4839 12.0918 31.5105C11.5847 31.5372 11.1309 31.644 10.7305 31.8309C10.3301 32.0177 9.92974 32.298 9.52935 32.6717L9.28911 34.4734C9.28911 35.3276 9.47596 36.0216 9.84966 36.5555C10.2234 37.0893 10.8773 37.3696 11.8116 37.3963C12.6124 37.3963 13.3998 37.2762 14.1739 37.0359C14.948 36.7957 15.7087 36.5154 16.4561 36.1951C16.2159 36.7824 15.9489 37.3429 15.6553 37.8768C15.3617 38.4106 15.1482 38.9979 15.0147 39.6385L15.5352 39.8787C16.1758 39.4516 16.7631 39.3849 17.2969 39.6785C17.8308 39.9721 18.3513 40.3992 18.8584 40.9598C19.3656 41.5203 19.8861 42.0942 20.42 42.6814C20.9538 43.2687 21.5277 43.6958 22.1417 43.9627L20.7803 44.6834L17.5772 42.8816C17.6039 42.935 17.6306 43.0551 17.6573 43.242C17.684 43.4288 17.6706 43.4689 17.6172 43.3621L16.1758 40.9197C15.3217 40.893 14.4141 40.7596 13.4532 40.5193C12.4922 40.2791 11.518 39.9588 10.5303 39.5584C9.54269 39.158 8.62179 38.7176 7.76763 38.2371C6.91346 37.7566 6.12603 37.2495 5.40532 36.7156L5.12505 40.9998C5.12505 44.2563 5.56548 47.4327 6.44634 50.5291C7.3272 53.6255 8.56841 56.535 10.17 59.2576C11.7715 61.9803 13.7334 64.4627 16.0557 66.7049C18.378 68.9471 20.9538 70.8556 23.7833 72.4305C23.6498 71.8699 23.6364 71.3094 23.7432 70.7488C23.85 70.1883 23.9834 69.6277 24.1436 69.0672C24.3038 68.5066 24.4773 67.9461 24.6641 67.3856C24.851 66.825 24.9444 66.2511 24.9444 65.6639C24.9444 64.8097 24.8109 63.9155 24.544 62.9813C24.2771 62.047 23.9568 61.0994 23.5831 60.1385C23.2094 59.1775 22.7956 58.2299 22.3418 57.2957C21.8881 56.3615 21.5277 55.4806 21.2608 54.6531C20.9939 53.8257 20.7803 53.0516 20.6202 52.3309C20.46 51.6102 20.5401 50.9829 20.8604 50.449L20.2598 50.1688C20.42 49.7951 20.6335 49.4347 20.9004 49.0877C21.1674 48.7407 21.4476 48.3937 21.7413 48.0467C22.0349 47.6997 22.2618 47.326 22.4219 46.9256C22.5821 46.5252 22.6755 46.1248 22.7022 45.7244C22.7022 45.4575 22.6488 45.1772 22.542 44.8836C22.4353 44.59 22.3418 44.3097 22.2618 44.0428L23.1026 44.243C23.5564 43.202 24.1703 42.4946 24.9444 42.1209C25.7185 41.7472 26.6928 41.547 27.8672 41.5203C28.0007 41.5203 28.281 41.5737 28.7081 41.6805C29.1351 41.7872 29.5889 41.9341 30.0694 42.1209C30.5499 42.3077 31.0036 42.4546 31.4307 42.5613C31.8578 42.6681 32.1781 42.7749 32.3917 42.8816C32.3917 43.0685 32.4984 43.1886 32.712 43.242C32.9255 43.2954 33.0456 43.3888 33.0723 43.5223L32.9922 43.8426C33.0723 43.8693 33.2592 43.9627 33.5528 44.1229C33.8464 44.283 34.1667 44.4832 34.5137 44.7234C34.8607 44.9637 35.1677 45.1772 35.4346 45.3641C35.7015 45.5509 35.8884 45.6977 35.9952 45.8045C36.4756 45.8045 37.1296 45.9646 37.9571 46.285C38.7846 46.6053 39.6921 47.0057 40.6797 47.4861C41.6674 47.9666 42.6417 48.5405 43.6026 49.2078C44.5635 49.8751 45.4711 50.5424 46.3252 51.2098C47.1794 51.8771 47.8334 52.5444 48.2872 53.2117C48.7409 53.879 49.0079 54.4663 49.0879 54.9734L47.7266 56.4148C47.8334 57.7762 47.74 58.8172 47.4463 59.5379C47.1527 60.2586 46.6989 60.8592 46.085 61.3396C45.4711 61.8201 44.7637 62.2205 43.9629 62.5408C43.1622 62.8611 42.2946 63.3149 41.3604 63.9021C41.3604 64.436 41.2269 65.0099 40.96 65.6238C40.6931 66.2378 40.3594 66.825 39.959 67.3856C39.5586 67.9461 39.0782 68.4132 38.5176 68.7869C37.9571 69.1606 37.3965 69.3475 36.836 69.3475L35.1543 68.0662C35.2077 68.1196 35.2077 68.213 35.1543 68.3465C35.101 68.4799 35.0342 68.5066 34.9542 68.4266C35.2211 68.9337 35.2878 69.521 35.1543 70.1883C35.0209 70.8556 34.794 71.5363 34.4737 72.2303C34.1534 72.9243 33.793 73.5783 33.3926 74.1922C32.9922 74.8061 32.6319 75.3266 32.3116 75.7537C33.753 76.1274 35.1944 76.4077 36.6358 76.5945C38.0772 76.7814 39.532 76.8748 41 76.8748Z" fill="#071C54"/>
</g>
<defs>
<clipPath id="clip0_81_1933">
<rect width="82" height="82" fill="white"/>
</clipPath>
</defs>
</svg>
