<svg width="3" height="6" viewBox="0 0 3 6" fill="none" xmlns="http://www.w3.org/2000/svg">
<path d="M1.40342 5.83331C1.34391 5.83331 1.29928 5.83331 1.26952 5.83331C1.2483 5.78391 1.23693 5.73083 1.23605 5.67707L0.00858044 1.9947C0.00858044 1.9947 0.00858044 1.9947 0.00858044 1.92775C-0.00286015 1.86879 -0.00286015 1.80817 0.00858044 1.74921C0.0305191 1.6938 0.0696313 1.64684 0.120175 1.61527L0.343346 1.48137C0.343346 1.48137 0.454945 1.48137 0.477262 1.48137C0.509667 1.5115 0.532877 1.5502 0.544212 1.59297L1.49269 4.48308L2.45235 0.499398C2.46729 0.435147 2.48592 0.371828 2.50814 0.309719C2.53301 0.249793 2.57591 0.199088 2.63089 0.16465L2.87638 0.0195809C2.89222 0.00690428 2.9119 0 2.93218 0C2.95246 0 2.97214 0.00690428 2.98798 0.0195809C3.00426 0.0627319 3.00426 0.110329 2.98798 0.15348C2.98798 0.15348 2.98798 0.153478 2.98798 0.22043L1.76051 5.31998C1.76693 5.38305 1.76693 5.44662 1.76051 5.50969C1.7387 5.57143 1.69504 5.62304 1.63776 5.65476L1.40342 5.83331Z" fill="white"/>
</svg>
