<svg width="3" height="5" viewBox="0 0 3 5" fill="none" xmlns="http://www.w3.org/2000/svg">
<path d="M0.0310518 2.84653C0.0497956 2.56689 0.0948542 2.28964 0.16562 2.01845C0.226683 1.75529 0.313355 1.49876 0.424395 1.25249C0.532241 1.02288 0.667813 0.807341 0.828084 0.610711C0.969279 0.426626 1.14509 0.271924 1.34564 0.15528C1.51036 0.053189 1.70044 -0.000616568 1.89424 5.3306e-06C1.97323 0.00166144 2.05099 0.020043 2.12236 0.0539432C2.19372 0.0878434 2.25709 0.136494 2.30829 0.196677C2.43693 0.360282 2.52554 0.551686 2.56706 0.755625C2.63393 1.03698 2.66522 1.32561 2.66022 1.61476V1.85285C2.65916 1.92163 2.6414 1.98911 2.60846 2.0495C2.58816 2.10368 2.55212 2.15055 2.50496 2.18407L0.538257 3.31233C0.513778 3.59538 0.599006 3.87703 0.776326 4.09901C0.857864 4.16197 0.957978 4.1961 1.06099 4.1961C1.164 4.1961 1.2641 4.16197 1.34564 4.09901C1.53115 4.00394 1.69095 3.86545 1.81143 3.69533C1.90997 3.55264 1.99324 3.39998 2.05986 3.23988C2.08416 3.19307 2.11184 3.1481 2.14267 3.10531C2.17231 3.06925 2.20721 3.03785 2.24618 3.01215L2.42215 2.919C2.43946 2.90901 2.45909 2.90374 2.47907 2.90374C2.49906 2.90374 2.5187 2.90901 2.53601 2.919C2.54699 2.94157 2.55269 2.96634 2.55269 2.99145C2.55269 3.01655 2.54699 3.04134 2.53601 3.06391C2.52032 3.20157 2.48906 3.33699 2.44284 3.4676C2.3821 3.63644 2.30587 3.79931 2.21512 3.9541C2.10637 4.1303 1.97788 4.29353 1.83213 4.4406C1.68297 4.60551 1.50822 4.74531 1.31458 4.85463C1.16084 4.95449 0.980278 5.00505 0.797033 4.99955C0.645176 4.9882 0.503879 4.91755 0.403689 4.80288C0.275586 4.66915 0.183061 4.50546 0.134568 4.32674C0.0572504 4.09594 0.0119685 3.85562 0 3.61252C0.00690068 3.38479 0.0172504 3.12946 0.0310518 2.84653ZM0.538257 2.57741L2.14267 1.65617C2.15848 1.52693 2.14732 1.39582 2.10991 1.27111C2.0725 1.14639 2.00963 1.0308 1.92529 0.931606C1.78038 0.797043 1.58371 0.807394 1.34564 0.931606C1.22518 0.999661 1.11959 1.09117 1.0351 1.20073C0.938228 1.31496 0.854879 1.44001 0.786687 1.57336C0.711157 1.72532 0.652165 1.88495 0.610722 2.0495C0.570693 2.21942 0.54643 2.39267 0.538257 2.56705V2.57741Z" fill="#455A64"/>
</svg>
