<svg width="3" height="5" viewBox="0 0 3 5" fill="none" xmlns="http://www.w3.org/2000/svg">
<path d="M1.8586 3.1115C1.86447 3.02997 1.84329 2.9488 1.79834 2.88052C1.77714 2.85586 1.75097 2.83594 1.72154 2.8221C1.69212 2.80825 1.66011 2.80077 1.6276 2.80015C1.53103 2.786 1.43291 2.786 1.33634 2.80015L0.914495 2.90059C0.613185 2.98094 0.402274 2.9006 0.291794 2.78008C0.157005 2.57897 0.0933734 2.33857 0.111015 2.09711C0.111757 1.92133 0.131965 1.74616 0.171275 1.57483C0.218879 1.3939 0.286239 1.21876 0.372145 1.05257C0.461623 0.881471 0.573046 0.72278 0.703587 0.580515C0.842453 0.431994 1.00133 0.303535 1.17564 0.198851C1.31965 0.110231 1.48031 0.0521345 1.64769 0.0281262C1.75843 -0.0093754 1.87843 -0.0093754 1.98917 0.0281262C2.0809 0.0630613 2.15617 0.131168 2.20008 0.218958C2.25229 0.299786 2.28018 0.393901 2.28043 0.490125C2.29453 0.549563 2.29453 0.611466 2.28043 0.670904C2.26002 0.726014 2.22092 0.772224 2.16995 0.801476L1.98917 0.911941H1.90882C1.90882 0.911941 1.84856 0.911941 1.81843 0.911941C1.79634 0.875649 1.76541 0.845574 1.72852 0.824495C1.69163 0.803416 1.64999 0.792027 1.60751 0.791423C1.46759 0.789894 1.33067 0.832018 1.21581 0.911941C1.0536 1.00927 0.913368 1.13924 0.804014 1.2936C0.70769 1.43983 0.655404 1.61067 0.653365 1.78576C0.633384 1.86487 0.633384 1.9477 0.653365 2.0268C0.688378 2.07042 0.738626 2.09912 0.793976 2.10714C0.883403 2.12582 0.975732 2.12582 1.06516 2.10714L1.4669 2.01675C1.60545 1.9827 1.75018 1.9827 1.88873 2.01675C1.99409 2.02883 2.09273 2.07463 2.16995 2.14732C2.24336 2.22665 2.29524 2.32347 2.32061 2.42854C2.33649 2.55863 2.33649 2.69017 2.32061 2.82026C2.32204 3.00411 2.29493 3.18705 2.24026 3.36259C2.18672 3.55568 2.10911 3.74129 2.00926 3.91501C1.91054 4.09707 1.78903 4.26582 1.64769 4.4172C1.50553 4.56905 1.34333 4.70082 1.16559 4.80888C1.01882 4.89935 0.854486 4.95756 0.683495 4.97964C0.564497 5.00676 0.440921 5.00676 0.321923 4.97964C0.233507 4.93545 0.157547 4.86985 0.100962 4.78881C0.0427453 4.70653 0.0111964 4.60837 0.0105726 4.50758C-0.00352421 4.44815 -0.00352421 4.38624 0.0105726 4.32681C0.033821 4.2707 0.0720394 4.22204 0.121053 4.18618L0.321923 4.07571H0.392236C0.392236 4.07571 0.452494 4.0757 0.482625 4.12592C0.508562 4.16783 0.543784 4.20321 0.585581 4.22934C0.627379 4.25546 0.674637 4.27162 0.723678 4.27657C0.867116 4.27117 1.00621 4.22596 1.12542 4.146L1.36647 3.96522C1.44239 3.88996 1.51286 3.80942 1.57738 3.72418C1.63519 3.63822 1.6856 3.54751 1.72804 3.45301C1.79543 3.34981 1.83994 3.23334 1.8586 3.1115Z" fill="#455A64"/>
</svg>
