<svg width="56" height="56" viewBox="0 0 56 56" fill="none" xmlns="http://www.w3.org/2000/svg">
<path d="M33.9395 20.5759C33.9395 20.1821 34.0959 19.8044 34.3744 19.526C34.6528 19.2475 35.0305 19.0911 35.4243 19.0911C35.8181 19.0911 36.1958 19.2475 36.4742 19.526C36.7527 19.8044 36.9092 20.1821 36.9092 20.5759C36.9092 20.9697 36.7527 21.3474 36.4742 21.6259C36.1958 21.9043 35.8181 22.0608 35.4243 22.0608C35.0305 22.0608 34.6528 21.9043 34.3744 21.6259C34.0959 21.3474 33.9395 20.9697 33.9395 20.5759Z" fill="#071C54"/>
<path fill-rule="evenodd" clip-rule="evenodd" d="M28.0003 20.947C26.1297 20.947 24.3358 21.6901 23.0131 23.0128C21.6904 24.3355 20.9473 26.1295 20.9473 28.0001C20.9473 29.8706 21.6904 31.6646 23.0131 32.9873C24.3358 34.31 26.1297 35.0531 28.0003 35.0531C29.8709 35.0531 31.6648 34.31 32.9875 32.9873C34.3102 31.6646 35.0533 29.8706 35.0533 28.0001C35.0533 26.1295 34.3102 24.3355 32.9875 23.0128C31.6648 21.6901 29.8709 20.947 28.0003 20.947ZM23.1745 28.0001C23.1745 26.7202 23.683 25.4927 24.588 24.5877C25.493 23.6827 26.7204 23.1743 28.0003 23.1743C29.2802 23.1743 30.5076 23.6827 31.4126 24.5877C32.3176 25.4927 32.8261 26.7202 32.8261 28.0001C32.8261 29.2799 32.3176 30.5074 31.4126 31.4124C30.5076 32.3174 29.2802 32.8258 28.0003 32.8258C26.7204 32.8258 25.493 32.3174 24.588 31.4124C23.683 30.5074 23.1745 29.2799 23.1745 28.0001Z" fill="#071C54"/>
<path fill-rule="evenodd" clip-rule="evenodd" d="M35.8067 14.3885C30.6177 13.8132 25.381 13.8132 20.192 14.3885C17.2045 14.7225 14.7916 17.076 14.4412 20.0784C13.8256 25.3416 13.8256 30.6586 14.4412 35.9217C14.7916 38.9241 17.203 41.2776 20.192 41.6117C25.3811 42.1863 30.6177 42.1863 35.8067 41.6117C38.7942 41.2776 41.2071 38.9241 41.5575 35.9217C42.1732 30.6586 42.1732 25.3416 41.5575 20.0784C41.2071 17.076 38.7957 14.7225 35.8067 14.3885ZM20.4385 16.6009C25.4637 16.0439 30.535 16.0439 35.5602 16.6009C37.5351 16.8236 39.1164 18.3812 39.3466 20.3382C39.9419 25.4288 39.9419 30.5714 39.3466 35.6619C39.2275 36.6197 38.7891 37.5094 38.102 38.1872C37.415 38.8651 36.5195 39.2916 35.5602 39.3978C30.535 39.9548 25.4637 39.9548 20.4385 39.3978C19.4792 39.2916 18.5837 38.8651 17.8967 38.1872C17.2096 37.5094 16.7712 36.6197 16.6521 35.6619C16.0568 30.5714 16.0568 25.4288 16.6521 20.3382C16.7712 19.3805 17.2096 18.4908 17.8967 17.8129C18.5837 17.135 19.4792 16.7071 20.4385 16.6009Z" fill="#071C54"/>
<circle cx="28" cy="28" r="28" fill="#071C54" fill-opacity="0.07"/>
</svg>
