<svg width="3" height="6" viewBox="0 0 3 6" fill="none" xmlns="http://www.w3.org/2000/svg">
<path d="M2.56539e-05 5.08139C-0.00110179 4.8199 0.0349381 4.55955 0.107073 4.30821C0.17753 4.07259 0.273249 3.8453 0.392549 3.63025C0.510736 3.41907 0.654561 3.22329 0.820755 3.04739C0.980166 2.86216 1.15525 2.69104 1.3441 2.53593L2.25999 1.77469V1.64383C2.25999 1.29493 2.18863 1.08081 2.0459 1.00152C1.95889 0.956761 1.86065 0.938564 1.76338 0.949137C1.66611 0.959709 1.57409 0.998608 1.49874 1.06101C1.32305 1.1604 1.1725 1.29875 1.05864 1.46542C0.961202 1.63687 0.877664 1.81588 0.808849 2.00069C0.7889 2.05607 0.760849 2.10815 0.725596 2.15529C0.690276 2.20006 0.645626 2.23662 0.594755 2.26238L0.404437 2.36942C0.386765 2.38615 0.363362 2.39545 0.339026 2.39545C0.314689 2.39545 0.291269 2.38615 0.273596 2.36942C0.262473 2.34307 0.256735 2.31475 0.256735 2.28615C0.256735 2.25755 0.262473 2.22923 0.273596 2.20288C0.289814 2.02392 0.329822 1.84791 0.392549 1.67952C0.459156 1.47837 0.551081 1.28654 0.66612 1.1086C0.783461 0.924418 0.914684 0.749454 1.05864 0.585235C1.20049 0.430558 1.36491 0.298201 1.54633 0.192693C1.71024 0.0851329 1.89819 0.0197519 2.09347 0.0023756C2.2478 -0.0114575 2.40143 0.0355053 2.52167 0.133235C2.65401 0.261654 2.75214 0.421099 2.80715 0.597105C2.87537 0.861158 2.90739 1.13329 2.90231 1.40596V4.47475C2.91803 4.54926 2.91803 4.62624 2.90231 4.70075C2.87855 4.76331 2.83173 4.81438 2.77147 4.84348L2.53356 4.98621C2.51668 4.99972 2.49572 5.00708 2.4741 5.00708C2.45248 5.00708 2.4315 4.99972 2.41463 4.98621C2.37414 4.94041 2.35284 4.88079 2.35515 4.8197V4.40339C2.31657 4.56148 2.25655 4.71356 2.17674 4.85539C2.09245 4.99755 1.99699 5.13278 1.89126 5.2598C1.78945 5.38332 1.67809 5.49867 1.55821 5.60475L1.23705 5.84262C1.09309 5.93144 0.929949 5.98447 0.761278 5.99726C0.636415 6.00946 0.511004 5.98019 0.404437 5.91399C0.297994 5.8326 0.219104 5.72051 0.178437 5.59285C0.0842534 5.43652 0.0235093 5.26238 2.56539e-05 5.08139ZM1.18948 4.93866C1.3481 4.84017 1.49222 4.72005 1.61769 4.5818C1.7528 4.42578 1.8686 4.25407 1.96263 4.07034C2.05854 3.88598 2.1305 3.69013 2.17674 3.48752C2.22456 3.27275 2.24849 3.05332 2.2481 2.83329V2.58352L1.47494 3.21393C1.22628 3.41734 1.00624 3.6534 0.820755 3.9157C0.676885 4.12697 0.594512 4.37405 0.582849 4.62939C0.569392 4.69612 0.569392 4.76484 0.582849 4.83157C0.596895 4.8921 0.630306 4.9464 0.678008 4.98621C0.734506 5.02372 0.800525 5.04437 0.868325 5.0457C0.985525 5.03332 1.0989 4.99688 1.20137 4.93866H1.18948Z" fill="#455A64"/>
</svg>
