<svg width="3" height="5" viewBox="0 0 3 5" fill="none" xmlns="http://www.w3.org/2000/svg">
<path d="M1.80088 3.10504C1.82605 3.0304 1.82605 2.94955 1.80088 2.87491C1.77915 2.84849 1.75156 2.8275 1.7203 2.81361C1.68904 2.79971 1.65496 2.79329 1.62079 2.79486C1.52458 2.78076 1.42684 2.78076 1.33063 2.79486L0.910407 2.89492C0.806685 2.93827 0.692468 2.95001 0.582098 2.92864C0.471728 2.90728 0.370134 2.85379 0.290079 2.77486C0.155804 2.57452 0.0924072 2.33502 0.109982 2.09449C0.109282 1.91866 0.13285 1.74358 0.180019 1.5742C0.223929 1.39427 0.287682 1.21979 0.370116 1.05393C0.559837 0.703432 0.839598 0.409855 1.18056 0.203472C1.32514 0.115526 1.48446 0.0545152 1.6508 0.0233825C1.76205 -0.00779417 1.87974 -0.00779417 1.99099 0.0233825C2.07784 0.0604388 2.1512 0.123307 2.2011 0.203472C2.24422 0.290768 2.26811 0.386302 2.27114 0.483621C2.28957 0.542238 2.28957 0.605109 2.27114 0.663726C2.2508 0.718626 2.21186 0.764645 2.16108 0.793785L1.98098 0.903845H1.90094C1.90094 0.903845 1.84091 0.903845 1.8209 0.903845C1.76427 0.838753 1.68616 0.796154 1.60078 0.783785C1.46448 0.791264 1.3329 0.836284 1.22058 0.91386C1.05689 1.008 0.91664 1.13798 0.810355 1.29405C0.706931 1.43666 0.650928 1.60816 0.650265 1.78432C0.62937 1.85961 0.62937 1.93916 0.650265 2.01444C0.666825 2.03984 0.688945 2.06115 0.714944 2.07675C0.740943 2.09235 0.770144 2.10184 0.800347 2.1045C0.886548 2.11784 0.974289 2.11784 1.06049 2.1045L1.46071 2.01444C1.60272 1.98614 1.74892 1.98614 1.89094 2.01444C1.99335 2.03195 2.08776 2.08091 2.16108 2.15452C2.2362 2.23211 2.28818 2.32914 2.31116 2.43467C2.32697 2.56426 2.32697 2.69529 2.31116 2.82488C2.31125 3.00724 2.28771 3.18886 2.24112 3.36517C2.18346 3.556 2.10634 3.7404 2.011 3.91547C1.90675 4.09306 1.78616 4.26055 1.6508 4.41574C1.50814 4.56719 1.34273 4.69546 1.16054 4.79593C1.01948 4.89086 0.858672 4.95246 0.690288 4.97604C0.572339 5.00791 0.448043 5.00791 0.330094 4.97604C0.236207 4.94197 0.15561 4.87888 0.0999743 4.79593C0.0507337 4.70986 0.0200556 4.61443 0.009922 4.51579C-0.00330733 4.45311 -0.00330733 4.38836 0.009922 4.32568C0.0356782 4.27415 0.0734211 4.22955 0.119982 4.19562L0.320094 4.08556C0.345829 4.07552 0.374396 4.07552 0.400131 4.08556C0.400131 4.08556 0.460165 4.08556 0.480176 4.13559C0.504552 4.17782 0.539526 4.21295 0.58164 4.23751C0.623754 4.26208 0.671556 4.27523 0.72031 4.27567C0.86433 4.27711 1.00487 4.23143 1.12052 4.14559C1.2128 4.1039 1.29479 4.04242 1.36065 3.9655C1.44098 3.89508 1.51163 3.81433 1.57077 3.72537C1.63031 3.6445 1.68065 3.55726 1.72085 3.46523C1.78174 3.35541 1.80954 3.23031 1.80088 3.10504Z" fill="#455A64"/>
</svg>
