<svg width="3" height="5" viewBox="0 0 3 5" fill="none" xmlns="http://www.w3.org/2000/svg">
<path d="M0.00511346 2.83507C0.0245977 2.56004 0.0694516 2.28739 0.139124 2.02062C0.200052 1.75522 0.28636 1.4963 0.396857 1.24742C0.506365 1.01989 0.641242 0.805475 0.798921 0.608247C0.941928 0.433846 1.11259 0.284082 1.30408 0.164937C1.47002 0.0577541 1.66324 0.000511942 1.86078 0C2.01997 0.0119517 2.16809 0.0860033 2.27316 0.206183C2.40116 0.36532 2.48949 0.552596 2.5309 0.752577C2.59803 1.0362 2.6292 1.32715 2.62368 1.61856V1.85568C2.61989 1.92379 2.60236 1.9904 2.57213 2.05155C2.54921 2.10396 2.51383 2.14998 2.46904 2.18557L0.510261 3.30929V3.32991C0.495625 3.46812 0.509091 3.60786 0.549839 3.74073C0.590587 3.87361 0.657771 3.99687 0.747371 4.10311C0.826202 4.16671 0.924439 4.2014 1.02573 4.2014C1.12701 4.2014 1.22525 4.16671 1.30408 4.10311C1.48931 4.00486 1.65107 3.8677 1.7783 3.70105C1.87436 3.55766 1.95719 3.40583 2.02573 3.24743L2.10821 3.1031L2.21131 3.02063L2.38657 2.92785C2.40188 2.91334 2.42217 2.90526 2.44326 2.90526C2.46435 2.90526 2.48465 2.91334 2.49997 2.92785C2.51171 2.95009 2.51784 2.97485 2.51784 3C2.51784 3.02515 2.51171 3.04993 2.49997 3.07218C2.48434 3.20927 2.4532 3.34416 2.40717 3.47424C2.34668 3.6424 2.27075 3.80461 2.18037 3.95878C2.06968 4.1326 1.9419 4.29492 1.79893 4.44332C1.64653 4.60766 1.46908 4.74683 1.27316 4.85569C1.12219 4.95146 0.946768 5.00158 0.767994 5.00002C0.61789 4.98469 0.478558 4.91502 0.376234 4.80414C0.282551 4.6718 0.219199 4.52045 0.190674 4.36084C0.11469 4.12717 0.0696281 3.88456 0.0566475 3.63919C-0.00520845 3.38146 -0.00519587 3.12373 0.00511346 2.83507ZM0.510261 2.57733L2.10821 1.64948C2.12356 1.51918 2.11228 1.38711 2.07507 1.26129C2.03785 1.13547 1.97547 1.01853 1.89171 0.91753C1.74738 0.793818 1.55151 0.793818 1.30408 0.91753C1.19252 0.988571 1.09181 1.07538 1.0051 1.17526C0.90882 1.2929 0.825851 1.42082 0.75769 1.5567C0.680863 1.70735 0.62204 1.86653 0.582433 2.03094C0.542566 2.20017 0.518401 2.37273 0.510261 2.54641V2.57733Z" fill="#455A64"/>
</svg>
