<svg width="66" height="66" viewBox="0 0 66 66" fill="none" xmlns="http://www.w3.org/2000/svg">
<g clip-path="url(#clip0_66_141)">
<g clip-path="url(#clip1_66_141)">
<path d="M58.1996 7.7938C57.4855 7.32807 56.6689 7.04632 55.8214 6.9733C54.974 6.90028 54.1218 7.03824 53.3397 7.37505L27.7108 17.5507C27.104 17.7996 26.4551 17.9276 25.8 17.9275H9.39253C8.01547 17.9275 6.6948 18.479 5.72106 19.4607C4.74733 20.4423 4.20029 21.7737 4.20029 23.1619V23.5807H-0.991949V36.1432H4.20029V36.6875C4.23283 38.0539 4.7942 39.3532 5.76443 40.3079C6.73466 41.2625 8.03679 41.7967 9.39253 41.7963L15.6232 55.1125C16.0451 56.0093 16.7094 56.7678 17.5396 57.3012C18.3699 57.8345 19.3325 58.1209 20.317 58.1276H22.9339C24.3038 58.1165 25.6138 57.5601 26.5785 56.5797C27.5433 55.5993 28.0846 54.2742 28.0846 52.8932V42.2988L53.3397 52.4744C53.9609 52.7236 54.6234 52.8515 55.2919 52.8513C56.3292 52.8344 57.3393 52.5144 58.1996 51.9301C58.8828 51.465 59.4463 50.8427 59.8436 50.1145C60.2409 49.3863 60.4605 48.5732 60.4842 47.7425V12.1069C60.4804 11.2548 60.2703 10.4166 59.8722 9.66491C59.474 8.91326 58.8999 8.27096 58.1996 7.7938ZM22.8924 23.1619V36.6875H9.39253V23.1619H22.8924ZM22.8924 52.8932H20.2755L15.1663 41.7963H22.8924V52.8932ZM29.6215 37.3157C29.1283 37.0616 28.6141 36.8514 28.0846 36.6875V22.8688C28.609 22.7597 29.1232 22.6056 29.6215 22.4082L55.2919 12.1069V47.6169L29.6215 37.3157ZM60.6088 24.6275V35.0963C61.9859 35.0963 63.3065 34.5448 64.2803 33.5632C65.254 32.5815 65.801 31.2502 65.801 29.8619C65.801 28.4737 65.254 27.1423 64.2803 26.1607C63.3065 25.179 61.9859 24.6275 60.6088 24.6275Z" fill="#50EC7C" stroke="white"/>
</g>
</g>
<defs>
<clipPath id="clip0_66_141">
<rect width="65.3762" height="65.9067" fill="white" transform="scale(1.00142)"/>
</clipPath>
<clipPath id="clip1_66_141">
<rect width="66.3668" height="66.9053" fill="white" transform="translate(-0.991949 -0.999948) scale(1.00142)"/>
</clipPath>
</defs>
</svg>
