<svg width="3" height="5" viewBox="0 0 3 5" fill="none" xmlns="http://www.w3.org/2000/svg">
<path d="M0.0153917 2.82322C0.0355526 2.54672 0.0767392 2.27217 0.138589 2.00193C0.204287 1.74111 0.293633 1.48681 0.405511 1.24221C0.51256 1.01679 0.643334 0.803417 0.795623 0.605717C0.938417 0.428538 1.11238 0.278941 1.30893 0.164278C1.4697 0.0561462 1.65929 -0.0010935 1.85304 1.5824e-05C1.93218 0.00292232 2.00978 0.0227468 2.08062 0.0581641C2.15145 0.0935814 2.21388 0.143782 2.26369 0.205352C2.39483 0.362809 2.48635 0.549379 2.53061 0.749458C2.58831 1.03321 2.61584 1.32227 2.61273 1.61181V1.83767C2.62801 1.90179 2.62801 1.96861 2.61273 2.03273C2.5926 2.08647 2.55685 2.13295 2.51007 2.1662L0.559498 3.28521V3.33652C0.53522 3.61726 0.619757 3.8966 0.795623 4.11676C0.874124 4.1801 0.971943 4.21464 1.07281 4.21464C1.17367 4.21464 1.2715 4.1801 1.35 4.11676C1.53684 4.02249 1.69867 3.88527 1.82224 3.71637C1.9177 3.57706 2.00017 3.4293 2.06863 3.27493L2.15076 3.13119C2.17559 3.09379 2.21148 3.06509 2.25342 3.04907L2.41768 2.9464C2.43386 2.93392 2.45371 2.92714 2.47415 2.92714C2.49458 2.92714 2.51444 2.93392 2.53061 2.9464C2.53061 2.9464 2.53061 3.01827 2.53061 3.07987C2.51505 3.21639 2.48405 3.35073 2.43821 3.48027C2.37845 3.6497 2.29922 3.81163 2.20209 3.96278C2.10141 4.13967 1.97707 4.30201 1.83251 4.44529C1.68351 4.61192 1.50626 4.75092 1.30893 4.85593C1.16018 4.95477 0.98441 5.00498 0.805892 4.99964C0.655129 4.986 0.513699 4.92074 0.405511 4.81486C0.287975 4.67539 0.197454 4.51525 0.138589 4.34262C0.0716345 4.10824 0.0303249 3.86727 0.0153917 3.62398C-0.00513056 3.35745 -0.00513056 3.08974 0.0153917 2.82322ZM0.518432 2.55628L2.10969 1.64261C2.12538 1.51443 2.11432 1.38439 2.07721 1.2607C2.0401 1.13701 1.97776 1.02235 1.8941 0.923966C1.75038 0.790505 1.55532 0.800772 1.30893 0.923966C1.19642 1.0009 1.09309 1.09046 1.00094 1.1909C0.902575 1.30621 0.819743 1.4339 0.754558 1.57074C0.683051 1.71825 0.627963 1.87319 0.590295 2.03273C0.550596 2.20473 0.526544 2.37995 0.518432 2.55628Z" fill="#455A64"/>
</svg>
