<svg width="3" height="5" viewBox="0 0 3 5" fill="none" xmlns="http://www.w3.org/2000/svg">
<path d="M1.33106 0.16329C1.49237 0.0590596 1.67982 0.00248239 1.87186 4.11004e-05C2.02225 -0.00171532 2.16785 0.0528797 2.28001 0.153092C2.40119 0.284732 2.49179 0.441525 2.54531 0.612258C2.61186 0.845213 2.65291 1.0847 2.66775 1.32652V2.14282C2.65008 2.43201 2.60568 2.71894 2.5351 2.99994C2.47321 3.25886 2.38782 3.51161 2.28001 3.75502C2.17051 3.97874 2.03339 4.18785 1.87186 4.37745C1.71978 4.56091 1.53675 4.71631 1.33106 4.83662C1.16975 4.94085 0.982297 4.99744 0.790258 4.99989C0.64283 5.00212 0.500246 4.94729 0.392312 4.84683C0.264123 4.71876 0.169491 4.56103 0.116806 4.38765C0.0473426 4.15572 0.0095855 3.91545 0.00456336 3.67339C-0.00152112 3.61573 -0.00152112 3.55759 0.00456336 3.49993V3.05096C-0.00078428 2.98645 -0.00078428 2.9216 0.00456336 2.85709C0.0161545 2.57196 0.0537246 2.28849 0.116806 2.01019C0.183871 1.74684 0.276135 1.49057 0.392312 1.2449C0.498345 1.02156 0.632042 0.812447 0.790258 0.622472C0.945762 0.442437 1.12819 0.287535 1.33106 0.16329ZM2.14736 2.38772C2.15361 2.26536 2.15361 2.14275 2.14736 2.02038C2.15334 1.90142 2.15334 1.78222 2.14736 1.66325C2.14182 1.5146 2.11782 1.36722 2.07594 1.22449C2.05048 1.11156 1.99795 1.0065 1.92288 0.918375C1.85466 0.856776 1.76918 0.817597 1.67798 0.806133C1.55487 0.805665 1.43431 0.841133 1.33106 0.908177C1.19748 0.983607 1.07969 1.08407 0.984133 1.20408C0.890733 1.32912 0.808767 1.4623 0.739236 1.60203C0.671532 1.75607 0.620229 1.91682 0.586178 2.0816C0.546919 2.25604 0.523019 2.43359 0.514752 2.61221C0.514752 2.71424 0.514752 2.84689 0.514752 2.98974C0.514752 3.13259 0.514752 3.24483 0.514752 3.33666C0.520298 3.48531 0.54429 3.6327 0.586178 3.77544C0.611636 3.88837 0.664164 3.99343 0.739236 4.08155C0.804829 4.14703 0.891711 4.18685 0.984133 4.19379C1.10724 4.19426 1.22781 4.15879 1.33106 4.09175C1.46464 4.01632 1.58243 3.91586 1.67798 3.79585C1.77138 3.67081 1.85335 3.53763 1.92288 3.3979C1.99058 3.24385 2.04189 3.08311 2.07594 2.91832C2.12898 2.74513 2.16653 2.56756 2.18817 2.38772H2.14736Z" fill="#455A64"/>
</svg>
