<svg width="26" height="22" viewBox="0 0 26 22" fill="none" xmlns="http://www.w3.org/2000/svg">
<path d="M2.42867 16.9934L2.71958 21.4354C2.83219 21.4765 2.95195 21.4942 3.07164 21.4877C3.19133 21.4812 3.30845 21.4505 3.41592 21.3974C3.52339 21.3444 3.61899 21.2702 3.69692 21.1792C3.77485 21.0882 3.83349 20.9824 3.86931 20.8681C4.16021 19.9963 3.4399 17.2702 4.16022 15.8448C4.88055 14.4195 7.60949 13.6861 7.77571 12.6344C7.94194 11.5827 6.39047 9.76987 6.39047 9.05029C6.39047 8.3307 6.8199 7.66647 10.4215 11.0568C14.0232 14.4472 20.6169 15.2083 24.0662 14.3641C27.5155 13.52 23.3459 8.3307 22.487 7.18214C21.6282 6.03357 24.7865 6.89153 23.055 4.02703C21.3234 1.16253 15.2976 -0.705622 9.27178 1.43929C3.24596 3.58421 -0.217143 6.61477 0.641709 9.63149C1.50056 12.6482 2.42867 16.9934 2.42867 16.9934Z" fill="#071C54" stroke="#071C54" stroke-linecap="round" stroke-linejoin="round"/>
</svg>
