<svg width="54" height="54" viewBox="0 0 54 54" fill="none" xmlns="http://www.w3.org/2000/svg">
<path d="M13.5 46.125C15.75 24.75 25.875 18 45 13.5" stroke="white" stroke-width="3" stroke-linecap="round" stroke-linejoin="round"/>
<path d="M35.7953 8.5725L45.8888 13.275L41.1817 23.3685M36 45.5467L40.7723 40.7722M40.7723 40.7722L45.5468 36M40.7723 40.7722L36 36M40.7723 40.7722L45.5468 45.5467M11.25 15.75C12.4435 15.75 13.5881 15.2759 14.432 14.432C15.2759 13.5881 15.75 12.4435 15.75 11.25C15.75 10.0565 15.2759 8.91193 14.432 8.06802C13.5881 7.22411 12.4435 6.75 11.25 6.75C10.0565 6.75 8.91193 7.22411 8.06802 8.06802C7.22411 8.91193 6.75 10.0565 6.75 11.25C6.75 12.4435 7.22411 13.5881 8.06802 14.432C8.91193 15.2759 10.0565 15.75 11.25 15.75Z" stroke="white" stroke-width="3" stroke-linecap="round" stroke-linejoin="round"/>
</svg>
