<svg width="53" height="53" viewBox="0 0 53 53" fill="none" xmlns="http://www.w3.org/2000/svg">
<path d="M22.0833 11.0417L26.5 6.625M17.6667 35.3333L35.3333 17.6667M26.5 46.375L30.9167 41.9583M36.4375 41.9583C37.9017 41.9583 39.306 41.3767 40.3413 40.3413C41.3767 39.306 41.9583 37.9017 41.9583 36.4375C41.9583 34.9733 41.3767 33.569 40.3413 32.5337C39.306 31.4983 37.9017 30.9167 36.4375 30.9167C34.9733 30.9167 33.569 31.4983 32.5337 32.5337C31.4983 33.569 30.9167 34.9733 30.9167 36.4375C30.9167 37.9017 31.4983 39.306 32.5337 40.3413C33.569 41.3767 34.9733 41.9583 36.4375 41.9583ZM16.5625 22.0833C18.0267 22.0833 19.431 21.5017 20.4663 20.4663C21.5017 19.431 22.0833 18.0267 22.0833 16.5625C22.0833 15.0983 21.5017 13.694 20.4663 12.6587C19.431 11.6233 18.0267 11.0417 16.5625 11.0417C15.0983 11.0417 13.694 11.6233 12.6587 12.6587C11.6233 13.694 11.0417 15.0983 11.0417 16.5625C11.0417 18.0267 11.6233 19.431 12.6587 20.4663C13.694 21.5017 15.0983 22.0833 16.5625 22.0833ZM12.1458 46.375C13.61 46.375 15.0143 45.7933 16.0497 44.758C17.085 43.7226 17.6667 42.3184 17.6667 40.8542C17.6667 39.3899 17.085 37.9857 16.0497 36.9503C15.0143 35.915 13.61 35.3333 12.1458 35.3333C10.6816 35.3333 9.27737 35.915 8.24201 36.9503C7.20666 37.9857 6.625 39.3899 6.625 40.8542C6.625 42.3184 7.20666 43.7226 8.24201 44.758C9.27737 45.7933 10.6816 46.375 12.1458 46.375ZM40.8542 17.6667C42.3184 17.6667 43.7226 17.085 44.758 16.0497C45.7933 15.0143 46.375 13.61 46.375 12.1458C46.375 10.6816 45.7933 9.27737 44.758 8.24201C43.7226 7.20666 42.3184 6.625 40.8542 6.625C39.3899 6.625 37.9857 7.20666 36.9503 8.24201C35.915 9.27737 35.3333 10.6816 35.3333 12.1458C35.3333 13.61 35.915 15.0143 36.9503 16.0497C37.9857 17.085 39.3899 17.6667 40.8542 17.6667Z" stroke="#FAB91D" stroke-width="2.5" stroke-linecap="round" stroke-linejoin="round"/>
</svg>
