<svg width="90" height="90" viewBox="0 0 90 90" fill="none" xmlns="http://www.w3.org/2000/svg">
<g clip-path="url(#clip0_81_1919)">
<g clip-path="url(#clip1_81_1919)">
<path d="M11.4062 4H78.5938C83.786 4 88 8.214 88 13.4062V80.5938C88 83.0884 87.009 85.481 85.245 87.245C83.481 89.009 81.0884 90 78.5938 90H11.4062C8.91156 90 6.51904 89.009 4.75503 87.245C2.99101 85.481 2 83.0884 2 80.5938L2 13.4062C2 8.214 6.214 4 11.4062 4ZM10.0625 13.4062V80.5938C10.0625 81.3355 10.6645 81.9375 11.4062 81.9375H78.5938C78.9501 81.9375 79.2919 81.7959 79.5439 81.5439C79.7959 81.2919 79.9375 80.9501 79.9375 80.5938V13.4062C79.9375 13.0499 79.7959 12.7081 79.5439 12.4561C79.2919 12.2041 78.9501 12.0625 78.5938 12.0625H11.4062C11.0499 12.0625 10.7081 12.2041 10.4561 12.4561C10.2041 12.7081 10.0625 13.0499 10.0625 13.4062ZM65.1562 20.125C66.2254 20.125 67.2508 20.5497 68.0068 21.3057C68.7628 22.0617 69.1875 23.0871 69.1875 24.1562V64.4688C69.1875 65.5379 68.7628 66.5633 68.0068 67.3193C67.2508 68.0753 66.2254 68.5 65.1562 68.5C64.0871 68.5 63.0617 68.0753 62.3057 67.3193C61.5497 66.5633 61.125 65.5379 61.125 64.4688V24.1562C61.125 23.0871 61.5497 22.0617 62.3057 21.3057C63.0617 20.5497 64.0871 20.125 65.1562 20.125ZM20.8125 24.1562C20.8125 23.0871 21.2372 22.0617 21.9932 21.3057C22.7492 20.5497 23.7746 20.125 24.8438 20.125C25.9129 20.125 26.9383 20.5497 27.6943 21.3057C28.4503 22.0617 28.875 23.0871 28.875 24.1562V53.7188C28.875 54.7879 28.4503 55.8133 27.6943 56.5693C26.9383 57.3253 25.9129 57.75 24.8438 57.75C23.7746 57.75 22.7492 57.3253 21.9932 56.5693C21.2372 55.8133 20.8125 54.7879 20.8125 53.7188V24.1562ZM45 20.125C46.0692 20.125 47.0945 20.5497 47.8505 21.3057C48.6065 22.0617 49.0312 23.0871 49.0312 24.1562V42.9688C49.0312 44.0379 48.6065 45.0633 47.8505 45.8193C47.0945 46.5753 46.0692 47 45 47C43.9308 47 42.9055 46.5753 42.1495 45.8193C41.3935 45.0633 40.9688 44.0379 40.9688 42.9688V24.1562C40.9688 23.0871 41.3935 22.0617 42.1495 21.3057C42.9055 20.5497 43.9308 20.125 45 20.125Z" fill="#071C54"/>
</g>
</g>
<defs>
<clipPath id="clip0_81_1919">
<rect width="90" height="90" fill="white"/>
</clipPath>
<clipPath id="clip1_81_1919">
<rect width="86" height="86" fill="white" transform="translate(2 4)"/>
</clipPath>
</defs>
</svg>
