<svg width="36" height="36" viewBox="0 0 36 36" fill="none" xmlns="http://www.w3.org/2000/svg">
<path d="M29.9997 16.4985H32.9997C32.9997 8.80351 27.1902 3 19.4847 3V6.00001C25.5777 6.00001 29.9997 10.4145 29.9997 16.4985Z" fill="white"/>
<path d="M19.4998 12C22.6543 12 23.9998 13.3455 23.9998 16.5H26.9998C26.9998 11.6625 24.3373 8.99997 19.4998 8.99997V12ZM24.6328 20.1645C24.3446 19.9025 23.9659 19.7628 23.5765 19.7748C23.1872 19.7869 22.8178 19.9497 22.5463 20.229L18.9568 23.9205C18.0928 23.7555 16.3558 23.214 14.5678 21.4305C12.7798 19.641 12.2383 17.8995 12.0778 17.0415L15.7663 13.4505C16.0459 13.1792 16.209 12.8097 16.2211 12.4203C16.2331 12.0309 16.0931 11.652 15.8308 11.364L10.2883 5.26946C10.0259 4.98049 9.66113 4.80521 9.27154 4.78085C8.88195 4.75648 8.49821 4.88495 8.20181 5.13896L4.9468 7.93046C4.68747 8.19074 4.53268 8.53714 4.5118 8.90397C4.4893 9.27897 4.0603 18.162 10.9483 25.053C16.9573 31.0605 24.4843 31.5 26.5573 31.5C26.8603 31.5 27.0463 31.491 27.0958 31.488C27.4626 31.4675 27.8088 31.312 28.0678 31.0515L30.8579 27.795C31.112 27.4988 31.2408 27.1152 31.2167 26.7256C31.1926 26.336 31.0176 25.9711 30.7289 25.7085L24.6328 20.1645Z" fill="white"/>
</svg>
