<svg width="86" height="86" viewBox="0 0 86 86" fill="none" xmlns="http://www.w3.org/2000/svg">
<g clip-path="url(#clip0_81_1952)">
<path d="M36.2637 46.0833L62.7713 46.0833L62.7713 39.9166L36.2637 39.9166L35.0571 39.9166L35.9101 39.0632L42.1036 32.8663L37.7435 28.5031L23.2467 42.9999L37.7472 57.497L42.107 53.1371L35.9101 46.9368L35.0571 46.0833L36.2637 46.0833Z" fill="white" stroke="#052987"/>
<path d="M15.4826 15.4826C0.283813 30.6813 0.283814 55.319 15.4826 70.5178C30.6813 85.7165 55.319 85.7165 70.5178 70.5178C85.7165 55.319 85.7165 30.6813 70.5178 15.4825C55.319 0.28381 30.6813 0.283811 15.4826 15.4826ZM19.8423 66.1581C13.7004 60.0162 10.25 51.6861 10.25 43.0002C10.25 34.3143 13.7004 25.9841 19.8423 19.8423C25.9841 13.7004 34.3143 10.25 43.0002 10.25C51.6861 10.25 60.0162 13.7004 66.1581 19.8423C72.2999 25.9841 75.7504 34.3143 75.7504 43.0002C75.7504 51.6861 72.2999 60.0162 66.1581 66.1581C60.0162 72.2999 51.6861 75.7504 43.0002 75.7504C34.3143 75.7504 25.9841 72.2999 19.8423 66.1581Z" fill="white" stroke="#052987"/>
</g>
<defs>
<clipPath id="clip0_81_1952">
<rect width="86" height="86" fill="white" transform="matrix(4.37114e-08 -1 -1 -4.37114e-08 86 86)"/>
</clipPath>
</defs>
</svg>
