<svg width="92" height="74" viewBox="0 0 92 74" fill="none" xmlns="http://www.w3.org/2000/svg">
<g opacity="0.15">
<path d="M57.0722 0H50.4141C49.0108 0 47.8731 1.14706 47.8731 2.56203V9.27519C47.8731 10.6902 49.0108 11.8372 50.4141 11.8372H57.0722C58.4756 11.8372 59.6132 10.6902 59.6132 9.27519V2.56203C59.6132 1.14706 58.4756 0 57.0722 0Z" fill="#367CFF"/>
<path d="M41.1145 0H34.4564C33.053 0 31.9154 1.14706 31.9154 2.56203V9.27519C31.9154 10.6902 33.053 11.8372 34.4564 11.8372H41.1145C42.5179 11.8372 43.6555 10.6902 43.6555 9.27519V2.56203C43.6555 1.14706 42.5179 0 41.1145 0Z" fill="#367CFF"/>
<path d="M25.389 0H18.7309C17.3275 0 16.1899 1.14706 16.1899 2.56203V9.27519C16.1899 10.6902 17.3275 11.8372 18.7309 11.8372H25.389C26.7923 11.8372 27.93 10.6902 27.93 9.27519V2.56203C27.93 1.14706 26.7923 0 25.389 0Z" fill="#367CFF"/>
<path d="M9.43128 0H2.77319C1.36982 0 0.232171 1.14706 0.232171 2.56203V9.27519C0.232171 10.6902 1.36982 11.8372 2.77319 11.8372H9.43128C10.8346 11.8372 11.9723 10.6902 11.9723 9.27519V2.56203C11.9723 1.14706 10.8346 0 9.43128 0Z" fill="#367CFF"/>
<path d="M73.0299 0H66.3718C64.9685 0 63.8308 1.14706 63.8308 2.56203V9.27519C63.8308 10.6902 64.9685 11.8372 66.3718 11.8372H73.0299C74.4333 11.8372 75.5709 10.6902 75.5709 9.27519V2.56203C75.5709 1.14706 74.4333 0 73.0299 0Z" fill="#367CFF"/>
<path d="M88.9876 0H82.3295C80.9262 0 79.7885 1.14706 79.7885 2.56203V9.27519C79.7885 10.6902 80.9262 11.8372 82.3295 11.8372H88.9876C90.391 11.8372 91.5286 10.6902 91.5286 9.27519V2.56203C91.5286 1.14706 90.391 0 88.9876 0Z" fill="#367CFF"/>
<path d="M57.2788 14.9518H50.6718C49.2544 14.9518 48.1053 16.1104 48.1053 17.5396V24.2012C48.1053 25.6304 49.2544 26.789 50.6718 26.789H57.2788C58.6963 26.789 59.8454 25.6304 59.8454 24.2012V17.5396C59.8454 16.1104 58.6963 14.9518 57.2788 14.9518Z" fill="#367CFF"/>
<path d="M73.2365 14.9518H66.6295C65.2121 14.9518 64.063 16.1104 64.063 17.5396V24.2012C64.063 25.6304 65.2121 26.789 66.6295 26.789H73.2365C74.654 26.789 75.8031 25.6304 75.8031 24.2012V17.5396C75.8031 16.1104 74.654 14.9518 73.2365 14.9518Z" fill="#367CFF"/>
<path d="M89.1942 14.9518H82.5873C81.1698 14.9518 80.0207 16.1104 80.0207 17.5396V24.2012C80.0207 25.6304 81.1698 26.789 82.5873 26.789H89.1942C90.6117 26.789 91.7608 25.6304 91.7608 24.2012V17.5396C91.7608 16.1104 90.6117 14.9518 89.1942 14.9518Z" fill="#367CFF"/>
<path d="M9.40573 14.9518H2.79874C1.38127 14.9518 0.232171 16.1104 0.232171 17.5396V24.2012C0.232171 25.6304 1.38127 26.789 2.79874 26.789H9.40573C10.8232 26.789 11.9723 25.6304 11.9723 24.2012V17.5396C11.9723 16.1104 10.8232 14.9518 9.40573 14.9518Z" fill="#367CFF"/>
<path d="M25.3634 14.9518H18.7564C17.339 14.9518 16.1899 16.1104 16.1899 17.5396V24.2012C16.1899 25.6304 17.339 26.789 18.7564 26.789H25.3634C26.7809 26.789 27.93 25.6304 27.93 24.2012V17.5396C27.93 16.1104 26.7809 14.9518 25.3634 14.9518Z" fill="#367CFF"/>
<path d="M41.3211 14.9518H34.7141C33.2967 14.9518 32.1476 16.1104 32.1476 17.5396V24.2012C32.1476 25.6304 33.2967 26.789 34.7141 26.789H41.3211C42.7386 26.789 43.8877 25.6304 43.8877 24.2012V17.5396C43.8877 16.1104 42.7386 14.9518 41.3211 14.9518Z" fill="#367CFF"/>
<path d="M57.2788 31.6044H50.6718C49.2544 31.6044 48.1053 32.763 48.1053 34.1922V40.8538C48.1053 42.283 49.2544 43.4416 50.6718 43.4416H57.2788C58.6963 43.4416 59.8454 42.283 59.8454 40.8538V34.1922C59.8454 32.763 58.6963 31.6044 57.2788 31.6044Z" fill="#367CFF"/>
<path d="M73.2365 31.6044H66.6295C65.2121 31.6044 64.063 32.763 64.063 34.1922V40.8538C64.063 42.283 65.2121 43.4416 66.6295 43.4416H73.2365C74.654 43.4416 75.8031 42.283 75.8031 40.8538V34.1922C75.8031 32.763 74.654 31.6044 73.2365 31.6044Z" fill="#367CFF"/>
<path d="M89.1942 31.6044H82.5873C81.1698 31.6044 80.0207 32.763 80.0207 34.1922V40.8538C80.0207 42.283 81.1698 43.4416 82.5873 43.4416H89.1942C90.6117 43.4416 91.7608 42.283 91.7608 40.8538V34.1922C91.7608 32.763 90.6117 31.6044 89.1942 31.6044Z" fill="#367CFF"/>
<path d="M9.40573 31.6044H2.79874C1.38127 31.6044 0.232171 32.763 0.232171 34.1922V40.8538C0.232171 42.283 1.38127 43.4416 2.79874 43.4416H9.40573C10.8232 43.4416 11.9723 42.283 11.9723 40.8538V34.1922C11.9723 32.763 10.8232 31.6044 9.40573 31.6044Z" fill="#367CFF"/>
<path d="M25.3634 31.6044H18.7564C17.339 31.6044 16.1899 32.763 16.1899 34.1922V40.8538C16.1899 42.283 17.339 43.4416 18.7564 43.4416H25.3634C26.7809 43.4416 27.93 42.283 27.93 40.8538V34.1922C27.93 32.763 26.7809 31.6044 25.3634 31.6044Z" fill="#367CFF"/>
<path d="M41.3211 31.6044H34.7141C33.2967 31.6044 32.1476 32.763 32.1476 34.1922V40.8538C32.1476 42.283 33.2967 43.4416 34.7141 43.4416H41.3211C42.7386 43.4416 43.8877 42.283 43.8877 40.8538V34.1922C43.8877 32.763 42.7386 31.6044 41.3211 31.6044Z" fill="#367CFF"/>
<path d="M57.2788 47.6391H50.6718C49.2544 47.6391 48.1053 48.7977 48.1053 50.2269V56.8885C48.1053 58.3177 49.2544 59.4763 50.6718 59.4763H57.2788C58.6963 59.4763 59.8454 58.3177 59.8454 56.8885V50.2269C59.8454 48.7977 58.6963 47.6391 57.2788 47.6391Z" fill="#367CFF"/>
<path d="M73.0044 47.4051H66.3974C64.9799 47.4051 63.8308 48.5637 63.8308 49.9929V56.6545C63.8308 58.0837 64.9799 59.2423 66.3974 59.2423H73.0044C74.4218 59.2423 75.5709 58.0837 75.5709 56.6545V49.9929C75.5709 48.5637 74.4218 47.4051 73.0044 47.4051Z" fill="#367CFF"/>
<path d="M88.9621 47.4051H82.3551C80.9376 47.4051 79.7885 48.5637 79.7885 49.9929V56.6545C79.7885 58.0837 80.9376 59.2423 82.3551 59.2423H88.9621C90.3795 59.2423 91.5286 58.0837 91.5286 56.6545V49.9929C91.5286 48.5637 90.3795 47.4051 88.9621 47.4051Z" fill="#367CFF"/>
<path d="M9.40573 47.6391H2.79874C1.38127 47.6391 0.232171 48.7977 0.232171 50.2269V56.8885C0.232171 58.3177 1.38127 59.4763 2.79874 59.4763H9.40573C10.8232 59.4763 11.9723 58.3177 11.9723 56.8885V50.2269C11.9723 48.7977 10.8232 47.6391 9.40573 47.6391Z" fill="#367CFF"/>
<path d="M25.3634 47.6391H18.7564C17.339 47.6391 16.1899 48.7977 16.1899 50.2269V56.8885C16.1899 58.3177 17.339 59.4763 18.7564 59.4763H25.3634C26.7809 59.4763 27.93 58.3177 27.93 56.8885V50.2269C27.93 48.7977 26.7809 47.6391 25.3634 47.6391Z" fill="#367CFF"/>
<path d="M41.3211 47.6391H34.7141C33.2967 47.6391 32.1476 48.7977 32.1476 50.2269V56.8885C32.1476 58.3177 33.2967 59.4763 34.7141 59.4763H41.3211C42.7386 59.4763 43.8877 58.3177 43.8877 56.8885V50.2269C43.8877 48.7977 42.7386 47.6391 41.3211 47.6391Z" fill="#367CFF"/>
<path d="M57.0467 62.1628H50.4397C49.0222 62.1628 47.8731 63.3214 47.8731 64.7506V71.4123C47.8731 72.8415 49.0222 74.0001 50.4397 74.0001H57.0467C58.4641 74.0001 59.6132 72.8415 59.6132 71.4123V64.7506C59.6132 63.3214 58.4641 62.1628 57.0467 62.1628Z" fill="#367CFF"/>
<path d="M9.17355 62.1628H2.56657C1.14909 62.1628 0 63.3214 0 64.7506V71.4123C0 72.8415 1.14909 74.0001 2.56657 74.0001H9.17355C10.591 74.0001 11.7401 72.8415 11.7401 71.4123V64.7506C11.7401 63.3214 10.591 62.1628 9.17355 62.1628Z" fill="#367CFF"/>
<path d="M25.1313 62.1628H18.5243C17.1068 62.1628 15.9577 63.3214 15.9577 64.7506V71.4123C15.9577 72.8415 17.1068 74.0001 18.5243 74.0001H25.1313C26.5487 74.0001 27.6978 72.8415 27.6978 71.4123V64.7506C27.6978 63.3214 26.5487 62.1628 25.1313 62.1628Z" fill="#367CFF"/>
<path d="M41.089 62.1628H34.482C33.0645 62.1628 31.9154 63.3214 31.9154 64.7506V71.4123C31.9154 72.8415 33.0645 74.0001 34.482 74.0001H41.089C42.5064 74.0001 43.6555 72.8415 43.6555 71.4123V64.7506C43.6555 63.3214 42.5064 62.1628 41.089 62.1628Z" fill="#367CFF"/>
</g>
</svg>
