<svg width="7" height="3" viewBox="0 0 7 3" fill="none" xmlns="http://www.w3.org/2000/svg">
<path d="M0.26366 2.90144C0.297962 2.90063 0.331661 2.89227 0.362351 2.87693C0.393041 2.86158 0.419968 2.83965 0.441199 2.81269C2.66039 0.160754 6.68823 0.504721 6.73262 0.515817C6.79851 0.518929 6.86306 0.496412 6.91271 0.452968C6.96236 0.409525 6.99326 0.34854 6.99892 0.282811C7.00198 0.250728 6.99863 0.218344 6.9891 0.187556C6.97958 0.156768 6.96407 0.128166 6.94344 0.103409C6.92281 0.0786512 6.89748 0.0582556 6.86891 0.043337C6.84034 0.0284183 6.8091 0.0193031 6.77699 0.0165181C6.59946 0.0165181 2.42737 -0.360767 0.0528335 2.4909C0.0233675 2.52925 0.00540525 2.5752 0.00104127 2.62337C-0.00332272 2.67154 0.00608854 2.71996 0.0281818 2.76298C0.0502751 2.80601 0.0841512 2.84184 0.125841 2.86636C0.16753 2.89088 0.215321 2.90305 0.26366 2.90144Z" fill="#263238"/>
</svg>
