<svg width="138" height="157" viewBox="0 0 138 157" fill="none" xmlns="http://www.w3.org/2000/svg">
<g clip-path="url(#clip0_81_1576)">
<path d="M129.73 44.25L90.8218 44.25C90.0822 44.25 89.373 43.9563 88.8501 43.4335C88.3271 42.9107 88.0333 42.2017 88.0333 41.4624V13.1457C88.0333 12.4067 88.327 11.698 88.8497 11.1755C89.3724 10.6529 90.0813 10.3594 90.8205 10.3594L129.731 10.3594C130.471 10.3594 131.18 10.6529 131.702 11.1755C132.225 11.698 132.519 12.4067 132.519 13.1457V41.4624C132.519 42.2017 132.225 42.9107 131.702 43.4335C131.179 43.9563 130.47 44.25 129.73 44.25Z" fill="white"/>
<path d="M87.917 41.4621V13.1455C87.917 12.3756 88.2229 11.6373 88.7674 11.0929C89.312 10.5485 90.0505 10.2427 90.8206 10.2427H129.732C130.502 10.2427 131.24 10.5485 131.785 11.0929C132.329 11.6373 132.635 12.3756 132.635 13.1455V41.4621C132.635 41.8435 132.56 42.2211 132.414 42.5735C132.268 42.9258 132.054 43.246 131.784 43.5157C131.515 43.7853 131.194 43.9992 130.842 44.1452C130.49 44.2911 130.112 44.3663 129.73 44.3663H90.8219C90.4405 44.3663 90.0627 44.2911 89.7103 44.1452C89.3578 43.9992 89.0376 43.7853 88.7678 43.5157C88.4981 43.246 88.2841 42.9258 88.1381 42.5735C87.9921 42.2211 87.917 41.8435 87.917 41.4621ZM90.8206 10.4756C90.1125 10.4758 89.4334 10.7572 88.9327 11.2579C88.432 11.7585 88.1507 12.4375 88.1507 13.1455V41.4621C88.1507 42.1706 88.4323 42.85 88.9333 43.3509C89.4344 43.8519 90.114 44.1333 90.8227 44.1333H129.73C130.439 44.1333 131.119 43.8519 131.62 43.3509C132.121 42.85 132.402 42.1706 132.402 41.4621V13.1455C132.402 12.4374 132.121 11.7583 131.62 11.2576C131.119 10.7569 130.44 10.4756 129.732 10.4756H90.8206Z" fill="#292A2E"/>
<path d="M88.0337 13.1452V15.5046H132.518V13.1452C132.518 12.4062 132.225 11.6975 131.702 11.175C131.179 10.6524 130.47 10.3589 129.731 10.3589H90.8206C90.4546 10.3589 90.0922 10.431 89.7541 10.571C89.4159 10.711 89.1087 10.9163 88.8499 11.175C88.5911 11.4337 88.3858 11.7409 88.2458 12.079C88.1057 12.417 88.0337 12.7793 88.0337 13.1452Z" fill="#071C54"/>
<path d="M103.226 19.3184H101.127C101.102 19.3184 101.078 19.3086 101.061 19.2911C101.044 19.2737 101.034 19.25 101.034 19.2253C101.034 19.2005 101.044 19.1768 101.061 19.1594C101.078 19.1419 101.102 19.1321 101.127 19.1321H103.226C103.251 19.1321 103.274 19.1419 103.292 19.1594C103.309 19.1768 103.319 19.2005 103.319 19.2253C103.319 19.25 103.309 19.2737 103.292 19.2911C103.274 19.3086 103.251 19.3184 103.226 19.3184Z" fill="#292A2E"/>
<path d="M99.6131 19.3184H98.8188C98.7941 19.3184 98.7704 19.3086 98.7529 19.2911C98.7354 19.2737 98.7256 19.25 98.7256 19.2253C98.7256 19.2005 98.7354 19.1768 98.7529 19.1594C98.7704 19.1419 98.7941 19.1321 98.8188 19.1321H99.6131C99.6378 19.1321 99.6615 19.1419 99.679 19.1594C99.6964 19.1768 99.7063 19.2005 99.7063 19.2253C99.7063 19.25 99.6964 19.2737 99.679 19.2911C99.6615 19.3086 99.6378 19.3184 99.6131 19.3184Z" fill="#367CFF"/>
<path d="M99.6131 20.9993H98.8188C98.7941 20.9993 98.7704 20.9895 98.7529 20.9721C98.7354 20.9546 98.7256 20.9309 98.7256 20.9062C98.7256 20.8815 98.7354 20.8578 98.7529 20.8403C98.7704 20.8228 98.7941 20.813 98.8188 20.813H99.6131C99.6378 20.813 99.6615 20.8228 99.679 20.8403C99.6964 20.8578 99.7063 20.8815 99.7063 20.9062C99.7063 20.9309 99.6964 20.9546 99.679 20.9721C99.6615 20.9895 99.6378 20.9993 99.6131 20.9993Z" fill="#367CFF"/>
<path d="M99.6131 22.6802H98.8188C98.7941 22.6802 98.7704 22.6704 98.7529 22.653C98.7354 22.6355 98.7256 22.6118 98.7256 22.5871C98.7256 22.5624 98.7354 22.5387 98.7529 22.5212C98.7704 22.5037 98.7941 22.4939 98.8188 22.4939H99.6131C99.6378 22.4939 99.6615 22.5037 99.679 22.5212C99.6964 22.5387 99.7063 22.5624 99.7063 22.5871C99.7063 22.6118 99.6964 22.6355 99.679 22.653C99.6615 22.6704 99.6378 22.6802 99.6131 22.6802Z" fill="#367CFF"/>
<path d="M99.6131 24.3612H98.8188C98.7941 24.3612 98.7704 24.3513 98.7529 24.3339C98.7354 24.3164 98.7256 24.2927 98.7256 24.268C98.7256 24.2433 98.7354 24.2196 98.7529 24.2021C98.7704 24.1846 98.7941 24.1748 98.8188 24.1748H99.6131C99.6378 24.1748 99.6615 24.1846 99.679 24.2021C99.6964 24.2196 99.7063 24.2433 99.7063 24.268C99.7063 24.2927 99.6964 24.3164 99.679 24.3339C99.6615 24.3513 99.6378 24.3612 99.6131 24.3612Z" fill="#367CFF"/>
<path d="M99.6131 26.0421H98.8188C98.7941 26.0421 98.7704 26.0322 98.7529 26.0148C98.7354 25.9973 98.7256 25.9736 98.7256 25.9489C98.7256 25.9242 98.7354 25.9005 98.7529 25.883C98.7704 25.8655 98.7941 25.8557 98.8188 25.8557H99.6131C99.6378 25.8557 99.6615 25.8655 99.679 25.883C99.6964 25.9005 99.7063 25.9242 99.7063 25.9489C99.7063 25.9736 99.6964 25.9973 99.679 26.0148C99.6615 26.0322 99.6378 26.0421 99.6131 26.0421Z" fill="#367CFF"/>
<path d="M99.6131 27.723H98.8188C98.7941 27.723 98.7704 27.7132 98.7529 27.6957C98.7354 27.6782 98.7256 27.6545 98.7256 27.6298C98.7256 27.6051 98.7354 27.5814 98.7529 27.5639C98.7704 27.5464 98.7941 27.5366 98.8188 27.5366H99.6131C99.6378 27.5366 99.6615 27.5464 99.679 27.5639C99.6964 27.5814 99.7063 27.6051 99.7063 27.6298C99.7063 27.6545 99.6964 27.6782 99.679 27.6957C99.6615 27.7132 99.6378 27.723 99.6131 27.723Z" fill="#367CFF"/>
<path d="M99.6131 29.4039H98.8188C98.7941 29.4039 98.7704 29.3941 98.7529 29.3766C98.7354 29.3591 98.7256 29.3354 98.7256 29.3107C98.7256 29.286 98.7354 29.2623 98.7529 29.2448C98.7704 29.2273 98.7941 29.2175 98.8188 29.2175H99.6131C99.6378 29.2175 99.6615 29.2273 99.679 29.2448C99.6964 29.2623 99.7063 29.286 99.7063 29.3107C99.7063 29.3354 99.6964 29.3591 99.679 29.3766C99.6615 29.3941 99.6378 29.4039 99.6131 29.4039Z" fill="#367CFF"/>
<path d="M99.6131 31.0848H98.8188C98.7941 31.0848 98.7704 31.075 98.7529 31.0575C98.7354 31.04 98.7256 31.0163 98.7256 30.9916C98.7256 30.9669 98.7354 30.9432 98.7529 30.9257C98.7704 30.9083 98.7941 30.8984 98.8188 30.8984H99.6131C99.6378 30.8984 99.6615 30.9083 99.679 30.9257C99.6964 30.9432 99.7063 30.9669 99.7063 30.9916C99.7063 31.0163 99.6964 31.04 99.679 31.0575C99.6615 31.075 99.6378 31.0848 99.6131 31.0848Z" fill="#367CFF"/>
<path d="M99.6131 32.7656H98.8188C98.7941 32.7656 98.7704 32.7558 98.7529 32.7383C98.7354 32.7208 98.7256 32.6971 98.7256 32.6724C98.7256 32.6477 98.7354 32.624 98.7529 32.6065C98.7704 32.589 98.7941 32.5792 98.8188 32.5792H99.6131C99.6378 32.5792 99.6615 32.589 99.679 32.6065C99.6964 32.624 99.7063 32.6477 99.7063 32.6724C99.7063 32.6971 99.6964 32.7208 99.679 32.7383C99.6615 32.7558 99.6378 32.7656 99.6131 32.7656Z" fill="#367CFF"/>
<path d="M99.6131 34.4465H98.8188C98.7941 34.4465 98.7704 34.4367 98.7529 34.4192C98.7354 34.4017 98.7256 34.378 98.7256 34.3533C98.7256 34.3286 98.7354 34.3049 98.7529 34.2874C98.7704 34.2699 98.7941 34.2601 98.8188 34.2601H99.6131C99.6378 34.2601 99.6615 34.2699 99.679 34.2874C99.6964 34.3049 99.7063 34.3286 99.7063 34.3533C99.7063 34.378 99.6964 34.4017 99.679 34.4192C99.6615 34.4367 99.6378 34.4465 99.6131 34.4465Z" fill="#367CFF"/>
<path d="M99.6131 36.1274H98.8188C98.7941 36.1274 98.7704 36.1176 98.7529 36.1001C98.7354 36.0826 98.7256 36.0589 98.7256 36.0342C98.7256 36.0095 98.7354 35.9858 98.7529 35.9683C98.7704 35.9509 98.7941 35.941 98.8188 35.941H99.6131C99.6378 35.941 99.6615 35.9509 99.679 35.9683C99.6964 35.9858 99.7063 36.0095 99.7063 36.0342C99.7063 36.0589 99.6964 36.0826 99.679 36.1001C99.6615 36.1176 99.6378 36.1274 99.6131 36.1274Z" fill="#367CFF"/>
<path d="M99.6131 37.8083H98.8188C98.7941 37.8083 98.7704 37.7985 98.7529 37.781C98.7354 37.7635 98.7256 37.7398 98.7256 37.7151C98.7256 37.6904 98.7354 37.6667 98.7529 37.6492C98.7704 37.6318 98.7941 37.6219 98.8188 37.6219H99.6131C99.6378 37.6219 99.6615 37.6318 99.679 37.6492C99.6964 37.6667 99.7063 37.6904 99.7063 37.7151C99.7063 37.7398 99.6964 37.7635 99.679 37.781C99.6615 37.7985 99.6378 37.8083 99.6131 37.8083Z" fill="#367CFF"/>
<path d="M99.6131 39.4892H98.8188C98.7941 39.4892 98.7704 39.4794 98.7529 39.4619C98.7354 39.4444 98.7256 39.4207 98.7256 39.396C98.7256 39.3713 98.7354 39.3476 98.7529 39.3301C98.7704 39.3127 98.7941 39.3029 98.8188 39.3029H99.6131C99.6378 39.3029 99.6615 39.3127 99.679 39.3301C99.6964 39.3476 99.7063 39.3713 99.7063 39.396C99.7063 39.4207 99.6964 39.4444 99.679 39.4619C99.6615 39.4794 99.6378 39.4892 99.6131 39.4892Z" fill="#367CFF"/>
<path d="M99.6131 41.1704H98.8188C98.7941 41.1704 98.7704 41.1605 98.7529 41.1431C98.7354 41.1256 98.7256 41.1019 98.7256 41.0772C98.7256 41.0525 98.7354 41.0288 98.7529 41.0113C98.7704 40.9938 98.7941 40.984 98.8188 40.984H99.6131C99.6378 40.984 99.6615 40.9938 99.679 41.0113C99.6964 41.0288 99.7063 41.0525 99.7063 41.0772C99.7063 41.1019 99.6964 41.1256 99.679 41.1431C99.6615 41.1605 99.6378 41.1704 99.6131 41.1704Z" fill="#367CFF"/>
<path d="M104.903 20.9993H102.991C102.966 20.9993 102.942 20.9895 102.925 20.9721C102.907 20.9546 102.897 20.9309 102.897 20.9062C102.897 20.8815 102.907 20.8578 102.925 20.8403C102.942 20.8228 102.966 20.813 102.991 20.813H104.903C104.928 20.813 104.952 20.8228 104.969 20.8403C104.987 20.8578 104.997 20.8815 104.997 20.9062C104.997 20.9309 104.987 20.9546 104.969 20.9721C104.952 20.9895 104.928 20.9993 104.903 20.9993Z" fill="#292A2E"/>
<path d="M103.226 31.0847H101.127C101.102 31.0847 101.078 31.0748 101.061 31.0574C101.044 31.0399 101.034 31.0162 101.034 30.9915C101.034 30.9668 101.044 30.9431 101.061 30.9256C101.078 30.9081 101.102 30.8983 101.127 30.8983H103.226C103.251 30.8983 103.274 30.9081 103.292 30.9256C103.309 30.9431 103.319 30.9668 103.319 30.9915C103.319 31.0162 103.309 31.0399 103.292 31.0574C103.274 31.0748 103.251 31.0847 103.226 31.0847Z" fill="#292A2E"/>
<path d="M104.903 32.7656H102.991C102.966 32.7656 102.942 32.7558 102.925 32.7383C102.907 32.7208 102.897 32.6971 102.897 32.6724C102.897 32.6477 102.907 32.624 102.925 32.6065C102.942 32.589 102.966 32.5792 102.991 32.5792H104.903C104.928 32.5792 104.952 32.589 104.969 32.6065C104.987 32.624 104.997 32.6477 104.997 32.6724C104.997 32.6971 104.987 32.7208 104.969 32.7383C104.952 32.7558 104.928 32.7656 104.903 32.7656Z" fill="#292A2E"/>
<path d="M115.715 22.6802H104.296C104.271 22.6802 104.247 22.6704 104.23 22.653C104.212 22.6355 104.203 22.6118 104.203 22.5871C104.203 22.5624 104.212 22.5387 104.23 22.5212C104.247 22.5037 104.271 22.4939 104.296 22.4939H115.715C115.74 22.4939 115.764 22.5037 115.781 22.5212C115.799 22.5387 115.808 22.5624 115.808 22.5871C115.808 22.6118 115.799 22.6355 115.781 22.653C115.764 22.6704 115.74 22.6802 115.715 22.6802Z" fill="#292A2E"/>
<path d="M125.797 22.6802H117.733C117.709 22.6802 117.685 22.6704 117.667 22.653C117.65 22.6355 117.64 22.6118 117.64 22.5871C117.64 22.5624 117.65 22.5387 117.667 22.5212C117.685 22.5037 117.709 22.4939 117.733 22.4939H125.797C125.822 22.4939 125.846 22.5037 125.863 22.5212C125.881 22.5387 125.89 22.5624 125.89 22.5871C125.89 22.6118 125.881 22.6355 125.863 22.653C125.846 22.6704 125.822 22.6802 125.797 22.6802Z" fill="#0CBC8B"/>
<path d="M130.125 22.6802H127.653C127.629 22.6802 127.605 22.6704 127.587 22.653C127.57 22.6355 127.56 22.6118 127.56 22.5871C127.56 22.5624 127.57 22.5387 127.587 22.5212C127.605 22.5037 127.629 22.4939 127.653 22.4939H130.125C130.15 22.4939 130.173 22.5037 130.191 22.5212C130.208 22.5387 130.218 22.5624 130.218 22.5871C130.218 22.6118 130.208 22.6355 130.191 22.653C130.173 22.6704 130.15 22.6802 130.125 22.6802Z" fill="#292A2E"/>
<path d="M121.307 26.0421H104.296C104.271 26.0421 104.247 26.0322 104.23 26.0148C104.212 25.9973 104.203 25.9736 104.203 25.9489C104.203 25.9242 104.212 25.9005 104.23 25.883C104.247 25.8655 104.271 25.8557 104.296 25.8557H121.307C121.332 25.8557 121.356 25.8655 121.373 25.883C121.391 25.9005 121.401 25.9242 121.401 25.9489C121.401 25.9736 121.391 25.9973 121.373 26.0148C121.356 26.0322 121.332 26.0421 121.307 26.0421Z" fill="#292A2E"/>
<path d="M125.797 26.0421H123.326C123.301 26.0421 123.277 26.0322 123.26 26.0148C123.242 25.9973 123.232 25.9736 123.232 25.9489C123.232 25.9242 123.242 25.9005 123.26 25.883C123.277 25.8655 123.301 25.8557 123.326 25.8557H125.797C125.822 25.8557 125.846 25.8655 125.863 25.883C125.881 25.9005 125.891 25.9242 125.891 25.9489C125.891 25.9736 125.881 25.9973 125.863 26.0148C125.846 26.0322 125.822 26.0421 125.797 26.0421Z" fill="#367CFF"/>
<path d="M106.395 24.3612H104.296C104.271 24.3612 104.247 24.3513 104.23 24.3339C104.212 24.3164 104.203 24.2927 104.203 24.268C104.203 24.2433 104.212 24.2196 104.23 24.2021C104.247 24.1846 104.271 24.1748 104.296 24.1748H106.395C106.42 24.1748 106.443 24.1846 106.461 24.2021C106.478 24.2196 106.488 24.2433 106.488 24.268C106.488 24.2927 106.478 24.3164 106.461 24.3339C106.443 24.3513 106.42 24.3612 106.395 24.3612Z" fill="#0CBC8B"/>
<path d="M120.205 24.3612H108.413C108.388 24.3612 108.365 24.3513 108.347 24.3339C108.33 24.3164 108.32 24.2927 108.32 24.268C108.32 24.2433 108.33 24.2196 108.347 24.2021C108.365 24.1846 108.388 24.1748 108.413 24.1748H120.205C120.23 24.1748 120.253 24.1846 120.271 24.2021C120.288 24.2196 120.298 24.2433 120.298 24.268C120.298 24.2927 120.288 24.3164 120.271 24.3339C120.253 24.3513 120.23 24.3612 120.205 24.3612Z" fill="#367CFF"/>
<path d="M130.141 24.3612H122.45C122.425 24.3612 122.401 24.3513 122.384 24.3339C122.366 24.3164 122.356 24.2927 122.356 24.268C122.356 24.2433 122.366 24.2196 122.384 24.2021C122.401 24.1846 122.425 24.1748 122.45 24.1748H130.141C130.166 24.1748 130.189 24.1846 130.207 24.2021C130.224 24.2196 130.234 24.2433 130.234 24.268C130.234 24.2927 130.224 24.3164 130.207 24.3339C130.189 24.3513 130.166 24.3612 130.141 24.3612H130.141Z" fill="#292A2E"/>
<path d="M115.715 27.723H104.296C104.271 27.723 104.247 27.7132 104.23 27.6957C104.212 27.6782 104.203 27.6545 104.203 27.6298C104.203 27.6051 104.212 27.5814 104.23 27.5639C104.247 27.5464 104.271 27.5366 104.296 27.5366H115.715C115.74 27.5366 115.764 27.5464 115.781 27.5639C115.799 27.5814 115.808 27.6051 115.808 27.6298C115.808 27.6545 115.799 27.6782 115.781 27.6957C115.764 27.7132 115.74 27.723 115.715 27.723Z" fill="#292A2E"/>
<path d="M122.069 27.723H117.733C117.709 27.723 117.685 27.7132 117.667 27.6957C117.65 27.6782 117.64 27.6545 117.64 27.6298C117.64 27.6051 117.65 27.5814 117.667 27.5639C117.685 27.5464 117.709 27.5366 117.733 27.5366H122.069C122.094 27.5366 122.118 27.5464 122.135 27.5639C122.153 27.5814 122.162 27.6051 122.162 27.6298C122.162 27.6545 122.153 27.6782 122.135 27.6957C122.118 27.7132 122.094 27.723 122.069 27.723Z" fill="#0CBC8B"/>
<path d="M130.125 27.723H123.925C123.901 27.723 123.877 27.7132 123.859 27.6957C123.842 27.6782 123.832 27.6545 123.832 27.6298C123.832 27.6051 123.842 27.5814 123.859 27.5639C123.877 27.5464 123.901 27.5366 123.925 27.5366H130.125C130.15 27.5366 130.173 27.5464 130.191 27.5639C130.208 27.5814 130.218 27.6051 130.218 27.6298C130.218 27.6545 130.208 27.6782 130.191 27.6957C130.173 27.7132 130.15 27.723 130.125 27.723Z" fill="#292A2E"/>
<path d="M106.395 29.4038H104.296C104.271 29.4038 104.247 29.3939 104.23 29.3765C104.212 29.359 104.203 29.3353 104.203 29.3106C104.203 29.2859 104.212 29.2622 104.23 29.2447C104.247 29.2272 104.271 29.2174 104.296 29.2174H106.395C106.42 29.2174 106.443 29.2272 106.461 29.2447C106.478 29.2622 106.488 29.2859 106.488 29.3106C106.488 29.3353 106.478 29.359 106.461 29.3765C106.443 29.3939 106.42 29.4038 106.395 29.4038Z" fill="#367CFF"/>
<path d="M120.205 29.4038H108.413C108.388 29.4038 108.365 29.3939 108.347 29.3765C108.33 29.359 108.32 29.3353 108.32 29.3106C108.32 29.2859 108.33 29.2622 108.347 29.2447C108.365 29.2272 108.388 29.2174 108.413 29.2174H120.205C120.23 29.2174 120.253 29.2272 120.271 29.2447C120.288 29.2622 120.298 29.2859 120.298 29.3106C120.298 29.3353 120.288 29.359 120.271 29.3765C120.253 29.3939 120.23 29.4038 120.205 29.4038Z" fill="#0CBC8B"/>
<path d="M115.342 36.1274H103.923C103.898 36.1274 103.874 36.1176 103.857 36.1001C103.839 36.0826 103.83 36.0589 103.83 36.0342C103.83 36.0095 103.839 35.9858 103.857 35.9683C103.874 35.9509 103.898 35.941 103.923 35.941H115.342C115.367 35.941 115.391 35.9509 115.408 35.9683C115.426 35.9858 115.435 36.0095 115.435 36.0342C115.435 36.0589 115.426 36.0826 115.408 36.1001C115.391 36.1176 115.367 36.1274 115.342 36.1274Z" fill="#292A2E"/>
<path d="M125.424 36.1274H117.36C117.336 36.1274 117.312 36.1176 117.294 36.1001C117.277 36.0826 117.267 36.0589 117.267 36.0342C117.267 36.0095 117.277 35.9858 117.294 35.9683C117.312 35.9509 117.336 35.941 117.36 35.941H125.424C125.449 35.941 125.473 35.9509 125.49 35.9683C125.508 35.9858 125.517 36.0095 125.517 36.0342C125.517 36.0589 125.508 36.0826 125.49 36.1001C125.473 36.1176 125.449 36.1274 125.424 36.1274Z" fill="#367CFF"/>
<path d="M109.75 34.4465H103.923C103.898 34.4465 103.874 34.4367 103.857 34.4192C103.839 34.4017 103.83 34.378 103.83 34.3533C103.83 34.3286 103.839 34.3049 103.857 34.2874C103.874 34.2699 103.898 34.2601 103.923 34.2601H109.75C109.775 34.2601 109.798 34.2699 109.816 34.2874C109.833 34.3049 109.843 34.3286 109.843 34.3533C109.843 34.378 109.833 34.4017 109.816 34.4192C109.798 34.4367 109.775 34.4465 109.75 34.4465Z" fill="#0CBC8B"/>
<path d="M119.832 34.4465H111.768C111.743 34.4465 111.72 34.4367 111.702 34.4192C111.685 34.4017 111.675 34.378 111.675 34.3533C111.675 34.3286 111.685 34.3049 111.702 34.2874C111.72 34.2699 111.743 34.2601 111.768 34.2601H119.832C119.857 34.2601 119.88 34.2699 119.898 34.2874C119.915 34.3049 119.925 34.3286 119.925 34.3533C119.925 34.378 119.915 34.4017 119.898 34.4192C119.88 34.4367 119.857 34.4465 119.832 34.4465Z" fill="#367CFF"/>
<path d="M129.768 34.4465H122.077C122.052 34.4465 122.028 34.4367 122.011 34.4192C121.993 34.4017 121.983 34.378 121.983 34.3533C121.983 34.3286 121.993 34.3049 122.011 34.2874C122.028 34.2699 122.052 34.2601 122.077 34.2601H129.768C129.793 34.2601 129.816 34.2699 129.834 34.2874C129.851 34.3049 129.861 34.3286 129.861 34.3533C129.861 34.378 129.851 34.4017 129.834 34.4192C129.816 34.4367 129.793 34.4465 129.768 34.4465H129.768Z" fill="#292A2E"/>
<path d="M120.934 39.4895H103.923C103.898 39.4895 103.874 39.4796 103.857 39.4622C103.839 39.4447 103.83 39.421 103.83 39.3963C103.83 39.3716 103.839 39.3479 103.857 39.3304C103.874 39.3129 103.898 39.3031 103.923 39.3031H120.934C120.959 39.3031 120.983 39.3129 121 39.3304C121.018 39.3479 121.028 39.3716 121.028 39.3963C121.028 39.421 121.018 39.4447 121 39.4622C120.983 39.4796 120.959 39.4895 120.934 39.4895Z" fill="#367CFF"/>
<path d="M125.424 39.4895H122.953C122.928 39.4895 122.904 39.4796 122.887 39.4622C122.869 39.4447 122.859 39.421 122.859 39.3963C122.859 39.3716 122.869 39.3479 122.887 39.3304C122.904 39.3129 122.928 39.3031 122.953 39.3031H125.424C125.449 39.3031 125.473 39.3129 125.49 39.3304C125.508 39.3479 125.518 39.3716 125.518 39.3963C125.518 39.421 125.508 39.4447 125.49 39.4622C125.473 39.4796 125.449 39.4895 125.424 39.4895Z" fill="#292A2E"/>
<path d="M106.022 37.8085H103.923C103.898 37.8085 103.874 37.7987 103.857 37.7813C103.839 37.7638 103.83 37.7401 103.83 37.7154C103.83 37.6907 103.839 37.667 103.857 37.6495C103.874 37.632 103.898 37.6222 103.923 37.6222H106.022C106.047 37.6222 106.07 37.632 106.088 37.6495C106.105 37.667 106.115 37.6907 106.115 37.7154C106.115 37.7401 106.105 37.7638 106.088 37.7813C106.07 37.7987 106.047 37.8085 106.022 37.8085Z" fill="#367CFF"/>
<path d="M119.832 37.8085H108.04C108.015 37.8085 107.992 37.7987 107.974 37.7813C107.957 37.7638 107.947 37.7401 107.947 37.7154C107.947 37.6907 107.957 37.667 107.974 37.6495C107.992 37.632 108.015 37.6222 108.04 37.6222H119.832C119.857 37.6222 119.88 37.632 119.898 37.6495C119.915 37.667 119.925 37.6907 119.925 37.7154C119.925 37.7401 119.915 37.7638 119.898 37.7813C119.88 37.7987 119.857 37.8085 119.832 37.8085Z" fill="#292A2E"/>
<path d="M129.768 37.8085H122.077C122.052 37.8085 122.028 37.7987 122.011 37.7813C121.993 37.7638 121.983 37.7401 121.983 37.7154C121.983 37.6907 121.993 37.667 122.011 37.6495C122.028 37.632 122.052 37.6222 122.077 37.6222H129.768C129.793 37.6222 129.816 37.632 129.834 37.6495C129.851 37.667 129.861 37.6907 129.861 37.7154C129.861 37.7401 129.851 37.7638 129.834 37.7813C129.816 37.7987 129.793 37.8085 129.768 37.8085H129.768Z" fill="#0CBC8B"/>
<path d="M115.342 41.1704H103.923C103.898 41.1704 103.874 41.1605 103.857 41.1431C103.839 41.1256 103.83 41.1019 103.83 41.0772C103.83 41.0525 103.839 41.0288 103.857 41.0113C103.874 40.9938 103.898 40.984 103.923 40.984H115.342C115.367 40.984 115.391 40.9938 115.408 41.0113C115.426 41.0288 115.435 41.0525 115.435 41.0772C115.435 41.1019 115.426 41.1256 115.408 41.1431C115.391 41.1605 115.367 41.1704 115.342 41.1704Z" fill="#0CBC8B"/>
<path d="M121.696 41.1704H117.36C117.336 41.1704 117.312 41.1605 117.294 41.1431C117.277 41.1256 117.267 41.1019 117.267 41.0772C117.267 41.0525 117.277 41.0288 117.294 41.0113C117.312 40.9938 117.336 40.984 117.36 40.984H121.696C121.721 40.984 121.745 40.9938 121.762 41.0113C121.779 41.0288 121.789 41.0525 121.789 41.0772C121.789 41.1019 121.779 41.1256 121.762 41.1431C121.745 41.1605 121.721 41.1704 121.696 41.1704Z" fill="#292A2E"/>
<path d="M129.752 41.1704H123.552C123.527 41.1704 123.504 41.1605 123.486 41.1431C123.469 41.1256 123.459 41.1019 123.459 41.0772C123.459 41.0525 123.469 41.0288 123.486 41.0113C123.504 40.9938 123.527 40.984 123.552 40.984H129.752C129.777 40.984 129.8 40.9938 129.818 41.0113C129.835 41.0288 129.845 41.0525 129.845 41.0772C129.845 41.1019 129.835 41.1256 129.818 41.1431C129.8 41.1605 129.777 41.1704 129.752 41.1704Z" fill="#367CFF"/>
<path d="M97.9335 42.9689C97.9088 42.9689 97.8851 42.9591 97.8676 42.9417C97.8502 42.9242 97.8403 42.9005 97.8403 42.8758V16.3841C97.8403 16.3594 97.8502 16.3357 97.8676 16.3182C97.8851 16.3007 97.9088 16.2909 97.9335 16.2909C97.9583 16.2909 97.982 16.3007 97.9994 16.3182C98.0169 16.3357 98.0267 16.3594 98.0267 16.3841V42.8758C98.0267 42.9005 98.0169 42.9242 97.9994 42.9417C97.982 42.9591 97.9583 42.9689 97.9335 42.9689Z" fill="#292A2E"/>
<path d="M129.148 14.6133C129.974 14.6133 130.644 13.944 130.644 13.1183C130.644 12.2927 129.974 11.6234 129.148 11.6234C128.322 11.6234 127.653 12.2927 127.653 13.1183C127.653 13.944 128.322 14.6133 129.148 14.6133Z" fill="white"/>
<path d="M93.6708 17.548H89.6347C89.61 17.548 89.5863 17.5382 89.5688 17.5208C89.5513 17.5033 89.5415 17.4796 89.5415 17.4549C89.5415 17.4302 89.5513 17.4065 89.5688 17.389C89.5863 17.3715 89.61 17.3617 89.6347 17.3617H93.6708C93.6955 17.3617 93.7192 17.3715 93.7367 17.389C93.7541 17.4065 93.764 17.4302 93.764 17.4549C93.764 17.4796 93.7541 17.5033 93.7367 17.5208C93.7192 17.5382 93.6955 17.548 93.6708 17.548Z" fill="#292A2E"/>
<path d="M92.4548 19.3858H89.6347C89.61 19.3858 89.5863 19.376 89.5688 19.3585C89.5513 19.3411 89.5415 19.3174 89.5415 19.2926C89.5415 19.2679 89.5513 19.2442 89.5688 19.2268C89.5863 19.2093 89.61 19.1995 89.6347 19.1995H92.4548C92.4796 19.1995 92.5033 19.2093 92.5207 19.2268C92.5382 19.2442 92.548 19.2679 92.548 19.2926C92.548 19.3174 92.5382 19.3411 92.5207 19.3585C92.5033 19.376 92.4796 19.3858 92.4548 19.3858Z" fill="#292A2E"/>
<path d="M94.935 21.2237H89.6347C89.61 21.2237 89.5863 21.2139 89.5688 21.1964C89.5513 21.1789 89.5415 21.1552 89.5415 21.1305C89.5415 21.1058 89.5513 21.0821 89.5688 21.0646C89.5863 21.0472 89.61 21.0374 89.6347 21.0374H94.935C94.9597 21.0374 94.9834 21.0472 95.0009 21.0646C95.0183 21.0821 95.0282 21.1058 95.0282 21.1305C95.0282 21.1552 95.0183 21.1789 95.0009 21.1964C94.9834 21.2139 94.9597 21.2237 94.935 21.2237Z" fill="#292A2E"/>
<path d="M95.9242 23.0615H91.499C91.4742 23.0615 91.4505 23.0517 91.4331 23.0342C91.4156 23.0167 91.4058 22.993 91.4058 22.9683C91.4058 22.9436 91.4156 22.9199 91.4331 22.9024C91.4505 22.8849 91.4742 22.8751 91.499 22.8751H95.9242C95.9489 22.8751 95.9726 22.8849 95.9901 22.9024C96.0076 22.9199 96.0174 22.9436 96.0174 22.9683C96.0174 22.993 96.0076 23.0167 95.9901 23.0342C95.9726 23.0517 95.9489 23.0615 95.9242 23.0615Z" fill="#292A2E"/>
<path d="M93.7843 24.8995H91.499C91.4742 24.8995 91.4505 24.8897 91.4331 24.8722C91.4156 24.8547 91.4058 24.831 91.4058 24.8063C91.4058 24.7816 91.4156 24.7579 91.4331 24.7404C91.4505 24.723 91.4742 24.7131 91.499 24.7131H93.7843C93.809 24.7131 93.8327 24.723 93.8502 24.7404C93.8677 24.7579 93.8775 24.7816 93.8775 24.8063C93.8775 24.831 93.8677 24.8547 93.8502 24.8722C93.8327 24.8897 93.809 24.8995 93.7843 24.8995Z" fill="#292A2E"/>
<path d="M95.535 26.7373H91.499C91.4742 26.7373 91.4505 26.7274 91.4331 26.71C91.4156 26.6925 91.4058 26.6688 91.4058 26.6441C91.4058 26.6194 91.4156 26.5957 91.4331 26.5782C91.4505 26.5607 91.4742 26.5509 91.499 26.5509H95.535C95.5597 26.5509 95.5834 26.5607 95.6009 26.5782C95.6184 26.5957 95.6282 26.6194 95.6282 26.6441C95.6282 26.6688 95.6184 26.6925 95.6009 26.71C95.5834 26.7274 95.5597 26.7373 95.535 26.7373Z" fill="#292A2E"/>
<path d="M92.7467 28.5751H89.6347C89.61 28.5751 89.5863 28.5653 89.5688 28.5479C89.5513 28.5304 89.5415 28.5067 89.5415 28.482C89.5415 28.4573 89.5513 28.4336 89.5688 28.4161C89.5863 28.3986 89.61 28.3888 89.6347 28.3888H92.7467C92.7715 28.3888 92.7952 28.3986 92.8126 28.4161C92.8301 28.4336 92.8399 28.4573 92.8399 28.482C92.8399 28.5067 92.8301 28.5304 92.8126 28.5479C92.7952 28.5653 92.7715 28.5751 92.7467 28.5751Z" fill="#292A2E"/>
<path d="M91.677 30.4127H89.6347C89.61 30.4127 89.5863 30.4029 89.5688 30.3854C89.5513 30.3679 89.5415 30.3442 89.5415 30.3195C89.5415 30.2948 89.5513 30.2711 89.5688 30.2536C89.5863 30.2361 89.61 30.2263 89.6347 30.2263H91.677C91.7017 30.2263 91.7254 30.2361 91.7429 30.2536C91.7603 30.2711 91.7702 30.2948 91.7702 30.3195C91.7702 30.3442 91.7603 30.3679 91.7429 30.3854C91.7254 30.4029 91.7017 30.4127 91.677 30.4127Z" fill="#292A2E"/>
<path d="M99.4861 17.1537V17.1873L100.651 17.6196C100.668 17.6264 100.682 17.638 100.692 17.653C100.702 17.6679 100.707 17.6855 100.707 17.7035V17.7352C100.707 17.7492 100.704 17.763 100.698 17.7754C100.691 17.7878 100.681 17.7983 100.67 17.806C100.658 17.8143 100.644 17.8195 100.63 17.8211C100.616 17.8228 100.601 17.8208 100.588 17.8153L99.2717 17.301C99.2553 17.2944 99.2412 17.2831 99.2313 17.2685C99.2213 17.2539 99.2159 17.2366 99.2158 17.219V17.1239C99.2157 17.1062 99.221 17.0888 99.231 17.0742C99.2409 17.0595 99.2552 17.0483 99.2717 17.0419L100.588 16.5257C100.598 16.5221 100.61 16.5202 100.621 16.5201C100.638 16.5205 100.655 16.5257 100.67 16.5351C100.682 16.5431 100.691 16.554 100.698 16.5667C100.704 16.5794 100.707 16.5935 100.707 16.6077V16.6394C100.707 16.6572 100.702 16.6747 100.692 16.6894C100.682 16.7041 100.668 16.7153 100.651 16.7214L99.4861 17.1537Z" fill="#367CFF"/>
<path d="M101.795 16.1455L101.098 18.2793C101.093 18.2971 101.081 18.3126 101.066 18.3237C101.051 18.3347 101.033 18.3407 101.014 18.3408C101.001 18.341 100.987 18.3379 100.975 18.3317C100.963 18.3255 100.953 18.3165 100.945 18.3054C100.937 18.2943 100.931 18.2815 100.929 18.268C100.926 18.2544 100.927 18.2404 100.931 18.2271L101.628 16.0952C101.634 16.0771 101.645 16.0612 101.66 16.0499C101.676 16.0385 101.694 16.0322 101.713 16.0319C101.727 16.0318 101.74 16.035 101.752 16.0412C101.764 16.0473 101.775 16.0563 101.782 16.0673C101.791 16.0783 101.796 16.0912 101.798 16.1048C101.801 16.1184 101.8 16.1324 101.795 16.1455Z" fill="#367CFF"/>
<path d="M103.507 17.1239V17.219C103.508 17.2365 103.503 17.2537 103.493 17.2683C103.483 17.2829 103.47 17.2943 103.453 17.301L102.135 17.8153C102.122 17.8207 102.108 17.8227 102.094 17.8211C102.08 17.8194 102.067 17.8142 102.055 17.806C102.043 17.7984 102.034 17.7879 102.027 17.7756C102.02 17.7632 102.016 17.7493 102.016 17.7352V17.7035C102.016 17.6853 102.021 17.6674 102.032 17.6524C102.042 17.6374 102.057 17.626 102.074 17.6196L103.239 17.1873V17.1537L102.074 16.7214C102.057 16.7157 102.042 16.7047 102.032 16.6899C102.021 16.6752 102.016 16.6575 102.016 16.6394V16.6077C102.016 16.5933 102.02 16.5792 102.027 16.5665C102.033 16.5538 102.043 16.543 102.055 16.5351C102.07 16.5257 102.087 16.5205 102.104 16.5201C102.115 16.52 102.125 16.5219 102.135 16.5257L103.453 17.0419C103.47 17.0484 103.484 17.0597 103.493 17.0744C103.503 17.0891 103.508 17.1064 103.507 17.1239Z" fill="#367CFF"/>
<path d="M77.1531 0H11.4966V65.638H77.1531V0Z" fill="#F4F4F4"/>
<path d="M11.4967 0H10.7441V65.638H11.4967V0Z" fill="#F4F4F4"/>
<path opacity="0.05" d="M11.4967 0H10.7441V65.638H11.4967V0Z" fill="#292A2E"/>
<path opacity="0.05" d="M27.4019 45.23V28.0569H41.4733V38.0342H63.2696V55.6999H72.5334V65.6381H63.2696H61.485H14.6548V45.23H27.4019Z" fill="#292A2E"/>
<path opacity="0.34" d="M39.6673 29.9215H29.4204V31.7862H39.6673V29.9215Z" fill="#FFFFFA"/>
<path opacity="0.34" d="M39.6673 33.7854H29.4204V35.65H39.6673V33.7854Z" fill="#FFFFFA"/>
<path opacity="0.34" d="M39.6673 37.6492H29.4204V39.5138H39.6673V37.6492Z" fill="#FFFFFA"/>
<path opacity="0.34" d="M18.3603 47.0399H16.4717V48.9046H18.3603V47.0399Z" fill="#FFFFFA"/>
<path opacity="0.34" d="M18.3603 50.9038H16.4717V52.7685H18.3603V50.9038Z" fill="#FFFFFA"/>
<path opacity="0.34" d="M18.3603 54.7678H16.4717V56.6325H18.3603V54.7678Z" fill="#FFFFFA"/>
<path opacity="0.34" d="M21.8545 47.0399H19.9658V48.9046H21.8545V47.0399Z" fill="#FFFFFA"/>
<path opacity="0.34" d="M21.8545 50.9038H19.9658V52.7685H21.8545V50.9038Z" fill="#FFFFFA"/>
<path opacity="0.34" d="M21.8545 54.7678H19.9658V56.6325H21.8545V54.7678Z" fill="#FFFFFA"/>
<path opacity="0.34" d="M25.2539 47.0399H23.3652V48.9046H25.2539V47.0399Z" fill="#FFFFFA"/>
<path opacity="0.34" d="M25.2539 50.9038H23.3652V52.7685H25.2539V50.9038Z" fill="#FFFFFA"/>
<path opacity="0.34" d="M25.2539 54.7678H23.3652V56.6325H25.2539V54.7678Z" fill="#FFFFFA"/>
<path d="M11.4966 32.4509H24.7079V0H25.8004V32.4509H61.4852V0H62.5777V32.4509H77.1531V33.5431H62.5777V65.638H61.4852V33.5431H25.8004V65.638H24.7079V33.5431H11.4966V32.4509Z" fill="white"/>
<path d="M79.7685 65.5588H8.88086V67.7418H79.7685V65.5588Z" fill="#F4F4F4"/>
<path opacity="0.1" d="M79.7685 65.5588H8.88086V67.7418H79.7685V65.5588Z" fill="#292A2E"/>
<path opacity="0.1" d="M8.88097 65.5588H7.85742V67.7418H8.88097V65.5588Z" fill="#292A2E"/>
<path opacity="0.1" d="M8.88097 65.5588H7.85742V67.7418H8.88097V65.5588Z" fill="#292A2E"/>
<path d="M10.7443 2.79456L77.1533 2.79456V1.17161L10.7443 1.17161V2.79456Z" fill="white"/>
<path d="M10.7443 5.82617L77.1533 5.82617V4.20323L10.7443 4.20323V5.82617Z" fill="white"/>
<path d="M10.7443 8.85754L77.1533 8.85754V7.2346L10.7443 7.2346V8.85754Z" fill="white"/>
<path d="M10.7443 11.8889L77.1533 11.8889V10.266L10.7443 10.266V11.8889Z" fill="white"/>
<path d="M10.7443 14.9202L77.1533 14.9202V13.2972L10.7443 13.2972V14.9202Z" fill="white"/>
<path d="M17.7973 16.7507H18.7925L18.7925 6.10352e-05H17.7973L17.7973 16.7507Z" fill="white"/>
<path d="M18.2105 19.1563C18.9657 19.1563 19.5778 18.5443 19.5778 17.7894C19.5778 17.0345 18.9657 16.4225 18.2105 16.4225C17.4554 16.4225 16.8433 17.0345 16.8433 17.7894C16.8433 18.5443 17.4554 19.1563 18.2105 19.1563Z" fill="white"/>
<path d="M11.3236 156.875L10.9575 156.804L16.6794 99.9608L17.0455 100.031L11.3236 156.875Z" fill="#494949"/>
<path d="M32.6293 156.875L32.2632 156.804L37.9849 99.9608L38.351 100.031L32.6293 156.875Z" fill="#494949"/>
<path d="M79.7243 156.875L80.0904 156.804L74.3685 99.9608L74.0024 100.031L79.7243 156.875Z" fill="#494949"/>
<path d="M58.4185 156.875L58.7846 156.804L53.0629 99.9608L52.6968 100.031L58.4185 156.875Z" fill="#494949"/>
<path d="M50.8305 74.944L50.4609 74.9933L53.8035 100.021L54.1731 99.9719L50.8305 74.944Z" fill="#494949"/>
<path d="M12.4638 74.9436L12.0942 74.9929L15.4368 100.021L15.8064 99.9715L12.4638 74.9436Z" fill="#494949"/>
<path d="M54.1406 98.1633H16.6136C15.6011 98.1633 14.7803 98.9839 14.7803 99.9961V99.9963C14.7803 101.009 15.6011 101.829 16.6136 101.829H54.1406C55.1531 101.829 55.9739 101.009 55.9739 99.9963V99.9961C55.9739 98.9839 55.1531 98.1633 54.1406 98.1633Z" fill="#292A2E"/>
<path opacity="0.8" d="M54.1406 98.1633H16.6136C15.6011 98.1633 14.7803 98.9839 14.7803 99.9961V99.9963C14.7803 101.009 15.6011 101.829 16.6136 101.829H54.1406C55.1531 101.829 55.9739 101.009 55.9739 99.9963V99.9961C55.9739 98.9839 55.1531 98.1633 54.1406 98.1633Z" fill="white"/>
<path d="M54.1408 102.015H16.6139C16.3487 102.015 16.0861 101.963 15.841 101.861C15.596 101.76 15.3733 101.611 15.1858 101.424C14.9982 101.236 14.8495 101.014 14.748 100.769C14.6465 100.524 14.5942 100.261 14.5942 99.9961C14.5942 99.7309 14.6465 99.4683 14.748 99.2234C14.8495 98.9784 14.9982 98.7558 15.1858 98.5683C15.3733 98.3808 15.596 98.2321 15.841 98.1306C16.0861 98.0292 16.3487 97.9769 16.6139 97.9769H54.1408C54.4061 97.9769 54.6687 98.0292 54.9137 98.1306C55.1588 98.2321 55.3814 98.3808 55.569 98.5683C55.7565 98.7558 55.9053 98.9784 56.0068 99.2234C56.1083 99.4683 56.1605 99.7309 56.1605 99.9961C56.1605 100.261 56.1083 100.524 56.0068 100.769C55.9053 101.014 55.7565 101.236 55.569 101.424C55.3814 101.611 55.1588 101.76 54.9137 101.861C54.6687 101.963 54.4061 102.015 54.1408 102.015ZM16.6139 98.3496C16.3977 98.3496 16.1835 98.3922 15.9837 98.475C15.7839 98.5577 15.6023 98.679 15.4494 98.8319C15.2965 98.9847 15.1752 99.1662 15.0924 99.366C15.0096 99.5658 14.967 99.7799 14.967 99.9961C14.967 100.212 15.0096 100.426 15.0924 100.626C15.1752 100.826 15.2965 101.007 15.4494 101.16C15.6023 101.313 15.7839 101.434 15.9837 101.517C16.1835 101.6 16.3977 101.642 16.6139 101.642H54.1408C54.3571 101.642 54.5713 101.6 54.7711 101.517C54.9709 101.434 55.1524 101.313 55.3054 101.16C55.4583 101.007 55.5796 100.826 55.6624 100.626C55.7451 100.426 55.7877 100.212 55.7877 99.9961C55.7877 99.7799 55.7451 99.5658 55.6624 99.366C55.5796 99.1662 55.4583 98.9847 55.3054 98.8319C55.1524 98.679 54.9709 98.5577 54.7711 98.475C54.5713 98.3922 54.3571 98.3496 54.1408 98.3496H16.6139Z" fill="#292A2E"/>
<path d="M74.7378 98.1633H37.2107C36.1982 98.1633 35.3774 98.9839 35.3774 99.9961V99.9963C35.3774 101.009 36.1982 101.829 37.2107 101.829H74.7378C75.7503 101.829 76.5711 101.009 76.5711 99.9963V99.9961C76.5711 98.9839 75.7503 98.1633 74.7378 98.1633Z" fill="white"/>
<path d="M74.7377 102.015H37.2106C36.9454 102.015 36.6828 101.963 36.4377 101.861C36.1927 101.76 35.97 101.611 35.7825 101.424C35.5949 101.236 35.4462 101.014 35.3447 100.769C35.2432 100.524 35.1909 100.261 35.1909 99.9961C35.1909 99.7309 35.2432 99.4683 35.3447 99.2234C35.4462 98.9784 35.5949 98.7558 35.7825 98.5683C35.97 98.3808 36.1927 98.2321 36.4377 98.1306C36.6828 98.0292 36.9454 97.9769 37.2106 97.9769H74.7377C75.0029 97.9769 75.2656 98.0292 75.5106 98.1306C75.7556 98.2321 75.9783 98.3808 76.1658 98.5683C76.3534 98.7558 76.5021 98.9784 76.6036 99.2234C76.7051 99.4683 76.7574 99.7309 76.7574 99.9961C76.7574 100.261 76.7051 100.524 76.6036 100.769C76.5021 101.014 76.3534 101.236 76.1658 101.424C75.9783 101.611 75.7556 101.76 75.5106 101.861C75.2656 101.963 75.0029 102.015 74.7377 102.015ZM37.2106 98.3496C36.9943 98.3496 36.7802 98.3922 36.5804 98.475C36.3806 98.5577 36.199 98.679 36.0461 98.8319C35.8932 98.9847 35.7719 99.1662 35.6891 99.366C35.6063 99.5658 35.5637 99.7799 35.5637 99.9961C35.5637 100.212 35.6063 100.426 35.6891 100.626C35.7719 100.826 35.8932 101.007 36.0461 101.16C36.199 101.313 36.3806 101.434 36.5804 101.517C36.7802 101.6 36.9943 101.642 37.2106 101.642H74.7377C74.954 101.642 75.1681 101.6 75.3679 101.517C75.5677 101.434 75.7493 101.313 75.9022 101.16C76.0551 101.007 76.1765 100.826 76.2592 100.626C76.342 100.426 76.3846 100.212 76.3846 99.9961C76.3846 99.7799 76.342 99.5658 76.2592 99.366C76.1765 99.1662 76.0551 98.9847 75.9022 98.8319C75.7493 98.679 75.5677 98.5577 75.3679 98.475C75.1681 98.3922 74.954 98.3496 74.7377 98.3496H37.2106Z" fill="#292A2E"/>
<path d="M48.7747 74.9681H12.3797C11.7846 74.9681 11.2099 74.7516 10.7628 74.359C10.3157 73.9665 10.0268 73.4247 9.9499 72.8348L7.54248 54.3525C7.49748 54.007 7.52674 53.6559 7.62828 53.3226C7.72982 52.9893 7.90132 52.6814 8.13132 52.4197C8.36133 52.1579 8.64455 51.9482 8.96207 51.8045C9.2796 51.6609 9.62412 51.5866 9.97264 51.5867H46.3673C46.9623 51.5867 47.5371 51.8031 47.9842 52.1957C48.4313 52.5882 48.7202 53.13 48.7971 53.7198L51.2043 72.2023C51.2494 72.5478 51.2201 72.8989 51.1186 73.2321C51.0171 73.5654 50.8457 73.8732 50.6157 74.135C50.3858 74.3968 50.1026 74.6065 49.7852 74.7502C49.4677 74.8938 49.1232 74.9681 48.7747 74.9681Z" fill="#292A2E"/>
<path opacity="0.8" d="M48.7747 74.9681H12.3797C11.7846 74.9681 11.2099 74.7516 10.7628 74.359C10.3157 73.9665 10.0268 73.4247 9.9499 72.8348L7.54248 54.3525C7.49748 54.007 7.52674 53.6559 7.62828 53.3226C7.72982 52.9893 7.90132 52.6814 8.13132 52.4197C8.36133 52.1579 8.64455 51.9482 8.96207 51.8045C9.2796 51.6609 9.62412 51.5866 9.97264 51.5867H46.3673C46.9623 51.5867 47.5371 51.8031 47.9842 52.1957C48.4313 52.5882 48.7202 53.13 48.7971 53.7198L51.2043 72.2023C51.2494 72.5478 51.2201 72.8989 51.1186 73.2321C51.0171 73.5654 50.8457 73.8732 50.6157 74.135C50.3858 74.3968 50.1026 74.6065 49.7852 74.7502C49.4677 74.8938 49.1232 74.9681 48.7747 74.9681Z" fill="white"/>
<path d="M48.7745 75.1545H12.3795C11.7396 75.1531 11.1219 74.9196 10.641 74.4974C10.1602 74.0753 9.84886 73.4931 9.7648 72.8588L7.35756 54.3766C7.30909 54.0048 7.34052 53.6269 7.44976 53.2682C7.55899 52.9095 7.74352 52.5783 7.99101 52.2966C8.23851 52.0149 8.54328 51.7892 8.88497 51.6346C9.22666 51.48 9.5974 51.4001 9.97245 51.4001H46.3671C47.0071 51.4016 47.6247 51.635 48.1056 52.0572C48.5864 52.4794 48.8977 53.0616 48.9816 53.6958L51.3891 72.1783C51.4375 72.55 51.4061 72.9278 51.2968 73.2865C51.1876 73.6451 51.0031 73.9763 50.7557 74.258C50.5082 74.5397 50.2035 74.7654 49.8619 74.92C49.5202 75.0746 49.1495 75.1545 48.7745 75.1545ZM9.97245 51.7729C9.65048 51.7729 9.33221 51.8415 9.03889 51.9743C8.74557 52.107 8.48395 52.3008 8.27148 52.5426C8.05902 52.7845 7.90061 53.0689 7.80681 53.3768C7.71302 53.6847 7.68601 54.0091 7.72758 54.3283L10.135 72.8108C10.2071 73.3553 10.4744 73.8552 10.8872 74.2177C11.3001 74.5802 11.8304 74.7806 12.3799 74.7818H48.7745C49.0965 74.7817 49.4147 74.713 49.7079 74.5802C50.0012 74.4474 50.2627 74.2537 50.4751 74.0118C50.6875 73.77 50.8459 73.4856 50.9397 73.1777C51.0334 72.8698 51.0604 72.5455 51.0189 72.2264L48.612 53.7441C48.5398 53.1996 48.2726 52.6997 47.8597 52.3372C47.4469 51.9747 46.9166 51.7743 46.3671 51.773L9.97245 51.7729Z" fill="#292A2E"/>
<path d="M50.8324 74.9681H14.4374C13.8423 74.9681 13.2677 74.7516 12.8206 74.359C12.3735 73.9665 12.0846 73.4247 12.0078 72.8348L9.59961 54.3525C9.55462 54.007 9.58386 53.6559 9.68538 53.3227C9.7869 52.9894 9.95837 52.6816 10.1883 52.4198C10.4183 52.158 10.7015 51.9483 11.0189 51.8047C11.3364 51.661 11.6809 51.5867 12.0294 51.5867H48.4252C49.0202 51.5867 49.5949 51.8031 50.042 52.1957C50.4891 52.5882 50.778 53.13 50.8548 53.7198L53.2622 72.2023C53.3072 72.5478 53.278 72.8989 53.1764 73.2322C53.0749 73.5654 52.9035 73.8732 52.6735 74.135C52.4435 74.3968 52.1604 74.6065 51.8429 74.7502C51.5254 74.8938 51.1809 74.9681 50.8324 74.9681Z" fill="white"/>
<path d="M50.8326 75.1545H14.4376C13.7976 75.1531 13.18 74.9196 12.6992 74.4974C12.2184 74.0752 11.9071 73.493 11.823 72.8588L9.41562 54.3766C9.36721 54.0048 9.39868 53.627 9.50793 53.2683C9.61718 52.9097 9.80169 52.5785 10.0492 52.2968C10.2966 52.0151 10.6013 51.7894 10.943 51.6348C11.2846 51.4802 11.6553 51.4002 12.0303 51.4001H48.4252C49.0651 51.4016 49.6828 51.6351 50.1636 52.0572C50.6445 52.4794 50.9558 53.0616 51.0399 53.6958L53.4473 72.1783C53.4957 72.55 53.4642 72.9278 53.3549 73.2865C53.2457 73.6451 53.0611 73.9763 52.8137 74.258C52.5662 74.5396 52.2615 74.7653 51.9199 74.9199C51.5783 75.0745 51.2076 75.1545 50.8326 75.1545ZM12.0303 51.7729C11.7084 51.773 11.3902 51.8418 11.097 51.9746C10.8037 52.1074 10.5422 52.3012 10.3298 52.5431C10.1175 52.7849 9.95912 53.0693 9.86537 53.3771C9.77163 53.685 9.74463 54.0094 9.78619 54.3285L12.1927 72.8108C12.2649 73.3553 12.5322 73.8551 12.945 74.2176C13.3578 74.5801 13.8881 74.7805 14.4376 74.7818H50.8326C51.1546 74.7818 51.4728 74.7131 51.7662 74.5804C52.0595 74.4476 52.3211 74.2539 52.5336 74.012C52.746 73.7702 52.9044 73.4858 52.9982 73.1779C53.092 72.8699 53.119 72.5455 53.0775 72.2264L50.6701 53.7441C50.5979 53.1995 50.3307 52.6996 49.9178 52.3372C49.505 51.9747 48.9746 51.7742 48.4252 51.773L12.0303 51.7729Z" fill="#292A2E"/>
<path d="M79.1239 79.1881L78.7529 79.2256L86.6113 157L86.9822 156.962L79.1239 79.1881Z" fill="#494949"/>
<path d="M46.9102 23.2126C46.9102 23.2126 49.3286 21.3877 49.9279 17.1869C50.3919 13.9345 47.3908 16.0416 47.3908 16.0416C47.3908 16.0416 47.7021 13.6963 45.9927 13.9291C44.2834 14.1618 43.3271 16.6254 43.3271 16.6254" fill="black"/>
<path d="M37.1594 14.2036C37.1594 14.2036 28.6789 15.1132 31.7447 26.6007L32.4952 26.651L34.0185 26.7532" fill="black"/>
<path d="M45.4899 38.5985C45.4526 38.5936 45.0388 45.4562 37.0633 44.8586C31.542 44.4451 29.5733 38.5888 29.4468 38.5888C30.0422 38.4624 30.7777 38.2703 31.0702 38.2045C31.7074 38.0566 32.2844 37.7183 32.7245 37.2346C33.1647 36.7508 33.447 36.1446 33.5341 35.4964C33.6957 34.5237 33.4222 29.5466 33.5059 28.5623L41.9812 30.4534C41.8629 32.5323 41.0339 37.3516 43.9385 38.2045C44.4226 38.3456 44.9432 38.4753 45.4899 38.5985Z" fill="#E98862"/>
<path opacity="0.52" d="M42.1005 36.2349C41.9677 35.8072 41.8822 35.3662 41.8455 34.9199C41.7525 33.9013 41.7712 32.8757 41.9014 31.8612C40.1788 31.6289 38.5559 30.9181 37.2172 29.8097C37.0599 30.3907 36.1944 32.9296 36.4343 33.4818C36.8864 34.5257 39.0145 36.2349 42.1005 36.2349Z" fill="black"/>
<path d="M40.351 34.8766C37.0073 34.5768 33.0054 32.4648 32.9478 27.9273L32.8956 23.8332C32.838 19.2958 35.1749 15.5872 39.4485 15.5328C43.7218 15.4786 46.9628 19.1162 47.0204 23.6537L47.0435 25.4662C47.0406 26.0886 46.9952 26.7102 46.9076 27.3265C46.6884 28.9571 46.3484 31.4362 45.2417 33.1131C44.1964 34.6964 42.487 35.068 40.351 34.8766Z" fill="#E98862"/>
<path d="M41.9025 30.7294C42.5925 30.7607 43.2802 30.6294 43.9101 30.3461C43.9232 30.3406 43.935 30.3325 43.9449 30.3224C43.9548 30.3123 43.9626 30.3003 43.9679 30.2872C43.9731 30.274 43.9758 30.26 43.9756 30.2458C43.9755 30.2317 43.9725 30.2177 43.967 30.2047C43.9614 30.1917 43.9534 30.1799 43.9432 30.17C43.9331 30.1601 43.9212 30.1522 43.908 30.147C43.8949 30.1417 43.8808 30.139 43.8667 30.1392C43.8525 30.1393 43.8385 30.1423 43.8255 30.1478C42.4685 30.7265 41.2361 30.6417 40.262 29.9028C40.2424 29.8872 40.2219 29.8727 40.2007 29.8594C40.1762 29.848 40.1483 29.8463 40.1226 29.8544C40.0969 29.8626 40.0752 29.8801 40.0617 29.9035C40.0483 29.9269 40.0441 29.9544 40.05 29.9808C40.0558 30.0071 40.0714 30.0303 40.0935 30.0457C40.1013 30.0506 40.1138 30.0604 40.1308 30.074C40.6429 30.4639 41.2599 30.6921 41.9025 30.7294Z" fill="black"/>
<path d="M41.8703 31.7513C41.995 31.7589 42.1201 31.756 42.2443 31.7423C42.2727 31.7393 42.2988 31.7251 42.3167 31.7029C42.3347 31.6807 42.3431 31.6522 42.3401 31.6238C42.3371 31.5954 42.3229 31.5693 42.3006 31.5514C42.2784 31.5334 42.25 31.525 42.2215 31.528C41.4746 31.6074 41.1182 31.2653 41.1031 31.2505C41.0829 31.2303 41.0555 31.2189 41.0269 31.2189C40.9983 31.2188 40.9709 31.2302 40.9506 31.2503C40.9304 31.2705 40.919 31.2979 40.9189 31.3265C40.9189 31.3551 40.9302 31.3825 40.9504 31.4028C41.2076 31.6217 41.5326 31.7448 41.8703 31.7513Z" fill="black"/>
<path d="M45.6098 26.3393C45.9007 26.3393 46.1365 26.1036 46.1365 25.8127C46.1365 25.5219 45.9007 25.2861 45.6098 25.2861C45.3188 25.2861 45.083 25.5219 45.083 25.8127C45.083 26.1036 45.3188 26.3393 45.6098 26.3393Z" fill="black"/>
<path d="M40.4672 26.0168C40.7581 26.0168 40.9939 25.781 40.9939 25.4902C40.9939 25.1994 40.7581 24.9636 40.4672 24.9636C40.1763 24.9636 39.9404 25.1994 39.9404 25.4902C39.9404 25.781 40.1763 26.0168 40.4672 26.0168Z" fill="black"/>
<path d="M33.2309 29.3063C31.9322 29.3229 30.8619 27.9473 30.8449 26.649C30.828 25.3506 31.872 24.6213 33.1707 24.6049L33.8509 25.4662L34.3471 29.2922L33.2309 29.3063Z" fill="#E98862"/>
<path d="M34.5219 27.2202C34.5219 27.2202 34.9605 20.7997 36.9079 20.4032C38.2049 20.1391 41.3501 21.9784 44.2633 21.4229C45.5379 21.1807 46.7479 21.4952 46.8709 22.0971C46.9195 22.3355 47.7136 18.9105 45.7178 16.312C44.1287 14.2426 38.9284 13.6583 36.5625 14.3367C30.0117 16.2155 32.9024 24.8874 32.9024 24.8874L33.1945 27.1009L34.5219 27.2202Z" fill="black"/>
<path d="M42.6864 29.2139H42.6948C43.1133 29.2097 43.8147 29.156 43.8119 28.8429C43.8091 28.5835 43.0709 25.7914 42.9865 25.4738C42.9784 25.4475 42.9605 25.4253 42.9363 25.4119C42.9122 25.3985 42.8839 25.3949 42.8572 25.402C42.8306 25.4091 42.8077 25.4262 42.7934 25.4498C42.7791 25.4733 42.7745 25.5015 42.7805 25.5284C43.1084 26.7651 43.5968 28.6689 43.5988 28.8455C43.5584 28.9201 43.1261 28.9968 42.6927 29.0013C42.6654 29.0019 42.6393 29.0129 42.6199 29.0322C42.6005 29.0514 42.5892 29.0774 42.5884 29.1047C42.5876 29.132 42.5973 29.1586 42.6156 29.179C42.6338 29.1993 42.6591 29.2119 42.6864 29.2141V29.2139Z" fill="black"/>
<path d="M44.1149 22.9587C44.5547 22.8377 45.0191 22.8377 45.4589 22.9587C45.675 23.0167 45.8811 23.1069 46.0703 23.2263C46.2574 23.3431 46.4289 23.4831 46.5809 23.643C46.61 23.6712 46.6269 23.7097 46.628 23.7502C46.6291 23.7907 46.6142 23.83 46.5867 23.8597C46.5591 23.8895 46.521 23.9072 46.4805 23.9092C46.44 23.9112 46.4004 23.8972 46.37 23.8703L46.3605 23.8621C46.2198 23.7319 46.0632 23.6199 45.8945 23.5287C45.729 23.4381 45.5507 23.373 45.3657 23.3357C45.0015 23.2593 44.6236 23.2805 44.2702 23.397L44.2553 23.4022C44.197 23.4228 44.1328 23.4194 44.077 23.3928C44.0212 23.3661 43.9783 23.3184 43.9577 23.2601C43.9371 23.2018 43.9405 23.1377 43.9671 23.0819C43.9938 23.0261 44.0415 22.9832 44.0998 22.9626L44.1149 22.9587Z" fill="black"/>
<path d="M41.0006 23.223C40.666 23.0605 40.2943 22.9892 39.9232 23.0164C39.7349 23.0286 39.5495 23.0693 39.3733 23.1371C39.1943 23.2051 39.0244 23.2953 38.8678 23.4055L38.8577 23.4122C38.8241 23.4337 38.7835 23.4415 38.7443 23.4339C38.7051 23.4263 38.6703 23.4038 38.6472 23.3712C38.6241 23.3387 38.6145 23.2984 38.6203 23.2589C38.6261 23.2194 38.6469 23.1837 38.6784 23.1591C38.8503 23.0209 39.039 22.905 39.24 22.814C39.4435 22.7211 39.6598 22.6592 39.8816 22.6303C40.3337 22.5686 40.794 22.6303 41.2139 22.8088C41.2707 22.8335 41.3154 22.8798 41.3382 22.9374C41.3609 22.9951 41.3598 23.0594 41.335 23.1163C41.3103 23.1731 41.264 23.2178 41.2064 23.2405C41.1487 23.2632 41.0843 23.2621 41.0275 23.2374L41.0146 23.2312L41.0006 23.223Z" fill="black"/>
<path d="M43.4892 18.539C44.4505 18.3382 44.9901 17.0288 44.6945 15.6144C44.3989 14.1999 43.38 13.2161 42.4188 13.4168C41.4575 13.6176 40.9179 14.927 41.2135 16.3415C41.5091 17.7559 42.528 18.7398 43.4892 18.539Z" fill="black"/>
<path d="M97.1022 147.17C97.1022 147.17 98.1017 152.349 102.952 152.638C107.803 152.927 106.751 156.79 106.751 156.79H88.2144V147.531L97.1022 147.17Z" fill="black"/>
<path d="M61.8364 143.9C61.8364 143.9 60.4463 148.988 64.6716 151.388C68.8968 153.787 66.2471 156.79 66.2471 156.79L49.6138 148.609L53.7018 140.301L61.8364 143.9Z" fill="black"/>
<path d="M51.5344 142.462L65.5612 98.2241H40.1355C35.028 98.2241 32.8989 93.8942 32.8989 88.7885C32.8989 83.6828 37.9199 79.207 43.0271 79.207H77.3424C80.4574 79.207 83.9502 81.1116 85.66 83.7149C87.3697 86.3182 86.9074 90.3522 85.6687 93.2097L63.2069 147.749" fill="#262626"/>
<path opacity="0.8" d="M51.5344 142.462L65.5612 98.2241H40.1355C35.028 98.2241 32.8989 93.8942 32.8989 88.7885C32.8989 83.6828 37.9199 79.207 43.0271 79.207H77.3424C80.4574 79.207 83.9502 81.1116 85.66 83.7149C87.3697 86.3182 86.9074 90.3522 85.6687 93.2097L63.2069 147.749" fill="#04102F"/>
<path d="M87.1481 151.98L63.6943 98.2242L32.8985 98.2221C25.6825 97.6565 22.3778 93.7031 22.4829 88.5985C22.5865 83.5586 25.1392 78.5806 30.1578 78.5806H71.665C75.3782 78.6568 78.2995 82.7591 79.677 86.207L99.175 148.689" fill="#071C54"/>
<path d="M20.3827 78.6422C20.3827 78.6422 19.015 87.5585 21.1829 92.5156C23.8893 98.7044 34.035 98.2221 34.035 98.2221L33.4633 78.5806L20.3827 78.6422Z" fill="#071C54"/>
<path d="M80.5599 78.4669L58.8064 73.9605C57.9 73.7727 57.0555 73.3594 56.3512 72.7589C55.6469 72.1583 55.1055 71.3898 54.7771 70.5246L46.2211 47.9847C45.9606 47.3082 45.8363 46.5869 45.8554 45.8623C45.8746 45.1377 46.0367 44.424 46.3325 43.7622C46.6284 43.1004 47.0521 42.5036 47.5793 42.006C48.1066 41.5084 48.727 41.1198 49.4049 40.8627C50.0828 40.6055 50.8048 40.4847 51.5296 40.5073C52.2543 40.5299 52.9674 40.6955 53.6279 40.9944C54.2885 41.2933 54.8834 41.7198 55.3786 42.2493C55.8738 42.7788 56.2595 43.4009 56.5135 44.0798L63.998 63.7959L82.7942 67.6896C82.7942 67.6896 80.9372 78.545 80.5599 78.4669Z" fill="#FAB91D"/>
<path d="M55.3996 53.7084C55.1485 56.659 53.3678 75.0663 53.1255 78.7006H20.3972C20.2091 75.4228 19.5986 61.5066 18.8855 55.097C18.2049 48.9805 17.9579 45.4901 18.7419 43.5895C20.1247 40.237 23.5849 39.0308 26.5655 38.6273C28.3854 38.3811 31.1228 38.2045 31.1228 38.2045C31.1228 38.2045 31.3547 42.8918 36.8812 43.1527C44.4043 43.5068 43.902 38.2045 43.9392 38.2045C45.158 38.2045 51.7921 39.0906 53.4509 40.1714C55.794 41.6982 56.4864 43.7786 56.5138 45.6901C56.5453 47.8911 55.6844 50.3623 55.3996 53.7084Z" fill="#FAB91D"/>
<path d="M54.1134 68.7494H54.1055C54.0933 68.7484 54.0814 68.745 54.0706 68.7394C54.0597 68.7337 54.05 68.7261 54.0421 68.7167C54.0342 68.7074 54.0282 68.6965 54.0244 68.6849C54.0207 68.6732 54.0193 68.6609 54.0203 68.6487L54.87 58.4452C54.8707 58.4329 54.8738 58.4209 54.8793 58.4098C54.8848 58.3988 54.8925 58.389 54.9019 58.381C54.9113 58.3731 54.9222 58.3671 54.934 58.3635C54.9458 58.3599 54.9582 58.3587 54.9705 58.36C54.9827 58.361 54.9945 58.3644 55.0054 58.3701C55.0163 58.3757 55.026 58.3834 55.0339 58.3927C55.0418 58.402 55.0478 58.4129 55.0515 58.4245C55.0553 58.4362 55.0567 58.4485 55.0556 58.4607L54.206 68.6642C54.204 68.6874 54.1934 68.709 54.1762 68.7248C54.1591 68.7405 54.1367 68.7493 54.1134 68.7494Z" fill="black"/>
<path d="M69.7005 74.8733L76.8816 52.8047C77.0078 52.4169 77.2535 52.0789 77.5835 51.8393C77.9136 51.5996 78.3111 51.4706 78.719 51.4706H109.84C110.145 51.4706 110.445 51.5427 110.717 51.6812C110.989 51.8196 111.224 52.0204 111.403 52.2671C111.582 52.5138 111.701 52.7994 111.748 53.1005C111.796 53.4017 111.771 53.7098 111.677 53.9998L102.632 76.0691C102.506 76.4569 102.26 76.7948 101.93 77.0345C101.6 77.2741 101.202 77.4032 100.795 77.4032H71.5379C71.2328 77.4033 70.9321 77.3311 70.6603 77.1926C70.3885 77.0542 70.1533 76.8533 69.9741 76.6065C69.7949 76.3597 69.6766 76.074 69.6291 75.7728C69.5815 75.4715 69.606 75.1633 69.7005 74.8733Z" fill="#292A2E"/>
<path d="M69.7005 74.8733L76.8816 52.8047C77.0078 52.4169 77.2535 52.0789 77.5835 51.8393C77.9136 51.5996 78.3111 51.4706 78.719 51.4706H109.84C110.145 51.4706 110.445 51.5427 110.717 51.6812C110.989 51.8196 111.224 52.0204 111.403 52.2671C111.582 52.5138 111.701 52.7994 111.748 53.1005C111.796 53.4017 111.771 53.7098 111.677 53.9998L102.632 76.0691C102.506 76.4569 102.26 76.7948 101.93 77.0345C101.6 77.2741 101.202 77.4032 100.795 77.4032H71.5379C71.2328 77.4033 70.9321 77.3311 70.6603 77.1926C70.3885 77.0542 70.1533 76.8533 69.9741 76.6065C69.7949 76.3597 69.6766 76.074 69.6291 75.7728C69.5815 75.4715 69.606 75.1633 69.7005 74.8733Z" fill="#071C54"/>
<path d="M75.5584 75.6129H55.9739C55.4859 75.6129 55.0903 76.0084 55.0903 76.4962V76.519C55.0903 77.0068 55.4859 77.4023 55.9739 77.4023H75.5584C76.0463 77.4023 76.4419 77.0068 76.4419 76.519V76.4962C76.4419 76.0084 76.0463 75.6129 75.5584 75.6129Z" fill="#292A2E"/>
<path d="M75.5584 75.6129H55.9739C55.4859 75.6129 55.0903 76.0084 55.0903 76.4962V76.519C55.0903 77.0068 55.4859 77.4023 55.9739 77.4023H75.5584C76.0463 77.4023 76.4419 77.0068 76.4419 76.519V76.4962C76.4419 76.0084 76.0463 75.6129 75.5584 75.6129Z" fill="#071C54"/>
<path d="M89.7569 68.5808C91.4515 68.5808 92.8253 67.2074 92.8253 65.5132C92.8253 63.8191 91.4515 62.4457 89.7569 62.4457C88.0623 62.4457 86.6885 63.8191 86.6885 65.5132C86.6885 67.2074 88.0623 68.5808 89.7569 68.5808Z" fill="white"/>
<path d="M68.0634 69.7036L63.1757 67.9909L63.8773 67.9424C64.1035 67.9223 64.3137 67.817 64.4652 67.6479C64.6168 67.4788 64.6985 67.2585 64.6937 67.0315C64.6872 66.9145 64.657 66.8 64.6047 66.695C64.5525 66.59 64.4795 66.4968 64.39 66.421C64.3006 66.3452 64.1966 66.2884 64.0845 66.2541C63.9724 66.2198 63.8544 66.2087 63.7379 66.2214L55.0903 67.1402L55.314 69.9183C55.3838 70.7812 55.7098 71.6035 56.2501 72.28C56.7904 72.9564 57.5206 73.4561 58.3468 73.715L62.0917 74.8812C62.2851 74.9456 62.4948 74.9413 62.6854 74.8688C62.8759 74.7964 63.0355 74.6603 63.1373 74.4838C63.2257 74.3223 63.2602 74.1369 63.2358 73.9545C63.2114 73.7721 63.1293 73.6023 63.0016 73.4698C63.0098 73.4639 63.0168 73.4564 63.0221 73.4478C63.0274 73.4391 63.0308 73.4294 63.0322 73.4194C63.0337 73.4093 63.033 73.3991 63.0303 73.3893C63.0276 73.3795 63.023 73.3704 63.0167 73.3625L63.7064 73.5788C63.9216 73.6511 64.1563 73.639 64.363 73.5449C64.5696 73.4508 64.7328 73.2818 64.8196 73.0719C64.8905 72.8817 64.892 72.6725 64.8238 72.4812C64.7556 72.2899 64.6221 72.1288 64.4467 72.0263C64.4549 72.022 64.4621 72.0162 64.468 72.0092L64.7517 72.0981C64.9451 72.1625 65.1549 72.1581 65.3454 72.0856C65.536 72.0131 65.6956 71.877 65.7973 71.7004C65.9045 71.5047 65.9317 71.2751 65.8733 71.0597C65.815 70.8443 65.6755 70.6599 65.4841 70.545C65.4857 70.5393 65.4866 70.5334 65.4867 70.5275L67.5223 71.2407C67.6234 71.2773 67.7309 71.2935 67.8384 71.2883C67.9459 71.2831 68.0513 71.2567 68.1485 71.2106C68.2457 71.1644 68.3328 71.0995 68.4048 71.0195C68.4767 70.9395 68.5321 70.846 68.5677 70.7444C68.6033 70.6429 68.6184 70.5353 68.6121 70.4279C68.6059 70.3205 68.5784 70.2154 68.5313 70.1187C68.4841 70.022 68.4183 69.9356 68.3375 69.8644C68.2568 69.7933 68.1627 69.7389 68.0608 69.7044L68.0634 69.7036Z" fill="#E98862"/>
<path opacity="0.2" d="M65.4097 70.6063C65.4002 70.6062 65.3909 70.6046 65.3819 70.6015L63.4131 69.8857C63.3929 69.8783 63.3764 69.8631 63.3674 69.8436C63.3583 69.8241 63.3574 69.8017 63.3648 69.7815C63.3722 69.7613 63.3874 69.7448 63.4069 69.7358C63.4265 69.7267 63.4488 69.7258 63.469 69.7332L65.438 70.449C65.456 70.4555 65.4711 70.4681 65.4806 70.4847C65.4902 70.5012 65.4936 70.5205 65.4903 70.5393C65.4869 70.5581 65.4771 70.5751 65.4625 70.5874C65.4478 70.5996 65.4293 70.6063 65.4103 70.6063H65.4097Z" fill="#0A0A0A"/>
<path opacity="0.2" d="M64.4141 72.0373C64.4049 72.0373 64.3957 72.0358 64.3869 72.0327L62.8351 71.4822C62.8248 71.4788 62.8154 71.4734 62.8072 71.4663C62.799 71.4593 62.7924 71.4506 62.7876 71.4409C62.7828 71.4312 62.7801 71.4207 62.7794 71.4099C62.7788 71.3991 62.7803 71.3883 62.7839 71.3781C62.7875 71.3679 62.7931 71.3586 62.8004 71.3506C62.8077 71.3426 62.8165 71.3362 62.8263 71.3316C62.8361 71.3271 62.8467 71.3245 62.8575 71.3241C62.8683 71.3238 62.8791 71.3255 62.8892 71.3294L64.4412 71.8799C64.4592 71.8862 64.4744 71.8988 64.484 71.9153C64.4937 71.9318 64.4972 71.9511 64.494 71.97C64.4908 71.9888 64.481 72.0059 64.4664 72.0182C64.4518 72.0305 64.4333 72.0373 64.4141 72.0373Z" fill="#0A0A0A"/>
<path opacity="0.2" d="M62.9525 73.4895C62.9427 73.4895 62.9329 73.4876 62.9237 73.4841L62.1967 73.207C62.1766 73.1993 62.1604 73.184 62.1516 73.1643C62.1428 73.1447 62.1422 73.1224 62.1499 73.1023C62.1576 73.0822 62.1729 73.066 62.1926 73.0572C62.2122 73.0485 62.2345 73.0478 62.2546 73.0555L62.9816 73.3326C62.9994 73.3393 63.0143 73.3521 63.0236 73.3686C63.033 73.3852 63.0362 73.4045 63.0327 73.4232C63.0293 73.4418 63.0194 73.4587 63.0048 73.4709C62.9902 73.483 62.9717 73.4896 62.9527 73.4895H62.9525Z" fill="#0A0A0A"/>
<path d="M58.9178 65.496L38.4132 65.4822L30.6561 46.5652L19.0845 51.429L28.7623 73.8806L28.8568 74.1042C29.3303 75.1955 30.1278 76.1149 31.1414 76.7379C32.155 77.3609 33.3357 77.6575 34.5235 77.5873L59.2274 76.1283L58.9178 65.496Z" fill="#FAB91D"/>
<path d="M34.1843 77.6904C33.0348 77.6884 31.9107 77.3516 30.9496 76.7213C29.9884 76.091 29.2317 75.1944 28.772 74.1411L28.6773 73.9175L20.4302 54.7876L20.6013 54.7131L28.9429 74.0679C29.411 75.1399 30.1962 76.0429 31.193 76.6555C32.1897 77.268 33.3502 77.5608 34.5183 77.4943L59.1318 76.0408L58.8268 65.5896L38.3506 65.5758L32.3856 51.0304L32.5583 50.96L38.4753 65.3894L59.0078 65.4034L59.3234 76.2161L59.233 76.2215L34.5299 77.6801C34.4145 77.687 34.2987 77.6904 34.1843 77.6904Z" fill="black"/>
<path d="M11.3774 79.1892L3.51367 156.963L3.88459 157L11.7484 79.2267L11.3774 79.1892Z" fill="#494949"/>
<path d="M43.8677 79.1892L36.0039 156.963L36.3748 157L44.2386 79.2267L43.8677 79.1892Z" fill="#494949"/>
<path d="M111.614 79.1881L111.243 79.2256L119.101 157L119.472 156.962L111.614 79.1881Z" fill="#494949"/>
<path d="M118.7 77.6801H4.80572C3.96216 77.6801 3.27832 78.3637 3.27832 79.2069C3.27832 80.0502 3.96216 80.7338 4.80572 80.7338H118.7C119.543 80.7338 120.227 80.0502 120.227 79.2069C120.227 78.3637 119.543 77.6801 118.7 77.6801Z" fill="#292A2E"/>
<path opacity="0.8" d="M118.7 77.6801H4.80572C3.96216 77.6801 3.27832 78.3637 3.27832 79.2069C3.27832 80.0502 3.96216 80.7338 4.80572 80.7338H118.7C119.543 80.7338 120.227 80.0502 120.227 79.2069C120.227 78.3637 119.543 77.6801 118.7 77.6801Z" fill="white"/>
<path d="M118.7 80.9202H4.80639C4.57984 80.9226 4.35506 80.88 4.14507 80.795C3.93508 80.7099 3.74404 80.5841 3.58301 80.4248C3.42197 80.2655 3.29413 80.0758 3.20688 79.8668C3.11963 79.6577 3.07471 79.4335 3.07471 79.207C3.07471 78.9805 3.11963 78.7562 3.20688 78.5472C3.29413 78.3382 3.42197 78.1485 3.58301 77.9892C3.74404 77.8298 3.93508 77.704 4.14507 77.619C4.35506 77.534 4.57984 77.4914 4.80639 77.4937H118.7C118.926 77.4914 119.151 77.534 119.361 77.619C119.571 77.704 119.762 77.8298 119.923 77.9892C120.084 78.1485 120.212 78.3382 120.299 78.5472C120.387 78.7562 120.432 78.9805 120.432 79.207C120.432 79.4335 120.387 79.6577 120.299 79.8668C120.212 80.0758 120.084 80.2655 119.923 80.4248C119.762 80.5841 119.571 80.7099 119.361 80.795C119.151 80.88 118.926 80.9226 118.7 80.9202ZM4.80639 77.8665C4.62897 77.8644 4.4529 77.8975 4.28838 77.9639C4.12386 78.0304 3.97416 78.1288 3.84796 78.2534C3.72175 78.3781 3.62156 78.5266 3.55318 78.6903C3.48479 78.854 3.44958 79.0296 3.44958 79.207C3.44958 79.3844 3.48479 79.56 3.55318 79.7237C3.62156 79.8873 3.72175 80.0358 3.84796 80.1605C3.97416 80.2852 4.12386 80.3836 4.28838 80.45C4.4529 80.5165 4.62897 80.5496 4.80639 80.5475H118.7C118.877 80.5496 119.053 80.5165 119.218 80.45C119.382 80.3836 119.532 80.2852 119.658 80.1605C119.785 80.0358 119.885 79.8873 119.953 79.7237C120.022 79.56 120.057 79.3844 120.057 79.207C120.057 79.0296 120.022 78.854 119.953 78.6903C119.885 78.5266 119.785 78.3781 119.658 78.2534C119.532 78.1288 119.382 78.0304 119.218 77.9639C119.053 77.8975 118.877 77.8644 118.7 77.8665H4.80639Z" fill="#292A2E"/>
<path d="M118.7 77.6801H38.5377C37.6941 77.6801 37.0103 78.3637 37.0103 79.2069C37.0103 80.0502 37.6941 80.7338 38.5377 80.7338H118.7C119.543 80.7338 120.227 80.0502 120.227 79.2069C120.227 78.3637 119.543 77.6801 118.7 77.6801Z" fill="white"/>
<path d="M118.7 80.9202H38.5377C38.0863 80.9155 37.655 80.7329 37.3375 80.4121C37.0199 80.0914 36.8418 79.6583 36.8418 79.207C36.8418 78.7557 37.0199 78.3226 37.3375 78.0018C37.655 77.681 38.0863 77.4985 38.5377 77.4937H118.7C118.926 77.4914 119.151 77.534 119.361 77.619C119.571 77.704 119.762 77.8298 119.923 77.9892C120.084 78.1485 120.212 78.3382 120.299 78.5472C120.387 78.7562 120.432 78.9805 120.432 79.207C120.432 79.4335 120.387 79.6577 120.299 79.8668C120.212 80.0758 120.084 80.2655 119.923 80.4248C119.762 80.5841 119.571 80.7099 119.361 80.795C119.151 80.88 118.926 80.9226 118.7 80.9202ZM38.5377 77.8665C38.1848 77.8706 37.8478 78.0137 37.5997 78.2646C37.3517 78.5156 37.2125 78.8542 37.2125 79.207C37.2125 79.5598 37.3517 79.8984 37.5997 80.1493C37.8478 80.4003 38.1848 80.5433 38.5377 80.5475H118.7C118.877 80.5496 119.053 80.5165 119.218 80.45C119.382 80.3836 119.532 80.2852 119.658 80.1605C119.785 80.0358 119.885 79.8873 119.953 79.7237C120.022 79.56 120.057 79.3844 120.057 79.207C120.057 79.0296 120.022 78.854 119.953 78.6903C119.885 78.5266 119.785 78.3781 119.658 78.2534C119.532 78.1288 119.382 78.0304 119.218 77.9639C119.053 77.8975 118.877 77.8644 118.7 77.8665H38.5377Z" fill="#292A2E"/>
<path d="M121.772 132.206C121.747 132.206 121.723 132.201 121.7 132.192C121.678 132.182 121.657 132.169 121.64 132.151C121.377 131.889 120.949 127.072 119.796 112.729C119.324 106.861 118.878 101.317 118.553 97.9486C118.53 97.708 118.437 97.6801 118.406 97.6709C117.961 97.5366 116.607 98.6038 115.851 99.5385C115.82 99.577 115.775 99.6015 115.726 99.6067C115.676 99.6119 115.627 99.5974 115.589 99.5663C115.55 99.5352 115.526 99.4901 115.521 99.441C115.515 99.3918 115.53 99.3426 115.561 99.3041C116.061 98.6862 117.69 97.0662 118.513 97.3139C118.679 97.3638 118.886 97.508 118.924 97.9128C119.25 101.284 119.696 106.829 120.168 112.699C120.868 121.415 121.662 131.289 121.923 131.911C121.943 131.939 121.955 131.972 121.957 132.006C121.96 132.04 121.953 132.074 121.937 132.105C121.922 132.135 121.898 132.161 121.869 132.179C121.84 132.196 121.806 132.206 121.772 132.206Z" fill="#494949"/>
<path d="M118.074 104.13C121.168 101.652 122.193 97.7934 120.364 95.5129C118.536 93.2324 114.546 93.3931 111.453 95.8719C108.36 98.3506 107.334 102.209 109.163 104.489C110.991 106.77 114.981 106.609 118.074 104.13Z" fill="#FCA311"/>
<path opacity="0.2" d="M118.074 104.13C121.168 101.652 122.193 97.7934 120.364 95.5129C118.536 93.2324 114.546 93.3931 111.453 95.8719C108.36 98.3506 107.334 102.209 109.163 104.489C110.991 106.77 114.981 106.609 118.074 104.13Z" fill="white"/>
<path d="M110.03 105.069C110.013 105.069 109.995 105.064 109.98 105.055C109.965 105.045 109.953 105.032 109.946 105.016C109.938 105 109.936 104.982 109.938 104.964C109.94 104.947 109.947 104.93 109.958 104.916L118.774 94.2889C118.79 94.2699 118.812 94.2579 118.837 94.2556C118.861 94.2534 118.886 94.2609 118.905 94.2767C118.924 94.2925 118.936 94.3152 118.938 94.3398C118.941 94.3645 118.933 94.389 118.917 94.408L110.102 105.036C110.093 105.046 110.082 105.054 110.07 105.06C110.057 105.066 110.044 105.069 110.03 105.069Z" fill="white"/>
<path d="M123.694 129.928C123.664 129.928 123.635 129.921 123.609 129.907C123.582 129.893 123.559 129.874 123.542 129.849C123.525 129.825 123.514 129.797 123.51 129.768C123.505 129.738 123.508 129.708 123.518 129.68L126.83 120.16C126.927 119.88 127.093 119.63 127.313 119.431C127.532 119.232 127.798 119.091 128.086 119.022C128.374 118.952 128.675 118.956 128.961 119.033C129.248 119.11 129.51 119.257 129.724 119.462L131.475 121.133C131.511 121.168 131.531 121.214 131.533 121.264C131.534 121.313 131.515 121.361 131.481 121.397C131.447 121.433 131.4 121.453 131.35 121.455C131.301 121.456 131.253 121.437 131.217 121.403L129.467 119.731C129.297 119.57 129.09 119.453 128.865 119.393C128.639 119.332 128.401 119.329 128.174 119.384C127.946 119.439 127.736 119.55 127.563 119.707C127.39 119.864 127.259 120.062 127.182 120.282L123.87 129.803C123.858 129.839 123.834 129.871 123.802 129.893C123.771 129.916 123.733 129.928 123.694 129.928Z" fill="#494949"/>
<path d="M136.366 126.404C138.658 124.59 138.522 120.601 136.061 117.493C133.601 114.386 129.748 113.337 127.456 115.151C125.163 116.965 125.3 120.955 127.76 124.062C130.22 127.17 134.073 128.218 136.366 126.404Z" fill="#FCA311"/>
<path d="M120.268 131.599C120.227 131.599 120.186 131.585 120.153 131.559C120.12 131.533 120.097 131.497 120.087 131.456L114.529 108.228C114.491 108.07 114.41 107.925 114.295 107.81C114.181 107.694 114.036 107.613 113.878 107.574C113.72 107.536 113.554 107.542 113.399 107.591C113.244 107.641 113.105 107.732 112.999 107.855L111.286 109.834C111.27 109.853 111.25 109.868 111.228 109.88C111.206 109.891 111.182 109.898 111.158 109.899C111.133 109.901 111.108 109.898 111.085 109.891C111.062 109.883 111.04 109.871 111.021 109.855C111.003 109.838 110.988 109.819 110.977 109.797C110.966 109.775 110.959 109.751 110.957 109.726C110.956 109.702 110.959 109.677 110.967 109.654C110.975 109.63 110.987 109.609 111.004 109.59L112.717 107.611C112.868 107.436 113.065 107.307 113.285 107.236C113.506 107.166 113.742 107.158 113.967 107.213C114.191 107.267 114.397 107.383 114.56 107.547C114.723 107.711 114.838 107.917 114.892 108.142L120.449 131.37C120.46 131.418 120.452 131.468 120.426 131.51C120.4 131.552 120.359 131.582 120.311 131.594C120.297 131.597 120.283 131.599 120.268 131.599Z" fill="#494949"/>
<path d="M118.218 114.994C118.893 111.089 117.106 107.52 114.225 107.022C111.344 106.524 108.461 109.286 107.786 113.191C107.11 117.096 108.898 120.666 111.779 121.164C114.659 121.662 117.542 118.9 118.218 114.994Z" fill="#FCA311"/>
<path d="M121.772 132.206C121.764 132.206 121.757 132.206 121.749 132.205C121.725 132.202 121.701 132.194 121.68 132.182C121.659 132.17 121.64 132.154 121.625 132.134C121.61 132.115 121.599 132.093 121.592 132.069C121.586 132.046 121.584 132.021 121.587 131.997L125.135 103.195C125.174 102.881 125.302 102.585 125.505 102.343C125.708 102.1 125.977 101.921 126.279 101.828C126.581 101.734 126.904 101.73 127.208 101.815C127.512 101.901 127.786 102.072 127.995 102.309L132.051 106.901C132.084 106.938 132.1 106.987 132.097 107.036C132.094 107.086 132.072 107.132 132.034 107.164C131.997 107.197 131.949 107.214 131.899 107.211C131.85 107.208 131.804 107.185 131.771 107.148L127.715 102.556C127.554 102.373 127.342 102.24 127.107 102.174C126.872 102.108 126.622 102.111 126.389 102.184C126.156 102.256 125.948 102.394 125.791 102.582C125.634 102.769 125.535 102.998 125.505 103.24L121.957 132.042C121.952 132.087 121.93 132.129 121.896 132.159C121.862 132.189 121.818 132.206 121.772 132.206Z" fill="#494949"/>
<path d="M136.211 109.453C137.626 106.896 135.961 103.267 132.492 101.349C129.023 99.4309 125.064 99.9491 123.649 102.507C122.234 105.064 123.899 108.693 127.367 110.611C130.836 112.529 134.796 112.011 136.211 109.453Z" fill="#FCA311"/>
<path opacity="0.2" d="M136.366 126.404C138.658 124.59 138.522 120.601 136.061 117.493C133.601 114.386 129.748 113.337 127.456 115.151C125.163 116.965 125.3 120.955 127.76 124.062C130.22 127.17 134.073 128.218 136.366 126.404Z" fill="white"/>
<path opacity="0.5" d="M118.218 114.994C118.893 111.089 117.106 107.52 114.225 107.022C111.344 106.524 108.461 109.286 107.786 113.191C107.11 117.096 108.898 120.666 111.779 121.164C114.659 121.662 117.542 118.9 118.218 114.994Z" fill="white"/>
<path opacity="0.5" d="M136.211 109.453C137.626 106.896 135.961 103.267 132.492 101.349C129.023 99.4309 125.064 99.9491 123.649 102.507C122.234 105.064 123.899 108.693 127.367 110.611C130.836 112.529 134.796 112.011 136.211 109.453Z" fill="white"/>
<path d="M126.31 156.645H117.233L115.729 127.61H127.815L126.31 156.645Z" fill="#292A2E"/>
<path opacity="0.3" d="M126.31 156.645H117.233L115.729 127.61H127.815L126.31 156.645Z" fill="#071C54"/>
<path d="M136.366 126.496C136.352 126.496 136.338 126.493 136.326 126.487C136.313 126.481 136.302 126.472 136.293 126.461L127.383 115.208C127.368 115.188 127.361 115.164 127.363 115.139C127.366 115.114 127.379 115.092 127.398 115.077C127.418 115.061 127.442 115.054 127.467 115.057C127.491 115.06 127.514 115.072 127.529 115.092L136.439 126.345C136.45 126.359 136.457 126.375 136.459 126.393C136.461 126.41 136.458 126.428 136.45 126.443C136.443 126.459 136.431 126.473 136.416 126.482C136.401 126.491 136.384 126.496 136.366 126.496Z" fill="white"/>
<path d="M135.618 110.355C135.598 110.355 135.579 110.348 135.563 110.336L124.161 102.013C124.141 101.999 124.128 101.977 124.124 101.953C124.12 101.928 124.126 101.903 124.141 101.883C124.156 101.863 124.178 101.85 124.202 101.846C124.226 101.842 124.251 101.848 124.271 101.863L135.673 110.186C135.689 110.198 135.7 110.214 135.706 110.233C135.712 110.251 135.712 110.271 135.705 110.29C135.699 110.309 135.687 110.325 135.672 110.336C135.656 110.348 135.637 110.354 135.617 110.354L135.618 110.355Z" fill="white"/>
<path d="M111.315 121.042C111.307 121.042 111.299 121.041 111.291 121.039C111.267 121.032 111.247 121.017 111.235 120.995C111.222 120.974 111.219 120.949 111.225 120.925L114.855 107.33C114.862 107.307 114.877 107.287 114.899 107.275C114.92 107.263 114.945 107.26 114.968 107.266C114.992 107.273 115.012 107.288 115.024 107.309C115.037 107.329 115.04 107.354 115.035 107.378L111.405 120.973C111.4 120.993 111.388 121.01 111.372 121.023C111.356 121.035 111.336 121.042 111.315 121.042Z" fill="white"/>
<path d="M130.693 156.906H0.130484C0.0958772 156.906 0.0626882 156.893 0.0382178 156.868C0.0137473 156.844 0 156.81 0 156.776C0 156.741 0.0137473 156.708 0.0382178 156.684C0.0626882 156.659 0.0958772 156.645 0.130484 156.645H130.692C130.727 156.645 130.76 156.659 130.785 156.684C130.809 156.708 130.823 156.741 130.823 156.776C130.823 156.81 130.809 156.844 130.785 156.868C130.76 156.893 130.727 156.906 130.692 156.906H130.693Z" fill="#292A2E"/>
<g opacity="0.65">
<path d="M130.693 156.906H0.130484C0.0958772 156.906 0.0626882 156.893 0.0382178 156.868C0.0137473 156.844 0 156.81 0 156.776C0 156.741 0.0137473 156.708 0.0382178 156.684C0.0626882 156.659 0.0958772 156.645 0.130484 156.645H130.692C130.727 156.645 130.76 156.659 130.785 156.684C130.809 156.708 130.823 156.741 130.823 156.776C130.823 156.81 130.809 156.844 130.785 156.868C130.76 156.893 130.727 156.906 130.692 156.906H130.693Z" fill="#292A2E"/>
</g>
</g>
<defs>
<clipPath id="clip0_81_1576">
<rect width="138" height="157" fill="white"/>
</clipPath>
</defs>
</svg>
