<svg width="3" height="8" viewBox="0 0 3 8" fill="none" xmlns="http://www.w3.org/2000/svg">
<path d="M1.18445 7.51265C1.1702 7.57495 1.14766 7.63506 1.11743 7.69136C1.09931 7.75184 1.05955 7.80352 1.00574 7.83655L0.748857 7.98175C0.734776 7.99357 0.716983 8.00005 0.698599 8.00005C0.680216 8.00005 0.662422 7.99357 0.648341 7.98175C0.630953 7.93876 0.630953 7.89071 0.648341 7.84773C0.642175 7.82203 0.642175 7.79523 0.648341 7.76953L1.22911 5.45757L0.0117031 1.99519V1.93935C-0.00390104 1.87702 -0.00390104 1.8118 0.0117031 1.74948C0.0290379 1.6976 0.0648008 1.65388 0.11222 1.62662L0.369117 1.48143C0.376397 1.474 0.385075 1.4681 0.394664 1.46407C0.404253 1.46004 0.414547 1.45796 0.424949 1.45796C0.43535 1.45796 0.445661 1.46004 0.45525 1.46407C0.464839 1.4681 0.473517 1.474 0.480797 1.48143C0.509588 1.51439 0.532277 1.5522 0.547808 1.59311L1.48601 4.26249L2.44654 0.487397C2.46079 0.425102 2.48333 0.364994 2.51355 0.30869C2.53167 0.24821 2.57142 0.196517 2.62523 0.163488L2.88213 0.0182866C2.89621 0.00646867 2.914 0 2.93239 0C2.95077 0 2.96856 0.00646867 2.98265 0.0182866C3.00188 0.0647739 3.00188 0.117001 2.98265 0.163488C2.98787 0.185521 2.98787 0.208467 2.98265 0.230499L1.18445 7.51265Z" fill="#455A64"/>
</svg>
