<svg width="3" height="5" viewBox="0 0 3 5" fill="none" xmlns="http://www.w3.org/2000/svg">
<path d="M0.0429321 2.81727C0.0718078 2.2715 0.203895 1.73614 0.432217 1.23959C0.538953 1.01234 0.673132 0.799036 0.831756 0.604428C0.968122 0.425665 1.13879 0.275895 1.33375 0.163902C1.49864 0.0573916 1.69065 0.000508729 1.88695 0C1.96314 0.00424043 2.03774 0.023634 2.10635 0.0570569C2.17495 0.0904798 2.23619 0.137263 2.28649 0.19465C2.41715 0.35579 2.50837 0.54522 2.55286 0.747852C2.61957 1.0297 2.65054 1.31881 2.64506 1.6084V1.83378C2.64401 1.90185 2.62643 1.96866 2.59383 2.02843C2.57374 2.08205 2.53807 2.12844 2.49139 2.16161L0.544908 3.27827V3.3295C0.520681 3.60964 0.605033 3.88838 0.78053 4.10808C0.858866 4.17128 0.956487 4.20575 1.05714 4.20575C1.15779 4.20575 1.25541 4.17128 1.33375 4.10808C1.52203 4.01681 1.68415 3.87936 1.80499 3.70854C1.90024 3.56953 1.98255 3.42208 2.05087 3.26803C2.07295 3.21742 2.10043 3.16933 2.13283 3.12461C2.15991 3.08947 2.19505 3.06136 2.23528 3.04265L2.39918 2.9402C2.41631 2.93031 2.43575 2.9251 2.45553 2.9251C2.47531 2.9251 2.49474 2.93031 2.51187 2.9402C2.52446 2.962 2.5311 2.98674 2.5311 3.01192C2.5311 3.03709 2.52446 3.06182 2.51187 3.08362C2.49634 3.21986 2.46541 3.3539 2.41967 3.48316C2.35956 3.65027 2.28411 3.81146 2.19429 3.96466C2.08666 4.13905 1.9595 4.3006 1.81525 4.44616C1.66656 4.61243 1.48968 4.75115 1.29276 4.85594C1.14491 4.95584 0.969099 5.00608 0.790784 4.99936C0.640489 4.98813 0.500644 4.91822 0.401484 4.80472C0.274812 4.67059 0.180231 4.50946 0.124875 4.33347C0.0570663 4.1033 0.0158245 3.86613 0.00194486 3.62659C-0.0054518 3.35616 0.00825796 3.08557 0.0429321 2.81727ZM0.544908 2.5509L2.13283 1.63913C2.14848 1.51122 2.13743 1.38145 2.1004 1.25802C2.06338 1.13459 2.00116 1.02018 1.91768 0.922009C1.77426 0.788829 1.57962 0.799073 1.33375 0.922009C1.22271 0.996412 1.12268 1.08607 1.03664 1.18836C0.937404 1.30106 0.851467 1.42481 0.78053 1.55717C0.710745 1.70857 0.65586 1.8664 0.616628 2.02843C0.577723 2.19673 0.553718 2.36814 0.544908 2.54066V2.5509Z" fill="#455A64"/>
</svg>
