<svg width="77" height="88" viewBox="0 0 77 88" fill="none" xmlns="http://www.w3.org/2000/svg">
<g clip-path="url(#clip0_68_853)">
<g filter="url(#filter0_d_68_853)">
<path d="M69.1059 59.889C67.6726 59.889 66.5464 58.7596 66.5464 57.3223C66.5464 55.885 67.6726 54.7556 69.1059 54.7556C70.5392 54.7556 71.6654 53.6263 71.6654 52.189C71.6654 48.7853 70.3171 45.5211 67.9171 43.1144C65.5171 40.7077 62.2621 39.3556 58.868 39.3556H53.749C52.3157 39.3556 51.1895 38.2263 51.1895 36.789C51.1895 35.3516 52.3157 34.2223 53.749 34.2223C57.9978 34.2223 61.4275 30.783 61.4275 26.5223C61.4275 22.2616 57.9978 18.8223 53.749 18.8223C52.3157 18.8223 51.1895 17.693 51.1895 16.2556C51.1895 14.8183 52.3157 13.689 53.749 13.689C57.1431 13.689 60.3982 15.041 62.7981 17.4478C65.1981 19.8545 66.5464 23.1187 66.5464 26.5223C66.5464 29.705 65.4202 32.5796 63.475 34.8383C71.1023 36.8916 76.7843 43.873 76.7843 52.189C76.7843 56.4496 73.3546 59.889 69.1059 59.889ZM7.67843 59.889C3.4297 59.889 0 56.4496 0 52.189C0 43.873 5.63085 36.8916 13.3093 34.8383C11.4153 32.5796 10.2379 29.705 10.2379 26.5223C10.2379 23.1187 11.5862 19.8545 13.9862 17.4478C16.3862 15.041 19.6412 13.689 23.0353 13.689C24.4686 13.689 25.5948 14.8183 25.5948 16.2556C25.5948 17.693 24.4686 18.8223 23.0353 18.8223C18.7866 18.8223 15.3569 22.2616 15.3569 26.5223C15.3569 30.783 18.7866 34.2223 23.0353 34.2223C24.4686 34.2223 25.5948 35.3516 25.5948 36.789C25.5948 38.2263 24.4686 39.3556 23.0353 39.3556H17.9163C14.5223 39.3556 11.2672 40.7077 8.86722 43.1144C6.46725 45.5211 5.11895 48.7853 5.11895 52.189C5.11895 53.6263 6.24512 54.7556 7.67843 54.7556C9.11174 54.7556 10.2379 55.885 10.2379 57.3223C10.2379 58.7596 9.11174 59.889 7.67843 59.889ZM53.749 75.289H23.0353C18.7866 75.289 15.3569 71.8496 15.3569 67.589V62.4556C15.3569 52.5483 23.3936 44.489 33.2732 44.489H43.5111C53.3907 44.489 61.4275 52.5483 61.4275 62.4556V67.589C61.4275 71.8496 57.9978 75.289 53.749 75.289ZM33.2732 49.6223C29.8791 49.6223 26.6241 50.9744 24.2241 53.3811C21.8241 55.7878 20.4758 59.052 20.4758 62.4556V67.589C20.4758 69.0263 21.602 70.1556 23.0353 70.1556H53.749C55.1823 70.1556 56.3085 69.0263 56.3085 67.589V62.4556C56.3085 59.052 54.9602 55.7878 52.5602 53.3811C50.1603 50.9744 46.9052 49.6223 43.5111 49.6223H33.2732Z" fill="#071C54"/>
<path d="M63.2839 34.6737L63.0221 34.9776L63.4095 35.0819C70.9302 37.1065 76.5321 43.9907 76.5321 52.189C76.5321 56.311 73.2146 59.6367 69.1059 59.6367C67.8126 59.6367 66.7987 58.621 66.7987 57.3223C66.7987 56.0236 67.8126 55.0079 69.1059 55.0079C70.6792 55.0079 71.9176 53.7649 71.9176 52.189C71.9176 48.7187 70.5429 45.3904 68.0957 42.9363C65.6485 40.4822 62.3292 39.1034 58.868 39.1034H53.749C52.4557 39.1034 51.4418 38.0876 51.4418 36.789C51.4418 35.4903 52.4557 34.4745 53.749 34.4745C58.1377 34.4745 61.6797 30.9216 61.6797 26.5223C61.6797 22.123 58.1377 18.57 53.749 18.57C52.4557 18.57 51.4418 17.5543 51.4418 16.2556C51.4418 14.9569 52.4557 13.9412 53.749 13.9412C57.076 13.9412 60.2668 15.2665 62.6195 17.6259C64.9723 19.9852 66.2942 23.1854 66.2942 26.5223C66.2942 29.6433 65.1905 32.4599 63.2839 34.6737ZM13.3744 35.082L13.757 34.9797L13.5026 34.6762C11.6434 32.4591 10.4902 29.6408 10.4902 26.5223C10.4902 23.1854 11.812 19.9852 14.1648 17.6259C16.5175 15.2665 19.7083 13.9412 23.0353 13.9412C24.3286 13.9412 25.3425 14.9569 25.3425 16.2556C25.3425 17.5543 24.3286 18.57 23.0353 18.57C18.6466 18.57 15.1046 22.123 15.1046 26.5223C15.1046 30.9216 18.6466 34.4745 23.0353 34.4745C24.3286 34.4745 25.3425 35.4903 25.3425 36.789C25.3425 38.0876 24.3286 39.1034 23.0353 39.1034H17.9163C14.4551 39.1034 11.1358 40.4822 8.6886 42.9363C6.2414 45.3904 4.8667 48.7187 4.8667 52.189C4.8667 53.7649 6.10514 55.0079 7.67843 55.0079C8.97176 55.0079 9.98565 56.0236 9.98565 57.3223C9.98565 58.621 8.97176 59.6367 7.67843 59.6367C3.56968 59.6367 0.252254 56.311 0.252254 52.189C0.252254 43.99 5.80361 37.1065 13.3744 35.082ZM53.749 75.0367H23.0353C18.9265 75.0367 15.6091 71.711 15.6091 67.589V62.4556C15.6091 52.6869 23.5336 44.7412 33.2732 44.7412H43.5111C53.2507 44.7412 61.1752 52.6869 61.1752 62.4556V67.589C61.1752 71.711 57.8578 75.0367 53.749 75.0367ZM33.2732 49.37C29.812 49.37 26.4927 50.7489 24.0455 53.203C21.5983 55.657 20.2236 58.9853 20.2236 62.4556V67.589C20.2236 69.1649 21.462 70.4079 23.0353 70.4079H53.749C55.3223 70.4079 56.5608 69.1649 56.5608 67.589V62.4556C56.5608 58.9853 55.1861 55.657 52.7389 53.203C50.2916 50.7489 46.9723 49.37 43.5111 49.37H33.2732Z" stroke="white" stroke-width="0.5"/>
</g>
<g filter="url(#filter1_d_68_853)">
<path d="M37.8999 39.111C34.8975 39.111 32.018 37.9264 29.895 35.8176C27.7719 33.7089 26.5792 30.8488 26.5792 27.8666C26.5792 24.8844 27.7719 22.0243 29.895 19.9156C32.018 17.8068 34.8975 16.6221 37.8999 16.6221C40.9024 16.6221 43.7819 17.8068 45.9049 19.9156C48.028 22.0243 49.2207 24.8844 49.2207 27.8666C49.2207 30.8488 48.028 33.7089 45.9049 35.8176C43.7819 37.9264 40.9024 39.111 37.8999 39.111ZM37.8999 21.1199C34.1414 21.1199 31.1075 24.1334 31.1075 27.8666C31.1075 31.5997 34.1414 34.6133 37.8999 34.6133C41.6584 34.6133 44.6924 31.5997 44.6924 27.8666C44.6924 24.1334 41.6584 21.1199 37.8999 21.1199Z" fill="#071C54"/>
<path d="M37.8999 38.8588C34.9638 38.8588 32.1483 37.7003 30.0727 35.6386C27.9972 33.5771 26.8314 30.7813 26.8314 27.8666C26.8314 24.9518 27.9972 22.1561 30.0727 20.0945C32.1483 18.0329 34.9638 16.8744 37.8999 16.8744C40.836 16.8744 43.6515 18.0329 45.7272 20.0945C47.8027 22.1561 48.9685 24.9518 48.9685 27.8666C48.9685 30.7813 47.8027 33.5771 45.7272 35.6386C43.6515 37.7003 40.836 38.8588 37.8999 38.8588ZM37.8999 20.8677C34.0037 20.8677 30.8552 23.9925 30.8552 27.8666C30.8552 31.7407 34.0037 34.8655 37.8999 34.8655C41.7961 34.8655 44.9447 31.7407 44.9447 27.8666C44.9447 23.9925 41.7961 20.8677 37.8999 20.8677Z" stroke="white" stroke-width="0.5"/>
</g>
</g>
<defs>
<filter id="filter0_d_68_853" x="-26.3353" y="-5.58323" width="129.455" height="114.271" filterUnits="userSpaceOnUse" color-interpolation-filters="sRGB">
<feFlood flood-opacity="0" result="BackgroundImageFix"/>
<feColorMatrix in="SourceAlpha" type="matrix" values="0 0 0 0 0 0 0 0 0 0 0 0 0 0 0 0 0 0 127 0" result="hardAlpha"/>
<feOffset dy="7"/>
<feGaussianBlur stdDeviation="13.05"/>
<feComposite in2="hardAlpha" operator="out"/>
<feColorMatrix type="matrix" values="0 0 0 0 0.432656 0 0 0 0 0.8875 0 0 0 0 0.505431 0 0 0 0.01 0"/>
<feBlend mode="normal" in2="BackgroundImageFix" result="effect1_dropShadow_68_853"/>
<feBlend mode="normal" in="SourceGraphic" in2="effect1_dropShadow_68_853" result="shape"/>
</filter>
<filter id="filter1_d_68_853" x="0.243884" y="-2.65004" width="75.3121" height="75.1594" filterUnits="userSpaceOnUse" color-interpolation-filters="sRGB">
<feFlood flood-opacity="0" result="BackgroundImageFix"/>
<feColorMatrix in="SourceAlpha" type="matrix" values="0 0 0 0 0 0 0 0 0 0 0 0 0 0 0 0 0 0 127 0" result="hardAlpha"/>
<feOffset dy="7"/>
<feGaussianBlur stdDeviation="13.05"/>
<feComposite in2="hardAlpha" operator="out"/>
<feColorMatrix type="matrix" values="0 0 0 0 0.432656 0 0 0 0 0.8875 0 0 0 0 0.505431 0 0 0 0.01 0"/>
<feBlend mode="normal" in2="BackgroundImageFix" result="effect1_dropShadow_68_853"/>
<feBlend mode="normal" in="SourceGraphic" in2="effect1_dropShadow_68_853" result="shape"/>
</filter>
<clipPath id="clip0_68_853">
<rect width="76.0983" height="87.2138" fill="white" transform="scale(1.00902)"/>
</clipPath>
</defs>
</svg>
