<svg width="133" height="279" viewBox="0 0 133 279" fill="none" xmlns="http://www.w3.org/2000/svg">
<path opacity="0.9" d="M7.37203 278.455C6.65759 278.813 5.86939 279 5.07016 279C4.27092 279 3.48273 278.813 2.76828 278.455L2.29687 278.184C1.62026 277.749 1.05833 277.157 0.658569 276.459C0.258803 275.761 0.0329233 274.976 0 274.172V75.4486C0.0227671 74.6628 0.247284 73.896 0.651957 73.222L5.87756 76.2309C5.35264 77.1761 5.07653 78.2391 5.07516 79.3202V276.098C5.07516 278.104 6.49942 278.947 8.25466 277.934L7.37203 278.455Z" fill="#263238"/>
<path opacity="0.5" d="M132.696 4.83762V5.74032C132.713 5.35571 132.624 4.97392 132.44 4.63571C132.256 4.29749 131.984 4.01553 131.653 3.8199C131.321 3.62427 130.943 3.52232 130.558 3.52491C130.173 3.5275 129.796 3.63455 129.467 3.83463L8.23453 73.8739C7.27088 74.4232 6.47111 75.2195 5.91761 76.1808V76.251L0.67193 73.242C1.06275 72.5238 1.63292 71.9191 2.32688 71.4868L125.274 0.544799C125.989 0.186549 126.777 0 127.576 0C128.375 0 129.164 0.186549 129.878 0.544799L130.339 0.815608C131.025 1.24888 131.597 1.84018 132.007 2.53997C132.417 3.23976 132.654 4.02765 132.696 4.83762Z" fill="#37474F"/>
<path opacity="0.8" d="M132.696 203.622C132.696 205.628 131.272 206.931 129.517 207.944L8.24444 277.934C6.49922 278.937 5.06494 278.124 5.06494 276.088V79.3503C5.06626 78.2396 5.35983 77.1488 5.91618 76.1876C6.47252 75.2263 7.27204 74.4284 8.23441 73.8739L129.467 3.83463C129.792 3.63716 130.164 3.53056 130.545 3.52595C130.925 3.52134 131.3 3.61889 131.63 3.80842C131.959 3.99796 132.232 4.27254 132.42 4.60352C132.608 4.9345 132.703 5.30977 132.696 5.69017V203.622Z" fill="#37474F"/>
<g opacity="0.85">
<path d="M130.53 4.56687C130.681 4.56148 130.831 4.58655 130.972 4.64058C131.113 4.69462 131.242 4.77651 131.35 4.88136C131.459 4.98622 131.545 5.11189 131.604 5.25086C131.663 5.38984 131.693 5.53926 131.693 5.69022V203.622C131.693 204.966 130.891 205.999 129.015 207.072L7.74294 277.061C7.47125 277.242 7.15596 277.345 6.83021 277.362C6.16823 277.362 6.06793 276.57 6.06793 276.088V79.3503C6.07022 78.4151 6.31781 77.4968 6.78598 76.6872C7.25414 75.8776 7.92649 75.205 8.73591 74.7365L129.968 4.71732C130.139 4.62003 130.333 4.56823 130.53 4.56687ZM130.53 3.56387C130.156 3.56569 129.789 3.66602 129.467 3.85474L8.23441 73.874C7.27204 74.4284 6.47252 75.2263 5.91618 76.1876C5.35983 77.1489 5.06626 78.2396 5.06494 79.3503V276.088C5.06494 277.532 5.78709 278.365 6.83021 278.365C7.33105 278.346 7.81843 278.198 8.24444 277.934L129.477 207.945C131.232 206.942 132.656 205.638 132.656 203.622V5.69022C132.656 5.12628 132.432 4.58543 132.033 4.18667C131.635 3.7879 131.094 3.56387 130.53 3.56387Z" fill="#455A64"/>
</g>
<path d="M13.7814 83.5728C13.81 83.2656 13.909 82.9692 14.0708 82.7065C14.2325 82.4438 14.4527 82.222 14.7142 82.0583L24.6539 76.3211C25.1755 76.0202 25.5967 76.2208 25.5967 76.7524C25.567 77.0605 25.4665 77.3575 25.3029 77.6203C25.1394 77.883 24.9172 78.1044 24.6539 78.267L14.7142 84.0141C14.2027 84.305 13.7814 84.0743 13.7814 83.5728Z" fill="#FAFAFA"/>
<path d="M13.7814 87.4444C13.81 87.1372 13.909 86.8407 14.0708 86.5781C14.2325 86.3154 14.4527 86.0936 14.7142 85.9298L24.6539 80.1927C25.1755 79.8918 25.5967 80.0924 25.5967 80.624C25.567 80.9321 25.4665 81.2291 25.3029 81.4918C25.1394 81.7546 24.9172 81.9759 24.6539 82.1385L14.7142 87.8757C14.2027 88.1766 13.7814 87.986 13.7814 87.4444Z" fill="#FAFAFA"/>
<path d="M13.7814 91.3159C13.81 91.0088 13.909 90.7123 14.0708 90.4496C14.2325 90.187 14.4527 89.9651 14.7142 89.8014L24.6539 84.0643C25.1755 83.7634 25.5967 83.9539 25.5967 84.4955C25.567 84.8036 25.4665 85.1006 25.3029 85.3634C25.1394 85.6261 24.9172 85.8475 24.6539 86.0101L14.7142 91.7472C14.2027 92.0983 13.7814 91.8575 13.7814 91.3159Z" fill="#FAFAFA"/>
<path d="M123.941 27.6056V25.8102C123.947 25.7872 123.945 25.7629 123.937 25.7408C123.928 25.7187 123.912 25.7001 123.892 25.6876C123.871 25.6752 123.848 25.6697 123.824 25.6719C123.8 25.6741 123.778 25.684 123.76 25.6999L122.376 26.3218C122.354 26.3312 122.33 26.3358 122.306 26.3353C122.281 26.3348 122.258 26.3291 122.236 26.3187C122.214 26.3082 122.195 26.2933 122.179 26.2748C122.164 26.2563 122.152 26.2347 122.145 26.2114C122.073 25.9713 121.968 25.7419 121.835 25.5294C121.812 25.4754 121.8 25.4174 121.8 25.3589C121.8 25.3003 121.812 25.2424 121.835 25.1884L122.757 23.3328C122.782 23.2862 122.788 23.2316 122.773 23.1809C122.758 23.1302 122.723 23.0875 122.677 23.062L121.674 22.4803C121.63 22.4535 121.577 22.4448 121.527 22.456C121.476 22.4672 121.432 22.4975 121.403 22.5405L120.25 24.2756C120.214 24.3221 120.169 24.3598 120.117 24.3859C120.065 24.412 120.007 24.4257 119.949 24.4261C119.696 24.4205 119.444 24.4441 119.197 24.4963C119.174 24.5022 119.151 24.5032 119.128 24.4991C119.105 24.495 119.083 24.4859 119.064 24.4726C119.045 24.4592 119.029 24.4418 119.017 24.4217C119.005 24.4015 118.998 24.3791 118.996 24.3559L118.826 22.8915C118.826 22.7812 118.725 22.7411 118.635 22.7912L117.08 23.6939C117.028 23.7244 116.984 23.7665 116.951 23.817C116.918 23.8675 116.897 23.9249 116.89 23.9848L116.739 25.72C116.718 25.8422 116.658 25.9545 116.569 26.0409C116.261 26.3255 115.973 26.6304 115.706 26.9537C115.669 26.9941 115.621 27.0237 115.568 27.0396C115.515 27.0554 115.459 27.0569 115.405 27.0439L114.402 26.6929C114.351 26.6773 114.296 26.6787 114.245 26.6967C114.195 26.7148 114.151 26.7486 114.121 26.7932L112.978 28.7992C112.953 28.8463 112.944 28.9005 112.953 28.9532C112.962 29.0059 112.989 29.054 113.028 29.09L113.831 29.7821C113.87 29.8223 113.898 29.8722 113.912 29.9268C113.926 29.9814 113.926 30.0387 113.911 30.093C113.763 30.4855 113.642 30.8876 113.55 31.2966C113.517 31.416 113.447 31.5216 113.349 31.5975L111.925 32.6005C111.877 32.6374 111.838 32.6843 111.81 32.7381C111.782 32.7918 111.767 32.851 111.764 32.9114V34.7068C111.758 34.7298 111.76 34.7542 111.769 34.7763C111.777 34.7983 111.793 34.817 111.813 34.8294C111.834 34.8418 111.858 34.8473 111.881 34.8451C111.905 34.8429 111.927 34.8331 111.945 34.8171L113.329 34.1953C113.351 34.1858 113.375 34.1812 113.4 34.1818C113.424 34.1823 113.448 34.188 113.469 34.1984C113.491 34.2088 113.51 34.2238 113.526 34.2423C113.542 34.2608 113.553 34.2823 113.56 34.3056C113.637 34.5441 113.741 34.7729 113.871 34.9877C113.898 35.0404 113.912 35.0988 113.912 35.1582C113.912 35.2175 113.898 35.276 113.871 35.3287L112.948 37.1842C112.925 37.2313 112.921 37.285 112.936 37.3351C112.951 37.3851 112.984 37.4278 113.028 37.455L114.031 38.0368C114.077 38.0619 114.131 38.0697 114.183 38.0586C114.234 38.0476 114.28 38.0185 114.312 37.9766L115.455 36.2414C115.492 36.196 115.537 36.1591 115.589 36.1331C115.641 36.1071 115.698 36.0928 115.756 36.091C116.009 36.0965 116.261 36.0729 116.509 36.0207C116.532 36.013 116.556 36.0107 116.581 36.014C116.605 36.0172 116.628 36.026 116.648 36.0395C116.668 36.053 116.685 36.071 116.698 36.0921C116.71 36.1132 116.717 36.1368 116.719 36.1612L116.87 37.6757C116.87 37.786 116.96 37.8261 117.06 37.776L118.615 36.8733C118.664 36.8406 118.706 36.7977 118.737 36.7475C118.768 36.6973 118.788 36.641 118.795 36.5824L118.956 34.8472C118.974 34.726 119.03 34.6137 119.116 34.5263C119.424 34.2417 119.712 33.9368 119.979 33.6136C120.019 33.5731 120.068 33.5436 120.123 33.5278C120.177 33.512 120.235 33.5104 120.29 33.5233L121.293 33.8743C121.344 33.8899 121.399 33.8885 121.45 33.8705C121.5 33.8524 121.544 33.8186 121.574 33.774L122.717 31.768C122.746 31.7219 122.757 31.6667 122.748 31.613C122.739 31.5593 122.71 31.5109 122.667 31.4772L121.865 30.7851C121.825 30.745 121.797 30.6947 121.785 30.6397C121.773 30.5847 121.776 30.5274 121.794 30.4742C121.942 30.0817 122.063 29.6796 122.155 29.2706C122.185 29.1523 122.252 29.0466 122.346 28.9697L123.77 27.9667C123.827 27.9259 123.872 27.8714 123.902 27.8082C123.932 27.745 123.945 27.6753 123.941 27.6056ZM117.853 33.2625C116.398 34.095 115.225 33.423 115.225 31.7379C115.275 30.8259 115.538 29.9384 115.995 29.1473C116.451 28.3562 117.088 27.6838 117.853 27.1843C119.307 26.3518 120.48 27.0239 120.48 28.7089C120.431 29.6209 120.167 30.5084 119.71 31.2995C119.254 32.0906 118.617 32.7631 117.853 33.2625Z" fill="#FAFAFA"/>
<path d="M68.8562 75.2279C81.3033 68.0465 91.3835 73.8739 91.3835 88.2669C91.3835 102.66 81.3033 120.102 68.8562 127.283C56.409 134.465 46.3289 128.648 46.3289 114.245C46.3289 99.8415 56.4691 82.4094 68.8562 75.2279Z" fill="#FAFAFA"/>
<path d="M68.7053 103.412C70.8318 102.025 72.6012 100.156 73.8699 97.9564C75.1386 95.7571 75.8708 93.2896 76.0071 90.7542C76.0071 86.1003 72.7373 84.2047 68.7053 86.5316C66.5767 87.9199 64.8054 89.7905 63.535 91.9915C62.2646 94.1924 61.5309 96.6619 61.3934 99.1995C61.3934 103.853 64.6632 105.749 68.7053 103.412ZM71.1024 104.415L66.95 106.812C60.3202 110.634 54.9141 119.951 54.9141 127.604V129.691C56.1635 130.1 57.471 130.303 58.7856 130.292C62.3413 130.164 65.8006 129.102 68.8156 127.213C74.5894 123.681 79.4784 118.874 83.1083 113.161V111.386C83.1083 103.733 77.7322 100.624 71.1024 104.455V104.415Z" fill="#071C54"/>
<path opacity="0.45" d="M68.7053 103.412C70.8318 102.025 72.6012 100.156 73.8699 97.9564C75.1386 95.7571 75.8708 93.2896 76.0071 90.7542C76.0071 86.1003 72.7373 84.2047 68.7053 86.5316C66.5767 87.9199 64.8054 89.7905 63.535 91.9915C62.2646 94.1924 61.5309 96.6619 61.3934 99.1995C61.3934 103.853 64.6632 105.749 68.7053 103.412ZM71.1024 104.415L66.95 106.812C60.3202 110.634 54.9141 119.951 54.9141 127.604V129.691C56.1635 130.1 57.471 130.303 58.7856 130.292C62.3413 130.164 65.8006 129.102 68.8156 127.213C74.5894 123.681 79.4784 118.874 83.1083 113.161V111.386C83.1083 103.733 77.7322 100.624 71.1024 104.455V104.415Z" fill="white"/>
<path d="M48.5254 148.627L89.1969 125.197C90.4106 124.505 91.3835 124.997 91.3835 126.311C91.3324 127.047 91.1076 127.761 90.7276 128.394C90.3475 129.026 89.823 129.56 89.1969 129.951L48.5254 153.381C47.3118 154.084 46.3289 153.582 46.3289 152.278C46.3826 151.54 46.6095 150.825 46.9911 150.19C47.3727 149.556 47.8983 149.021 48.5254 148.627Z" fill="#071C54"/>
<path opacity="0.3" d="M24.1921 183.582L113.529 131.998C116.177 130.473 118.323 131.556 118.323 134.425C118.205 136.035 117.71 137.595 116.877 138.979C116.044 140.362 114.897 141.53 113.529 142.389L24.1921 193.963C21.5442 195.487 19.3978 194.404 19.3978 191.535C19.5152 189.926 20.0106 188.367 20.8436 186.985C21.6766 185.603 22.8239 184.437 24.1921 183.582Z" fill="white"/>
<path opacity="0.3" d="M24.1921 204.344L113.529 152.77C116.177 151.245 118.323 152.328 118.323 155.197C118.206 156.806 117.711 158.365 116.878 159.747C116.045 161.129 114.897 162.295 113.529 163.151L24.1921 214.725C21.5442 216.259 19.3978 215.166 19.3978 212.307C19.5153 210.697 20.0105 209.136 20.8435 207.753C21.6765 206.369 22.8237 205.201 24.1921 204.344Z" fill="white"/>
<path d="M53.2699 213.511L84.453 195.517C85.777 194.755 86.8502 195.367 86.8502 196.901V206.931C86.8046 207.763 86.5638 208.572 86.1474 209.294C85.7309 210.015 85.1505 210.628 84.453 211.084L53.2699 229.078C51.9459 229.85 50.8727 229.228 50.8727 227.693V217.663C50.9191 216.832 51.1601 216.023 51.5765 215.302C51.9929 214.58 52.5729 213.967 53.2699 213.511Z" fill="#071C54"/>
<path d="M63.6303 219.69C63.605 219.711 63.573 219.722 63.54 219.722C63.507 219.722 63.475 219.711 63.4497 219.69C63.3962 219.641 63.352 219.583 63.3193 219.519L60.8118 215.166V221.003C60.8123 221.094 60.7917 221.183 60.7517 221.264C60.7239 221.337 60.675 221.4 60.6113 221.445L60.2903 221.625C60.2715 221.644 60.2463 221.654 60.2201 221.654C60.1938 221.654 60.1686 221.644 60.1499 221.625C60.1238 221.601 60.1038 221.572 60.0915 221.539C60.0793 221.505 60.0753 221.47 60.0797 221.435V213.772C60.0777 213.68 60.1021 213.59 60.1499 213.511C60.1777 213.438 60.2265 213.375 60.2903 213.331L60.5611 213.17C60.5864 213.149 60.6184 213.137 60.6514 213.137C60.6844 213.137 60.7164 213.149 60.7417 213.17C60.7929 213.22 60.8368 213.278 60.872 213.341L63.3795 217.704V211.856C63.3804 211.766 63.401 211.677 63.4397 211.595C63.4675 211.522 63.5164 211.46 63.5801 211.415L63.9011 211.234C63.9224 211.217 63.9489 211.208 63.9763 211.208C64.0036 211.208 64.0302 211.217 64.0515 211.234C64.0741 211.26 64.0911 211.29 64.1014 211.323C64.1118 211.356 64.1153 211.391 64.1117 211.425V219.098C64.1099 219.188 64.0894 219.277 64.0515 219.359C64.0149 219.429 63.9636 219.49 63.9011 219.539L63.6303 219.69Z" fill="white"/>
<path d="M68.756 215.657C68.7774 215.64 68.8039 215.631 68.8313 215.631C68.8586 215.631 68.8851 215.64 68.9065 215.657C68.9501 215.711 68.9716 215.779 68.9667 215.848V216.279C68.9658 216.37 68.9452 216.459 68.9065 216.54C68.8786 216.616 68.8254 216.68 68.756 216.721L65.6467 218.516C65.6263 218.535 65.5995 218.546 65.5715 218.546C65.5436 218.546 65.5167 218.535 65.4963 218.516C65.4737 218.49 65.4568 218.46 65.4464 218.427C65.4361 218.394 65.4326 218.36 65.4361 218.325V210.663C65.4427 210.589 65.4631 210.518 65.4963 210.452C65.5242 210.376 65.5773 210.313 65.6467 210.271L68.6557 208.506C68.6771 208.489 68.7036 208.48 68.731 208.48C68.7583 208.48 68.7848 208.489 68.8062 208.506C68.8287 208.532 68.8457 208.562 68.8561 208.595C68.8664 208.628 68.8699 208.663 68.8664 208.697V209.128C68.8657 209.215 68.8451 209.301 68.8062 209.379C68.7783 209.454 68.7251 209.518 68.6557 209.559L66.1282 211.024V213.461L68.4852 212.097C68.5066 212.08 68.5331 212.07 68.5604 212.07C68.5878 212.07 68.6143 212.08 68.6357 212.097C68.6582 212.123 68.6752 212.153 68.6856 212.186C68.6959 212.219 68.6994 212.253 68.6959 212.287V212.719C68.6941 212.809 68.6736 212.898 68.6357 212.979C68.6024 213.052 68.5505 213.114 68.4852 213.16L66.1282 214.514V217.122L68.756 215.657Z" fill="white"/>
<path d="M71.785 211.646L70.3307 215.547C70.3307 215.607 70.2705 215.688 70.2304 215.778C70.186 215.875 70.1123 215.956 70.0198 216.009L69.6888 216.199C69.6714 216.212 69.6503 216.219 69.6286 216.219C69.6069 216.219 69.5858 216.212 69.5684 216.199C69.5684 216.199 69.5183 216.119 69.5183 216.039V215.989C69.5156 215.959 69.5156 215.928 69.5183 215.898L71.3337 211.004L69.5985 208.326C69.5895 208.286 69.5895 208.245 69.5985 208.205C69.6009 208.132 69.618 208.061 69.6487 207.995C69.6755 207.938 69.7171 207.889 69.769 207.854L70.1301 207.644C70.2404 207.583 70.3107 207.583 70.3608 207.644L70.4611 207.764L71.8352 209.87L73.1692 206.209L73.2695 205.969C73.3149 205.858 73.3962 205.766 73.5002 205.708L73.8312 205.517C73.8491 205.506 73.87 205.499 73.8913 205.499C73.9127 205.499 73.9336 205.506 73.9515 205.517C73.9872 205.559 74.0052 205.613 74.0017 205.668C74.0094 205.718 74.0094 205.768 74.0017 205.818L72.2865 210.512L74.102 213.29C74.1068 213.314 74.1068 213.338 74.102 213.361C74.1081 213.377 74.1081 213.395 74.102 213.411C74.0996 213.484 74.0826 213.555 74.0518 213.621C74.042 213.652 74.0263 213.68 74.0057 213.704C73.985 213.728 73.9598 213.748 73.9315 213.762L73.5704 213.972C73.4701 214.033 73.3898 214.043 73.3497 213.972L73.2494 213.852L71.785 211.646Z" fill="white"/>
<path d="M78.2642 202.929C78.284 202.913 78.3088 202.904 78.3344 202.904C78.36 202.904 78.3848 202.913 78.4046 202.929C78.4482 202.983 78.4697 203.051 78.4648 203.12V203.551C78.4639 203.642 78.4433 203.731 78.4046 203.812C78.3768 203.885 78.3279 203.948 78.2642 203.993L76.8199 204.825V211.746C76.819 211.836 76.7984 211.925 76.7597 212.007C76.7318 212.082 76.6786 212.146 76.6092 212.187L76.2983 212.368C76.2779 212.387 76.251 212.397 76.2231 212.397C76.1952 212.397 76.1683 212.387 76.1478 212.368C76.1253 212.342 76.1083 212.311 76.098 212.279C76.0876 212.246 76.0841 212.211 76.0877 212.177V205.256L74.6434 206.089C74.622 206.106 74.5955 206.115 74.5681 206.115C74.5408 206.115 74.5143 206.106 74.4929 206.089C74.4703 206.063 74.4534 206.033 74.443 206C74.4327 205.967 74.4292 205.933 74.4327 205.898V205.437C74.4323 205.347 74.4529 205.257 74.4929 205.176C74.5208 205.1 74.5739 205.037 74.6434 204.996L78.2642 202.929Z" fill="white"/>
<path d="M47.4922 173.04C46.8376 173.466 46.2928 174.04 45.9023 174.717C45.5119 175.393 45.2869 176.152 45.2455 176.932C45.2455 178.366 46.2485 178.938 47.4922 178.226C48.1469 177.8 48.6917 177.225 49.0821 176.549C49.4726 175.873 49.6977 175.114 49.739 174.334C49.739 172.9 48.736 172.338 47.4922 173.04Z" fill="#455A64"/>
<path d="M54.6131 168.918C53.9618 169.347 53.4195 169.922 53.0295 170.598C52.6395 171.273 52.4124 172.031 52.3664 172.809C52.3664 174.244 53.3694 174.815 54.6131 174.113C55.2645 173.684 55.8067 173.109 56.1967 172.433C56.5868 171.758 56.8138 171 56.8599 170.222C56.8599 168.787 55.8568 168.206 54.6131 168.918Z" fill="#455A64"/>
<path d="M61.735 164.806C61.0836 165.235 60.5414 165.81 60.1514 166.486C59.7614 167.161 59.5343 167.918 59.4883 168.697C59.4883 170.132 60.4913 170.703 61.735 169.991C62.3882 169.563 62.9324 168.988 63.3242 168.313C63.716 167.637 63.9446 166.879 63.9917 166.099C63.9917 164.665 62.9787 164.083 61.735 164.806Z" fill="#455A64"/>
<path d="M68.8559 160.683C68.2046 161.112 67.6623 161.688 67.2723 162.363C66.8823 163.039 66.6552 163.796 66.6092 164.575C66.6092 166.009 67.6122 166.581 68.8559 165.879C69.5091 165.451 70.0533 164.876 70.4451 164.2C70.8369 163.525 71.0655 162.767 71.1127 161.987C71.1127 160.553 70.0996 159.971 68.8559 160.683Z" fill="#455A64"/>
<path d="M75.9868 156.571C75.3336 156.999 74.7894 157.574 74.3976 158.249C74.0058 158.925 73.7772 159.683 73.7301 160.463C73.7301 161.897 74.7331 162.469 75.9868 161.756C76.6382 161.327 77.1804 160.752 77.5704 160.076C77.9604 159.401 78.1875 158.644 78.2335 157.865C78.2335 156.43 77.2205 155.849 75.9868 156.571Z" fill="#455A64"/>
<path d="M83.1087 152.449C82.4555 152.877 81.9113 153.452 81.5194 154.127C81.1276 154.803 80.8991 155.561 80.8519 156.34C80.8519 157.775 81.8549 158.346 83.1087 157.644C83.7613 157.214 84.3044 156.637 84.6945 155.96C85.0846 155.282 85.3109 154.523 85.3554 153.742C85.3554 152.278 84.3424 151.736 83.1087 152.449Z" fill="#455A64"/>
<path d="M90.2303 148.326C89.5776 148.757 89.0346 149.333 88.6445 150.011C88.2544 150.688 88.0281 151.448 87.9836 152.228C87.9836 153.662 88.9866 154.234 90.2303 153.522C90.8816 153.093 91.4239 152.517 91.8139 151.842C92.2039 151.166 92.431 150.409 92.477 149.63C92.477 148.196 91.464 147.614 90.2303 148.326Z" fill="#455A64"/>
<path d="M47.4922 193.832C46.8376 194.258 46.2928 194.832 45.9023 195.509C45.5119 196.185 45.2869 196.944 45.2455 197.724C45.2455 199.158 46.2485 199.73 47.4922 199.018C48.1469 198.592 48.6917 198.018 49.0821 197.341C49.4726 196.665 49.6977 195.906 49.739 195.126C49.739 193.692 48.736 193.11 47.4922 193.832Z" fill="#455A64"/>
<path d="M54.6131 189.71C53.9618 190.139 53.4195 190.715 53.0295 191.39C52.6395 192.066 52.4124 192.823 52.3664 193.602C52.3664 195.036 53.3694 195.608 54.6131 194.906C55.2658 194.475 55.8089 193.898 56.199 193.221C56.589 192.544 56.8154 191.784 56.8599 191.004C56.8599 189.58 55.8568 188.998 54.6131 189.71Z" fill="#455A64"/>
<path d="M61.7343 185.588C61.0797 186.017 60.5347 186.593 60.1429 187.271C59.751 187.948 59.5231 188.708 59.4775 189.489C59.4775 190.924 60.4805 191.495 61.7242 190.783C62.3774 190.355 62.9216 189.78 63.3134 189.105C63.7052 188.429 63.9338 187.671 63.981 186.891C63.991 185.457 62.978 184.875 61.7343 185.588Z" fill="#455A64"/>
<path d="M68.8559 181.475C68.2046 181.905 67.6623 182.48 67.2723 183.155C66.8823 183.831 66.6552 184.588 66.6092 185.367C66.6092 186.801 67.6122 187.373 68.8559 186.671C69.5104 186.242 70.0554 185.665 70.4473 184.988C70.8392 184.31 71.067 183.55 71.1127 182.769C71.1127 181.365 70.0996 180.753 68.8559 181.475Z" fill="#455A64"/>
<path d="M75.9868 177.353C75.3323 177.782 74.7873 178.359 74.3954 179.036C74.0035 179.714 73.7757 180.473 73.7301 181.255C73.7301 182.689 74.7331 183.261 75.9868 182.549C76.6382 182.119 77.1804 181.544 77.5704 180.868C77.9604 180.193 78.1875 179.436 78.2335 178.657C78.2335 177.223 77.2205 176.641 75.9868 177.353Z" fill="#455A64"/>
<path d="M83.1087 173.241C82.4555 173.669 81.9113 174.244 81.5194 174.919C81.1276 175.595 80.8991 176.353 80.8519 177.132C80.8519 178.567 81.8549 179.138 83.1087 178.436C83.7613 178.006 84.3044 177.429 84.6945 176.752C85.0846 176.074 85.3109 175.315 85.3554 174.535C85.3554 173.1 84.3424 172.519 83.1087 173.241Z" fill="#455A64"/>
<path d="M90.2303 169.118C89.5776 169.549 89.0346 170.126 88.6445 170.803C88.2544 171.48 88.0281 172.24 87.9836 173.02C87.9836 174.444 88.9866 175.026 90.2303 174.314C90.8816 173.885 91.4239 173.309 91.8139 172.634C92.2039 171.958 92.431 171.201 92.477 170.422C92.477 168.988 91.464 168.406 90.2303 169.118Z" fill="#455A64"/>
</svg>
