<svg width="47" height="47" viewBox="0 0 47 47" fill="none" xmlns="http://www.w3.org/2000/svg">
<path d="M44.0625 30.8438C44.8737 30.8438 45.5312 30.1862 45.5312 29.375C45.5312 28.5638 44.8737 27.9062 44.0625 27.9062C43.2513 27.9062 42.5938 28.5638 42.5938 29.375C42.5938 30.1862 43.2513 30.8438 44.0625 30.8438Z" fill="white"/>
<path d="M2.9375 30.8438C3.74867 30.8438 4.40625 30.1862 4.40625 29.375C4.40625 28.5638 3.74867 27.9062 2.9375 27.9062C2.12633 27.9062 1.46875 28.5638 1.46875 29.375C1.46875 30.1862 2.12633 30.8438 2.9375 30.8438Z" fill="white"/>
<path d="M35.25 38.1875C33.7042 38.1856 32.186 37.7771 30.848 37.0029C29.51 36.2287 28.3992 35.1161 27.6272 33.7769L25.0818 35.2456C27.1131 38.7559 30.9025 41.125 35.25 41.125C39.5975 41.125 43.3869 38.7574 45.4182 35.2456L42.8728 33.7769C42.1008 35.1161 40.99 36.2287 39.652 37.0029C38.314 37.7771 36.7958 38.1856 35.25 38.1875Z" fill="white"/>
<path d="M35.25 20.5625C36.7964 20.5655 38.3151 20.974 39.6544 21.7472C40.9938 22.5203 42.107 23.6311 42.8831 24.9688L45.4269 23.4985C43.331 19.8751 39.4315 17.625 35.25 17.625C31.0684 17.625 27.1689 19.8751 25.0598 23.522L19.3831 33.7812C17.8115 36.4984 14.8872 38.1875 11.75 38.1875C8.61272 38.1875 5.68844 36.4984 4.11688 33.7812L1.57153 35.2515C3.66891 38.8749 7.56844 41.125 11.75 41.125C15.9315 41.125 19.831 38.8749 21.9402 35.228L27.6169 24.9688C29.1884 22.2516 32.1127 20.5625 35.25 20.5625Z" fill="white"/>
<path d="M11.75 20.5625C13.2959 20.5644 14.814 20.9729 16.152 21.7471C17.49 22.5213 18.6008 23.6339 19.3728 24.9732L21.9182 23.5044C19.8869 19.9941 16.0975 17.625 11.75 17.625C7.4025 17.625 3.61313 19.9941 1.58185 23.5044L4.12719 24.9732C4.89921 23.6339 6.00999 22.5213 7.348 21.7471C8.68601 20.9729 10.2042 20.5644 11.75 20.5625ZM23.5 8.8125C25.4287 8.81128 27.3387 9.19108 29.1202 9.9301C30.9017 10.6691 32.5196 11.7528 33.8811 13.1189L35.955 11.045C32.7649 7.85194 28.3586 5.875 23.5 5.875C18.6414 5.875 14.2351 7.85194 11.0435 11.0435L13.1189 13.1189C14.4804 11.7528 16.0984 10.6691 17.8799 9.9301C19.6614 9.19108 21.5713 8.81128 23.5 8.8125Z" fill="white"/>
</svg>
