<svg width="24" height="10" viewBox="0 0 24 10" fill="none" xmlns="http://www.w3.org/2000/svg">
<path fill-rule="evenodd" clip-rule="evenodd" d="M1.76585 3.42972C1.43088 3.69837 1.10235 3.97297 0.781817 4.25834C0.537419 4.47621 0.105006 4.73673 0.0173246 5.06651C-0.0739083 5.40904 0.213998 5.72981 0.441303 5.93691C1.64376 7.03265 2.99783 7.77355 4.66399 7.89667C7.22961 8.0864 9.46249 7.4374 11.6885 6.16072C13.2521 5.26372 14.2878 3.93713 14.514 2.14578C16.3762 2.91219 18.1771 3.96879 19.7077 5.26548C20.4628 5.90525 21.1132 6.61427 21.7148 7.3998C22.1001 7.90326 22.4728 8.41464 22.8187 8.9458C22.969 9.17664 23.1219 9.58578 23.3701 9.71857C23.6615 9.87489 24.0138 9.62997 23.9994 9.30921C23.9872 9.04209 23.6962 8.73232 23.5599 8.51401C23.3339 8.15147 23.1044 7.79136 22.8626 7.43871C22.4715 6.86798 22.0673 6.30516 21.6264 5.77092C20.6355 4.57075 19.3749 3.57922 18.0681 2.73367C15.5611 1.1116 12.8097 0.0897297 9.75927 0.00310815C7.88356 -0.0500959 6.30574 0.584621 4.70173 1.5324C3.70305 2.1227 2.67218 2.70289 1.76585 3.42972Z" fill="#DDE3E9"/>
</svg>
