<svg width="2" height="6" viewBox="0 0 2 6" fill="none" xmlns="http://www.w3.org/2000/svg">
<path d="M1.06283 4.59487C1.05707 4.6933 1.05707 4.79197 1.06283 4.8904C1.06562 4.96396 1.09048 5.03497 1.13417 5.09422C1.1486 5.11922 1.16941 5.13995 1.19448 5.15427C1.21955 5.1686 1.24797 5.17601 1.27684 5.17575C1.36024 5.16713 1.44048 5.13922 1.51123 5.09422L1.80677 4.92097C1.82282 4.90858 1.84253 4.90186 1.86282 4.90186C1.8831 4.90186 1.90281 4.90858 1.91887 4.92097C1.91887 4.92097 1.91887 4.99232 1.91887 5.05346V5.32862C1.93403 5.39227 1.93403 5.45858 1.91887 5.52224C1.89263 5.57473 1.85419 5.62016 1.80677 5.65472L1.46028 5.85854C1.13417 6.04198 0.899771 6.05217 0.746906 5.85854C0.568186 5.55056 0.493163 5.1933 0.532897 4.83944V2.59744L0.115072 2.84203C0.100612 2.8536 0.0826375 2.85991 0.064114 2.85991C0.0455905 2.85991 0.0276238 2.8536 0.0131639 2.84203C-0.00438796 2.79961 -0.00438796 2.75196 0.0131639 2.70954V2.42419C-0.00042406 2.3638 -0.00042406 2.30114 0.0131639 2.24075C0.0331485 2.1874 0.0686398 2.14127 0.115072 2.10828L0.532897 1.87387V0.45733C0.518593 0.397021 0.518593 0.33421 0.532897 0.273901C0.556164 0.219516 0.595215 0.17336 0.644998 0.141413L0.848822 0.0191267C0.864877 0.00673121 0.884589 0 0.904873 0C0.925156 0 0.944868 0.00673121 0.960923 0.0191267C0.974268 0.0622793 0.974268 0.108462 0.960923 0.151614V1.56816L1.67429 1.15032C1.68875 1.13875 1.70672 1.13244 1.72524 1.13244C1.74377 1.13244 1.76173 1.13875 1.77619 1.15032C1.78572 1.1729 1.79063 1.19715 1.79063 1.22165C1.79063 1.24616 1.78572 1.27042 1.77619 1.293V1.56816C1.78978 1.62855 1.78978 1.6912 1.77619 1.75159C1.75621 1.80493 1.72072 1.85107 1.67429 1.88407L0.960923 2.30191L1.06283 4.59487Z" fill="#455A64"/>
</svg>
