<svg width="3" height="5" viewBox="0 0 3 5" fill="none" xmlns="http://www.w3.org/2000/svg">
<path d="M0.0427047 2.81762C0.0749168 2.27228 0.206879 1.73747 0.432046 1.23974C0.531185 1.01068 0.662266 0.796809 0.821387 0.604504C0.964387 0.428149 1.13791 0.278929 1.33368 0.163938C1.49566 0.0592777 1.68388 0.00245137 1.87671 0C2.03492 0.0118781 2.18212 0.0854585 2.28655 0.204899C2.41375 0.363056 2.50155 0.54918 2.5427 0.74793C2.60941 1.02981 2.6404 1.31896 2.63491 1.60858V1.84425C2.63116 1.91193 2.61373 1.97816 2.58368 2.03892C2.56417 2.09287 2.52836 2.13942 2.48122 2.17212L0.544751 3.28892V3.34014C0.526372 3.47764 0.537911 3.6175 0.578583 3.75013C0.619256 3.88275 0.688098 4.00502 0.780402 4.10858C0.923845 4.24178 1.10827 4.23153 1.33368 4.10858C1.51302 4.00823 1.66993 3.87226 1.79475 3.70901C1.88956 3.56429 1.97512 3.41371 2.0509 3.25819L2.12262 3.11473C2.15259 3.08256 2.18711 3.05495 2.22508 3.03278L2.39926 2.94057C2.41448 2.92615 2.43464 2.91812 2.45561 2.91812C2.47657 2.91812 2.49674 2.92615 2.51196 2.94057C2.52154 2.96326 2.52648 2.98766 2.52648 3.01229C2.52648 3.03693 2.52154 3.06129 2.51196 3.08399C2.49229 3.22049 2.45794 3.35448 2.4095 3.4836C2.35372 3.65248 2.27805 3.81414 2.18409 3.96515C2.07427 4.13532 1.95092 4.29636 1.81524 4.44671C1.65958 4.60542 1.48392 4.74318 1.2927 4.85654C1.13754 4.94863 0.960818 4.99813 0.780402 5C0.632712 4.9798 0.495839 4.91136 0.391061 4.80533C0.264259 4.67296 0.172666 4.5109 0.124666 4.33399C0.0478908 4.10245 0.006447 3.86069 0.00172024 3.6168C-0.00514747 3.34975 0.00855514 3.08257 0.0427047 2.81762ZM0.544751 2.56147L2.12262 1.63935C2.13787 1.50984 2.12666 1.37858 2.08968 1.25353C2.05269 1.12849 1.9907 1.01224 1.90746 0.911868C1.82589 0.847036 1.72476 0.811748 1.62057 0.811748C1.51637 0.811748 1.41525 0.847036 1.33368 0.911868C1.21771 0.979586 1.11383 1.06615 1.02631 1.16802C0.930618 1.28493 0.848144 1.41206 0.780402 1.54711C0.619136 1.86419 0.538218 2.21602 0.544751 2.5717V2.56147Z" fill="#455A64"/>
</svg>
