<svg width="54" height="54" viewBox="0 0 54 54" fill="none" xmlns="http://www.w3.org/2000/svg">
<g clip-path="url(#clip0_73_412)">
<path d="M25.7341 32.1741C27.4421 32.1741 29.0801 31.4956 30.2879 30.2879M25.7341 32.1741C24.0261 32.1741 22.3881 31.4956 21.1803 30.2879M25.7341 32.1741V37.0041M30.2879 30.2879C31.4956 29.0801 32.1741 27.4421 32.1741 25.7341M30.2879 30.2879L33.7021 33.7021M32.1741 25.7341C32.1741 24.0261 31.4956 22.3881 30.2879 21.1803M32.1741 25.7341H37.0041M30.2879 21.1803C29.0801 19.9726 27.4421 19.2941 25.7341 19.2941M30.2879 21.1803L33.7021 17.7661M25.7341 19.2941C24.0261 19.2941 22.3881 19.9726 21.1803 21.1803M25.7341 19.2941V14.4641M21.1803 21.1803C19.9726 22.3881 19.2941 24.0261 19.2941 25.7341M21.1803 21.1803L17.7661 17.7661M19.2941 25.7341C19.2941 27.4421 19.9726 29.0801 21.1803 30.2879M19.2941 25.7341H14.4641M21.1803 30.2879L17.7661 33.7021M24.6601 14.4641H26.8081M32.9441 17.0061L34.4621 18.5261M37.0041 24.6601V26.8081M34.4621 32.9441L32.9441 34.4621M26.8081 37.0041H24.6601M18.5241 34.4621L17.0061 32.9441M14.4641 26.8081V24.6601M17.0061 18.5241L18.5241 17.0061" stroke="white" stroke-width="2.5" stroke-linecap="round" stroke-linejoin="round"/>
<path d="M51 51L39.688 39.688M25.734 45.468C36.634 45.468 45.468 36.632 45.468 25.734C45.468 14.834 36.632 6 25.734 6C14.834 6 6 14.836 6 25.734C6 36.634 14.836 45.468 25.734 45.468Z" stroke="white" stroke-width="2.5" stroke-linecap="round" stroke-linejoin="round"/>
</g>
<defs>
<clipPath id="clip0_73_412">
<rect width="48" height="48" fill="white" transform="translate(3 3)"/>
</clipPath>
</defs>
</svg>
