<svg width="3" height="5" viewBox="0 0 3 5" fill="none" xmlns="http://www.w3.org/2000/svg">
<path d="M0.505099 3.25737C0.51555 3.43982 0.55022 3.62008 0.608186 3.79339C0.645168 3.90348 0.708919 4.00266 0.793723 4.08201C0.862013 4.14224 0.950068 4.17527 1.04112 4.1748C1.1394 4.17147 1.23519 4.14308 1.31943 4.09233C1.5025 3.98188 1.6605 3.83442 1.7833 3.6594C1.92288 3.44861 2.02408 3.21478 2.08223 2.96874C2.09995 2.88665 2.12765 2.80704 2.16469 2.73166C2.19079 2.68711 2.22591 2.64849 2.26778 2.61828L2.44301 2.52551C2.45925 2.51297 2.47918 2.50616 2.4997 2.50616C2.52022 2.50616 2.54016 2.51297 2.5564 2.52551C2.57379 2.57204 2.57379 2.62329 2.5564 2.66982C2.541 2.84067 2.50993 3.00975 2.46362 3.17492C2.40808 3.38758 2.32492 3.59204 2.21624 3.78309C2.10853 3.99326 1.9771 4.19038 1.82453 4.37064C1.67293 4.56075 1.48776 4.72147 1.2782 4.84481C1.11297 4.95237 0.918605 5.00635 0.721575 4.99943C0.566117 4.98989 0.419484 4.92392 0.309244 4.81389C0.212124 4.6773 0.14214 4.52332 0.103087 4.36034C0.0383722 4.12514 0.00372969 3.88269 0 3.63878C0 3.546 0 3.43261 0 3.29861C0 3.16461 0 3.0409 0 2.93782C0.0123774 2.64984 0.0503234 2.36352 0.113389 2.08225C0.175911 1.814 0.262151 1.55184 0.37109 1.29885C0.478099 1.06359 0.613077 0.842088 0.773102 0.639135C0.930838 0.451076 1.119 0.29079 1.32975 0.164959C1.49117 0.0563854 1.68153 -0.00107186 1.87607 4.19842e-05C2.01815 -0.00161285 2.15648 0.0456971 2.26778 0.134036C2.38264 0.210989 2.46943 0.323127 2.51516 0.453598C2.56546 0.582382 2.59671 0.71781 2.60793 0.855611C2.62156 0.920183 2.62156 0.986877 2.60793 1.05145C2.57808 1.10227 2.53974 1.1476 2.49456 1.18546L2.31931 1.27823C2.30364 1.28728 2.28587 1.29204 2.26778 1.29204C2.24969 1.29204 2.23191 1.28728 2.21624 1.27823C2.21624 1.27823 2.16469 1.21638 2.13377 1.13392C2.10285 1.05145 1.95853 0.814371 1.83483 0.783447C1.67142 0.760961 1.50558 0.801501 1.37097 0.896836C1.26481 0.958649 1.17057 1.03894 1.09266 1.13392C0.993874 1.24814 0.90749 1.37254 0.834964 1.50501C0.755873 1.6701 0.693699 1.84278 0.649411 2.02041C0.593995 2.23266 0.562875 2.45054 0.556643 2.66982C0.529806 2.8647 0.512602 3.06079 0.505099 3.25737Z" fill="#455A64"/>
</svg>
