<svg width="3" height="7" viewBox="0 0 3 7" fill="none" xmlns="http://www.w3.org/2000/svg">
<path d="M1.26746 2.252C1.42422 2.13854 1.61944 2.09154 1.81066 2.12123C1.9376 2.15559 2.04815 2.23405 2.12249 2.34253V0.451414C2.10908 0.391804 2.10908 0.329967 2.12249 0.270357C2.14222 0.217704 2.17726 0.172156 2.22309 0.139584L2.42427 0.0188793C2.44012 0.00664413 2.45957 0 2.47959 0C2.49961 0 2.51907 0.00664413 2.53492 0.0188793C2.54433 0.041163 2.54916 0.0650821 2.54916 0.0892697C2.54916 0.113457 2.54433 0.137407 2.53492 0.159691V5.75256C2.54904 5.81209 2.54904 5.87408 2.53492 5.93361C2.51195 5.98729 2.47341 6.03285 2.42427 6.06439L2.22309 6.18509C2.20882 6.19652 2.19108 6.20277 2.17279 6.20277C2.15451 6.20277 2.13677 6.19652 2.12249 6.18509C2.11309 6.16281 2.10823 6.13889 2.10823 6.1147C2.10823 6.09051 2.11309 6.06656 2.12249 6.04428V5.78273C2.04264 5.99231 1.93795 6.19156 1.81066 6.37622C1.6643 6.57241 1.47946 6.73671 1.26746 6.85907C1.12427 6.95335 0.956053 7.00243 0.784628 6.99991C0.635755 6.99099 0.495696 6.92632 0.392323 6.81882C0.265881 6.68089 0.172938 6.51569 0.120723 6.336C0.0527739 6.08322 0.0156206 5.82313 0.010072 5.56143C-0.00335733 5.3739 -0.00335733 5.18565 0.010072 4.99812C0.0202672 4.69368 0.0572947 4.39074 0.120723 4.09281C0.185326 3.81975 0.276289 3.55361 0.392323 3.29813C0.497127 3.075 0.628877 2.86555 0.784628 2.67447C0.920048 2.50689 1.08339 2.36398 1.26746 2.252ZM2.12249 4.42475C2.12858 4.31418 2.12858 4.20338 2.12249 4.09281C2.12832 3.97888 2.12832 3.86473 2.12249 3.7508C2.14699 3.46635 2.06449 3.18298 1.89114 2.95612C1.80948 2.89167 1.70848 2.85663 1.60445 2.85663C1.50042 2.85663 1.39942 2.89167 1.31776 2.95612C1.05682 3.11963 0.855709 3.36309 0.744398 3.65021C0.595116 4.00019 0.516478 4.37624 0.513028 4.75671V5.22949C0.493914 5.52905 0.575347 5.82642 0.744398 6.07446C0.885226 6.22534 1.07634 6.2354 1.31776 6.07446C1.56933 5.92083 1.76635 5.69215 1.88107 5.42062C2.03339 5.11031 2.1158 4.77036 2.12249 4.42475Z" fill="#455A64"/>
</svg>
