<svg width="6" height="11" viewBox="0 0 6 11" fill="none" xmlns="http://www.w3.org/2000/svg">
<path d="M0.00900228 5.90503C0.0284278 5.35542 0.103073 4.80916 0.23181 4.27449C0.357933 3.74173 0.544825 3.22522 0.788821 2.73511C1.02742 2.25317 1.32696 1.80387 1.68005 1.39827C2.01893 0.996195 2.42289 0.653854 2.8751 0.385509C3.23246 0.153912 3.6448 0.0211204 4.07015 0.000656814C4.39424 -0.00950236 4.71098 0.0984792 4.96138 0.304487C5.22732 0.547238 5.42023 0.859401 5.51839 1.20584C5.66098 1.64463 5.73944 2.10172 5.75133 2.56294C5.75133 2.96805 5.75133 3.38328 5.75133 3.82889C5.75133 4.2745 5.75133 4.68972 5.75133 5.0847C5.72777 5.63457 5.64974 6.18076 5.51839 6.71523C5.39068 7.24752 5.20385 7.76387 4.96138 8.25463C4.72773 8.73941 4.42777 9.18933 4.07015 9.59146C3.73182 9.99408 3.32775 10.3365 2.8751 10.6042C2.51772 10.8372 2.1059 10.9733 1.68005 10.9992C1.35406 11.0104 1.03582 10.8983 0.788821 10.6852C0.526461 10.4395 0.334215 10.1284 0.23181 9.78388C0.0929254 9.34105 0.0179002 8.88069 0.00900228 8.41667C0.00900228 8.04195 0.00900228 7.62672 0.00900228 7.18111C0.00900228 6.7355 -0.0112528 6.31013 0.00900228 5.90503ZM4.06003 6.01643C4.06003 5.84426 4.06003 5.65185 4.06003 5.43917C4.06003 5.22649 4.06003 5.01381 4.06003 4.80113C4.06003 4.58845 4.06003 4.37577 4.06003 4.17322C4.06003 3.97067 4.06003 3.7985 4.06003 3.63646C4.05342 3.43438 4.02282 3.23379 3.96887 3.03893C3.9305 2.89297 3.85354 2.76004 3.74607 2.65409C3.69961 2.60776 3.64426 2.5713 3.58334 2.54693C3.52242 2.52257 3.4572 2.51079 3.3916 2.5123C3.21487 2.52202 3.04377 2.5779 2.89536 2.67435C2.70599 2.78132 2.53781 2.92204 2.39911 3.08957C2.25789 3.25583 2.13874 3.43966 2.04464 3.63646C1.94781 3.84409 1.87313 4.06134 1.82184 4.28463C1.77031 4.51431 1.7398 4.74821 1.73068 4.98343C1.73068 5.1556 1.73068 5.33789 1.73068 5.55057C1.73068 5.76325 1.73068 5.9658 1.73068 6.17848C1.73068 6.39115 1.73068 6.60384 1.73068 6.81652C1.73068 7.0292 1.73068 7.20136 1.73068 7.3634C1.71385 7.72729 1.82492 8.08559 2.04464 8.37615C2.23706 8.58883 2.52064 8.57871 2.89536 8.37615C3.27414 8.15883 3.57253 7.8249 3.74607 7.42416C3.92714 6.97619 4.0266 6.49943 4.03977 6.01643H4.06003Z" fill="white"/>
</svg>
