<svg width="37" height="37" viewBox="0 0 37 37" fill="none" xmlns="http://www.w3.org/2000/svg">
<path d="M26.9791 13.875C25.957 13.875 24.9766 13.4689 24.2538 12.7461C23.531 12.0233 23.125 11.043 23.125 10.0208C23.125 8.9986 23.531 8.01828 24.2538 7.29549C24.9766 6.57269 25.957 6.16663 26.9791 6.16663C28.0013 6.16663 28.9817 6.57269 29.7045 7.29549C30.4272 8.01828 30.8333 8.9986 30.8333 10.0208C30.8333 11.043 30.4272 12.0233 29.7045 12.7461C28.9817 13.4689 28.0013 13.875 26.9791 13.875ZM22.2462 12.5645L3.08331 31.7429L5.25706 33.9166L24.4354 14.7537C23.5104 14.245 22.755 13.4895 22.2462 12.5645ZM20.0416 7.70829L21.0129 5.59621L23.125 4.62496L21.0129 3.65371L20.0416 1.54163L19.0858 3.65371L16.9583 4.62496L19.0858 5.59621L20.0416 7.70829ZM32.375 7.70829L33.3462 5.59621L35.4583 4.62496L33.3462 3.65371L32.375 1.54163L31.4191 3.65371L29.2916 4.62496L31.4191 5.59621L32.375 7.70829ZM32.375 13.875L31.4191 15.987L29.2916 16.9583L31.4191 17.9295L32.375 20.0416L33.3462 17.9295L35.4583 16.9583L33.3462 15.987L32.375 13.875Z" fill="#171717"/>
</svg>
