<svg width="3" height="6" viewBox="0 0 3 6" fill="none" xmlns="http://www.w3.org/2000/svg">
<path d="M2.75515 4.1773C2.75239 4.25149 2.73326 4.32415 2.69915 4.39009C2.67426 4.44703 2.63582 4.49702 2.58716 4.53568L2.35198 4.65886C2.35198 4.65886 2.27359 4.65886 2.23999 4.65886C2.2211 4.6083 2.2211 4.55264 2.23999 4.50208V1.99348C2.28533 1.65941 2.20555 1.32036 2.016 1.04155C1.87415 0.88476 1.66136 0.88476 1.37765 1.04155C1.10261 1.21845 0.88477 1.4713 0.750502 1.76949C0.582349 2.15385 0.502007 2.57087 0.51532 2.99019V5.49879C0.531186 5.56883 0.531186 5.64154 0.51532 5.71158C0.490368 5.77172 0.447312 5.82261 0.392129 5.85717L0.16814 5.98038C0.15225 5.9931 0.132506 6.00003 0.11215 6.00003C0.0917937 6.00003 0.072041 5.9931 0.0561506 5.98038C0.0180336 5.93726 -0.00201317 5.88109 0.000159878 5.82358V1.3999C0.00426838 1.32591 0.0233113 1.25356 0.0561506 1.18714C0.0781687 1.13153 0.117414 1.08441 0.16814 1.05272L0.392129 0.918339C0.392129 0.918339 0.481723 0.918339 0.51532 0.918339C0.548918 0.918339 0.51532 0.996739 0.51532 1.06393V1.35512C0.609461 1.13129 0.725763 0.917433 0.862492 0.716763C1.02284 0.485951 1.23344 0.294499 1.47845 0.156805C1.64147 0.0598657 1.82643 0.00590023 2.016 0C2.17007 0.00318476 2.31758 0.0630114 2.43038 0.168015C2.56531 0.313624 2.66157 0.490737 2.71035 0.683167C2.78389 0.956896 2.81783 1.23975 2.81114 1.5231L2.75515 4.1773Z" fill="#455A64"/>
</svg>
