<svg width="33" height="44" viewBox="0 0 33 44" fill="none" xmlns="http://www.w3.org/2000/svg">
<path d="M16.5 0C7.39749 0 0 7.67076 0 17.1095C0 22.8697 3.21749 27.6889 6.95749 31.0537C8.13998 32.1088 10.2025 33.7912 12.045 36.2721C14.08 39.0382 15.9225 42.0038 16.5 43.9999C17.0775 42.0038 18.92 39.0382 20.955 36.2721C22.7975 33.7912 24.86 32.1088 26.0424 31.0537C29.7824 27.6889 32.9999 22.8697 32.9999 17.1095C32.9999 7.67076 25.6024 0 16.5 0ZM16.5 7.30005C17.7423 7.30005 18.9724 7.55378 20.1201 8.04675C21.2679 8.53972 22.3107 9.26228 23.1892 10.1732C24.0676 11.0841 24.7644 12.1654 25.2398 13.3556C25.7153 14.5457 25.9599 15.8213 25.9599 17.1095C25.9599 18.3977 25.7153 19.6733 25.2398 20.8634C24.7644 22.0535 24.0676 23.1349 23.1892 24.0458C22.3107 24.9567 21.2679 25.6793 20.1201 26.1722C18.9724 26.6652 17.7423 26.9189 16.5 26.9189C13.991 26.9189 11.5848 25.8854 9.81075 24.0458C8.03666 22.2062 7.03999 19.7111 7.03999 17.1095C7.03999 14.5079 8.03666 12.0128 9.81075 10.1732C11.5848 8.33354 13.991 7.30005 16.5 7.30005Z" fill="#071C54"/>
</svg>
