<svg width="3" height="7" viewBox="0 0 3 7" fill="none" xmlns="http://www.w3.org/2000/svg">
<path d="M1.45752 1.08816C1.62372 0.982716 1.81684 0.927556 2.01366 0.929276C2.17513 0.942863 2.32721 1.01091 2.44496 1.12224C2.58762 1.27787 2.69248 1.46427 2.7514 1.66701C2.82876 1.95595 2.87068 2.25323 2.87625 2.5523C2.88236 2.65435 2.88236 2.75671 2.87625 2.85877C2.88211 2.96462 2.88211 3.07071 2.87625 3.17656C2.86474 3.52006 2.82297 3.86188 2.7514 4.19804C2.67851 4.50613 2.57588 4.80643 2.44496 5.09469C2.32925 5.34887 2.18452 5.58878 2.01366 5.8097C1.86237 6.00152 1.67302 6.15996 1.45752 6.27505C1.28231 6.40706 1.0619 6.46422 0.844623 6.43396C0.699042 6.4003 0.572616 6.31057 0.492781 6.18426V6.47934C0.509666 6.55023 0.509666 6.6241 0.492781 6.69499C0.466868 6.75556 0.423376 6.80696 0.367932 6.84254L0.140929 6.97873C0.123048 6.99254 0.101095 7.00003 0.0785048 7.00003C0.0559146 7.00003 0.03397 6.99254 0.0160889 6.97873C0.00547561 6.95359 0 6.9266 0 6.89931C0 6.87202 0.00547561 6.845 0.0160889 6.81985V0.509337C0.000158717 0.44217 0.000158717 0.372216 0.0160889 0.305048C0.0391554 0.24277 0.0833284 0.190551 0.140929 0.157494L0.367932 0.0213018C0.385813 0.00749667 0.407766 0 0.430356 0C0.452946 0 0.4749 0.00749667 0.492781 0.0213018C0.512328 0.0685421 0.512328 0.12158 0.492781 0.168821V2.3026C0.58363 2.07359 0.701762 1.85637 0.844623 1.65565C1.00586 1.42472 1.21488 1.23117 1.45752 1.08816ZM0.492781 4.65203C0.479288 4.95568 0.57603 5.25397 0.765175 5.4919C0.855531 5.56372 0.967548 5.60281 1.08297 5.60281C1.19839 5.60281 1.31041 5.56372 1.40076 5.4919C1.69519 5.30742 1.92211 5.03272 2.04771 4.70876C2.21259 4.31276 2.30116 3.8892 2.30876 3.46031C2.32012 3.28267 2.32012 3.10449 2.30876 2.92686C2.32693 2.59277 2.23524 2.26189 2.04771 1.9848C1.88881 1.80321 1.67316 1.80321 1.40076 1.9848C1.11691 2.15814 0.894609 2.41617 0.765175 2.72254C0.595535 3.10155 0.502943 3.5105 0.492781 3.92562C0.492781 4.02777 0.492781 4.16397 0.492781 4.32287C0.487329 4.43252 0.487329 4.54238 0.492781 4.65203Z" fill="#455A64"/>
</svg>
