<svg width="12" height="13" viewBox="0 0 12 13" fill="none" xmlns="http://www.w3.org/2000/svg">
<path d="M11.6229 8.25457L4.99778 12.7528C4.9048 12.8161 4.80034 12.8602 4.6904 12.8828C4.58046 12.9053 4.4672 12.9058 4.35708 12.8841C4.24697 12.8625 4.14217 12.8191 4.04869 12.7566C3.95521 12.694 3.87489 12.6135 3.81232 12.5196L0 6.8119L0.610609 3.94704L6.20771 0.147022C6.30072 0.083807 6.40518 0.0396925 6.51511 0.0171981C6.62503 -0.00529621 6.73827 -0.00572865 6.84837 0.0159258C6.95846 0.0375803 7.06324 0.0808973 7.15673 0.143401C7.25021 0.205904 7.33055 0.286368 7.39318 0.380196L11.8545 7.05987C11.9171 7.15364 11.9608 7.25894 11.983 7.36973C12.0053 7.48053 12.0057 7.59466 11.9841 7.70561C11.9626 7.81655 11.9197 7.92214 11.8577 8.01633C11.7957 8.11052 11.7159 8.19148 11.6229 8.25457Z" fill="#071C54"/>
<path opacity="0.29" d="M0.611596 3.94679L0.000986112 6.81184L1.76734 5.65527L0.611596 3.94679Z" fill="#FFFFFA"/>
<g opacity="0.88">
<path d="M8.86775 4.51094C8.86201 4.51669 8.85571 4.52184 8.84894 4.52631L2.62956 8.71432C2.60329 8.73008 2.57202 8.73507 2.54221 8.72824C2.51241 8.7214 2.48634 8.70328 2.46942 8.67761C2.4525 8.65195 2.44601 8.62071 2.4513 8.59035C2.45659 8.56 2.47325 8.53285 2.49784 8.51454L8.7174 4.32653C8.74196 4.31022 8.77164 4.30364 8.80071 4.30807C8.82979 4.31249 8.85622 4.32761 8.87491 4.3505C8.8936 4.37339 8.90322 4.40245 8.90193 4.43207C8.90065 4.46169 8.88855 4.48978 8.86795 4.51094H8.86775Z" fill="white"/>
<path d="M9.75446 5.81113C9.74872 5.81688 9.74241 5.82203 9.73564 5.8265L3.51607 10.0145C3.48981 10.0303 3.45854 10.0353 3.42873 10.0284C3.39892 10.0216 3.37286 10.0035 3.35594 9.9778C3.33902 9.95214 3.33253 9.92089 3.33781 9.89054C3.3431 9.86018 3.35977 9.83304 3.38435 9.81472L9.60392 5.62672C9.62847 5.61041 9.65815 5.60383 9.68723 5.60826C9.71631 5.61268 9.74274 5.6278 9.76142 5.65069C9.78011 5.67358 9.78973 5.70263 9.78845 5.73226C9.78716 5.76188 9.77506 5.78997 9.75446 5.81113Z" fill="white"/>
<path d="M7.09963 9.29852C7.09389 9.30427 7.08757 9.30942 7.0808 9.31389L4.32319 11.1715C4.3102 11.1812 4.29541 11.1881 4.2797 11.1918C4.26399 11.1955 4.24768 11.196 4.23179 11.1932C4.21589 11.1904 4.20074 11.1843 4.18723 11.1754C4.17372 11.1665 4.16214 11.1549 4.15321 11.1414C4.14427 11.1278 4.13816 11.1126 4.13525 11.0966C4.13233 11.0806 4.13268 11.0641 4.13626 11.0483C4.13983 11.0324 4.14657 11.0174 4.15606 11.0043C4.16555 10.9911 4.1776 10.98 4.19146 10.9717L6.95022 9.11411C6.97478 9.09779 7.00444 9.09122 7.03352 9.09564C7.0626 9.10007 7.08903 9.11518 7.10771 9.13807C7.1264 9.16097 7.13603 9.19002 7.13475 9.21964C7.13346 9.24926 7.12135 9.27736 7.10075 9.29852H7.09963Z" fill="white"/>
</g>
</svg>
