<svg width="11" height="11" viewBox="0 0 11 11" fill="none" xmlns="http://www.w3.org/2000/svg">
<path d="M8.56983 10.8408L0.702305 9.40542C0.479309 9.36469 0.281485 9.23633 0.152342 9.04857C0.0231985 8.8608 -0.0266885 8.629 0.0136525 8.40416L1.23029 1.62572L3.65187 0L10.2979 1.21283C10.5208 1.25351 10.7187 1.38183 10.8478 1.56956C10.977 1.7573 11.0269 1.98908 10.9865 2.2139L9.56268 10.1465C9.54273 10.2578 9.50122 10.3641 9.44052 10.4592C9.37982 10.5544 9.30112 10.6366 9.20892 10.701C9.11672 10.7655 9.01282 10.8111 8.90316 10.835C8.79351 10.859 8.68024 10.861 8.56983 10.8408Z" fill="#367CFF"/>
<path opacity="0.29" d="M3.65204 0L1.23045 1.62572L3.29848 2.03917L3.65204 0Z" fill="#FFFFFA"/>
<g opacity="0.88">
<path d="M9.18507 6.21568C9.17711 6.21589 9.16916 6.21525 9.16133 6.21378L1.79938 4.84104C1.76828 4.83525 1.74074 4.81724 1.72281 4.79097C1.70488 4.7647 1.69804 4.73232 1.70378 4.70097C1.70953 4.66961 1.72739 4.64184 1.75345 4.62377C1.7795 4.60569 1.8116 4.59879 1.8427 4.60458L9.20466 5.97733C9.2336 5.98279 9.25953 5.99886 9.27743 6.02244C9.29533 6.04602 9.30393 6.07545 9.30159 6.10505C9.29925 6.13465 9.28613 6.16233 9.26476 6.18276C9.24338 6.20318 9.21526 6.21491 9.18582 6.21568H9.18507Z" fill="white"/>
<path d="M8.9208 7.77263C8.91279 7.77274 8.90478 7.77211 8.89688 7.77073L1.53511 6.39799C1.51921 6.39567 1.50393 6.39012 1.4902 6.38171C1.47646 6.37329 1.46456 6.36217 1.45519 6.349C1.44582 6.33583 1.43919 6.32089 1.43568 6.30508C1.43218 6.28927 1.43187 6.2729 1.43479 6.25696C1.43771 6.24103 1.44379 6.22585 1.45266 6.21234C1.46153 6.19883 1.47302 6.18726 1.48643 6.17834C1.49985 6.16941 1.51491 6.1633 1.53072 6.16038C1.54653 6.15746 1.56276 6.15779 1.57844 6.16135L8.9402 7.53409C8.96935 7.53935 8.99552 7.55535 9.0136 7.57899C9.03169 7.60263 9.04041 7.63221 9.03806 7.66197C9.03571 7.69173 9.02246 7.71955 9.00089 7.74C8.97932 7.76045 8.95097 7.77208 8.92137 7.77263H8.9208Z" fill="white"/>
<path d="M4.6017 8.40604C4.59375 8.40626 4.58579 8.40562 4.57797 8.40414L1.31252 7.79526C1.29661 7.79294 1.28133 7.7874 1.2676 7.77899C1.25387 7.77057 1.24196 7.75944 1.23259 7.74627C1.22323 7.73311 1.21659 7.71817 1.21309 7.70235C1.20958 7.68654 1.20928 7.67017 1.2122 7.65423C1.21511 7.6383 1.22119 7.62312 1.23007 7.60961C1.23894 7.5961 1.25043 7.58454 1.26384 7.57561C1.27725 7.56668 1.29231 7.56057 1.30812 7.55765C1.32393 7.55473 1.34016 7.55506 1.35584 7.55862L4.62129 8.16769C4.65024 8.17315 4.67616 8.18922 4.69406 8.2128C4.71196 8.23638 4.72057 8.26581 4.71823 8.29541C4.71589 8.32501 4.70277 8.3527 4.68139 8.37312C4.66001 8.39355 4.6319 8.40528 4.60245 8.40604H4.6017Z" fill="white"/>
</g>
<path d="M9.21999 4.95046C9.19087 4.95042 9.16181 4.94775 9.13315 4.94248L7.54017 4.64962C7.47734 4.63809 7.41739 4.61415 7.36376 4.57917C7.31013 4.5442 7.26389 4.49889 7.22769 4.44583C7.19149 4.39278 7.16605 4.33303 7.15283 4.27003C7.1396 4.20703 7.13886 4.14202 7.15064 4.07873L7.41831 2.37324C7.4415 2.24675 7.51306 2.13451 7.61757 2.06072C7.72208 1.98693 7.85116 1.9575 7.97699 1.97878L9.57486 2.25417C9.63825 2.26497 9.69887 2.28838 9.75319 2.32304C9.80751 2.35771 9.85445 2.40292 9.89127 2.45606C9.92808 2.5092 9.95404 2.56919 9.96763 2.63254C9.98122 2.69589 9.98217 2.76134 9.97043 2.82506L9.69786 4.54935C9.67702 4.66186 9.61787 4.76351 9.53062 4.83674C9.44338 4.90997 9.33351 4.95019 9.21999 4.95046ZM7.8958 2.16167C7.82664 2.16187 7.7597 2.1863 7.70643 2.23079C7.65317 2.27528 7.61691 2.33705 7.60384 2.40553L7.33618 4.11101C7.32863 4.14989 7.32881 4.18989 7.33672 4.2287C7.34462 4.26751 7.36008 4.30435 7.38221 4.33709C7.40434 4.36982 7.4327 4.3978 7.46563 4.4194C7.49857 4.44101 7.53543 4.4558 7.57408 4.46293L9.16706 4.75579C9.24408 4.76944 9.32334 4.75204 9.38777 4.70736C9.4522 4.66267 9.49666 4.59428 9.51157 4.51687L9.78451 2.79126C9.79177 2.75226 9.79127 2.71219 9.78302 2.67339C9.77477 2.63459 9.75895 2.59783 9.73648 2.56525C9.71401 2.53268 9.68533 2.50493 9.65212 2.48364C9.6189 2.46235 9.58182 2.44793 9.54303 2.44123L7.94515 2.16585C7.92885 2.16306 7.91234 2.16166 7.8958 2.16167Z" fill="white"/>
</svg>
