<svg width="9" height="9" viewBox="0 0 9 9" fill="none" xmlns="http://www.w3.org/2000/svg">
<path fill-rule="evenodd" clip-rule="evenodd" d="M0 4.51392C0 2.03167 2.02544 0 4.49997 0V4.51392L1.42469 7.79952C0.549897 6.99617 0 5.81777 0 4.51392Z" fill="#F2F2F2"/>
<path fill-rule="evenodd" clip-rule="evenodd" d="M4.38079 4.45682H8.92508C8.92508 5.62028 8.44583 6.71043 7.68826 7.50264C6.85509 8.36906 5.66868 8.91369 4.38079 8.91369C3.19437 8.91369 2.10852 8.44371 1.27513 7.70075L4.38079 4.45682Z" fill="#AFB9C5"/>
<path fill-rule="evenodd" clip-rule="evenodd" d="M8.99995 4.45687C8.99995 2.00604 6.97451 0 4.49997 0V4.45687H8.99995ZM2.24999 0L4.04998 4.01118L0 2.22843C0.400498 1.18865 1.29982 0.396661 2.24999 0Z" fill="#C5CFD6"/>
</svg>
