<svg width="4" height="7" viewBox="0 0 4 7" fill="none" xmlns="http://www.w3.org/2000/svg">
<path d="M1.86678 6.53143C1.88105 6.59159 1.88105 6.65424 1.86678 6.7144C1.84947 6.76902 1.81348 6.81581 1.76513 6.84655L1.53133 6.9787C1.5247 6.98547 1.51679 6.99084 1.50806 6.99451C1.49934 6.99818 1.48997 7.00006 1.4805 7.00006C1.47103 7.00006 1.46167 6.99818 1.45294 6.99451C1.44421 6.99084 1.4363 6.98547 1.42967 6.9787C1.41253 6.93282 1.41253 6.88228 1.42967 6.83639V4.80335L0.00654791 2.0994C-0.0012551 2.06596 -0.0012551 2.03117 0.00654791 1.99774C-0.00218264 1.94388 -0.00218264 1.88897 0.00654791 1.83511C0.0289546 1.79473 0.060233 1.75997 0.0980311 1.73345L0.342002 1.59114C0.413158 1.59114 0.463978 1.54031 0.494474 1.59114C0.526997 1.62031 0.554476 1.65466 0.575797 1.6928L1.59232 3.83766L2.60884 0.503452C2.60884 0.442461 2.60885 0.381483 2.68 0.310326C2.71852 0.244989 2.77497 0.192061 2.84265 0.157839L3.08661 0.0155264C3.09779 0.00552474 3.11227 0 3.12728 0C3.14228 0 3.15675 0.00552474 3.16793 0.0155264C3.17548 0.0331989 3.17938 0.0522255 3.17938 0.0714431C3.17938 0.0906608 3.17548 0.109672 3.16793 0.127344C3.1746 0.174547 3.1746 0.222454 3.16793 0.269657L1.82613 4.50855L1.86678 6.53143Z" fill="#455A64"/>
</svg>
