<svg width="446" height="142" viewBox="0 0 446 142" fill="none" xmlns="http://www.w3.org/2000/svg">
<path d="M357.831 119.896C406.525 119.896 446 97.1033 446 68.9866C446 40.87 406.525 18.077 357.831 18.077C309.137 18.077 269.662 40.87 269.662 68.9866C269.662 97.1033 309.137 119.896 357.831 119.896Z" fill="#E6E6E6"/>
<path d="M1.91399 113.992L27.3939 128.713C28.8307 129.439 30.4178 129.817 32.0275 129.817C33.6371 129.817 35.2243 129.439 36.6611 128.713L222.926 21.1694C225.488 19.6982 225.488 17.2964 222.926 15.8252L197.446 1.10374C196.01 0.378057 194.422 0 192.813 0C191.203 0 189.616 0.378057 188.179 1.10374L1.91399 108.648C-0.637997 110.129 -0.637997 112.521 1.91399 113.992Z" fill="#E0E0E0"/>
<path d="M47.5296 116.594L57.5374 122.378C58.9728 123.109 60.5605 123.489 62.171 123.489C63.7815 123.489 65.3693 123.109 66.8047 122.378L236.017 24.6221C238.579 23.1409 238.579 20.7491 236.017 19.2679L226.009 13.4834C224.574 12.7578 222.988 12.3798 221.38 12.3798C219.772 12.3798 218.187 12.7578 216.752 13.4834L47.5296 111.25C44.9776 112.721 44.9776 115.113 47.5296 116.594Z" fill="#E0E0E0"/>
<path opacity="0.15" d="M242.832 91.6043C242.422 94.1263 241.131 96.8884 242.512 99.0301C244.333 101.872 249.297 101.032 251.088 103.924C252.55 106.266 250.568 109.528 247.946 110.369C245.324 111.21 242.472 110.369 239.88 109.468C235.164 107.796 230.556 105.837 226.079 103.604C223.337 102.223 220.495 100.711 217.422 100.741C214.35 100.771 211.057 103.043 211.117 106.116C211.197 109.688 215.441 111.66 219.013 111.72C222.586 111.78 226.329 110.819 229.642 112.16C230.837 112.568 231.823 113.431 232.384 114.562C232.645 115.133 232.697 115.776 232.533 116.381C232.368 116.987 231.997 117.515 231.483 117.875C230.542 118.415 229.301 118.185 228.371 118.745C227.638 119.348 227.05 120.107 226.649 120.967C224.718 123.869 220.795 124.5 217.332 124.87C211.738 125.481 205.953 126.061 200.579 124.38C196.826 123.209 192.573 121.037 189.32 123.229C186.668 125.03 186.048 130.284 189.04 131.916C192.743 133.917 197.417 134.017 201.47 133.317C206.203 132.486 210.667 130.575 215.21 128.993C216.872 128.413 219.113 128.063 220.044 129.554C220.293 130.03 220.395 130.569 220.338 131.104C220.281 131.638 220.068 132.143 219.724 132.556C219.035 133.36 218.191 134.017 217.242 134.488C212.238 137.42 206.914 140.192 201.159 141.133C194.434 142.244 186.828 140.793 182.145 135.468C179.527 132.421 178.036 128.566 177.921 124.55C177.861 122.608 178.482 120.877 178.642 119.016C178.668 116.561 178.444 114.109 177.971 111.7C177.421 107.557 176.35 103.323 177.321 99.2603C178.232 95.9861 180.096 93.0565 182.675 90.8437C184.414 89.3205 186.278 87.9478 188.249 86.7405C189.521 85.758 190.731 84.6986 191.872 83.5681C195.225 80.8259 199.878 79.0846 203.982 77.7135C211.928 75.0214 221.065 73.8304 229.101 76.8228C235.576 79.1946 244.223 83.2578 242.832 91.6043Z" fill="black"/>
</svg>
