<svg width="3" height="5" viewBox="0 0 3 5" fill="none" xmlns="http://www.w3.org/2000/svg">
<path d="M0.0157563 2.81734C0.0258131 2.5404 0.0670546 2.26549 0.138694 1.99778C0.204255 1.73751 0.293405 1.48376 0.405049 1.23968C0.508029 1.01266 0.638799 0.799313 0.794349 0.604517C0.936842 0.42771 1.11044 0.278412 1.30658 0.16399C1.46645 0.0549006 1.65602 -0.00233304 1.84954 7.28558e-05C1.92749 0.00295523 2.00403 0.0217083 2.07449 0.0551758C2.14495 0.0886432 2.20784 0.136125 2.25933 0.194723C2.38449 0.357959 2.47196 0.546893 2.51544 0.747941C2.58215 1.02979 2.61313 1.3189 2.60764 1.60848V1.83387C2.62288 1.89785 2.62288 1.96453 2.60764 2.02852C2.58425 2.08319 2.545 2.12957 2.49495 2.16169L0.558719 3.27836V3.32957C0.542749 3.46856 0.555415 3.60935 0.595939 3.74326C0.636464 3.87716 0.703992 4.00136 0.794349 4.10817C0.872685 4.17137 0.970298 4.20584 1.07095 4.20584C1.1716 4.20584 1.26922 4.17137 1.34756 4.10817C1.53117 4.01407 1.68932 3.877 1.80856 3.70863C1.91061 3.57215 1.99655 3.42432 2.06468 3.26811C2.08271 3.21556 2.11052 3.16689 2.14664 3.12468C2.17142 3.08736 2.20723 3.05871 2.24908 3.04272L2.41299 2.94029C2.43012 2.9304 2.44956 2.92519 2.46934 2.92519C2.48912 2.92519 2.50855 2.9304 2.52568 2.94029C2.53655 2.96263 2.54221 2.98714 2.54221 3.01199C2.54221 3.03684 2.53655 3.06137 2.52568 3.08371C2.51015 3.21995 2.47923 3.35398 2.43348 3.48325C2.36961 3.65052 2.29075 3.81168 2.19786 3.96475C2.09061 4.13668 1.96711 4.29792 1.82905 4.44625C1.67608 4.60789 1.50001 4.74597 1.30658 4.85602C1.15497 4.95609 0.975872 5.00624 0.794349 4.99945C0.645187 4.98422 0.50673 4.91499 0.405049 4.8048C0.281781 4.66987 0.190717 4.50875 0.138694 4.33355C0.0610707 4.10579 0.0195871 3.86727 0.0157563 3.62667C-0.00525209 3.35731 -0.00525209 3.08671 0.0157563 2.81734ZM0.51774 2.55099L2.10566 1.63922C2.1219 1.51051 2.11017 1.37981 2.07128 1.25604C2.03238 1.13228 1.96723 1.01837 1.88027 0.922097C1.73685 0.788917 1.54221 0.799162 1.30658 0.922097C1.18736 0.989452 1.08285 1.08002 0.999238 1.18845C0.901076 1.30352 0.818418 1.43095 0.753369 1.5675C0.68307 1.71626 0.624832 1.87043 0.579213 2.02852C0.543596 2.1971 0.523021 2.36852 0.51774 2.54075V2.55099Z" fill="#455A64"/>
</svg>
