<svg width="3" height="5" viewBox="0 0 3 5" fill="none" xmlns="http://www.w3.org/2000/svg">
<path d="M0.555442 3.27549C0.562482 3.45564 0.593375 3.63408 0.64729 3.80611C0.683458 3.92071 0.750533 4.02309 0.841153 4.10201C0.908754 4.16163 0.995921 4.19434 1.08606 4.19387C1.1824 4.17896 1.27555 4.14789 1.36157 4.10201C1.5403 3.99364 1.69625 3.85157 1.82075 3.68367C1.95889 3.4713 2.05902 3.23648 2.11666 2.98977C2.13108 2.90766 2.15864 2.82844 2.19829 2.7551C2.22427 2.7139 2.25914 2.67903 2.30034 2.65305L2.4738 2.55101C2.48828 2.53942 2.50628 2.5331 2.52483 2.5331C2.54337 2.5331 2.56137 2.53942 2.57585 2.55101C2.58658 2.57147 2.59218 2.59423 2.59218 2.61734C2.59218 2.64044 2.58658 2.6632 2.57585 2.68367C2.56983 2.85645 2.54241 3.02783 2.49422 3.19387C2.43737 3.40376 2.35513 3.60593 2.24931 3.7959C2.1404 4.00259 2.01046 4.19751 1.86156 4.37754C1.70605 4.55758 1.52362 4.71245 1.32074 4.8367C1.15651 4.94279 0.965254 4.99946 0.769733 4.99997C0.614197 4.98875 0.468543 4.91956 0.361578 4.80609C0.23856 4.66952 0.150961 4.50484 0.106477 4.3265C0.0432532 4.0935 0.00897531 3.85362 0.00443076 3.61224C-0.00147692 3.49667 -0.00147692 3.38087 0.00443076 3.2653C0.00443076 3.13265 0.00443076 3.02041 0.00443076 2.91837C0.0160222 2.63323 0.0535932 2.34973 0.116676 2.07142C0.177017 1.80544 0.262432 1.54576 0.371776 1.2959C0.477682 1.05983 0.611271 0.837184 0.769733 0.632645C0.92397 0.4446 1.11057 0.285647 1.32074 0.163268C1.48206 0.0590355 1.66951 0.00244135 1.86156 0C1.99939 0.00465105 2.13283 0.0496952 2.2453 0.129512C2.35777 0.209329 2.44433 0.320407 2.49422 0.44898C2.54575 0.579019 2.5734 0.71728 2.57585 0.857135C2.59465 0.916916 2.59465 0.981019 2.57585 1.0408C2.55847 1.09563 2.52234 1.14259 2.4738 1.17346L2.30034 1.2755C2.30034 1.2755 2.2289 1.2755 2.19829 1.2755C2.15398 1.23993 2.12481 1.1889 2.11666 1.13266C2.04523 0.938787 1.9432 0.816311 1.82075 0.785699C1.65899 0.76344 1.49482 0.803587 1.36157 0.89796C1.25283 0.958139 1.15601 1.03769 1.07586 1.13266C0.975827 1.24558 0.893273 1.37283 0.830955 1.51021C0.752587 1.67007 0.69104 1.83762 0.64729 2.0102C0.593972 2.22062 0.563174 2.43612 0.555442 2.65305C0.544504 2.86039 0.544504 3.06815 0.555442 3.27549Z" fill="#071C54"/>
</svg>
