<svg width="184" height="42" viewBox="0 0 184 42" fill="none" xmlns="http://www.w3.org/2000/svg">
<path d="M125.444 32.2668C125.756 32.085 126.141 32.085 126.452 32.2668L135.104 37.3171C135.865 37.7613 136.787 37.0755 136.58 36.219L134.308 26.8003C134.219 26.431 134.347 26.0432 134.638 25.7993L142.175 19.484C142.861 18.9099 142.506 17.7939 141.615 17.7208L131.627 16.9013C131.261 16.8712 130.941 16.6427 130.793 16.306L126.864 7.34011C126.514 6.54193 125.382 6.54193 125.032 7.3401L121.103 16.306C120.956 16.6427 120.635 16.8712 120.269 16.9013L110.281 17.7208C109.39 17.7939 109.036 18.9099 109.721 19.484L117.258 25.7993C117.549 26.0432 117.677 26.431 117.588 26.8003L115.316 36.219C115.11 37.0755 116.032 37.7613 116.793 37.3171L125.444 32.2668Z" fill="#FCA311"/>
<path d="M160.632 32.2668C160.943 32.085 161.329 32.085 161.64 32.2668L170.292 37.3171C171.053 37.7613 171.975 37.0755 171.768 36.219L169.496 26.8003C169.407 26.431 169.535 26.0432 169.826 25.7993L177.363 19.484C178.048 18.9099 177.694 17.7939 176.803 17.7208L166.815 16.9013C166.449 16.8712 166.128 16.6427 165.981 16.306L162.052 7.34011C161.702 6.54193 160.57 6.54193 160.22 7.3401L156.291 16.306C156.144 16.6427 155.823 16.8712 155.457 16.9013L145.469 17.7208C144.578 17.7939 144.224 18.9099 144.909 19.484L152.446 25.7993C152.737 26.0432 152.865 26.431 152.776 26.8003L150.504 36.219C150.298 37.0755 151.219 37.7613 151.98 37.3171L160.632 32.2668Z" fill="#FCA311"/>
<path d="M90.2562 32.2668C90.5677 32.085 90.953 32.085 91.2645 32.2668L99.9159 37.3171C100.677 37.7613 101.599 37.0755 101.392 36.219L99.1204 26.8003C99.0313 26.431 99.1591 26.0432 99.4503 25.7993L106.988 19.484C107.673 18.9099 107.318 17.7939 106.427 17.7208L96.4394 16.9013C96.0731 16.8712 95.7528 16.6427 95.6052 16.306L91.6762 7.34011C91.3265 6.54193 90.1942 6.54193 89.8444 7.3401L85.9154 16.306C85.7679 16.6427 85.4476 16.8712 85.0813 16.9013L75.0935 17.7208C74.2026 17.7939 73.8479 18.9099 74.533 19.484L82.0704 25.7993C82.3615 26.0432 82.4893 26.431 82.4003 26.8003L80.1285 36.219C79.9219 37.0755 80.8438 37.7613 81.6047 37.3171L90.2562 32.2668Z" fill="#FCA311"/>
<path d="M55.0683 32.2668C55.3798 32.085 55.7651 32.085 56.0766 32.2668L64.7281 37.3171C65.489 37.7613 66.4109 37.0755 66.2043 36.219L63.9325 26.8003C63.8434 26.431 63.9712 26.0432 64.2624 25.7993L71.7997 19.484C72.4849 18.9099 72.1302 17.7939 71.2393 17.7208L61.2515 16.9013C60.8852 16.8712 60.5649 16.6427 60.4174 16.306L56.4884 7.34011C56.1386 6.54193 55.0063 6.54193 54.6565 7.3401L50.7275 16.306C50.58 16.6427 50.2597 16.8712 49.8934 16.9013L39.9056 17.7208C39.0148 17.7939 38.66 18.9099 39.3452 19.484L46.8825 25.7993C47.1737 26.0432 47.3015 26.431 47.2124 26.8003L44.9406 36.219C44.734 37.0755 45.6559 37.7613 46.4169 37.3171L55.0683 32.2668Z" fill="#FCA311"/>
<path d="M19.8805 32.2668C20.192 32.085 20.5772 32.085 20.8887 32.2668L29.5402 37.3171C30.3012 37.7613 31.2231 37.0755 31.0165 36.219L28.7446 26.8003C28.6556 26.431 28.7834 26.0432 29.0745 25.7993L36.6119 19.484C37.297 18.9099 36.9423 17.7939 36.0514 17.7208L26.0636 16.9013C25.6973 16.8712 25.377 16.6427 25.2295 16.306L21.3005 7.34011C20.9507 6.54193 19.8184 6.54193 19.4687 7.3401L15.5397 16.306C15.3922 16.6427 15.0718 16.8712 14.7055 16.9013L4.71776 17.7208C3.8269 17.7939 3.47215 18.9099 4.15731 19.484L11.6947 25.7993C11.9858 26.0432 12.1136 26.431 12.0246 26.8003L9.75273 36.219C9.54612 37.0755 10.468 37.7613 11.229 37.3171L19.8805 32.2668Z" fill="#FCA311"/>
</svg>
