<svg width="90" height="90" viewBox="0 0 90 90" fill="none" xmlns="http://www.w3.org/2000/svg">
<path d="M38.4112 61.1712C38.4112 61.1735 38.4084 61.1747 38.4067 61.173L23.9139 46.6768C23.133 45.8957 23.1331 44.6295 23.914 43.8485L26.3885 41.374C27.1695 40.5931 28.4356 40.593 29.2167 41.3738L36.9969 49.1512C37.778 49.9321 39.0443 49.9319 39.8252 49.1509L58.207 30.7658C58.9881 29.9846 60.2545 29.9846 61.0356 30.7657L63.5132 33.2433C64.2943 34.0243 64.2942 35.2907 63.5131 36.0718L38.412 61.1693C38.4115 61.1698 38.4112 61.1705 38.4112 61.1712Z" fill="#071C54"/>
<path fill-rule="evenodd" clip-rule="evenodd" d="M3.75 45C3.75 22.2188 22.2188 3.75 45 3.75C67.7812 3.75 86.25 22.2188 86.25 45C86.25 67.7812 67.7812 86.25 45 86.25C22.2188 86.25 3.75 67.7812 3.75 45ZM45 78.75C40.5679 78.75 36.1792 77.877 32.0844 76.1809C27.9897 74.4848 24.2691 71.9988 21.1351 68.8649C18.0012 65.7309 15.5152 62.0103 13.8191 57.9156C12.123 53.8208 11.25 49.4321 11.25 45C11.25 40.5679 12.123 36.1792 13.8191 32.0844C15.5152 27.9897 18.0012 24.2691 21.1351 21.1351C24.2691 18.0012 27.9897 15.5152 32.0844 13.8191C36.1792 12.123 40.5679 11.25 45 11.25C53.9511 11.25 62.5355 14.8058 68.8649 21.1351C75.1942 27.4645 78.75 36.0489 78.75 45C78.75 53.9511 75.1942 62.5355 68.8649 68.8649C62.5355 75.1942 53.9511 78.75 45 78.75Z" fill="#071C54"/>
</svg>
