<svg width="3" height="6" viewBox="0 0 3 6" fill="none" xmlns="http://www.w3.org/2000/svg">
<path d="M2.56031e-05 5.11878C-0.00109961 4.85781 0.0348689 4.59802 0.106861 4.34717C0.16617 4.10822 0.262275 3.87993 0.391754 3.67052C0.512495 3.4579 0.655774 3.25891 0.819111 3.07696C0.981428 2.89884 1.15596 2.73224 1.34144 2.57838L2.25551 1.81864V1.68806C2.25551 1.33984 2.1843 1.12617 2.04184 1.04703C1.95968 0.99665 1.86517 0.96999 1.7688 0.96999C1.67242 0.96999 1.57793 0.99665 1.49577 1.04703C1.31595 1.14529 1.16464 1.28844 1.05655 1.46252C0.959298 1.63363 0.875925 1.81227 0.807247 1.99671C0.784622 2.05073 0.756801 2.1024 0.724159 2.15103C0.685626 2.19234 0.641704 2.22829 0.593577 2.25788L0.403636 2.36471C0.384934 2.37915 0.361964 2.38697 0.338336 2.38697C0.314709 2.38697 0.291756 2.37915 0.273054 2.36471C0.253032 2.31112 0.253032 2.25211 0.273054 2.19852C0.28924 2.01991 0.32915 1.84425 0.391754 1.67619C0.458229 1.47544 0.54999 1.28397 0.6648 1.10639C0.777987 0.919887 0.909199 0.744938 1.05655 0.584059C1.19811 0.429688 1.36219 0.297611 1.54325 0.192312C1.70683 0.084965 1.89443 0.0197135 2.08932 0.00237155C2.24334 -0.0114341 2.39668 0.0354176 2.51668 0.132954C2.64875 0.261118 2.74669 0.420265 2.80159 0.595923C2.8689 0.85556 2.90083 1.12309 2.89654 1.39128V4.46589C2.91224 4.54025 2.91224 4.61706 2.89654 4.69142C2.87283 4.75386 2.8261 4.80485 2.76596 4.83389L2.52854 4.97634C2.52854 4.97634 2.43359 4.97634 2.40984 4.97634C2.38896 4.95675 2.37277 4.93271 2.36249 4.90598C2.35222 4.87926 2.34811 4.85054 2.35048 4.82201V4.40653C2.31392 4.56118 2.25386 4.7093 2.17241 4.84575C2.09131 4.99327 1.99589 5.13244 1.88752 5.26125C1.78273 5.38165 1.67178 5.49655 1.55513 5.6055L1.2346 5.84292C1.09093 5.93156 0.928108 5.98448 0.759771 5.99725C0.635155 6.00943 0.509992 5.98023 0.403636 5.91416C0.297404 5.83294 0.21867 5.72105 0.178084 5.59363C0.0885429 5.44838 0.0280752 5.2871 2.56031e-05 5.11878ZM1.18713 4.97634C1.34835 4.87731 1.49263 4.75307 1.61449 4.60834C1.75184 4.45894 1.8677 4.29114 1.95874 4.10976C2.05605 3.92229 2.1279 3.72268 2.17241 3.5162C2.22014 3.30588 2.24405 3.09083 2.24365 2.87516V2.62588L1.47202 3.25504C1.22385 3.45805 1.00423 3.69364 0.819111 3.95543C0.673789 4.16541 0.591425 4.41252 0.581694 4.6677C0.568265 4.73429 0.568265 4.8029 0.581694 4.8695C0.591703 4.93147 0.625851 4.98697 0.676665 5.02383C0.737733 5.04767 0.805538 5.04767 0.866606 5.02383C0.97964 5.0367 1.09409 5.02034 1.19899 4.97634H1.18713Z" fill="#455A64"/>
</svg>
