<svg width="3" height="8" viewBox="0 0 3 8" fill="none" xmlns="http://www.w3.org/2000/svg">
<path d="M2.58327 5.72409C2.59972 5.70851 2.62152 5.69982 2.64418 5.69982C2.66683 5.69982 2.68863 5.70851 2.70509 5.72409C2.72376 5.77408 2.72376 5.82915 2.70509 5.87914V6.21136C2.72156 6.28053 2.72156 6.35261 2.70509 6.42178C2.67658 6.47882 2.6348 6.52819 2.58327 6.56575L0.124751 7.98327C0.108361 7.99422 0.0890966 8.00007 0.0693845 8.00007C0.0496723 8.00007 0.0303994 7.99422 0.0140092 7.98327C-0.00466972 7.93328 -0.00466972 7.87821 0.0140092 7.82821V1.75947C-0.000756683 1.69385 -0.000756683 1.62577 0.0140092 1.56014C0.0319777 1.50017 0.0713992 1.44892 0.124751 1.41617L2.53897 0.0207848C2.55641 0.00731472 2.57784 0 2.59988 0C2.62192 0 2.64334 0.00731472 2.66079 0.0207848C2.67682 0.0674348 2.67682 0.118107 2.66079 0.164757V0.50806C2.67116 0.574102 2.67116 0.64135 2.66079 0.707391C2.63494 0.76614 2.59263 0.816149 2.53897 0.851364L0.534507 2.01416V3.98543L2.40607 2.878C2.42179 2.86541 2.44132 2.85853 2.46145 2.85853C2.48158 2.85853 2.50111 2.86541 2.51682 2.878C2.5359 2.92409 2.5359 2.97584 2.51682 3.02193V3.36524C2.53055 3.4347 2.53055 3.50619 2.51682 3.57565C2.49505 3.63064 2.45623 3.67724 2.40607 3.70857L0.534507 4.81601V6.86475L2.58327 5.72409Z" fill="#455A64"/>
</svg>
