<svg width="6" height="2" viewBox="0 0 6 2" fill="none" xmlns="http://www.w3.org/2000/svg">
<path d="M5.77175 1.05252C5.8252 1.04744 5.87561 1.02539 5.91563 0.989605C5.95565 0.953822 5.9832 0.906181 5.9942 0.853636C6.00519 0.80109 5.99908 0.746404 5.97677 0.697575C5.95447 0.648746 5.9171 0.608347 5.87018 0.582265C4.96336 0.172454 3.97522 -0.0257435 2.98051 0.00267687C1.9858 0.0310972 1.01057 0.285385 0.12863 0.746302C0.0709966 0.778571 0.0283986 0.832188 0.00998256 0.895621C-0.00843347 0.959054 -0.00118553 1.02721 0.0302077 1.08532C0.0460249 1.11405 0.0675497 1.13921 0.0934531 1.15932C0.119356 1.17942 0.149113 1.19404 0.180862 1.20224C0.212611 1.21043 0.245686 1.21203 0.278083 1.20698C0.310479 1.20192 0.341489 1.19028 0.36923 1.1728C1.18766 0.7642 2.08564 0.539742 3.00007 0.515181C3.9145 0.49062 4.82323 0.666546 5.66242 1.03062C5.69551 1.04965 5.73389 1.05735 5.77175 1.05252Z" fill="#263238"/>
</svg>
