<svg width="63" height="64" viewBox="0 0 63 64" fill="none" xmlns="http://www.w3.org/2000/svg">
<g clip-path="url(#clip0_66_150)">
<path d="M19.2611 30.6238V43.7117H32.349L29.6195 40.9822H21.9906V33.3533L19.2611 30.6238Z" fill="white"/>
<path d="M54.567 50.9312L50.6502 46.9598V50.5354H12.4375V44.8717H15.1669V42.6881H12.4375V33.6126H15.1669V31.429H12.4375V22.6947H15.1669V20.5111H12.4375V12.8822L34.1914 34.5133V30.6648L12.0417 8.62419C11.8508 8.43172 11.6069 8.30046 11.3411 8.24714C11.0754 8.19382 10.7997 8.22086 10.5494 8.32481C10.299 8.42875 10.0853 8.6049 9.93544 8.83079C9.78559 9.05669 9.7064 9.32209 9.70798 9.59316V51.9002C9.70798 52.2621 9.85176 52.6092 10.1077 52.8652C10.3636 53.1211 10.7108 53.2649 11.0727 53.2649H53.5981C53.8691 53.2665 54.1345 53.1873 54.3604 53.0374C54.5863 52.8876 54.7625 52.6739 54.8664 52.4235C54.9704 52.1732 54.9974 51.8975 54.9441 51.6317C54.8908 51.366 54.7595 51.1221 54.567 50.9312Z" fill="white"/>
<path d="M39.7323 47.806H45.1912C45.9152 47.806 46.6094 47.5184 47.1213 47.0065C47.6332 46.4946 47.9207 45.8004 47.9207 45.0765V18.737L44.7818 12.9641C44.5391 12.5435 44.1885 12.1953 43.7663 11.9554C43.344 11.7155 42.8655 11.5926 42.3799 11.5994C41.8833 11.6033 41.3972 11.7426 40.974 12.0024C40.5507 12.2621 40.2063 12.6323 39.9779 13.0733L37.0028 18.7643V45.0765C37.0028 45.8004 37.2904 46.4946 37.8022 47.0065C38.3141 47.5184 39.0084 47.806 39.7323 47.806ZM39.7323 19.4193L42.3799 14.2743L45.1912 19.433V39.6175H39.7323V19.4193ZM39.7323 41.842H45.1912V45.172H39.7323V41.842Z" fill="white"/>
</g>
<defs>
<clipPath id="clip0_66_150">
<rect width="49" height="49" fill="white" transform="translate(6.97847 6.86372) scale(1.00267)"/>
</clipPath>
</defs>
</svg>
