<svg width="122" height="100" viewBox="0 0 122 100" fill="none" xmlns="http://www.w3.org/2000/svg">
<path d="M115.278 0.206124H6.72288C3.12317 0.206124 0.205023 3.1484 0.205023 6.77788V92.9106C0.205023 96.54 3.12317 99.4823 6.72288 99.4823H115.278C118.877 99.4823 121.796 96.54 121.796 92.9106V6.77788C121.796 3.1484 118.877 0.206124 115.278 0.206124Z" fill="white"/>
<path d="M115.277 99.6887H6.72271C4.94033 99.6868 3.2315 98.972 1.97117 97.7013C0.710831 96.4305 0.00192778 94.7076 0 92.9104V6.77831C0.00192778 4.98118 0.710831 3.25822 1.97117 1.98747C3.2315 0.716709 4.94033 0.00194373 6.72271 0L115.277 0C117.06 0.00199346 118.769 0.716774 120.029 1.98752C121.289 3.25827 121.998 4.9812 122 6.77831V92.9106C121.998 94.7077 121.289 96.4306 120.029 97.7013C118.769 98.972 117.06 99.6867 115.277 99.6887ZM6.72271 0.412535C5.04886 0.414479 3.44412 1.08579 2.26055 2.27918C1.07697 3.47258 0.411217 5.09061 0.409339 6.77831V92.9106C0.411266 94.5983 1.07704 96.2163 2.26061 97.4096C3.44418 98.603 5.04889 99.2743 6.72271 99.2762H115.277C116.951 99.2743 118.556 98.603 119.74 97.4097C120.923 96.2163 121.589 94.5983 121.591 92.9106V6.77831C121.589 5.0906 120.923 3.47254 119.74 2.27913C118.556 1.08572 116.951 0.414429 115.277 0.412535H6.72271Z" fill="#292A2E"/>
</svg>
