<svg width="3" height="6" viewBox="0 0 3 6" fill="none" xmlns="http://www.w3.org/2000/svg">
<path d="M2.5634e-05 5.03693C-0.00109283 4.78337 0.0343951 4.53098 0.1054 4.28757C0.174756 4.05563 0.268961 3.83186 0.386397 3.62016C0.510606 3.41379 0.651587 3.21798 0.807912 3.03473C0.970874 2.86186 1.14284 2.69771 1.3231 2.54296L2.23638 1.79361V1.66481C2.23638 1.32526 2.16614 1.1145 2.01393 1.02083C1.93205 0.973556 1.83916 0.948667 1.74461 0.948667C1.65007 0.948667 1.55719 0.973556 1.47532 1.02083C1.30225 1.11936 1.15717 1.26041 1.0538 1.43064C0.951139 1.5917 0.868556 1.76471 0.807912 1.94583C0.784473 2.00456 0.752961 2.05974 0.714258 2.10975C0.68073 2.15054 0.641252 2.18606 0.597163 2.21512L0.398118 2.3205C0.381504 2.3338 0.360853 2.34104 0.33957 2.34104C0.318288 2.34104 0.297637 2.3338 0.281023 2.3205C0.267664 2.29736 0.260638 2.27111 0.260638 2.24439C0.260638 2.21767 0.267664 2.19143 0.281023 2.1683C0.285513 1.9917 0.321184 1.81728 0.386397 1.65311C0.461727 1.45919 0.551768 1.27129 0.655711 1.09108C0.768512 0.904856 0.902059 0.73204 1.0538 0.57591C1.19239 0.423872 1.34977 0.290084 1.52214 0.1778C1.68748 0.0823683 1.87094 0.022553 2.06075 0.00217631C2.21622 -0.0108744 2.37089 0.0351109 2.49397 0.130973C2.62924 0.251311 2.72343 0.411001 2.76328 0.587612C2.83995 0.841829 2.87552 1.10666 2.86866 1.37209V4.42807C2.88427 4.49745 2.88427 4.56943 2.86866 4.63882C2.84966 4.70222 2.80797 4.75641 2.75156 4.79104L2.51739 4.93153C2.49895 4.94578 2.47631 4.95351 2.453 4.95351C2.4297 4.95351 2.40704 4.94578 2.38859 4.93153C2.36843 4.8828 2.36843 4.82807 2.38859 4.77933V4.42807C2.34835 4.5811 2.28519 4.72715 2.20125 4.86128C2.11844 5.00502 2.02449 5.14205 1.92025 5.2711C1.82003 5.39269 1.71041 5.50622 1.59241 5.61064C1.49577 5.69985 1.38977 5.77838 1.27627 5.84483C1.13715 5.92864 0.981211 5.98061 0.819632 5.99703C0.694965 6.01064 0.569702 5.97724 0.468367 5.90336C0.357653 5.8318 0.274962 5.7243 0.234196 5.59894C0.121726 5.42787 0.0423019 5.23725 2.5634e-05 5.03693ZM1.1709 4.90813C1.32991 4.81046 1.47222 4.68792 1.59241 4.54516C1.72413 4.39736 1.83448 4.23181 1.92025 4.05338C2.01467 3.8678 2.08546 3.67112 2.131 3.46794C2.18702 3.26191 2.2146 3.04919 2.21297 2.83568V2.57809L1.45189 3.21037C1.2041 3.40736 0.987046 3.64018 0.807912 3.90118C0.65172 4.10238 0.565406 4.34901 0.562039 4.60369C0.54994 4.66949 0.54994 4.73696 0.562039 4.80276C0.582922 4.862 0.619308 4.91455 0.667413 4.95496C0.696958 4.96785 0.728849 4.9745 0.761085 4.9745C0.793321 4.9745 0.825212 4.96785 0.854757 4.95496C0.970072 4.96762 1.08672 4.95154 1.1943 4.90813H1.1709Z" fill="#455A64"/>
</svg>
