<svg width="38" height="38" viewBox="0 0 38 38" fill="none" xmlns="http://www.w3.org/2000/svg">
<path d="M34.3734 32.1258L28.4992 26.2991C30.7794 23.4561 31.8836 19.8475 31.5849 16.2154C31.2861 12.5832 29.607 9.20354 26.893 6.77132C24.1789 4.33911 20.6361 3.03919 16.993 3.13888C13.35 3.23857 9.88355 4.73028 7.30655 7.30728C4.72954 9.88428 3.23784 13.3507 3.13815 16.9938C3.03846 20.6368 4.33837 24.1796 6.77059 26.8937C9.20281 29.6078 12.5825 31.2868 16.2146 31.5856C19.8468 31.8844 23.4554 30.7801 26.2984 28.5L32.1251 34.3266C32.2723 34.475 32.4474 34.5928 32.6403 34.6732C32.8333 34.7536 33.0402 34.795 33.2492 34.795C33.4583 34.795 33.6652 34.7536 33.8582 34.6732C34.0511 34.5928 34.2262 34.475 34.3734 34.3266C34.6588 34.0314 34.8183 33.6368 34.8183 33.2262C34.8183 32.8156 34.6588 32.421 34.3734 32.1258ZM17.4159 28.5C15.2238 28.5 13.081 27.8499 11.2583 26.6321C9.43569 25.4142 8.01511 23.6833 7.17624 21.658C6.33737 19.6328 6.11788 17.4043 6.54553 15.2544C6.97319 13.1044 8.02877 11.1296 9.5788 9.57954C11.1288 8.02951 13.1037 6.97392 15.2537 6.54627C17.4036 6.11861 19.6321 6.3381 21.6573 7.17697C23.6825 8.01584 25.4135 9.43642 26.6314 11.2591C27.8492 13.0817 28.4992 15.2246 28.4992 17.4166C28.4992 20.3561 27.3315 23.1752 25.253 25.2537C23.1745 27.3323 20.3554 28.5 17.4159 28.5Z" fill="#C6C6C6"/>
</svg>
