<svg width="4" height="8" viewBox="0 0 4 8" fill="none" xmlns="http://www.w3.org/2000/svg">
<path d="M1.65635 4.65277L2.80355 0.570406C2.82538 0.484568 2.85658 0.401382 2.89657 0.322357C2.92798 0.248624 2.98235 0.187003 3.0516 0.146662L3.26864 0.0226459C3.28399 0.00810832 3.30433 0 3.32548 0C3.34663 0 3.36697 0.00810832 3.38232 0.0226459C3.39976 0.0693013 3.39976 0.120681 3.38232 0.167337V5.82065C3.3977 5.8852 3.3977 5.95245 3.38232 6.017C3.35572 6.07023 3.31673 6.11631 3.26864 6.15136L3.04126 6.28572C3.02498 6.29829 3.00499 6.3051 2.98442 6.3051C2.96385 6.3051 2.94386 6.29829 2.92758 6.28572C2.90978 6.24271 2.90978 6.19438 2.92758 6.15136V2.01732L2.03876 5.11785C2.01425 5.20954 1.98317 5.29934 1.94574 5.38656C1.91143 5.44966 1.86164 5.50302 1.80105 5.54159L1.59435 5.66561C1.57326 5.68075 1.54796 5.6889 1.522 5.6889C1.49604 5.6889 1.47074 5.68075 1.44965 5.66561C1.41161 5.62228 1.38027 5.57351 1.35664 5.52092L0.467822 3.39189V7.52593C0.481487 7.59068 0.481487 7.65756 0.467822 7.7223C0.444179 7.77475 0.404329 7.81821 0.354135 7.84632L0.126761 7.98068C0.110478 7.99325 0.0904879 8.00006 0.0699174 8.00006C0.049347 8.00006 0.0293564 7.99325 0.013074 7.98068C-0.00435799 7.93403 -0.00435799 7.88265 0.013074 7.83599V2.17235C-0.00143194 2.11119 -0.00143194 2.04747 0.013074 1.98631C0.0366697 1.93116 0.0762736 1.88435 0.126761 1.85195L0.343797 1.72793C0.405808 1.68659 0.457485 1.68659 0.498826 1.72793C0.541288 1.7636 0.573405 1.81 0.591838 1.8623L1.65635 4.65277Z" fill="#455A64"/>
</svg>
