<svg width="86" height="47" viewBox="0 0 86 47" fill="none" xmlns="http://www.w3.org/2000/svg">
<path d="M3.30728 0.500751C3.30728 0.500751 -1.6753 4.89497 1.63736 10.6862C3.87748 14.5786 24.7174 44.3483 28.1115 45.2841C31.5057 46.2199 70.3887 45.5011 70.3887 45.5011L78.9691 45.0264L85.4994 41.2831L76.8783 41.0255C76.8783 41.0255 82.3089 38.1095 79.7158 38.2452C77.1227 38.3808 68.7596 42.9785 68.7596 42.9785L32.4696 36.4414L18.2686 10.008" fill="#FAB91D"/>
<path d="M3.30728 0.500751C3.30728 0.500751 -1.6753 4.89497 1.63736 10.6862C3.87748 14.5786 24.7174 44.3483 28.1115 45.2841C31.5057 46.2199 70.3887 45.5011 70.3887 45.5011L78.9691 45.0264L85.4994 41.2831L76.8783 41.0255C76.8783 41.0255 82.3089 38.1095 79.7158 38.2452C77.1227 38.3808 68.7596 42.9785 68.7596 42.9785L32.4696 36.4414L18.2686 10.008" stroke="#071C54" stroke-linecap="round" stroke-linejoin="round"/>
</svg>
