<svg width="37" height="44" viewBox="0 0 37 44" fill="none" xmlns="http://www.w3.org/2000/svg">
<path d="M12.6265 5.58594L12.3001 5.62196L16.3306 42.7583L16.657 42.7223L12.6265 5.58594Z" fill="#292A2E"/>
<path d="M23.0657 21.7984L21.0829 41.5765L21.4096 41.6098L23.3925 21.8317L23.0657 21.7984Z" fill="#292A2E"/>
<path d="M26.4753 39.1858H11.7626V44H26.4753V39.1858Z" fill="#292A2E"/>
<path opacity="0.2" d="M26.4753 39.1858H11.7626V44H26.4753V39.1858Z" fill="white"/>
<path d="M35.3447 30.3213C38.1319 26.5863 36.8032 20.8365 32.3771 17.4788C27.951 14.121 22.1035 14.4268 19.3163 18.1617C16.5292 21.8967 17.8578 27.6464 22.284 31.0042C26.7101 34.362 32.5576 34.0562 35.3447 30.3213Z" fill="#071C54"/>
<path opacity="0.2" d="M35.3447 30.3213C38.1319 26.5863 36.8032 20.8365 32.3771 17.4788C27.951 14.121 22.1035 14.4268 19.3163 18.1617C16.5292 21.8967 17.8578 27.6464 22.284 31.0042C26.7101 34.362 32.5576 34.0562 35.3447 30.3213Z" fill="white"/>
<path opacity="0.5" d="M35.3443 30.3219C35.1572 30.5739 34.9529 30.8125 34.7331 31.036C31.665 33.0124 27.1364 32.7013 23.5439 29.9753C19.1182 26.6183 17.7898 20.8684 20.5773 17.1335C20.7648 16.8822 20.9684 16.6437 21.1871 16.4195C24.2567 14.4417 28.7837 14.7543 32.3778 17.4788C36.8033 20.8374 38.1317 26.5872 35.3443 30.3219Z" fill="white"/>
<path d="M14.8117 16.1511C19.1964 12.7386 20.3881 6.88587 17.4735 3.0788C14.5589 -0.728277 8.64161 -1.04808 4.25693 2.36451C-0.12776 5.77709 -1.31948 11.6298 1.59515 15.4369C4.50977 19.2439 10.427 19.5637 14.8117 16.1511Z" fill="#071C54"/>
<path opacity="0.2" d="M13.424 15.172C10.0283 17.8165 5.71281 18.2195 2.5846 16.4979C2.22255 16.1765 1.89189 15.8208 1.59713 15.4358C-1.31894 11.6298 -0.127292 5.77626 4.25723 2.36446C7.65295 -0.278554 11.9685 -0.683058 15.0952 1.03695C15.4579 1.3586 15.7891 1.71482 16.0839 2.10064C18.9993 5.90665 17.8076 11.7602 13.424 15.172Z" fill="white"/>
</svg>
