<svg width="178" height="375" viewBox="0 0 178 375" fill="none" xmlns="http://www.w3.org/2000/svg">
<path d="M168.058 0.749537L3.08069 95.9009C2.18332 96.4862 1.43667 97.2749 0.901379 98.203C0.366092 99.1311 0.0572672 100.172 0 101.242V367.922C0.0548377 368.991 0.36271 370.032 0.898289 370.959C1.43387 371.886 2.18185 372.672 3.08069 373.253L3.71083 373.613C4.66758 374.097 5.72455 374.349 6.79653 374.349C7.8685 374.349 8.92548 374.097 9.88223 373.613L174.919 278.342C175.816 277.754 176.563 276.963 177.098 276.034C177.633 275.104 177.942 274.062 178 272.991V6.43082C177.943 5.36107 177.634 4.32004 177.096 3.39327C176.559 2.4665 175.809 1.68042 174.909 1.09962L174.289 0.739536C173.323 0.251623 172.255 -0.00172889 171.172 8.87958e-06C170.09 0.00174665 169.023 0.258524 168.058 0.749537Z" fill="#071C54"/>
<path d="M177.95 273.201C177.95 275.911 176.05 277.642 173.689 279.002L11.0828 372.903C8.74228 374.253 6.82185 373.163 6.82185 370.433V106.483C6.82206 104.992 7.21391 103.527 7.9582 102.236C8.70248 100.944 9.77307 99.8698 11.0628 99.1216L173.689 5.19049C174.121 4.94116 174.611 4.8099 175.11 4.80992C175.609 4.80994 176.098 4.94124 176.53 5.19062C176.962 5.43999 177.321 5.79866 177.57 6.23056C177.819 6.66246 177.95 7.15237 177.95 7.65105V273.201Z" fill="#071C54"/>
<path opacity="0.25" d="M177.95 273.201C177.95 275.911 176.05 277.642 173.689 279.002L11.0828 372.903C8.74228 374.253 6.82185 373.163 6.82185 370.433V106.483C6.82206 104.992 7.21391 103.527 7.9582 102.236C8.70248 100.944 9.77307 99.8698 11.0628 99.1216L173.689 5.19049C174.121 4.94116 174.611 4.8099 175.11 4.80992C175.609 4.80994 176.098 4.94124 176.53 5.19062C176.962 5.43999 177.321 5.79866 177.57 6.23056C177.819 6.66246 177.95 7.15237 177.95 7.65105V273.201Z" fill="white"/>
<path d="M177.96 6.43077V7.65104C177.959 7.15061 177.826 6.65924 177.575 6.22632C177.324 5.79341 176.964 5.43421 176.53 5.18483C176.096 4.93546 175.604 4.80469 175.104 4.80568C174.603 4.80668 174.112 4.93939 173.679 5.19049L11.0224 99.1316C9.72992 99.869 8.65908 100.94 7.9217 102.232C7.91794 102.262 7.91794 102.292 7.9217 102.322L0.920129 98.2614C1.42357 97.3033 2.16826 96.4931 3.08062 95.9109L168.118 0.74949C169.075 0.268305 170.132 0.0177042 171.203 0.0177042C172.275 0.0177042 173.332 0.268305 174.289 0.74949L174.919 1.10957C175.808 1.69556 176.547 2.48264 177.075 3.40709C177.603 4.33154 177.906 5.36738 177.96 6.43077Z" fill="#071C54"/>
<path opacity="0.55" d="M177.96 6.43077V7.65104C177.959 7.15061 177.826 6.65924 177.575 6.22632C177.324 5.79341 176.964 5.43421 176.53 5.18483C176.096 4.93546 175.604 4.80469 175.104 4.80568C174.603 4.80668 174.112 4.93939 173.679 5.19049L11.0224 99.1316C9.72992 99.869 8.65908 100.94 7.9217 102.232C7.91794 102.262 7.91794 102.292 7.9217 102.322L0.920129 98.2614C1.42357 97.3033 2.16826 96.4931 3.08062 95.9109L168.118 0.74949C169.075 0.268305 170.132 0.0177042 171.203 0.0177042C172.275 0.0177042 173.332 0.268305 174.289 0.74949L174.919 1.10957C175.808 1.69556 176.547 2.48264 177.075 3.40709C177.603 4.33154 177.906 5.36738 177.96 6.43077Z" fill="white"/>
</svg>
