<svg width="3" height="7" viewBox="0 0 3 7" fill="none" xmlns="http://www.w3.org/2000/svg">
<path d="M1.25605 2.24234C1.33283 2.1854 1.42029 2.14452 1.51322 2.12215C1.60615 2.09978 1.70264 2.09636 1.79692 2.11212C1.92495 2.14282 2.03618 2.22176 2.10742 2.33248V0.449482C2.09336 0.390208 2.09336 0.328444 2.10742 0.26917C2.12777 0.21421 2.16676 0.168128 2.21759 0.138956L2.41791 0.0187679C2.43369 0.00658513 2.45306 0 2.473 0C2.49294 0 2.51231 0.00658513 2.52809 0.0187679C2.54534 0.0604568 2.54534 0.107293 2.52809 0.148982V5.71791C2.54299 5.78047 2.54299 5.84566 2.52809 5.90822C2.50522 5.96167 2.46684 6.00704 2.41791 6.03844L2.21759 6.15862C2.20181 6.17081 2.18244 6.17742 2.1625 6.17742C2.14257 6.17742 2.1232 6.17081 2.10742 6.15862C2.09052 6.11341 2.09052 6.06363 2.10742 6.01841V5.78803C2.02984 5.99446 1.92545 6.18976 1.79692 6.36895C1.65425 6.56974 1.46972 6.73721 1.25605 6.85976C1.10731 6.9481 0.938226 6.9964 0.765266 6.99997C0.62056 6.98866 0.485074 6.92449 0.38465 6.81969C0.253341 6.68241 0.160129 6.51325 0.11422 6.32891C0.0450499 6.07752 0.00802862 5.81836 0.00404217 5.55765C-0.00134739 5.46759 -0.00134739 5.37729 0.00404217 5.28723C-0.00113479 5.19382 -0.00113479 5.10019 0.00404217 5.00678C0.0141938 4.70364 0.0510628 4.402 0.11422 4.10534C0.173973 3.83216 0.264701 3.56667 0.38465 3.31406C0.48909 3.09413 0.616687 2.88596 0.765266 2.69307C0.898349 2.51266 1.06499 2.35961 1.25605 2.24234ZM2.10742 4.40581V3.78482C2.13415 3.49975 2.04782 3.21557 1.86703 2.99354C1.78895 2.92655 1.68947 2.88974 1.58658 2.88974C1.4837 2.88974 1.38421 2.92655 1.30613 2.99354C1.0463 3.15635 0.846046 3.39877 0.735211 3.68465C0.58659 4.02963 0.508276 4.40079 0.504846 4.7764C0.49482 4.9365 0.49482 5.09708 0.504846 5.25718C0.483301 5.55259 0.564697 5.84632 0.735211 6.0885C0.875436 6.24876 1.06574 6.24876 1.30613 6.0885C1.55662 5.93554 1.75281 5.70783 1.86703 5.43747C2.02451 5.11631 2.10671 4.76349 2.10742 4.40581Z" fill="#455A64"/>
</svg>
