<svg width="24" height="17" viewBox="0 0 24 17" fill="none" xmlns="http://www.w3.org/2000/svg">
<path fill-rule="evenodd" clip-rule="evenodd" d="M23.1463 0.299146C23.0241 0.212139 22.7388 0.181411 22.6052 0.155174C22.0505 0.0470883 21.4799 0 20.9139 0C19.1728 0.00269094 17.4022 0.171997 15.6905 0.465085C14.6015 0.650985 13.2883 1.2773 12.2058 0.937117C10.3211 0.344661 8.41629 0.373815 6.62807 1.21967C4.99314 1.99309 3.75216 3.46212 3.02787 5.04933C2.91851 5.28904 2.47519 6.171 2.34976 6.76548C2.2961 6.88702 2.24448 7.00923 2.19806 7.13346C2.06629 7.4862 1.94787 7.84499 1.83806 8.20468C1.79097 8.35806 1.67301 8.69667 1.81316 8.76215C1.58923 9.17185 1.39045 9.59388 1.22516 10.0296C0.744035 11.297 0.217852 12.6873 0.0487211 14.0306C-0.0137691 14.5279 -0.0162663 15.0282 0.0419221 15.5265C0.0706767 15.773 0.0589101 16.2681 0.227362 16.4555C0.585322 16.8529 0.768942 16.2966 0.72864 16.0315C0.420717 14.012 1.01551 12.1153 1.72033 10.2168C2.17633 8.98931 2.9253 7.86607 3.76439 6.84912C4.4434 6.02569 5.17178 5.37739 6.10257 4.83158C7.24098 4.164 8.45796 3.62447 9.66361 3.08314C10.4567 2.72704 11.2508 2.38036 12.0659 2.0736C12.2472 2.0052 12.5323 1.83006 12.7333 1.82939C13.1592 1.82804 13.7615 2.13863 14.1713 2.25411C15.5207 2.63443 16.8883 3.12127 18.2852 3.31546C19.1796 3.44014 20.0196 3.29977 20.855 3.00444C20.9411 2.97439 21.0837 2.8968 21.2603 2.78602C21.8829 2.54922 22.4694 2.2512 22.981 1.82109C23.2777 1.57353 23.5448 1.25331 23.7893 0.96022C23.8618 0.872765 23.8935 0.772301 23.8958 0.676773C23.9501 0.648294 23.9863 0.614653 23.9954 0.575634C24.0565 0.287255 23.5018 0.282104 23.1463 0.299146Z" fill="#89C5CC"/>
</svg>
