<svg width="73" height="67" viewBox="0 0 73 67" fill="none" xmlns="http://www.w3.org/2000/svg">
<path d="M49.5687 0.0107215C54.8521 -0.109357 58.5746 0.751207 61.6466 4.01335C64.7186 7.27548 64.2983 9.22677 64.2383 10.8678C64.1782 12.5089 65.0588 15.1006 64.9588 16.8718C64.8587 18.6429 62.337 21.4848 60.6459 22.0752C58.2644 22.8957 55.8528 22.3154 53.6413 21.4748C51.4299 20.6343 48.1377 20.9444 46.6367 23.2359C45.1357 25.5274 43.8949 31.0911 45.9263 34.5934C48.2178 38.546 51.2498 40.5973 56.8034 42.5986C62.357 44.5999 68.6712 47.6019 70.8126 49.6032C72.954 51.6045 73.4543 53.0855 72.6138 54.1262C72.6138 54.1262 72.6138 56.0675 70.3023 55.5771C70.1038 55.9646 69.7845 56.2768 69.3926 56.4664C69.0008 56.656 68.5578 56.7127 68.1308 56.6278C66.4197 56.1475 65.279 54.4664 63.738 53.2156C61.928 51.789 59.7473 50.9105 57.4538 50.684C54.9322 50.4138 44.4453 48.6226 39.9624 44.5199C35.4794 40.4172 34.0185 37.035 30.5562 35.8142C27.0939 34.5934 22.5509 37.9956 21.3902 39.8168C20.2294 41.638 19.649 45.5906 20.3895 47.2817C23.2342 47.9004 25.9279 49.0772 28.3147 50.744C32.3173 53.5158 33.2279 57.1682 35.4894 58.0087C37.7509 58.8493 39.6521 57.6385 45.0357 58.4991C50.4192 59.3596 51.7701 60.7405 52.4205 61.9613C53.0709 63.1821 52.2804 64.8332 49.7788 64.7432C47.2771 64.6531 43.1945 64.0227 40.8429 64.3629C38.4914 64.7031 34.0385 66.5043 32.1472 66.5743C29.7657 66.6544 14.8859 68.6957 7.58113 60.9206C4.7075 58.0083 2.55275 54.4658 1.28816 50.5748C0.0235588 46.6837 -0.316032 42.5513 0.296356 38.506C1.17693 32.2318 9.72253 23.1359 16.4569 20.4941C23.1914 17.8524 37.0004 14.3201 39.0618 11.7484C41.1231 9.17674 40.5728 6.68511 42.6541 4.05338C44.3753 1.90197 47.5373 0.0607543 49.5687 0.0107215Z" fill="#455A64"/>
</svg>
