<svg width="2" height="6" viewBox="0 0 2 6" fill="none" xmlns="http://www.w3.org/2000/svg">
<path d="M1.64072 0.0202665C1.65711 0.00714601 1.67748 0 1.69848 0C1.71947 0 1.73984 0.00714601 1.75623 0.0202665C1.77571 0.0724036 1.77571 0.12982 1.75623 0.181958V0.493797C1.77259 0.566028 1.77259 0.641007 1.75623 0.713238C1.73056 0.771961 1.6909 0.823496 1.64072 0.863369L1.27115 1.07127C1.01712 1.23589 0.813604 1.4676 0.683143 1.74075C0.552682 2.0139 0.500369 2.31783 0.531991 2.61888V5.48313C0.548201 5.55148 0.548201 5.62268 0.531991 5.69103C0.509342 5.75149 0.469111 5.80377 0.416489 5.84116L0.173962 5.97977C0.157574 5.99289 0.137204 6.00004 0.116211 6.00004C0.0952183 6.00004 0.0748479 5.99289 0.0584604 5.97977C0.037875 5.95848 0.022071 5.93304 0.0121119 5.90515C0.00215283 5.87727 -0.00173508 5.84759 0.000709817 5.81808V1.26761C0.00188978 1.19086 0.0217113 1.11555 0.0584604 1.04816C0.081109 0.98771 0.12134 0.935413 0.173962 0.898016L0.416489 0.759428C0.432877 0.746308 0.453247 0.739162 0.47424 0.739162C0.495233 0.739162 0.515603 0.746308 0.531991 0.759428C0.542791 0.785013 0.548345 0.812512 0.548345 0.840283C0.548345 0.868054 0.542791 0.895534 0.531991 0.921119V1.2214C0.609929 1.00512 0.714697 0.799477 0.84383 0.60928C0.969737 0.445464 1.12672 0.308109 1.3058 0.205061L1.64072 0.0202665Z" fill="#455A64"/>
</svg>
