<svg width="55" height="137" viewBox="0 0 55 137" fill="none" xmlns="http://www.w3.org/2000/svg">
<path d="M43.1003 0.501025C43.1003 0.501025 49.0229 30.2327 50.6801 42.0114C52.3373 53.7901 53.6957 86.1001 53.6957 97.8788C53.6957 109.658 49.8515 134.599 49.8515 134.599L43.5485 134.87C43.5485 134.87 38.115 69.7348 36.417 64.7546C34.719 59.7745 30.9834 45.5803 30.9834 45.5803C30.9834 45.5803 26.5958 80.8622 26.0524 85.0281C25.5091 89.1941 7.07565 135.956 7.07565 135.956L0.501025 136.499C0.501025 136.499 11.1916 84.4582 11.4633 80.8621C11.7349 77.2661 9.27624 27.7223 10.6482 18.9561C12.0202 10.19 12.8352 4.44988 12.8352 4.44988C12.8352 4.44988 32.2467 7.20457 43.1003 0.501025Z" fill="#071C54" stroke="#071C54" stroke-linecap="round" stroke-linejoin="round"/>
</svg>
