<svg width="71" height="71" viewBox="0 0 71 71" fill="none" xmlns="http://www.w3.org/2000/svg">
<g clip-path="url(#clip0_68_860)">
<path d="M23.6667 32.5417C27.5897 32.5417 31.352 30.9833 34.1259 28.2093C36.8999 25.4353 38.4583 21.673 38.4583 17.75C38.4583 13.827 36.8999 10.0647 34.1259 7.29072C31.352 4.51675 27.5897 2.95834 23.6667 2.95834C19.7437 2.95834 15.9813 4.51675 13.2074 7.29072C10.4334 10.0647 8.87499 13.827 8.87499 17.75C8.87499 21.673 10.4334 25.4353 13.2074 28.2093C15.9813 30.9833 19.7437 32.5417 23.6667 32.5417ZM23.6667 32.5417C29.6218 32.5417 34.8255 34.79 38.5264 38.5264C40.721 40.7507 42.3625 43.4592 43.3189 46.434M23.6667 32.5417C11.8333 32.5417 2.95833 41.4167 2.95833 53.25V61.9658C2.95833 65.3214 5.6786 68.0417 9.03423 68.0417H32.5417M35.5 55.6877L41.6977 60.3855L43.0492 61.41C45.725 63.4382 49.5387 62.9116 51.5647 60.2341L68.0416 38.4583" stroke="#071C54" stroke-width="5"/>
</g>
<defs>
<clipPath id="clip0_68_860">
<rect width="70.113" height="70.113" fill="white" transform="scale(1.01265)"/>
</clipPath>
</defs>
</svg>
