<svg width="4" height="7" viewBox="0 0 4 7" fill="none" xmlns="http://www.w3.org/2000/svg">
<path d="M0.280811 2.264C0.315105 2.16506 0.356409 2.06869 0.404404 1.97563C0.445709 1.87763 0.497501 1.7844 0.558886 1.69756C0.615317 1.60262 0.684643 1.51597 0.764875 1.44008C0.84831 1.35681 0.941707 1.28414 1.04295 1.22377C1.20662 1.10596 1.41031 1.05781 1.60941 1.08988C1.69237 1.11965 1.76771 1.16742 1.83003 1.22974C1.89235 1.29207 1.94011 1.3674 1.96988 1.45036L2.12437 1.05898C2.18344 0.938919 2.24876 0.822038 2.32006 0.708811C2.39093 0.597107 2.47382 0.493511 2.56724 0.399847C2.66611 0.303738 2.77687 0.22068 2.89681 0.152676C3.27788 -0.0636081 3.55596 -0.0533214 3.73105 0.204159C3.93892 0.603302 4.02827 1.0536 3.98853 1.50187V3.91188C4.00385 3.97621 4.00385 4.04324 3.98853 4.10757C3.96501 4.16253 3.92555 4.20918 3.87524 4.24147L3.66925 4.36505C3.65303 4.37758 3.63311 4.38435 3.61261 4.38435C3.59211 4.38435 3.57219 4.37758 3.55596 4.36505C3.54098 4.31816 3.54098 4.26774 3.55596 4.22085V1.89325C3.58633 1.58502 3.52921 1.27444 3.39117 0.997188C3.27788 0.852999 3.1028 0.842699 2.88651 0.997188C2.67138 1.1415 2.50312 1.34556 2.40245 1.58425C2.27136 1.91141 2.20829 2.26184 2.21706 2.61417V5.0036C2.23238 5.06793 2.23238 5.13496 2.21706 5.19929C2.19055 5.25234 2.1517 5.29826 2.10377 5.33318L1.89779 5.45677C1.88156 5.4693 1.86164 5.4761 1.84114 5.4761C1.82064 5.4761 1.80072 5.4693 1.7845 5.45677C1.77486 5.43395 1.7699 5.40943 1.7699 5.38467C1.7699 5.3599 1.77486 5.33538 1.7845 5.31256V2.98496C1.81839 2.67544 1.75733 2.3629 1.60941 2.0889C1.49955 1.94471 1.33476 1.94471 1.11504 2.0889C0.899908 2.23321 0.731651 2.43727 0.63098 2.67597C0.499897 3.00312 0.436819 3.35355 0.445594 3.70589V6.09531C0.460916 6.15964 0.460916 6.22667 0.445594 6.291C0.419081 6.34405 0.380238 6.38997 0.33231 6.4249L0.126321 6.54848C0.110095 6.56101 0.0901736 6.56781 0.0696746 6.56781C0.0491756 6.56781 0.0292545 6.56101 0.0130286 6.54848C-0.00434286 6.50199 -0.00434286 6.45077 0.0130286 6.40428V2.28459C-0.00142697 2.22364 -0.00142697 2.16016 0.0130286 2.09921C0.0339599 2.0427 0.0740517 1.99531 0.126321 1.96532L0.33231 1.84173C0.348536 1.8292 0.368457 1.8224 0.388956 1.8224C0.409455 1.8224 0.429368 1.8292 0.445594 1.84173C0.463332 1.8846 0.463332 1.93276 0.445594 1.97563L0.280811 2.264Z" fill="#455A64"/>
</svg>
