<svg width="27" height="11" viewBox="0 0 27 11" fill="none" xmlns="http://www.w3.org/2000/svg">
<path fill-rule="evenodd" clip-rule="evenodd" d="M15.0632 5.04995C14.7598 4.75056 14.4192 4.48029 14.0193 4.28759C13.9181 4.23892 13.165 3.91241 13.1158 3.9842C13.0016 4.1509 14.9721 4.95438 15.0632 5.04995ZM18.6343 3.04937C18.6318 3.06203 18.8931 3.46611 18.9642 3.59036C19.1155 3.85463 19.2553 4.12401 19.3868 4.39383C19.1922 3.91708 18.9922 3.475 18.6343 3.04937ZM0.370102 6.33929C0.118537 6.41308 -0.183743 6.12192 0.142328 6.05013C0.406461 5.99256 0.393445 5.97901 0.511935 5.7852C0.608208 5.62761 0.667672 5.43557 0.75205 5.27043C0.931131 4.9197 1.13445 4.58542 1.384 4.27225C1.91855 3.6008 2.57002 3.02203 3.3007 2.53461C4.57581 1.68357 6.00531 0.90609 7.52189 0.515353C9.93319 -0.10587 12.6778 -0.144321 15.0929 0.286424C16.5886 0.553138 17.9557 1.01678 18.9487 2.1152C19.4451 2.66396 19.8349 3.30719 20.0052 4.01532C20.0497 4.20024 20.0414 4.40606 20.097 4.58742C20.1825 4.86592 20.1448 4.79168 20.5021 4.84591C20.8924 4.90503 21.2821 4.96549 21.6717 5.02706C22.6921 5.18797 23.7186 5.35889 24.7127 5.62005C25.0401 5.70607 25.3602 5.81097 25.6728 5.93322C25.9091 6.02523 26.8507 6.31484 26.9652 6.59511C27.1557 7.0612 26.5175 6.84983 26.3193 6.74848C26.1456 6.65935 25.9672 6.57644 25.7863 6.50021C25.3308 6.30795 24.8561 6.15926 24.3707 6.0408C23.8463 5.91277 23.3111 5.81742 22.7779 5.72163C22.2808 5.6325 21.7817 5.55137 21.2819 5.47402C21.0043 5.4309 20.7265 5.38912 20.4487 5.34711C20.3538 5.33289 20.1866 5.25798 20.1991 5.37045C19.615 5.26776 18.9833 5.28266 18.3884 5.25421C17.6597 5.21976 16.9281 5.19131 16.197 5.21198C15.6696 5.22709 15.1418 5.25865 14.6171 5.32311C14.3106 5.36089 14.009 5.41624 13.708 5.48625C13.5429 5.5247 12.8914 5.60605 12.8014 5.7374C12.84 5.68095 13.559 5.73585 13.6506 5.73252C14.0166 5.72007 14.3799 5.68695 14.7446 5.64984C15.4214 5.58093 16.0987 5.54493 16.7775 5.55004C16.7751 5.65873 16.3112 5.85231 16.1979 5.92433C15.9441 6.08591 15.701 6.26217 15.4741 6.45554C15.0747 6.79604 14.5962 7.21767 14.3198 7.62108C14.4012 7.50217 14.8032 7.34747 14.9457 7.25679C15.1741 7.11121 15.3978 6.95585 15.6097 6.78982C15.8052 6.63668 15.9876 6.47109 16.1669 6.30195C16.3462 6.13281 16.5897 5.78119 16.8253 5.6685C16.8397 5.66161 16.9425 5.73562 17.0008 5.71051C17.0596 5.68517 17.1328 5.55826 17.1478 5.55315C17.3673 5.47603 17.7838 5.57204 18.0145 5.58182C18.6128 5.60694 19.2104 5.63983 19.808 5.66984C19.9931 5.67895 20.1507 5.64072 20.2205 5.76519C20.295 5.8981 20.1585 6.24727 20.1197 6.39197C19.9754 6.9294 19.7196 7.41148 19.3165 7.82778C18.5621 8.6077 17.6314 9.12757 16.5803 9.47541C12.5541 10.8077 8.27053 11.3411 4.24547 9.95528C2.57922 9.38162 0.0696148 8.35632 0.370102 6.33929Z" fill="#89C5CC"/>
</svg>
