<svg width="565" height="548" viewBox="0 0 565 548" fill="none" xmlns="http://www.w3.org/2000/svg">
<path d="M122.663 108.53C95.3363 143.112 61.9986 177.278 42.3497 195.798C-1.31967 229.523 -5.8606 269.948 8.86227 309.111C49.9759 418.475 142.225 540.968 258.94 546.298C314.503 548.836 377.001 530.549 427.165 508.801C457.187 495.786 484.774 477.277 506.885 453.156C555.024 400.641 566.775 354.096 561.802 317.439C554.169 261.169 490.677 233.911 459.099 186.716C456.651 183.058 454.253 179.317 451.91 175.517C413.973 114.003 382.941 40.659 316.01 13.3943C281.246 -0.766696 250.504 -0.922498 225.257 5.84805C177.176 18.7418 153.527 69.4732 122.663 108.53Z" stroke="#71D18C" stroke-width="3" stroke-linecap="round" stroke-dasharray="12 15"/>
</svg>
