<svg width="4" height="7" viewBox="0 0 4 7" fill="none" xmlns="http://www.w3.org/2000/svg">
<path d="M2.74119 4.14218L0.80017 5.23275L0.520024 6.52343L0.449988 6.70352C0.419675 6.77243 0.366722 6.82892 0.299908 6.86361L0.0998064 6.98366C0.0871921 6.99425 0.071245 7.00006 0.054777 7.00006C0.038309 7.00006 0.0223696 6.99425 0.00975531 6.98366C-0.00325177 6.94813 -0.00325177 6.90915 0.00975531 6.87362C0.00207902 6.83061 0.00207902 6.78656 0.00975531 6.74355L1.36046 0.610335C1.37971 0.531242 1.40651 0.45417 1.4405 0.380204C1.47106 0.300694 1.52744 0.233746 1.60059 0.190102L1.93076 0C2.0108 0 2.06083 0 2.10085 0C2.13905 0.0390934 2.1666 0.08733 2.18089 0.140088L3.5316 4.71249C3.53448 4.74578 3.53448 4.77923 3.5316 4.81252C3.54434 4.86512 3.54434 4.92 3.5316 4.9726C3.51599 5.01347 3.48801 5.04846 3.45156 5.07266L3.24145 5.19272C3.17141 5.19272 3.12138 5.24275 3.09137 5.19272C3.06231 5.1657 3.0415 5.13101 3.03134 5.09266L2.74119 4.14218ZM1.02029 4.37231L2.55109 3.49185L1.80069 0.900496L1.02029 4.37231Z" fill="#455A64"/>
</svg>
