<svg width="122" height="122" viewBox="0 0 122 122" fill="none" xmlns="http://www.w3.org/2000/svg">
<g clip-path="url(#clip0_68_777)">
<path d="M61 34.5424L74.355 65.0668H47.6451L61 34.5424Z" fill="#071C54"/>
<path fill-rule="evenodd" clip-rule="evenodd" d="M59.8858 0.162494C60.6141 -0.0450159 61.3859 -0.0450159 62.1143 0.162494L119.048 16.4292C119.971 16.6923 120.771 17.2734 121.307 18.0697C121.843 18.8661 122.08 19.8263 121.976 20.7805L113.842 93.9805C113.768 94.655 113.525 95.3001 113.137 95.857C112.75 96.4138 112.229 96.8648 111.622 97.1688L62.8219 121.569C62.2564 121.852 61.6326 122 61 122C60.3675 122 59.7437 121.852 59.1782 121.569L10.3782 97.1688C9.77143 96.8648 9.25041 96.4138 8.86258 95.857C8.47476 95.3001 8.23246 94.655 8.15776 93.9805L0.024428 20.7805C-0.0815555 19.825 0.154395 18.8628 0.690407 18.0648C1.22642 17.2667 2.02783 16.6844 2.95243 16.421L59.8858 0.154361V0.162494ZM61 14.2494L93.1918 87.8317L85.7416 91.085L77.9092 73.1998H44.0908L36.2584 91.0932L28.8083 87.8398L61 14.2576V14.2494Z" fill="#071C54"/>
</g>
<defs>
<clipPath id="clip0_68_777">
<rect width="121.543" height="121.543" fill="white" transform="scale(1.00376)"/>
</clipPath>
</defs>
</svg>
