<svg width="6" height="3" viewBox="0 0 6 3" fill="none" xmlns="http://www.w3.org/2000/svg">
<path d="M0.197894 2.19803C0.262632 2.19994 0.325774 2.17766 0.374968 2.13554C1.88318 0.907781 3.81281 0.32065 5.74925 0.500322C5.78018 0.503173 5.81139 0.499699 5.84095 0.490119C5.8705 0.480539 5.89779 0.465061 5.92117 0.444603C5.94455 0.424145 5.96354 0.399136 5.97696 0.371116C5.99037 0.343096 5.99796 0.31265 5.99924 0.28161C6.00209 0.250673 5.99861 0.219463 5.98903 0.18991C5.97945 0.160356 5.96398 0.133065 5.94352 0.109684C5.92306 0.0863036 5.89805 0.0673197 5.87003 0.0539014C5.84201 0.0404832 5.81153 0.0329012 5.78049 0.0316201C3.75681 -0.150355 1.74124 0.458054 0.156224 1.72932H0.0833404L0.0104255 1.82306C-0.00440416 1.8739 -0.00339867 1.92808 0.0133497 1.97833C0.0300981 2.02857 0.0617891 2.07251 0.10416 2.10429C0.124364 2.14491 0.157274 2.17782 0.197894 2.19803Z" fill="#263238"/>
</svg>
