<svg width="3" height="6" viewBox="0 0 3 6" fill="none" xmlns="http://www.w3.org/2000/svg">
<path d="M2.59768e-05 5.1069C-0.001108 4.84983 0.03489 4.59396 0.106879 4.34717C0.177197 4.11202 0.272708 3.88515 0.391772 3.67052C0.509612 3.45606 0.653121 3.25674 0.81913 3.07696C0.981446 2.89884 1.15598 2.73223 1.34146 2.57837L2.25553 1.81864V1.68804C2.25553 1.34774 2.1843 1.13408 2.04184 1.04703C1.95968 0.99665 1.86519 0.969973 1.76882 0.969973C1.67244 0.969973 1.57795 0.99665 1.49579 1.04703C1.31967 1.15029 1.16943 1.29237 1.05655 1.46249C0.959298 1.6336 0.875944 1.81225 0.807265 1.9967C0.789383 2.05285 0.761195 2.10519 0.72416 2.15103L0.60546 2.25786L0.403655 2.3647C0.383804 2.37616 0.361276 2.38219 0.338355 2.38219C0.315433 2.38219 0.292924 2.37616 0.273073 2.3647C0.25305 2.31111 0.25305 2.25211 0.273073 2.19852C0.287928 2.0197 0.327879 1.84386 0.391772 1.67619C0.458247 1.47544 0.54999 1.28396 0.664801 1.10637C0.779113 0.920633 0.910247 0.745787 1.05655 0.584041C1.19811 0.429671 1.36221 0.297612 1.54326 0.192313C1.70685 0.0849657 1.89444 0.0197141 2.08934 0.00237222C2.24336 -0.0114335 2.39669 0.0354001 2.5167 0.132936C2.6513 0.259049 2.74967 0.418927 2.80159 0.595924C2.87472 0.854431 2.90677 1.1228 2.89656 1.39126V4.46586C2.91322 4.53611 2.91322 4.60931 2.89656 4.67956C2.87634 4.74335 2.83433 4.79795 2.77786 4.83385L2.52856 4.97634C2.51172 4.98982 2.49078 4.99717 2.4692 4.99717C2.44763 4.99717 2.42669 4.98982 2.40984 4.97634C2.38961 4.95626 2.37387 4.93211 2.36364 4.90551C2.35341 4.87891 2.34894 4.85046 2.3505 4.82201V4.40651C2.31394 4.56116 2.25387 4.70929 2.17243 4.84574C2.08847 4.99147 1.99322 5.13039 1.88753 5.26123C1.78592 5.38451 1.67477 5.49963 1.55513 5.6055L1.23462 5.8429C1.08907 5.92742 0.927202 5.98003 0.759771 5.99723C0.635155 6.00941 0.510011 5.9802 0.403655 5.91412C0.297422 5.8329 0.218688 5.72103 0.178102 5.59362C0.0884771 5.44411 0.0280411 5.27895 2.59768e-05 5.1069ZM1.18713 4.97634C1.34992 4.87467 1.49777 4.75082 1.62637 4.60834C1.75991 4.45848 1.87179 4.29064 1.95876 4.10974C2.05448 3.92158 2.12626 3.72218 2.17243 3.51619C2.21957 3.30576 2.24346 3.09078 2.24365 2.87514V2.62586L1.47204 3.25502C1.22387 3.45803 1.00424 3.69362 0.81913 3.95541C0.671971 4.16447 0.589421 4.41214 0.581713 4.66768C0.569446 4.73439 0.569446 4.80279 0.581713 4.8695C0.60343 4.92643 0.635646 4.97875 0.676683 5.02379C0.737955 5.04653 0.805352 5.04653 0.866624 5.02379C0.977502 5.0465 1.09249 5.0383 1.19901 5.00007L1.18713 4.97634Z" fill="#071C54"/>
</svg>
