<svg width="4" height="7" viewBox="0 0 4 7" fill="none" xmlns="http://www.w3.org/2000/svg">
<path d="M2.80105 4.13361L0.799306 5.24456L0.519063 6.5357C0.506463 6.59476 0.486281 6.65197 0.459013 6.70586C0.425394 6.77837 0.369213 6.83804 0.29887 6.87599L0.0986987 6.9861C0.0854167 6.99514 0.069718 6.99997 0.0536536 6.99997C0.0375892 6.99997 0.0218981 6.99514 0.00861615 6.9861C-0.00287205 6.9503 -0.00287205 6.91179 0.00861615 6.87599C0.00521439 6.83269 0.00521439 6.78918 0.00861615 6.74587L1.35979 0.610548C1.35979 0.530478 1.35979 0.460397 1.43986 0.370318C1.47421 0.292508 1.53429 0.2289 1.61001 0.190168L1.9403 0C2.01036 0 2.07042 0 2.10044 0C2.13984 0.038199 2.1676 0.0867994 2.18051 0.140137L3.53169 4.7141C3.5348 4.75073 3.5348 4.78758 3.53169 4.82421C3.54535 4.87333 3.54535 4.92523 3.53169 4.97434C3.51618 5.01799 3.48837 5.05624 3.45162 5.08445L3.25144 5.19453C3.17137 5.24458 3.12133 5.24458 3.09131 5.19453C3.06424 5.16594 3.04374 5.13178 3.03126 5.09444L2.80105 4.13361ZM1.08956 4.36382L2.61088 3.48305L1.80018 0.910798L1.08956 4.36382Z" fill="#455A64"/>
</svg>
