<svg width="52" height="99" viewBox="0 0 52 99" fill="none" xmlns="http://www.w3.org/2000/svg">
<path d="M39.1006 85.3321L48.2262 80.0514C48.2262 80.0514 53.6575 57.4833 51.489 37.1739C48.4772 8.62241 29.6537 -2.11955 22.5058 0.340053C15.3578 2.79966 13.2898 11.1121 25.116 28.1186C32.0731 38.1578 40.6667 59.0695 39.1006 85.3321Z" fill="#071C54"/>
<g opacity="0.3">
<path d="M39.1006 85.3321L48.2262 80.0514C48.2262 80.0514 53.6575 57.4833 51.489 37.1739C48.4772 8.62241 29.6537 -2.11955 22.5058 0.340053C15.3578 2.79966 13.2898 11.1121 25.116 28.1186C32.0731 38.1578 40.6667 59.0695 39.1006 85.3321Z" fill="white"/>
</g>
<path d="M42.8852 74.2387H42.7949C42.7124 74.2244 42.6337 74.1935 42.5634 74.1481C42.4932 74.1026 42.4328 74.0434 42.386 73.974C42.3391 73.9047 42.3067 73.8266 42.2907 73.7444C42.2747 73.6622 42.2755 73.5777 42.2929 73.4958C47.3125 47.163 38.0965 17.5674 26.702 5.22918C26.6422 5.16914 26.5951 5.09768 26.5634 5.01907C26.5318 4.94046 26.5162 4.85628 26.5177 4.77155C26.5193 4.68682 26.5378 4.60327 26.5722 4.52584C26.6066 4.4484 26.6563 4.37866 26.7182 4.32078C26.7801 4.26291 26.853 4.21807 26.9326 4.18892C27.0122 4.15978 27.0968 4.14695 27.1814 4.15115C27.2661 4.15534 27.349 4.17649 27.4253 4.21337C27.5016 4.25025 27.5698 4.3021 27.6256 4.36582C39.231 16.9048 48.6076 47.0224 43.5378 73.7268C43.5089 73.8764 43.4271 74.0106 43.3072 74.1047C43.1873 74.1987 43.0374 74.2463 42.8852 74.2387Z" fill="white"/>
<path d="M16.1312 98.5838C14.7659 99.2865 11.1116 96.1744 10.1077 95.4215C8.37874 94.117 7.01621 92.3879 6.15223 90.4018C5.17783 88.1436 4.93558 85.6369 5.45952 83.2339C5.73041 81.9645 6.09277 80.7164 6.54376 79.4993C6.9654 78.2946 7.37701 77.0798 7.78862 75.8751C8.28014 74.7132 8.52622 73.4622 8.51144 72.2007C8.3207 69.6709 6.18234 67.7935 4.2247 66.1772C2.06627 64.3902 -0.152398 62.0511 0.0082294 59.0293C0.297735 56.6878 1.35717 54.5089 3.01999 52.8351C4.55599 51.0682 6.35301 49.5422 7.7585 47.6749C8.86606 46.3687 9.48688 44.7191 9.51536 43.0067C9.43446 41.9534 9.13713 40.9281 8.64195 39.9949C7.63803 37.9871 6.35301 36.0897 5.72054 33.9714C5.08807 31.8531 5.32901 29.1928 7.05576 27.7571C8.48133 26.5926 10.4992 26.5123 12.3263 26.7532C14.0363 27.0453 15.6609 27.7102 17.0849 28.7008C21.7532 31.6122 24.2027 37.4349 29.1922 39.744C31.1834 40.4767 33.2187 41.0836 35.286 41.5611C37.2939 42.2136 39.3017 43.3581 40.1952 45.3057C41.8818 49.1306 38.1874 53.5579 39.2917 57.5937C40.2956 61.1576 43.6186 62.6735 45.3754 65.9363C46.0853 67.3721 46.3175 68.9973 46.038 70.5744C45.7403 73.2526 44.9507 75.8528 43.7089 78.2444C42.319 80.6988 40.7802 83.0658 39.1009 85.3321C39.1009 85.3321 16.342 98.4834 16.1312 98.5838Z" fill="#071C54"/>
<g opacity="0.65">
<path d="M16.1312 98.5838C14.7659 99.2865 11.1116 96.1744 10.1077 95.4215C8.37874 94.117 7.01621 92.3879 6.15223 90.4018C5.17783 88.1436 4.93558 85.6369 5.45952 83.2339C5.73041 81.9645 6.09277 80.7164 6.54376 79.4993C6.9654 78.2946 7.37701 77.0798 7.78862 75.8751C8.28014 74.7132 8.52622 73.4622 8.51144 72.2007C8.3207 69.6709 6.18234 67.7935 4.2247 66.1772C2.06627 64.3902 -0.152398 62.0511 0.0082294 59.0293C0.297735 56.6878 1.35717 54.5089 3.01999 52.8351C4.55599 51.0682 6.35301 49.5422 7.7585 47.6749C8.86606 46.3687 9.48688 44.7191 9.51536 43.0067C9.43446 41.9534 9.13713 40.9281 8.64195 39.9949C7.63803 37.9871 6.35301 36.0897 5.72054 33.9714C5.08807 31.8531 5.32901 29.1928 7.05576 27.7571C8.48133 26.5926 10.4992 26.5123 12.3263 26.7532C14.0363 27.0453 15.6609 27.7102 17.0849 28.7008C21.7532 31.6122 24.2027 37.4349 29.1922 39.744C31.1834 40.4767 33.2187 41.0836 35.286 41.5611C37.2939 42.2136 39.3017 43.3581 40.1952 45.3057C41.8818 49.1306 38.1874 53.5579 39.2917 57.5937C40.2956 61.1576 43.6186 62.6735 45.3754 65.9363C46.0853 67.3721 46.3175 68.9973 46.038 70.5744C45.7403 73.2526 44.9507 75.8528 43.7089 78.2444C42.319 80.6988 40.7802 83.0658 39.1009 85.3321C39.1009 85.3321 16.342 98.4834 16.1312 98.5838Z" fill="white"/>
</g>
<path d="M29.3425 91.707C29.1846 91.6892 29.0394 91.6118 28.9367 91.4904C28.8341 91.3691 28.7817 91.2131 28.7904 91.0544C30.9789 67.3618 21.1204 40.5973 13.3702 32.5759C13.2592 32.4617 13.1971 32.3086 13.1971 32.1493C13.1971 31.99 13.2592 31.8369 13.3702 31.7226C13.4261 31.6665 13.4926 31.6219 13.5658 31.5915C13.639 31.5611 13.7175 31.5455 13.7968 31.5455C13.8761 31.5455 13.9546 31.5611 14.0278 31.5915C14.101 31.6219 14.1675 31.6665 14.2235 31.7226C22.1143 39.9247 32.1836 67.1008 29.965 91.1949C29.9428 91.3421 29.8669 91.4758 29.752 91.5704C29.6371 91.6649 29.4912 91.7136 29.3425 91.707Z" fill="white"/>
<path d="M26.9837 62.4928H26.8131C21.273 60.6633 15.5505 59.4414 9.74641 58.8486C9.58825 58.8333 9.44253 58.7562 9.34099 58.6339C9.23945 58.5117 9.19032 58.3543 9.2043 58.196C9.2077 58.1162 9.22779 58.0379 9.26328 57.9663C9.29877 57.8947 9.34887 57.8313 9.41034 57.7803C9.47182 57.7292 9.54331 57.6915 9.62021 57.6698C9.69712 57.648 9.77772 57.6426 9.85684 57.6539C15.7709 58.2545 21.6015 59.5001 27.2448 61.3684C27.3189 61.3941 27.3871 61.4345 27.4452 61.4872C27.5033 61.5399 27.5502 61.6038 27.583 61.675C27.6158 61.7463 27.6339 61.8235 27.6362 61.9019C27.6384 61.9803 27.6248 62.0584 27.5961 62.1314C27.5498 62.2519 27.4641 62.3531 27.3529 62.4188C27.2417 62.4844 27.1116 62.5105 26.9837 62.4928Z" fill="white"/>
</svg>
