<svg width="4" height="7" viewBox="0 0 4 7" fill="none" xmlns="http://www.w3.org/2000/svg">
<path d="M0.300994 2.24188C0.300994 2.15992 0.372713 2.05746 0.423939 1.96526C0.464936 1.8645 0.516448 1.76835 0.577617 1.6784C0.639778 1.59151 0.708261 1.50932 0.782516 1.43251C0.865513 1.34968 0.958427 1.27742 1.05914 1.21737C1.14131 1.15853 1.23428 1.11647 1.33273 1.09362C1.43118 1.07076 1.53317 1.06755 1.63286 1.08418C1.71422 1.11379 1.78782 1.16143 1.84814 1.22353C1.90847 1.28563 1.95396 1.36057 1.9812 1.44275L2.13487 1.05344C2.19363 0.934012 2.25861 0.817745 2.32953 0.705112C2.40003 0.593995 2.48248 0.490927 2.57541 0.397755C2.67376 0.302151 2.78394 0.219514 2.90326 0.151867C3.28233 -0.063281 3.55895 -0.0530328 3.73312 0.203095C3.93906 0.596749 4.02794 1.04115 3.98924 1.48374V3.89133C4.00376 3.9554 4.00376 4.02192 3.98924 4.08599C3.96642 4.14101 3.92703 4.18756 3.87655 4.21918L3.67164 4.33188C3.6571 4.34352 3.63904 4.34986 3.62042 4.34986C3.6018 4.34986 3.58373 4.34352 3.56919 4.33188C3.55191 4.28563 3.55191 4.2347 3.56919 4.18845V1.87306C3.60229 1.56633 3.54533 1.2566 3.40527 0.981719C3.29258 0.838287 3.12865 0.828042 2.90326 0.981719C2.68486 1.12036 2.51622 1.32489 2.42173 1.5657C2.29134 1.89114 2.2286 2.23973 2.23733 2.59021V4.96707C2.25088 5.03125 2.25088 5.09755 2.23733 5.16173C2.21096 5.2145 2.17231 5.26018 2.12463 5.29492L1.91973 5.40762C1.90519 5.41926 1.88713 5.4256 1.8685 5.4256C1.84988 5.4256 1.83181 5.41926 1.81728 5.40762C1.78241 5.36817 1.76406 5.3168 1.76605 5.26419V2.94878C1.79915 2.64206 1.74219 2.33234 1.60213 2.05746C1.48943 1.91403 1.32551 1.90378 1.10012 2.05746C0.881724 2.1961 0.713086 2.40063 0.618598 2.64144C0.487363 2.96664 0.424585 3.3154 0.434186 3.66595V6.04281C0.447732 6.10699 0.447732 6.17329 0.434186 6.23747C0.410749 6.28946 0.371246 6.33255 0.321489 6.36041L0.116582 6.48336C0.109904 6.49018 0.101936 6.49558 0.0931403 6.49927C0.0843443 6.50297 0.0749018 6.50487 0.0653608 6.50487C0.0558198 6.50487 0.0463773 6.50297 0.0375813 6.49927C0.0287853 6.49558 0.0208094 6.49018 0.0141321 6.48336C0.0048117 6.4624 0 6.43971 0 6.41676C0 6.39382 0.0048117 6.37113 0.0141321 6.35017V2.25212C0.00143168 2.18786 0.00143168 2.12172 0.0141321 2.05746C0.0369024 2.00537 0.0720746 1.95964 0.116582 1.92427L0.321489 1.81157C0.336711 1.79716 0.356876 1.78914 0.377837 1.78914C0.398799 1.78914 0.418964 1.79716 0.434186 1.81157C0.434186 1.81157 0.434186 1.88329 0.434186 1.94476L0.300994 2.24188Z" fill="#455A64"/>
</svg>
