<svg width="63" height="64" viewBox="0 0 63 64" fill="none" xmlns="http://www.w3.org/2000/svg">
<g clip-path="url(#clip0_68_714)">
<g clip-path="url(#clip1_68_714)">
<path d="M58.8247 33.2433V24.2286C59.8313 24.3425 60.7763 24.7973 61.5004 25.5273C62.3439 26.3776 62.8184 27.5317 62.8184 28.7359C62.8184 29.9402 62.3439 31.0943 61.5004 31.9446C60.7763 32.6746 59.8313 33.1294 58.8247 33.2433ZM51.5133 7.56297L51.52 7.56031L51.5266 7.55747C52.2033 7.26605 52.9405 7.14675 53.6735 7.2099C54.4047 7.27291 55.1098 7.51566 55.7269 7.91717C56.3312 8.32995 56.8271 8.88519 57.1714 9.5352C57.5164 10.1865 57.6986 10.9131 57.7021 11.6519C57.7021 11.6521 57.7021 11.6524 57.7021 11.6527L57.7021 45.9349C57.6805 46.653 57.4902 47.3556 57.1469 47.9847C56.8026 48.6157 56.3145 49.1547 55.7233 49.5572C54.9771 50.064 54.1016 50.3417 53.2027 50.3571C52.6251 50.3568 52.0526 50.2461 51.5157 50.0308C51.5154 50.0307 51.5152 50.0306 51.515 50.0305L27.2129 40.2388L26.5242 39.9614V40.7038V50.8987C26.5243 52.0967 26.0547 53.2453 25.219 54.0946C24.3838 54.9433 23.2509 55.4243 22.0669 55.4344H19.5526C18.701 55.4283 17.868 55.1804 17.1492 54.7187C16.4301 54.2568 15.8542 53.5995 15.4881 52.8218C15.488 52.8215 15.4879 52.8213 15.4877 52.821L9.49243 40.0078L9.35723 39.7189L9.0382 39.719C7.86577 39.7193 6.73892 39.2574 5.89867 38.4306C5.05966 37.6051 4.57291 36.4812 4.54323 35.2981V34.7803V34.279H4.0419H-0.453217V23.1929H4.0419H4.54323V22.6916V22.2886C4.54323 21.0844 5.0178 19.9303 5.86125 19.08C6.70457 18.2298 7.84748 17.7529 9.03835 17.7529H24.8271C24.8271 17.7529 24.8271 17.7529 24.8271 17.7529C25.5219 17.753 26.2101 17.6174 26.8535 17.3538C26.8544 17.3535 26.8552 17.3531 26.8561 17.3527L51.5133 7.56297ZM22.5305 22.2886V21.7873H22.0291H9.03835H8.53701V22.2886V35.3042V35.8055H9.03835H22.0291H22.5305V35.3042V22.2886ZM22.0291 51.4001H22.5305V50.8987V40.2203V39.719H22.0291H14.5944H13.8117L14.139 40.43L19.0555 51.1084L19.1898 51.4001H19.5109H22.0291ZM28.2749 36.3543L28.2959 36.3651L28.3178 36.3739L53.0203 46.2867L53.7083 46.5628V45.8214V11.6505V10.9091L53.0203 11.1852L28.3198 21.0972C28.3195 21.0973 28.3192 21.0975 28.3188 21.0976C27.8663 21.2768 27.3995 21.4167 26.9235 21.5157L26.5242 21.5987V22.0065V35.3042V35.6738L26.8773 35.7831C27.3588 35.9321 27.8264 36.1232 28.2749 36.3543Z" fill="white" stroke="#071C54"/>
</g>
</g>
<defs>
<clipPath id="clip0_68_714">
<rect width="62.8324" height="63.3423" fill="white" transform="scale(1.00267)"/>
</clipPath>
<clipPath id="clip1_68_714">
<rect width="63.7844" height="64.302" fill="white" transform="translate(-0.954551 -0.962277) scale(1.00267)"/>
</clipPath>
</defs>
</svg>
