<svg width="196" height="424" viewBox="0 0 196 424" fill="none" xmlns="http://www.w3.org/2000/svg">
<path d="M195.99 311.334V11.8416C195.99 5.22891 192.709 3.40816 189.788 1.72748C186.866 0.04679 182.064 -0.983631 177.923 1.40735L7.50307 99.8176C5.31999 101.245 3.50334 103.166 2.19993 105.425C0.896518 107.684 0.142905 110.219 0 112.823V412.315C0 417.107 3.00122 419.928 5.92242 421.609C8.84361 423.29 13.9257 425.14 18.0674 422.75L188.487 324.339C190.834 323.097 192.784 321.218 194.111 318.917C195.438 316.616 196.09 313.988 195.99 311.334Z" fill="#37474F"/>
<path d="M189.237 313.765L15.8065 413.916V113.313L2.19089 105.43C0.845328 107.669 0.0913869 110.213 0 112.823V412.315C0 417.107 3.00122 419.928 5.92242 421.609C8.84361 423.29 13.9257 425.141 18.0674 422.75L188.487 324.339C191.436 322.759 193.734 320.191 194.98 317.086L194.559 316.846L189.237 313.765Z" fill="#263238"/>
<path d="M188.287 9.62067L17.5672 108.211C16.0342 109.211 14.7581 110.559 13.8422 112.144C12.9263 113.729 12.3963 115.507 12.2951 117.335V414.736C12.2951 419.878 15.9466 421.979 20.3984 419.398L188.287 322.418C190.028 321.285 191.477 319.758 192.52 317.961C193.563 316.164 194.169 314.148 194.289 312.074V13.0721C194.259 9.29054 191.568 7.7299 188.287 9.62067Z" fill="#455A64"/>
<path d="M190.077 34.5709V299.149C189.969 301.142 189.392 303.082 188.395 304.812C187.397 306.541 186.006 308.011 184.335 309.103L22.2686 402.721C19.0973 404.562 16.5263 403.081 16.5263 399.41V133.061C16.7027 129.771 18.135 126.673 20.5279 124.408L21.0681 123.917C21.4383 123.622 21.8295 123.355 22.2386 123.117L182.304 30.7093L182.874 30.3792C186.806 28.0682 190.077 29.959 190.077 34.5709Z" fill="black"/>
<path d="M175.992 302.66C177.662 301.567 179.052 300.097 180.05 298.368C181.047 296.639 181.624 294.7 181.734 292.706V30.9995L22.2191 123.117C21.8099 123.355 21.4187 123.623 21.0486 123.917L20.5084 124.408C18.1121 126.671 16.6791 129.77 16.5067 133.061V394.778L175.992 302.66Z" fill="#FAFAFA"/>
<path d="M82.3534 78.879L106.703 64.7533C107.564 64.2531 108.264 64.6132 108.264 65.5436C108.226 66.0665 108.065 66.5729 107.794 67.0215C107.522 67.4701 107.149 67.8481 106.703 68.1247L82.3534 82.2504C81.4931 82.7506 80.7928 82.4005 80.7928 81.4601C80.8308 80.9373 80.992 80.4308 81.2632 79.9822C81.5345 79.5336 81.908 79.1556 82.3534 78.879Z" fill="#263238"/>
<path d="M114.096 59.8012C115.097 59.241 115.857 59.6912 115.857 60.8017C115.817 61.4044 115.638 61.9896 115.332 62.5106C115.026 63.0316 114.603 63.4741 114.096 63.8029C113.096 64.3631 112.346 63.9029 112.346 62.8025C112.386 62.201 112.565 61.6169 112.869 61.0962C113.172 60.5755 113.593 60.1322 114.096 59.8012Z" fill="#263238"/>
<path d="M9.80391 143.665C9.7667 142.673 9.49649 141.703 9.01509 140.834C8.5337 139.965 7.85464 139.221 7.03277 138.663C6.76126 138.465 6.44021 138.344 6.10488 138.316C5.76956 138.288 5.43294 138.353 5.132 138.503C4.78186 138.713 3.4113 139.504 3.05115 139.694C2.74343 139.921 2.50163 140.226 2.35046 140.578C2.1993 140.929 2.1442 141.315 2.1908 141.695V162.643C2.22834 163.637 2.49975 164.608 2.98299 165.477C3.46622 166.346 4.14765 167.089 4.97193 167.645C5.23433 167.833 5.54054 167.95 5.86114 167.985C6.18175 168.02 6.50598 167.972 6.80268 167.845C7.18284 167.645 8.58341 166.845 8.94356 166.615C9.25128 166.387 9.49308 166.082 9.64424 165.731C9.7954 165.379 9.8505 164.994 9.80391 164.614V143.665Z" fill="#455A64"/>
<path d="M7.80319 144.856V165.804C7.80319 167.685 6.56268 168.506 5.03205 167.615C4.20778 167.059 3.52634 166.316 3.04311 165.447C2.55987 164.578 2.28846 163.607 2.25092 162.613V141.655C2.25092 139.764 3.49143 138.954 5.02205 139.844C5.8488 140.4 6.53192 141.144 7.01536 142.015C7.49881 142.887 7.7688 143.86 7.80319 144.856Z" fill="#37474F"/>
<path d="M9.80357 180.36C9.7648 179.368 9.49391 178.399 9.01266 177.53C8.5314 176.661 7.85318 175.918 7.03244 175.358C6.75951 175.162 6.43807 175.045 6.103 175.018C5.76792 174.992 5.432 175.057 5.13167 175.208C4.78153 175.418 3.41096 176.209 3.05082 176.399C2.74231 176.626 2.49992 176.931 2.34867 177.282C2.19743 177.634 2.14281 178.02 2.19046 178.4V199.348C2.22879 200.342 2.50054 201.312 2.98371 202.181C3.46688 203.05 4.14789 203.793 4.9716 204.35C5.23366 204.539 5.54051 204.656 5.86167 204.689C6.18283 204.722 6.50713 204.671 6.80235 204.54C7.1825 204.34 8.58308 203.54 8.94322 203.32C9.25017 203.092 9.49139 202.787 9.64247 202.435C9.79355 202.084 9.84912 201.699 9.80357 201.319V180.36Z" fill="#455A64"/>
<path d="M7.80319 181.521V202.47C7.80319 204.35 6.56268 205.161 5.03205 204.28C4.20834 203.723 3.52733 202.98 3.04417 202.111C2.561 201.242 2.28925 200.272 2.25092 199.278V178.36C2.25092 176.479 3.49143 175.669 5.02205 176.549C5.84179 177.103 6.52034 177.841 7.00331 178.705C7.48628 179.568 7.76023 180.533 7.80319 181.521Z" fill="#37474F"/>
</svg>
