<svg width="42" height="42" viewBox="0 0 42 42" fill="none" xmlns="http://www.w3.org/2000/svg">
<path d="M10.4999 30.7C9.94295 30.7 9.40881 30.4787 9.01498 30.0849C8.62115 29.6911 8.3999 29.157 8.3999 28.6C8.3999 28.043 8.62115 27.5089 9.01498 27.1151C9.40881 26.7212 9.94295 26.5 10.4999 26.5H31.4999C32.0569 26.5 32.591 26.7212 32.9848 27.1151C33.3787 27.5089 33.5999 28.043 33.5999 28.6C33.5999 29.157 33.3787 29.6911 32.9848 30.0849C32.591 30.4787 32.0569 30.7 31.4999 30.7H10.4999Z" fill="#FCA311"/>
<path d="M18.8999 18.1C18.8999 17.543 19.1212 17.0089 19.515 16.6151C19.9088 16.2212 20.4429 16 20.9999 16C21.5569 16 22.091 16.2212 22.4848 16.6151C22.8787 17.0089 23.0999 17.543 23.0999 18.1V39.1C23.0999 39.657 22.8787 40.1911 22.4848 40.5849C22.091 40.9788 21.5569 41.2 20.9999 41.2C20.4429 41.2 19.9088 40.9788 19.515 40.5849C19.1212 40.1911 18.8999 39.657 18.8999 39.1V18.1Z" fill="#FCA311"/>
</svg>
