<svg width="44" height="34" viewBox="0 0 44 34" fill="none" xmlns="http://www.w3.org/2000/svg">
<path d="M42.3041 1.76632e-06H31.1013C28.6973 1.76632e-06 26.347 0.682323 24.3248 1.96954L21.9355 3.4842L19.5461 1.96954C17.5259 0.68257 15.173 -0.00126844 12.7696 1.76632e-06H1.56682C0.700172 1.76632e-06 0 0.692002 0 1.54853V29.035C0 29.8915 0.700172 30.5835 1.56682 30.5835H12.7696C15.1737 30.5835 17.5239 31.2658 19.5461 32.553L21.72 33.937C21.7837 33.9758 21.8571 34 21.9306 34C22.004 34 22.0774 33.9806 22.1411 33.937L24.3151 32.553C26.3421 31.2658 28.6973 30.5835 31.1013 30.5835H42.3041C43.1707 30.5835 43.8709 29.8915 43.8709 29.035V1.54853C43.8709 0.692002 43.1707 1.76632e-06 42.3041 1.76632e-06ZM12.7696 27.0993H3.52534V3.4842H12.7696C14.5029 3.4842 16.1872 3.97295 17.6414 4.89723L20.0308 6.41189L20.3686 6.62965V28.9866C18.038 27.7478 15.4332 27.0993 12.7696 27.0993ZM40.3456 27.0993H31.1013C28.4377 27.0993 25.8329 27.7478 23.5023 28.9866V6.62965L23.8401 6.41189L26.2295 4.89723C27.6837 3.97295 29.368 3.4842 31.1013 3.4842H40.3456V27.0993ZM16.2998 9.67832H7.20247C7.01151 9.67832 6.85483 9.84286 6.85483 10.0413V12.2189C6.85483 12.4173 7.01151 12.5818 7.20247 12.5818H16.2949C16.4859 12.5818 16.6425 12.4173 16.6425 12.2189V10.0413C16.6474 9.84286 16.4908 9.67832 16.2998 9.67832ZM27.2235 10.0413V12.2189C27.2235 12.4173 27.3801 12.5818 27.5711 12.5818H36.6635C36.8545 12.5818 37.0112 12.4173 37.0112 12.2189V10.0413C37.0112 9.84286 36.8545 9.67832 36.6635 9.67832H27.5711C27.3801 9.67832 27.2235 9.84286 27.2235 10.0413ZM16.2998 16.4531H7.20247C7.01151 16.4531 6.85483 16.6177 6.85483 16.8161V18.9937C6.85483 19.1921 7.01151 19.3566 7.20247 19.3566H16.2949C16.4859 19.3566 16.6425 19.1921 16.6425 18.9937V16.8161C16.6474 16.6177 16.4908 16.4531 16.2998 16.4531ZM36.6684 16.4531H27.5711C27.3801 16.4531 27.2235 16.6177 27.2235 16.8161V18.9937C27.2235 19.1921 27.3801 19.3566 27.5711 19.3566H36.6635C36.8545 19.3566 37.0112 19.1921 37.0112 18.9937V16.8161C37.0161 16.6177 36.8594 16.4531 36.6684 16.4531Z" fill="#071C54"/>
</svg>
