<svg width="190" height="270" viewBox="0 0 190 270" fill="none" xmlns="http://www.w3.org/2000/svg">
<path d="M145.373 48.3306C163.603 58.8517 190 83.7581 190 128.686C190 173.613 168.728 207.019 128.065 221.964C106.312 229.973 71.4549 230.363 49.0412 222.365C26.207 210.682 10.8207 198.66 2.44187 176.847C-6.18727 151.5 9.22905 124.992 30.2513 109.846C51.2736 94.6997 48.7409 77.4314 63.5866 59.5124C71.5951 49.8722 83.3175 41.6235 97.6226 40.0318C113.339 38.2799 131.448 40.3121 145.373 48.3306Z" fill="#071C54"/>
<path opacity="0.6" d="M145.373 48.3306C163.603 58.8517 190 83.7581 190 128.686C190 173.613 168.728 207.019 128.065 221.964C106.312 229.973 71.4549 230.363 49.0412 222.365C26.207 210.682 10.8207 198.66 2.44187 176.847C-6.18727 151.5 9.22905 124.992 30.2513 109.846C51.2736 94.6997 48.7409 77.4314 63.5866 59.5124C71.5951 49.8722 83.3175 41.6235 97.6226 40.0318C113.339 38.2799 131.448 40.3121 145.373 48.3306Z" fill="white"/>
<path opacity="0.3" d="M136.253 149.498C136.253 149.498 140.258 144.843 143.211 134.972C148.106 118.535 148.216 88.0226 143.02 72.5563C135.502 50.1425 104.059 49.0814 104.059 49.0814C104.059 49.0814 82.6465 46.769 70.9041 77.2613C59.1616 107.754 56.5389 115.952 43.0146 123.44C37.4286 126.523 30.8117 127.885 25.6362 131.589C22.7537 133.614 20.3413 136.236 18.563 139.277C16.7847 142.317 15.6823 145.706 15.3309 149.211C14.9794 152.716 15.3871 156.255 16.5262 159.589C17.6654 162.922 19.5092 165.971 21.9322 168.528C25.6662 172.472 30.8617 175.415 32.7637 180.541C34.1252 184.214 33.4745 188.299 32.8138 192.163C31.8728 197.609 30.9284 203.054 29.9808 208.5C29.8506 209.291 29.7105 210.092 29.6104 210.903C35.8095 215.182 42.3024 219.019 49.0409 222.385C53.382 223.902 57.8332 225.083 62.355 225.919C63.1158 220.072 64.1469 214.256 65.4383 208.51C65.9088 206.508 66.6896 204.086 68.6917 203.505C70.9842 202.784 73.2065 204.876 74.3177 207.009C75.8393 209.922 77.8214 212.124 81.3251 212.705C85.95 213.465 89.5238 210.402 92.1366 206.939C96.341 201.373 94.7693 193.715 92.8974 187.568C92.0465 184.785 91.4659 181.782 92.2267 178.979C93.8384 173.083 103.308 170.85 108.194 168.658C115.291 165.475 122.399 162.271 129.626 159.378C151.039 150.789 164.083 156.976 164.083 156.976C164.083 156.976 151.72 146.454 136.253 149.498Z" fill="#071C54"/>
<path opacity="0.3" d="M58.8015 225.138C84.8291 228.141 112.068 221.774 133.441 207.239C166.155 184.975 180.32 149.688 173.313 107.874C167.126 70.9445 148.667 50.613 130.127 42.1941C134.243 43.27 138.243 44.7487 142.07 46.6088C157.086 57.5604 170.43 77.021 175.535 107.503C182.693 150.238 168.197 186.317 134.702 209.101C118.111 220.196 98.8661 226.678 78.9429 227.881C72.166 227.512 65.4302 226.595 58.8015 225.138Z" fill="#071C54"/>
<path d="M73.4874 171.171C76.1703 172.432 78.6629 169.949 81.4959 171.311C83.4758 172.239 85.0086 173.912 85.7604 175.966C86.0554 177.033 86.5183 178.047 87.1319 178.969C88.0128 179.97 88.9137 180.971 89.7847 182.062C91.2054 183.685 92.7339 185.21 94.3595 186.627C98.2737 190.171 99.565 195.877 99.2847 200.992C99.1446 203.675 97.9833 204.526 96.8421 206.948C96.0613 208.6 94.5297 210.612 92.5276 210.632C90.5254 210.652 88.8837 209.111 87.7625 207.629C86.3911 205.807 86.5913 204.886 85.7103 202.834C84.8294 200.782 83.538 197.829 81.7061 196.628C80.1769 195.546 78.7065 194.383 77.3015 193.144C74.632 190.975 72.0125 188.769 69.4431 186.527L68.6623 185.846C66.0996 183.844 54.9077 178.598 54.9077 178.598L62.2856 160.9L73.4874 171.171Z" fill="#C8856A"/>
<path d="M82.3069 170.73C83.5796 170.506 84.8905 170.737 86.0108 171.381C87.3614 173.171 88.3415 175.213 88.8938 177.387C89.7247 180.39 90.1152 181.602 92.0472 183.003C94.7004 184.679 96.9389 186.934 98.5941 189.6C99.9075 191.66 100.749 193.984 101.059 196.407C101.369 198.83 101.139 201.291 100.386 203.615C98.6241 209.571 96.6721 210.923 95.1405 211.623C93.7838 212.057 92.3484 212.187 90.936 212.004L82.3069 170.73Z" fill="#263238"/>
<path d="M72.4058 170.19L73.487 171.191C74.1202 171.668 74.7159 172.194 75.2689 172.762C77.4912 175.225 77.1409 180.691 76.9907 182.162C76.5135 182.086 76.0254 182.114 75.5603 182.245C75.0952 182.377 74.6644 182.608 74.2979 182.923C72.536 184.164 69.683 186.587 69.9232 187.578C70.1635 188.569 76.7004 192.243 80.0139 196.057C83.3274 199.871 83.7779 201.973 84.9091 205.857C85.7099 208.63 88.1325 213.225 92.1467 211.784C94.249 211.053 99.3044 206.778 99.2143 197.669C99.1442 189.6 93.4181 185.966 90.445 183.784C87.4718 181.602 87.0814 179.289 85.4397 175.185C84.7189 173.393 84.2884 171.961 82.2763 170.76C79.6235 169.999 76.9707 170.7 75.0186 170.49C73.447 170.29 72.8663 169.359 72.4058 170.19Z" fill="#37474F"/>
<path d="M76.9911 182.142C76.8845 182.562 76.9307 183.005 77.1213 183.394C77.3554 183.752 77.6501 184.067 77.9922 184.324C78.6329 184.855 79.2435 185.376 79.8642 185.916C81.1155 186.977 82.3368 188.058 83.518 189.18C84.6993 190.296 85.8188 191.475 86.8716 192.713C87.924 193.962 88.8371 195.321 89.5945 196.768C89.0945 195.182 88.3296 193.693 87.332 192.363C86.3571 191.015 85.2578 189.762 84.0486 188.619C82.8526 187.476 81.589 186.407 80.2646 185.416C79.6139 184.925 78.9231 184.415 78.2624 183.994C77.9194 183.795 77.6061 183.549 77.3315 183.263C77.1022 182.935 76.9831 182.543 76.9911 182.142Z" fill="#263238"/>
<path d="M89.6743 195.166C87.5821 195.636 83.0373 198.55 83.1074 200.572L83.3577 201.102C82.8652 200.745 82.5114 200.229 82.3566 199.641C82.0363 198.58 84.3587 195.526 88.9736 194.115C89.6644 194.205 90.315 194.936 89.6743 195.166Z" fill="#FAFAFA"/>
<path d="M87.0718 191.843C84.9596 192.193 80.7151 194.756 80.665 196.768L80.9553 197.138C80.6887 197.046 80.4535 196.881 80.2764 196.661C80.0994 196.442 79.9877 196.177 79.9543 195.897C79.704 194.826 81.7962 191.893 86.4612 190.741C87.1118 190.932 87.6825 191.682 87.0718 191.843Z" fill="#FAFAFA"/>
<path d="M84.1179 188.699C82.0557 189.22 77.8613 191.973 78.0015 194.005L78.4319 194.385C78.173 194.311 77.9323 194.184 77.7255 194.012C77.5186 193.839 77.35 193.625 77.2306 193.384C76.7801 192.333 78.9124 189.17 83.4172 187.638C84.0779 187.718 84.7085 188.489 84.1179 188.699Z" fill="#FAFAFA"/>
<path d="M81.4559 186.126C79.4538 186.647 74.8989 189.55 75.0491 191.572L75.4896 191.953C74.9449 191.776 74.4895 191.396 74.2182 190.892C73.7778 189.83 76.2203 186.607 80.7451 185.075C81.4058 185.155 82.0465 185.926 81.4559 186.126Z" fill="#FAFAFA"/>
<path d="M77.6115 112.168C77.3407 112.891 76.903 113.54 76.3342 114.062C75.7654 114.583 75.0815 114.964 74.338 115.171C67.5709 116.823 50.0023 121.108 40.0517 124.761C25.2661 130.197 21.3519 132.279 18.0284 138.226C16.8864 140.25 16.215 142.505 16.0642 144.823C15.9134 147.142 16.2871 149.465 17.1575 151.62C18.3688 154.913 23.0337 161.09 31.803 166.235C45.6376 174.334 53.9064 178.889 62.3954 182.913C62.3954 182.913 69.9334 174.845 70.7442 167.897L58.4212 156.665L87.522 142.951L124.751 109.125L77.6115 112.168Z" fill="#455A64"/>
<path d="M57.9002 154.693C54.065 157.332 51.408 161.361 50.4924 165.925C49.9919 168.268 49.2811 172.472 48.7205 175.936C53.7258 178.679 58.0404 180.891 62.395 182.943C62.395 182.943 69.933 174.875 70.7438 167.927L58.4208 156.695L60.1126 155.894L57.9002 154.693Z" fill="#37474F"/>
<path d="M87.5223 142.941L79.5138 118.184L76.5106 123.73C77.1213 130.217 78.1023 132.74 79.4137 135.793C79.4137 135.793 64.9884 146.695 63.3967 147.686C57.3904 151.42 56.5595 150.909 53.1659 148.467C51.3936 147.165 49.3341 146.309 47.1614 145.971C44.9888 145.633 42.7667 145.823 40.6827 146.524C49.0916 145.924 51.1538 149.408 58.4615 156.655L87.5623 142.941H87.5223Z" fill="#37474F"/>
<path d="M61.7547 232.826C62.3554 235.449 64.2874 239.113 63.5066 242.476C63.2455 243.636 62.7573 244.734 62.07 245.704C61.3828 246.675 60.5101 247.5 59.5023 248.132C58.4338 248.706 57.4584 249.438 56.6093 250.304C55.7383 251.486 54.8574 252.687 53.9465 253.868C52.4949 255.76 51.3237 256.711 50.1424 258.783C47.2894 263.789 41.5133 266.522 35.9974 267.443C33.2625 267.965 30.4502 267.931 27.7287 267.342C25.7766 266.902 23.264 265.741 22.7734 263.608C22.2829 261.476 23.5342 259.364 24.8556 257.822C26.4673 255.92 28.8599 254.819 30.812 253.398C32.9755 251.767 34.885 249.823 36.478 247.632C38.1697 245.249 43.2751 240.204 45.037 231.474C45.8379 227.47 48.1103 210.202 48.1103 210.202L68.3217 211.333C68.3217 211.333 61.1441 230.203 61.7547 232.826Z" fill="#C8856A"/>
<path d="M64.2872 243.167C64.822 244.472 64.8857 245.924 64.4674 247.271C62.8693 249.14 60.9118 250.668 58.7113 251.766C55.7082 253.378 54.5069 254.078 53.4658 256.471C52.4247 258.863 51.764 261.366 48.4605 264.479C45.157 267.593 39.7513 269.725 31.913 269.485C25.1358 269.284 22.9034 266.782 22.3328 266.101C21.5431 264.943 21.0609 263.603 20.9313 262.207L64.2872 243.167Z" fill="#263238"/>
<path d="M61.8848 231.044C61.7609 231.78 61.674 232.522 61.6245 233.266C61.5181 234.279 61.082 235.229 60.3832 235.969C58.1508 238.412 54.0164 239.313 52.3747 239.503C52.0118 238.483 51.2644 237.646 50.2925 237.171C47.1992 235.409 43.6555 234.598 42.6544 235.088C41.6533 235.579 40.0316 241.275 36.7582 245.72C33.4847 250.164 30.4014 252.046 26.1369 254.869C23.5041 256.611 19.0394 259.534 21.522 263.478C22.7934 265.551 29.3803 268.484 39.0606 266.251C47.6497 264.249 50.7129 258.673 52.3346 254.979C53.9564 251.286 56.3389 250.324 60.3431 247.592C62.085 246.39 63.5065 245.589 64.3474 243.167C64.5276 240.164 63.1461 236.44 62.9058 234.308C62.6756 232.576 62.8758 231.334 61.8848 231.044Z" fill="#37474F"/>
<path d="M52.4052 239.503C51.9349 239.52 51.4815 239.682 51.1069 239.967C50.7324 240.252 50.4551 240.646 50.313 241.095C49.7942 242.148 49.2091 243.168 48.5612 244.148C45.6614 248.554 42.1985 252.562 38.2602 256.071C42.9852 253.298 46.1086 249.183 48.9315 244.658C49.6183 243.58 50.2175 242.449 50.7234 241.275C50.7976 240.847 50.9969 240.45 51.2961 240.134C51.5954 239.819 51.9813 239.599 52.4052 239.503Z" fill="#263238"/>
<path d="M40.1318 255.21C38.2198 251.906 33.9452 250.374 31.813 250.925L31.3125 251.315C31.5781 250.715 32.0456 250.226 32.6339 249.934C33.695 249.343 38.5101 249.674 41.1028 254.239C41.1629 254.999 40.4922 255.81 40.1318 255.21Z" fill="#FAFAFA"/>
<path d="M44.1858 251.996C42.5541 248.823 37.5287 247.091 35.3664 247.511L34.996 247.932C35.0448 247.621 35.1751 247.328 35.3738 247.084C35.5726 246.839 35.8325 246.652 36.1272 246.54C37.2184 246.01 43.0846 246.981 45.2069 251.085C45.2669 251.766 44.4961 252.577 44.1858 251.996Z" fill="#FAFAFA"/>
<path d="M47.1489 248.162C45.9776 245.459 40.1414 243.157 38.0492 243.768L37.7089 244.348C37.7363 244.047 37.8229 243.754 37.9638 243.486C38.1046 243.218 38.2969 242.98 38.5297 242.786C39.5308 242.066 45.8174 243.437 48.1099 247.171C48.1799 247.892 47.5193 248.743 47.1489 248.162Z" fill="#FAFAFA"/>
<path d="M49.1117 244.689C48.1107 241.685 42.1043 239.803 39.942 240.434L39.5116 241.175C39.5167 240.885 39.5847 240.6 39.7108 240.339C39.837 240.078 40.0184 239.847 40.2423 239.663C41.2434 238.942 47.3599 239.233 50.0627 243.667C50.1328 244.398 49.4821 245.269 49.1117 244.689Z" fill="#FAFAFA"/>
<path d="M75.3491 116.383L79.9039 111.848L134.862 119.025C134.952 124.391 132.78 135.683 130.628 141.419C128.625 146.675 126.153 152.291 113.69 158.948C101.226 165.605 86.3107 172.362 83.3075 174.074C78.9529 176.526 77.3011 177.627 76.9808 185.386C76.7205 191.893 72.7964 203.595 70.2637 210.592L64.5977 226.299C62.3553 229.242 48.9912 228.712 45.5776 224.477C45.5776 224.477 50.4827 177.898 52.0744 169.709C52.9754 165.134 53.8463 161.02 59.3321 155.854C64.0271 151.42 82.2464 135.883 82.2464 135.883C78.0678 130.209 75.6673 123.422 75.3491 116.383Z" fill="#455A64"/>
<path d="M124.562 123.51C125.152 134.922 125.563 141.8 109.936 149.758C105.241 152.15 100.366 154.433 95.651 156.635C81.6362 163.172 72.1361 170.27 71.4053 175.465C71.115 177.467 70.9549 179.81 70.7647 182.543C70.1704 190.434 68.8092 198.249 66.7004 205.877C64.6082 213.636 62.8563 219.211 61.3247 224.407C61.8152 224.357 62.3258 224.287 62.7262 224.207C64.2578 219.011 65.9195 213.716 67.9417 206.188C70.073 198.478 71.4476 190.579 72.046 182.603C72.2362 179.89 72.3964 177.597 72.6767 175.595C73.3174 171.091 83.6884 163.583 96.2016 157.746C100.927 155.544 105.812 153.262 110.517 150.849C126.834 142.52 126.444 134.912 125.853 123.39C125.793 122.299 125.743 121.168 125.693 119.996L124.391 119.746C124.442 121.078 124.502 122.319 124.562 123.51Z" fill="#37474F"/>
<path d="M114.861 148.196C114.661 148.056 110.076 144.612 112.198 136.304C114.521 127.244 114.29 123 113.71 116.823L114.991 116.703C115.842 123.379 115.317 130.158 113.45 136.624C111.538 144.092 115.572 147.125 115.612 147.155L114.861 148.196Z" fill="#37474F"/>
<path d="M45.7276 219.262C47.6196 222.445 59.372 225.608 65.959 222.755L64.0069 228.501C59.0016 231.505 49.6717 230.503 45.167 225.778L45.7276 219.262Z" fill="#37474F"/>
<path d="M100.095 51.0435C96.4516 50.6604 92.7704 51.1921 89.3846 52.5905C85.9988 53.9888 83.0153 56.2097 80.7042 59.0519C75.5788 65.0583 67.6904 73.6374 61.0234 82.2565L38.4194 76.3202L35.2561 88.5431C35.2561 88.5431 54.7367 96.3314 61.594 98.5537C66.7394 100.256 69.4423 98.3535 73.6667 94.8598C79.2026 90.305 90.5646 79.2133 90.5646 79.2133L100.095 51.0435Z" fill="#C8856A"/>
<path d="M99.7948 50.7831C94.4692 50.2225 90.6051 51.1535 87.1314 53.3158C83.6577 55.4781 81.6656 57.2099 74.428 65.8591L70.1935 70.554C70.1935 70.554 72.7862 77.4313 77.2009 81.3755C81.6156 85.3197 84.4285 86.2607 84.4285 86.2607L95.1999 76.2501L99.7948 50.7831Z" fill="#071C54"/>
<path d="M112.467 52.5249C120.356 53.8463 124.06 54.9976 133.59 58.8617C135.592 61.1641 137.594 70.4439 137.013 80.0241C136.142 94.5194 138.014 100.906 135.852 118.455C135.205 124.61 134.121 130.712 132.609 136.714C114.74 140.298 75.3781 127.464 74.6073 115.031C77.4904 111.467 79.1121 101.357 82.2354 75.1889C84.0773 59.7826 93.7376 50.3326 99.794 50.7331C102.787 50.9533 107.402 51.674 112.467 52.5249Z" fill="#263238"/>
<path d="M93.5981 21.6223C92.1526 20.4909 91.1015 18.9318 90.5949 17.1675C90.0166 15.2199 89.8832 13.1673 90.2045 11.1612C90.3279 10.4602 90.5646 9.78399 90.9053 9.15907C91.2017 8.82673 91.5684 8.56449 91.9788 8.39135C92.3891 8.21821 92.8328 8.13851 93.2778 8.15801L94.9495 8.06792C93.9538 6.98674 93.1845 5.71714 92.6871 4.33397C92.3883 3.26754 92.4057 2.13726 92.7372 1.08052C92.8097 0.79206 92.9543 0.526786 93.1576 0.309703C93.4356 0.12622 93.7575 0.0202124 94.0901 0.00261539C94.4226 -0.0149817 94.7539 0.0564628 95.0497 0.209591C98.8567 1.44288 102.841 2.04151 106.842 1.98147C110.005 2.04153 111.607 1.77125 115.962 1.68115C120.316 1.59105 127.884 4.12374 128.625 12.3825C134.361 13.7439 134.361 23.1339 132.439 26.9579C128.865 33.9653 125.602 38.5902 123.68 43.7056C123.4 43.4654 104.8 30.832 100.575 27.3583L95.8305 23.4442C95.0697 22.8135 94.3189 22.2429 93.5981 21.6223Z" fill="#263238"/>
<path d="M129.706 38.7704C126.072 41.1029 124 38.4801 124 38.4801L122.939 55.0677C115.14 63.867 95.91 61.024 104.92 52.2147L105.13 49.0413C103.357 49.0097 101.59 48.812 99.8542 48.4507C98.7791 48.1821 97.7616 47.7208 96.851 47.0892C94.8549 45.6784 93.4868 43.5455 93.037 41.1429C92.191 36.9547 91.9349 32.6687 92.2762 28.4095C92.6065 23.294 93.5775 16.7171 95.4996 13.3936C98.753 10.9009 107.883 11.2613 115.401 13.9742C115.401 15.8962 115.1 17.558 116.492 19.7703C117.211 20.8068 118.16 21.6632 119.265 22.273C119.215 26.0069 119.265 27.018 119.875 28.7098C120.186 29.7108 120.876 31.1524 122.788 30.5918C123.709 30.3315 124.5 28.3995 125.511 27.1481C126.873 25.4663 130.837 24.8957 132.469 28.8499C133.168 30.5766 133.276 32.486 132.776 34.2805C132.276 36.075 131.197 37.6536 129.706 38.7704Z" fill="#C8856A"/>
<path d="M105.08 49.0113C108.984 48.8812 115.981 47.8901 118.094 45.6578C120.206 43.4254 122.168 38.0797 122.168 38.0797C122.168 38.0797 120.987 44.1562 119.295 46.7189C117.603 49.2816 114.179 50.1225 111.687 50.7231C109.439 51.1235 107.163 51.3411 104.88 51.3738L105.08 49.0113Z" fill="#AF6152"/>
<path d="M108.674 23.8046L112.678 23.3141C112.598 22.772 112.312 22.2818 111.879 21.9459C111.446 21.6101 110.9 21.4546 110.355 21.5122C110.094 21.5512 109.843 21.6416 109.617 21.7782C109.39 21.9148 109.193 22.0949 109.037 22.308C108.881 22.5211 108.768 22.7631 108.706 23.02C108.643 23.2768 108.632 23.5435 108.674 23.8046Z" fill="#263238"/>
<path d="M99.5244 20.441L95.6603 21.6423C95.5112 21.1167 95.5705 20.5538 95.826 20.0709C96.0815 19.5879 96.5133 19.2221 97.0317 19.0496C97.2867 18.975 97.5541 18.9519 97.8181 18.9817C98.0821 19.0115 98.3376 19.0935 98.5696 19.223C98.8016 19.3525 99.0055 19.5269 99.1694 19.736C99.3333 19.9451 99.454 20.1848 99.5244 20.441Z" fill="#263238"/>
<path d="M108.524 37.3589L104.199 38.6903C104.395 39.2713 104.806 39.7547 105.349 40.04C105.891 40.3252 106.523 40.3904 107.112 40.2219C107.396 40.1319 107.66 39.9853 107.886 39.791C108.112 39.5967 108.296 39.3587 108.428 39.0912C108.56 38.8238 108.636 38.5325 108.653 38.2348C108.669 37.9371 108.625 37.6392 108.524 37.3589Z" fill="#874C4C"/>
<path d="M108.334 38.2299C107.758 38.1908 107.19 38.3783 106.75 38.7524C106.311 39.1264 106.035 39.6574 105.981 40.232C106.353 40.3216 106.741 40.3216 107.113 40.232C107.534 40.1 107.905 39.8441 108.178 39.4976C108.452 39.1511 108.614 38.7302 108.644 38.2899L108.334 38.2299Z" fill="#FFA8A7"/>
<path d="M105.66 23.1838L103.628 35.1966L97.5418 32.1433L105.66 23.1838Z" fill="#AF6152"/>
<path d="M111.777 27.7588C111.761 28.0873 111.647 28.4036 111.451 28.6676C111.255 28.9315 110.985 29.1314 110.675 29.2418C110.365 29.3521 110.03 29.3681 109.711 29.2876C109.392 29.2071 109.104 29.0338 108.884 28.7896C108.663 28.5454 108.52 28.2413 108.473 27.9158C108.426 27.5904 108.476 27.2581 108.617 26.9613C108.759 26.6644 108.985 26.4162 109.268 26.248C109.551 26.0799 109.877 25.9995 110.205 26.0169C110.423 26.0272 110.637 26.0805 110.834 26.1737C111.031 26.267 111.208 26.3984 111.354 26.5604C111.5 26.7223 111.613 26.9116 111.686 27.1173C111.758 27.323 111.789 27.541 111.777 27.7588Z" fill="#263238"/>
<path d="M99.2043 26.4674C99.1861 26.7929 99.072 27.1058 98.8763 27.3667C98.6807 27.6275 98.4122 27.8246 98.1047 27.9331C97.7972 28.0416 97.4644 28.0566 97.1484 27.9763C96.8324 27.8961 96.5472 27.724 96.3287 27.482C96.1103 27.2399 95.9684 26.9385 95.9209 26.6159C95.8734 26.2933 95.9225 25.9639 96.0619 25.6691C96.2013 25.3744 96.4249 25.1275 96.7044 24.9596C96.9839 24.7916 97.3069 24.7102 97.6326 24.7255C97.8505 24.7357 98.0642 24.789 98.2613 24.8823C98.4585 24.9756 98.6353 25.107 98.7814 25.2689C98.9275 25.4309 99.0401 25.6201 99.1127 25.8258C99.1853 26.0315 99.2164 26.2496 99.2043 26.4674Z" fill="#263238"/>
<path d="M22.5428 53.6462L24.0644 52.6451C24.288 52.5324 24.5349 52.4738 24.7852 52.4738C25.0355 52.4738 25.2824 52.5324 25.506 52.6451L64.7475 68.7321C65.4761 69.0683 66.1224 69.5597 66.6411 70.1718C67.1599 70.7839 67.5386 71.5021 67.7507 72.2759L74.7581 104.6C74.8557 104.87 74.8707 105.162 74.8012 105.441C74.7316 105.719 74.5807 105.97 74.3677 106.162L72.796 107.213C72.5724 107.331 72.3233 107.393 72.0703 107.393C71.8173 107.393 71.5681 107.331 71.3445 107.213L32.0929 91.1258C31.3667 90.7863 30.7223 90.2939 30.204 89.6822C29.6857 89.0706 29.3056 88.3542 29.0898 87.5821C27.7283 81.2254 23.4938 61.6146 22.1324 55.2579C21.9022 54.457 22.1023 53.8964 22.5428 53.6462Z" fill="#455A64"/>
<path d="M64.7179 70.8043C65.4166 71.49 65.918 72.3509 66.1695 73.297L73.1769 105.601C73.2689 105.864 73.2858 106.148 73.2257 106.42C73.1655 106.693 73.0308 106.943 72.8365 107.143L74.3081 106.142C74.5243 105.954 74.6783 105.705 74.7499 105.428C74.8214 105.151 74.807 104.859 74.7085 104.59L67.7011 72.2659C67.4726 71.378 67.0133 70.5663 66.3697 69.9134L64.7179 70.8043Z" fill="#263238"/>
<path d="M73.127 105.631L66.1696 73.307C65.9538 72.5349 65.5737 71.8185 65.0554 71.2068C64.5371 70.5952 63.8927 70.1028 63.1664 69.7632L23.9449 53.6862C22.6035 53.1356 21.7726 53.8364 22.0729 55.2478C23.4344 61.6046 27.6689 81.2153 29.0303 87.5721C29.2461 88.3442 29.6262 89.0606 30.1445 89.6722C30.6629 90.2839 31.3072 90.7763 32.0335 91.1158L71.295 107.203C72.5964 107.743 73.4373 107.043 73.127 105.631Z" fill="#37474F"/>
<path d="M63.1961 69.8032L54.0364 66.1894L44.9167 62.4955L26.6674 55.1077L24.395 54.1667C24.044 53.9974 23.6744 53.8698 23.2938 53.7863C23.1351 53.7487 22.969 53.757 22.8148 53.8101C22.6606 53.8633 22.5247 53.9592 22.4229 54.0866C22.0325 54.6372 22.3728 55.5081 22.513 56.2989L23.0235 58.7015L25.0257 68.3317L27.0278 77.9619L28.9799 87.6121L26.7875 78.0119L24.6753 68.4017L22.5631 58.7916L22.0325 56.389C21.9424 55.9786 21.8523 55.5982 21.7722 55.1778C21.6676 54.7125 21.7465 54.2248 21.9925 53.8163C22.1435 53.6199 22.346 53.4692 22.5775 53.3808C22.8089 53.2925 23.0603 53.27 23.3038 53.3158C23.7261 53.3977 24.1364 53.5322 24.5251 53.7162L26.8075 54.6472L44.9968 62.1852L54.0864 65.9592L63.1961 69.8032Z" fill="#455A64"/>
<path d="M65.358 79.8139L64.0467 73.8076C64.0097 73.6635 63.9412 73.5294 63.8459 73.4151C63.7507 73.3008 63.6312 73.2092 63.4961 73.1469L60.7932 72.0457C60.5429 71.9456 60.3828 72.0457 60.4428 72.336C60.6931 73.5273 61.4439 77.2012 61.7442 78.3424C61.7853 78.486 61.8566 78.6192 61.9533 78.7332C62.0499 78.8471 62.1698 78.9391 62.3048 79.0031L65.0077 80.1043C65.288 80.2044 65.4081 80.0742 65.358 79.8139Z" fill="#455A64"/>
<path d="M63.7464 75.129C63.6393 74.7702 63.4572 74.4384 63.2121 74.1553C62.967 73.8723 62.6646 73.6446 62.3249 73.4872C61.6742 73.2269 61.2638 73.5373 61.4039 74.1779C61.5081 74.5381 61.6891 74.8714 61.9345 75.1548C62.1799 75.4382 62.4839 75.6651 62.8255 75.8197C63.4761 76.08 63.8866 75.8097 63.7464 75.129Z" fill="#263238"/>
<path d="M64.3672 78.1821C64.2624 77.8222 64.0812 77.4893 63.8359 77.2059C63.5905 76.9226 63.2869 76.6955 62.9457 76.5404C62.295 76.2701 61.8846 76.5404 62.0247 77.2211C62.1276 77.5818 62.3082 77.9157 62.5538 78.1993C62.7993 78.4829 63.1039 78.7093 63.4462 78.8628C64.0969 79.1331 64.5073 78.8128 64.3672 78.1821Z" fill="#263238"/>
<path d="M23.4242 74.3181C22.1529 72.316 22.293 72.0857 23.0839 71.1447C23.6792 70.3986 24.4437 69.8051 25.3142 69.4134C26.1846 69.0217 27.1359 68.8431 28.0892 68.8924C29.7709 69.0325 31.4727 69.0825 32.3136 69.5731C33.1545 70.0636 32.3136 71.8555 30.1013 72.2359C26.6076 72.8265 26.5775 73.7675 26.5775 73.7675C28.0686 73.5081 29.5723 73.3277 31.0823 73.227C32.7753 73.4233 34.4493 73.7581 36.0876 74.228C37.5391 74.5283 37.7294 76.4303 35.2167 76.9409L37.8695 77.5115C39.7215 77.9119 40.3121 78.933 38.7805 80.0141C38.2818 80.3877 37.6715 80.5817 37.0487 80.5647C37.0487 80.5647 39.0508 80.6648 39.0508 81.3355C39.0508 83.2375 37.8094 83.668 33.7251 84.629C29.831 85.54 28.93 87.5621 29.6208 89.0337C29.6208 89.0337 28.1192 88.0326 26.7978 87.0316C25.7967 86.2908 25.0059 85.4599 25.5465 83.9082C25.5465 83.9082 23.3542 83.8382 23.2841 82.4767C23.3061 81.4775 23.5416 80.4944 23.9748 79.5937C23.5911 79.3527 23.2844 79.0068 23.091 78.597C22.8977 78.1872 22.8257 77.7306 22.8837 77.2812C22.9221 76.4198 23.2461 75.5957 23.8046 74.9388L23.4242 74.3181Z" fill="#C8856A"/>
<path d="M35.2564 76.9709C34.4703 76.7624 33.6656 76.6316 32.8539 76.5805C32.0283 76.6644 31.221 76.8772 30.4614 77.2111C28.9548 77.7518 27.4979 78.4216 26.1067 79.2133C27.6747 78.8835 29.2118 78.4214 30.7016 77.8318C31.4087 77.5195 32.1424 77.2716 32.894 77.091C33.6448 77.051 34.4856 77.081 35.2564 76.9709Z" fill="#AF6152"/>
<path d="M37.1088 80.5948C36.2694 80.3068 35.3717 80.2311 34.496 80.3745C33.63 80.5166 32.7789 80.7378 31.9533 81.0352C30.3156 81.6031 28.742 82.3412 27.2584 83.2376C28.9252 82.8117 30.5691 82.3005 32.1836 81.7059C33.7413 81.0306 35.412 80.6536 37.1088 80.5948Z" fill="#AF6152"/>
<path d="M105.05 85.3498C101.897 82.6769 100.285 81.6158 98.7635 81.0852C97.2419 80.5547 91.9663 77.9619 89.9241 77.3113C88.6228 76.9008 87.922 78.963 89.5537 80.5147C90.775 81.6959 94.0385 83.3677 95.47 84.2686C96.9015 85.1696 99.5643 88.8635 99.5643 88.8635L105.05 85.3498Z" fill="#AF6152"/>
<path d="M147.375 71.1147C144.532 63.9071 141.739 61.7548 134.362 59.3423C126.423 66.1695 130.868 85.0995 130.868 85.0995L135.623 105.041C135.623 105.041 119.606 99.5248 117.424 97.9531C115.241 96.3815 109.655 89.5442 107.763 87.4821C105.181 84.6791 103.759 84.9394 102.388 85.0695C97.7729 85.4699 96.7519 85.7903 95.7408 86.3408C95.4432 86.5236 95.1958 86.7777 95.0211 87.0801C94.8463 87.3824 94.7496 87.7236 94.7397 88.0727C93.5184 88.1428 91.7365 87.9926 91.3461 89.9747C91.2169 90.495 91.1597 91.0305 91.1759 91.5664C90.867 91.6003 90.5798 91.7421 90.3651 91.9668C89.2739 93.078 90.7555 97.2324 91.7966 98.2835C92.5274 99.0343 93.6185 99.1844 95.0801 99.0743C96.3214 98.9842 95.8309 97.7029 95.8309 97.7029L97.5427 97.9131C101.096 100.776 100.956 106.022 105.801 107.483C107.819 107.815 109.802 108.328 111.728 109.015C122.089 113.229 135.333 125.032 144.713 126.473C153.862 127.835 155.044 122.469 154.984 116.833C154.853 107.844 150.228 78.3023 147.375 71.1147Z" fill="#C8856A"/>
<path d="M134.992 102.538L135.592 105.041C139.717 106.382 144.051 109.676 144.912 112.048C144.371 108.354 142.249 104.971 134.992 102.538Z" fill="#AF6152"/>
<path d="M94.7097 88.0726L100.536 87.8824L94.8698 87.3318C94.7738 87.5676 94.7196 87.8183 94.7097 88.0726Z" fill="#AF6152"/>
<path d="M91.145 91.5663L97.4416 91.1459L91.185 90.8356C91.1459 91.0771 91.1325 91.322 91.145 91.5663Z" fill="#AF6152"/>
<path d="M91.7964 94.3693C91.9838 94.7004 92.2615 94.9712 92.5972 95.1502C92.9086 95.3408 93.2457 95.4858 93.5983 95.5806L93.5182 95.5205C93.6684 95.8509 93.8286 96.1812 93.9887 96.5216L94.1289 96.3614C93.9579 96.323 93.7808 96.32 93.6086 96.3528C93.4364 96.3855 93.2728 96.4531 93.1278 96.5516C92.8552 96.7448 92.6489 97.0175 92.5372 97.3325C92.7031 97.0657 92.9339 96.8453 93.2079 96.6918C93.4738 96.5576 93.7777 96.5188 94.0688 96.5817L94.3091 96.6517L94.209 96.4315C94.0588 96.0911 93.9086 95.7608 93.7485 95.4304H93.6984C93.354 95.3471 93.0186 95.2297 92.6974 95.0801C92.346 94.9161 92.0376 94.6728 91.7964 94.3693Z" fill="#AF6152"/>
<path d="M93.4075 95.2703C94.1515 95.4159 94.9037 95.5162 95.6599 95.5706C95.7517 96.0467 95.9814 96.4854 96.3206 96.832C96.6826 97.2179 97.067 97.5822 97.4718 97.9231L95.76 97.7129C95.543 97.3932 95.2618 97.1221 94.9344 96.917C94.6069 96.7119 94.2403 96.5773 93.858 96.5216L93.4075 95.2703Z" fill="#AF6152"/>
<path d="M133.591 58.8618C138.846 60.5035 142.51 62.0351 144.943 65.3987C147.375 68.7622 148.206 72.2559 149.888 78.6227C151.57 84.9894 152.441 90.7455 152.441 90.7455C152.441 90.7455 150.889 93.6786 144.663 95.1602C140.673 96.0382 136.54 96.0382 132.55 95.1602C132.55 95.1602 129.947 84.3487 129.096 80.3445C128.245 76.3403 126.904 64.3876 133.591 58.8618Z" fill="#071C54"/>
</svg>
