<svg width="2" height="6" viewBox="0 0 2 6" fill="none" xmlns="http://www.w3.org/2000/svg">
<path d="M1.59691 0.0252793C1.61405 0.00905121 1.63677 0 1.66037 0C1.68398 0 1.70668 0.00905121 1.72382 0.0252793C1.74328 0.0773601 1.74328 0.134715 1.72382 0.186796V0.498298C1.73907 0.570569 1.73907 0.645232 1.72382 0.717503C1.69742 0.776045 1.65294 0.824567 1.59691 0.855941L1.22774 1.07515C0.975153 1.24009 0.773416 1.47202 0.645063 1.74503C0.51671 2.01803 0.466791 2.32135 0.500904 2.62109V5.47072C0.512953 5.54329 0.512953 5.61735 0.500904 5.68992C0.471205 5.74935 0.427685 5.80077 0.373997 5.83989L0.143261 5.97835C0.125085 5.99238 0.102761 5.99998 0.0797988 5.99998C0.0568363 5.99998 0.03453 5.99238 0.0163541 5.97835C0.00556587 5.95279 0 5.92532 0 5.89758C0 5.86984 0.00556587 5.84239 0.0163541 5.81683V1.25974C0.000161334 1.19147 0.000161334 1.12034 0.0163541 1.05207C0.0426937 0.9905 0.086903 0.938247 0.143261 0.902081L0.373997 0.763643C0.392172 0.74961 0.414496 0.742008 0.437459 0.742008C0.460421 0.742008 0.482728 0.74961 0.500904 0.763643C0.516012 0.812495 0.516012 0.864777 0.500904 0.913629V1.17897C0.570094 0.961439 0.671175 0.755377 0.800858 0.567517C0.931093 0.403751 1.0917 0.266641 1.27388 0.163717L1.59691 0.0252793Z" fill="#455A64"/>
</svg>
