<svg width="2" height="6" viewBox="0 0 2 6" fill="none" xmlns="http://www.w3.org/2000/svg">
<path d="M1.09949 4.59273C1.09336 4.69103 1.09336 4.78963 1.09949 4.88793C1.10763 4.96347 1.13192 5.03637 1.17074 5.10168C1.18705 5.12411 1.2085 5.14229 1.2333 5.15469C1.2581 5.1671 1.28552 5.17335 1.31325 5.17295C1.39762 5.16952 1.47909 5.14118 1.54738 5.09151L1.85274 4.91847C1.86718 4.9069 1.88514 4.9006 1.90364 4.9006C1.92214 4.9006 1.94009 4.9069 1.95454 4.91847C1.96406 4.94102 1.96895 4.96524 1.96895 4.98971C1.96895 5.01419 1.96406 5.03842 1.95454 5.06097V5.33582C1.96882 5.39605 1.96882 5.45879 1.95454 5.51903C1.9372 5.57373 1.90116 5.62058 1.85274 5.65137L1.49648 5.85495C1.17075 6.04835 0.93663 6.04835 0.783943 5.85495C0.605431 5.54732 0.530486 5.19048 0.570174 4.83703V2.6078L0.152826 2.84191C0.138383 2.85348 0.120429 2.85979 0.101927 2.85979C0.0834253 2.85979 0.0654872 2.85348 0.0510441 2.84191C0.0163988 2.80272 -0.00182987 2.75168 0.000145262 2.69941V2.42458C0.00265838 2.35715 0.0200409 2.29111 0.0510441 2.23118C0.0736678 2.17942 0.108606 2.13398 0.152826 2.09884L0.570174 1.86473V0.46C0.555031 0.396421 0.555031 0.330172 0.570174 0.266593C0.596378 0.214164 0.634776 0.168795 0.682146 0.134275L0.885725 0.0223041C0.900849 0.00798595 0.920892 0 0.941719 0C0.962545 0 0.982572 0.00798595 0.997696 0.0223041C1.01487 0.0682554 1.01487 0.11886 0.997696 0.164811V1.56952L1.71023 1.16236C1.72627 1.14998 1.74597 1.14327 1.76623 1.14327C1.78649 1.14327 1.80617 1.14998 1.8222 1.16236C1.83523 1.20897 1.83523 1.25826 1.8222 1.30487V1.57971C1.83075 1.6439 1.83075 1.70893 1.8222 1.77312C1.796 1.82555 1.7576 1.87092 1.71023 1.90544L0.997696 2.31261L1.09949 4.59273Z" fill="#455A64"/>
</svg>
