<svg width="4" height="7" viewBox="0 0 4 7" fill="none" xmlns="http://www.w3.org/2000/svg">
<path d="M0.589594 3.37674C0.589594 3.65545 0.589594 3.91272 0.589594 4.14855C0.589594 4.38438 0.589594 4.64167 0.589594 4.90966C0.555897 5.29159 0.662608 5.67271 0.889739 5.98161C1.07554 6.18885 1.34353 6.18885 1.6937 5.98161C1.87439 5.88003 2.03731 5.74967 2.17608 5.59569C2.29992 5.45436 2.40777 5.29978 2.49766 5.13476C2.58227 4.97156 2.64706 4.7988 2.69062 4.62021C2.73211 4.45419 2.76431 4.28599 2.7871 4.11639C2.79548 4.04844 2.81735 3.98285 2.85141 3.92345C2.85141 3.92345 2.91572 3.8377 2.94788 3.82698L3.21587 3.66619C3.23009 3.65651 3.24692 3.65134 3.26412 3.65134C3.28133 3.65134 3.29813 3.65651 3.31236 3.66619C3.32629 3.70426 3.32629 3.74602 3.31236 3.78409C3.30777 4.02286 3.27538 4.2603 3.21587 4.49158C3.07846 5.09638 2.80334 5.66131 2.41191 6.14239C2.20864 6.40607 1.9532 6.62502 1.66154 6.78557C1.4584 6.92187 1.2201 6.99632 0.975497 6.99994C0.783906 6.99213 0.601422 6.91611 0.460965 6.78557C0.301958 6.62043 0.187602 6.41752 0.128663 6.19598C0.0423283 5.9 -0.00100426 5.59313 1.76606e-05 5.28481C1.76606e-05 4.75956 1.76606e-05 4.21289 1.76606e-05 3.66619C0.00361728 3.30525 0.0467638 2.94579 0.128663 2.59424C0.202091 2.25754 0.313573 1.93027 0.460965 1.61876C0.596642 1.32616 0.769584 1.05231 0.975497 0.804069C1.1703 0.574208 1.40218 0.378547 1.66154 0.225206C1.88279 0.075257 2.14466 -0.00329612 2.41191 0.000106017C2.60362 0.0160699 2.78462 0.0952412 2.92645 0.225206C3.05979 0.369098 3.15873 0.54136 3.21587 0.729025C3.2792 0.922851 3.31177 1.1254 3.31236 1.32931C3.3225 1.38243 3.3225 1.43702 3.31236 1.49013C3.28873 1.53271 3.25573 1.56933 3.21587 1.5973L2.94788 1.75812C2.93366 1.7678 2.91685 1.77297 2.89965 1.77297C2.88244 1.77297 2.86564 1.7678 2.85141 1.75812C2.85141 1.75812 2.79782 1.75811 2.7871 1.65092C2.76636 1.51619 2.73408 1.3835 2.69062 1.2543C2.65498 1.14451 2.58788 1.0476 2.49766 0.975585C2.40391 0.90911 2.29094 0.875224 2.17608 0.879113C2.00471 0.893248 1.83927 0.94839 1.6937 1.0399C1.33054 1.254 1.048 1.58175 0.889739 1.97249C0.694445 2.41504 0.59228 2.89303 0.589594 3.37674Z" fill="#071C54"/>
</svg>
