<svg width="54" height="54" viewBox="0 0 54 54" fill="none" xmlns="http://www.w3.org/2000/svg">
<path d="M45 33.75V16.875L30.9375 8.96509M23.0625 8.96509L9 16.875V33.75M12.375 39.024L27 47.25L36 42.1875L41.625 39.024" stroke="white" stroke-width="4" stroke-linecap="round" stroke-linejoin="round"/>
<path d="M23.625 21.0938L20.25 23.0625V30.9375L23.625 32.9062L27 34.875L30.375 32.9062L33.75 30.9375V23.0625L30.375 21.0938L27 19.125L23.625 21.0938Z" fill="white" stroke="white" stroke-width="4" stroke-linecap="round" stroke-linejoin="round"/>
<path d="M27 19.125V11.25M33.75 30.375L41.625 34.875M20.25 30.375L12.375 34.875" stroke="white" stroke-width="4" stroke-linecap="round" stroke-linejoin="round"/>
<path d="M27 11.25C28.864 11.25 30.375 9.73896 30.375 7.875C30.375 6.01104 28.864 4.5 27 4.5C25.136 4.5 23.625 6.01104 23.625 7.875C23.625 9.73896 25.136 11.25 27 11.25Z" fill="white" stroke="white" stroke-width="4" stroke-linecap="round" stroke-linejoin="round"/>
<path d="M9 40.5C10.864 40.5 12.375 38.989 12.375 37.125C12.375 35.261 10.864 33.75 9 33.75C7.13604 33.75 5.625 35.261 5.625 37.125C5.625 38.989 7.13604 40.5 9 40.5Z" fill="white" stroke="white" stroke-width="4" stroke-linecap="round" stroke-linejoin="round"/>
<path d="M45 40.5C46.864 40.5 48.375 38.989 48.375 37.125C48.375 35.261 46.864 33.75 45 33.75C43.136 33.75 41.625 35.261 41.625 37.125C41.625 38.989 43.136 40.5 45 40.5Z" fill="white" stroke="white" stroke-width="4" stroke-linecap="round" stroke-linejoin="round"/>
</svg>
