<svg width="4" height="7" viewBox="0 0 4 7" fill="none" xmlns="http://www.w3.org/2000/svg">
<path d="M0.347786 2.21364C0.347786 2.12259 0.41861 2.03156 0.46919 1.94051C0.550405 1.74302 0.670848 1.56404 0.823243 1.41446C0.905195 1.33267 0.996938 1.26133 1.09638 1.20203C1.17752 1.14393 1.26932 1.1024 1.36653 1.07984C1.46374 1.05727 1.56444 1.0541 1.66288 1.07051C1.74321 1.09975 1.81588 1.14679 1.87545 1.20811C1.93501 1.26943 1.97992 1.34344 2.00682 1.42458L2.15857 1.04017C2.21657 0.918949 2.28072 0.800799 2.35078 0.686128C2.42306 0.581492 2.50428 0.483325 2.59356 0.392754C2.69067 0.298354 2.79946 0.216742 2.91728 0.149947C3.29157 -0.0624909 3.56471 -0.0523563 3.73668 0.200546C3.94003 0.58924 4.02779 1.02805 3.98958 1.46506V3.84234C4.00296 3.90571 4.00296 3.97118 3.98958 4.03455C3.96644 4.08588 3.92743 4.12843 3.8783 4.15594L3.67598 4.27732C3.66939 4.28405 3.66152 4.28939 3.65283 4.29304C3.64415 4.29669 3.63482 4.29856 3.6254 4.29856C3.61598 4.29856 3.60666 4.29669 3.59797 4.29304C3.58929 4.28939 3.58141 4.28405 3.57482 4.27732C3.55702 4.26063 3.54323 4.24014 3.53447 4.21737C3.52571 4.1946 3.52221 4.17013 3.52423 4.14581V1.85957C3.55692 1.55671 3.50069 1.25089 3.36239 0.979473C3.25111 0.837847 3.08925 0.827731 2.8667 0.979473C2.65105 1.11637 2.48454 1.31832 2.39124 1.5561C2.26052 1.87687 2.1985 2.22148 2.20916 2.5677V4.91464C2.22253 4.97801 2.22253 5.04348 2.20916 5.10685C2.18601 5.15818 2.14701 5.20073 2.09788 5.22824L1.89555 5.34963C1.88895 5.35635 1.88109 5.36169 1.87241 5.36534C1.86372 5.36899 1.8544 5.37087 1.84498 5.37087C1.83556 5.37087 1.82623 5.36899 1.81755 5.36534C1.80886 5.36169 1.80099 5.35635 1.79439 5.34963C1.7766 5.33294 1.7628 5.31245 1.75404 5.28967C1.74529 5.2669 1.74178 5.24243 1.74381 5.21811V2.93187C1.77649 2.62901 1.72025 2.32319 1.58195 2.05177C1.47067 1.91015 1.29871 1.90003 1.08627 2.05177C0.870626 2.18867 0.704112 2.39062 0.610814 2.6284C0.480094 2.94917 0.418055 3.29378 0.428717 3.64001V5.98694C0.442093 6.05031 0.442093 6.11578 0.428717 6.17915C0.405575 6.23048 0.36657 6.27303 0.317439 6.30054L0.115121 6.42193C0.115121 6.42193 0.0342017 6.42193 0.0139695 6.42193C0.00476653 6.40123 0 6.37882 0 6.35617C0 6.33352 0.00476653 6.31111 0.0139695 6.29041V2.29458C0.000289771 2.23124 0.000289771 2.16571 0.0139695 2.10237C0.0332377 2.04911 0.0685802 2.00315 0.115121 1.97086L0.317439 1.85957C0.33247 1.84534 0.352389 1.83743 0.373086 1.83743C0.393783 1.83743 0.413687 1.84534 0.428717 1.85957C0.445779 1.90523 0.445779 1.95554 0.428717 2.00121L0.347786 2.21364Z" fill="#455A64"/>
</svg>
