<svg width="58" height="58" viewBox="0 0 58 58" fill="none" xmlns="http://www.w3.org/2000/svg">
<path d="M29.0018 2.01917C17.3637 2.01917 7.70312 13.9783 7.70312 28.9982C7.70312 35.3108 9.41141 41.0831 12.2536 45.6544C17.0152 47.6926 23.0858 48.7803 29.1711 48.786C35.0422 48.7912 40.9059 47.7907 45.6014 45.8873C48.5308 41.2797 50.2969 35.4186 50.2969 28.998C50.2969 13.978 40.6396 2.01939 29.002 2.01917H29.0018ZM29.1996 4.13752C38.3216 4.13752 45.6968 11.509 45.6968 20.6313C45.6968 29.7534 38.3216 37.1284 29.1996 37.1284C20.0771 37.1284 12.7059 29.7534 12.7059 20.6313C12.7059 11.5087 20.0771 4.13752 29.1996 4.13752ZM26.0628 8.67104C25.7699 9.32513 25.4862 9.95021 25.211 10.579C25.1495 10.7198 25.0758 10.7533 24.9139 10.7644C24.2981 10.8071 23.682 10.8694 23.0731 10.9683C22.8726 11.0011 22.7684 10.9921 22.6514 10.8217C22.2736 10.2705 21.8785 9.73124 21.4787 9.17174L18.9483 11.0223C19.3763 11.6231 19.7751 12.1961 20.1901 12.7572C20.3007 12.9065 20.286 13.0042 20.2017 13.1613C20.0038 13.5304 19.8315 13.9143 19.6693 14.3007C19.5747 14.5254 19.5872 14.8555 19.4284 14.9766C19.2517 15.1114 18.9351 15.0643 18.6791 15.0939C18.1413 15.1559 17.6029 15.2162 17.0429 15.2796L17.3519 18.3978C18.1377 18.3095 18.8778 18.22 19.6194 18.1492C19.7513 18.1367 19.9502 18.1555 20.0162 18.2398C20.3858 18.711 20.724 19.2066 21.104 19.7374L20.0304 22.1457L22.8689 23.4163C23.2152 22.6446 23.5526 21.9068 23.8759 21.1627C23.9505 20.9907 24.033 20.9321 24.232 20.9289C24.6887 20.9214 25.1507 20.8968 25.5985 20.8133C25.8583 20.7651 25.9905 20.8113 26.1374 21.0222C26.5903 21.6724 27.0663 22.3065 27.5405 22.9566L29.3625 21.6287L29.9897 22.7149L27.7257 24.9816L24.9585 23.3918L23.4818 26.0783C24.4206 26.6248 25.3265 27.1522 26.1515 27.6327C25.9078 28.6619 25.6814 29.6358 25.439 30.6057C25.4213 30.6755 25.2861 30.7609 25.2043 30.7624C24.4581 30.7743 23.7112 30.7695 22.9647 30.7695H22.2188V33.764C22.2947 33.8 22.3711 33.8351 22.4476 33.8699H25.4028C25.4877 34.2294 25.5701 34.5729 25.6499 34.9124C26.6776 35.1244 27.7242 35.231 28.7734 35.2305C30.5753 35.2305 32.3008 34.9215 33.8978 34.3556C32.9617 32.8411 33.1881 30.9017 34.251 29.6915C35.7559 27.9776 38.3926 27.8592 40.005 29.4613C40.1345 29.5901 40.2559 29.7267 40.3687 29.8703C42.4688 27.3609 43.7266 24.1558 43.7266 20.6639C43.7264 19.9747 43.6767 19.2865 43.5777 18.6044C43.551 18.5909 43.5293 18.5795 43.5 18.5648C43.485 18.5571 43.4649 18.5595 43.4248 18.5546C42.9052 19.4563 42.3815 20.3655 41.8887 21.2212L38.7698 20.3642V17.2818H35.675V20.3676C34.6528 20.644 33.6704 20.9098 32.6566 21.1839C32.1647 20.3286 31.6486 19.4312 31.1307 18.5301L29.0654 19.6896C28.917 19.4828 28.7907 19.2917 28.6479 19.1133C28.5545 18.9966 28.5745 18.9179 28.6448 18.7893C28.8915 18.3385 29.1383 17.884 29.3312 17.409C29.4224 17.1838 29.523 17.1108 29.7538 17.0907C30.4848 17.0276 31.2134 16.9366 31.9759 16.8525C31.8717 15.7968 31.7697 14.7685 31.6678 13.7348C30.898 13.8087 30.1838 13.873 29.4706 13.9489C29.3018 13.9667 29.2327 13.905 29.1434 13.7609C28.8277 13.2517 28.4993 12.7477 28.1363 12.2719C28.0049 12.0999 27.9748 11.9932 28.065 11.802C28.3524 11.1918 28.6201 10.5725 28.9025 9.9399C27.9452 9.51238 27.0149 9.09652 26.0627 8.67115L26.0628 8.67104ZM24.5386 13.5246C25.936 13.5361 27.0529 14.6657 27.0413 16.0549C27.0294 17.4634 25.8934 18.5743 24.4817 18.5577C23.074 18.5412 21.9842 17.4113 21.9999 15.9839C22.0151 14.6148 23.1524 13.5128 24.5385 13.5246H24.5386ZM19.4203 37.8381C21.495 37.8381 23.166 39.5147 23.166 41.6229C23.166 43.7308 21.4951 45.4106 19.4205 45.4106C17.3457 45.4106 15.6781 43.7307 15.6781 41.6229C15.6781 39.5147 17.3456 37.8381 19.4203 37.8381ZM38.1495 37.9211C39.141 37.9211 40.0918 38.3149 40.7929 39.016C41.4939 39.717 41.8878 40.6679 41.8878 41.6593C41.8878 42.6508 41.4939 43.6016 40.7929 44.3027C40.0918 45.0038 39.141 45.3976 38.1495 45.3976C37.158 45.3976 36.2072 45.0038 35.5061 44.3027C34.8051 43.6016 34.4112 42.6508 34.4112 41.6593C34.4112 40.6679 34.8051 39.717 35.5061 39.016C36.2072 38.3149 37.158 37.9211 38.1495 37.9211ZM14.5449 48.7963V48.797C14.5452 48.797 14.5454 48.797 14.5458 48.7972L14.5449 48.7963ZM14.5458 48.7972C15.8467 50.32 17.2974 51.6376 18.8627 52.7151L18.0611 49.7355C16.8759 49.4755 15.7029 49.1624 14.5458 48.7972ZM43.3067 48.9694C42.2856 49.2757 41.2528 49.542 40.2108 49.7675L39.4835 52.4753C40.8587 51.4872 42.1411 50.3094 43.3067 48.97V48.9696V48.9694ZM20.3702 50.1836L21.4538 54.2262C22.735 54.8438 24.0728 55.308 25.4537 55.6032L24.8819 50.7315C23.3703 50.6183 21.8648 50.4355 20.3701 50.1834L20.3702 50.1836ZM37.9054 50.2122C36.746 50.4021 35.5804 50.5517 34.4107 50.6608L33.8667 55.2715C34.8987 54.9634 35.9012 54.5588 36.8711 54.0674L37.9057 50.2126V50.2124L37.9055 50.2122H37.9054ZM32.2674 50.8122L32.2668 50.8156H32.2675L32.2674 50.8122ZM32.2668 50.8156C31.2382 50.8725 30.2044 50.9009 29.1715 50.9009C28.4534 50.9006 27.7354 50.8864 27.0178 50.8582L27.6179 55.9242C28.0755 55.9669 28.5368 55.9811 29.0017 55.9811C29.9083 55.9811 30.8017 55.9102 31.681 55.7653L32.2667 50.8159L32.2668 50.8156Z" fill="white"/>
</svg>
