<svg width="29" height="42" viewBox="0 0 29 42" fill="none" xmlns="http://www.w3.org/2000/svg">
<path d="M8.62105 21H25.8632C26.6564 21 27.3337 21.2891 27.8949 21.8672C28.4562 22.4453 28.7368 23.1563 28.7368 24C28.7368 24.8438 28.4525 25.5547 27.8837 26.1328C27.315 26.7109 26.6414 27 25.8632 27H24.7855L25.2345 41.25C25.2495 41.4531 25.1859 41.6289 25.0437 41.7773C24.9015 41.9258 24.7331 42 24.5386 42H22.9895C22.8099 42 22.6527 41.9258 22.518 41.7773C22.3833 41.6289 22.3085 41.4531 22.2935 41.25L21.8894 27H10.0579L7.76793 41.2734C7.69309 41.7578 7.4611 42 7.07196 42H5.41061C5.21604 42 5.04766 41.9258 4.90547 41.7773C4.76328 41.6289 4.69967 41.4609 4.71464 41.2734L6.84745 27C6.78758 26.9688 6.45831 26.9258 5.85962 26.8711C5.26094 26.8164 4.76328 26.6094 4.36665 26.25C3.97003 25.8906 3.65197 25.2656 3.4125 24.375C3.17303 23.4531 2.97471 22.2813 2.81756 20.8594C2.6604 19.4375 2.51073 17.707 2.36854 15.668C2.22636 13.6289 2.12533 12.2891 2.06546 11.6484C1.99063 10.7734 1.62767 9.39453 0.976604 7.51172C0.325535 5.62891 0 4.125 0 3C0 2.28125 0.235732 1.60156 0.707196 0.960938C1.17866 0.320313 1.90082 0 2.87368 0C3.75674 0 4.4153 0.292969 4.84934 0.878906C5.28339 1.46484 5.68002 2.375 6.03923 3.60938C7.40123 8.26563 8.26184 14.0625 8.62105 21Z" fill="#071C54"/>
</svg>
