<svg width="3" height="6" viewBox="0 0 3 6" fill="none" xmlns="http://www.w3.org/2000/svg">
<path d="M0.000506284 5.04731C-0.0044879 4.79083 0.0274883 4.53499 0.0954631 4.28762C0.164721 4.05021 0.264473 3.82276 0.392224 3.611C0.510059 3.39655 0.65356 3.19724 0.819562 3.01748C0.977754 2.83948 1.14832 2.6729 1.32999 2.51894L2.25589 1.75921V1.62865C2.25589 1.28441 2.18466 1.07072 2.04222 0.975757C1.95407 0.936528 1.85711 0.921353 1.7612 0.931779C1.66528 0.942204 1.57384 0.97788 1.49618 1.03513C1.31637 1.13339 1.16507 1.27649 1.05698 1.45057C0.962012 1.61875 0.878723 1.79326 0.807698 1.97287C0.787375 2.03166 0.75944 2.08755 0.724605 2.13907C0.686074 2.18039 0.642153 2.21632 0.594029 2.2459L0.404097 2.35273C0.385396 2.36717 0.362436 2.37501 0.33881 2.37501C0.315183 2.37501 0.292223 2.36717 0.273522 2.35273C0.273522 2.35273 0.273522 2.26964 0.273522 2.19841C0.289411 2.02085 0.325253 1.84565 0.380361 1.67611C0.456094 1.47716 0.55153 1.28631 0.665249 1.10635C0.775465 0.917873 0.906898 0.742629 1.05698 0.584048C1.19889 0.426744 1.36281 0.290808 1.54366 0.180457C1.70987 0.0805725 1.89656 0.0196636 2.0897 0.00237078C2.24372 -0.0114343 2.39704 0.0354333 2.51704 0.132965C2.65404 0.257095 2.75286 0.417655 2.80193 0.595894C2.86924 0.855518 2.90118 1.12306 2.89689 1.39123V4.46567C2.91355 4.53592 2.91355 4.60909 2.89689 4.67933C2.86979 4.74268 2.8243 4.79644 2.76632 4.83366L2.52891 4.97609C2.51021 4.99053 2.48725 4.99837 2.46362 4.99837C2.44 4.99837 2.41704 4.99053 2.39833 4.97609C2.37789 4.92669 2.37789 4.87122 2.39833 4.82181V4.40634C2.36177 4.56098 2.30172 4.70909 2.22028 4.84554C2.13632 4.99126 2.04107 5.13018 1.93539 5.26101C1.8306 5.38141 1.71967 5.49629 1.60302 5.60523C1.49884 5.69324 1.38769 5.77265 1.27064 5.84265C1.1296 5.92762 0.971509 5.98032 0.807698 5.99697C0.681309 6.01077 0.554315 5.97689 0.45158 5.90199C0.340103 5.83131 0.259518 5.72106 0.226039 5.59338C0.112239 5.42983 0.0352943 5.2435 0.000506284 5.04731ZM1.18755 4.91676C1.34876 4.81774 1.49304 4.6935 1.61489 4.54878C1.75224 4.39939 1.86809 4.23157 1.95912 4.0502C2.04456 3.85777 2.11597 3.65941 2.17279 3.45668C2.21994 3.24626 2.24383 3.03133 2.24402 2.8157V2.55455L1.47244 3.19553C1.22428 3.39853 1.00467 3.63414 0.819562 3.89592C0.665457 4.10139 0.582156 4.35127 0.582156 4.60811C0.575644 4.67522 0.575644 4.74282 0.582156 4.80993C0.603328 4.86999 0.640216 4.92329 0.688986 4.96425C0.718939 4.97732 0.75127 4.98406 0.783952 4.98406C0.816633 4.98406 0.848965 4.97732 0.878918 4.96425C0.987981 4.97325 1.09765 4.957 1.19942 4.91676H1.18755Z" fill="#455A64"/>
</svg>
