<svg width="13" height="9" viewBox="0 0 13 9" fill="none" xmlns="http://www.w3.org/2000/svg">
<path d="M1.80738 5.28766e-05L10.3054 5.21337e-05C10.6409 -0.000433964 10.9697 0.0941011 11.2537 0.272715C11.5377 0.451328 11.7653 0.706716 11.9101 1.00932C12.0797 1.36836 12.1451 1.76782 12.0987 2.16217C12.0523 2.55653 11.896 2.92992 11.6477 3.2398L7.39872 8.38706C7.23198 8.57946 7.02582 8.73376 6.79422 8.83952C6.56262 8.94527 6.311 9 6.0564 9C5.8018 9 5.55017 8.94527 5.31857 8.83952C5.08698 8.73376 4.88082 8.57946 4.71407 8.38706L0.465054 3.2398C0.216768 2.92992 0.0605251 2.55653 0.01413 2.16217C-0.032265 1.76782 0.0330559 1.36836 0.202646 1.00932C0.347517 0.706717 0.575125 0.451329 0.85912 0.272715C1.14311 0.094102 1.47189 -0.000433163 1.80738 5.28766e-05Z" fill="#C6C6C6"/>
</svg>
