<svg width="3" height="5" viewBox="0 0 3 5" fill="none" xmlns="http://www.w3.org/2000/svg">
<path d="M1.85047 3.13905C1.85638 3.05696 1.83506 2.9752 1.7898 2.90646C1.76783 2.87976 1.73995 2.85857 1.70835 2.84452C1.67676 2.83048 1.64232 2.82399 1.60778 2.82557C1.51055 2.81133 1.41175 2.81133 1.31452 2.82557L0.889804 2.9267C0.596546 3.0076 0.384184 2.92668 0.262836 2.80533C0.127126 2.60285 0.0630516 2.3608 0.0808141 2.1177C0.0801072 1.94 0.103927 1.76306 0.1516 1.59187C0.19598 1.41002 0.260422 1.23363 0.343737 1.06601C0.535486 0.711758 0.81823 0.415073 1.16283 0.206484C1.30896 0.117598 1.46999 0.0559042 1.63811 0.0244387C1.7504 -0.00814625 1.86965 -0.00814625 1.98194 0.0244387C2.06972 0.0618911 2.14386 0.125462 2.1943 0.206484C2.23788 0.294714 2.26202 0.391269 2.26508 0.489628C2.28371 0.548872 2.28371 0.612399 2.26508 0.671643C2.25675 0.700108 2.24255 0.726522 2.22339 0.749164C2.20423 0.771806 2.18054 0.790179 2.15385 0.803108L1.97182 0.914329H1.89092C1.89092 0.914329 1.83025 0.914341 1.81002 0.86378C1.75784 0.797106 1.6816 0.753547 1.59766 0.742436C1.45643 0.748129 1.31969 0.793713 1.20328 0.873902C1.03784 0.96905 0.896103 1.1004 0.788682 1.25814C0.684153 1.40227 0.627551 1.57563 0.626881 1.75367C0.60469 1.82961 0.60469 1.91029 0.626881 1.98623C0.639859 2.01293 0.659936 2.03554 0.684906 2.0516C0.709876 2.06765 0.738777 2.07652 0.768453 2.07724C0.855575 2.09072 0.944254 2.09072 1.03138 2.07724L1.43587 1.98623C1.5794 1.95763 1.72717 1.95763 1.8707 1.98623C1.97582 2.00651 2.07245 2.05783 2.14814 2.13353C2.22384 2.20923 2.27514 2.30585 2.29542 2.41097C2.32842 2.53985 2.34541 2.67229 2.34598 2.80533C2.34244 2.99006 2.31525 3.17358 2.26508 3.3514C2.2068 3.54427 2.12886 3.73066 2.03249 3.9076C1.92713 4.08709 1.80525 4.25636 1.66845 4.41322C1.52562 4.5636 1.36221 4.69295 1.18306 4.79746C1.03786 4.89552 0.871542 4.95791 0.697667 4.97951C0.577855 5.00681 0.453434 5.00681 0.333622 4.97951C0.236935 4.93794 0.155633 4.86723 0.101043 4.77725C0.049945 4.69452 0.0187832 4.60106 0.0100281 4.50422C-0.00334269 4.44088 -0.00334269 4.37543 0.0100281 4.31209C0.0360596 4.26 0.0742059 4.21492 0.121264 4.18062L0.323516 4.06937H0.404408C0.404408 4.06937 0.465084 4.06939 0.485309 4.11995C0.509945 4.16263 0.545293 4.19813 0.587858 4.22296C0.630422 4.24779 0.678728 4.26107 0.728003 4.26151C0.876473 4.26161 1.02133 4.21571 1.14261 4.13007C1.23273 4.08278 1.31467 4.0213 1.38531 3.94803C1.46052 3.87396 1.52827 3.79268 1.58756 3.70534C1.64774 3.62361 1.6986 3.53542 1.73924 3.44241C1.8006 3.35193 1.8388 3.24776 1.85047 3.13905Z" fill="#455A64"/>
</svg>
