<svg width="3" height="7" viewBox="0 0 3 7" fill="none" xmlns="http://www.w3.org/2000/svg">
<path d="M1.46675 0.205372C1.62358 0.104661 1.80024 0.0388471 1.98473 0.0123977C2.05766 -0.00322056 2.13297 -0.00409855 2.20624 0.00985614C2.2795 0.0238108 2.34922 0.052302 2.4113 0.0936352C2.54818 0.19193 2.65111 0.330367 2.70583 0.489749C2.78363 0.735843 2.81799 0.993599 2.8074 1.25148C2.81976 1.8217 2.68323 2.38528 2.4113 2.88664C2.2951 3.10057 2.15172 3.29858 1.98473 3.47573C1.83158 3.63433 1.65727 3.77103 1.46675 3.88198L0.451114 4.4812V6.54295C0.465503 6.60647 0.465503 6.6724 0.451114 6.73592C0.431198 6.78909 0.395827 6.83507 0.349552 6.86796L0.115959 7C0.115959 7 0.0347021 7 0.0143894 7C0.00489209 6.9775 0 6.95332 0 6.9289C0 6.90448 0.00489209 6.88029 0.0143894 6.8578V1.30225C0.00179897 1.23854 0.00179897 1.17298 0.0143894 1.10927C0.0222758 1.08318 0.0353356 1.05896 0.0527842 1.03802C0.0702328 1.01708 0.0917196 0.999864 0.115959 0.987403L1.46675 0.205372ZM0.451114 3.69917L1.46675 3.13042C1.72587 2.97971 1.93982 2.76223 2.08629 2.50069C2.24312 2.2112 2.32023 1.88524 2.30974 1.55616C2.30974 1.19053 2.23864 0.956948 2.08629 0.875697C1.93395 0.794446 1.73082 0.875682 1.46675 0.987403L0.451114 1.56632V3.69917Z" fill="#455A64"/>
</svg>
