<svg width="3" height="6" viewBox="0 0 3 6" fill="none" xmlns="http://www.w3.org/2000/svg">
<path d="M2.72374 4.16514C2.73946 4.2314 2.73946 4.30041 2.72374 4.36667C2.69818 4.42642 2.65527 4.47713 2.60058 4.51223L2.37665 4.64659C2.35901 4.66021 2.33736 4.6676 2.31508 4.6676C2.29279 4.6676 2.27113 4.66021 2.25349 4.64659C2.24302 4.62178 2.23763 4.59512 2.23763 4.5682C2.23763 4.54128 2.24302 4.51466 2.25349 4.48985V1.993C2.29252 1.65578 2.21338 1.31545 2.02956 1.03007C1.8728 0.873316 1.66006 0.873316 1.39134 1.03007C1.11371 1.20386 0.895139 1.45759 0.764335 1.75788C0.596378 2.14614 0.516105 2.56664 0.529215 2.98948V5.48633C0.528071 5.56073 0.508855 5.63374 0.473229 5.69907C0.455062 5.7597 0.415197 5.81152 0.361256 5.84463L0.137327 5.97899C0.119687 5.9926 0.0980392 6 0.075754 6C0.0534689 6 0.0318035 5.9926 0.0141638 5.97899C-0.00472126 5.92844 -0.00472126 5.8728 0.0141638 5.82225V1.39958C-0.00155131 1.33332 -0.00155131 1.26431 0.0141638 1.19805C0.0397263 1.13829 0.0826315 1.08758 0.137327 1.05248L0.361256 0.91813C0.361256 0.91813 0.450836 0.91813 0.473229 0.91813C0.492309 0.937064 0.507163 0.959809 0.516812 0.984897C0.526461 1.00999 0.530691 1.03685 0.529215 1.06369V1.36599C0.618618 1.13646 0.735141 0.918426 0.876308 0.716565C1.03579 0.492108 1.24207 0.304936 1.48092 0.167942C1.64283 0.0670924 1.82784 0.00928815 2.01837 0C2.17712 0.00660396 2.32816 0.0702098 2.44383 0.17915C2.57307 0.322727 2.66532 0.495661 2.71255 0.682977C2.78461 0.956924 2.81851 1.2395 2.81332 1.52272L2.72374 4.16514Z" fill="#071C54"/>
</svg>
