<svg width="3" height="7" viewBox="0 0 3 7" fill="none" xmlns="http://www.w3.org/2000/svg">
<path d="M1.26088 2.25416C1.33709 2.19539 1.42484 2.15337 1.5184 2.13084C1.61196 2.10832 1.70922 2.1058 1.80383 2.12345C1.92958 2.1544 2.04013 2.2293 2.11552 2.3346V0.454376C2.11183 0.387 2.12942 0.320167 2.1658 0.263335C2.18495 0.210392 2.22009 0.164709 2.26635 0.132619L2.46744 0.0220161C2.48238 0.00787299 2.50216 0 2.52274 0C2.54331 0 2.5631 0.00787299 2.57804 0.0220161C2.595 0.0674057 2.595 0.117392 2.57804 0.162781V5.7532C2.59134 5.81618 2.59134 5.88125 2.57804 5.94424C2.55504 5.99526 2.51627 6.03755 2.46744 6.06489L2.26635 6.18556C2.26635 6.18556 2.18591 6.18556 2.1658 6.18556C2.14674 6.17005 2.13207 6.14982 2.12325 6.12689C2.11443 6.10396 2.11176 6.07912 2.11552 6.05484V5.79342C2.03331 5.99865 1.92878 6.19422 1.80383 6.3766C1.66023 6.57516 1.47491 6.73989 1.26088 6.85922C1.11676 6.9513 0.949264 7.00014 0.778243 6.99998C0.704082 6.99767 0.631157 6.98045 0.563789 6.94936C0.496421 6.91826 0.435988 6.87392 0.38611 6.81899C0.259723 6.68112 0.166836 6.51597 0.114644 6.33637C0.0467249 6.0837 0.00958785 5.82374 0.00404169 5.56215C-0.0011611 5.47174 -0.0011611 5.38111 0.00404169 5.29069C-0.00134723 5.19692 -0.00134723 5.10292 0.00404169 5.00916C0.0142646 4.70153 0.0512724 4.39538 0.114644 4.09418C0.179166 3.82447 0.270087 3.56178 0.38611 3.30991C0.488183 3.08232 0.620048 2.8693 0.778243 2.67646C0.910857 2.50634 1.07466 2.36302 1.26088 2.25416ZM2.11552 4.42598C2.11552 4.33549 2.11552 4.22489 2.11552 4.08413C2.11552 3.94336 2.11552 3.83276 2.11552 3.75232C2.14201 3.46779 2.05934 3.18383 1.88427 2.95799C1.80342 2.89183 1.70217 2.85569 1.5977 2.85569C1.49324 2.85569 1.39199 2.89183 1.31114 2.95799C1.05031 3.12142 0.849293 3.36478 0.738031 3.65177C0.589814 4.00191 0.511267 4.37759 0.506777 4.75779C0.496707 4.91515 0.496707 5.073 0.506777 5.23036C0.487671 5.52979 0.569054 5.82702 0.738031 6.07495C0.878797 6.23583 1.06983 6.23583 1.31114 6.07495C1.56234 5.92561 1.75954 5.70025 1.87422 5.43145C2.02697 5.11789 2.10932 4.77472 2.11552 4.42598Z" fill="#455A64"/>
</svg>
