<svg width="65" height="115" viewBox="0 0 65 115" fill="none" xmlns="http://www.w3.org/2000/svg">
<path d="M25.6388 55.9667L41.0075 49.3152L54.3106 31.2068L59.9635 0.501194L64.04 0.62336L63.2383 34.6411C63.2383 34.6411 43.9562 65.591 42.8555 66.7313C41.7548 67.8715 41.9315 91.4912 41.7141 95.1563C41.4967 98.8214 43.0729 105.704 42.6245 107.075C42.1761 108.446 40.097 112.124 33.2212 113.726C26.3454 115.328 13.7081 114.188 12.3357 112.586C10.9632 110.984 10.9768 106.396 10.9768 106.396C10.9768 106.396 4.03307 85.8442 4.03307 83.998C4.03307 82.9392 2.25298 75.4461 0.758243 69.3512C0.213868 67.1288 0.541204 64.7826 1.67314 62.7937C2.80508 60.8048 4.65583 59.3238 6.8459 58.6544C10.0743 57.665 13.3718 56.9163 16.7112 56.4146C19.4425 56.4146 25.6388 55.9667 25.6388 55.9667Z" fill="#FAB91D" stroke="#071C54" stroke-linecap="round" stroke-linejoin="round"/>
</svg>
