<svg width="38" height="38" viewBox="0 0 38 38" fill="none" xmlns="http://www.w3.org/2000/svg">
<path d="M31.214 0C33.0137 0 34.7397 0.714916 36.0122 1.98747C37.2848 3.26003 37.9997 4.98599 37.9997 6.78566V31.214C37.9997 33.0137 37.2848 34.7397 36.0122 36.0122C34.7397 37.2848 33.0137 37.9997 31.214 37.9997H6.78566C4.98599 37.9997 3.26003 37.2848 1.98747 36.0122C0.714916 34.7397 0 33.0137 0 31.214V6.78566C0 4.98599 0.714916 3.26003 1.98747 1.98747C3.26003 0.714916 4.98599 0 6.78566 0H31.214ZM31.214 2.71426H6.78566C5.70586 2.71426 4.67028 3.14321 3.90675 3.90675C3.14321 4.67028 2.71426 5.70586 2.71426 6.78566V31.214C2.71426 32.2938 3.14321 33.3294 3.90675 34.0929C4.67028 34.8565 5.70586 35.2854 6.78566 35.2854H31.214C32.2938 35.2854 33.3294 34.8565 34.0929 34.0929C34.8565 33.3294 35.2854 32.2938 35.2854 31.214V6.78566C35.2854 5.70586 34.8565 4.67028 34.0929 3.90675C33.3294 3.14321 32.2938 2.71426 31.214 2.71426ZM26.3772 16.2856C27.5878 16.2856 28.0248 16.4104 28.4672 16.6493C28.9096 16.8854 29.257 17.2329 29.4932 17.6753C29.732 18.1177 29.8569 18.5547 29.8569 19.7653V26.3772C29.8569 27.5878 29.732 28.0248 29.4932 28.4672C29.2619 28.9044 28.9044 29.2619 28.4672 29.4932C28.0275 29.732 27.5878 29.8569 26.3772 29.8569H11.6225C10.4119 29.8569 9.97492 29.732 9.53249 29.4932C9.09529 29.2619 8.7378 28.9044 8.5065 28.4672C8.26765 28.0275 8.14279 27.5878 8.14279 26.3772V19.7653C8.14279 18.5547 8.26765 18.1177 8.5065 17.6753C8.73793 17.2382 9.09539 16.8807 9.53249 16.6493C9.97492 16.4104 10.4119 16.2856 11.6225 16.2856H26.3772ZM26.9038 19.0053H11.0959L10.8788 19.0188L10.8625 19.236V26.9038L10.8761 27.1209L11.0932 27.1372H26.9038L27.1209 27.1236L27.1372 26.9065V19.2387L27.1236 19.0216L26.9065 19.0053H26.9038ZM28.4998 8.14279C28.8389 8.14217 29.166 8.26854 29.4166 8.49702C29.6672 8.72551 29.8232 9.03955 29.8538 9.3773C29.8845 9.71504 29.7876 10.052 29.5822 10.3219C29.3768 10.5917 29.0778 10.7749 28.744 10.8353L28.4998 10.8571H9.49992C9.16079 10.8577 8.8337 10.7313 8.58309 10.5028C8.33247 10.2743 8.17649 9.9603 8.14584 9.62255C8.1152 9.2848 8.21212 8.94781 8.41753 8.67796C8.62293 8.4081 8.92193 8.22492 9.25564 8.1645L9.49992 8.14279H28.4998Z" fill="#071C54"/>
</svg>
