<svg width="55" height="55" viewBox="0 0 55 55" fill="none" xmlns="http://www.w3.org/2000/svg">
<g clip-path="url(#clip0_68_981)">
<path d="M48.9844 7.21894C48.3934 6.83662 47.7176 6.60533 47.0163 6.5454C46.315 6.48546 45.6098 6.59871 44.9625 6.87519L23.7531 15.2283C23.251 15.4327 22.714 15.5377 22.1719 15.5377H8.59375C7.45415 15.5377 6.36122 15.9904 5.5554 16.7962C4.74958 17.602 4.29688 18.695 4.29688 19.8346V20.1783H0V30.4908H4.29688V30.9377C4.3238 32.0593 4.78837 33.1259 5.59129 33.9096C6.39421 34.6932 7.47179 35.1318 8.59375 35.1314L13.75 46.0627C14.0991 46.7988 14.6488 47.4215 15.3359 47.8593C16.023 48.2971 16.8197 48.5322 17.6344 48.5377H19.8C20.9336 48.5286 22.0178 48.0719 22.8162 47.2671C23.6146 46.4622 24.0625 45.3745 24.0625 44.2408V35.5439L44.9625 43.8971C45.4766 44.1016 46.0248 44.2066 46.5781 44.2064C47.4365 44.1926 48.2724 43.9299 48.9844 43.4502C49.5498 43.0684 50.0161 42.5576 50.3449 41.9598C50.6737 41.362 50.8554 40.6946 50.875 40.0127V10.7596C50.8719 10.0601 50.698 9.37195 50.3685 8.75493C50.039 8.1379 49.5639 7.61064 48.9844 7.21894ZM19.7656 19.8346V30.9377H8.59375V19.8346H19.7656ZM19.7656 44.2408H17.6L13.3719 35.1314H19.7656V44.2408ZM25.3344 31.4533C24.9262 31.2447 24.5007 31.0722 24.0625 30.9377V19.5939C24.4965 19.5044 24.922 19.3779 25.3344 19.2158L46.5781 10.7596V39.9096L25.3344 31.4533ZM50.9781 21.0377V29.6314C52.1177 29.6314 53.2107 29.1787 54.0165 28.3729C54.8223 27.5671 55.275 26.4742 55.275 25.3346C55.275 24.195 54.8223 23.102 54.0165 22.2962C53.2107 21.4904 52.1177 21.0377 50.9781 21.0377Z" fill="#FAB91D" stroke="white"/>
</g>
<defs>
<clipPath id="clip0_68_981">
<rect width="55" height="55" fill="white"/>
</clipPath>
</defs>
</svg>
