<svg width="1" height="5" viewBox="0 0 1 5" fill="none" xmlns="http://www.w3.org/2000/svg">
<path d="M0.565244 0.0256612C0.582644 0.00918794 0.605686 0 0.629647 0C0.653608 0 0.676668 0.00918794 0.694068 0.0256612C0.713821 0.0785287 0.713821 0.13675 0.694068 0.189618V0.857166C0.710505 0.926472 0.710505 0.998653 0.694068 1.06796C0.670267 1.13222 0.624679 1.1861 0.565244 1.22021L0.131934 1.46614C0.131934 1.46614 0.0499484 1.46614 0.0148148 1.46614C-0.00493826 1.41327 -0.00493826 1.35505 0.0148148 1.30218V0.63465C-0.00162261 0.565344 -0.00162261 0.493145 0.0148148 0.423838C0.0377807 0.362538 0.0785754 0.309526 0.131934 0.271605L0.565244 0.0256612ZM0.565244 3.53903C0.583694 3.52478 0.606337 3.51705 0.629647 3.51705C0.652956 3.51705 0.675617 3.52478 0.694068 3.53903C0.705019 3.56497 0.710669 3.59285 0.710669 3.62102C0.710669 3.64918 0.705019 3.67704 0.694068 3.70298V4.35881C0.711491 4.43196 0.711491 4.50818 0.694068 4.58133C0.66733 4.64382 0.622453 4.69686 0.565244 4.73358L0.131934 4.9795C0.115317 4.99281 0.0946613 5.00005 0.0733744 5.00005C0.0520876 5.00005 0.0314318 4.99281 0.0148148 4.9795C0.0148148 4.9795 0.0148148 4.89754 0.0148148 4.82727V4.15972C-0.000670083 4.08636 -0.000670083 4.01057 0.0148148 3.93721C0.0378397 3.87905 0.0788883 3.82981 0.131934 3.79668L0.565244 3.53903Z" fill="#455A64"/>
</svg>
